<svg width="24" height="24" viewBox="0 0 24 24" fill="none" xmlns="http://www.w3.org/2000/svg"><path d="M6.378 3.058 C 5.145 3.250,4.030 4.054,3.464 5.160 C 3.233 5.611,3.129 5.930,3.058 6.395 C 2.986 6.879,2.986 7.121,3.058 7.605 C 3.280 9.074,4.324 10.310,5.755 10.797 C 6.050 10.897,6.680 11.000,7.000 11.000 C 7.564 11.000,8.244 10.837,8.763 10.577 L 9.027 10.446 9.803 11.223 L 10.579 12.000 9.803 12.777 L 9.027 13.554 8.763 13.422 C 6.850 12.460,4.442 13.249,3.464 15.160 C 3.233 15.611,3.129 15.930,3.058 16.395 C 2.986 16.879,2.986 17.121,3.058 17.605 C 3.247 18.855,4.042 19.964,5.160 20.536 C 5.611 20.767,5.930 20.871,6.395 20.942 C 6.879 21.014,7.121 21.014,7.605 20.942 C 9.074 20.720,10.310 19.676,10.797 18.245 C 10.897 17.950,11.000 17.320,11.000 17.000 C 11.000 16.435,10.828 15.726,10.569 15.220 L 10.446 14.980 15.160 10.260 C 19.761 5.652,19.875 5.535,19.937 5.323 C 20.016 5.052,20.016 4.948,19.939 4.690 C 19.856 4.411,19.589 4.144,19.310 4.061 C 19.052 3.984,18.948 3.984,18.677 4.063 C 18.466 4.125,18.366 4.220,15.230 7.353 L 12.000 10.579 11.223 9.803 L 10.446 9.027 10.577 8.763 C 10.769 8.379,10.876 8.039,10.942 7.605 C 11.014 7.121,11.014 6.879,10.942 6.395 C 10.614 4.220,8.561 2.719,6.378 3.058 M7.492 5.060 C 7.852 5.153,8.118 5.310,8.404 5.596 C 8.700 5.891,8.852 6.157,8.940 6.529 C 9.106 7.236,8.920 7.889,8.404 8.404 C 8.001 8.807,7.546 9.000,7.000 9.000 C 6.454 9.000,5.999 8.807,5.596 8.404 C 5.193 8.001,5.000 7.546,5.000 7.000 C 5.000 6.454,5.193 5.999,5.596 5.596 C 6.000 5.191,6.429 5.008,6.982 5.003 C 7.136 5.001,7.366 5.027,7.492 5.060 M13.846 13.166 C 13.167 13.361,12.911 14.193,13.359 14.750 C 13.443 14.855,14.625 16.050,15.986 17.406 C 18.374 19.787,18.468 19.875,18.677 19.936 C 18.948 20.016,19.052 20.016,19.310 19.939 C 19.589 19.856,19.856 19.589,19.939 19.310 C 20.016 19.052,20.016 18.948,19.937 18.677 C 19.875 18.467,19.791 18.378,17.267 15.853 C 14.742 13.329,14.653 13.245,14.443 13.183 C 14.201 13.113,14.046 13.108,13.846 13.166 M7.492 15.060 C 7.852 15.153,8.118 15.310,8.404 15.596 C 8.700 15.891,8.852 16.157,8.940 16.529 C 9.106 17.236,8.920 17.889,8.404 18.404 C 8.001 18.807,7.546 19.000,7.000 19.000 C 6.454 19.000,5.999 18.807,5.596 18.404 C 5.193 18.001,5.000 17.546,5.000 17.000 C 5.000 16.454,5.193 15.999,5.596 15.596 C 6.000 15.191,6.429 15.008,6.982 15.003 C 7.136 15.001,7.366 15.027,7.492 15.060 " stroke="none" fill-rule="evenodd" fill="black"></path></svg>