<svg width="24" height="24" viewBox="0 0 24 24" fill="none" xmlns="http://www.w3.org/2000/svg"><path d="M4.506 3.042 C 3.382 3.231,2.426 4.084,2.112 5.178 C 2.020 5.499,2.020 5.509,2.020 8.000 C 2.020 10.492,2.020 10.501,2.112 10.820 C 2.215 11.176,2.417 11.572,2.627 11.830 L 2.765 12.000 2.627 12.170 C 2.417 12.428,2.215 12.824,2.112 13.180 C 2.020 13.499,2.020 13.508,2.020 16.000 C 2.020 18.490,2.020 18.501,2.112 18.822 C 2.391 19.796,3.204 20.609,4.178 20.888 L 4.500 20.980 12.000 20.980 L 19.500 20.980 19.822 20.888 C 20.796 20.609,21.609 19.796,21.888 18.822 C 21.980 18.501,21.980 18.490,21.980 16.000 C 21.980 13.508,21.980 13.499,21.888 13.180 C 21.785 12.824,21.583 12.428,21.373 12.170 L 21.235 12.000 21.373 11.830 C 21.583 11.572,21.785 11.176,21.888 10.820 C 21.980 10.501,21.980 10.492,21.980 8.000 C 21.980 5.509,21.980 5.499,21.888 5.178 C 21.570 4.069,20.616 3.227,19.467 3.041 C 19.167 2.992,4.797 2.993,4.506 3.042 M19.330 5.057 C 19.551 5.136,19.744 5.298,19.869 5.511 L 19.980 5.700 19.980 8.000 L 19.980 10.300 19.869 10.489 C 19.744 10.702,19.551 10.864,19.330 10.943 C 19.107 11.022,4.893 11.022,4.670 10.943 C 4.449 10.864,4.256 10.702,4.131 10.489 L 4.020 10.300 4.020 8.000 L 4.020 5.700 4.131 5.511 C 4.256 5.298,4.449 5.136,4.670 5.057 C 4.893 4.978,19.107 4.978,19.330 5.057 M16.673 7.063 C 16.310 7.175,16.000 7.606,16.000 8.000 C 16.000 8.415,16.310 8.828,16.710 8.944 C 17.209 9.090,17.693 8.878,17.905 8.422 C 18.160 7.874,17.875 7.230,17.303 7.059 C 17.062 6.987,16.917 6.988,16.673 7.063 M19.330 13.057 C 19.551 13.136,19.744 13.298,19.869 13.511 L 19.980 13.700 19.980 16.000 L 19.980 18.300 19.869 18.489 C 19.744 18.702,19.551 18.864,19.330 18.943 C 19.107 19.022,4.893 19.022,4.670 18.943 C 4.449 18.864,4.256 18.702,4.131 18.489 L 4.020 18.300 4.020 16.000 L 4.020 13.700 4.131 13.511 C 4.256 13.298,4.449 13.136,4.670 13.057 C 4.893 12.978,19.107 12.978,19.330 13.057 M16.673 15.063 C 16.310 15.175,16.000 15.606,16.000 16.000 C 16.000 16.415,16.310 16.828,16.710 16.944 C 17.209 17.090,17.693 16.878,17.905 16.422 C 18.160 15.874,17.875 15.230,17.303 15.059 C 17.062 14.987,16.917 14.988,16.673 15.063 " stroke="none" fill-rule="evenodd" fill="black"></path></svg>