<svg width="24" height="24" viewBox="0 0 24 24" fill="none" xmlns="http://www.w3.org/2000/svg"><path d="M11.378 1.058 C 9.924 1.284,8.686 2.336,8.203 3.755 C 8.012 4.318,8.000 4.557,8.000 8.000 C 8.000 11.443,8.012 11.682,8.203 12.245 C 8.538 13.229,9.261 14.076,10.160 14.536 C 10.611 14.767,10.930 14.871,11.395 14.942 C 11.879 15.014,12.121 15.014,12.605 14.942 C 14.074 14.720,15.310 13.676,15.797 12.245 C 15.988 11.682,16.000 11.443,16.000 8.000 C 16.000 4.557,15.988 4.318,15.797 3.755 C 15.163 1.892,13.306 0.758,11.378 1.058 M12.492 3.060 C 12.618 3.092,12.815 3.167,12.930 3.225 C 13.199 3.361,13.639 3.801,13.775 4.069 C 14.000 4.513,13.999 4.500,13.999 8.014 C 14.000 11.537,14.003 11.479,13.771 11.937 C 13.638 12.200,13.196 12.640,12.930 12.775 C 12.341 13.073,11.659 13.073,11.070 12.775 C 10.801 12.639,10.361 12.199,10.225 11.930 C 9.996 11.478,10.000 11.547,10.000 8.000 C 10.000 4.453,9.996 4.522,10.225 4.070 C 10.362 3.800,10.801 3.361,11.071 3.225 C 11.507 3.004,12.040 2.942,12.492 3.060 M4.673 10.063 C 4.429 10.138,4.150 10.414,4.064 10.666 C 3.909 11.121,4.073 12.490,4.404 13.497 C 5.288 16.190,7.585 18.246,10.352 18.822 C 10.609 18.876,10.861 18.920,10.910 18.920 L 11.000 18.920 11.000 19.960 L 11.000 21.000 9.447 21.000 C 8.174 21.000,7.858 21.011,7.690 21.061 C 7.309 21.174,7.000 21.595,7.000 22.000 C 7.000 22.405,7.309 22.826,7.690 22.939 C 7.998 23.031,16.002 23.031,16.310 22.939 C 16.688 22.827,17.000 22.402,17.000 22.000 C 17.000 21.763,16.880 21.486,16.697 21.303 C 16.401 21.007,16.350 21.000,14.553 21.000 L 13.000 21.000 13.000 19.960 L 13.000 18.920 13.090 18.920 C 13.274 18.919,14.131 18.720,14.548 18.580 C 15.370 18.306,16.357 17.767,17.000 17.241 C 18.708 15.844,19.757 13.894,19.959 11.740 C 20.015 11.143,20.011 10.931,19.939 10.690 C 19.827 10.312,19.402 10.000,19.000 10.000 C 18.609 10.000,18.181 10.307,18.067 10.670 C 18.034 10.774,17.997 11.062,17.985 11.309 C 17.879 13.410,16.628 15.359,14.772 16.312 C 13.421 17.006,11.999 17.176,10.559 16.818 C 8.309 16.258,6.585 14.453,6.122 12.169 C 6.076 11.944,6.023 11.530,6.004 11.249 C 5.966 10.663,5.915 10.513,5.679 10.283 C 5.411 10.024,5.054 9.946,4.673 10.063 " stroke="none" fill-rule="evenodd" fill="black"></path></svg>