<svg width="24" height="24" viewBox="0 0 24 24" fill="none" xmlns="http://www.w3.org/2000/svg"><path d="M8.982 2.042 C 6.799 2.385,5.451 4.660,6.220 6.703 C 6.275 6.850,6.320 6.976,6.320 6.985 C 6.320 6.993,5.974 7.000,5.550 7.000 C 4.471 7.001,4.028 7.087,3.519 7.394 C 2.818 7.818,2.319 8.452,2.114 9.178 C 1.982 9.645,1.987 10.406,2.125 10.861 C 2.361 11.636,2.925 12.305,3.660 12.683 L 3.980 12.847 4.001 16.194 L 4.021 19.540 4.122 19.861 C 4.428 20.835,5.217 21.612,6.178 21.888 L 6.500 21.980 12.000 21.980 L 17.500 21.980 17.822 21.888 C 18.783 21.612,19.572 20.835,19.878 19.861 L 19.979 19.540 19.999 16.194 L 20.020 12.847 20.340 12.683 C 21.075 12.305,21.639 11.636,21.875 10.861 C 22.013 10.406,22.018 9.645,21.886 9.178 C 21.681 8.452,21.182 7.818,20.481 7.394 C 19.929 7.061,19.556 7.001,18.027 7.000 C 16.910 7.000,16.836 6.996,16.855 6.930 C 16.866 6.891,16.898 6.779,16.926 6.680 C 16.954 6.579,16.976 6.280,16.976 6.000 C 16.977 5.602,16.958 5.435,16.886 5.178 C 16.682 4.452,16.183 3.819,15.481 3.394 C 14.666 2.902,13.452 2.881,12.605 3.344 L 12.350 3.484 12.287 3.392 C 11.903 2.839,11.103 2.305,10.378 2.119 C 10.010 2.025,9.329 1.987,8.982 2.042 M10.101 4.135 C 10.414 4.278,10.723 4.585,10.867 4.896 C 10.979 5.138,10.980 5.146,10.993 6.073 L 11.005 7.005 10.073 6.993 L 9.140 6.980 8.880 6.856 C 8.551 6.698,8.304 6.452,8.145 6.120 C 8.034 5.888,8.020 5.821,8.020 5.500 C 8.020 5.190,8.035 5.107,8.132 4.900 C 8.319 4.499,8.662 4.199,9.100 4.054 C 9.357 3.968,9.817 4.006,10.101 4.135 M14.512 5.147 C 15.156 5.543,15.151 6.460,14.503 6.859 C 14.308 6.979,14.301 6.980,13.650 6.994 L 12.993 7.007 13.006 6.354 C 13.020 5.723,13.024 5.693,13.131 5.511 C 13.339 5.158,13.660 4.988,14.072 5.015 C 14.261 5.027,14.371 5.060,14.512 5.147 M11.000 10.000 L 11.000 11.000 7.910 10.998 C 5.433 10.997,4.790 10.986,4.670 10.943 C 4.449 10.864,4.256 10.702,4.131 10.489 C 4.036 10.328,4.020 10.256,4.020 10.000 C 4.020 9.744,4.036 9.672,4.131 9.511 C 4.256 9.298,4.449 9.136,4.670 9.057 C 4.790 9.014,5.433 9.003,7.910 9.002 L 11.000 9.000 11.000 10.000 M19.503 9.141 C 19.613 9.209,19.756 9.346,19.828 9.452 C 20.144 9.923,19.999 10.554,19.503 10.859 L 19.306 10.980 16.153 10.991 L 13.000 11.002 13.000 10.000 L 13.000 8.998 16.153 9.009 L 19.306 9.020 19.503 9.141 M11.000 16.501 L 11.000 20.003 8.850 19.991 L 6.700 19.980 6.511 19.869 C 6.298 19.744,6.136 19.551,6.057 19.330 C 6.014 19.210,6.003 18.567,6.002 16.090 L 6.000 13.000 8.500 13.000 L 11.000 13.000 11.000 16.501 M17.998 16.090 C 17.997 18.567,17.986 19.210,17.943 19.330 C 17.864 19.551,17.702 19.744,17.489 19.869 L 17.300 19.980 15.150 19.991 L 13.000 20.003 13.000 16.501 L 13.000 13.000 15.500 13.000 L 18.000 13.000 17.998 16.090 " stroke="none" fill-rule="evenodd" fill="black"></path></svg>