<svg width="24" height="24" viewBox="0 0 24 24" fill="none" xmlns="http://www.w3.org/2000/svg"><path d="M10.670 3.058 C 10.465 3.137,10.258 3.301,10.156 3.467 C 10.102 3.553,9.864 4.428,9.522 5.793 L 8.974 7.980 7.357 8.000 C 5.545 8.022,5.578 8.017,5.287 8.318 C 4.903 8.714,4.911 9.305,5.306 9.700 C 5.592 9.986,5.682 10.000,7.182 10.000 L 8.470 10.000 7.970 12.000 L 7.470 14.000 5.682 14.000 C 3.628 14.000,3.603 14.003,3.306 14.300 C 2.902 14.704,2.902 15.296,3.306 15.700 C 3.598 15.992,3.655 16.000,5.427 16.000 C 6.270 16.000,6.960 16.009,6.960 16.019 C 6.960 16.030,6.744 16.904,6.480 17.962 C 6.216 19.020,6.000 19.944,6.000 20.015 C 6.000 20.406,6.312 20.827,6.683 20.937 C 6.799 20.972,6.952 21.000,7.022 21.000 C 7.316 21.000,7.686 20.790,7.844 20.533 C 7.898 20.447,8.136 19.572,8.478 18.207 L 9.026 16.020 10.993 16.010 C 12.075 16.004,12.960 16.008,12.960 16.019 C 12.960 16.029,12.744 16.904,12.480 17.962 C 12.216 19.020,12.000 19.944,12.000 20.015 C 12.000 20.406,12.312 20.827,12.683 20.937 C 12.799 20.972,12.952 21.000,13.022 21.000 C 13.316 21.000,13.686 20.790,13.844 20.533 C 13.898 20.447,14.136 19.572,14.478 18.207 L 15.026 16.020 16.643 16.000 C 18.458 15.978,18.421 15.983,18.717 15.679 C 18.880 15.510,19.000 15.223,19.000 15.000 C 19.000 14.763,18.880 14.486,18.697 14.303 C 18.408 14.014,18.322 14.000,16.818 14.000 L 15.530 14.000 16.030 12.000 L 16.530 10.000 18.318 10.000 C 20.376 10.000,20.396 9.997,20.697 9.697 C 20.880 9.514,21.000 9.237,21.000 9.000 C 21.000 8.763,20.880 8.486,20.697 8.303 C 20.401 8.008,20.348 8.000,18.573 8.000 C 17.730 8.000,17.040 7.991,17.040 7.981 C 17.040 7.970,17.256 7.096,17.520 6.038 C 17.784 4.980,18.000 4.055,18.000 3.982 C 18.000 3.652,17.766 3.277,17.466 3.127 C 16.990 2.890,16.421 3.037,16.156 3.467 C 16.102 3.553,15.864 4.428,15.522 5.793 L 14.974 7.980 13.007 7.990 C 11.925 7.996,11.040 7.992,11.040 7.981 C 11.040 7.971,11.256 7.096,11.520 6.038 C 11.784 4.980,12.000 4.055,12.000 3.982 C 12.000 3.650,11.766 3.277,11.461 3.125 C 11.230 3.009,10.875 2.980,10.670 3.058 M13.970 12.000 L 13.470 14.000 11.500 14.000 L 9.530 14.000 10.030 12.000 L 10.530 10.000 12.500 10.000 L 14.470 10.000 13.970 12.000 " stroke="none" fill-rule="evenodd" fill="black"></path></svg>