<svg width="24" height="24" viewBox="0 0 24 24" fill="none" xmlns="http://www.w3.org/2000/svg"><path d="M11.666 2.056 C 11.376 2.164,10.788 2.678,10.289 3.260 C 9.243 4.479,8.519 6.034,8.216 7.710 C 8.175 7.935,8.129 8.120,8.115 8.120 C 8.078 8.120,7.723 7.704,7.552 7.460 C 7.474 7.350,7.344 7.130,7.262 6.972 C 7.040 6.544,6.758 6.359,6.331 6.361 C 6.015 6.362,5.802 6.468,5.512 6.770 C 4.444 7.878,3.628 9.357,3.267 10.840 C 3.081 11.603,3.023 12.112,3.023 13.000 C 3.023 14.496,3.281 15.628,3.921 16.940 C 4.812 18.769,6.231 20.188,8.060 21.079 C 9.372 21.719,10.504 21.977,12.000 21.977 C 13.496 21.977,14.628 21.719,15.940 21.079 C 18.628 19.769,20.449 17.276,20.906 14.280 C 21.003 13.646,21.003 12.353,20.906 11.720 C 20.656 10.088,20.017 8.619,19.010 7.365 C 18.306 6.488,17.605 5.893,16.020 4.829 C 14.234 3.631,13.754 3.273,12.980 2.560 C 12.760 2.358,12.509 2.156,12.423 2.112 C 12.219 2.007,11.866 1.981,11.666 2.056 M12.940 5.119 C 13.226 5.334,13.964 5.848,14.580 6.261 C 15.971 7.194,16.392 7.513,16.901 8.020 C 18.054 9.169,18.728 10.530,18.938 12.132 C 19.311 14.979,17.831 17.828,15.280 19.174 C 14.584 19.541,13.880 19.778,13.040 19.926 C 12.645 19.995,11.355 19.995,10.960 19.926 C 9.402 19.651,8.137 19.011,7.087 17.967 C 5.129 16.020,4.494 13.211,5.427 10.620 C 5.593 10.159,5.726 9.879,6.010 9.394 L 6.213 9.048 6.656 9.498 C 7.469 10.323,8.534 11.000,9.019 11.000 C 9.361 11.000,9.719 10.773,9.878 10.456 C 9.962 10.287,9.978 10.182,10.005 9.628 C 10.108 7.538,10.683 5.882,11.742 4.631 L 11.970 4.362 12.195 4.544 C 12.319 4.645,12.654 4.903,12.940 5.119 M11.760 10.037 C 11.410 10.144,11.176 10.388,11.026 10.803 C 10.967 10.966,10.778 11.523,10.606 12.040 L 10.293 12.980 9.517 13.001 C 8.638 13.025,8.549 13.048,8.287 13.318 C 8.003 13.610,7.952 13.899,8.058 14.605 C 8.247 15.855,9.042 16.964,10.160 17.536 C 10.611 17.767,10.930 17.871,11.395 17.942 C 11.879 18.014,12.121 18.014,12.605 17.942 C 14.074 17.720,15.310 16.676,15.797 15.245 C 15.897 14.950,16.000 14.320,16.000 14.000 C 16.000 13.680,15.897 13.050,15.797 12.755 C 15.310 11.323,14.078 10.284,12.600 10.058 C 12.190 9.996,11.919 9.989,11.760 10.037 M12.931 12.226 C 13.232 12.378,13.654 12.816,13.799 13.126 C 14.073 13.711,14.063 14.362,13.771 14.937 C 13.638 15.200,13.196 15.640,12.930 15.775 C 12.341 16.073,11.661 16.073,11.069 15.775 C 10.873 15.676,10.280 15.127,10.280 15.044 C 10.280 15.023,10.501 15.001,10.771 14.993 C 11.205 14.982,11.286 14.968,11.461 14.878 C 11.797 14.705,11.867 14.572,12.298 13.285 C 12.512 12.644,12.696 12.120,12.705 12.120 C 12.715 12.120,12.816 12.168,12.931 12.226 " stroke="none" fill-rule="evenodd" fill="black"></path></svg>