<svg width="24" height="24" viewBox="0 0 24 24" fill="none" xmlns="http://www.w3.org/2000/svg"><path d="M11.752 2.041 C 11.641 2.069,3.633 6.040,3.568 6.100 C 3.561 6.106,3.655 6.311,3.778 6.556 L 4.001 7.000 3.500 7.000 L 3.000 7.000 3.000 12.073 C 3.000 17.726,2.983 17.373,3.275 17.679 C 3.392 17.801,4.213 18.227,7.472 19.856 C 9.701 20.971,11.537 21.874,11.552 21.865 C 11.567 21.855,11.669 21.666,11.778 21.444 C 11.888 21.222,11.987 21.040,12.000 21.040 C 12.013 21.040,12.112 21.222,12.222 21.444 C 12.331 21.666,12.433 21.855,12.448 21.865 C 12.463 21.874,14.299 20.971,16.528 19.856 C 19.787 18.227,20.608 17.801,20.725 17.679 C 21.017 17.373,21.000 17.726,21.000 12.073 L 21.000 7.000 20.500 7.000 L 19.999 7.000 20.220 6.561 C 20.341 6.319,20.440 6.116,20.440 6.110 C 20.440 6.104,18.608 5.186,16.370 4.069 C 12.043 1.911,12.127 1.948,11.752 2.041 M14.860 5.550 C 16.433 6.336,17.720 6.989,17.720 7.000 C 17.720 7.011,16.433 7.664,14.860 8.450 L 12.000 9.880 9.140 8.450 C 7.567 7.664,6.280 7.011,6.280 7.000 C 6.280 6.985,11.936 4.134,11.990 4.122 C 11.995 4.121,13.287 4.763,14.860 5.550 M8.020 10.130 L 11.000 11.620 11.000 15.490 C 11.000 17.618,10.991 19.360,10.980 19.360 C 10.969 19.360,9.619 18.690,7.980 17.870 L 5.000 16.380 5.000 12.510 C 5.000 10.382,5.009 8.640,5.020 8.640 C 5.031 8.640,6.381 9.310,8.020 10.130 M19.000 12.510 L 19.000 16.380 16.020 17.870 C 14.381 18.690,13.031 19.360,13.020 19.360 C 13.009 19.360,13.000 17.618,13.000 15.490 L 13.000 11.620 15.970 10.132 C 17.604 9.314,18.953 8.643,18.970 8.642 C 18.987 8.641,19.000 10.382,19.000 12.510 " stroke="none" fill-rule="evenodd" fill="black"></path></svg>