<svg width="24" height="24" viewBox="0 0 24 24" fill="none" xmlns="http://www.w3.org/2000/svg"><path d="M10.260 2.158 C 7.865 2.583,5.717 3.858,4.193 5.760 C 1.935 8.579,1.379 12.428,2.746 15.780 C 3.251 17.019,3.966 18.088,4.939 19.061 C 5.501 19.624,5.912 19.960,6.540 20.370 C 9.274 22.160,12.755 22.492,15.779 21.254 C 18.847 19.997,21.100 17.297,21.781 14.060 C 21.908 13.455,21.950 12.871,21.881 12.662 C 21.817 12.469,21.593 12.220,21.383 12.107 L 21.220 12.020 16.611 12.009 L 12.001 11.999 11.991 7.389 L 11.980 2.780 11.894 2.620 C 11.782 2.413,11.579 2.220,11.391 2.142 C 11.197 2.061,10.771 2.067,10.260 2.158 M14.670 2.575 C 14.446 2.658,14.255 2.820,14.131 3.031 L 14.020 3.220 14.009 6.177 C 13.997 9.527,13.984 9.378,14.306 9.699 C 14.616 10.010,14.506 10.000,17.757 10.000 C 19.606 10.000,20.673 9.985,20.769 9.958 C 20.998 9.894,21.243 9.684,21.372 9.439 C 21.474 9.246,21.486 9.189,21.469 8.960 C 21.436 8.483,20.931 7.387,20.320 6.467 C 19.352 5.010,17.992 3.809,16.460 3.059 C 15.455 2.567,15.012 2.447,14.670 2.575 M10.000 8.713 C 10.000 13.706,9.980 13.373,10.306 13.700 C 10.624 14.018,10.329 14.000,15.307 14.000 C 19.379 14.000,19.720 14.005,19.720 14.066 C 19.720 14.191,19.429 14.981,19.222 15.420 C 18.852 16.203,18.423 16.830,17.812 17.480 C 17.115 18.221,16.393 18.749,15.460 19.200 C 14.398 19.713,13.485 19.937,12.260 19.986 C 10.462 20.058,8.680 19.500,7.200 18.402 C 6.816 18.117,6.100 17.426,5.789 17.041 C 4.573 15.534,3.936 13.632,4.014 11.740 C 4.066 10.496,4.302 9.557,4.841 8.451 C 5.610 6.875,6.944 5.558,8.547 4.792 C 8.964 4.592,9.805 4.281,9.930 4.280 C 9.996 4.280,10.000 4.518,10.000 8.713 M16.689 5.519 C 17.390 6.008,18.392 7.094,18.834 7.841 L 18.928 8.000 17.464 8.000 L 16.000 8.000 16.000 6.536 L 16.000 5.072 16.159 5.166 C 16.247 5.218,16.485 5.377,16.689 5.519 " stroke="none" fill-rule="evenodd" fill="black"></path></svg>