<svg width="24" height="24" viewBox="0 0 24 24" fill="none" xmlns="http://www.w3.org/2000/svg"><path d="M5.506 2.042 C 4.393 2.229,3.445 3.067,3.113 4.157 L 3.021 4.460 3.010 12.798 C 2.997 22.175,2.970 21.364,3.306 21.700 C 3.521 21.915,3.826 22.023,4.116 21.986 C 4.246 21.970,4.844 21.692,6.150 21.042 L 8.000 20.121 9.862 21.050 L 11.724 21.980 12.000 21.980 L 12.276 21.980 14.138 21.050 L 16.000 20.121 17.850 21.043 C 19.871 22.049,19.928 22.070,20.306 21.945 C 20.565 21.858,20.758 21.694,20.880 21.455 L 20.980 21.260 20.980 12.880 L 20.980 4.500 20.888 4.178 C 20.570 3.069,19.616 2.227,18.467 2.041 C 18.167 1.992,5.797 1.993,5.506 2.042 M18.489 4.131 C 18.702 4.256,18.864 4.449,18.943 4.670 C 18.987 4.793,18.997 6.121,18.998 12.090 C 18.999 16.089,18.992 19.360,18.981 19.360 C 18.971 19.360,18.359 19.059,17.622 18.692 L 16.281 18.024 15.999 18.024 L 15.717 18.024 13.859 18.951 L 12.000 19.879 10.141 18.951 L 8.283 18.024 8.001 18.024 L 7.719 18.024 6.378 18.692 C 5.641 19.059,5.029 19.360,5.018 19.360 C 5.008 19.360,5.004 16.062,5.010 12.030 L 5.020 4.700 5.131 4.511 C 5.256 4.298,5.448 4.136,5.670 4.057 C 5.794 4.012,6.917 4.004,12.060 4.011 L 18.300 4.020 18.489 4.131 M10.660 6.066 C 10.476 6.122,10.330 6.257,8.795 7.793 C 7.302 9.288,7.124 9.480,7.065 9.657 C 6.983 9.906,6.983 10.094,7.065 10.343 C 7.124 10.520,7.302 10.712,8.795 12.207 C 10.390 13.803,10.469 13.876,10.677 13.937 C 10.948 14.016,11.052 14.016,11.310 13.939 C 11.589 13.856,11.856 13.589,11.939 13.310 C 12.016 13.052,12.016 12.947,11.936 12.680 C 11.878 12.485,11.805 12.397,11.146 11.729 L 10.420 10.993 11.500 11.009 C 12.487 11.025,12.604 11.034,12.860 11.117 C 13.830 11.432,14.574 12.176,14.881 13.140 C 14.959 13.382,14.974 13.544,14.997 14.340 C 15.026 15.377,15.042 15.446,15.321 15.717 C 15.490 15.880,15.777 16.000,16.000 16.000 C 16.402 16.000,16.827 15.688,16.939 15.310 C 17.012 15.064,17.022 14.042,16.957 13.448 C 16.721 11.288,15.126 9.551,12.959 9.097 C 12.749 9.053,12.329 9.027,11.548 9.012 L 10.436 8.990 11.154 8.263 C 11.806 7.603,11.878 7.515,11.936 7.320 C 12.016 7.053,12.016 6.948,11.939 6.690 C 11.856 6.411,11.589 6.144,11.310 6.061 C 11.060 5.986,10.920 5.988,10.660 6.066 " stroke="none" fill-rule="evenodd" fill="black"></path></svg>