<svg width="24" height="24" viewBox="0 0 24 24" fill="none" xmlns="http://www.w3.org/2000/svg"><path d="M11.773 3.036 C 11.703 3.054,11.568 3.109,11.473 3.159 C 10.887 3.464,2.502 8.142,2.371 8.237 C 2.071 8.454,1.931 8.930,2.055 9.306 C 2.174 9.663,2.267 9.735,3.476 10.400 C 4.437 10.929,4.599 11.032,4.585 11.100 C 4.576 11.144,4.494 11.468,4.403 11.820 C 3.983 13.455,3.896 15.172,4.144 16.898 C 4.219 17.419,4.331 17.669,4.564 17.838 C 4.773 17.990,4.882 18.022,5.440 18.100 C 5.871 18.160,6.441 18.269,6.830 18.367 L 7.000 18.409 7.000 19.278 C 7.000 20.294,7.027 20.421,7.306 20.700 C 7.486 20.879,7.764 21.000,8.000 21.000 C 8.223 21.000,8.510 20.880,8.679 20.717 C 8.929 20.474,8.972 20.340,8.998 19.730 L 9.020 19.199 9.478 19.465 C 10.030 19.787,10.484 20.104,11.027 20.548 C 11.509 20.942,11.699 21.038,12.000 21.038 C 12.301 21.038,12.491 20.943,12.973 20.549 C 14.647 19.180,16.458 18.384,18.540 18.102 C 19.117 18.024,19.224 17.992,19.440 17.835 C 19.742 17.616,19.859 17.192,19.959 15.944 C 20.065 14.611,19.936 13.139,19.594 11.810 C 19.505 11.463,19.424 11.144,19.415 11.100 C 19.401 11.032,19.563 10.929,20.524 10.400 C 21.325 9.959,21.684 9.740,21.766 9.640 C 21.891 9.489,22.000 9.182,22.000 8.980 C 22.000 8.785,21.888 8.502,21.748 8.344 C 21.653 8.237,20.474 7.564,17.180 5.735 C 14.738 4.379,12.641 3.219,12.520 3.157 C 12.281 3.036,11.974 2.986,11.773 3.036 M15.497 7.080 C 17.379 8.125,18.919 8.989,18.919 9.000 C 18.919 9.024,12.096 12.815,12.022 12.832 C 11.978 12.842,10.847 12.245,10.748 12.159 C 10.730 12.144,11.135 11.899,11.647 11.616 C 12.188 11.317,12.642 11.038,12.727 10.953 C 12.882 10.798,13.000 10.498,13.000 10.260 C 13.000 9.764,12.517 9.279,12.023 9.280 C 11.772 9.281,11.547 9.387,10.114 10.183 L 8.649 10.998 6.865 10.009 C 5.884 9.465,5.081 9.011,5.081 9.000 C 5.082 8.957,11.944 5.165,12.007 5.172 C 12.044 5.176,13.614 6.035,15.497 7.080 M6.990 14.349 L 7.001 16.347 6.537 16.257 C 6.282 16.207,6.061 16.155,6.047 16.140 C 5.998 16.091,6.018 14.075,6.072 13.680 C 6.125 13.284,6.287 12.451,6.362 12.188 L 6.405 12.035 6.693 12.193 L 6.980 12.351 6.990 14.349 M17.713 12.500 C 17.937 13.472,18.021 14.365,17.987 15.395 C 17.974 15.800,17.956 16.138,17.946 16.147 C 17.937 16.156,17.670 16.216,17.352 16.280 C 15.912 16.571,14.508 17.127,13.220 17.916 C 12.831 18.154,12.233 18.565,12.094 18.689 C 12.009 18.766,12.008 18.765,11.774 18.588 C 11.131 18.100,10.172 17.529,9.440 17.199 L 9.020 17.009 9.010 15.243 L 8.999 13.477 9.090 13.525 C 9.139 13.551,9.648 13.833,10.220 14.152 C 11.704 14.978,11.696 14.974,11.979 14.977 C 12.112 14.978,12.283 14.953,12.360 14.921 C 12.437 14.888,13.642 14.227,15.039 13.452 C 16.784 12.482,17.586 12.057,17.604 12.091 C 17.619 12.118,17.668 12.302,17.713 12.500 " stroke="none" fill-rule="evenodd" fill="black"></path></svg>