<svg width="24" height="24" viewBox="0 0 24 24" fill="none" xmlns="http://www.w3.org/2000/svg"><path d="M4.506 2.042 C 3.381 2.231,2.419 3.090,2.114 4.178 C 2.037 4.454,2.022 4.622,2.008 5.356 C 1.951 8.377,2.504 10.836,3.813 13.377 C 5.698 17.038,8.982 19.846,12.920 21.163 C 14.780 21.785,16.522 22.036,18.670 21.990 C 19.444 21.974,19.575 21.961,19.861 21.875 C 20.812 21.586,21.578 20.821,21.877 19.861 C 21.977 19.541,21.977 19.536,21.991 17.606 C 22.000 16.350,21.990 15.574,21.962 15.394 C 21.880 14.866,21.515 14.312,21.070 14.037 C 20.929 13.950,20.043 13.635,18.360 13.074 C 15.885 12.249,15.857 12.240,15.517 12.240 C 14.940 12.240,14.483 12.431,14.077 12.842 C 13.892 13.030,13.783 13.208,13.444 13.876 L 13.034 14.684 12.847 14.576 C 11.686 13.902,10.394 12.653,9.618 11.455 C 9.503 11.276,9.388 11.092,9.364 11.047 C 9.322 10.969,9.368 10.939,10.125 10.555 C 10.792 10.217,10.971 10.108,11.158 9.923 C 11.594 9.492,11.781 9.007,11.752 8.382 C 11.736 8.039,11.694 7.899,10.962 5.700 C 10.537 4.424,10.134 3.263,10.066 3.120 C 9.813 2.588,9.226 2.146,8.637 2.045 C 8.331 1.993,4.816 1.990,4.506 2.042 M9.021 6.243 C 9.432 7.476,9.762 8.491,9.754 8.497 C 9.746 8.504,9.196 8.783,8.530 9.117 C 7.273 9.749,7.239 9.772,7.056 10.120 C 6.931 10.357,6.960 10.718,7.132 11.090 C 7.326 11.509,7.682 12.140,7.983 12.600 C 9.169 14.411,10.963 15.965,12.910 16.868 C 13.404 17.098,13.751 17.071,14.147 16.775 C 14.245 16.702,14.416 16.399,14.883 15.470 C 15.217 14.804,15.496 14.254,15.503 14.246 C 15.509 14.238,16.524 14.568,17.757 14.979 L 20.000 15.727 19.998 17.453 C 19.996 19.311,19.993 19.344,19.783 19.619 C 19.725 19.696,19.592 19.808,19.489 19.869 L 19.300 19.980 18.080 19.978 C 16.747 19.976,16.283 19.934,15.197 19.717 C 13.308 19.340,11.398 18.505,9.820 17.367 C 8.969 16.754,7.617 15.458,7.015 14.680 C 5.375 12.558,4.463 10.373,4.095 7.680 C 4.043 7.304,4.026 6.873,4.023 5.940 L 4.020 4.700 4.131 4.511 C 4.192 4.408,4.304 4.275,4.381 4.217 C 4.656 4.007,4.689 4.004,6.547 4.002 L 8.273 4.000 9.021 6.243 " stroke="none" fill-rule="evenodd" fill="black"></path></svg>