<svg width="24" height="24" viewBox="0 0 24 24" fill="none" xmlns="http://www.w3.org/2000/svg"><path d="M7.506 2.042 C 6.382 2.231,5.426 3.084,5.112 4.178 L 5.020 4.500 5.020 12.000 L 5.020 19.500 5.112 19.822 C 5.391 20.796,6.204 21.609,7.178 21.888 L 7.500 21.980 12.000 21.980 L 16.500 21.980 16.822 21.888 C 17.796 21.609,18.609 20.796,18.888 19.822 L 18.980 19.500 18.980 12.000 L 18.980 4.500 18.888 4.178 C 18.570 3.069,17.616 2.227,16.467 2.041 C 16.169 1.992,7.796 1.993,7.506 2.042 M16.489 4.131 C 16.702 4.256,16.864 4.449,16.943 4.670 C 17.022 4.893,17.022 19.107,16.943 19.330 C 16.864 19.551,16.702 19.744,16.489 19.869 L 16.300 19.980 12.000 19.980 L 7.700 19.980 7.508 19.867 C 7.291 19.739,7.099 19.498,7.039 19.278 C 7.013 19.179,7.003 16.668,7.010 11.914 L 7.020 4.700 7.131 4.511 C 7.256 4.299,7.448 4.136,7.670 4.057 C 7.793 4.013,8.587 4.004,12.060 4.011 L 16.300 4.020 16.489 4.131 M11.673 17.063 C 11.304 17.177,11.000 17.609,11.000 18.020 C 11.000 18.415,11.319 18.831,11.710 18.944 C 12.209 19.090,12.693 18.878,12.905 18.422 C 13.160 17.874,12.875 17.230,12.303 17.059 C 12.062 16.987,11.917 16.988,11.673 17.063 " stroke="none" fill-rule="evenodd" fill="black"></path></svg>