<svg width="24" height="24" viewBox="0 0 24 24" fill="none" xmlns="http://www.w3.org/2000/svg"><path d="M4.506 4.041 C 3.379 4.233,2.426 5.084,2.112 6.178 L 2.020 6.500 2.020 12.000 L 2.020 17.500 2.112 17.822 C 2.391 18.796,3.204 19.609,4.178 19.888 L 4.500 19.980 12.000 19.980 L 19.500 19.980 19.822 19.888 C 20.796 19.609,21.609 18.796,21.888 17.822 L 21.980 17.500 21.980 13.000 L 21.980 8.500 21.888 8.178 C 21.570 7.069,20.616 6.227,19.467 6.041 C 19.318 6.017,18.066 6.000,16.322 6.000 L 13.424 6.000 12.502 5.087 C 11.952 4.542,11.515 4.143,11.420 4.097 C 11.266 4.023,11.130 4.020,7.980 4.014 C 6.176 4.011,4.613 4.023,4.506 4.041 M11.498 6.913 C 12.048 7.458,12.485 7.857,12.580 7.903 C 12.733 7.977,12.886 7.981,16.020 8.000 L 19.300 8.020 19.492 8.133 C 19.710 8.261,19.901 8.502,19.961 8.723 C 19.987 8.822,19.998 10.328,19.991 13.087 L 19.980 17.300 19.869 17.489 C 19.744 17.702,19.551 17.864,19.330 17.943 C 19.107 18.022,4.893 18.022,4.670 17.943 C 4.449 17.864,4.256 17.702,4.131 17.489 L 4.020 17.300 4.020 12.000 L 4.020 6.700 4.131 6.511 C 4.256 6.298,4.449 6.136,4.670 6.057 C 4.790 6.014,5.399 6.003,7.698 6.002 L 10.576 6.000 11.498 6.913 M11.673 9.063 C 11.552 9.100,11.421 9.185,11.304 9.303 C 11.022 9.585,11.000 9.702,11.000 10.947 L 11.000 12.000 9.947 12.000 C 8.706 12.000,8.584 12.022,8.306 12.300 C 7.902 12.704,7.902 13.296,8.306 13.700 C 8.584 13.978,8.706 14.000,9.947 14.000 L 11.000 14.000 11.000 15.073 C 11.000 16.315,11.018 16.412,11.306 16.700 C 11.486 16.879,11.764 17.000,12.000 17.000 C 12.237 17.000,12.514 16.880,12.697 16.697 C 12.978 16.416,13.000 16.297,13.000 15.053 L 13.000 14.000 14.053 14.000 C 15.297 14.000,15.416 13.978,15.697 13.697 C 15.880 13.514,16.000 13.237,16.000 13.000 C 16.000 12.763,15.880 12.486,15.697 12.303 C 15.416 12.022,15.297 12.000,14.053 12.000 L 13.000 12.000 13.000 10.947 C 13.000 9.703,12.978 9.584,12.697 9.303 C 12.418 9.024,12.067 8.942,11.673 9.063 " stroke="none" fill-rule="evenodd" fill="black"></path></svg>