<svg width="24" height="24" viewBox="0 0 24 24" fill="none" xmlns="http://www.w3.org/2000/svg"><path d="M9.530 2.061 C 8.859 2.206,8.251 2.798,8.073 3.477 C 8.017 3.694,8.004 3.936,8.002 4.870 L 8.000 6.000 5.947 6.000 C 3.598 6.000,3.607 5.999,3.306 6.300 C 2.902 6.704,2.902 7.296,3.306 7.700 C 3.482 7.876,3.764 8.000,3.987 8.000 C 4.045 8.000,4.080 8.024,4.080 8.063 C 4.080 8.330,4.890 19.393,4.924 19.577 C 5.117 20.653,5.927 21.536,7.041 21.886 L 7.340 21.980 12.000 21.980 L 16.660 21.980 16.959 21.886 C 18.073 21.536,18.883 20.654,19.077 19.577 C 19.108 19.404,19.920 8.292,19.920 8.038 C 19.920 8.017,19.962 8.000,20.013 8.000 C 20.517 8.000,21.000 7.511,21.000 7.000 C 21.000 6.763,20.880 6.486,20.697 6.303 C 20.392 5.998,20.405 6.000,18.053 6.000 L 16.000 6.000 15.999 4.910 C 15.998 3.386,15.932 3.131,15.401 2.599 C 15.092 2.291,14.822 2.137,14.451 2.059 C 14.068 1.978,9.905 1.979,9.530 2.061 M14.000 5.000 L 14.000 6.000 12.000 6.000 L 10.000 6.000 10.000 5.000 L 10.000 4.000 12.000 4.000 L 14.000 4.000 14.000 5.000 M17.920 8.070 C 17.920 8.109,17.741 10.635,17.523 13.684 C 17.237 17.675,17.110 19.267,17.068 19.367 C 16.979 19.581,16.761 19.803,16.540 19.906 L 16.340 19.999 12.000 19.999 L 7.660 19.999 7.460 19.906 C 7.238 19.802,7.021 19.581,6.930 19.363 C 6.887 19.259,6.766 17.756,6.476 13.720 C 6.259 10.695,6.081 8.171,6.081 8.110 L 6.080 8.000 12.000 8.000 C 17.612 8.000,17.920 8.004,17.920 8.070 M9.673 10.063 C 9.429 10.138,9.150 10.414,9.064 10.666 C 9.007 10.832,9.000 11.220,9.000 14.000 C 9.000 17.553,8.986 17.379,9.306 17.700 C 9.486 17.879,9.764 18.000,10.000 18.000 C 10.237 18.000,10.514 17.880,10.697 17.697 C 11.012 17.382,11.000 17.525,11.000 14.000 C 11.000 10.475,11.012 10.618,10.697 10.303 C 10.418 10.024,10.067 9.942,9.673 10.063 M13.673 10.063 C 13.429 10.138,13.150 10.414,13.064 10.666 C 13.007 10.832,13.000 11.220,13.000 14.000 C 13.000 17.553,12.986 17.379,13.306 17.700 C 13.486 17.879,13.764 18.000,14.000 18.000 C 14.237 18.000,14.514 17.880,14.697 17.697 C 15.012 17.382,15.000 17.525,15.000 14.000 C 15.000 10.475,15.012 10.618,14.697 10.303 C 14.418 10.024,14.067 9.942,13.673 10.063 " stroke="none" fill-rule="evenodd" fill="black"></path></svg>