<svg width="24" height="24" viewBox="0 0 24 24" fill="none" xmlns="http://www.w3.org/2000/svg"><path d="M11.673 5.063 C 11.552 5.100,11.421 5.185,11.304 5.303 C 10.993 5.614,11.000 5.538,11.000 8.447 L 11.000 11.000 8.447 11.000 C 5.542 11.000,5.613 10.993,5.306 11.300 C 4.902 11.704,4.902 12.296,5.306 12.700 C 5.613 13.007,5.542 13.000,8.447 13.000 L 11.000 13.000 11.000 15.573 C 11.000 18.485,10.990 18.384,11.306 18.700 C 11.486 18.879,11.764 19.000,12.000 19.000 C 12.237 19.000,12.514 18.880,12.697 18.697 C 13.007 18.386,13.000 18.462,13.000 15.553 L 13.000 13.000 15.553 13.000 C 18.462 13.000,18.386 13.007,18.697 12.697 C 18.880 12.514,19.000 12.237,19.000 12.000 C 19.000 11.763,18.880 11.486,18.697 11.303 C 18.386 10.993,18.462 11.000,15.553 11.000 L 13.000 11.000 13.000 8.447 C 13.000 5.538,13.007 5.614,12.697 5.303 C 12.418 5.024,12.067 4.942,11.673 5.063 " stroke="none" fill-rule="evenodd" fill="black"></path></svg>