<svg width="24" height="24" viewBox="0 0 24 24" fill="none" xmlns="http://www.w3.org/2000/svg"><path d="M14.580 2.023 C 14.015 2.102,13.810 2.144,13.480 2.248 C 13.022 2.392,12.464 2.677,12.029 2.990 C 11.793 3.159,10.938 4.010,8.784 6.220 C 4.820 10.287,4.723 10.388,4.450 10.747 C 3.716 11.711,3.245 12.833,3.076 14.020 C 3.010 14.483,3.010 15.517,3.076 15.980 C 3.515 19.058,5.942 21.485,9.020 21.924 C 9.783 22.033,10.908 21.978,11.660 21.795 C 12.568 21.574,13.471 21.141,14.259 20.549 C 14.711 20.209,21.297 13.633,21.401 13.417 C 21.498 13.217,21.506 12.821,21.418 12.609 C 21.339 12.420,21.146 12.217,20.940 12.108 C 20.723 11.992,20.283 11.988,20.072 12.101 C 19.990 12.144,18.388 13.701,16.512 15.561 C 12.942 19.099,12.888 19.147,12.198 19.486 C 11.471 19.842,10.857 19.980,10.000 19.980 C 8.933 19.980,8.087 19.726,7.195 19.138 C 6.818 18.890,6.116 18.187,5.861 17.802 C 5.277 16.919,5.020 16.063,5.020 15.000 C 5.020 13.815,5.327 12.904,6.043 11.960 C 6.279 11.649,12.727 5.006,13.119 4.670 C 13.391 4.437,13.765 4.237,14.160 4.114 C 14.594 3.979,15.406 3.979,15.840 4.114 C 16.826 4.421,17.579 5.174,17.886 6.160 C 17.964 6.412,17.979 6.547,17.979 7.000 C 17.979 7.717,17.867 8.101,17.487 8.675 C 17.303 8.954,10.687 15.751,10.481 15.873 C 10.033 16.138,9.409 15.962,9.133 15.492 C 9.036 15.327,9.020 15.258,9.021 15.000 C 9.021 14.788,9.043 14.659,9.095 14.560 C 9.135 14.483,10.704 12.881,12.582 11.000 C 15.225 8.353,16.015 7.539,16.077 7.400 C 16.457 6.556,15.548 5.705,14.713 6.122 C 14.594 6.181,13.541 7.204,11.326 9.414 C 9.558 11.177,7.978 12.772,7.814 12.957 C 7.459 13.359,7.257 13.705,7.125 14.139 C 7.042 14.412,7.027 14.542,7.027 15.000 C 7.027 15.458,7.042 15.588,7.125 15.861 C 7.416 16.815,8.185 17.584,9.139 17.875 C 9.412 17.958,9.542 17.973,10.000 17.973 C 10.458 17.973,10.588 17.958,10.861 17.875 C 11.239 17.760,11.622 17.553,11.901 17.313 C 12.279 16.988,18.728 10.341,18.962 10.036 C 19.727 9.036,20.089 7.769,19.964 6.530 C 19.890 5.791,19.737 5.286,19.395 4.644 C 18.692 3.325,17.407 2.377,15.945 2.099 C 15.620 2.038,14.802 1.992,14.580 2.023 " stroke="none" fill-rule="evenodd" fill="black"></path></svg>