<svg width="24" height="24" viewBox="0 0 24 24" fill="none" xmlns="http://www.w3.org/2000/svg"><path d="M11.660 2.066 C 11.472 2.122,11.235 2.351,7.795 5.793 C 4.439 9.150,4.124 9.477,4.065 9.657 C 4.029 9.766,4.000 9.920,4.000 10.000 C 4.000 10.405,4.309 10.826,4.690 10.939 C 4.948 11.016,5.052 11.016,5.323 10.936 C 5.533 10.875,5.628 10.785,8.270 8.147 L 11.000 5.422 11.000 13.284 C 11.000 22.118,10.973 21.366,11.306 21.700 C 11.486 21.879,11.764 22.000,12.000 22.000 C 12.402 22.000,12.827 21.688,12.939 21.310 C 12.993 21.130,13.000 20.168,13.000 13.264 L 13.000 5.422 15.730 8.147 C 18.372 10.785,18.467 10.875,18.677 10.936 C 18.948 11.016,19.052 11.016,19.310 10.939 C 19.589 10.856,19.856 10.589,19.939 10.310 C 20.016 10.052,20.016 9.948,19.937 9.677 C 19.875 9.466,19.778 9.365,16.207 5.793 C 12.635 2.222,12.534 2.125,12.323 2.063 C 12.059 1.987,11.922 1.987,11.660 2.066 " stroke="none" fill-rule="evenodd" fill="black"></path></svg>