<svg width="24" height="24" viewBox="0 0 24 24" fill="none" xmlns="http://www.w3.org/2000/svg"><path d="M16.506 2.042 C 15.381 2.231,14.419 3.090,14.114 4.178 C 14.038 4.452,14.022 4.623,14.008 5.330 C 13.999 5.787,13.989 6.160,13.986 6.160 C 13.983 6.159,13.881 6.129,13.760 6.093 C 13.581 6.040,13.290 6.024,12.191 6.011 C 10.790 5.993,10.508 6.012,10.035 6.158 C 9.393 6.357,8.718 6.931,8.352 7.590 C 8.090 8.063,8.027 8.382,8.008 9.330 C 7.999 9.787,7.989 10.160,7.986 10.160 C 7.983 10.159,7.881 10.129,7.760 10.093 C 7.581 10.040,7.290 10.024,6.191 10.011 C 4.477 9.989,4.100 10.043,3.519 10.394 C 2.819 10.818,2.321 11.448,2.112 12.178 L 2.020 12.500 2.020 16.000 L 2.020 19.500 2.112 19.822 C 2.391 20.796,3.204 21.609,4.178 21.888 C 4.488 21.977,4.554 21.980,6.000 21.980 C 7.447 21.980,7.511 21.977,7.820 21.888 C 8.176 21.785,8.572 21.583,8.830 21.373 L 9.000 21.235 9.170 21.373 C 9.428 21.583,9.824 21.785,10.180 21.888 C 10.489 21.977,10.553 21.980,12.000 21.980 C 13.447 21.980,13.511 21.977,13.820 21.888 C 14.176 21.785,14.572 21.583,14.830 21.373 L 15.000 21.235 15.170 21.373 C 15.428 21.583,15.824 21.785,16.180 21.888 C 16.489 21.977,16.553 21.980,18.000 21.980 C 19.446 21.980,19.512 21.977,19.822 21.888 C 20.796 21.609,21.609 20.796,21.888 19.822 L 21.980 19.500 21.980 12.000 L 21.980 4.500 21.888 4.178 C 21.570 3.069,20.616 2.227,19.467 2.041 C 19.177 1.994,16.789 1.995,16.506 2.042 M19.489 4.131 C 19.702 4.256,19.864 4.449,19.943 4.670 C 20.022 4.893,20.022 19.107,19.943 19.330 C 19.864 19.551,19.702 19.744,19.489 19.869 L 19.300 19.980 18.000 19.980 L 16.700 19.980 16.508 19.867 C 16.291 19.739,16.099 19.498,16.039 19.278 C 16.013 19.179,16.003 16.668,16.010 11.914 L 16.020 4.700 16.131 4.511 C 16.192 4.408,16.304 4.275,16.381 4.217 C 16.653 4.009,16.720 4.001,18.060 4.011 L 19.300 4.020 19.489 4.131 M13.489 8.131 C 13.702 8.256,13.864 8.449,13.943 8.670 C 14.022 8.892,14.022 19.108,13.943 19.330 C 13.864 19.551,13.702 19.744,13.489 19.869 L 13.300 19.980 12.000 19.980 L 10.700 19.980 10.508 19.867 C 10.290 19.739,10.099 19.498,10.039 19.277 C 10.013 19.179,10.002 17.337,10.009 13.914 L 10.020 8.700 10.131 8.511 C 10.192 8.408,10.304 8.275,10.381 8.217 C 10.653 8.009,10.720 8.001,12.060 8.011 L 13.300 8.020 13.489 8.131 M7.489 12.131 C 7.702 12.256,7.864 12.449,7.943 12.670 C 8.022 12.891,8.022 19.109,7.943 19.330 C 7.864 19.551,7.702 19.744,7.489 19.869 L 7.300 19.980 6.000 19.980 L 4.700 19.980 4.508 19.867 C 4.290 19.739,4.099 19.498,4.039 19.276 C 4.012 19.177,4.002 18.005,4.009 15.912 L 4.020 12.700 4.131 12.511 C 4.192 12.408,4.304 12.275,4.381 12.217 C 4.653 12.009,4.720 12.001,6.060 12.011 L 7.300 12.020 7.489 12.131 " stroke="none" fill-rule="evenodd" fill="black"></path></svg>