<svg width="24" height="24" viewBox="0 0 24 24" fill="none" xmlns="http://www.w3.org/2000/svg"><path d="M17.873 2.060 C 17.357 2.158,16.814 2.394,16.420 2.692 C 16.118 2.920,2.197 16.857,2.107 17.020 C 2.021 17.179,2.020 17.198,2.020 19.240 C 2.020 21.197,2.024 21.308,2.097 21.456 C 2.196 21.655,2.385 21.844,2.584 21.943 C 2.731 22.015,2.855 22.021,4.654 22.032 C 6.318 22.042,6.596 22.035,6.794 21.979 C 7.019 21.915,7.040 21.894,14.111 14.827 C 19.151 9.790,21.254 7.662,21.383 7.470 C 21.610 7.133,21.782 6.757,21.889 6.364 C 22.008 5.932,22.008 5.068,21.889 4.636 C 21.547 3.382,20.600 2.437,19.364 2.114 C 18.959 2.009,18.274 1.984,17.873 2.060 M19.101 4.135 C 19.414 4.278,19.723 4.585,19.867 4.896 C 19.965 5.106,19.980 5.189,19.980 5.500 C 19.980 6.030,19.869 6.242,19.259 6.875 L 18.786 7.365 17.711 6.293 L 16.636 5.220 17.119 4.750 C 17.762 4.125,18.025 3.991,18.561 4.013 C 18.784 4.022,18.923 4.054,19.101 4.135 M11.730 14.410 L 6.100 20.040 5.050 20.040 L 4.000 20.040 4.000 18.950 L 4.000 17.860 9.610 12.250 L 15.220 6.640 16.290 7.710 L 17.360 8.780 11.730 14.410 " stroke="none" fill-rule="evenodd" fill="black"></path></svg>