<svg width="24" height="24" viewBox="0 0 24 24" fill="none" xmlns="http://www.w3.org/2000/svg"><path d="M11.100 2.041 C 7.995 2.355,5.311 3.971,3.630 6.540 C 1.468 9.843,1.468 14.157,3.630 17.460 C 4.040 18.088,4.376 18.499,4.939 19.061 C 5.501 19.624,5.912 19.960,6.540 20.370 C 9.108 22.051,12.346 22.452,15.260 21.451 C 15.870 21.241,16.924 20.733,17.151 20.538 C 17.372 20.349,17.480 20.102,17.479 19.790 C 17.478 19.469,17.385 19.264,17.144 19.052 C 16.929 18.863,16.651 18.777,16.377 18.814 C 16.281 18.827,15.985 18.947,15.720 19.080 C 14.513 19.685,13.537 19.944,12.300 19.988 C 10.444 20.053,8.691 19.508,7.200 18.402 C 6.816 18.117,6.100 17.426,5.789 17.041 C 3.834 14.618,3.452 11.319,4.801 8.526 C 5.225 7.648,5.730 6.951,6.446 6.259 C 7.114 5.611,7.706 5.197,8.529 4.800 C 11.318 3.452,14.624 3.837,17.040 5.789 C 17.394 6.075,18.067 6.761,18.326 7.100 C 19.052 8.051,19.601 9.244,19.834 10.380 C 19.970 11.044,20.007 11.593,19.993 12.760 L 19.980 13.860 19.855 14.120 C 19.696 14.452,19.449 14.698,19.120 14.856 C 18.889 14.966,18.820 14.980,18.500 14.980 C 18.180 14.980,18.111 14.966,17.880 14.856 C 17.551 14.698,17.304 14.452,17.145 14.120 L 17.020 13.860 16.994 12.620 C 16.980 11.938,16.950 11.281,16.928 11.160 C 16.542 9.060,14.923 7.443,12.840 7.076 C 12.418 7.002,11.499 7.010,11.078 7.093 C 9.168 7.466,7.642 8.894,7.161 10.760 C 6.920 11.693,6.983 12.875,7.320 13.752 C 7.904 15.272,9.207 16.441,10.760 16.840 C 11.717 17.085,12.895 17.016,13.793 16.663 C 14.350 16.444,14.983 16.048,15.395 15.662 L 15.610 15.460 15.674 15.560 C 15.793 15.743,16.137 16.089,16.400 16.289 C 16.727 16.538,17.211 16.774,17.622 16.885 C 18.075 17.008,18.925 17.008,19.378 16.885 C 20.636 16.545,21.612 15.541,21.909 14.280 C 21.970 14.022,21.980 13.780,21.979 12.540 C 21.978 11.001,21.952 10.699,21.741 9.760 C 21.274 7.685,20.065 5.706,18.437 4.354 C 16.934 3.106,15.158 2.329,13.240 2.080 C 12.775 2.019,11.539 1.997,11.100 2.041 M12.860 9.121 C 13.825 9.421,14.581 10.181,14.886 11.160 C 14.967 11.418,14.980 11.539,14.977 12.020 C 14.974 12.508,14.961 12.620,14.872 12.887 C 14.552 13.852,13.806 14.586,12.840 14.886 C 12.404 15.021,11.592 15.021,11.160 14.886 C 10.173 14.578,9.421 13.826,9.114 12.840 C 8.979 12.406,8.979 11.594,9.114 11.160 C 9.455 10.066,10.373 9.239,11.471 9.039 C 11.797 8.979,12.546 9.023,12.860 9.121 " stroke="none" fill-rule="evenodd" fill="black"></path></svg>