<svg width="24" height="24" viewBox="0 0 24 24" fill="none" xmlns="http://www.w3.org/2000/svg"><path d="M8.580 2.023 C 8.015 2.102,7.810 2.144,7.480 2.248 C 5.867 2.756,4.586 4.112,4.161 5.760 C 3.920 6.693,3.983 7.875,4.320 8.752 C 4.829 10.077,5.887 11.144,7.207 11.663 C 7.881 11.928,8.720 12.040,9.470 11.964 C 10.349 11.875,10.995 11.650,11.732 11.175 L 12.003 10.999 12.247 11.165 C 12.533 11.359,13.115 11.639,13.475 11.756 C 14.309 12.027,15.375 12.059,16.240 11.839 C 17.812 11.439,19.153 10.218,19.699 8.688 C 20.096 7.576,20.082 6.272,19.663 5.207 C 19.121 3.830,17.987 2.743,16.603 2.274 C 15.149 1.782,13.477 2.001,12.232 2.846 L 12.003 3.001 11.732 2.825 C 11.167 2.461,10.567 2.217,9.945 2.099 C 9.620 2.038,8.802 1.992,8.580 2.023 M9.860 4.121 C 10.825 4.421,11.582 5.182,11.886 6.160 C 12.021 6.594,12.021 7.406,11.886 7.840 C 11.579 8.826,10.825 9.580,9.840 9.886 C 9.404 10.021,8.592 10.021,8.160 9.886 C 7.173 9.578,6.421 8.826,6.114 7.840 C 5.979 7.406,5.979 6.594,6.114 6.160 C 6.455 5.066,7.373 4.239,8.471 4.039 C 8.797 3.979,9.546 4.023,9.860 4.121 M15.860 4.121 C 16.825 4.421,17.582 5.182,17.886 6.160 C 18.021 6.594,18.021 7.406,17.886 7.840 C 17.702 8.430,17.391 8.893,16.891 9.321 C 16.076 10.020,14.858 10.192,13.820 9.756 C 13.666 9.691,13.496 9.604,13.442 9.563 L 13.343 9.487 13.507 9.134 C 13.801 8.497,13.895 8.155,13.964 7.470 C 14.059 6.534,13.888 5.618,13.456 4.747 L 13.341 4.515 13.440 4.438 C 13.590 4.323,14.063 4.134,14.380 4.064 C 14.771 3.976,15.483 4.004,15.860 4.121 M8.540 13.023 C 7.713 13.103,7.194 13.216,6.529 13.463 C 4.642 14.162,3.114 15.711,2.427 17.620 C 2.126 18.457,2.044 18.960,2.013 20.182 C 1.984 21.272,2.009 21.403,2.306 21.699 C 2.633 22.026,1.780 22.000,12.000 22.000 C 22.228 22.000,21.367 22.027,21.697 21.696 C 21.987 21.407,22.017 21.250,21.987 20.160 C 21.955 18.959,21.872 18.452,21.573 17.620 C 20.969 15.941,19.714 14.537,18.092 13.725 C 17.521 13.439,16.640 13.168,15.980 13.075 C 15.511 13.009,14.387 13.009,13.980 13.074 C 13.478 13.154,12.800 13.341,12.375 13.516 C 12.088 13.634,11.968 13.666,11.916 13.638 C 11.589 13.463,10.650 13.182,10.120 13.101 C 9.726 13.041,8.820 12.997,8.540 13.023 M10.000 15.101 C 10.631 15.238,11.268 15.508,11.815 15.868 C 12.181 16.110,12.890 16.819,13.132 17.185 C 13.630 17.941,13.927 18.803,13.988 19.670 L 14.012 20.000 9.000 20.000 L 3.988 20.000 4.012 19.670 C 4.073 18.803,4.370 17.941,4.868 17.185 C 5.110 16.819,5.819 16.110,6.185 15.868 C 6.872 15.416,7.413 15.213,8.440 15.024 C 8.651 14.985,9.710 15.037,10.000 15.101 M16.000 15.101 C 16.631 15.238,17.268 15.508,17.815 15.868 C 18.181 16.110,18.890 16.819,19.132 17.185 C 19.630 17.941,19.927 18.803,19.988 19.670 L 20.012 20.000 18.010 20.000 L 16.008 20.000 15.983 19.670 C 15.916 18.799,15.814 18.289,15.573 17.620 C 15.266 16.767,14.830 16.042,14.160 15.273 L 13.997 15.086 14.228 15.060 C 14.356 15.046,14.478 15.026,14.500 15.017 C 14.596 14.978,15.726 15.041,16.000 15.101 " stroke="none" fill-rule="evenodd" fill="black"></path></svg>