<svg width="24" height="24" viewBox="0 0 24 24" fill="none" xmlns="http://www.w3.org/2000/svg"><path d="M14.700 3.054 C 14.612 3.084,13.293 3.731,11.770 4.494 L 9.000 5.880 6.923 4.842 C 5.781 4.270,4.737 3.766,4.604 3.721 C 4.253 3.603,3.711 3.610,3.351 3.737 C 2.698 3.967,2.218 4.499,2.060 5.169 C 1.970 5.550,1.972 16.454,2.062 16.836 C 2.147 17.198,2.342 17.541,2.616 17.812 C 2.839 18.032,3.006 18.121,5.786 19.512 L 8.721 20.980 8.999 20.980 L 9.277 20.980 12.139 19.550 L 15.001 18.120 17.077 19.159 C 18.219 19.730,19.263 20.234,19.396 20.279 C 19.723 20.389,20.256 20.390,20.609 20.281 C 21.254 20.081,21.780 19.508,21.940 18.831 C 22.027 18.461,22.029 7.601,21.941 7.189 C 21.863 6.820,21.666 6.466,21.384 6.188 C 21.161 5.968,20.996 5.880,18.224 4.495 C 15.051 2.909,15.088 2.924,14.700 3.054 M6.020 6.630 L 8.000 7.620 8.000 12.990 C 8.000 15.943,7.991 18.360,7.980 18.360 C 7.969 18.360,7.069 17.915,5.980 17.370 L 4.000 16.380 4.000 11.010 C 4.000 8.057,4.009 5.640,4.020 5.640 C 4.031 5.640,4.931 6.085,6.020 6.630 M14.000 11.010 L 14.000 16.380 12.020 17.370 C 10.931 17.915,10.031 18.360,10.020 18.360 C 10.009 18.360,10.000 15.943,10.000 12.990 L 10.000 7.620 11.970 6.632 C 13.053 6.089,13.954 5.643,13.970 5.642 C 13.987 5.641,14.000 8.057,14.000 11.010 M18.020 6.630 L 20.000 7.620 20.000 12.990 C 20.000 15.943,19.991 18.360,19.980 18.360 C 19.969 18.360,19.069 17.915,17.980 17.370 L 16.000 16.380 16.000 11.010 C 16.000 8.057,16.009 5.640,16.020 5.640 C 16.031 5.640,16.931 6.085,18.020 6.630 " stroke="none" fill-rule="evenodd" fill="black"></path></svg>