<svg width="24" height="24" viewBox="0 0 24 24" fill="none" xmlns="http://www.w3.org/2000/svg"><path d="M2.673 3.063 C 2.310 3.175,2.000 3.606,2.000 4.000 C 2.000 4.405,2.309 4.826,2.690 4.939 C 2.869 4.993,3.703 5.000,9.500 5.000 C 15.297 5.000,16.131 4.993,16.310 4.939 C 16.688 4.827,17.000 4.402,17.000 4.000 C 17.000 3.598,16.688 3.173,16.310 3.061 C 16.010 2.972,2.963 2.974,2.673 3.063 M2.673 7.063 C 2.310 7.175,2.000 7.606,2.000 8.000 C 2.000 8.405,2.309 8.826,2.690 8.939 C 2.868 8.992,3.493 9.000,7.500 9.000 C 11.507 9.000,12.132 8.992,12.310 8.939 C 12.688 8.827,13.000 8.402,13.000 8.000 C 13.000 7.598,12.688 7.173,12.310 7.061 C 12.011 6.972,2.962 6.974,2.673 7.063 M16.673 7.063 C 16.429 7.138,16.150 7.414,16.064 7.666 C 16.007 7.835,16.000 8.362,16.000 12.715 L 16.000 17.576 14.770 16.352 C 13.610 15.199,13.528 15.125,13.323 15.064 C 13.053 14.984,12.949 14.984,12.690 15.061 C 12.309 15.174,12.000 15.595,12.000 16.000 C 12.000 16.080,12.029 16.234,12.065 16.343 C 12.124 16.521,12.336 16.746,14.295 18.707 C 16.384 20.797,16.468 20.876,16.677 20.937 C 16.949 21.016,17.051 21.016,17.323 20.937 C 17.532 20.876,17.617 20.796,19.707 18.707 C 21.796 16.617,21.876 16.532,21.937 16.323 C 22.016 16.052,22.016 15.948,21.939 15.690 C 21.856 15.411,21.589 15.144,21.310 15.061 C 21.051 14.984,20.947 14.984,20.677 15.064 C 20.472 15.125,20.390 15.199,19.230 16.352 L 18.000 17.576 18.000 12.735 C 18.000 7.274,18.020 7.626,17.697 7.303 C 17.418 7.024,17.067 6.942,16.673 7.063 M2.673 11.063 C 2.310 11.175,2.000 11.606,2.000 12.000 C 2.000 12.405,2.309 12.826,2.690 12.939 C 2.868 12.992,3.493 13.000,7.500 13.000 C 11.507 13.000,12.132 12.992,12.310 12.939 C 12.688 12.827,13.000 12.402,13.000 12.000 C 13.000 11.598,12.688 11.173,12.310 11.061 C 12.011 10.972,2.962 10.974,2.673 11.063 " stroke="none" fill-rule="evenodd" fill="black"></path></svg>