<svg width="24" height="24" viewBox="0 0 24 24" fill="none" xmlns="http://www.w3.org/2000/svg"><path d="M11.534 1.297 C 10.984 1.430,10.442 1.867,10.214 2.360 C 10.148 2.503,9.754 3.667,9.339 4.948 L 8.585 7.275 5.943 7.288 L 3.300 7.301 3.040 7.393 C 2.699 7.515,2.455 7.674,2.209 7.934 C 1.488 8.697,1.501 9.947,2.238 10.681 C 2.338 10.780,3.325 11.518,4.430 12.320 C 5.536 13.121,6.440 13.800,6.440 13.827 C 6.440 13.854,6.108 14.898,5.703 16.148 C 5.298 17.398,4.948 18.492,4.926 18.580 C 4.758 19.245,4.915 19.919,5.352 20.405 C 5.974 21.097,6.975 21.283,7.768 20.853 C 7.885 20.790,8.866 20.095,9.949 19.308 C 11.032 18.522,11.942 17.869,11.971 17.858 C 12.001 17.847,12.932 18.497,14.042 19.303 C 15.152 20.109,16.150 20.814,16.260 20.870 C 16.881 21.187,17.638 21.147,18.223 20.767 C 18.814 20.383,19.129 19.812,19.132 19.120 C 19.132 18.933,19.111 18.699,19.084 18.600 C 19.056 18.501,18.703 17.398,18.297 16.150 C 17.892 14.901,17.560 13.857,17.560 13.828 C 17.560 13.800,18.465 13.121,19.570 12.320 C 20.676 11.518,21.670 10.771,21.781 10.659 C 21.995 10.442,22.209 10.054,22.277 9.760 C 22.338 9.492,22.329 9.004,22.257 8.757 C 22.161 8.429,21.950 8.080,21.713 7.857 C 21.449 7.609,21.292 7.513,20.960 7.394 L 20.700 7.301 18.057 7.288 L 15.415 7.275 14.661 4.948 C 14.246 3.667,13.852 2.503,13.786 2.360 C 13.625 2.011,13.231 1.616,12.880 1.451 C 12.436 1.242,11.976 1.189,11.534 1.297 M12.779 5.625 C 13.196 6.913,13.589 8.074,13.652 8.205 C 13.849 8.616,14.281 8.995,14.759 9.176 C 14.973 9.257,15.062 9.261,17.654 9.280 L 20.327 9.300 18.514 10.617 C 17.516 11.341,16.553 12.048,16.373 12.186 C 15.815 12.618,15.556 13.130,15.555 13.800 C 15.555 14.199,15.535 14.130,16.494 17.070 C 16.854 18.175,17.145 19.080,17.140 19.080 C 17.135 19.080,16.218 18.416,15.102 17.605 C 13.986 16.794,12.992 16.090,12.893 16.041 C 12.354 15.772,11.646 15.772,11.107 16.041 C 11.008 16.090,10.014 16.794,8.898 17.605 C 7.782 18.416,6.865 19.080,6.860 19.080 C 6.855 19.080,7.146 18.175,7.506 17.070 C 8.465 14.130,8.445 14.199,8.445 13.797 C 8.446 13.264,8.259 12.792,7.906 12.428 C 7.815 12.335,6.825 11.593,5.706 10.779 L 3.673 9.300 6.346 9.280 C 8.938 9.261,9.027 9.257,9.241 9.176 C 9.718 8.995,10.133 8.632,10.340 8.214 C 10.407 8.081,10.803 6.916,11.220 5.626 C 11.638 4.337,11.989 3.281,12.000 3.282 C 12.011 3.282,12.362 4.336,12.779 5.625 " stroke="none" fill-rule="evenodd" fill="black"></path></svg>