<svg width="24" height="24" viewBox="0 0 24 24" fill="none" xmlns="http://www.w3.org/2000/svg"><path d="M11.660 4.066 C 11.474 4.122,11.306 4.280,9.295 6.293 C 7.336 8.254,7.124 8.479,7.065 8.657 C 7.029 8.766,7.000 8.920,7.000 9.000 C 7.000 9.405,7.309 9.826,7.690 9.939 C 7.949 10.016,8.053 10.016,8.323 9.936 C 8.530 9.875,8.616 9.797,10.270 8.148 L 12.000 6.423 13.730 8.148 C 15.384 9.797,15.470 9.875,15.677 9.936 C 15.947 10.016,16.051 10.016,16.310 9.939 C 16.589 9.856,16.856 9.589,16.939 9.310 C 17.016 9.052,17.016 8.948,16.937 8.677 C 16.876 8.468,16.796 8.383,14.707 6.293 C 12.617 4.204,12.532 4.124,12.323 4.063 C 12.059 3.986,11.922 3.987,11.660 4.066 M7.673 14.063 C 7.429 14.138,7.150 14.414,7.064 14.666 C 6.983 14.905,6.983 15.094,7.065 15.343 C 7.124 15.521,7.336 15.746,9.295 17.707 C 11.384 19.797,11.468 19.876,11.677 19.937 C 11.949 20.016,12.051 20.016,12.323 19.937 C 12.532 19.876,12.617 19.796,14.707 17.707 C 16.796 15.617,16.876 15.532,16.937 15.323 C 17.016 15.052,17.016 14.948,16.939 14.690 C 16.856 14.411,16.589 14.144,16.310 14.061 C 16.051 13.984,15.947 13.984,15.677 14.064 C 15.470 14.125,15.384 14.203,13.730 15.852 L 12.000 17.577 10.270 15.852 C 8.616 14.203,8.530 14.125,8.323 14.064 C 8.061 13.987,7.921 13.987,7.673 14.063 " stroke="none" fill-rule="evenodd" fill="black"></path></svg>