<svg width="24" height="24" viewBox="0 0 24 24" fill="none" xmlns="http://www.w3.org/2000/svg"><path d="M11.616 2.440 C 11.268 2.488,11.060 2.549,10.740 2.697 C 10.333 2.885,3.151 7.684,2.899 7.936 C 2.636 8.200,2.385 8.572,2.238 8.917 C 1.994 9.491,1.997 9.426,2.009 14.724 L 2.020 19.540 2.121 19.861 C 2.430 20.836,3.217 21.613,4.178 21.888 L 4.500 21.980 12.000 21.980 L 19.500 21.980 19.822 21.888 C 20.796 21.609,21.609 20.796,21.888 19.822 L 21.980 19.500 21.980 14.560 C 21.980 9.859,21.976 9.607,21.905 9.344 C 21.757 8.796,21.486 8.322,21.101 7.936 C 20.847 7.682,13.667 2.885,13.253 2.693 C 12.767 2.468,12.128 2.369,11.616 2.440 M12.310 4.456 C 12.491 4.520,19.510 9.183,19.710 9.373 C 19.782 9.440,19.839 9.515,19.839 9.538 C 19.837 9.596,12.453 14.501,12.284 14.556 C 12.209 14.580,12.081 14.600,12.000 14.600 C 11.919 14.600,11.791 14.580,11.716 14.556 C 11.547 14.501,4.163 9.596,4.161 9.538 C 4.161 9.515,4.219 9.440,4.290 9.373 C 4.474 9.198,11.502 4.523,11.676 4.459 C 11.867 4.388,12.114 4.387,12.310 4.456 M6.010 13.208 C 7.060 13.908,7.920 14.489,7.920 14.500 C 7.920 14.515,4.260 16.969,4.050 17.095 C 4.010 17.119,4.000 16.589,4.000 14.500 C 4.000 12.411,4.010 11.881,4.050 11.905 C 4.077 11.922,4.960 12.508,6.010 13.208 M19.991 15.797 L 19.980 17.120 18.030 15.820 C 16.957 15.105,16.080 14.511,16.080 14.500 C 16.080 14.489,16.957 13.895,18.030 13.180 L 19.980 11.880 19.991 13.177 C 19.996 13.890,19.996 15.070,19.991 15.797 M10.136 15.955 C 10.891 16.443,11.282 16.572,12.000 16.572 C 12.718 16.572,13.109 16.443,13.864 15.955 C 14.064 15.826,14.239 15.720,14.254 15.720 C 14.280 15.720,19.788 19.380,19.856 19.443 C 19.913 19.496,19.697 19.747,19.489 19.869 L 19.300 19.980 12.000 19.980 L 4.700 19.980 4.511 19.869 C 4.321 19.757,4.087 19.499,4.134 19.452 C 4.193 19.394,9.703 15.725,9.736 15.723 C 9.756 15.721,9.936 15.826,10.136 15.955 " stroke="none" fill-rule="evenodd" fill="black"></path></svg>