<svg width="24" height="24" viewBox="0 0 24 24" fill="none" xmlns="http://www.w3.org/2000/svg"><path d="M10.660 6.066 C 10.473 6.122,10.283 6.304,7.795 8.793 C 5.370 11.219,5.124 11.478,5.065 11.657 C 4.983 11.906,4.983 12.094,5.065 12.343 C 5.124 12.522,5.370 12.781,7.795 15.207 C 10.377 17.791,10.467 17.875,10.677 17.937 C 10.948 18.016,11.052 18.016,11.310 17.939 C 11.589 17.856,11.856 17.589,11.939 17.310 C 12.016 17.051,12.016 16.947,11.936 16.677 C 11.875 16.470,11.797 16.384,10.148 14.730 L 8.423 13.000 13.264 13.000 C 17.482 13.000,18.132 12.992,18.310 12.939 C 18.688 12.827,19.000 12.402,19.000 12.000 C 19.000 11.598,18.688 11.173,18.310 11.061 C 18.132 11.008,17.482 11.000,13.264 11.000 L 8.423 11.000 10.148 9.270 C 11.797 7.616,11.875 7.530,11.936 7.323 C 12.016 7.053,12.016 6.949,11.939 6.690 C 11.856 6.411,11.589 6.144,11.310 6.061 C 11.060 5.986,10.920 5.988,10.660 6.066 " stroke="none" fill-rule="evenodd" fill="black"></path></svg>