<svg width="24" height="24" viewBox="0 0 24 24" fill="none" xmlns="http://www.w3.org/2000/svg"><path d="M4.506 2.042 C 3.393 2.229,2.444 3.067,2.113 4.157 L 2.021 4.460 2.008 10.760 C 1.995 17.304,2.001 17.618,2.161 18.240 C 2.610 19.986,4.018 21.394,5.760 21.839 C 6.383 21.999,6.701 22.005,13.240 21.992 L 19.540 21.980 19.861 21.879 C 20.836 21.570,21.613 20.783,21.888 19.822 C 21.980 19.501,21.980 19.490,21.980 17.000 C 21.980 14.509,21.980 14.499,21.888 14.178 C 21.679 13.448,21.181 12.818,20.481 12.394 C 20.179 12.212,19.824 12.093,19.396 12.032 L 19.091 11.989 19.292 11.725 C 19.739 11.135,19.899 10.604,19.869 9.800 C 19.855 9.394,19.831 9.240,19.743 8.980 C 19.517 8.312,19.405 8.177,17.513 6.294 C 15.838 4.628,15.639 4.464,15.036 4.262 C 14.767 4.172,14.604 4.146,14.215 4.130 C 13.433 4.097,12.850 4.271,12.274 4.709 L 12.008 4.911 11.982 4.685 C 11.867 3.712,11.347 2.918,10.481 2.394 C 10.199 2.224,9.854 2.103,9.467 2.041 C 9.172 1.993,4.793 1.994,4.506 2.042 M9.492 4.133 C 9.710 4.261,9.901 4.502,9.961 4.724 C 9.988 4.824,9.998 7.009,9.991 11.227 L 9.980 17.580 9.886 17.860 C 9.553 18.851,8.814 19.583,7.840 19.886 C 7.404 20.021,6.592 20.021,6.160 19.886 C 5.173 19.578,4.422 18.827,4.114 17.840 L 4.020 17.540 4.020 11.120 L 4.020 4.700 4.131 4.511 C 4.192 4.408,4.304 4.275,4.381 4.217 C 4.665 4.000,4.640 4.001,7.060 4.011 L 9.300 4.020 9.492 4.133 M14.440 6.169 C 14.629 6.224,17.682 9.256,17.805 9.511 C 17.917 9.742,17.916 10.087,17.802 10.345 C 17.732 10.505,17.201 11.056,14.858 13.400 L 12.000 16.260 12.000 11.998 L 12.000 7.735 12.730 7.013 C 13.132 6.616,13.520 6.260,13.593 6.223 C 13.853 6.090,14.115 6.073,14.440 6.169 M19.492 14.133 C 19.711 14.261,19.901 14.502,19.961 14.725 C 19.988 14.824,19.999 15.663,19.991 17.089 L 19.980 19.300 19.869 19.489 C 19.744 19.702,19.551 19.864,19.330 19.943 C 19.209 19.986,18.407 19.997,15.120 19.998 L 11.060 20.000 14.060 16.998 L 17.060 13.997 18.180 14.008 L 19.300 14.020 19.492 14.133 M6.673 16.063 C 6.310 16.175,6.000 16.606,6.000 17.000 C 6.000 17.415,6.310 17.828,6.710 17.944 C 7.209 18.090,7.693 17.878,7.905 17.422 C 8.160 16.874,7.875 16.230,7.303 16.059 C 7.062 15.987,6.917 15.988,6.673 16.063 " stroke="none" fill-rule="evenodd" fill="black"></path></svg>