<svg width="24" height="24" viewBox="0 0 24 24" fill="none" xmlns="http://www.w3.org/2000/svg"><path d="M11.100 2.041 C 9.341 2.219,7.729 2.802,6.335 3.767 C 3.070 6.025,1.454 9.944,2.178 13.846 C 2.468 15.412,3.137 16.886,4.154 18.200 C 4.493 18.637,5.363 19.507,5.800 19.846 C 8.241 21.735,11.253 22.412,14.240 21.741 C 17.932 20.912,20.910 17.933,21.741 14.240 C 21.929 13.402,21.977 12.954,21.977 12.000 C 21.977 11.046,21.929 10.598,21.741 9.760 C 21.274 7.685,20.065 5.706,18.437 4.354 C 16.934 3.106,15.158 2.329,13.240 2.080 C 12.775 2.019,11.539 1.997,11.100 2.041 M12.832 4.042 C 14.361 4.210,15.851 4.828,17.040 5.789 C 17.394 6.075,18.067 6.761,18.326 7.100 C 19.406 8.514,20.000 10.253,20.000 12.000 C 20.000 13.810,19.358 15.619,18.211 17.041 C 17.900 17.426,17.184 18.117,16.800 18.402 C 13.933 20.529,10.067 20.529,7.200 18.402 C 6.816 18.117,6.100 17.426,5.789 17.041 C 3.835 14.619,3.452 11.319,4.800 8.529 C 5.197 7.706,5.611 7.114,6.259 6.446 C 6.951 5.730,7.648 5.225,8.526 4.801 C 9.865 4.154,11.392 3.885,12.832 4.042 M9.673 9.063 C 9.310 9.175,9.000 9.606,9.000 10.000 C 9.000 10.362,9.090 10.496,9.854 11.270 L 10.574 12.000 9.854 12.730 C 9.090 13.504,9.000 13.638,9.000 14.000 C 9.000 14.405,9.309 14.826,9.690 14.939 C 9.948 15.016,10.053 15.016,10.320 14.936 C 10.515 14.878,10.603 14.805,11.267 14.149 L 12.000 13.426 12.733 14.149 C 13.397 14.805,13.485 14.878,13.680 14.936 C 13.947 15.016,14.052 15.016,14.310 14.939 C 14.589 14.856,14.856 14.589,14.939 14.310 C 15.016 14.052,15.016 13.947,14.936 13.680 C 14.878 13.485,14.805 13.397,14.149 12.733 L 13.426 12.000 14.149 11.267 C 14.805 10.603,14.878 10.515,14.936 10.320 C 15.016 10.053,15.016 9.948,14.939 9.690 C 14.856 9.411,14.589 9.144,14.310 9.061 C 14.052 8.984,13.947 8.984,13.680 9.064 C 13.485 9.122,13.397 9.195,12.733 9.851 L 12.000 10.574 11.267 9.851 C 10.603 9.195,10.515 9.122,10.320 9.064 C 10.062 8.987,9.921 8.987,9.673 9.063 " stroke="none" fill-rule="evenodd" fill="black"></path></svg>