<svg width="24" height="24" viewBox="0 0 24 24" fill="none" xmlns="http://www.w3.org/2000/svg"><path d="M11.100 2.041 C 9.341 2.219,7.729 2.802,6.335 3.767 C 3.070 6.025,1.454 9.944,2.178 13.846 C 2.468 15.412,3.137 16.886,4.154 18.200 C 4.493 18.637,5.363 19.507,5.800 19.846 C 8.241 21.735,11.253 22.412,14.240 21.741 C 17.932 20.912,20.910 17.933,21.741 14.240 C 21.929 13.402,21.977 12.954,21.977 12.000 C 21.977 11.046,21.929 10.598,21.741 9.760 C 21.274 7.685,20.065 5.706,18.437 4.354 C 16.934 3.106,15.158 2.329,13.240 2.080 C 12.775 2.019,11.539 1.997,11.100 2.041 M12.832 4.042 C 14.361 4.210,15.851 4.828,17.040 5.789 C 17.394 6.075,18.067 6.761,18.326 7.100 C 19.406 8.514,20.000 10.253,20.000 12.000 C 20.000 13.810,19.358 15.619,18.211 17.041 C 17.900 17.426,17.184 18.117,16.800 18.402 C 13.933 20.529,10.067 20.529,7.200 18.402 C 6.816 18.117,6.100 17.426,5.789 17.041 C 3.835 14.619,3.452 11.319,4.800 8.529 C 5.197 7.706,5.611 7.114,6.259 6.446 C 6.951 5.730,7.648 5.225,8.526 4.801 C 9.865 4.154,11.392 3.885,12.832 4.042 M12.506 6.039 C 11.372 6.246,10.434 7.077,10.116 8.157 C 10.035 8.435,10.026 8.564,10.010 9.730 L 9.993 11.000 9.444 11.000 C 8.753 11.000,8.554 11.053,8.306 11.300 C 7.902 11.704,7.902 12.296,8.306 12.700 C 8.554 12.948,8.753 13.000,9.447 13.000 L 10.000 13.000 9.998 13.590 C 9.996 14.227,9.964 14.382,9.783 14.619 C 9.621 14.832,9.377 14.955,9.028 14.999 C 8.637 15.049,8.484 15.114,8.287 15.318 C 7.903 15.714,7.911 16.305,8.306 16.700 C 8.618 17.011,8.480 17.000,12.000 17.000 C 15.525 17.000,15.382 17.012,15.697 16.697 C 15.880 16.514,16.000 16.237,16.000 16.000 C 16.000 15.763,15.880 15.486,15.697 15.303 C 15.399 15.006,15.359 15.000,13.473 15.000 C 12.575 15.000,11.840 14.995,11.840 14.990 C 11.841 14.985,11.870 14.881,11.905 14.760 C 11.948 14.608,11.975 14.301,11.989 13.770 L 12.009 13.000 12.557 13.000 C 13.249 13.000,13.446 12.948,13.697 12.697 C 13.880 12.514,14.000 12.237,14.000 12.000 C 14.000 11.763,13.880 11.486,13.697 11.303 C 13.446 11.052,13.249 11.000,12.550 11.000 L 11.995 11.000 12.008 9.847 L 12.020 8.693 12.141 8.497 C 12.446 8.001,13.077 7.856,13.548 8.172 C 13.817 8.354,13.954 8.595,13.996 8.962 C 14.039 9.344,14.113 9.514,14.321 9.717 C 14.490 9.880,14.777 10.000,15.000 10.000 C 15.413 10.000,15.829 9.687,15.945 9.289 C 16.107 8.732,15.843 7.746,15.378 7.176 C 14.941 6.640,14.424 6.286,13.834 6.119 C 13.502 6.026,12.811 5.984,12.506 6.039 " stroke="none" fill-rule="evenodd" fill="black"></path></svg>