<svg width="24" height="24" viewBox="0 0 24 24" fill="none" xmlns="http://www.w3.org/2000/svg"><path d="M3.530 2.061 C 2.859 2.206,2.251 2.798,2.073 3.477 C 2.014 3.702,2.004 3.956,2.002 5.243 C 2.000 6.883,2.017 7.068,2.211 7.478 C 2.325 7.720,2.592 7.997,5.667 11.080 L 8.998 14.420 9.009 17.840 C 9.020 21.146,9.023 21.265,9.098 21.418 C 9.218 21.658,9.459 21.871,9.692 21.940 C 9.948 22.016,10.053 22.015,10.323 21.937 C 10.532 21.875,10.617 21.796,12.684 19.727 C 14.105 18.304,14.854 17.526,14.904 17.420 C 14.973 17.274,14.981 17.138,14.992 15.840 L 15.003 14.420 18.334 11.080 C 21.408 7.998,21.675 7.720,21.789 7.478 C 21.982 7.071,22.000 6.880,21.999 5.283 C 21.998 3.340,21.957 3.156,21.401 2.599 C 21.092 2.291,20.822 2.137,20.451 2.059 C 20.058 1.976,3.914 1.977,3.530 2.061 M20.000 5.289 L 20.000 6.578 16.667 9.919 C 13.608 12.986,13.324 13.281,13.210 13.520 C 13.025 13.908,13.000 14.137,13.000 15.418 L 13.000 16.581 12.000 17.580 L 11.000 18.579 11.000 16.417 C 11.000 15.030,10.984 14.170,10.956 14.019 C 10.933 13.890,10.857 13.666,10.789 13.522 C 10.675 13.280,10.408 13.003,7.332 9.919 L 4.000 6.578 4.000 5.289 L 4.000 4.000 12.000 4.000 L 20.000 4.000 20.000 5.289 " stroke="none" fill-rule="evenodd" fill="black"></path></svg>