<svg width="24" height="24" viewBox="0 0 24 24" fill="none" xmlns="http://www.w3.org/2000/svg"><path d="M4.506 4.042 C 3.382 4.231,2.426 5.084,2.112 6.178 L 2.020 6.500 2.020 10.000 L 2.020 13.500 2.112 13.822 C 2.388 14.785,3.177 15.584,4.139 15.874 C 4.415 15.957,4.567 15.973,5.225 15.990 L 5.991 16.009 6.010 16.775 C 6.027 17.433,6.043 17.585,6.126 17.861 C 6.416 18.823,7.215 19.612,8.178 19.888 L 8.500 19.980 14.000 19.980 L 19.500 19.980 19.822 19.888 C 19.999 19.837,20.269 19.726,20.422 19.641 C 21.129 19.248,21.672 18.574,21.888 17.822 L 21.980 17.500 21.980 14.000 L 21.980 10.500 21.888 10.178 C 21.679 9.448,21.181 8.818,20.481 8.394 C 19.996 8.101,19.520 8.001,18.614 8.000 L 18.009 8.000 17.992 7.250 C 17.973 6.389,17.902 6.047,17.648 5.590 C 17.182 4.751,16.394 4.191,15.467 4.041 C 15.168 3.992,4.796 3.993,4.506 4.042 M15.330 6.057 C 15.551 6.136,15.744 6.298,15.869 6.511 C 15.976 6.693,15.980 6.723,15.993 7.350 L 16.007 8.000 12.393 8.000 C 10.171 8.000,8.685 8.016,8.533 8.041 C 7.394 8.226,6.441 9.059,6.115 10.157 C 6.029 10.447,6.025 10.535,6.010 12.233 L 5.995 14.007 5.347 13.993 C 4.721 13.980,4.694 13.976,4.508 13.867 C 4.290 13.739,4.099 13.498,4.039 13.276 C 4.012 13.177,4.002 12.005,4.009 9.912 L 4.020 6.700 4.131 6.511 C 4.256 6.298,4.449 6.136,4.670 6.057 C 4.892 5.978,15.108 5.978,15.330 6.057 M19.330 10.057 C 19.551 10.136,19.744 10.298,19.869 10.511 L 19.980 10.700 19.980 14.000 L 19.980 17.300 19.869 17.489 C 19.744 17.702,19.551 17.864,19.330 17.943 C 19.108 18.022,8.892 18.022,8.670 17.943 C 8.449 17.864,8.256 17.702,8.131 17.489 L 8.020 17.300 8.020 14.000 L 8.020 10.700 8.131 10.511 C 8.256 10.298,8.449 10.136,8.670 10.057 C 8.892 9.978,19.108 9.978,19.330 10.057 M13.506 11.042 C 12.381 11.231,11.421 12.088,11.114 13.178 C 10.982 13.645,10.987 14.406,11.125 14.861 C 11.415 15.814,12.185 16.584,13.139 16.875 C 13.412 16.958,13.542 16.973,14.000 16.973 C 14.458 16.973,14.588 16.958,14.861 16.875 C 15.815 16.584,16.585 15.814,16.875 14.861 C 17.013 14.406,17.018 13.645,16.886 13.178 C 16.681 12.452,16.182 11.818,15.481 11.394 C 14.944 11.070,14.167 10.931,13.506 11.042 M14.512 13.147 C 15.142 13.534,15.154 14.446,14.535 14.839 C 14.060 15.141,13.442 14.992,13.141 14.503 C 13.034 14.329,13.020 14.271,13.020 14.003 C 13.020 13.744,13.036 13.673,13.131 13.511 C 13.339 13.158,13.660 12.988,14.072 13.015 C 14.261 13.027,14.371 13.060,14.512 13.147 " stroke="none" fill-rule="evenodd" fill="black"></path></svg>