<svg width="24" height="24" viewBox="0 0 24 24" fill="none" xmlns="http://www.w3.org/2000/svg"><path d="M10.260 4.060 C 9.778 4.151,9.457 4.293,9.040 4.603 C 8.897 4.708,7.284 6.295,5.455 8.128 C 2.422 11.168,2.125 11.477,2.065 11.657 C 1.983 11.906,1.983 12.094,2.065 12.343 C 2.125 12.523,2.422 12.832,5.455 15.873 C 7.284 17.706,8.888 19.287,9.020 19.387 C 9.319 19.614,9.617 19.766,10.001 19.886 L 10.300 19.980 14.900 19.980 L 19.500 19.980 19.822 19.888 C 20.796 19.609,21.609 18.796,21.888 17.822 L 21.980 17.500 21.980 12.000 L 21.980 6.500 21.888 6.178 C 21.570 5.069,20.616 4.227,19.467 4.041 C 19.068 3.976,10.613 3.994,10.260 4.060 M19.489 6.131 C 19.702 6.256,19.864 6.449,19.943 6.670 C 20.022 6.892,20.022 17.108,19.943 17.330 C 19.864 17.551,19.702 17.744,19.489 17.869 L 19.300 17.980 14.969 17.991 C 10.682 18.001,10.636 18.001,10.448 17.920 C 10.292 17.853,9.728 17.308,7.339 14.919 L 4.420 12.000 7.320 9.097 C 8.915 7.501,10.274 6.166,10.340 6.131 C 10.406 6.096,10.505 6.054,10.560 6.037 C 10.615 6.020,12.604 6.009,14.980 6.013 L 19.300 6.020 19.489 6.131 M11.673 9.063 C 11.412 9.143,11.140 9.421,11.061 9.690 C 10.984 9.948,10.984 10.053,11.064 10.320 C 11.122 10.515,11.195 10.603,11.851 11.267 L 12.574 12.000 11.851 12.733 C 11.195 13.397,11.122 13.485,11.064 13.680 C 10.984 13.947,10.984 14.052,11.061 14.310 C 11.144 14.589,11.411 14.856,11.690 14.939 C 11.948 15.016,12.053 15.016,12.320 14.936 C 12.515 14.878,12.603 14.805,13.267 14.149 L 14.000 13.426 14.733 14.149 C 15.397 14.805,15.485 14.878,15.680 14.936 C 15.947 15.016,16.052 15.016,16.310 14.939 C 16.589 14.856,16.856 14.589,16.939 14.310 C 17.016 14.052,17.016 13.947,16.936 13.680 C 16.878 13.485,16.805 13.397,16.149 12.733 L 15.426 12.000 16.149 11.267 C 16.805 10.603,16.878 10.515,16.936 10.320 C 17.016 10.053,17.016 9.948,16.939 9.690 C 16.856 9.411,16.589 9.144,16.310 9.061 C 16.052 8.984,15.947 8.984,15.680 9.064 C 15.485 9.122,15.397 9.195,14.733 9.851 L 14.000 10.574 13.267 9.851 C 12.603 9.195,12.515 9.122,12.320 9.064 C 12.062 8.987,11.921 8.987,11.673 9.063 " stroke="none" fill-rule="evenodd" fill="black"></path></svg>