<svg width="24" height="24" viewBox="0 0 24 24" fill="none" xmlns="http://www.w3.org/2000/svg"><path d="M11.100 2.041 C 9.341 2.219,7.729 2.802,6.335 3.767 C 3.070 6.025,1.454 9.944,2.178 13.846 C 2.468 15.412,3.137 16.886,4.154 18.200 C 4.493 18.637,5.363 19.507,5.800 19.846 C 8.241 21.735,11.253 22.412,14.240 21.741 C 17.932 20.912,20.910 17.933,21.741 14.240 C 21.929 13.402,21.977 12.954,21.977 12.000 C 21.977 11.046,21.929 10.598,21.741 9.760 C 21.274 7.685,20.065 5.706,18.437 4.354 C 16.934 3.106,15.158 2.329,13.240 2.080 C 12.775 2.019,11.539 1.997,11.100 2.041 M12.832 4.042 C 14.361 4.210,15.851 4.828,17.040 5.789 C 17.394 6.075,18.067 6.761,18.326 7.100 C 19.406 8.514,20.000 10.253,20.000 12.000 C 20.000 13.810,19.358 15.619,18.211 17.041 C 17.900 17.426,17.184 18.117,16.800 18.402 C 13.933 20.529,10.067 20.529,7.200 18.402 C 6.816 18.117,6.100 17.426,5.789 17.041 C 3.835 14.619,3.452 11.319,4.800 8.529 C 5.197 7.706,5.611 7.114,6.259 6.446 C 6.951 5.730,7.648 5.225,8.526 4.801 C 9.865 4.154,11.392 3.885,12.832 4.042 M9.530 8.061 C 8.859 8.206,8.251 8.798,8.073 9.477 C 8.012 9.711,8.005 9.992,8.005 12.000 C 8.005 14.524,8.008 14.564,8.281 15.017 C 8.448 15.294,8.787 15.618,9.071 15.772 C 9.468 15.987,9.620 15.999,12.000 15.999 C 14.379 15.999,14.528 15.987,14.931 15.772 C 15.199 15.629,15.629 15.199,15.772 14.931 C 15.987 14.528,15.999 14.379,15.999 12.000 C 15.999 9.621,15.987 9.472,15.772 9.069 C 15.629 8.801,15.199 8.371,14.931 8.228 C 14.527 8.012,14.382 8.001,11.980 8.004 C 10.284 8.006,9.723 8.019,9.530 8.061 M14.000 12.000 L 14.000 14.000 12.000 14.000 L 10.000 14.000 10.000 12.000 L 10.000 10.000 12.000 10.000 L 14.000 10.000 14.000 12.000 " stroke="none" fill-rule="evenodd" fill="black"></path></svg>