<svg width="24" height="24" viewBox="0 0 24 24" fill="none" xmlns="http://www.w3.org/2000/svg"><path d="M2.673 2.063 C 2.553 2.100,2.421 2.185,2.307 2.299 C 1.902 2.704,1.902 3.295,2.306 3.700 C 2.562 3.955,2.745 4.000,3.537 4.000 L 4.180 4.000 5.047 8.330 L 5.914 12.660 4.881 13.700 C 4.314 14.272,3.792 14.830,3.723 14.940 C 3.219 15.741,3.388 16.903,4.096 17.500 L 4.286 17.661 4.185 17.963 C 3.970 18.603,3.951 19.245,4.130 19.863 C 4.402 20.801,5.183 21.584,6.139 21.875 C 6.412 21.958,6.542 21.973,7.000 21.973 C 7.458 21.973,7.588 21.958,7.861 21.875 C 8.815 21.584,9.585 20.814,9.875 19.861 C 9.956 19.594,9.973 19.452,9.975 19.020 C 9.976 18.713,9.956 18.426,9.926 18.320 C 9.898 18.221,9.866 18.108,9.855 18.070 C 9.836 18.004,9.957 18.000,12.000 18.000 C 14.043 18.000,14.164 18.004,14.145 18.070 C 14.134 18.108,14.102 18.221,14.074 18.320 C 14.044 18.426,14.024 18.713,14.025 19.020 C 14.027 19.452,14.044 19.594,14.125 19.861 C 14.415 20.814,15.185 21.584,16.139 21.875 C 16.412 21.958,16.542 21.973,17.000 21.973 C 17.458 21.973,17.588 21.958,17.861 21.875 C 18.815 21.584,19.585 20.814,19.875 19.861 C 20.013 19.406,20.018 18.645,19.886 18.178 C 19.575 17.073,18.617 16.227,17.467 16.041 C 17.310 16.015,15.071 16.000,11.320 16.000 L 5.421 16.000 6.420 15.000 L 7.419 14.000 12.283 14.000 C 17.702 14.000,17.373 14.017,17.679 13.725 C 17.801 13.608,18.231 12.779,19.892 9.456 C 21.320 6.599,21.962 5.275,21.981 5.147 C 22.043 4.736,21.829 4.317,21.460 4.124 L 21.260 4.020 13.738 4.010 L 6.216 3.999 6.102 3.410 C 5.951 2.631,5.902 2.498,5.694 2.296 C 5.406 2.016,5.311 2.000,4.003 2.003 C 3.128 2.005,2.816 2.019,2.673 2.063 M19.360 6.020 C 19.360 6.031,18.690 7.381,17.870 9.020 L 16.380 12.000 12.100 12.000 L 7.819 12.000 7.228 9.030 C 6.902 7.396,6.637 6.046,6.638 6.030 C 6.640 5.997,19.360 5.987,19.360 6.020 M7.512 18.147 C 8.142 18.534,8.154 19.446,7.535 19.839 C 7.060 20.141,6.442 19.992,6.141 19.503 C 6.034 19.329,6.020 19.271,6.020 19.003 C 6.020 18.744,6.036 18.673,6.131 18.511 C 6.339 18.158,6.660 17.988,7.072 18.015 C 7.261 18.027,7.371 18.060,7.512 18.147 M17.512 18.147 C 18.142 18.534,18.154 19.446,17.535 19.839 C 17.060 20.141,16.442 19.992,16.141 19.503 C 16.034 19.329,16.020 19.271,16.020 19.003 C 16.020 18.744,16.036 18.673,16.131 18.511 C 16.339 18.158,16.660 17.988,17.072 18.015 C 17.261 18.027,17.371 18.060,17.512 18.147 " stroke="none" fill-rule="evenodd" fill="black"></path></svg>