<svg width="24" height="24" viewBox="0 0 24 24" fill="none" xmlns="http://www.w3.org/2000/svg"><path d="M11.673 3.063 C 11.412 3.143,11.140 3.421,11.061 3.690 C 11.008 3.867,11.000 4.413,11.000 7.734 L 11.000 11.574 10.267 10.851 C 9.603 10.195,9.515 10.122,9.320 10.064 C 9.053 9.984,8.948 9.984,8.690 10.061 C 8.309 10.174,8.000 10.595,8.000 11.000 C 8.000 11.080,8.029 11.234,8.065 11.343 C 8.124 11.520,8.302 11.712,9.795 13.207 C 11.390 14.803,11.469 14.876,11.677 14.937 C 11.949 15.016,12.051 15.016,12.323 14.937 C 12.531 14.876,12.611 14.802,14.207 13.207 C 15.802 11.611,15.876 11.531,15.937 11.323 C 16.016 11.052,16.016 10.948,15.939 10.690 C 15.856 10.411,15.589 10.144,15.310 10.061 C 15.052 9.984,14.947 9.984,14.680 10.064 C 14.485 10.122,14.397 10.195,13.733 10.851 L 13.000 11.574 13.000 7.734 C 13.000 3.390,13.016 3.622,12.697 3.303 C 12.418 3.024,12.067 2.942,11.673 3.063 M4.506 6.042 C 3.382 6.231,2.426 7.084,2.112 8.178 L 2.020 8.500 2.020 13.500 L 2.020 18.500 2.112 18.822 C 2.391 19.796,3.204 20.609,4.178 20.888 L 4.500 20.980 12.000 20.980 L 19.500 20.980 19.822 20.888 C 20.796 20.609,21.609 19.796,21.888 18.822 L 21.980 18.500 21.980 13.500 L 21.980 8.500 21.888 8.178 C 21.570 7.069,20.616 6.227,19.467 6.041 C 19.331 6.019,18.476 6.000,17.557 6.000 C 15.641 6.000,15.601 6.005,15.306 6.300 C 14.911 6.695,14.903 7.286,15.287 7.682 C 15.581 7.985,15.526 7.978,17.520 8.000 L 19.300 8.020 19.492 8.133 C 19.710 8.261,19.901 8.502,19.961 8.723 C 19.987 8.822,19.998 10.496,19.991 13.587 L 19.980 18.300 19.869 18.489 C 19.744 18.702,19.551 18.864,19.330 18.943 C 19.107 19.022,4.893 19.022,4.670 18.943 C 4.449 18.864,4.256 18.702,4.131 18.489 L 4.020 18.300 4.009 13.587 C 4.002 10.496,4.013 8.822,4.039 8.723 C 4.099 8.502,4.290 8.261,4.508 8.133 L 4.700 8.020 6.480 8.000 C 8.477 7.978,8.418 7.986,8.717 7.679 C 8.880 7.510,9.000 7.223,9.000 7.000 C 9.000 6.763,8.880 6.486,8.697 6.303 C 8.397 6.003,8.367 5.999,6.403 6.005 C 5.466 6.007,4.613 6.024,4.506 6.042 " stroke="none" fill-rule="evenodd" fill="black"></path></svg>