<svg width="24" height="24" viewBox="0 0 24 24" fill="none" xmlns="http://www.w3.org/2000/svg"><path d="M5.673 5.063 C 5.429 5.138,5.150 5.414,5.064 5.666 C 4.983 5.905,4.983 6.094,5.065 6.343 C 5.125 6.522,5.380 6.790,7.854 9.270 L 10.578 12.000 7.854 14.730 C 5.380 17.210,5.125 17.478,5.065 17.657 C 5.029 17.766,5.000 17.920,5.000 18.000 C 5.000 18.405,5.309 18.826,5.690 18.939 C 5.948 19.016,6.052 19.016,6.323 18.936 C 6.533 18.875,6.628 18.785,9.270 16.147 L 12.000 13.422 14.730 16.147 C 17.372 18.785,17.467 18.875,17.677 18.936 C 17.948 19.016,18.052 19.016,18.310 18.939 C 18.589 18.856,18.856 18.589,18.939 18.310 C 19.016 18.052,19.016 17.948,18.936 17.677 C 18.875 17.467,18.785 17.372,16.147 14.730 L 13.422 12.000 16.147 9.270 C 18.785 6.628,18.875 6.533,18.936 6.323 C 19.016 6.052,19.016 5.948,18.939 5.690 C 18.856 5.411,18.589 5.144,18.310 5.061 C 18.052 4.984,17.948 4.984,17.677 5.064 C 17.467 5.125,17.372 5.215,14.730 7.853 L 12.000 10.578 9.270 7.853 C 6.628 5.215,6.533 5.125,6.323 5.064 C 6.061 4.987,5.920 4.987,5.673 5.063 " stroke="none" fill-rule="evenodd" fill="black"></path></svg>