<svg width="24" height="24" viewBox="0 0 24 24" fill="none" xmlns="http://www.w3.org/2000/svg"><path d="M11.749 2.042 C 11.667 2.062,11.109 2.325,10.509 2.625 C 9.286 3.239,9.167 3.327,9.056 3.707 C 8.901 4.242,9.174 4.772,9.694 4.945 C 10.035 5.058,10.203 5.011,11.150 4.543 L 12.000 4.122 12.850 4.543 C 13.797 5.011,13.965 5.058,14.306 4.945 C 14.826 4.772,15.099 4.242,14.944 3.707 C 14.832 3.321,14.719 3.239,13.440 2.605 C 12.237 2.008,12.086 1.958,11.749 2.042 M5.700 5.056 C 5.612 5.085,5.063 5.346,4.480 5.638 C 3.320 6.220,3.179 6.323,3.062 6.673 C 3.005 6.846,2.998 7.061,3.008 8.326 C 3.020 9.734,3.023 9.785,3.108 9.944 C 3.210 10.134,3.438 10.347,3.626 10.425 C 3.795 10.496,4.205 10.496,4.374 10.425 C 4.563 10.346,4.791 10.134,4.891 9.944 C 4.966 9.803,4.980 9.700,4.993 9.210 C 5.001 8.896,5.013 8.640,5.021 8.640 C 5.028 8.640,5.181 8.711,5.361 8.798 C 5.541 8.885,5.771 8.969,5.873 8.984 C 6.229 9.037,6.633 8.857,6.821 8.559 C 7.140 8.053,6.989 7.418,6.482 7.134 C 6.371 7.071,6.280 7.011,6.280 7.000 C 6.280 6.989,6.371 6.929,6.482 6.866 C 7.239 6.442,7.119 5.305,6.293 5.056 C 6.069 4.988,5.912 4.989,5.700 5.056 M17.673 5.061 C 17.406 5.146,17.142 5.415,17.063 5.683 C 16.985 5.944,16.984 6.055,17.057 6.295 C 17.133 6.551,17.282 6.734,17.520 6.868 C 17.630 6.930,17.720 6.989,17.720 7.000 C 17.720 7.011,17.629 7.071,17.518 7.134 C 16.736 7.573,16.891 8.734,17.761 8.964 C 18.012 9.030,18.252 8.985,18.639 8.798 C 18.819 8.711,18.972 8.640,18.979 8.640 C 18.987 8.640,18.999 8.896,19.007 9.210 C 19.020 9.700,19.034 9.803,19.109 9.944 C 19.209 10.134,19.437 10.346,19.626 10.425 C 19.795 10.496,20.205 10.496,20.374 10.425 C 20.562 10.347,20.790 10.134,20.892 9.944 C 20.977 9.785,20.980 9.733,20.992 8.347 C 21.002 7.128,20.994 6.881,20.940 6.694 C 20.831 6.319,20.686 6.214,19.419 5.588 C 18.191 4.981,18.052 4.939,17.673 5.061 M9.673 9.061 C 9.406 9.146,9.142 9.415,9.063 9.683 C 8.984 9.947,8.984 10.052,9.062 10.313 C 9.162 10.652,9.323 10.780,10.208 11.224 L 10.995 11.619 11.008 12.699 C 11.019 13.722,11.025 13.789,11.108 13.944 C 11.210 14.134,11.438 14.347,11.626 14.425 C 11.795 14.496,12.205 14.496,12.374 14.425 C 12.562 14.347,12.790 14.134,12.892 13.944 C 12.975 13.789,12.981 13.722,12.992 12.699 L 13.005 11.619 13.792 11.224 C 14.691 10.773,14.839 10.653,14.944 10.293 C 15.149 9.589,14.571 8.911,13.856 9.018 C 13.749 9.035,13.334 9.215,12.838 9.462 L 12.000 9.878 11.150 9.457 C 10.212 8.992,10.036 8.945,9.673 9.061 M3.617 13.577 C 3.435 13.656,3.207 13.870,3.108 14.056 C 3.023 14.215,3.020 14.266,3.008 15.674 C 2.995 17.341,3.004 17.408,3.297 17.696 C 3.529 17.925,5.606 18.953,5.905 18.987 C 6.603 19.066,7.145 18.398,6.944 17.707 C 6.839 17.347,6.691 17.227,5.792 16.776 L 5.005 16.381 4.992 15.301 C 4.981 14.278,4.975 14.211,4.892 14.056 C 4.790 13.866,4.562 13.653,4.374 13.575 C 4.208 13.505,3.778 13.506,3.617 13.577 M19.617 13.577 C 19.435 13.656,19.207 13.870,19.108 14.056 C 19.025 14.211,19.019 14.278,19.008 15.301 L 18.995 16.381 18.208 16.776 C 17.309 17.227,17.161 17.347,17.056 17.707 C 16.855 18.398,17.397 19.066,18.095 18.987 C 18.394 18.953,20.471 17.925,20.703 17.696 C 20.996 17.408,21.005 17.341,20.992 15.674 C 20.980 14.266,20.977 14.215,20.892 14.056 C 20.790 13.866,20.562 13.653,20.374 13.575 C 20.208 13.505,19.778 13.506,19.617 13.577 M11.617 17.577 C 11.434 17.656,11.207 17.871,11.109 18.056 C 11.034 18.197,11.020 18.300,11.007 18.790 C 10.999 19.104,10.987 19.360,10.980 19.360 C 10.973 19.360,10.817 19.288,10.634 19.200 C 10.450 19.112,10.217 19.029,10.116 19.016 C 9.667 18.955,9.189 19.258,9.063 19.683 C 8.984 19.947,8.984 20.052,9.062 20.313 C 9.170 20.677,9.296 20.768,10.572 21.405 C 11.720 21.978,11.725 21.980,12.000 21.980 C 12.275 21.980,12.280 21.978,13.428 21.405 C 14.720 20.760,14.832 20.678,14.944 20.293 C 15.105 19.737,14.787 19.171,14.238 19.039 C 13.965 18.974,13.749 19.014,13.361 19.202 C 13.181 19.289,13.028 19.360,13.021 19.360 C 13.013 19.360,13.001 19.104,12.993 18.790 C 12.980 18.300,12.966 18.197,12.891 18.056 C 12.791 17.866,12.563 17.654,12.374 17.575 C 12.208 17.505,11.778 17.506,11.617 17.577 " stroke="none" fill-rule="evenodd" fill="black"></path></svg>