<svg width="24" height="24" viewBox="0 0 24 24" fill="none" xmlns="http://www.w3.org/2000/svg"><path d="M4.673 2.063 C 4.429 2.138,4.150 2.414,4.064 2.666 C 4.017 2.804,4.000 3.007,4.000 3.427 L 4.000 4.000 3.447 4.000 C 2.753 4.000,2.554 4.052,2.306 4.300 C 1.902 4.704,1.902 5.296,2.306 5.700 C 2.554 5.948,2.753 6.000,3.447 6.000 L 4.000 6.000 4.000 6.573 C 4.000 7.265,4.048 7.442,4.306 7.700 C 4.486 7.879,4.764 8.000,5.000 8.000 C 5.237 8.000,5.514 7.880,5.697 7.697 C 5.948 7.446,6.000 7.249,6.000 6.553 L 6.000 6.000 6.553 6.000 C 7.249 6.000,7.446 5.948,7.697 5.697 C 7.880 5.514,8.000 5.237,8.000 5.000 C 8.000 4.763,7.880 4.486,7.697 4.303 C 7.446 4.052,7.249 4.000,6.553 4.000 L 6.000 4.000 6.000 3.447 C 6.000 2.751,5.948 2.554,5.697 2.303 C 5.418 2.024,5.067 1.942,4.673 2.063 M12.726 2.046 C 12.530 2.102,12.302 2.257,12.194 2.406 C 12.139 2.484,11.650 3.879,11.000 5.818 L 9.900 9.099 7.266 10.086 C 5.818 10.629,4.549 11.125,4.447 11.188 C 4.305 11.276,4.229 11.363,4.126 11.561 C 4.007 11.792,3.994 11.845,4.012 12.051 C 4.037 12.329,4.179 12.618,4.365 12.768 C 4.455 12.841,5.404 13.216,7.200 13.889 L 9.900 14.901 10.982 18.120 C 11.577 19.891,12.085 21.389,12.111 21.449 C 12.186 21.625,12.454 21.855,12.678 21.935 C 13.055 22.071,13.524 21.937,13.780 21.621 C 13.876 21.503,14.122 20.809,15.000 18.187 L 16.100 14.901 18.734 13.914 C 20.182 13.371,21.451 12.875,21.553 12.812 C 21.695 12.724,21.771 12.637,21.874 12.439 C 21.993 12.209,22.006 12.154,21.988 11.952 C 21.963 11.665,21.825 11.387,21.633 11.235 C 21.529 11.152,20.677 10.814,18.792 10.108 L 16.100 9.099 15.018 5.880 C 14.423 4.109,13.915 2.611,13.889 2.551 C 13.811 2.368,13.540 2.139,13.318 2.067 C 13.089 1.993,12.929 1.987,12.726 2.046 M13.695 8.264 C 14.417 10.426,14.462 10.529,14.773 10.703 C 14.856 10.750,15.642 11.056,16.521 11.384 C 17.400 11.712,18.119 11.989,18.119 12.000 C 18.119 12.011,17.400 12.288,16.521 12.616 C 15.642 12.944,14.856 13.250,14.773 13.297 C 14.462 13.471,14.417 13.574,13.695 15.736 C 13.324 16.849,13.011 17.760,13.000 17.760 C 12.989 17.760,12.676 16.849,12.305 15.736 C 11.583 13.574,11.538 13.471,11.227 13.297 C 11.144 13.250,10.358 12.944,9.479 12.616 C 8.600 12.288,7.881 12.011,7.881 12.000 C 7.881 11.989,8.600 11.712,9.479 11.384 C 10.358 11.056,11.144 10.750,11.227 10.703 C 11.538 10.529,11.583 10.426,12.305 8.264 C 12.676 7.151,12.989 6.240,13.000 6.240 C 13.011 6.240,13.324 7.151,13.695 8.264 M5.673 16.063 C 5.429 16.138,5.150 16.414,5.064 16.666 C 5.017 16.804,5.000 17.007,5.000 17.427 L 5.000 18.000 4.447 18.000 C 3.753 18.000,3.554 18.052,3.306 18.300 C 2.902 18.704,2.902 19.296,3.306 19.700 C 3.554 19.948,3.753 20.000,4.447 20.000 L 5.000 20.000 5.000 20.573 C 5.000 21.265,5.048 21.442,5.306 21.700 C 5.486 21.879,5.764 22.000,6.000 22.000 C 6.237 22.000,6.514 21.880,6.697 21.697 C 6.948 21.446,7.000 21.249,7.000 20.553 L 7.000 20.000 7.553 20.000 C 8.249 20.000,8.446 19.948,8.697 19.697 C 8.880 19.514,9.000 19.237,9.000 19.000 C 9.000 18.763,8.880 18.486,8.697 18.303 C 8.446 18.052,8.249 18.000,7.553 18.000 L 7.000 18.000 7.000 17.447 C 7.000 16.751,6.948 16.554,6.697 16.303 C 6.418 16.024,6.067 15.942,5.673 16.063 " stroke="none" fill-rule="evenodd" fill="black"></path></svg>