<svg width="24" height="24" viewBox="0 0 24 24" fill="none" xmlns="http://www.w3.org/2000/svg"><path d="M18.660 6.066 C 18.472 6.123,18.180 6.405,13.730 10.852 L 9.001 15.578 7.270 13.853 C 5.616 12.203,5.530 12.125,5.323 12.064 C 5.053 11.984,4.949 11.984,4.690 12.061 C 4.309 12.174,4.000 12.595,4.000 13.000 C 4.000 13.080,4.029 13.234,4.065 13.343 C 4.124 13.521,4.336 13.746,6.295 15.707 C 8.384 17.797,8.468 17.876,8.677 17.937 C 8.949 18.016,9.051 18.016,9.323 17.937 C 9.535 17.875,9.654 17.760,14.707 12.707 C 19.760 7.654,19.875 7.535,19.937 7.323 C 20.016 7.052,20.016 6.948,19.939 6.690 C 19.856 6.411,19.589 6.144,19.310 6.061 C 19.060 5.986,18.920 5.988,18.660 6.066 " stroke="none" fill-rule="evenodd" fill="black"></path></svg>