<svg width="24" height="24" viewBox="0 0 24 24" fill="none" xmlns="http://www.w3.org/2000/svg"><path d="M12.719 2.053 C 12.641 2.079,12.519 2.136,12.446 2.180 C 12.299 2.269,3.225 13.331,3.111 13.560 C 2.926 13.933,3.002 14.404,3.295 14.697 C 3.611 15.013,3.458 15.000,6.927 15.000 L 10.000 15.000 10.000 18.073 C 10.000 21.545,9.986 21.380,10.307 21.701 C 10.619 22.012,11.057 22.076,11.472 21.870 C 11.630 21.792,12.248 21.054,16.236 16.180 C 18.757 13.100,20.855 10.508,20.900 10.420 C 21.016 10.189,21.009 9.801,20.884 9.547 C 20.774 9.321,20.504 9.106,20.252 9.042 C 20.142 9.014,19.050 9.000,17.042 9.000 L 14.000 9.000 14.000 5.947 C 14.000 2.481,14.011 2.618,13.697 2.303 C 13.429 2.036,13.057 1.940,12.719 2.053 M12.086 10.404 C 12.122 10.484,12.219 10.616,12.301 10.699 C 12.595 10.992,12.450 10.978,15.306 11.000 L 17.873 11.020 14.946 14.597 L 12.020 18.173 12.000 15.957 C 11.978 13.490,11.989 13.592,11.699 13.301 C 11.405 13.008,11.550 13.022,8.694 13.000 L 6.127 12.980 9.054 9.403 L 11.980 5.827 12.000 8.043 C 12.018 9.983,12.028 10.278,12.086 10.404 " stroke="none" fill-rule="evenodd" fill="black"></path></svg>