<svg width="24" height="24" viewBox="0 0 24 24" fill="none" xmlns="http://www.w3.org/2000/svg"><path d="M5.378 4.058 C 3.924 4.284,2.686 5.336,2.203 6.755 C 2.006 7.335,2.000 7.480,2.000 12.000 C 2.000 15.483,2.011 16.287,2.058 16.605 C 2.280 18.074,3.324 19.310,4.755 19.797 C 5.355 20.000,5.320 20.000,12.000 20.000 C 17.230 20.000,18.281 19.990,18.605 19.942 C 20.074 19.720,21.310 18.676,21.797 17.245 C 21.994 16.665,22.000 16.520,22.000 12.000 C 22.000 8.517,21.989 7.713,21.942 7.395 C 21.720 5.929,20.689 4.702,19.268 4.215 C 18.632 3.997,18.739 4.000,11.960 4.004 C 7.166 4.007,5.625 4.020,5.378 4.058 M18.492 6.060 C 18.852 6.153,19.118 6.310,19.404 6.596 C 19.877 7.068,19.998 7.436,19.999 8.390 L 20.000 9.000 12.000 9.000 L 4.000 9.000 4.000 8.368 C 4.000 7.426,4.119 7.073,4.596 6.596 C 4.876 6.316,5.146 6.154,5.491 6.062 C 5.814 5.974,18.158 5.973,18.492 6.060 M20.000 13.624 C 20.000 16.478,19.999 16.487,19.771 16.937 C 19.638 17.200,19.196 17.640,18.930 17.775 C 18.462 18.012,18.828 18.000,12.000 18.000 C 5.172 18.000,5.538 18.012,5.070 17.775 C 4.801 17.639,4.361 17.199,4.225 16.930 C 4.000 16.485,4.000 16.489,4.000 13.632 L 4.000 11.000 12.000 11.000 L 20.000 11.000 20.000 13.624 M6.673 14.063 C 6.310 14.175,6.000 14.606,6.000 15.000 C 6.000 15.405,6.309 15.826,6.690 15.939 C 6.974 16.024,8.026 16.024,8.310 15.939 C 8.688 15.827,9.000 15.402,9.000 15.000 C 9.000 14.598,8.688 14.173,8.310 14.061 C 8.035 13.979,6.941 13.981,6.673 14.063 M11.673 14.063 C 11.304 14.177,11.000 14.609,11.000 15.020 C 11.000 15.405,11.318 15.829,11.690 15.939 C 11.974 16.024,13.026 16.024,13.310 15.939 C 13.688 15.827,14.000 15.402,14.000 15.000 C 14.000 14.598,13.688 14.173,13.310 14.061 C 13.035 13.979,11.941 13.981,11.673 14.063 " stroke="none" fill-rule="evenodd" fill="black"></path></svg>