<svg width="24" height="24" viewBox="0 0 24 24" fill="none" xmlns="http://www.w3.org/2000/svg"><path d="M13.667 3.059 C 13.439 3.146,13.217 3.340,13.125 3.531 C 13.027 3.735,9.000 19.825,9.000 20.014 C 9.000 20.406,9.311 20.827,9.683 20.937 C 9.799 20.972,9.952 21.000,10.022 21.000 C 10.344 21.000,10.737 20.755,10.875 20.469 C 10.974 20.263,15.000 4.174,15.000 3.984 C 15.000 3.650,14.767 3.277,14.461 3.125 C 14.229 3.009,13.875 2.980,13.667 3.059 M5.660 7.066 C 5.474 7.122,5.306 7.280,3.295 9.293 C 1.336 11.254,1.124 11.479,1.065 11.657 C 0.983 11.906,0.983 12.094,1.065 12.343 C 1.124 12.521,1.336 12.746,3.295 14.707 C 5.384 16.797,5.468 16.876,5.677 16.937 C 5.948 17.016,6.052 17.016,6.310 16.939 C 6.589 16.856,6.856 16.589,6.939 16.310 C 7.016 16.051,7.016 15.947,6.936 15.677 C 6.875 15.470,6.797 15.384,5.148 13.730 L 3.423 12.000 5.148 10.270 C 6.797 8.616,6.875 8.530,6.936 8.323 C 7.016 8.053,7.016 7.949,6.939 7.690 C 6.825 7.304,6.392 6.993,5.983 7.003 C 5.915 7.004,5.770 7.033,5.660 7.066 M17.673 7.063 C 17.429 7.138,17.150 7.414,17.064 7.666 C 16.983 7.905,16.983 8.095,17.066 8.343 C 17.124 8.519,17.312 8.721,18.854 10.270 L 20.577 12.000 18.854 13.730 C 17.312 15.279,17.124 15.481,17.066 15.657 C 17.030 15.766,17.000 15.920,17.000 16.000 C 17.000 16.405,17.309 16.826,17.690 16.939 C 17.948 17.016,18.052 17.016,18.323 16.937 C 18.532 16.876,18.617 16.796,20.707 14.707 C 22.796 12.617,22.876 12.532,22.937 12.323 C 22.972 12.203,23.000 12.058,23.000 12.000 C 23.000 11.942,22.972 11.797,22.937 11.677 C 22.876 11.468,22.796 11.383,20.707 9.293 C 18.617 7.204,18.532 7.124,18.323 7.063 C 18.061 6.987,17.920 6.987,17.673 7.063 " stroke="none" fill-rule="evenodd" fill="black"></path></svg>