<svg width="24" height="24" viewBox="0 0 24 24" fill="none" xmlns="http://www.w3.org/2000/svg"><path d="M4.506 3.042 C 3.382 3.231,2.426 4.084,2.112 5.178 L 2.020 5.500 2.020 9.000 L 2.020 12.500 2.112 12.822 C 2.388 13.785,3.177 14.584,4.139 14.874 C 4.416 14.957,4.567 14.973,5.230 14.990 L 6.000 15.009 6.000 16.578 C 6.000 18.369,6.004 18.398,6.306 18.700 C 6.648 19.042,7.143 19.089,7.556 18.819 L 7.700 18.725 7.980 18.820 C 8.464 18.984,8.693 18.999,10.679 19.000 L 12.578 19.000 14.499 20.914 C 15.701 22.111,16.475 22.852,16.567 22.894 C 16.962 23.074,17.395 22.998,17.696 22.697 C 17.993 22.401,18.000 22.350,18.000 20.557 L 18.000 19.009 18.770 18.990 C 19.433 18.973,19.584 18.957,19.861 18.874 C 20.823 18.584,21.612 17.785,21.888 16.822 L 21.980 16.500 21.980 13.000 L 21.980 9.500 21.888 9.178 C 21.679 8.448,21.181 7.818,20.481 7.394 C 19.996 7.101,19.520 7.001,18.614 7.000 L 18.009 7.000 17.992 6.250 C 17.973 5.389,17.902 5.047,17.648 4.590 C 17.182 3.751,16.394 3.191,15.467 3.041 C 15.168 2.992,4.796 2.993,4.506 3.042 M15.330 5.057 C 15.551 5.136,15.744 5.298,15.869 5.511 L 15.980 5.700 15.991 8.912 C 15.998 11.005,15.988 12.177,15.961 12.276 C 15.901 12.498,15.710 12.739,15.492 12.867 L 15.300 12.980 13.020 13.000 C 10.877 13.019,10.730 13.025,10.580 13.097 C 10.480 13.145,9.963 13.627,9.210 14.375 L 8.000 15.577 8.000 14.736 C 8.000 13.745,7.967 13.579,7.717 13.321 C 7.429 13.025,7.418 13.023,5.980 13.000 L 4.700 12.980 4.508 12.867 C 4.290 12.739,4.099 12.498,4.039 12.276 C 4.012 12.177,4.002 11.005,4.009 8.912 L 4.020 5.700 4.131 5.511 C 4.256 5.298,4.449 5.136,4.670 5.057 C 4.892 4.978,15.108 4.978,15.330 5.057 M19.489 9.131 C 19.702 9.256,19.864 9.449,19.943 9.670 C 20.022 9.891,20.022 16.109,19.943 16.330 C 19.864 16.551,19.702 16.744,19.489 16.869 L 19.300 16.980 18.020 17.000 C 16.584 17.023,16.570 17.026,16.287 17.318 C 16.029 17.583,16.000 17.725,16.000 18.716 L 16.000 19.577 14.790 18.375 C 14.037 17.627,13.520 17.145,13.420 17.097 C 13.271 17.025,13.128 17.019,11.350 17.000 L 9.439 16.980 10.430 15.992 L 11.420 15.003 13.480 14.990 L 15.540 14.977 15.861 14.877 C 16.820 14.578,17.579 13.819,17.877 12.861 C 17.976 12.543,17.977 12.524,17.991 10.767 L 18.005 8.993 18.653 9.007 C 19.276 9.020,19.307 9.024,19.489 9.131 " stroke="none" fill-rule="evenodd" fill="black"></path></svg>