<svg width="24" height="24" viewBox="0 0 24 24" fill="none" xmlns="http://www.w3.org/2000/svg"><path d="M4.673 4.063 C 4.429 4.138,4.150 4.414,4.064 4.666 C 3.983 4.905,3.983 5.094,4.065 5.343 C 4.125 5.523,4.414 5.824,7.354 8.770 L 10.578 12.000 7.354 15.230 C 4.414 18.176,4.125 18.477,4.065 18.657 C 4.029 18.766,4.000 18.920,4.000 19.000 C 4.000 19.405,4.309 19.826,4.690 19.939 C 4.948 20.016,5.052 20.016,5.323 19.937 C 5.534 19.875,5.635 19.778,9.207 16.207 C 12.778 12.635,12.875 12.534,12.937 12.323 C 13.016 12.051,13.016 11.949,12.937 11.677 C 12.875 11.466,12.778 11.365,9.207 7.793 C 5.635 4.222,5.534 4.125,5.323 4.063 C 5.061 3.987,4.920 3.987,4.673 4.063 M12.673 4.063 C 12.429 4.138,12.150 4.414,12.064 4.666 C 11.983 4.905,11.983 5.094,12.065 5.343 C 12.125 5.523,12.414 5.824,15.354 8.770 L 18.578 12.000 15.354 15.230 C 12.414 18.176,12.125 18.477,12.065 18.657 C 12.029 18.766,12.000 18.920,12.000 19.000 C 12.000 19.405,12.309 19.826,12.690 19.939 C 12.948 20.016,13.052 20.016,13.323 19.937 C 13.534 19.875,13.635 19.778,17.207 16.207 C 20.778 12.635,20.875 12.534,20.937 12.323 C 21.016 12.051,21.016 11.949,20.937 11.677 C 20.875 11.466,20.778 11.365,17.207 7.793 C 13.635 4.222,13.534 4.125,13.323 4.063 C 13.061 3.987,12.920 3.987,12.673 4.063 " stroke="none" fill-rule="evenodd" fill="black"></path></svg>