<svg width="24" height="24" viewBox="0 0 24 24" fill="none" xmlns="http://www.w3.org/2000/svg"><path d="M10.503 2.041 C 9.836 2.158,9.159 2.549,8.702 3.080 C 8.500 3.316,8.262 3.714,8.220 3.886 L 8.194 3.991 7.327 4.011 C 6.364 4.033,6.233 4.057,5.704 4.312 C 4.836 4.729,4.263 5.466,4.060 6.425 C 3.970 6.850,3.971 19.145,4.062 19.581 C 4.310 20.785,5.215 21.690,6.419 21.938 C 6.678 21.992,7.400 22.000,12.000 22.000 C 17.777 22.000,17.556 22.008,18.150 21.767 C 18.850 21.482,19.482 20.850,19.767 20.150 C 20.011 19.551,20.000 19.876,20.000 13.000 C 20.000 6.123,20.011 6.449,19.766 5.849 C 19.499 5.193,18.964 4.633,18.296 4.312 C 17.767 4.057,17.636 4.033,16.675 4.011 L 15.810 3.991 15.766 3.843 C 15.712 3.666,15.447 3.244,15.247 3.020 C 15.009 2.752,14.637 2.476,14.296 2.312 C 13.711 2.030,13.698 2.028,12.120 2.017 C 11.339 2.011,10.611 2.022,10.503 2.041 M13.340 4.066 C 13.709 4.192,14.000 4.604,14.000 5.000 C 14.000 5.396,13.709 5.808,13.340 5.934 C 13.052 6.032,10.948 6.032,10.660 5.934 C 10.291 5.808,10.000 5.396,10.000 5.000 C 10.000 4.614,10.291 4.193,10.643 4.069 C 10.913 3.974,13.062 3.972,13.340 4.066 M8.249 6.190 C 8.402 6.614,8.897 7.204,9.356 7.509 C 9.642 7.699,10.044 7.861,10.419 7.938 C 10.848 8.027,13.152 8.027,13.581 7.938 C 14.177 7.815,14.687 7.542,15.116 7.115 C 15.370 6.862,15.700 6.375,15.766 6.155 L 15.813 6.000 16.479 6.000 C 17.267 6.000,17.446 6.044,17.701 6.299 C 18.023 6.621,18.000 6.097,18.000 13.000 C 18.000 19.903,18.023 19.379,17.701 19.701 C 17.381 20.021,17.783 20.000,12.000 20.000 C 6.217 20.000,6.619 20.021,6.299 19.701 C 5.977 19.379,6.000 19.903,6.000 13.000 C 6.000 6.096,5.976 6.621,6.300 6.298 C 6.553 6.045,6.707 6.007,7.501 6.003 L 8.181 6.000 8.249 6.190 M14.640 11.068 C 14.487 11.121,14.198 11.391,12.731 12.853 L 11.001 14.577 10.271 13.854 C 9.652 13.243,9.510 13.122,9.343 13.066 C 8.955 12.936,8.578 13.020,8.299 13.299 C 8.020 13.577,7.936 13.954,8.066 14.343 C 8.123 14.516,8.269 14.679,9.255 15.671 C 10.026 16.446,10.434 16.829,10.555 16.887 C 10.801 17.006,11.065 17.024,11.326 16.940 C 11.527 16.875,11.668 16.742,13.671 14.745 C 15.187 13.234,15.827 12.569,15.888 12.444 C 16.284 11.626,15.508 10.770,14.640 11.068 " fill="#1E1E1E" stroke="none" fill-rule="evenodd"></path></svg>