<svg width="24" height="24" viewBox="0 0 24 24" fill="none" xmlns="http://www.w3.org/2000/svg"><path d="M11.506 2.039 C 10.776 2.172,10.164 2.531,9.679 3.111 C 9.351 3.503,9.172 3.880,9.065 4.405 L 9.014 4.660 8.647 4.860 C 6.745 5.898,5.437 7.758,5.076 9.940 C 5.047 10.112,5.020 11.040,5.005 12.340 C 4.982 14.307,4.975 14.470,4.905 14.600 C 4.864 14.677,4.448 15.127,3.982 15.600 C 3.256 16.336,3.123 16.488,3.067 16.657 C 2.940 17.032,3.016 17.403,3.275 17.670 C 3.588 17.992,3.476 17.979,5.870 17.991 L 8.000 18.003 8.000 18.111 C 8.001 18.335,8.120 18.999,8.203 19.245 C 8.538 20.229,9.261 21.076,10.160 21.536 C 10.611 21.767,10.930 21.871,11.395 21.942 C 11.879 22.014,12.121 22.014,12.605 21.942 C 14.074 21.720,15.310 20.676,15.797 19.245 C 15.881 18.998,15.999 18.335,16.000 18.110 L 16.000 18.000 18.053 18.000 C 20.406 18.000,20.392 18.002,20.697 17.696 C 20.999 17.395,21.074 16.960,20.893 16.567 C 20.855 16.485,20.460 16.049,19.997 15.580 C 19.542 15.118,19.136 14.677,19.095 14.600 C 19.026 14.470,19.018 14.304,18.995 12.340 C 18.980 11.070,18.952 10.108,18.924 9.940 C 18.756 8.907,18.395 7.994,17.807 7.116 C 17.149 6.134,16.315 5.368,15.347 4.858 C 15.153 4.755,14.989 4.651,14.982 4.626 C 14.975 4.601,14.940 4.443,14.903 4.276 C 14.724 3.462,14.108 2.701,13.294 2.287 C 12.867 2.070,11.999 1.950,11.506 2.039 M12.330 4.057 C 12.550 4.136,12.744 4.298,12.866 4.506 C 12.959 4.665,12.976 4.750,13.000 5.155 C 13.042 5.881,13.204 6.102,13.895 6.375 C 14.964 6.798,15.958 7.724,16.475 8.779 C 16.682 9.202,16.796 9.519,16.904 9.980 C 16.959 10.214,16.975 10.627,16.998 12.480 C 17.022 14.395,17.035 14.733,17.094 14.940 C 17.167 15.196,17.378 15.656,17.521 15.870 L 17.608 16.000 12.004 16.000 C 8.922 16.000,6.400 15.990,6.400 15.977 C 6.400 15.965,6.443 15.897,6.496 15.827 C 6.641 15.633,6.788 15.319,6.886 14.994 C 6.970 14.712,6.975 14.609,7.002 12.480 C 7.031 10.122,7.033 10.100,7.245 9.440 C 7.671 8.111,8.815 6.885,10.105 6.375 C 10.796 6.102,10.958 5.881,11.000 5.155 C 11.024 4.750,11.041 4.665,11.134 4.506 C 11.319 4.191,11.642 4.004,12.000 4.004 C 12.099 4.004,12.248 4.028,12.330 4.057 M14.000 18.124 C 14.000 18.309,13.888 18.707,13.771 18.937 C 13.638 19.200,13.196 19.640,12.930 19.775 C 12.644 19.920,12.313 20.000,12.000 20.000 C 11.454 20.000,10.999 19.807,10.596 19.404 C 10.233 19.042,10.000 18.543,10.000 18.132 L 10.000 18.000 12.000 18.000 L 14.000 18.000 14.000 18.124 " stroke="none" fill-rule="evenodd" fill="black"></path></svg>