<svg width="24" height="24" viewBox="0 0 24 24" fill="none" xmlns="http://www.w3.org/2000/svg"><path d="M11.506 2.042 C 10.795 2.161,10.166 2.529,9.678 3.112 C 9.305 3.556,9.078 4.112,9.016 4.730 L 8.989 5.000 6.884 5.000 C 5.670 5.000,4.675 5.018,4.533 5.041 C 3.384 5.227,2.430 6.069,2.112 7.178 L 2.020 7.500 2.020 12.500 L 2.020 17.500 2.112 17.822 C 2.391 18.796,3.204 19.609,4.178 19.888 L 4.500 19.980 12.000 19.980 L 19.500 19.980 19.822 19.888 C 20.796 19.609,21.609 18.796,21.888 17.822 L 21.980 17.500 21.980 12.500 L 21.980 7.500 21.888 7.178 C 21.570 6.069,20.616 5.227,19.467 5.041 C 19.325 5.018,18.330 5.000,17.116 5.000 L 15.011 5.000 14.984 4.730 C 14.885 3.739,14.363 2.928,13.481 2.394 C 12.944 2.070,12.167 1.931,11.506 2.042 M12.500 4.138 C 12.713 4.263,12.902 4.505,12.963 4.732 C 12.989 4.828,13.001 5.176,12.993 5.599 L 12.980 6.307 12.859 6.503 C 12.457 7.156,11.543 7.156,11.141 6.503 L 11.020 6.306 11.020 5.503 L 11.020 4.700 11.131 4.511 C 11.338 4.159,11.660 3.988,12.068 4.015 C 12.245 4.026,12.370 4.062,12.500 4.138 M9.313 7.330 C 9.690 8.072,10.359 8.637,11.139 8.875 C 11.412 8.958,11.542 8.973,12.000 8.973 C 12.458 8.973,12.588 8.958,12.861 8.875 C 13.642 8.637,14.310 8.072,14.688 7.329 L 14.856 6.997 17.078 7.009 L 19.300 7.020 19.492 7.133 C 19.710 7.261,19.901 7.502,19.961 7.723 C 19.987 7.822,19.998 9.496,19.991 12.587 L 19.980 17.300 19.869 17.489 C 19.744 17.702,19.551 17.864,19.330 17.943 C 19.107 18.022,4.893 18.022,4.670 17.943 C 4.449 17.864,4.256 17.702,4.131 17.489 L 4.020 17.300 4.020 12.500 L 4.020 7.700 4.131 7.511 C 4.256 7.298,4.449 7.136,4.670 7.057 C 4.788 7.015,5.281 7.003,6.983 7.002 L 9.145 7.000 9.313 7.330 M8.506 9.042 C 7.381 9.231,6.420 10.089,6.114 11.178 C 5.986 11.633,5.985 12.368,6.112 12.812 C 6.206 13.143,6.324 13.400,6.498 13.655 L 6.604 13.810 6.512 13.873 C 5.988 14.236,5.380 15.123,5.216 15.763 C 5.165 15.963,5.162 16.042,5.200 16.202 C 5.339 16.781,5.925 17.124,6.466 16.945 C 6.786 16.838,6.945 16.676,7.150 16.244 C 7.525 15.457,8.204 15.001,9.000 15.001 C 9.796 15.001,10.475 15.457,10.850 16.244 C 10.978 16.513,11.078 16.666,11.185 16.754 C 11.769 17.235,12.622 16.943,12.800 16.202 C 12.838 16.042,12.835 15.963,12.784 15.763 C 12.620 15.123,12.012 14.236,11.488 13.873 L 11.396 13.810 11.502 13.655 C 11.841 13.158,11.977 12.684,11.977 12.000 C 11.977 11.411,11.884 11.016,11.648 10.590 C 11.015 9.449,9.760 8.831,8.506 9.042 M14.673 10.063 C 14.553 10.100,14.421 10.185,14.307 10.299 C 13.902 10.704,13.902 11.295,14.306 11.700 C 14.600 11.993,14.648 12.000,16.500 12.000 C 18.356 12.000,18.400 11.994,18.697 11.697 C 18.880 11.514,19.000 11.237,19.000 11.000 C 19.000 10.598,18.688 10.173,18.310 10.061 C 18.018 9.974,14.956 9.976,14.673 10.063 M9.512 11.147 C 10.142 11.534,10.154 12.446,9.535 12.839 C 9.060 13.141,8.442 12.992,8.141 12.503 C 8.034 12.329,8.020 12.271,8.020 12.003 C 8.020 11.744,8.036 11.673,8.131 11.511 C 8.339 11.158,8.660 10.988,9.072 11.015 C 9.261 11.027,9.371 11.060,9.512 11.147 M14.673 14.063 C 14.310 14.175,14.000 14.606,14.000 15.000 C 14.000 15.405,14.309 15.826,14.690 15.939 C 14.987 16.027,17.013 16.027,17.310 15.939 C 17.688 15.827,18.000 15.402,18.000 15.000 C 18.000 14.598,17.688 14.173,17.310 14.061 C 17.023 13.975,14.952 13.977,14.673 14.063 " stroke="none" fill-rule="evenodd" fill="black"></path></svg>