<svg width="24" height="24" viewBox="0 0 24 24" fill="none" xmlns="http://www.w3.org/2000/svg"><path d="M8.360 2.702 C 8.037 2.790,7.048 3.299,6.520 3.649 C 4.995 4.659,3.823 5.988,3.019 7.620 C 2.418 8.838,2.129 9.945,2.032 11.392 C 1.870 13.830,2.611 16.206,4.154 18.200 C 4.493 18.637,5.363 19.507,5.800 19.846 C 7.794 21.389,10.171 22.130,12.607 21.967 C 14.087 21.869,15.217 21.568,16.457 20.942 C 18.565 19.879,20.196 18.166,21.163 16.000 C 21.305 15.681,21.332 15.578,21.333 15.360 C 21.335 14.911,21.097 14.567,20.682 14.421 C 20.411 14.325,20.244 14.346,19.612 14.558 C 17.856 15.145,16.151 15.151,14.445 14.576 C 13.292 14.187,12.350 13.613,11.466 12.761 C 10.734 12.054,10.230 11.362,9.801 10.474 C 8.872 8.550,8.748 6.451,9.442 4.395 C 9.565 4.034,9.639 3.744,9.638 3.635 C 9.635 3.271,9.451 2.964,9.135 2.792 C 8.881 2.655,8.637 2.627,8.360 2.702 M7.030 6.352 C 6.859 8.785,7.610 11.204,9.154 13.200 C 9.493 13.637,10.363 14.507,10.800 14.846 C 12.847 16.430,15.371 17.188,17.834 16.957 C 18.084 16.934,18.296 16.922,18.305 16.932 C 18.337 16.964,17.356 17.957,17.046 18.207 C 14.882 19.953,12.066 20.460,9.445 19.576 C 8.292 19.187,7.350 18.613,6.466 17.761 C 5.734 17.054,5.230 16.362,4.801 15.474 C 3.449 12.674,3.832 9.384,5.793 6.954 C 6.021 6.672,7.035 5.662,7.063 5.690 C 7.070 5.696,7.055 5.994,7.030 6.352 " stroke="none" fill-rule="evenodd" fill="black"></path></svg>