<svg width="24" height="24" viewBox="0 0 24 24" fill="none" xmlns="http://www.w3.org/2000/svg"><path d="M4.506 2.042 C 3.382 2.231,2.426 3.084,2.112 4.178 L 2.020 4.500 2.020 10.000 L 2.020 15.500 2.112 15.822 C 2.388 16.784,3.168 17.575,4.139 17.877 L 4.460 17.977 6.465 17.991 L 8.469 18.005 8.288 18.732 L 8.108 19.460 7.620 19.962 C 7.107 20.491,7.000 20.670,7.000 21.000 C 7.000 21.358,7.242 21.733,7.582 21.902 C 7.736 21.978,7.859 21.980,11.917 21.991 C 16.648 22.003,16.374 22.020,16.697 21.697 C 16.999 21.394,17.075 20.958,16.892 20.567 C 16.855 20.486,16.614 20.204,16.358 19.940 L 15.892 19.460 15.711 18.732 L 15.531 18.005 17.535 17.991 L 19.540 17.977 19.861 17.877 C 20.832 17.575,21.612 16.784,21.888 15.822 L 21.980 15.500 21.980 10.000 L 21.980 4.500 21.888 4.178 C 21.570 3.069,20.616 2.227,19.467 2.041 C 19.167 1.992,4.797 1.993,4.506 2.042 M19.330 4.057 C 19.551 4.136,19.744 4.298,19.869 4.511 L 19.980 4.700 19.991 8.350 L 20.002 12.000 12.000 12.000 L 3.998 12.000 4.009 8.350 L 4.020 4.700 4.131 4.511 C 4.256 4.298,4.449 4.136,4.670 4.057 C 4.893 3.978,19.107 3.978,19.330 4.057 M19.993 14.650 C 19.980 15.277,19.976 15.307,19.869 15.489 C 19.744 15.702,19.551 15.864,19.330 15.943 C 19.107 16.022,4.893 16.022,4.670 15.943 C 4.449 15.864,4.256 15.702,4.131 15.489 C 4.024 15.307,4.020 15.277,4.007 14.650 L 3.993 14.000 12.000 14.000 L 20.007 14.000 19.993 14.650 M13.715 18.979 C 13.850 19.518,13.960 19.968,13.960 19.979 C 13.960 19.991,13.078 20.000,12.000 20.000 C 10.922 20.000,10.040 19.991,10.040 19.979 C 10.040 19.968,10.150 19.518,10.285 18.979 L 10.530 18.000 12.000 18.000 L 13.470 18.000 13.715 18.979 " stroke="none" fill-rule="evenodd" fill="black"></path></svg>