<svg width="24" height="24" viewBox="0 0 24 24" fill="none" xmlns="http://www.w3.org/2000/svg"><path d="M5.506 3.042 C 4.382 3.231,3.426 4.084,3.112 5.178 L 3.020 5.500 3.020 12.000 L 3.020 18.500 3.112 18.822 C 3.391 19.796,4.204 20.609,5.178 20.888 L 5.500 20.980 12.000 20.980 L 18.500 20.980 18.822 20.888 C 19.796 20.609,20.609 19.796,20.888 18.822 L 20.980 18.500 20.980 12.000 L 20.980 5.500 20.888 5.178 C 20.570 4.069,19.616 3.227,18.467 3.041 C 18.167 2.992,5.797 2.993,5.506 3.042 M18.330 5.057 C 18.551 5.136,18.744 5.298,18.869 5.511 L 18.980 5.700 18.991 8.630 C 18.997 10.242,18.993 11.560,18.981 11.560 C 18.970 11.560,18.875 11.494,18.770 11.414 C 17.963 10.794,16.704 10.663,15.770 11.100 C 15.334 11.304,15.152 11.444,14.549 12.035 L 13.999 12.575 12.949 11.534 C 12.372 10.961,11.814 10.435,11.710 10.364 C 10.676 9.666,9.327 9.666,8.290 10.364 C 8.186 10.434,7.402 11.187,6.549 12.036 L 4.998 13.579 5.009 9.640 L 5.020 5.700 5.131 5.511 C 5.256 5.298,5.449 5.136,5.670 5.057 C 5.892 4.978,18.108 4.978,18.330 5.057 M13.673 7.063 C 13.310 7.175,13.000 7.606,13.000 8.000 C 13.000 8.415,13.310 8.828,13.710 8.944 C 14.209 9.090,14.693 8.878,14.905 8.422 C 15.160 7.874,14.875 7.230,14.303 7.059 C 14.062 6.987,13.917 6.988,13.673 7.063 M10.400 11.923 C 10.537 11.985,11.157 12.580,13.020 14.438 C 15.376 16.788,15.468 16.875,15.677 16.936 C 15.948 17.016,16.052 17.016,16.310 16.939 C 16.589 16.856,16.856 16.589,16.939 16.310 C 17.016 16.052,17.016 15.947,16.936 15.680 C 16.878 15.485,16.805 15.397,16.148 14.731 L 15.424 13.997 15.902 13.514 C 16.447 12.963,16.647 12.841,17.000 12.841 C 17.377 12.841,17.539 12.951,18.311 13.728 L 19.003 14.424 18.991 16.362 L 18.980 18.300 18.869 18.489 C 18.744 18.702,18.551 18.864,18.330 18.943 C 18.108 19.022,5.892 19.022,5.670 18.943 C 5.449 18.864,5.256 18.702,5.131 18.489 L 5.020 18.300 5.007 17.363 L 4.995 16.426 7.187 14.229 C 8.919 12.493,9.422 12.012,9.580 11.936 C 9.834 11.815,10.149 11.810,10.400 11.923 " stroke="none" fill-rule="evenodd" fill="black"></path></svg>