<svg width="24" height="24" viewBox="0 0 24 24" fill="none" xmlns="http://www.w3.org/2000/svg"><path d="M6.340 2.045 C 5.845 2.110,5.315 2.274,4.820 2.517 C 3.590 3.120,2.688 4.140,2.263 5.407 C 2.019 6.135,2.028 5.998,2.011 9.258 C 1.998 11.905,2.004 12.295,2.061 12.578 C 2.139 12.963,2.294 13.347,2.491 13.643 C 2.715 13.979,10.095 21.335,10.415 21.541 C 10.558 21.633,10.851 21.769,11.067 21.843 C 11.437 21.969,11.492 21.977,12.000 21.977 C 12.506 21.977,12.564 21.969,12.922 21.846 C 13.132 21.774,13.426 21.639,13.574 21.545 C 13.781 21.415,14.721 20.499,17.604 17.618 C 19.712 15.511,21.428 13.765,21.509 13.643 C 21.849 13.133,22.025 12.475,21.990 11.841 C 21.963 11.366,21.782 10.789,21.541 10.415 C 21.306 10.050,14.012 2.743,13.640 2.501 C 13.347 2.310,13.094 2.191,12.764 2.092 C 12.563 2.031,12.232 2.023,9.580 2.016 C 7.952 2.012,6.494 2.025,6.340 2.045 M12.343 4.065 C 12.523 4.124,12.850 4.439,16.171 7.755 C 18.772 10.351,19.826 11.429,19.886 11.554 C 20.004 11.796,20.021 12.026,19.942 12.304 L 19.874 12.540 16.267 16.153 C 14.200 18.223,12.583 19.811,12.480 19.873 C 12.328 19.964,12.254 19.980,12.000 19.980 C 11.746 19.980,11.672 19.964,11.520 19.873 C 11.417 19.811,9.803 18.225,7.735 16.153 C 4.362 12.774,4.125 12.527,4.063 12.334 C 4.003 12.149,3.998 11.848,4.010 9.294 C 4.026 6.140,4.009 6.332,4.312 5.704 C 4.727 4.840,5.574 4.198,6.503 4.042 C 6.611 4.024,7.925 4.007,9.423 4.005 C 11.836 4.001,12.168 4.007,12.343 4.065 M6.664 6.060 C 6.433 6.148,6.256 6.299,6.131 6.511 C 6.036 6.672,6.020 6.744,6.020 7.000 C 6.020 7.256,6.036 7.328,6.131 7.489 C 6.335 7.836,6.709 8.029,7.099 7.989 C 8.109 7.884,8.337 6.564,7.427 6.093 C 7.254 6.004,6.856 5.987,6.664 6.060 " fill="#1E1E1E" stroke="none" fill-rule="evenodd"></path></svg>