<svg width="24" height="24" viewBox="0 0 24 24" fill="none" xmlns="http://www.w3.org/2000/svg"><path d="M11.100 2.041 C 9.341 2.219,7.729 2.802,6.335 3.767 C 3.070 6.025,1.454 9.944,2.178 13.846 C 2.468 15.412,3.137 16.886,4.154 18.200 C 4.493 18.637,5.363 19.507,5.800 19.846 C 8.241 21.735,11.253 22.412,14.240 21.741 C 17.932 20.912,20.910 17.933,21.741 14.240 C 21.929 13.402,21.977 12.954,21.977 12.000 C 21.977 11.046,21.929 10.598,21.741 9.760 C 21.274 7.685,20.065 5.706,18.437 4.354 C 16.934 3.106,15.158 2.329,13.240 2.080 C 12.775 2.019,11.539 1.997,11.100 2.041 M12.832 4.042 C 14.361 4.210,15.851 4.828,17.040 5.789 C 17.394 6.075,18.067 6.761,18.326 7.100 C 19.406 8.514,20.000 10.253,20.000 12.000 C 20.000 13.810,19.358 15.619,18.211 17.041 C 17.900 17.426,17.184 18.117,16.800 18.402 C 13.933 20.529,10.067 20.529,7.200 18.402 C 6.816 18.117,6.100 17.426,5.789 17.041 C 3.835 14.619,3.452 11.319,4.800 8.529 C 5.197 7.706,5.611 7.114,6.259 6.446 C 6.951 5.730,7.648 5.225,8.526 4.801 C 9.865 4.154,11.392 3.885,12.832 4.042 M8.673 7.063 C 8.553 7.100,8.421 7.185,8.307 7.299 C 7.902 7.704,7.902 8.295,8.306 8.700 C 8.565 8.958,8.742 9.000,9.579 9.000 C 10.323 9.000,10.564 9.040,10.931 9.225 C 11.131 9.326,11.720 9.874,11.720 9.959 C 11.720 9.986,11.241 10.000,10.307 10.000 C 8.668 10.000,8.595 10.011,8.306 10.300 C 7.902 10.704,7.902 11.296,8.306 11.700 C 8.595 11.989,8.668 12.000,10.307 12.000 C 11.241 12.000,11.720 12.014,11.720 12.041 C 11.720 12.126,11.131 12.674,10.931 12.775 C 10.564 12.960,10.323 13.000,9.579 13.000 C 8.741 13.000,8.565 13.042,8.306 13.301 C 8.000 13.607,7.924 14.032,8.104 14.430 C 8.148 14.526,8.764 15.173,9.816 16.226 C 11.389 17.802,11.469 17.876,11.677 17.936 C 11.948 18.016,12.052 18.016,12.310 17.939 C 12.589 17.856,12.856 17.589,12.939 17.310 C 13.016 17.051,13.016 16.947,12.936 16.679 C 12.877 16.481,12.805 16.395,12.047 15.630 C 11.285 14.860,11.230 14.795,11.321 14.771 C 11.553 14.711,12.205 14.344,12.510 14.102 C 13.060 13.665,13.537 12.983,13.780 12.288 L 13.873 12.020 14.567 11.999 C 15.355 11.974,15.457 11.946,15.717 11.679 C 15.880 11.510,16.000 11.223,16.000 11.000 C 16.000 10.777,15.880 10.490,15.717 10.321 C 15.457 10.054,15.355 10.026,14.567 10.001 L 13.873 9.980 13.783 9.720 C 13.733 9.577,13.644 9.366,13.586 9.251 C 13.528 9.137,13.480 9.033,13.480 9.021 C 13.480 9.010,13.846 9.000,14.293 9.000 C 15.273 9.000,15.427 8.967,15.697 8.697 C 15.880 8.514,16.000 8.237,16.000 8.000 C 16.000 7.598,15.688 7.173,15.310 7.061 C 15.013 6.972,8.961 6.975,8.673 7.063 " stroke="none" fill-rule="evenodd" fill="black"></path></svg>