<svg width="24" height="24" viewBox="0 0 24 24" fill="none" xmlns="http://www.w3.org/2000/svg"><path d="M5.351 4.680 C 5.067 4.765,4.741 5.072,4.164 5.798 C 1.289 9.413,1.291 14.590,4.168 18.207 C 4.920 19.152,5.234 19.388,5.693 19.351 C 5.980 19.328,6.142 19.255,6.332 19.065 C 6.534 18.864,6.615 18.661,6.615 18.360 C 6.614 18.025,6.534 17.869,6.140 17.440 C 5.562 16.810,5.164 16.226,4.800 15.471 C 3.365 12.501,3.890 9.011,6.140 6.560 C 6.534 6.131,6.614 5.975,6.615 5.640 C 6.615 5.330,6.531 5.129,6.310 4.915 C 6.069 4.681,5.670 4.584,5.351 4.680 M18.010 4.704 C 17.607 4.853,17.317 5.335,17.380 5.753 C 17.420 6.023,17.519 6.189,17.860 6.560 C 18.438 7.190,18.836 7.774,19.200 8.529 C 20.635 11.499,20.110 14.989,17.860 17.440 C 17.693 17.622,17.523 17.837,17.482 17.917 C 17.293 18.287,17.356 18.743,17.638 19.033 C 17.879 19.281,18.013 19.338,18.360 19.339 C 18.734 19.340,18.913 19.246,19.279 18.855 C 22.430 15.486,22.886 10.428,20.387 6.563 C 19.911 5.825,19.166 4.957,18.852 4.773 C 18.630 4.643,18.258 4.613,18.010 4.704 M8.060 7.555 C 7.972 7.595,7.789 7.744,7.652 7.884 C 5.465 10.143,5.469 13.854,7.662 16.126 C 7.977 16.453,8.165 16.537,8.534 16.513 C 8.867 16.492,9.128 16.338,9.298 16.063 C 9.398 15.903,9.422 15.815,9.434 15.574 C 9.452 15.213,9.398 15.095,9.006 14.642 C 8.677 14.261,8.478 13.936,8.295 13.484 C 7.910 12.532,7.910 11.468,8.295 10.516 C 8.477 10.065,8.677 9.739,9.005 9.360 C 9.380 8.925,9.440 8.803,9.440 8.466 C 9.440 8.032,9.223 7.706,8.821 7.538 C 8.628 7.457,8.255 7.466,8.060 7.555 M15.170 7.540 C 14.773 7.712,14.560 8.036,14.560 8.466 C 14.560 8.798,14.628 8.943,14.960 9.319 C 15.652 10.102,15.980 10.964,15.980 12.000 C 15.980 13.036,15.652 13.898,14.960 14.681 C 14.626 15.060,14.560 15.202,14.560 15.541 C 14.560 15.789,14.576 15.850,14.690 16.040 C 14.869 16.338,15.120 16.491,15.466 16.513 C 15.835 16.537,16.023 16.453,16.338 16.126 C 17.519 14.903,18.115 13.201,17.964 11.490 C 17.879 10.530,17.618 9.721,17.128 8.900 C 16.785 8.325,16.216 7.682,15.940 7.555 C 15.747 7.467,15.356 7.459,15.170 7.540 M11.530 10.061 C 10.859 10.206,10.251 10.798,10.073 11.477 C 9.707 12.881,10.879 14.186,12.310 13.967 C 12.743 13.901,13.079 13.727,13.403 13.403 C 13.873 12.934,14.067 12.343,13.967 11.690 C 13.900 11.256,13.727 10.920,13.403 10.599 C 13.091 10.291,12.821 10.137,12.451 10.059 C 12.120 9.989,11.859 9.989,11.530 10.061 " stroke="none" fill-rule="evenodd" fill="black"></path></svg>