<svg width="24" height="24" viewBox="0 0 24 24" fill="none" xmlns="http://www.w3.org/2000/svg"><path d="M4.506 5.042 C 3.382 5.231,2.426 6.084,2.112 7.178 L 2.020 7.500 2.020 12.000 L 2.020 16.500 2.112 16.822 C 2.391 17.796,3.204 18.609,4.178 18.888 L 4.500 18.980 9.000 18.980 L 13.500 18.980 13.822 18.888 C 14.787 18.611,15.591 17.816,15.871 16.861 C 15.933 16.651,15.973 16.384,15.989 16.090 C 16.001 15.843,16.018 15.640,16.026 15.640 C 16.034 15.640,16.741 15.990,17.597 16.418 C 18.453 16.847,19.262 17.234,19.396 17.278 C 19.723 17.389,20.256 17.390,20.609 17.281 C 21.093 17.131,21.552 16.732,21.795 16.251 C 21.998 15.849,21.999 15.841,21.999 12.000 C 21.999 8.159,21.998 8.151,21.795 7.749 C 21.556 7.274,21.145 6.912,20.649 6.737 C 20.289 6.610,19.747 6.603,19.396 6.722 C 19.262 6.766,18.453 7.153,17.597 7.582 C 16.741 8.010,16.034 8.360,16.026 8.360 C 16.018 8.360,16.002 8.166,15.991 7.930 C 15.955 7.191,15.742 6.612,15.322 6.112 C 14.823 5.516,14.208 5.161,13.467 5.041 C 13.169 4.992,4.796 4.993,4.506 5.042 M13.330 7.057 C 13.551 7.136,13.744 7.298,13.869 7.511 L 13.980 7.700 13.980 12.000 L 13.980 16.300 13.869 16.489 C 13.744 16.702,13.551 16.864,13.330 16.943 C 13.108 17.022,4.892 17.022,4.670 16.943 C 4.449 16.864,4.256 16.702,4.131 16.489 L 4.020 16.300 4.020 12.000 L 4.020 7.700 4.131 7.511 C 4.256 7.298,4.449 7.136,4.670 7.057 C 4.892 6.978,13.108 6.978,13.330 7.057 M20.000 12.000 C 20.000 13.848,19.991 15.360,19.980 15.360 C 19.969 15.360,19.069 14.915,17.980 14.370 L 16.000 13.380 16.000 12.000 L 16.000 10.620 17.970 9.632 C 19.053 9.089,19.953 8.643,19.970 8.642 C 19.987 8.641,20.000 10.152,20.000 12.000 " stroke="none" fill-rule="evenodd" fill="black"></path></svg>