<svg width="24" height="24" viewBox="0 0 24 24" fill="none" xmlns="http://www.w3.org/2000/svg"><path d="M11.660 2.066 C 11.474 2.122,11.306 2.280,9.295 4.293 C 7.336 6.254,7.124 6.479,7.065 6.657 C 7.029 6.766,7.000 6.920,7.000 7.000 C 7.000 7.405,7.309 7.826,7.690 7.939 C 7.949 8.016,8.053 8.016,8.323 7.936 C 8.528 7.875,8.610 7.801,9.770 6.648 L 11.000 5.424 11.000 13.285 C 11.000 22.118,10.973 21.366,11.306 21.700 C 11.486 21.879,11.764 22.000,12.000 22.000 C 12.402 22.000,12.827 21.688,12.939 21.310 C 12.993 21.130,13.000 20.168,13.000 13.265 L 13.000 5.424 14.230 6.648 C 15.390 7.801,15.472 7.875,15.677 7.936 C 15.947 8.016,16.051 8.016,16.310 7.939 C 16.589 7.856,16.856 7.589,16.939 7.310 C 17.016 7.052,17.016 6.948,16.937 6.677 C 16.876 6.468,16.796 6.383,14.707 4.293 C 12.617 2.204,12.532 2.124,12.323 2.063 C 12.059 1.986,11.922 1.987,11.660 2.066 " stroke="none" fill-rule="evenodd" fill="black"></path></svg>