<svg width="24" height="24" viewBox="0 0 24 24" fill="none" xmlns="http://www.w3.org/2000/svg"><path d="M2.673 2.063 C 2.429 2.138,2.150 2.414,2.064 2.666 C 1.983 2.905,1.983 3.094,2.065 3.343 C 2.125 3.525,2.819 4.230,11.295 12.707 C 20.298 21.712,20.464 21.875,20.677 21.937 C 20.948 22.016,21.052 22.016,21.310 21.939 C 21.589 21.856,21.856 21.589,21.939 21.310 C 22.016 21.051,22.016 20.947,21.936 20.677 C 21.875 20.471,21.799 20.387,20.410 18.992 L 18.948 17.525 19.084 17.414 C 19.159 17.353,19.425 17.105,19.675 16.862 C 20.891 15.680,21.831 14.210,22.380 12.634 C 22.569 12.091,22.567 11.897,22.364 11.333 C 21.815 9.804,21.026 8.534,19.892 7.359 C 17.384 4.757,13.769 3.569,10.163 4.161 C 9.100 4.335,8.029 4.683,7.072 5.164 L 6.749 5.326 5.145 3.727 C 3.614 2.202,3.530 2.125,3.323 2.064 C 3.062 1.987,2.921 1.987,2.673 2.063 M12.980 6.059 C 15.670 6.363,17.977 7.775,19.522 10.063 C 19.769 10.428,20.216 11.290,20.373 11.702 L 20.481 11.984 20.400 12.222 C 20.163 12.912,19.497 14.052,18.940 14.720 C 18.643 15.076,17.613 16.080,17.545 16.080 C 17.521 16.080,17.038 15.618,16.473 15.053 L 15.446 14.026 15.577 13.763 C 15.769 13.379,15.876 13.039,15.942 12.605 C 16.014 12.121,16.014 11.879,15.942 11.395 C 15.625 9.298,13.668 7.792,11.575 8.035 C 11.095 8.091,10.625 8.227,10.237 8.422 L 9.974 8.554 9.102 7.682 L 8.230 6.810 8.645 6.650 C 9.578 6.289,10.068 6.171,11.220 6.027 C 11.528 5.988,12.511 6.007,12.980 6.059 M3.820 7.998 C 3.438 8.100,3.326 8.203,2.891 8.851 C 2.334 9.679,1.927 10.485,1.620 11.366 C 1.431 11.909,1.433 12.103,1.635 12.667 C 2.178 14.180,2.984 15.476,4.106 16.640 C 5.800 18.397,7.971 19.509,10.440 19.885 C 11.274 20.012,12.728 20.012,13.555 19.885 C 14.202 19.786,14.362 19.732,14.554 19.548 C 14.759 19.351,14.853 19.137,14.855 18.860 C 14.858 18.416,14.674 18.108,14.300 17.934 C 14.063 17.824,13.848 17.816,13.340 17.902 C 12.818 17.990,11.791 18.019,11.200 17.963 C 8.428 17.700,5.979 16.221,4.444 13.883 C 4.177 13.476,3.727 12.593,3.603 12.230 C 3.525 12.001,3.525 11.999,3.603 11.770 C 3.747 11.349,4.199 10.489,4.547 9.971 C 4.954 9.366,5.000 9.268,5.000 8.996 C 5.000 8.712,4.931 8.508,4.773 8.323 C 4.551 8.063,4.121 7.916,3.820 7.998 M12.492 10.060 C 12.854 10.154,13.118 10.310,13.410 10.602 C 13.713 10.905,13.892 11.233,13.964 11.621 C 14.009 11.861,13.996 12.418,13.944 12.469 C 13.917 12.496,11.520 10.127,11.520 10.073 C 11.520 9.991,12.193 9.982,12.492 10.060 " stroke="none" fill-rule="evenodd" fill="black"></path></svg>