<svg width="24" height="24" viewBox="0 0 24 24" fill="none" xmlns="http://www.w3.org/2000/svg"><path d="M11.120 2.039 C 9.316 2.220,7.707 2.807,6.280 3.806 C 2.738 6.286,1.178 10.759,2.422 14.865 C 2.918 16.499,3.728 17.850,4.939 19.061 C 5.928 20.050,7.038 20.788,8.272 21.278 C 11.634 22.610,15.313 22.080,18.200 19.845 C 18.637 19.507,19.507 18.637,19.845 18.200 C 21.255 16.379,22.000 14.234,22.000 12.000 C 22.000 7.432,18.842 3.387,14.430 2.303 C 13.446 2.062,12.028 1.948,11.120 2.039 M12.740 4.041 C 13.711 4.132,14.621 4.388,15.500 4.818 C 15.934 5.030,16.714 5.504,16.859 5.644 C 16.884 5.668,16.506 6.074,15.822 6.758 L 14.745 7.835 14.634 7.756 C 14.408 7.595,13.689 7.281,13.320 7.181 C 12.748 7.027,12.103 6.973,11.530 7.031 C 10.860 7.099,10.390 7.236,9.765 7.545 L 9.231 7.810 8.175 6.755 C 7.595 6.175,7.120 5.689,7.120 5.674 C 7.120 5.611,8.022 5.051,8.501 4.817 C 9.821 4.170,11.277 3.904,12.740 4.041 M6.758 8.178 L 7.816 9.236 7.706 9.428 C 7.424 9.920,7.182 10.561,7.075 11.100 C 7.002 11.468,7.002 12.532,7.075 12.900 C 7.182 13.439,7.424 14.080,7.706 14.572 L 7.816 14.764 6.758 15.822 C 6.176 16.404,5.689 16.880,5.674 16.880 C 5.611 16.880,5.051 15.977,4.818 15.500 C 3.570 12.947,3.777 9.916,5.360 7.550 C 5.518 7.314,5.659 7.120,5.674 7.120 C 5.689 7.120,6.176 7.596,6.758 8.178 M18.640 7.550 C 20.223 9.915,20.429 12.947,19.182 15.500 C 18.970 15.934,18.496 16.714,18.356 16.859 C 18.332 16.884,17.933 16.512,17.259 15.839 C 16.677 15.257,16.200 14.768,16.200 14.752 C 16.200 14.737,16.261 14.620,16.336 14.492 C 16.541 14.143,16.748 13.613,16.869 13.131 C 16.966 12.744,16.977 12.628,16.977 12.000 C 16.977 11.372,16.966 11.256,16.869 10.869 C 16.748 10.387,16.541 9.857,16.336 9.508 C 16.261 9.380,16.200 9.263,16.200 9.248 C 16.200 9.213,18.291 7.120,18.326 7.120 C 18.341 7.120,18.482 7.314,18.640 7.550 M12.756 9.097 C 13.093 9.189,13.595 9.447,13.873 9.671 C 14.554 10.219,15.000 11.140,15.000 12.000 C 15.000 12.781,14.641 13.603,14.052 14.173 C 12.969 15.220,11.223 15.275,10.080 14.297 C 9.624 13.907,9.214 13.247,9.075 12.680 C 9.006 12.398,9.005 11.605,9.074 11.320 C 9.153 10.994,9.488 10.330,9.695 10.088 C 10.164 9.543,10.818 9.164,11.503 9.040 C 11.770 8.991,12.491 9.024,12.756 9.097 M9.508 16.336 C 10.697 17.033,12.252 17.189,13.574 16.743 C 13.892 16.636,14.281 16.461,14.572 16.294 L 14.764 16.184 15.822 17.242 C 16.404 17.824,16.880 18.312,16.880 18.328 C 16.880 18.392,15.945 18.972,15.480 19.197 C 13.265 20.266,10.735 20.266,8.520 19.197 C 8.057 18.973,7.120 18.392,7.120 18.328 C 7.120 18.292,9.211 16.200,9.248 16.200 C 9.263 16.200,9.380 16.261,9.508 16.336 " fill="#1E1E1E" stroke="none" fill-rule="evenodd"></path></svg>