<svg width="24" height="24" viewBox="0 0 24 24" fill="none" xmlns="http://www.w3.org/2000/svg"><path d="M4.506 4.042 C 3.392 4.229,2.437 5.074,2.115 6.157 C 2.029 6.448,2.025 6.532,2.010 8.292 C 1.993 10.366,1.995 10.381,2.286 10.681 C 2.485 10.886,2.637 10.951,3.031 11.001 C 3.410 11.049,3.647 11.184,3.828 11.452 C 4.052 11.786,4.052 12.214,3.828 12.548 C 3.647 12.816,3.410 12.951,3.031 12.999 C 2.637 13.049,2.485 13.114,2.286 13.319 C 1.995 13.619,1.993 13.634,2.009 15.708 C 2.023 17.528,2.024 17.542,2.123 17.861 C 2.425 18.832,3.216 19.612,4.178 19.888 L 4.500 19.980 12.000 19.980 L 19.500 19.980 19.822 19.888 C 20.784 19.612,21.575 18.831,21.877 17.861 C 21.976 17.542,21.977 17.527,21.991 15.729 C 22.007 13.659,22.002 13.616,21.717 13.322 C 21.515 13.114,21.364 13.049,20.969 12.999 C 20.590 12.951,20.353 12.816,20.172 12.548 C 19.948 12.214,19.948 11.786,20.172 11.452 C 20.353 11.184,20.590 11.049,20.969 11.001 C 21.364 10.951,21.515 10.886,21.717 10.678 C 22.003 10.384,22.007 10.342,21.990 8.271 C 21.975 6.533,21.971 6.448,21.885 6.157 C 21.558 5.059,20.606 4.226,19.467 4.041 C 19.167 3.992,4.797 3.993,4.506 4.042 M14.000 6.573 C 14.000 7.265,14.048 7.442,14.306 7.700 C 14.486 7.879,14.764 8.000,15.000 8.000 C 15.237 8.000,15.514 7.880,15.697 7.697 C 15.948 7.446,16.000 7.249,16.000 6.553 L 16.000 6.000 17.590 6.002 C 19.300 6.004,19.346 6.009,19.619 6.217 C 19.696 6.275,19.808 6.408,19.869 6.511 L 19.980 6.700 19.992 7.926 L 20.004 9.152 19.787 9.251 C 18.986 9.619,18.349 10.352,18.113 11.180 C 17.981 11.643,17.987 12.405,18.125 12.861 C 18.362 13.641,18.928 14.310,19.672 14.688 L 20.004 14.857 19.992 16.078 L 19.980 17.300 19.869 17.489 C 19.808 17.592,19.696 17.725,19.619 17.783 C 19.346 17.991,19.300 17.996,17.590 17.998 L 16.000 18.000 16.000 17.447 C 16.000 16.751,15.948 16.554,15.697 16.303 C 15.514 16.120,15.237 16.000,15.000 16.000 C 14.764 16.000,14.486 16.121,14.306 16.300 C 14.048 16.558,14.000 16.735,14.000 17.427 L 14.000 18.000 9.410 17.998 C 5.680 17.997,4.792 17.986,4.670 17.943 C 4.449 17.864,4.256 17.702,4.131 17.489 L 4.020 17.300 4.008 16.078 L 3.996 14.857 4.328 14.688 C 5.072 14.310,5.638 13.641,5.875 12.861 C 6.013 12.405,6.019 11.643,5.887 11.180 C 5.651 10.352,5.014 9.619,4.213 9.251 L 3.996 9.152 4.008 7.926 L 4.020 6.700 4.131 6.511 C 4.256 6.298,4.449 6.136,4.670 6.057 C 4.792 6.014,5.680 6.003,9.410 6.002 L 14.000 6.000 14.000 6.573 M14.673 10.063 C 14.429 10.138,14.150 10.414,14.064 10.666 C 13.970 10.943,13.970 13.057,14.064 13.334 C 14.188 13.697,14.613 14.000,15.000 14.000 C 15.237 14.000,15.514 13.880,15.697 13.697 C 15.980 13.414,16.000 13.303,16.000 12.000 C 16.000 10.697,15.980 10.586,15.697 10.303 C 15.418 10.024,15.067 9.942,14.673 10.063 " stroke="none" fill-rule="evenodd" fill="black"></path></svg>