<svg width="24" height="24" viewBox="0 0 24 24" fill="none" xmlns="http://www.w3.org/2000/svg"><path d="M11.673 3.063 C 11.412 3.143,11.140 3.421,11.061 3.690 C 11.008 3.866,11.000 4.383,11.000 7.447 L 11.000 11.000 7.447 11.000 C 3.428 11.000,3.620 10.986,3.306 11.300 C 2.902 11.704,2.902 12.296,3.306 12.700 C 3.620 13.014,3.428 13.000,7.447 13.000 L 11.000 13.000 11.000 16.573 C 11.000 20.604,10.983 20.377,11.306 20.700 C 11.486 20.879,11.764 21.000,12.000 21.000 C 12.237 21.000,12.514 20.880,12.697 20.697 C 13.014 20.379,13.000 20.577,13.000 16.553 L 13.000 13.000 16.553 13.000 C 20.577 13.000,20.379 13.014,20.697 12.697 C 20.880 12.514,21.000 12.237,21.000 12.000 C 21.000 11.763,20.880 11.486,20.697 11.303 C 20.379 10.986,20.577 11.000,16.553 11.000 L 13.000 11.000 13.000 7.447 C 13.000 3.423,13.014 3.621,12.697 3.303 C 12.418 3.024,12.067 2.942,11.673 3.063 " stroke="none" fill-rule="evenodd" fill="black"></path></svg>