<svg width="24" height="24" viewBox="0 0 24 24" fill="none" xmlns="http://www.w3.org/2000/svg"><path d="M11.660 3.066 C 11.472 3.122,11.235 3.351,7.795 6.793 C 4.439 10.150,4.124 10.477,4.065 10.657 C 4.029 10.766,4.000 10.920,4.000 11.000 C 4.000 11.405,4.309 11.826,4.690 11.939 C 4.948 12.016,5.052 12.016,5.323 11.937 C 5.534 11.875,5.634 11.780,8.770 8.647 L 12.000 5.422 15.230 8.647 C 18.366 11.780,18.466 11.875,18.677 11.937 C 18.948 12.016,19.052 12.016,19.310 11.939 C 19.589 11.856,19.856 11.589,19.939 11.310 C 20.016 11.052,20.016 10.948,19.937 10.677 C 19.875 10.466,19.778 10.365,16.207 6.793 C 12.635 3.222,12.534 3.125,12.323 3.063 C 12.059 2.987,11.922 2.987,11.660 3.066 M11.660 11.066 C 11.472 11.122,11.235 11.351,7.795 14.793 C 4.439 18.150,4.124 18.477,4.065 18.657 C 4.029 18.766,4.000 18.920,4.000 19.000 C 4.000 19.405,4.309 19.826,4.690 19.939 C 4.948 20.016,5.052 20.016,5.323 19.937 C 5.534 19.875,5.634 19.780,8.770 16.647 L 12.000 13.422 15.230 16.647 C 18.366 19.780,18.466 19.875,18.677 19.937 C 18.948 20.016,19.052 20.016,19.310 19.939 C 19.589 19.856,19.856 19.589,19.939 19.310 C 20.016 19.052,20.016 18.948,19.937 18.677 C 19.875 18.466,19.778 18.365,16.207 14.793 C 12.635 11.222,12.534 11.125,12.323 11.063 C 12.059 10.987,11.922 10.987,11.660 11.066 " stroke="none" fill-rule="evenodd" fill="black"></path></svg>