<svg width="24" height="24" viewBox="0 0 24 24" fill="none" xmlns="http://www.w3.org/2000/svg"><path d="M4.506 3.042 C 3.382 3.231,2.426 4.084,2.112 5.178 L 2.020 5.500 2.020 10.000 L 2.020 14.500 2.112 14.822 C 2.388 15.784,3.169 16.576,4.139 16.877 C 4.457 16.976,4.477 16.977,6.229 16.991 L 7.997 17.005 8.009 19.133 C 8.019 21.153,8.024 21.268,8.098 21.418 C 8.218 21.658,8.459 21.871,8.692 21.940 C 8.948 22.016,9.053 22.015,9.323 21.936 C 9.532 21.875,9.624 21.789,11.980 19.438 L 14.420 17.003 16.980 16.991 L 19.540 16.978 19.861 16.878 C 20.834 16.573,21.612 15.783,21.888 14.822 L 21.980 14.500 21.980 10.000 L 21.980 5.500 21.888 5.178 C 21.570 4.069,20.616 3.227,19.467 3.041 C 19.167 2.992,4.797 2.993,4.506 3.042 M19.330 5.057 C 19.551 5.136,19.744 5.298,19.869 5.511 L 19.980 5.700 19.991 9.913 C 19.998 12.672,19.987 14.178,19.961 14.277 C 19.901 14.498,19.710 14.739,19.492 14.867 L 19.300 14.980 16.520 15.000 C 13.888 15.019,13.731 15.024,13.580 15.097 C 13.477 15.146,12.814 15.776,11.710 16.875 L 10.000 18.578 10.000 17.236 C 10.000 15.696,9.986 15.598,9.717 15.321 C 9.413 15.008,9.536 15.022,6.980 15.000 L 4.700 14.980 4.508 14.867 C 4.290 14.739,4.099 14.498,4.039 14.277 C 4.013 14.178,4.002 12.672,4.009 9.913 L 4.020 5.700 4.131 5.511 C 4.256 5.298,4.449 5.136,4.670 5.057 C 4.893 4.978,19.107 4.978,19.330 5.057 M7.673 9.063 C 7.310 9.175,7.000 9.606,7.000 10.000 C 7.000 10.575,7.547 11.055,8.124 10.987 C 9.178 10.862,9.318 9.362,8.303 9.059 C 8.062 8.987,7.917 8.988,7.673 9.063 M11.673 9.063 C 11.304 9.177,11.000 9.609,11.000 10.020 C 11.000 10.415,11.319 10.831,11.710 10.944 C 12.374 11.138,12.997 10.681,12.999 10.000 C 13.000 9.565,12.716 9.182,12.303 9.059 C 12.062 8.987,11.917 8.988,11.673 9.063 M15.673 9.063 C 15.310 9.175,15.000 9.606,15.000 10.000 C 15.000 10.575,15.547 11.055,16.124 10.987 C 17.178 10.862,17.318 9.362,16.303 9.059 C 16.062 8.987,15.917 8.988,15.673 9.063 " stroke="none" fill-rule="evenodd" fill="black"></path></svg>