<svg width="24" height="24" viewBox="0 0 24 24" fill="none" xmlns="http://www.w3.org/2000/svg"><path d="M6.660 7.066 C 6.474 7.122,6.306 7.280,4.295 9.293 C 2.336 11.254,2.124 11.479,2.065 11.657 C 1.983 11.906,1.983 12.094,2.065 12.343 C 2.124 12.521,2.336 12.746,4.295 14.707 C 6.384 16.797,6.468 16.876,6.677 16.937 C 6.948 17.016,7.052 17.016,7.310 16.939 C 7.589 16.856,7.856 16.589,7.939 16.310 C 8.016 16.051,8.016 15.947,7.936 15.677 C 7.875 15.472,7.801 15.390,6.648 14.230 L 5.424 13.000 13.265 13.000 C 20.168 13.000,21.130 12.993,21.310 12.939 C 21.688 12.827,22.000 12.402,22.000 12.000 C 22.000 11.598,21.688 11.173,21.310 11.061 C 21.130 11.007,20.168 11.000,13.265 11.000 L 5.424 11.000 6.648 9.770 C 7.801 8.610,7.875 8.528,7.936 8.323 C 8.016 8.053,8.016 7.949,7.939 7.690 C 7.825 7.304,7.392 6.993,6.983 7.003 C 6.915 7.004,6.770 7.033,6.660 7.066 " stroke="none" fill-rule="evenodd" fill="black"></path></svg>