<svg width="24" height="24" viewBox="0 0 24 24" fill="none" xmlns="http://www.w3.org/2000/svg"><path d="M11.673 2.063 C 11.412 2.143,11.140 2.421,11.061 2.690 C 11.007 2.870,11.000 3.832,11.000 10.736 L 11.000 18.578 8.270 15.853 C 5.628 13.215,5.533 13.125,5.323 13.064 C 5.052 12.984,4.948 12.984,4.690 13.061 C 4.309 13.174,4.000 13.595,4.000 14.000 C 4.000 14.080,4.029 14.234,4.065 14.343 C 4.124 14.523,4.439 14.850,7.795 18.207 C 11.365 21.779,11.466 21.875,11.677 21.937 C 11.949 22.016,12.051 22.016,12.323 21.937 C 12.534 21.875,12.635 21.778,16.207 18.207 C 19.778 14.635,19.875 14.534,19.937 14.323 C 20.016 14.052,20.016 13.948,19.939 13.690 C 19.856 13.411,19.589 13.144,19.310 13.061 C 19.052 12.984,18.948 12.984,18.677 13.064 C 18.467 13.125,18.372 13.215,15.730 15.853 L 13.000 18.578 13.000 10.736 C 13.000 1.922,13.025 2.632,12.697 2.303 C 12.418 2.024,12.067 1.942,11.673 2.063 " stroke="none" fill-rule="evenodd" fill="black"></path></svg>