<svg width="24" height="24" viewBox="0 0 24 24" fill="none" xmlns="http://www.w3.org/2000/svg"><path d="M11.580 2.023 C 11.015 2.102,10.810 2.144,10.480 2.248 C 8.867 2.756,7.586 4.112,7.161 5.760 C 6.920 6.693,6.983 7.875,7.320 8.752 C 7.829 10.077,8.887 11.144,10.207 11.663 C 11.298 12.093,12.702 12.093,13.793 11.663 C 15.135 11.135,16.223 10.022,16.699 8.688 C 17.096 7.576,17.082 6.272,16.663 5.207 C 16.033 3.604,14.610 2.415,12.945 2.099 C 12.620 2.038,11.802 1.992,11.580 2.023 M12.860 4.121 C 13.825 4.421,14.582 5.182,14.886 6.160 C 15.021 6.594,15.021 7.406,14.886 7.840 C 14.579 8.826,13.825 9.580,12.840 9.886 C 12.404 10.021,11.592 10.021,11.160 9.886 C 10.173 9.578,9.421 8.826,9.114 7.840 C 8.979 7.406,8.979 6.594,9.114 6.160 C 9.455 5.066,10.373 4.239,11.471 4.039 C 11.797 3.979,12.546 4.023,12.860 4.121 M11.420 13.023 C 11.354 13.032,11.129 13.060,10.920 13.084 C 10.711 13.108,10.306 13.187,10.020 13.259 C 6.753 14.084,4.362 16.886,4.041 20.266 C 3.958 21.146,4.005 21.398,4.306 21.700 C 4.630 22.024,4.016 22.000,12.000 22.000 C 19.991 22.000,19.369 22.024,19.697 21.697 C 19.993 21.400,20.041 21.139,19.959 20.260 C 19.616 16.611,16.838 13.659,13.218 13.099 C 12.829 13.039,11.659 12.989,11.420 13.023 M13.180 15.121 C 14.366 15.370,15.435 15.953,16.270 16.804 C 17.116 17.667,17.601 18.587,17.897 19.890 L 17.922 20.000 12.000 20.000 L 6.078 20.000 6.103 19.890 C 6.332 18.882,6.656 18.146,7.180 17.443 C 8.173 16.113,9.612 15.270,11.280 15.040 C 11.704 14.982,12.724 15.025,13.180 15.121 " stroke="none" fill-rule="evenodd" fill="black"></path></svg>