<svg width="24" height="24" viewBox="0 0 24 24" fill="none" xmlns="http://www.w3.org/2000/svg"><path d="M6.506 2.041 C 5.377 2.235,4.426 3.084,4.112 4.178 L 4.020 4.500 4.020 12.000 L 4.020 19.500 4.112 19.822 C 4.391 20.796,5.204 21.609,6.178 21.888 L 6.500 21.980 12.000 21.980 L 17.500 21.980 17.822 21.888 C 18.783 21.613,19.570 20.836,19.879 19.861 L 19.980 19.540 19.992 14.420 C 20.000 10.847,19.990 9.223,19.960 9.045 C 19.936 8.905,19.859 8.671,19.790 8.525 C 19.675 8.281,19.443 8.037,16.802 5.387 C 15.228 3.806,13.841 2.445,13.720 2.363 C 13.599 2.280,13.392 2.169,13.260 2.116 L 13.020 2.020 9.860 2.014 C 8.122 2.011,6.613 2.023,6.506 2.041 M15.290 6.710 L 18.000 9.420 17.998 14.300 C 17.997 18.272,17.987 19.208,17.943 19.330 C 17.864 19.551,17.702 19.744,17.489 19.869 L 17.300 19.980 12.000 19.980 L 6.700 19.980 6.508 19.867 C 6.291 19.739,6.099 19.498,6.039 19.278 C 6.013 19.179,6.003 16.668,6.010 11.914 L 6.020 4.700 6.131 4.511 C 6.256 4.298,6.449 4.136,6.670 4.057 C 6.790 4.014,7.399 4.003,9.700 4.002 L 12.580 4.000 15.290 6.710 M8.673 12.063 C 8.310 12.175,8.000 12.606,8.000 13.000 C 8.000 13.405,8.309 13.826,8.690 13.939 C 8.997 14.030,15.003 14.030,15.310 13.939 C 15.688 13.827,16.000 13.402,16.000 13.000 C 16.000 12.598,15.688 12.173,15.310 12.061 C 15.013 11.972,8.961 11.975,8.673 12.063 " stroke="none" fill-rule="evenodd" fill="black"></path></svg>