<svg width="24" height="24" viewBox="0 0 24 24" fill="none" xmlns="http://www.w3.org/2000/svg"><path d="M11.673 2.063 C 11.412 2.143,11.140 2.421,11.061 2.690 C 11.007 2.870,11.000 3.832,11.000 10.735 L 11.000 18.576 9.770 17.352 C 8.610 16.199,8.528 16.125,8.323 16.064 C 8.053 15.984,7.949 15.984,7.690 16.061 C 7.309 16.174,7.000 16.595,7.000 17.000 C 7.000 17.080,7.029 17.234,7.065 17.343 C 7.124 17.521,7.336 17.746,9.295 19.707 C 11.384 21.797,11.468 21.876,11.677 21.937 C 11.949 22.016,12.051 22.016,12.323 21.937 C 12.532 21.876,12.617 21.796,14.707 19.707 C 16.796 17.617,16.876 17.532,16.937 17.323 C 17.016 17.052,17.016 16.948,16.939 16.690 C 16.856 16.411,16.589 16.144,16.310 16.061 C 16.051 15.984,15.947 15.984,15.677 16.064 C 15.472 16.125,15.390 16.199,14.230 17.352 L 13.000 18.576 13.000 10.735 C 13.000 1.923,13.025 2.632,12.697 2.303 C 12.418 2.024,12.067 1.942,11.673 2.063 " stroke="none" fill-rule="evenodd" fill="black"></path></svg>