<svg width="24" height="24" viewBox="0 0 24 24" fill="none" xmlns="http://www.w3.org/2000/svg"><path d="M6.506 2.042 C 5.382 2.231,4.426 3.084,4.112 4.178 L 4.020 4.500 4.020 12.000 L 4.020 19.500 4.112 19.822 C 4.391 20.796,5.204 21.609,6.178 21.888 L 6.500 21.980 12.000 21.980 L 17.500 21.980 17.822 21.888 C 18.796 21.609,19.609 20.796,19.888 19.822 L 19.980 19.500 19.980 12.000 L 19.980 4.500 19.888 4.178 C 19.570 3.069,18.616 2.227,17.467 2.041 C 17.168 1.992,6.796 1.993,6.506 2.042 M17.489 4.131 C 17.702 4.256,17.864 4.449,17.943 4.670 C 18.022 4.893,18.022 19.107,17.943 19.330 C 17.864 19.551,17.702 19.744,17.489 19.869 L 17.300 19.980 12.000 19.980 L 6.700 19.980 6.508 19.867 C 6.291 19.739,6.099 19.498,6.039 19.278 C 6.013 19.179,6.003 16.668,6.010 11.914 L 6.020 4.700 6.131 4.511 C 6.256 4.298,6.448 4.136,6.670 4.057 C 6.793 4.012,7.752 4.004,12.060 4.011 L 17.300 4.020 17.489 4.131 M11.673 17.063 C 11.304 17.177,11.000 17.609,11.000 18.020 C 11.000 18.415,11.319 18.831,11.710 18.944 C 12.209 19.090,12.693 18.878,12.905 18.422 C 13.160 17.874,12.875 17.230,12.303 17.059 C 12.062 16.987,11.917 16.988,11.673 17.063 " stroke="none" fill-rule="evenodd" fill="black"></path></svg>