<svg width="24" height="24" viewBox="0 0 24 24" fill="none" xmlns="http://www.w3.org/2000/svg"><path d="M11.100 2.041 C 9.341 2.219,7.729 2.802,6.335 3.767 C 3.070 6.025,1.454 9.944,2.178 13.846 C 2.468 15.412,3.137 16.886,4.154 18.200 C 4.493 18.637,5.363 19.507,5.800 19.846 C 8.241 21.735,11.253 22.412,14.240 21.741 C 17.932 20.912,20.910 17.933,21.741 14.240 C 21.929 13.402,21.977 12.954,21.977 12.000 C 21.977 11.046,21.929 10.598,21.741 9.760 C 21.274 7.685,20.065 5.706,18.437 4.354 C 16.934 3.106,15.158 2.329,13.240 2.080 C 12.775 2.019,11.539 1.997,11.100 2.041 M12.832 4.042 C 14.361 4.210,15.851 4.828,17.040 5.789 C 17.394 6.075,18.067 6.761,18.326 7.100 C 19.406 8.514,20.000 10.253,20.000 12.000 C 20.000 13.810,19.358 15.619,18.211 17.041 C 17.900 17.426,17.184 18.117,16.800 18.402 C 13.933 20.529,10.067 20.529,7.200 18.402 C 6.816 18.117,6.100 17.426,5.789 17.041 C 3.835 14.619,3.452 11.319,4.800 8.529 C 5.197 7.706,5.611 7.114,6.259 6.446 C 6.951 5.730,7.648 5.225,8.526 4.801 C 9.865 4.154,11.392 3.885,12.832 4.042 M9.673 8.063 C 9.429 8.138,9.150 8.414,9.064 8.666 C 9.007 8.832,9.000 9.220,9.000 12.000 C 9.000 15.553,8.986 15.379,9.306 15.700 C 9.486 15.879,9.764 16.000,10.000 16.000 C 10.237 16.000,10.514 15.880,10.697 15.697 C 11.012 15.382,11.000 15.525,11.000 12.000 C 11.000 8.475,11.012 8.618,10.697 8.303 C 10.418 8.024,10.067 7.942,9.673 8.063 M13.673 8.063 C 13.429 8.138,13.150 8.414,13.064 8.666 C 13.007 8.832,13.000 9.220,13.000 12.000 C 13.000 15.553,12.986 15.379,13.306 15.700 C 13.486 15.879,13.764 16.000,14.000 16.000 C 14.237 16.000,14.514 15.880,14.697 15.697 C 15.012 15.382,15.000 15.525,15.000 12.000 C 15.000 8.475,15.012 8.618,14.697 8.303 C 14.418 8.024,14.067 7.942,13.673 8.063 " stroke="none" fill-rule="evenodd" fill="black"></path></svg>