<svg width="24" height="24" viewBox="0 0 24 24" fill="none" xmlns="http://www.w3.org/2000/svg"><path d="M11.580 2.023 C 11.015 2.102,10.810 2.144,10.480 2.248 C 8.867 2.756,7.581 4.117,7.162 5.760 C 7.054 6.180,7.000 6.738,7.000 7.418 L 7.000 8.000 5.947 8.000 C 4.711 8.000,4.588 8.022,4.305 8.297 C 4.172 8.426,4.108 8.529,4.064 8.686 C 4.027 8.819,3.812 11.215,3.498 15.000 C 3.003 20.967,2.993 21.104,3.057 21.308 C 3.147 21.591,3.413 21.857,3.690 21.939 C 3.870 21.993,4.860 22.000,12.000 22.000 C 21.127 22.000,20.381 22.026,20.704 21.694 C 20.827 21.567,20.899 21.447,20.943 21.295 C 21.005 21.083,20.992 20.897,20.501 14.988 C 20.187 11.211,19.973 8.819,19.936 8.686 C 19.892 8.529,19.828 8.426,19.695 8.297 C 19.412 8.022,19.289 8.000,18.053 8.000 L 17.000 8.000 17.000 7.418 C 17.000 6.192,16.844 5.475,16.398 4.647 C 15.683 3.320,14.404 2.376,12.945 2.099 C 12.620 2.038,11.802 1.992,11.580 2.023 M12.860 4.121 C 13.816 4.418,14.572 5.173,14.882 6.140 C 14.958 6.379,14.974 6.536,14.990 7.210 L 15.009 8.000 12.000 8.000 L 8.991 8.000 9.010 7.210 C 9.026 6.536,9.042 6.379,9.118 6.140 C 9.465 5.057,10.382 4.238,11.471 4.039 C 11.797 3.979,12.546 4.023,12.860 4.121 M7.000 10.573 C 7.000 11.265,7.048 11.442,7.306 11.700 C 7.486 11.879,7.764 12.000,8.000 12.000 C 8.237 12.000,8.514 11.880,8.697 11.697 C 8.948 11.446,9.000 11.249,9.000 10.553 L 9.000 10.000 12.000 10.000 L 15.000 10.000 15.000 10.573 C 15.000 11.265,15.048 11.442,15.306 11.700 C 15.486 11.879,15.764 12.000,16.000 12.000 C 16.237 12.000,16.514 11.880,16.697 11.697 C 16.948 11.446,17.000 11.249,17.000 10.553 L 17.000 10.000 17.537 10.000 L 18.074 10.000 18.098 10.210 C 18.111 10.325,18.292 12.481,18.500 15.000 C 18.708 17.519,18.889 19.675,18.902 19.790 L 18.926 20.000 12.000 20.000 L 5.074 20.000 5.098 19.790 C 5.111 19.675,5.292 17.519,5.500 15.000 C 5.708 12.481,5.889 10.325,5.902 10.210 L 5.926 10.000 6.463 10.000 L 7.000 10.000 7.000 10.573 " stroke="none" fill-rule="evenodd" fill="black"></path></svg>