<svg width="24" height="24" viewBox="0 0 24 24" fill="none" xmlns="http://www.w3.org/2000/svg"><path d="M12.506 1.039 C 11.361 1.248,10.418 2.091,10.115 3.178 C 10.041 3.444,10.022 3.631,10.008 4.250 L 9.991 5.000 8.406 5.001 C 6.668 5.001,6.451 5.023,6.071 5.228 C 5.787 5.382,5.448 5.706,5.281 5.983 C 5.020 6.417,5.005 6.545,5.002 8.370 L 5.000 10.000 4.390 10.000 C 3.480 10.001,3.005 10.101,2.519 10.394 C 1.818 10.818,1.319 11.452,1.114 12.178 C 0.982 12.645,0.987 13.406,1.125 13.861 C 1.415 14.814,2.188 15.587,3.139 15.874 C 3.416 15.957,3.567 15.973,4.230 15.990 L 5.000 16.009 5.002 17.635 C 5.004 19.037,5.014 19.296,5.073 19.523 C 5.253 20.212,5.860 20.795,6.549 20.941 C 6.941 21.024,10.059 21.024,10.451 20.941 C 10.942 20.837,11.395 20.516,11.688 20.063 C 11.935 19.680,11.967 19.526,11.995 18.557 L 12.020 17.694 12.141 17.497 C 12.543 16.844,13.457 16.844,13.859 17.497 L 13.980 17.694 14.004 18.557 C 14.022 19.189,14.046 19.474,14.094 19.623 C 14.235 20.062,14.638 20.536,15.072 20.772 C 15.453 20.979,15.660 20.999,17.500 20.999 C 19.338 20.999,19.543 20.980,19.931 20.772 C 20.199 20.629,20.629 20.199,20.772 19.931 C 20.980 19.543,20.999 19.338,20.999 17.500 C 20.999 15.660,20.979 15.453,20.772 15.072 C 20.535 14.637,20.061 14.233,19.623 14.095 C 19.476 14.048,19.181 14.023,18.557 14.005 L 17.694 13.980 17.497 13.859 C 16.844 13.457,16.844 12.543,17.497 12.141 L 17.694 12.020 18.557 11.995 C 19.181 11.977,19.476 11.952,19.623 11.905 C 20.061 11.767,20.535 11.363,20.772 10.928 C 20.979 10.547,20.999 10.340,20.999 8.500 C 20.999 6.662,20.980 6.457,20.772 6.069 C 20.629 5.801,20.199 5.371,19.931 5.228 C 19.546 5.022,19.330 5.001,17.595 5.001 L 16.009 5.000 15.989 4.230 C 15.973 3.599,15.954 3.406,15.882 3.160 C 15.602 2.197,14.793 1.390,13.834 1.119 C 13.502 1.026,12.811 0.984,12.506 1.039 M13.497 3.136 C 13.702 3.256,13.865 3.451,13.943 3.670 C 13.979 3.772,13.998 4.049,14.001 4.540 C 14.005 5.368,14.058 5.647,14.281 6.017 C 14.448 6.294,14.787 6.618,15.071 6.772 C 15.451 6.977,15.668 6.999,17.410 6.999 L 19.000 7.000 19.000 8.500 L 19.000 10.000 18.390 10.000 C 17.480 10.001,17.005 10.101,16.519 10.394 C 15.818 10.818,15.319 11.452,15.114 12.178 C 14.982 12.645,14.987 13.406,15.125 13.861 C 15.415 14.814,16.188 15.587,17.139 15.874 C 17.416 15.957,17.567 15.973,18.230 15.990 L 19.000 16.009 19.000 17.505 L 19.000 19.000 17.504 19.000 L 16.009 19.000 15.992 18.250 C 15.978 17.631,15.959 17.444,15.885 17.178 C 15.684 16.454,15.183 15.819,14.481 15.394 C 13.633 14.882,12.367 14.882,11.519 15.394 C 10.817 15.819,10.316 16.454,10.115 17.178 C 10.041 17.444,10.022 17.631,10.008 18.250 L 9.991 19.000 8.496 19.000 L 7.000 19.000 6.999 17.410 C 6.999 15.668,6.977 15.450,6.772 15.072 C 6.535 14.637,6.061 14.233,5.623 14.095 C 5.476 14.048,5.181 14.023,4.557 14.005 L 3.694 13.980 3.497 13.859 C 2.844 13.457,2.844 12.543,3.497 12.141 L 3.694 12.020 4.557 11.995 C 5.181 11.977,5.476 11.952,5.623 11.905 C 6.061 11.767,6.535 11.363,6.772 10.928 C 6.977 10.550,6.999 10.332,6.999 8.590 L 7.000 7.000 8.590 6.999 C 10.332 6.999,10.550 6.977,10.928 6.772 C 11.363 6.535,11.767 6.061,11.905 5.623 C 11.952 5.476,11.977 5.181,11.995 4.560 C 12.020 3.713,12.022 3.697,12.131 3.511 C 12.255 3.300,12.446 3.138,12.670 3.055 C 12.897 2.970,13.277 3.007,13.497 3.136 " stroke="none" fill-rule="evenodd" fill="black"></path></svg>