<svg width="24" height="24" viewBox="0 0 24 24" fill="none" xmlns="http://www.w3.org/2000/svg"><path d="M11.100 2.041 C 9.341 2.219,7.729 2.802,6.335 3.767 C 3.070 6.025,1.454 9.944,2.178 13.846 C 2.468 15.412,3.137 16.886,4.154 18.200 C 4.493 18.637,5.363 19.507,5.800 19.846 C 8.241 21.735,11.253 22.412,14.240 21.741 C 17.932 20.912,20.910 17.933,21.741 14.240 C 21.929 13.402,21.977 12.954,21.977 12.000 C 21.977 11.046,21.929 10.598,21.741 9.760 C 21.274 7.685,20.065 5.706,18.437 4.354 C 16.934 3.106,15.158 2.329,13.240 2.080 C 12.775 2.019,11.539 1.997,11.100 2.041 M12.832 4.042 C 14.361 4.210,15.851 4.828,17.040 5.789 C 17.394 6.075,18.067 6.761,18.326 7.100 C 19.406 8.514,20.000 10.253,20.000 12.000 C 20.000 13.810,19.358 15.619,18.211 17.041 C 17.900 17.426,17.184 18.117,16.800 18.402 C 13.933 20.529,10.067 20.529,7.200 18.402 C 6.816 18.117,6.100 17.426,5.789 17.041 C 3.835 14.619,3.452 11.319,4.800 8.529 C 5.197 7.706,5.611 7.114,6.259 6.446 C 6.951 5.730,7.648 5.225,8.526 4.801 C 9.865 4.154,11.392 3.885,12.832 4.042 M10.481 7.942 C 9.765 8.142,9.208 8.725,9.058 9.434 C 8.976 9.822,8.976 14.178,9.058 14.566 C 9.145 14.976,9.341 15.308,9.694 15.643 C 9.866 15.806,10.311 16.024,10.588 16.082 C 10.908 16.148,11.408 16.111,11.698 16.000 C 11.949 15.903,15.275 13.713,15.557 13.458 C 15.760 13.274,15.963 12.965,16.081 12.660 C 16.214 12.316,16.214 11.684,16.081 11.340 C 15.963 11.035,15.760 10.726,15.557 10.542 C 15.277 10.289,11.949 8.097,11.698 7.999 C 11.391 7.881,10.801 7.853,10.481 7.942 M12.690 10.994 C 13.498 11.532,14.160 11.985,14.160 12.000 C 14.160 12.020,11.981 13.490,11.110 14.058 L 11.000 14.129 11.000 12.000 L 11.000 9.871 11.110 9.942 C 11.171 9.982,11.882 10.455,12.690 10.994 " stroke="none" fill-rule="evenodd" fill="black"></path></svg>