<svg width="24" height="24" viewBox="0 0 24 24" fill="none" xmlns="http://www.w3.org/2000/svg"><path d="M11.064 3.044 C 7.821 3.311,4.868 5.041,3.272 7.608 C 2.349 9.093,1.906 10.857,2.033 12.547 C 2.137 13.935,2.484 15.063,3.155 16.194 L 3.282 16.407 2.660 18.067 C 2.318 18.980,2.027 19.804,2.014 19.898 C 1.976 20.174,2.092 20.495,2.302 20.700 C 2.486 20.879,2.759 21.000,2.978 21.000 C 3.046 21.000,4.118 20.797,5.361 20.548 L 7.620 20.097 8.015 20.251 C 9.333 20.768,10.482 20.976,12.000 20.975 C 13.364 20.974,14.249 20.837,15.443 20.441 C 18.758 19.343,21.198 16.748,21.820 13.660 C 22.056 12.486,22.056 11.514,21.820 10.340 C 21.472 8.614,20.466 6.881,19.112 5.678 C 16.923 3.733,14.063 2.797,11.064 3.044 M12.886 5.042 C 14.911 5.246,16.809 6.139,18.120 7.506 C 19.043 8.468,19.610 9.529,19.889 10.818 C 20.014 11.400,20.014 12.600,19.889 13.182 C 19.612 14.460,19.047 15.524,18.140 16.475 C 17.363 17.290,16.403 17.929,15.280 18.380 C 14.355 18.752,13.405 18.946,12.320 18.986 C 10.968 19.036,9.762 18.820,8.539 18.308 C 8.253 18.188,7.957 18.079,7.879 18.065 C 7.781 18.047,7.266 18.135,6.169 18.354 C 5.079 18.572,4.600 18.653,4.600 18.620 C 4.600 18.593,4.774 18.114,4.986 17.555 C 5.511 16.177,5.511 16.158,4.995 15.370 C 4.408 14.472,4.059 13.368,4.011 12.260 C 3.913 9.960,5.077 7.826,7.200 6.413 C 8.286 5.690,9.703 5.186,11.042 5.046 C 11.528 4.995,12.405 4.993,12.886 5.042 M7.673 11.063 C 7.310 11.175,7.000 11.606,7.000 12.000 C 7.000 12.415,7.310 12.828,7.710 12.944 C 8.209 13.090,8.693 12.878,8.905 12.422 C 9.160 11.874,8.875 11.230,8.303 11.059 C 8.062 10.987,7.917 10.988,7.673 11.063 M11.673 11.063 C 11.304 11.177,11.000 11.609,11.000 12.020 C 11.000 12.415,11.319 12.831,11.710 12.944 C 12.209 13.090,12.693 12.878,12.905 12.422 C 13.160 11.874,12.875 11.230,12.303 11.059 C 12.062 10.987,11.917 10.988,11.673 11.063 M15.673 11.063 C 15.310 11.175,15.000 11.606,15.000 12.000 C 15.000 12.415,15.310 12.828,15.710 12.944 C 16.209 13.090,16.693 12.878,16.905 12.422 C 17.160 11.874,16.875 11.230,16.303 11.059 C 16.062 10.987,15.917 10.988,15.673 11.063 " stroke="none" fill-rule="evenodd" fill="black"></path></svg>