<svg width="24" height="24" viewBox="0 0 24 24" fill="none" xmlns="http://www.w3.org/2000/svg"><path d="M18.506 2.042 C 17.896 2.144,17.457 2.370,16.904 2.866 C 16.704 3.045,14.665 5.070,12.374 7.366 C 9.494 10.251,8.179 11.596,8.114 11.720 C 8.021 11.899,8.020 11.909,8.008 13.515 C 7.995 15.368,7.998 15.392,8.306 15.700 C 8.605 15.999,8.656 16.005,10.506 15.992 C 12.090 15.980,12.101 15.979,12.280 15.886 C 12.404 15.821,13.760 14.494,16.674 11.586 C 18.992 9.273,21.022 7.228,21.186 7.043 C 21.541 6.641,21.743 6.295,21.875 5.861 C 22.013 5.406,22.018 4.645,21.886 4.178 C 21.681 3.452,21.182 2.818,20.481 2.394 C 19.944 2.070,19.167 1.931,18.506 2.042 M5.506 4.042 C 4.382 4.231,3.426 5.084,3.112 6.178 L 3.020 6.500 3.020 12.500 L 3.020 18.500 3.112 18.822 C 3.391 19.796,4.204 20.609,5.178 20.888 L 5.500 20.980 11.500 20.980 L 17.500 20.980 17.822 20.888 C 18.783 20.612,19.573 19.834,19.878 18.861 L 19.979 18.540 19.991 15.726 C 20.005 12.514,20.014 12.621,19.697 12.304 C 19.514 12.120,19.238 12.000,19.000 12.000 C 18.777 12.000,18.490 12.120,18.321 12.283 C 18.004 12.591,18.022 12.405,18.000 15.520 L 17.980 18.300 17.869 18.489 C 17.744 18.702,17.551 18.864,17.330 18.943 C 17.108 19.022,5.892 19.022,5.670 18.943 C 5.449 18.864,5.256 18.702,5.131 18.489 L 5.020 18.300 5.009 12.586 C 5.003 8.830,5.013 6.821,5.039 6.722 C 5.099 6.502,5.290 6.261,5.508 6.133 L 5.700 6.020 8.480 6.000 C 11.595 5.978,11.409 5.996,11.717 5.679 C 11.880 5.510,12.000 5.223,12.000 5.000 C 12.000 4.763,11.880 4.486,11.697 4.303 C 11.384 3.991,11.480 3.999,8.403 4.005 C 6.916 4.007,5.613 4.024,5.506 4.042 M19.500 4.138 C 19.715 4.264,19.902 4.505,19.965 4.736 C 20.019 4.938,19.989 5.266,19.899 5.445 C 19.862 5.519,17.939 7.474,15.626 9.790 L 11.421 14.000 10.710 14.000 L 10.000 14.000 10.000 13.290 L 10.000 12.579 14.231 8.350 C 16.558 6.023,18.470 4.120,18.481 4.119 C 18.491 4.119,18.572 4.092,18.660 4.059 C 18.899 3.969,19.272 4.004,19.500 4.138 " stroke="none" fill-rule="evenodd" fill="black"></path></svg>