<svg width="24" height="24" viewBox="0 0 24 24" fill="none" xmlns="http://www.w3.org/2000/svg"><path d="M11.673 5.063 C 11.412 5.143,11.140 5.421,11.061 5.690 C 11.008 5.868,11.000 6.518,11.000 10.736 L 11.000 15.577 9.270 13.852 C 7.616 12.203,7.530 12.125,7.323 12.064 C 7.053 11.984,6.949 11.984,6.690 12.061 C 6.411 12.144,6.144 12.411,6.061 12.690 C 5.984 12.948,5.984 13.052,6.063 13.323 C 6.125 13.533,6.210 13.623,8.793 16.207 C 11.377 18.790,11.467 18.875,11.677 18.937 C 11.949 19.016,12.051 19.016,12.323 18.937 C 12.533 18.875,12.623 18.790,15.207 16.207 C 17.790 13.623,17.875 13.533,17.937 13.323 C 18.016 13.052,18.016 12.948,17.939 12.690 C 17.856 12.411,17.589 12.144,17.310 12.061 C 17.051 11.984,16.947 11.984,16.677 12.064 C 16.470 12.125,16.384 12.203,14.730 13.852 L 13.000 15.577 13.000 10.736 C 13.000 5.274,13.020 5.626,12.697 5.303 C 12.418 5.024,12.067 4.942,11.673 5.063 " stroke="none" fill-rule="evenodd" fill="black"></path></svg>