<svg width="24" height="24" viewBox="0 0 24 24" fill="none" xmlns="http://www.w3.org/2000/svg"><path d="M3.673 3.063 C 3.429 3.138,3.150 3.414,3.064 3.666 C 3.008 3.829,3.000 4.137,3.000 6.000 C 3.000 8.436,2.995 8.388,3.306 8.700 C 3.486 8.879,3.764 9.000,4.000 9.000 C 4.237 9.000,4.514 8.880,4.697 8.697 C 4.968 8.425,5.000 8.276,5.000 7.264 L 5.000 6.423 6.730 8.148 C 8.384 9.797,8.470 9.875,8.677 9.936 C 8.947 10.016,9.051 10.016,9.310 9.939 C 9.589 9.856,9.856 9.589,9.939 9.310 C 10.016 9.051,10.016 8.947,9.936 8.677 C 9.875 8.470,9.797 8.384,8.148 6.730 L 6.423 5.000 7.264 5.000 C 8.276 5.000,8.425 4.968,8.697 4.697 C 8.880 4.514,9.000 4.237,9.000 4.000 C 9.000 3.598,8.688 3.173,8.310 3.061 C 8.015 2.973,3.958 2.975,3.673 3.063 M15.673 3.063 C 15.553 3.100,15.421 3.185,15.307 3.299 C 14.902 3.704,14.902 4.295,15.306 4.700 C 15.574 4.968,15.727 5.000,16.736 5.000 L 17.577 5.000 15.854 6.730 C 14.312 8.279,14.124 8.481,14.066 8.657 C 14.030 8.766,14.000 8.920,14.000 9.000 C 14.000 9.405,14.309 9.826,14.690 9.939 C 14.949 10.016,15.053 10.016,15.323 9.936 C 15.530 9.875,15.616 9.797,17.270 8.148 L 19.000 6.423 19.000 7.284 C 19.000 8.293,19.028 8.422,19.306 8.700 C 19.486 8.879,19.764 9.000,20.000 9.000 C 20.402 9.000,20.827 8.688,20.939 8.310 C 21.030 8.006,21.030 3.994,20.939 3.690 C 20.856 3.411,20.589 3.144,20.310 3.061 C 20.015 2.973,15.958 2.975,15.673 3.063 M8.660 14.066 C 8.476 14.122,8.321 14.266,6.730 15.852 L 5.000 17.577 5.000 16.736 C 5.000 15.724,4.968 15.575,4.697 15.303 C 4.514 15.120,4.237 15.000,4.000 15.000 C 3.764 15.000,3.486 15.121,3.306 15.300 C 2.995 15.612,3.000 15.564,3.000 18.000 C 3.000 20.436,2.995 20.388,3.306 20.700 C 3.608 21.002,3.593 21.000,6.000 21.000 C 8.411 21.000,8.391 21.002,8.697 20.697 C 8.880 20.514,9.000 20.237,9.000 20.000 C 9.000 19.763,8.880 19.486,8.697 19.303 C 8.425 19.032,8.276 19.000,7.264 19.000 L 6.423 19.000 8.148 17.270 C 9.797 15.616,9.875 15.530,9.936 15.323 C 10.016 15.053,10.016 14.949,9.939 14.690 C 9.856 14.411,9.589 14.144,9.310 14.061 C 9.059 13.986,8.919 13.988,8.660 14.066 M14.673 14.063 C 14.429 14.138,14.150 14.414,14.064 14.666 C 13.983 14.905,13.983 15.095,14.066 15.343 C 14.124 15.519,14.312 15.721,15.854 17.270 L 17.577 19.000 16.736 19.000 C 15.727 19.000,15.574 19.032,15.306 19.300 C 14.902 19.704,14.902 20.296,15.306 20.700 C 15.608 21.002,15.593 21.000,18.000 21.000 C 20.411 21.000,20.391 21.002,20.697 20.697 C 21.002 20.391,21.000 20.411,21.000 18.000 C 21.000 15.589,21.002 15.609,20.697 15.303 C 20.514 15.120,20.237 15.000,20.000 15.000 C 19.764 15.000,19.486 15.121,19.306 15.300 C 19.028 15.578,19.000 15.707,19.000 16.716 L 19.000 17.577 17.270 15.852 C 15.616 14.203,15.530 14.125,15.323 14.064 C 15.061 13.987,14.921 13.987,14.673 14.063 " stroke="none" fill-rule="evenodd" fill="black"></path></svg>