<svg width="24" height="24" viewBox="0 0 24 24" fill="none" xmlns="http://www.w3.org/2000/svg"><path d="M5.680 6.024 C 5.461 6.065,5.089 6.218,4.891 6.349 C 4.464 6.630,4.133 7.127,4.043 7.617 C 3.983 7.947,3.983 16.053,4.043 16.383 C 4.216 17.334,5.158 18.061,6.123 17.987 C 6.747 17.939,6.744 17.941,9.498 15.876 L 12.000 14.000 12.000 15.073 C 12.000 15.668,12.019 16.251,12.043 16.383 C 12.216 17.334,13.158 18.061,14.123 17.987 C 14.754 17.938,14.713 17.964,17.808 15.643 C 19.354 14.482,20.704 13.442,20.807 13.332 C 21.493 12.592,21.493 11.407,20.807 10.669 C 20.643 10.492,15.461 6.565,15.056 6.311 C 14.718 6.098,14.450 6.026,14.000 6.026 C 13.657 6.026,13.536 6.043,13.340 6.119 C 12.658 6.382,12.164 6.953,12.043 7.617 C 12.019 7.749,12.000 8.332,12.000 8.928 L 12.000 10.001 9.606 8.205 C 8.290 7.217,7.142 6.365,7.056 6.311 C 6.782 6.139,6.445 6.036,6.102 6.020 C 5.925 6.012,5.735 6.014,5.680 6.024 M11.316 12.000 C 11.316 12.011,10.120 12.916,8.658 14.010 L 6.000 16.000 6.000 12.000 L 6.000 8.000 8.658 9.990 C 10.120 11.084,11.316 11.989,11.316 12.000 M19.316 12.000 C 19.316 12.011,18.120 12.916,16.658 14.010 L 14.000 16.000 14.000 12.000 L 14.000 8.000 16.658 9.990 C 18.120 11.084,19.316 11.989,19.316 12.000 " stroke="none" fill-rule="evenodd" fill="black"></path></svg>