<svg width="24" height="24" viewBox="0 0 24 24" fill="none" xmlns="http://www.w3.org/2000/svg"><path d="M4.506 3.042 C 3.381 3.231,2.421 4.088,2.114 5.178 C 1.982 5.645,1.987 6.406,2.125 6.861 C 2.361 7.636,2.925 8.305,3.660 8.683 L 3.980 8.847 4.000 13.694 L 4.020 18.540 4.121 18.861 C 4.429 19.836,5.217 20.613,6.178 20.888 L 6.500 20.980 12.000 20.980 L 17.500 20.980 17.822 20.888 C 18.783 20.613,19.571 19.836,19.879 18.861 L 19.980 18.540 20.000 13.694 L 20.020 8.847 20.340 8.683 C 21.075 8.305,21.639 7.636,21.875 6.861 C 22.013 6.406,22.018 5.645,21.886 5.178 C 21.575 4.073,20.617 3.227,19.467 3.041 C 19.167 2.992,4.797 2.993,4.506 3.042 M19.503 5.141 C 20.156 5.543,20.156 6.457,19.503 6.859 L 19.306 6.980 12.089 6.990 C 7.333 6.997,4.821 6.987,4.722 6.961 C 4.502 6.901,4.261 6.709,4.133 6.492 C 4.036 6.327,4.020 6.257,4.020 6.000 C 4.020 5.744,4.036 5.672,4.131 5.511 C 4.256 5.298,4.448 5.136,4.670 5.057 C 4.794 5.012,6.082 5.005,12.063 5.012 L 19.306 5.020 19.503 5.141 M17.998 13.590 C 17.997 17.320,17.986 18.208,17.943 18.330 C 17.864 18.551,17.702 18.744,17.489 18.869 L 17.300 18.980 12.000 18.980 L 6.700 18.980 6.511 18.869 C 6.298 18.744,6.136 18.551,6.057 18.330 C 6.014 18.208,6.003 17.320,6.002 13.590 L 6.000 9.000 12.000 9.000 L 18.000 9.000 17.998 13.590 M9.673 11.063 C 9.310 11.175,9.000 11.606,9.000 12.000 C 9.000 12.405,9.309 12.826,9.690 12.939 C 9.994 13.030,14.006 13.030,14.310 12.939 C 14.688 12.827,15.000 12.402,15.000 12.000 C 15.000 11.598,14.688 11.173,14.310 11.061 C 14.015 10.973,9.958 10.975,9.673 11.063 " stroke="none" fill-rule="evenodd" fill="black"></path></svg>