<svg width="24" height="24" viewBox="0 0 24 24" fill="none" xmlns="http://www.w3.org/2000/svg"><path d="M11.530 3.061 C 10.859 3.206,10.251 3.798,10.073 4.477 C 9.707 5.881,10.879 7.186,12.310 6.967 C 12.743 6.901,13.079 6.727,13.403 6.403 C 13.873 5.934,14.067 5.343,13.967 4.690 C 13.900 4.256,13.727 3.920,13.403 3.599 C 13.091 3.291,12.821 3.137,12.451 3.059 C 12.120 2.989,11.859 2.989,11.530 3.061 M11.530 10.061 C 10.859 10.206,10.251 10.798,10.073 11.477 C 9.707 12.881,10.879 14.186,12.310 13.967 C 12.743 13.901,13.079 13.727,13.403 13.403 C 13.873 12.934,14.067 12.343,13.967 11.690 C 13.900 11.256,13.727 10.920,13.403 10.599 C 13.091 10.291,12.821 10.137,12.451 10.059 C 12.120 9.989,11.859 9.989,11.530 10.061 M11.530 17.061 C 10.859 17.206,10.251 17.798,10.073 18.477 C 9.707 19.881,10.879 21.186,12.310 20.967 C 12.743 20.901,13.079 20.727,13.403 20.403 C 13.873 19.934,14.067 19.343,13.967 18.690 C 13.900 18.256,13.727 17.920,13.403 17.599 C 13.091 17.291,12.821 17.137,12.451 17.059 C 12.120 16.989,11.859 16.989,11.530 17.061 " stroke="none" fill-rule="evenodd" fill="black"></path></svg>