<svg width="24" height="24" viewBox="0 0 24 24" fill="none" xmlns="http://www.w3.org/2000/svg"><path d="M11.673 2.063 C 11.552 2.100,11.421 2.185,11.304 2.303 C 10.990 2.616,11.000 2.505,11.000 5.734 L 11.000 8.574 10.267 7.851 C 9.603 7.195,9.515 7.122,9.320 7.064 C 9.053 6.984,8.948 6.984,8.690 7.061 C 8.309 7.174,8.000 7.595,8.000 8.000 C 8.000 8.080,8.029 8.234,8.065 8.343 C 8.124 8.520,8.302 8.712,9.795 10.207 C 11.390 11.803,11.469 11.876,11.677 11.937 C 11.949 12.016,12.051 12.016,12.323 11.937 C 12.531 11.876,12.611 11.802,14.207 10.207 C 15.802 8.611,15.876 8.531,15.937 8.323 C 16.016 8.052,16.016 7.948,15.939 7.690 C 15.856 7.411,15.589 7.144,15.310 7.061 C 15.052 6.984,14.947 6.984,14.680 7.064 C 14.485 7.122,14.397 7.195,13.733 7.851 L 13.000 8.574 13.000 5.734 C 13.000 2.505,13.010 2.616,12.697 2.303 C 12.418 2.024,12.067 1.942,11.673 2.063 M5.506 3.042 C 4.382 3.231,3.426 4.084,3.112 5.178 L 3.020 5.500 3.020 12.000 L 3.020 18.500 3.112 18.822 C 3.391 19.796,4.204 20.609,5.178 20.888 L 5.500 20.980 12.000 20.980 L 18.500 20.980 18.822 20.888 C 19.796 20.609,20.609 19.796,20.888 18.822 L 20.980 18.500 20.980 12.000 L 20.980 5.500 20.888 5.178 C 20.679 4.448,20.181 3.818,19.481 3.394 C 18.931 3.062,18.554 3.001,17.057 3.000 C 15.695 3.000,15.588 3.018,15.306 3.300 C 14.911 3.695,14.903 4.286,15.287 4.682 C 15.570 4.974,15.584 4.977,17.020 5.000 L 18.300 5.020 18.489 5.131 C 18.702 5.256,18.864 5.449,18.943 5.670 C 18.986 5.790,18.997 6.433,18.998 8.906 L 19.000 11.993 17.990 12.008 C 17.046 12.023,16.964 12.030,16.740 12.118 C 16.608 12.169,16.410 12.271,16.300 12.344 C 16.190 12.417,15.533 13.044,14.840 13.738 L 13.580 15.000 12.000 15.000 L 10.420 15.000 9.180 13.757 C 7.408 11.980,7.501 12.031,6.010 12.008 L 5.000 11.993 5.002 8.906 C 5.003 6.433,5.014 5.790,5.057 5.670 C 5.136 5.449,5.298 5.256,5.511 5.131 L 5.700 5.020 6.980 5.000 C 8.418 4.977,8.429 4.975,8.717 4.679 C 8.880 4.510,9.000 4.223,9.000 4.000 C 9.000 3.763,8.880 3.486,8.697 3.303 C 8.409 3.015,8.313 2.999,6.903 3.005 C 6.241 3.007,5.613 3.024,5.506 3.042 M7.918 15.332 C 9.104 16.508,9.291 16.678,9.522 16.788 C 9.666 16.857,9.890 16.933,10.019 16.956 C 10.337 17.015,13.663 17.015,13.981 16.956 C 14.110 16.933,14.334 16.857,14.478 16.788 C 14.709 16.678,14.896 16.508,16.082 15.332 L 17.424 14.000 18.213 14.000 L 19.003 14.000 18.991 16.150 L 18.980 18.300 18.869 18.489 C 18.744 18.702,18.551 18.864,18.330 18.943 C 18.108 19.022,5.892 19.022,5.670 18.943 C 5.449 18.864,5.256 18.702,5.131 18.489 L 5.020 18.300 5.009 16.150 L 4.997 14.000 5.787 14.000 L 6.576 14.000 7.918 15.332 " stroke="none" fill-rule="evenodd" fill="black"></path></svg>