<svg width="24" height="24" viewBox="0 0 24 24" fill="none" xmlns="http://www.w3.org/2000/svg"><path d="M4.506 3.042 C 3.382 3.231,2.426 4.084,2.112 5.178 L 2.020 5.500 2.020 10.000 L 2.020 14.500 2.112 14.822 C 2.388 15.784,3.170 16.577,4.139 16.877 C 4.453 16.974,4.493 16.976,6.020 16.990 L 7.580 17.005 9.520 18.939 C 11.381 20.794,11.469 20.875,11.677 20.936 C 11.797 20.971,11.942 21.000,12.000 21.000 C 12.058 21.000,12.203 20.971,12.323 20.936 C 12.531 20.875,12.619 20.794,14.480 18.939 L 16.420 17.005 17.980 16.990 C 19.507 16.976,19.547 16.974,19.861 16.877 C 20.830 16.577,21.612 15.784,21.888 14.822 L 21.980 14.500 21.980 10.000 L 21.980 5.500 21.888 5.178 C 21.570 4.069,20.616 3.227,19.467 3.041 C 19.167 2.992,4.797 2.993,4.506 3.042 M19.330 5.057 C 19.551 5.136,19.744 5.298,19.869 5.511 L 19.980 5.700 19.991 9.913 C 19.998 12.672,19.987 14.178,19.961 14.277 C 19.901 14.498,19.710 14.739,19.492 14.867 L 19.300 14.980 17.520 15.000 C 15.873 15.019,15.728 15.026,15.580 15.097 C 15.477 15.146,14.814 15.776,13.710 16.875 L 12.000 18.578 10.290 16.875 C 9.186 15.776,8.523 15.146,8.420 15.097 C 8.272 15.026,8.127 15.019,6.480 15.000 L 4.700 14.980 4.508 14.867 C 4.290 14.739,4.099 14.498,4.039 14.277 C 4.013 14.178,4.002 12.672,4.009 9.913 L 4.020 5.700 4.131 5.511 C 4.256 5.298,4.449 5.136,4.670 5.057 C 4.893 4.978,19.107 4.978,19.330 5.057 M6.673 7.063 C 6.310 7.175,6.000 7.606,6.000 8.000 C 6.000 8.405,6.309 8.826,6.690 8.939 C 6.868 8.992,7.546 9.000,12.000 9.000 C 16.454 9.000,17.132 8.992,17.310 8.939 C 17.688 8.827,18.000 8.402,18.000 8.000 C 18.000 7.598,17.688 7.173,17.310 7.061 C 17.010 6.972,6.963 6.974,6.673 7.063 M6.673 11.063 C 6.310 11.175,6.000 11.606,6.000 12.000 C 6.000 12.405,6.309 12.826,6.690 12.939 C 6.994 13.030,11.006 13.030,11.310 12.939 C 11.688 12.827,12.000 12.402,12.000 12.000 C 12.000 11.598,11.688 11.173,11.310 11.061 C 11.015 10.973,6.958 10.975,6.673 11.063 " stroke="none" fill-rule="evenodd" fill="black"></path></svg>