<svg width="24" height="24" viewBox="0 0 24 24" fill="none" xmlns="http://www.w3.org/2000/svg"><path d="M11.660 3.066 C 11.474 3.122,11.306 3.280,9.295 5.293 C 7.336 7.254,7.124 7.479,7.065 7.657 C 7.029 7.766,7.000 7.920,7.000 8.000 C 7.000 8.405,7.309 8.826,7.690 8.939 C 7.949 9.016,8.053 9.016,8.323 8.936 C 8.528 8.875,8.610 8.801,9.770 7.648 L 11.000 6.424 11.000 11.285 C 11.000 16.757,10.978 16.372,11.306 16.700 C 11.486 16.879,11.764 17.000,12.000 17.000 C 12.402 17.000,12.827 16.688,12.939 16.310 C 12.992 16.132,13.000 15.482,13.000 11.265 L 13.000 6.424 14.230 7.648 C 15.390 8.801,15.472 8.875,15.677 8.936 C 15.947 9.016,16.051 9.016,16.310 8.939 C 16.589 8.856,16.856 8.589,16.939 8.310 C 17.016 8.052,17.016 7.948,16.937 7.677 C 16.876 7.468,16.796 7.383,14.707 5.293 C 12.617 3.204,12.532 3.124,12.323 3.063 C 12.059 2.986,11.922 2.987,11.660 3.066 M3.673 15.063 C 3.429 15.138,3.150 15.414,3.064 15.666 C 2.980 15.914,2.976 17.060,3.058 17.605 C 3.280 19.074,4.324 20.310,5.755 20.797 C 6.347 20.998,6.400 21.000,12.000 21.000 C 17.600 21.000,17.653 20.998,18.245 20.797 C 19.229 20.462,20.076 19.739,20.536 18.840 C 20.892 18.144,20.999 17.615,21.000 16.557 C 21.000 15.741,20.957 15.564,20.697 15.303 C 20.514 15.120,20.237 15.000,20.000 15.000 C 19.764 15.000,19.486 15.121,19.306 15.300 C 19.038 15.568,19.000 15.723,19.000 16.551 C 19.000 17.575,18.889 17.919,18.404 18.404 C 18.118 18.690,17.852 18.847,17.492 18.940 C 17.148 19.030,6.852 19.030,6.508 18.940 C 6.148 18.847,5.882 18.690,5.596 18.404 C 5.111 17.919,5.000 17.579,5.000 16.579 C 5.000 15.739,4.959 15.565,4.697 15.303 C 4.418 15.024,4.067 14.942,3.673 15.063 " stroke="none" fill-rule="evenodd" fill="black"></path></svg>