<svg width="24" height="24" viewBox="0 0 24 24" fill="none" xmlns="http://www.w3.org/2000/svg"><path d="M6.640 4.041 C 5.263 4.159,3.870 4.578,2.848 5.182 C 2.402 5.445,2.228 5.594,2.106 5.820 L 2.020 5.980 2.020 12.760 L 2.020 19.540 2.106 19.700 C 2.289 20.038,2.622 20.238,3.008 20.239 C 3.200 20.240,3.282 20.215,3.528 20.079 C 4.943 19.302,6.053 19.000,7.500 19.000 C 8.947 19.000,10.057 19.302,11.472 20.079 C 11.720 20.216,11.800 20.240,12.000 20.240 C 12.200 20.240,12.280 20.216,12.528 20.079 C 13.943 19.302,15.053 19.000,16.500 19.000 C 17.947 19.000,19.057 19.302,20.472 20.079 C 20.718 20.215,20.800 20.240,20.992 20.239 C 21.378 20.238,21.711 20.038,21.894 19.700 L 21.980 19.540 21.980 12.760 L 21.980 5.980 21.894 5.820 C 21.772 5.594,21.598 5.445,21.152 5.182 C 19.369 4.129,16.792 3.746,14.532 4.199 C 13.740 4.358,12.840 4.657,12.238 4.961 L 12.000 5.081 11.762 4.961 C 10.950 4.551,9.726 4.196,8.725 4.080 C 8.214 4.020,7.119 4.000,6.640 4.041 M8.352 6.042 C 9.181 6.133,9.986 6.348,10.677 6.663 L 11.000 6.811 11.000 12.218 L 11.000 17.624 10.654 17.511 C 8.605 16.843,6.395 16.843,4.346 17.511 L 4.000 17.624 4.000 12.218 L 4.000 6.811 4.323 6.663 C 4.987 6.360,5.830 6.131,6.600 6.044 C 7.040 5.995,7.906 5.994,8.352 6.042 M17.352 6.042 C 18.181 6.133,18.986 6.348,19.677 6.663 L 20.000 6.811 20.000 12.218 L 20.000 17.624 19.654 17.511 C 17.605 16.843,15.395 16.843,13.346 17.511 L 13.000 17.624 13.000 12.218 L 13.000 6.811 13.323 6.663 C 13.987 6.360,14.830 6.131,15.600 6.044 C 16.040 5.995,16.906 5.994,17.352 6.042 " stroke="none" fill-rule="evenodd" fill="black"></path></svg>