<svg width="24" height="24" viewBox="0 0 24 24" fill="none" xmlns="http://www.w3.org/2000/svg"><path d="M13.673 4.063 C 13.429 4.138,13.150 4.414,13.064 4.666 C 12.983 4.905,12.983 5.094,13.065 5.343 C 13.125 5.522,13.380 5.790,15.854 8.270 L 18.578 11.000 10.736 11.000 C 1.930 11.000,2.631 10.975,2.306 11.300 C 1.902 11.704,1.902 12.296,2.306 12.700 C 2.631 13.025,1.930 13.000,10.736 13.000 L 18.578 13.000 15.854 15.730 C 13.380 18.210,13.125 18.478,13.065 18.657 C 13.029 18.766,13.000 18.920,13.000 19.000 C 13.000 19.405,13.309 19.826,13.690 19.939 C 13.948 20.016,14.052 20.016,14.323 19.937 C 14.534 19.875,14.635 19.778,18.207 16.207 C 21.778 12.635,21.875 12.534,21.937 12.323 C 22.016 12.051,22.016 11.949,21.937 11.677 C 21.875 11.466,21.778 11.365,18.207 7.793 C 14.635 4.222,14.534 4.125,14.323 4.063 C 14.061 3.987,13.920 3.987,13.673 4.063 " stroke="none" fill-rule="evenodd" fill="black"></path></svg>