<svg width="24" height="24" viewBox="0 0 24 24" fill="none" xmlns="http://www.w3.org/2000/svg"><path d="M11.100 2.041 C 9.341 2.219,7.729 2.802,6.335 3.767 C 3.070 6.025,1.454 9.944,2.178 13.846 C 2.468 15.412,3.137 16.886,4.154 18.200 C 4.493 18.637,5.363 19.507,5.800 19.846 C 8.241 21.735,11.253 22.412,14.240 21.741 C 17.932 20.912,20.910 17.933,21.741 14.240 C 21.929 13.402,21.977 12.954,21.977 12.000 C 21.977 11.046,21.929 10.598,21.741 9.760 C 21.274 7.685,20.065 5.706,18.437 4.354 C 16.934 3.106,15.158 2.329,13.240 2.080 C 12.775 2.019,11.539 1.997,11.100 2.041 M12.832 4.042 C 14.364 4.210,15.848 4.826,17.046 5.793 C 17.400 6.079,18.289 6.993,18.270 7.051 C 18.262 7.073,18.149 7.123,18.018 7.164 C 17.577 7.299,17.041 7.678,16.678 8.112 C 16.270 8.598,16.071 9.125,16.004 9.894 C 15.972 10.263,15.949 10.356,15.852 10.514 C 15.460 11.150,14.540 11.150,14.148 10.514 C 14.051 10.356,14.028 10.264,13.996 9.894 C 13.917 8.974,13.657 8.407,13.045 7.821 C 12.438 7.239,11.926 7.050,10.840 7.006 C 10.171 6.978,10.129 6.972,9.880 6.854 C 9.552 6.699,9.305 6.453,9.145 6.120 C 9.023 5.867,9.020 5.842,9.007 5.215 L 8.993 4.570 9.498 4.405 C 10.586 4.050,11.745 3.924,12.832 4.042 M7.090 6.221 C 7.283 7.247,8.003 8.168,8.982 8.643 C 9.478 8.884,9.835 8.960,10.623 8.994 C 11.270 9.023,11.316 9.030,11.495 9.135 C 11.710 9.261,11.903 9.505,11.956 9.716 C 11.976 9.795,12.003 10.015,12.016 10.205 C 12.102 11.453,12.943 12.511,14.139 12.875 C 14.412 12.958,14.542 12.973,15.000 12.973 C 15.458 12.973,15.588 12.958,15.861 12.875 C 16.813 12.585,17.598 11.801,17.867 10.871 C 17.916 10.701,17.974 10.363,17.995 10.121 C 18.026 9.760,18.052 9.647,18.137 9.501 C 18.340 9.156,18.639 9.005,19.126 9.002 L 19.432 9.000 19.592 9.490 C 19.867 10.334,20.000 11.152,20.000 12.000 C 20.000 12.848,19.867 13.666,19.592 14.510 L 19.432 15.000 18.106 15.000 C 16.434 15.001,16.081 15.054,15.519 15.394 C 14.818 15.818,14.319 16.451,14.113 17.178 C 14.030 17.471,14.021 17.600,14.008 18.626 L 13.994 19.752 13.825 19.795 C 13.503 19.876,12.897 19.960,12.453 19.986 L 12.007 20.012 11.990 18.736 C 11.974 17.564,11.965 17.435,11.884 17.157 C 11.674 16.442,11.172 15.812,10.481 15.394 C 10.155 15.197,9.801 15.086,9.340 15.034 C 9.142 15.012,8.904 14.985,8.811 14.975 C 8.580 14.948,8.289 14.744,8.141 14.503 L 8.020 14.306 7.994 13.383 C 7.973 12.607,7.955 12.412,7.882 12.160 C 7.657 11.382,7.079 10.696,6.314 10.299 C 5.949 10.110,5.584 10.035,4.894 10.006 L 4.247 9.980 4.405 9.500 C 4.694 8.617,5.200 7.689,5.791 6.956 C 5.926 6.789,6.248 6.449,6.506 6.201 C 7.036 5.692,6.990 5.690,7.090 6.221 M5.330 12.057 C 5.551 12.136,5.744 12.298,5.869 12.511 C 5.979 12.699,5.980 12.707,6.005 13.620 C 6.027 14.431,6.041 14.578,6.126 14.861 C 6.411 15.808,7.199 16.598,8.129 16.867 C 8.299 16.916,8.637 16.974,8.879 16.995 C 9.390 17.039,9.603 17.134,9.802 17.409 C 9.985 17.661,10.002 17.793,9.991 18.817 L 9.980 19.759 9.444 19.577 C 8.284 19.182,7.348 18.612,6.466 17.761 C 5.734 17.054,5.230 16.362,4.801 15.474 C 4.316 14.470,4.000 13.187,4.000 12.222 L 4.000 12.000 4.590 12.002 C 4.977 12.003,5.232 12.022,5.330 12.057 M18.087 17.190 C 17.882 17.432,17.286 18.013,17.000 18.248 C 16.782 18.428,16.267 18.783,16.086 18.878 L 15.993 18.927 16.006 18.313 C 16.019 17.727,16.025 17.692,16.131 17.511 C 16.192 17.408,16.304 17.275,16.381 17.217 C 16.626 17.029,16.765 17.004,17.534 17.002 L 18.247 17.000 18.087 17.190 " stroke="none" fill-rule="evenodd" fill="black"></path></svg>