<svg width="24" height="24" viewBox="0 0 24 24" fill="none" xmlns="http://www.w3.org/2000/svg"><path d="M6.506 2.042 C 5.382 2.231,4.426 3.084,4.112 4.178 L 4.020 4.500 4.020 12.000 L 4.020 19.500 4.112 19.822 C 4.391 20.796,5.204 21.609,6.178 21.888 L 6.500 21.980 12.000 21.980 L 17.500 21.980 17.822 21.888 C 18.796 21.609,19.609 20.796,19.888 19.822 L 19.980 19.500 19.980 12.000 L 19.980 4.500 19.888 4.178 C 19.570 3.069,18.616 2.227,17.467 2.041 C 17.168 1.992,6.796 1.993,6.506 2.042 M17.489 4.131 C 17.702 4.256,17.864 4.449,17.943 4.670 C 18.022 4.893,18.022 19.107,17.943 19.330 C 17.864 19.551,17.702 19.744,17.489 19.869 L 17.300 19.980 12.000 19.980 L 6.700 19.980 6.508 19.867 C 6.291 19.739,6.099 19.498,6.039 19.278 C 6.013 19.179,6.003 16.668,6.010 11.914 L 6.020 4.700 6.131 4.511 C 6.256 4.298,6.448 4.136,6.670 4.057 C 6.793 4.012,7.752 4.004,12.060 4.011 L 17.300 4.020 17.489 4.131 M8.673 6.063 C 8.310 6.175,8.000 6.606,8.000 7.000 C 8.000 7.405,8.309 7.826,8.690 7.939 C 8.997 8.030,15.003 8.030,15.310 7.939 C 15.688 7.827,16.000 7.402,16.000 7.000 C 16.000 6.598,15.688 6.173,15.310 6.061 C 15.013 5.972,8.961 5.975,8.673 6.063 M8.673 10.063 C 8.310 10.175,8.000 10.606,8.000 11.000 C 8.000 11.415,8.310 11.828,8.710 11.944 C 9.209 12.090,9.693 11.878,9.905 11.422 C 10.160 10.874,9.875 10.230,9.303 10.059 C 9.062 9.987,8.917 9.988,8.673 10.063 M11.673 10.063 C 11.304 10.177,11.000 10.609,11.000 11.020 C 11.000 11.415,11.319 11.831,11.710 11.944 C 12.209 12.090,12.693 11.878,12.905 11.422 C 13.160 10.874,12.875 10.230,12.303 10.059 C 12.062 9.987,11.917 9.988,11.673 10.063 M14.673 10.063 C 14.310 10.175,14.000 10.606,14.000 11.000 C 14.000 11.415,14.310 11.828,14.710 11.944 C 15.209 12.090,15.693 11.878,15.905 11.422 C 16.160 10.874,15.875 10.230,15.303 10.059 C 15.062 9.987,14.917 9.988,14.673 10.063 M8.673 13.063 C 8.310 13.175,8.000 13.606,8.000 14.000 C 8.000 14.415,8.310 14.828,8.710 14.944 C 9.209 15.090,9.693 14.878,9.905 14.422 C 10.160 13.874,9.875 13.230,9.303 13.059 C 9.062 12.987,8.917 12.988,8.673 13.063 M11.673 13.063 C 11.304 13.177,11.000 13.609,11.000 14.020 C 11.000 14.415,11.319 14.831,11.710 14.944 C 12.209 15.090,12.693 14.878,12.905 14.422 C 13.160 13.874,12.875 13.230,12.303 13.059 C 12.062 12.987,11.917 12.988,11.673 13.063 M14.673 13.063 C 14.429 13.138,14.150 13.414,14.064 13.666 C 13.968 13.947,13.968 17.053,14.064 17.334 C 14.188 17.697,14.613 18.000,15.000 18.000 C 15.237 18.000,15.514 17.880,15.697 17.697 C 15.994 17.400,16.000 17.356,16.000 15.500 C 16.000 13.644,15.994 13.600,15.697 13.303 C 15.418 13.024,15.067 12.942,14.673 13.063 M8.673 16.063 C 8.310 16.175,8.000 16.606,8.000 17.000 C 8.000 17.415,8.310 17.828,8.710 17.944 C 9.209 18.090,9.693 17.878,9.905 17.422 C 10.160 16.874,9.875 16.230,9.303 16.059 C 9.062 15.987,8.917 15.988,8.673 16.063 M11.673 16.063 C 11.304 16.177,11.000 16.609,11.000 17.020 C 11.000 17.415,11.319 17.831,11.710 17.944 C 12.209 18.090,12.693 17.878,12.905 17.422 C 13.160 16.874,12.875 16.230,12.303 16.059 C 12.062 15.987,11.917 15.988,11.673 16.063 " stroke="none" fill-rule="evenodd" fill="black"></path></svg>