<svg width="24" height="24" viewBox="0 0 24 24" fill="none" xmlns="http://www.w3.org/2000/svg"><path d="M3.673 5.063 C 3.310 5.175,3.000 5.606,3.000 6.000 C 3.000 6.405,3.309 6.826,3.690 6.939 C 3.870 6.993,4.860 7.000,12.000 7.000 C 19.140 7.000,20.130 6.993,20.310 6.939 C 20.688 6.827,21.000 6.402,21.000 6.000 C 21.000 5.598,20.688 5.173,20.310 5.061 C 20.130 5.007,19.144 5.000,11.983 5.003 C 5.030 5.005,3.833 5.014,3.673 5.063 M3.673 9.063 C 3.310 9.175,3.000 9.606,3.000 10.000 C 3.000 10.405,3.309 10.826,3.690 10.939 C 3.870 10.993,4.860 11.000,12.000 11.000 C 19.140 11.000,20.130 10.993,20.310 10.939 C 20.688 10.827,21.000 10.402,21.000 10.000 C 21.000 9.598,20.688 9.173,20.310 9.061 C 20.130 9.007,19.144 9.000,11.983 9.003 C 5.030 9.005,3.833 9.014,3.673 9.063 M3.673 13.063 C 3.310 13.175,3.000 13.606,3.000 14.000 C 3.000 14.405,3.309 14.826,3.690 14.939 C 3.870 14.993,4.860 15.000,12.000 15.000 C 19.140 15.000,20.130 14.993,20.310 14.939 C 20.688 14.827,21.000 14.402,21.000 14.000 C 21.000 13.598,20.688 13.173,20.310 13.061 C 20.130 13.007,19.144 13.000,11.983 13.003 C 5.030 13.005,3.833 13.014,3.673 13.063 M3.673 17.063 C 3.310 17.175,3.000 17.606,3.000 18.000 C 3.000 18.405,3.309 18.826,3.690 18.939 C 3.870 18.993,4.860 19.000,12.000 19.000 C 19.140 19.000,20.130 18.993,20.310 18.939 C 20.688 18.827,21.000 18.402,21.000 18.000 C 21.000 17.598,20.688 17.173,20.310 17.061 C 20.130 17.007,19.144 17.000,11.983 17.003 C 5.030 17.005,3.833 17.014,3.673 17.063 " stroke="none" fill-rule="evenodd" fill="black"></path></svg>