<svg width="24" height="24" viewBox="0 0 24 24" fill="none" xmlns="http://www.w3.org/2000/svg"><path d="M4.580 3.047 C 3.859 3.185,3.199 3.848,3.044 4.592 C 2.985 4.875,2.985 7.125,3.044 7.408 C 3.201 8.158,3.842 8.799,4.592 8.956 C 4.719 8.982,5.281 9.000,6.000 9.000 C 6.719 9.000,7.281 8.982,7.408 8.956 C 8.158 8.799,8.799 8.158,8.956 7.408 C 9.015 7.125,9.015 4.875,8.956 4.592 C 8.797 3.830,8.138 3.181,7.383 3.043 C 7.092 2.990,4.863 2.993,4.580 3.047 M11.664 3.063 C 11.436 3.146,11.257 3.297,11.131 3.511 C 11.023 3.695,11.020 3.718,11.007 4.404 C 10.992 5.196,11.019 5.354,11.211 5.606 C 11.570 6.076,12.280 6.122,12.700 5.702 C 12.955 5.447,13.000 5.266,13.000 4.500 C 13.000 3.734,12.955 3.553,12.701 3.299 C 12.429 3.027,12.018 2.933,11.664 3.063 M16.580 3.047 C 15.859 3.185,15.199 3.848,15.044 4.592 C 15.018 4.719,15.000 5.281,15.000 6.000 C 15.000 6.719,15.018 7.281,15.044 7.408 C 15.201 8.158,15.842 8.799,16.592 8.956 C 16.719 8.982,17.281 9.000,18.000 9.000 C 18.719 9.000,19.281 8.982,19.408 8.956 C 20.158 8.799,20.799 8.158,20.956 7.408 C 21.015 7.125,21.015 4.875,20.956 4.592 C 20.797 3.830,20.138 3.181,19.383 3.043 C 19.092 2.990,16.863 2.993,16.580 3.047 M7.000 6.000 L 7.000 7.000 6.000 7.000 L 5.000 7.000 5.000 6.000 L 5.000 5.000 6.000 5.000 L 7.000 5.000 7.000 6.000 M19.000 6.000 L 19.000 7.000 18.000 7.000 L 17.000 7.000 17.000 6.000 L 17.000 5.000 18.000 5.000 L 19.000 5.000 19.000 6.000 M11.664 8.063 C 11.436 8.146,11.257 8.297,11.131 8.511 L 11.020 8.700 11.020 10.500 L 11.020 12.300 11.133 12.492 C 11.265 12.716,11.487 12.889,11.728 12.956 C 11.854 12.991,12.490 13.001,14.100 12.992 C 16.266 12.980,16.302 12.979,16.460 12.894 C 16.796 12.712,16.998 12.378,16.999 11.997 C 17.001 11.577,16.684 11.152,16.289 11.042 C 16.198 11.017,15.528 11.000,14.570 11.000 L 13.000 11.000 13.000 9.927 C 13.000 8.692,12.979 8.577,12.701 8.299 C 12.429 8.027,12.018 7.933,11.664 8.063 M3.664 11.063 C 3.436 11.146,3.257 11.297,3.131 11.511 C 3.036 11.672,3.020 11.744,3.020 12.000 C 3.020 12.256,3.036 12.328,3.131 12.489 C 3.192 12.592,3.301 12.723,3.374 12.778 C 3.664 13.000,3.670 13.000,5.998 13.000 C 8.428 13.000,8.399 13.003,8.701 12.701 C 9.092 12.310,9.092 11.690,8.701 11.299 C 8.398 10.996,8.430 11.000,5.983 11.003 C 4.210 11.005,3.792 11.016,3.664 11.063 M19.664 11.060 C 19.433 11.148,19.256 11.299,19.131 11.511 C 19.036 11.672,19.020 11.744,19.020 12.000 C 19.020 12.256,19.036 12.328,19.131 12.489 C 19.335 12.836,19.709 13.029,20.099 12.989 C 21.109 12.884,21.337 11.564,20.427 11.093 C 20.254 11.004,19.856 10.987,19.664 11.060 M4.580 15.047 C 3.859 15.185,3.199 15.848,3.044 16.592 C 2.985 16.875,2.985 19.125,3.044 19.408 C 3.201 20.158,3.842 20.799,4.592 20.956 C 4.719 20.982,5.281 21.000,6.000 21.000 C 6.719 21.000,7.281 20.982,7.408 20.956 C 8.158 20.799,8.799 20.158,8.956 19.408 C 9.015 19.125,9.015 16.875,8.956 16.592 C 8.797 15.830,8.138 15.181,7.383 15.043 C 7.092 14.990,4.863 14.993,4.580 15.047 M11.664 15.063 C 11.436 15.146,11.257 15.297,11.131 15.511 L 11.020 15.700 11.009 17.911 C 11.001 19.377,11.012 20.175,11.040 20.279 C 11.101 20.506,11.311 20.760,11.531 20.874 C 11.932 21.080,12.390 21.012,12.700 20.702 C 12.994 20.408,13.000 20.363,13.000 18.573 L 13.000 17.000 13.573 17.000 C 14.259 17.000,14.454 16.948,14.701 16.701 C 15.092 16.310,15.092 15.690,14.701 15.299 C 14.419 15.017,14.318 15.000,12.983 15.003 C 12.079 15.005,11.785 15.018,11.664 15.063 M17.664 15.063 C 17.436 15.146,17.257 15.297,17.131 15.511 C 17.036 15.672,17.020 15.744,17.020 16.000 C 17.020 16.256,17.036 16.328,17.131 16.489 C 17.260 16.709,17.437 16.854,17.678 16.939 C 17.941 17.032,20.064 17.028,20.340 16.934 C 20.709 16.808,21.000 16.396,21.000 16.000 C 21.000 15.604,20.709 15.192,20.340 15.066 C 20.073 14.975,17.910 14.973,17.664 15.063 M7.000 18.000 L 7.000 19.000 6.000 19.000 L 5.000 19.000 5.000 18.000 L 5.000 17.000 6.000 17.000 L 7.000 17.000 7.000 18.000 M15.664 19.063 C 15.436 19.146,15.257 19.297,15.131 19.511 C 15.036 19.672,15.020 19.744,15.020 20.000 C 15.020 20.256,15.036 20.328,15.131 20.489 C 15.192 20.592,15.301 20.723,15.374 20.778 C 15.664 21.000,15.670 21.000,17.998 21.000 C 20.428 21.000,20.399 21.003,20.701 20.701 C 20.881 20.521,21.000 20.242,21.000 20.000 C 21.000 19.758,20.881 19.479,20.701 19.299 C 20.398 18.996,20.430 19.000,17.983 19.003 C 16.210 19.005,15.792 19.016,15.664 19.063 " fill="#1E1E1E" stroke="none" fill-rule="evenodd"></path></svg>