<svg width="24" height="24" viewBox="0 0 24 24" fill="none" xmlns="http://www.w3.org/2000/svg"><path d="M6.506 2.042 C 5.393 2.229,4.445 3.067,4.113 4.157 L 4.021 4.460 4.010 12.798 C 3.997 22.173,3.970 21.364,4.306 21.699 C 4.567 21.960,4.909 22.053,5.258 21.956 C 5.344 21.932,6.104 21.518,6.947 21.036 C 7.789 20.554,8.488 20.160,8.500 20.160 C 8.512 20.160,9.156 20.523,9.931 20.966 C 11.761 22.014,11.683 21.975,12.000 21.975 C 12.317 21.975,12.239 22.014,14.069 20.966 C 14.844 20.523,15.488 20.160,15.500 20.160 C 15.512 20.160,16.198 20.547,17.025 21.020 C 18.506 21.867,18.774 22.000,18.994 22.000 C 19.242 22.000,19.525 21.878,19.704 21.694 C 20.027 21.362,20.003 22.112,19.990 12.778 L 19.979 4.460 19.887 4.157 C 19.551 3.052,18.605 2.225,17.467 2.041 C 17.168 1.992,6.796 1.993,6.506 2.042 M17.492 4.133 C 17.709 4.260,17.901 4.502,17.960 4.721 C 17.986 4.818,17.997 7.364,17.990 12.069 L 17.980 19.269 16.941 18.675 C 15.799 18.023,15.624 17.955,15.293 18.036 C 15.178 18.065,14.478 18.439,13.550 18.967 L 12.000 19.850 10.450 18.967 C 9.517 18.436,8.823 18.065,8.706 18.036 C 8.383 17.957,8.199 18.026,7.140 18.628 C 6.612 18.928,6.139 19.200,6.090 19.232 L 5.999 19.290 6.010 11.995 L 6.020 4.700 6.131 4.511 C 6.256 4.298,6.448 4.136,6.670 4.057 C 6.793 4.012,7.752 4.004,12.060 4.011 L 17.300 4.020 17.492 4.133 M9.140 7.056 C 8.699 7.166,8.328 7.476,8.134 7.900 C 8.039 8.106,8.023 8.191,8.024 8.500 C 8.024 8.808,8.040 8.896,8.135 9.104 C 8.276 9.414,8.584 9.721,8.900 9.866 C 9.106 9.961,9.192 9.977,9.500 9.977 C 9.808 9.977,9.894 9.961,10.100 9.866 C 10.416 9.721,10.724 9.414,10.865 9.104 C 10.960 8.896,10.976 8.808,10.976 8.500 C 10.977 8.191,10.961 8.106,10.866 7.900 C 10.665 7.462,10.270 7.143,9.808 7.045 C 9.548 6.990,9.399 6.992,9.140 7.056 M14.660 7.066 C 14.473 7.122,14.259 7.327,11.295 10.293 C 8.405 13.185,8.124 13.477,8.065 13.657 C 8.029 13.766,8.000 13.920,8.000 14.000 C 8.000 14.405,8.309 14.826,8.690 14.939 C 8.948 15.016,9.052 15.016,9.323 14.937 C 9.534 14.875,9.629 14.784,12.707 11.707 C 15.784 8.629,15.875 8.534,15.937 8.323 C 16.016 8.052,16.016 7.948,15.939 7.690 C 15.856 7.411,15.589 7.144,15.310 7.061 C 15.060 6.986,14.920 6.988,14.660 7.066 M14.140 12.056 C 13.699 12.166,13.328 12.476,13.134 12.900 C 13.039 13.106,13.023 13.191,13.024 13.500 C 13.024 13.808,13.040 13.896,13.135 14.104 C 13.276 14.414,13.584 14.721,13.900 14.866 C 14.106 14.961,14.192 14.977,14.500 14.977 C 14.808 14.977,14.894 14.961,15.100 14.866 C 15.416 14.721,15.724 14.414,15.865 14.104 C 15.960 13.896,15.976 13.808,15.976 13.500 C 15.977 13.191,15.961 13.106,15.866 12.900 C 15.665 12.462,15.270 12.143,14.808 12.045 C 14.548 11.990,14.399 11.992,14.140 12.056 " stroke="none" fill-rule="evenodd" fill="black"></path></svg>