<svg width="24" height="24" viewBox="0 0 24 24" fill="none" xmlns="http://www.w3.org/2000/svg"><path d="M4.506 3.042 C 3.382 3.231,2.426 4.084,2.112 5.178 L 2.020 5.500 2.020 12.000 L 2.020 18.500 2.112 18.822 C 2.391 19.796,3.204 20.609,4.178 20.888 L 4.500 20.980 12.000 20.980 L 19.500 20.980 19.822 20.888 C 20.796 20.609,21.609 19.796,21.888 18.822 L 21.980 18.500 21.980 13.500 L 21.980 8.500 21.888 8.178 C 21.679 7.448,21.181 6.818,20.481 6.394 C 19.996 6.101,19.520 6.001,18.616 6.000 L 18.011 6.000 17.984 5.730 C 17.885 4.739,17.363 3.928,16.481 3.394 C 16.199 3.224,15.854 3.103,15.467 3.041 C 15.168 2.992,4.796 2.993,4.506 3.042 M15.330 5.057 C 15.551 5.136,15.744 5.298,15.869 5.511 L 15.980 5.700 16.001 12.120 C 16.021 18.023,16.028 18.558,16.091 18.760 C 16.128 18.881,16.159 18.985,16.160 18.990 C 16.160 18.995,13.608 18.999,10.490 18.998 C 5.858 18.997,4.793 18.987,4.670 18.943 C 4.449 18.864,4.256 18.702,4.131 18.489 L 4.020 18.300 4.020 12.000 L 4.020 5.700 4.131 5.511 C 4.256 5.298,4.449 5.136,4.670 5.057 C 4.892 4.978,15.108 4.978,15.330 5.057 M6.673 7.063 C 6.429 7.138,6.150 7.414,6.064 7.666 C 6.008 7.829,6.000 8.137,6.000 10.000 C 6.000 12.436,5.995 12.388,6.306 12.700 C 6.618 13.011,6.480 13.000,10.000 13.000 C 13.525 13.000,13.382 13.012,13.697 12.697 C 14.002 12.391,14.000 12.411,14.000 10.000 C 14.000 7.589,14.002 7.609,13.697 7.303 C 13.381 6.988,13.528 7.000,9.983 7.003 C 7.383 7.005,6.829 7.015,6.673 7.063 M19.492 8.133 C 19.710 8.261,19.901 8.502,19.961 8.723 C 19.987 8.822,19.998 10.497,19.991 13.590 L 19.980 18.306 19.859 18.503 C 19.457 19.156,18.543 19.156,18.141 18.503 L 18.020 18.306 18.009 13.150 L 17.999 7.993 18.649 8.007 C 19.279 8.020,19.306 8.024,19.492 8.133 M12.000 10.000 L 12.000 11.000 10.000 11.000 L 8.000 11.000 8.000 10.000 L 8.000 9.000 10.000 9.000 L 12.000 9.000 12.000 10.000 M6.673 15.063 C 6.310 15.175,6.000 15.606,6.000 16.000 C 6.000 16.405,6.309 16.826,6.690 16.939 C 6.997 17.030,13.003 17.030,13.310 16.939 C 13.688 16.827,14.000 16.402,14.000 16.000 C 14.000 15.598,13.688 15.173,13.310 15.061 C 13.013 14.972,6.961 14.975,6.673 15.063 " stroke="none" fill-rule="evenodd" fill="black"></path></svg>