<svg width="24" height="24" viewBox="0 0 24 24" fill="none" xmlns="http://www.w3.org/2000/svg"><path d="M11.673 2.063 C 11.412 2.143,11.140 2.421,11.061 2.690 C 10.974 2.983,10.976 4.075,11.064 4.334 C 11.188 4.697,11.613 5.000,12.000 5.000 C 12.402 5.000,12.827 4.688,12.939 4.310 C 13.024 4.026,13.024 2.974,12.939 2.690 C 12.856 2.411,12.589 2.144,12.310 2.061 C 12.062 1.987,11.919 1.988,11.673 2.063 M5.305 4.699 C 5.074 4.781,4.874 4.962,4.746 5.204 C 4.646 5.394,4.634 5.452,4.650 5.680 C 4.660 5.823,4.700 6.003,4.740 6.079 C 4.779 6.155,5.010 6.421,5.252 6.669 C 5.806 7.236,5.985 7.336,6.409 7.314 C 6.652 7.302,6.730 7.279,6.879 7.179 C 6.978 7.112,7.112 6.978,7.179 6.879 C 7.279 6.730,7.302 6.652,7.314 6.409 C 7.336 5.980,7.236 5.804,6.646 5.231 C 6.276 4.872,6.132 4.758,5.980 4.706 C 5.746 4.627,5.515 4.624,5.305 4.699 M18.004 4.706 C 17.753 4.798,16.919 5.612,16.776 5.904 C 16.686 6.089,16.673 6.159,16.686 6.409 C 16.698 6.652,16.721 6.730,16.821 6.879 C 16.888 6.978,17.022 7.112,17.121 7.179 C 17.270 7.279,17.348 7.302,17.591 7.314 C 18.015 7.336,18.194 7.236,18.748 6.669 C 19.237 6.168,19.317 6.045,19.348 5.745 C 19.388 5.349,19.201 4.978,18.860 4.778 C 18.628 4.642,18.262 4.611,18.004 4.706 M11.384 6.041 C 9.298 6.279,7.555 7.492,6.623 9.353 C 5.814 10.966,5.814 13.034,6.623 14.647 C 6.948 15.296,7.282 15.742,8.028 16.524 C 8.877 17.412,8.955 17.589,9.002 18.760 C 9.027 19.401,9.050 19.597,9.128 19.861 C 9.407 20.807,10.184 21.584,11.139 21.875 C 11.412 21.958,11.542 21.973,12.000 21.973 C 12.458 21.973,12.588 21.958,12.861 21.875 C 13.816 21.584,14.593 20.807,14.872 19.861 C 14.950 19.599,14.973 19.397,15.000 18.760 C 15.049 17.580,15.122 17.413,15.973 16.523 C 16.730 15.730,17.058 15.289,17.390 14.620 C 18.086 13.217,18.178 11.454,17.633 9.960 C 17.097 8.489,16.043 7.321,14.605 6.602 C 14.240 6.419,13.481 6.177,13.045 6.104 C 12.569 6.024,11.792 5.995,11.384 6.041 M12.656 8.060 C 14.275 8.343,15.528 9.532,15.906 11.146 C 16.008 11.578,16.008 12.422,15.906 12.854 C 15.707 13.706,15.374 14.255,14.529 15.131 C 14.199 15.472,13.897 15.807,13.856 15.876 L 13.783 16.000 12.000 16.000 L 10.217 16.000 10.142 15.872 C 10.100 15.802,9.821 15.491,9.522 15.182 C 8.727 14.361,8.550 14.116,8.296 13.488 C 7.474 11.447,8.462 9.123,10.502 8.300 C 10.788 8.185,11.174 8.081,11.520 8.027 C 11.765 7.988,12.339 8.005,12.656 8.060 M2.673 11.063 C 2.312 11.174,2.000 11.609,2.000 12.000 C 2.000 12.402,2.312 12.827,2.690 12.939 C 2.974 13.024,4.026 13.024,4.310 12.939 C 4.688 12.827,5.000 12.402,5.000 12.000 C 5.000 11.598,4.688 11.173,4.310 11.061 C 4.035 10.979,2.941 10.981,2.673 11.063 M19.673 11.063 C 19.312 11.174,19.000 11.609,19.000 12.000 C 19.000 12.237,19.120 12.514,19.303 12.697 C 19.559 12.953,19.746 13.000,20.500 13.000 C 21.254 13.000,21.441 12.953,21.697 12.697 C 21.880 12.514,22.000 12.237,22.000 12.000 C 22.000 11.598,21.688 11.173,21.310 11.061 C 21.035 10.979,19.941 10.981,19.673 11.063 M13.008 18.570 C 13.000 18.883,12.977 19.205,12.957 19.284 C 12.903 19.497,12.709 19.740,12.492 19.867 C 12.327 19.964,12.257 19.980,12.000 19.980 C 11.743 19.980,11.673 19.964,11.508 19.867 C 11.291 19.740,11.097 19.497,11.043 19.284 C 11.023 19.205,11.000 18.883,10.992 18.570 L 10.978 18.000 12.000 18.000 L 13.022 18.000 13.008 18.570 " stroke="none" fill-rule="evenodd" fill="black"></path></svg>