<svg width="24" height="24" viewBox="0 0 24 24" fill="none" xmlns="http://www.w3.org/2000/svg"><path d="M14.540 2.023 C 13.713 2.103,13.194 2.216,12.529 2.463 C 10.164 3.339,8.441 5.489,8.075 8.020 C 8.004 8.511,8.013 9.693,8.091 10.100 L 8.152 10.420 5.243 13.340 C 2.586 16.007,2.323 16.282,2.210 16.520 C 2.018 16.925,2.000 17.116,2.002 18.757 C 2.005 20.442,2.023 20.589,2.281 21.017 C 2.448 21.294,2.787 21.618,3.071 21.772 C 3.453 21.978,3.664 21.999,5.463 21.999 C 7.360 22.000,7.399 21.995,7.697 21.697 C 7.948 21.446,8.000 21.249,8.000 20.553 L 8.000 20.000 8.553 20.000 C 9.249 20.000,9.446 19.948,9.697 19.697 C 9.948 19.446,10.000 19.249,10.000 18.556 L 10.000 18.007 10.630 17.993 C 11.149 17.982,11.288 17.966,11.420 17.903 C 11.517 17.856,11.975 17.435,12.580 16.837 L 13.580 15.849 13.900 15.909 C 14.307 15.987,15.490 15.995,15.980 15.925 C 19.067 15.479,21.485 13.061,21.924 9.980 C 21.990 9.517,21.990 8.483,21.924 8.020 C 21.599 5.737,20.170 3.765,18.087 2.722 C 17.536 2.447,16.745 2.197,16.120 2.101 C 15.726 2.041,14.820 1.997,14.540 2.023 M16.000 4.101 C 17.000 4.319,17.800 4.756,18.522 5.478 C 19.107 6.063,19.474 6.647,19.732 7.400 C 19.922 7.956,19.980 8.330,19.980 9.000 C 19.980 10.063,19.721 10.921,19.132 11.812 C 18.886 12.184,18.180 12.891,17.815 13.132 C 16.584 13.942,15.107 14.200,13.753 13.840 C 13.371 13.738,13.070 13.739,12.840 13.843 C 12.710 13.902,12.371 14.213,11.619 14.962 L 10.578 16.000 9.736 16.000 C 8.727 16.000,8.574 16.032,8.306 16.300 C 8.048 16.558,8.000 16.735,8.000 17.427 L 8.000 18.000 7.447 18.000 C 6.753 18.000,6.554 18.052,6.306 18.300 C 6.048 18.558,6.000 18.735,6.000 19.427 L 6.000 20.000 5.000 20.000 L 4.000 20.000 4.000 18.710 L 4.000 17.421 7.038 14.380 C 9.382 12.035,10.095 11.299,10.157 11.160 C 10.266 10.918,10.260 10.679,10.133 10.147 C 10.040 9.759,10.025 9.612,10.023 9.040 C 10.020 8.326,10.073 7.971,10.268 7.400 C 10.526 6.647,10.893 6.063,11.478 5.478 C 11.926 5.030,12.272 4.778,12.785 4.526 C 13.296 4.274,13.628 4.174,14.440 4.024 C 14.651 3.985,15.710 4.037,16.000 4.101 M14.673 6.060 C 14.308 6.178,14.000 6.608,14.000 7.000 C 14.000 7.354,14.271 7.773,14.585 7.905 C 14.661 7.936,14.860 7.980,15.028 8.001 C 15.619 8.076,15.993 8.454,15.998 8.983 C 16.004 9.523,16.473 10.000,17.000 10.000 C 17.413 10.000,17.829 9.687,17.945 9.289 C 18.107 8.732,17.843 7.746,17.378 7.176 C 17.077 6.807,16.711 6.505,16.314 6.299 C 15.855 6.061,15.039 5.942,14.673 6.060 " stroke="none" fill-rule="evenodd" fill="black"></path></svg>