<svg width="24" height="24" viewBox="0 0 24 24" fill="none" xmlns="http://www.w3.org/2000/svg"><path d="M9.420 2.023 C 9.354 2.032,9.129 2.060,8.920 2.084 C 7.351 2.265,5.721 3.046,4.505 4.200 C 3.786 4.883,3.253 5.609,2.817 6.501 C 1.340 9.521,1.914 13.128,4.256 15.554 C 6.390 17.766,9.619 18.555,12.548 17.581 C 13.127 17.389,14.009 16.948,14.500 16.607 L 14.900 16.330 17.680 19.101 C 20.370 21.784,20.467 21.875,20.677 21.936 C 20.948 22.016,21.052 22.016,21.310 21.939 C 21.589 21.856,21.856 21.589,21.939 21.310 C 22.016 21.052,22.016 20.948,21.936 20.677 C 21.875 20.467,21.784 20.370,19.101 17.680 L 16.330 14.900 16.607 14.500 C 16.948 14.009,17.389 13.127,17.581 12.548 C 18.454 9.923,17.909 7.002,16.154 4.900 C 14.890 3.386,13.148 2.397,11.218 2.099 C 10.829 2.039,9.659 1.989,9.420 2.023 M11.180 4.120 C 13.574 4.629,15.368 6.428,15.885 8.840 C 16.015 9.446,16.015 10.554,15.885 11.160 C 15.156 14.559,11.877 16.644,8.559 15.818 C 6.305 15.257,4.617 13.488,4.114 11.160 C 3.984 10.554,3.984 9.446,4.114 8.840 C 4.663 6.297,6.578 4.480,9.155 4.059 C 9.647 3.978,10.656 4.009,11.180 4.120 M9.673 6.063 C 9.429 6.138,9.150 6.414,9.064 6.666 C 9.012 6.820,9.000 7.048,9.000 7.927 L 9.000 9.000 7.947 9.000 C 6.706 9.000,6.584 9.022,6.306 9.300 C 5.902 9.704,5.902 10.296,6.306 10.700 C 6.584 10.978,6.706 11.000,7.947 11.000 L 9.000 11.000 9.000 12.073 C 9.000 13.315,9.018 13.412,9.306 13.700 C 9.486 13.879,9.764 14.000,10.000 14.000 C 10.237 14.000,10.514 13.880,10.697 13.697 C 10.978 13.416,11.000 13.297,11.000 12.053 L 11.000 11.000 12.053 11.000 C 13.297 11.000,13.416 10.978,13.697 10.697 C 13.880 10.514,14.000 10.237,14.000 10.000 C 14.000 9.763,13.880 9.486,13.697 9.303 C 13.416 9.022,13.297 9.000,12.053 9.000 L 11.000 9.000 11.000 7.947 C 11.000 6.703,10.978 6.584,10.697 6.303 C 10.418 6.024,10.067 5.942,9.673 6.063 " stroke="none" fill-rule="evenodd" fill="black"></path></svg>