<svg width="24" height="24" viewBox="0 0 24 24" fill="none" xmlns="http://www.w3.org/2000/svg"><path d="M2.673 3.063 C 2.310 3.175,2.000 3.606,2.000 4.000 C 2.000 4.405,2.309 4.826,2.690 4.939 C 2.802 4.973,2.918 5.000,2.947 5.000 C 2.991 5.000,3.000 5.998,3.002 10.630 C 3.005 16.909,2.988 16.531,3.281 17.017 C 3.448 17.294,3.787 17.618,4.071 17.772 C 4.472 17.989,4.603 17.999,7.198 17.999 L 9.576 18.000 8.354 19.230 C 7.279 20.312,7.124 20.484,7.066 20.657 C 7.030 20.766,7.000 20.920,7.000 21.000 C 7.000 21.405,7.309 21.826,7.690 21.939 C 7.949 22.016,8.053 22.016,8.323 21.936 C 8.530 21.875,8.616 21.797,10.270 20.148 L 12.000 18.423 13.730 20.148 C 15.384 21.797,15.470 21.875,15.677 21.936 C 15.947 22.016,16.051 22.016,16.310 21.939 C 16.589 21.856,16.856 21.589,16.939 21.310 C 17.016 21.051,17.016 20.947,16.936 20.677 C 16.875 20.472,16.801 20.390,15.648 19.230 L 14.424 18.000 16.802 17.999 C 19.395 17.999,19.525 17.989,19.931 17.772 C 20.199 17.629,20.629 17.199,20.772 16.931 C 21.005 16.494,20.999 16.682,20.999 10.590 C 21.000 5.990,21.009 5.000,21.053 5.000 C 21.082 5.000,21.198 4.973,21.310 4.939 C 21.688 4.827,22.000 4.402,22.000 4.000 C 22.000 3.598,21.688 3.173,21.310 3.061 C 21.129 3.007,20.039 3.000,11.983 3.003 C 4.160 3.005,2.833 3.014,2.673 3.063 M19.000 10.500 L 19.000 16.000 12.000 16.000 L 5.000 16.000 5.000 10.500 L 5.000 5.000 12.000 5.000 L 19.000 5.000 19.000 10.500 M15.673 7.063 C 15.429 7.138,15.150 7.414,15.064 7.666 C 15.008 7.831,15.000 8.178,15.000 10.500 C 15.000 13.494,14.989 13.383,15.306 13.700 C 15.486 13.879,15.764 14.000,16.000 14.000 C 16.237 14.000,16.514 13.880,16.697 13.697 C 17.008 13.386,17.000 13.468,17.000 10.500 C 17.000 7.532,17.008 7.614,16.697 7.303 C 16.418 7.024,16.067 6.942,15.673 7.063 M11.673 9.063 C 11.412 9.143,11.140 9.421,11.061 9.690 C 10.968 10.001,10.971 13.061,11.064 13.334 C 11.188 13.697,11.613 14.000,12.000 14.000 C 12.237 14.000,12.514 13.880,12.697 13.697 C 12.994 13.400,13.000 13.356,13.000 11.500 C 13.000 9.644,12.994 9.600,12.697 9.303 C 12.418 9.024,12.067 8.942,11.673 9.063 M7.673 11.063 C 7.429 11.138,7.150 11.414,7.064 11.666 C 7.016 11.808,7.000 12.013,7.000 12.500 C 7.000 13.272,7.042 13.436,7.306 13.700 C 7.486 13.879,7.764 14.000,8.000 14.000 C 8.402 14.000,8.827 13.688,8.939 13.310 C 9.024 13.026,9.024 11.974,8.939 11.690 C 8.856 11.411,8.589 11.144,8.310 11.061 C 8.062 10.987,7.919 10.988,7.673 11.063 " stroke="none" fill-rule="evenodd" fill="black"></path></svg>