<svg width="24" height="24" viewBox="0 0 24 24" fill="none" xmlns="http://www.w3.org/2000/svg"><path d="M11.675 2.063 C 11.460 2.129,11.184 2.378,11.088 2.593 C 11.037 2.706,11.017 2.918,11.001 3.517 L 10.980 4.293 8.491 5.123 L 6.001 5.953 4.571 5.475 C 3.281 5.043,3.119 4.998,2.927 5.015 C 2.161 5.085,1.765 5.902,2.178 6.558 C 2.234 6.645,2.344 6.761,2.424 6.815 C 2.504 6.869,3.040 7.071,3.615 7.262 C 4.190 7.454,4.673 7.623,4.689 7.637 C 4.706 7.651,4.107 9.498,3.360 11.741 C 2.455 14.455,2.000 15.875,2.000 15.985 C 2.000 16.188,2.090 16.454,2.216 16.618 C 2.339 16.779,2.893 17.150,3.357 17.380 C 4.539 17.969,5.940 18.138,7.300 17.857 C 7.859 17.741,8.458 17.506,9.000 17.191 C 9.734 16.763,9.956 16.512,9.987 16.072 C 10.004 15.828,9.963 15.697,8.643 11.741 C 7.894 9.498,7.294 7.651,7.311 7.636 C 7.327 7.622,8.141 7.344,9.120 7.019 C 10.099 6.694,10.922 6.420,10.950 6.410 C 10.990 6.395,11.000 7.769,11.000 13.196 L 11.000 20.000 9.947 20.000 C 8.706 20.000,8.584 20.022,8.306 20.300 C 7.902 20.704,7.902 21.296,8.306 21.700 C 8.618 22.011,8.480 22.000,12.000 22.000 C 15.525 22.000,15.382 22.012,15.697 21.697 C 15.880 21.514,16.000 21.237,16.000 21.000 C 16.000 20.763,15.880 20.486,15.697 20.303 C 15.416 20.022,15.297 20.000,14.053 20.000 L 13.000 20.000 13.000 13.196 C 13.000 7.769,13.010 6.395,13.050 6.410 C 13.078 6.420,13.901 6.694,14.880 7.019 C 15.859 7.344,16.673 7.622,16.689 7.636 C 16.706 7.651,16.107 9.498,15.360 11.741 C 14.455 14.455,14.000 15.875,14.000 15.985 C 14.000 16.188,14.090 16.454,14.216 16.618 C 14.339 16.779,14.893 17.150,15.357 17.380 C 16.539 17.969,17.940 18.138,19.300 17.857 C 19.859 17.741,20.458 17.506,21.000 17.191 C 21.734 16.763,21.956 16.512,21.987 16.072 C 22.004 15.828,21.963 15.697,20.643 11.741 C 19.894 9.498,19.294 7.651,19.311 7.637 C 19.327 7.623,19.810 7.454,20.385 7.262 C 20.960 7.071,21.496 6.869,21.576 6.815 C 21.656 6.761,21.766 6.645,21.822 6.558 C 22.235 5.902,21.839 5.085,21.073 5.015 C 20.881 4.998,20.719 5.043,19.429 5.475 L 17.999 5.953 15.509 5.123 L 13.020 4.293 12.999 3.517 C 12.975 2.637,12.953 2.549,12.679 2.283 C 12.412 2.024,12.054 1.946,11.675 2.063 M6.910 12.908 C 7.570 14.890,7.786 15.584,7.749 15.608 C 7.657 15.667,7.261 15.807,6.960 15.887 C 6.531 16.000,5.798 16.026,5.334 15.945 C 5.012 15.889,4.389 15.695,4.251 15.607 C 4.214 15.584,4.432 14.885,5.090 12.908 C 5.580 11.441,5.989 10.240,6.000 10.240 C 6.011 10.240,6.420 11.441,6.910 12.908 M18.910 12.908 C 19.570 14.890,19.786 15.584,19.749 15.608 C 19.657 15.667,19.261 15.807,18.960 15.887 C 18.531 16.000,17.798 16.026,17.334 15.945 C 17.012 15.889,16.389 15.695,16.251 15.607 C 16.214 15.584,16.432 14.885,17.090 12.908 C 17.580 11.441,17.989 10.240,18.000 10.240 C 18.011 10.240,18.420 11.441,18.910 12.908 " stroke="none" fill-rule="evenodd" fill="black"></path></svg>