<svg width="24" height="24" viewBox="0 0 24 24" fill="none" xmlns="http://www.w3.org/2000/svg"><path d="M9.506 2.042 C 8.572 2.199,7.752 2.807,7.313 3.670 L 7.145 4.000 6.463 4.000 C 5.476 4.001,5.016 4.094,4.519 4.394 C 3.819 4.818,3.321 5.448,3.112 6.178 L 3.020 6.500 3.020 13.000 L 3.020 19.500 3.112 19.822 C 3.391 20.796,4.204 21.609,5.178 21.888 L 5.500 21.980 11.000 21.980 L 16.500 21.980 16.822 21.888 C 17.785 21.612,18.583 20.824,18.874 19.861 C 18.959 19.581,18.974 19.438,18.990 18.736 C 19.013 17.754,18.979 17.585,18.697 17.304 C 18.514 17.120,18.238 17.000,18.000 17.000 C 17.777 17.000,17.490 17.120,17.321 17.283 C 17.048 17.549,17.025 17.636,17.001 18.520 C 16.980 19.286,16.978 19.304,16.867 19.492 C 16.739 19.710,16.498 19.901,16.277 19.961 C 16.179 19.987,14.337 19.998,10.914 19.991 L 5.700 19.980 5.511 19.869 C 5.298 19.744,5.136 19.551,5.057 19.330 C 4.978 19.108,4.978 6.892,5.057 6.670 C 5.136 6.449,5.298 6.256,5.511 6.131 C 5.696 6.022,5.716 6.020,6.421 6.007 L 7.142 5.994 7.311 6.327 C 7.695 7.082,8.389 7.662,9.178 7.888 C 9.488 7.977,9.554 7.980,11.000 7.980 C 12.446 7.980,12.512 7.977,12.822 7.888 C 13.611 7.662,14.305 7.082,14.689 6.327 L 14.858 5.994 15.579 6.007 C 16.284 6.020,16.304 6.022,16.489 6.131 C 16.592 6.192,16.725 6.304,16.783 6.381 C 16.992 6.655,16.996 6.694,16.998 8.483 C 17.000 10.380,17.003 10.396,17.306 10.700 C 17.486 10.879,17.764 11.000,18.000 11.000 C 18.238 11.000,18.514 10.880,18.697 10.696 C 19.005 10.389,19.008 10.367,18.990 8.271 C 18.975 6.533,18.971 6.448,18.885 6.157 C 18.671 5.440,18.171 4.812,17.481 4.394 C 16.984 4.094,16.524 4.001,15.537 4.000 L 14.855 4.000 14.687 3.670 C 14.241 2.793,13.428 2.197,12.467 2.041 C 12.177 1.994,9.789 1.995,9.506 2.042 M12.503 4.141 C 13.156 4.543,13.156 5.457,12.503 5.859 L 12.306 5.980 11.096 5.992 C 10.335 6.000,9.826 5.989,9.728 5.962 C 9.502 5.901,9.262 5.712,9.133 5.492 C 9.036 5.327,9.020 5.257,9.020 5.000 C 9.020 4.744,9.036 4.672,9.131 4.511 C 9.192 4.408,9.304 4.275,9.381 4.217 C 9.653 4.009,9.720 4.001,11.063 4.011 L 12.306 4.020 12.503 4.141 M12.660 10.066 C 12.476 10.122,12.330 10.257,10.795 11.793 C 9.302 13.288,9.124 13.480,9.065 13.657 C 8.983 13.906,8.983 14.094,9.065 14.343 C 9.124 14.520,9.302 14.712,10.795 16.207 C 12.390 17.803,12.469 17.876,12.677 17.937 C 12.948 18.016,13.052 18.016,13.310 17.939 C 13.589 17.856,13.856 17.589,13.939 17.310 C 14.016 17.052,14.016 16.947,13.936 16.680 C 13.878 16.485,13.805 16.397,13.149 15.733 L 12.426 15.000 16.266 15.000 C 20.610 15.000,20.378 15.016,20.697 14.697 C 20.880 14.514,21.000 14.237,21.000 14.000 C 21.000 13.763,20.880 13.486,20.697 13.303 C 20.378 12.984,20.610 13.000,16.266 13.000 L 12.426 13.000 13.149 12.267 C 13.805 11.603,13.878 11.515,13.936 11.320 C 14.016 11.053,14.016 10.948,13.939 10.690 C 13.825 10.304,13.392 9.993,12.983 10.003 C 12.915 10.004,12.770 10.033,12.660 10.066 " stroke="none" fill-rule="evenodd" fill="black"></path></svg>