<svg width="24" height="24" viewBox="0 0 24 24" fill="none" xmlns="http://www.w3.org/2000/svg"><path d="M4.530 3.061 C 3.859 3.206,3.251 3.798,3.073 4.477 C 2.972 4.866,2.972 7.134,3.073 7.523 C 3.253 8.212,3.860 8.795,4.549 8.941 C 4.955 9.027,19.045 9.027,19.451 8.941 C 19.822 8.863,20.092 8.709,20.401 8.401 C 20.940 7.862,20.999 7.624,20.999 6.000 C 20.999 4.376,20.940 4.138,20.401 3.599 C 20.092 3.291,19.822 3.137,19.451 3.059 C 19.058 2.976,4.914 2.977,4.530 3.061 M19.000 6.000 L 19.000 7.000 12.000 7.000 L 5.000 7.000 5.000 6.000 L 5.000 5.000 12.000 5.000 L 19.000 5.000 19.000 6.000 M4.530 11.061 C 3.859 11.206,3.251 11.798,3.073 12.477 C 3.011 12.715,3.005 13.047,3.005 16.000 C 3.005 18.953,3.011 19.285,3.073 19.523 C 3.253 20.212,3.860 20.795,4.549 20.941 C 4.950 21.026,11.050 21.026,11.451 20.941 C 11.822 20.863,12.092 20.709,12.401 20.401 C 12.709 20.092,12.863 19.822,12.941 19.451 C 13.026 19.050,13.026 12.950,12.941 12.549 C 12.863 12.178,12.709 11.908,12.401 11.599 C 12.092 11.291,11.822 11.137,11.451 11.059 C 11.064 10.977,4.909 10.978,4.530 11.061 M16.530 11.061 C 15.859 11.206,15.251 11.798,15.073 12.477 C 15.011 12.715,15.005 13.047,15.005 16.000 C 15.005 18.953,15.011 19.285,15.073 19.523 C 15.253 20.212,15.860 20.795,16.549 20.941 C 16.933 21.023,19.067 21.023,19.451 20.941 C 19.822 20.863,20.092 20.709,20.401 20.401 C 20.709 20.092,20.863 19.822,20.941 19.451 C 21.026 19.050,21.026 12.950,20.941 12.549 C 20.863 12.178,20.709 11.908,20.401 11.599 C 20.092 11.291,19.822 11.137,19.451 11.059 C 19.080 10.980,16.895 10.981,16.530 11.061 M11.000 16.000 L 11.000 19.000 8.000 19.000 L 5.000 19.000 5.000 16.000 L 5.000 13.000 8.000 13.000 L 11.000 13.000 11.000 16.000 M19.000 16.000 L 19.000 19.000 18.000 19.000 L 17.000 19.000 17.000 16.000 L 17.000 13.000 18.000 13.000 L 19.000 13.000 19.000 16.000 " stroke="none" fill-rule="evenodd" fill="black"></path></svg>