<svg width="24" height="24" viewBox="0 0 24 24" fill="none" xmlns="http://www.w3.org/2000/svg"><path d="M11.100 2.041 C 9.341 2.219,7.729 2.802,6.335 3.767 C 3.070 6.025,1.454 9.944,2.178 13.846 C 2.468 15.412,3.137 16.886,4.154 18.200 C 4.493 18.637,5.363 19.507,5.800 19.846 C 8.241 21.735,11.253 22.412,14.240 21.741 C 17.932 20.912,20.910 17.933,21.741 14.240 C 21.929 13.402,21.977 12.954,21.977 12.000 C 21.977 11.046,21.929 10.598,21.741 9.760 C 21.274 7.685,20.065 5.706,18.437 4.354 C 16.934 3.106,15.158 2.329,13.240 2.080 C 12.775 2.019,11.539 1.997,11.100 2.041 M12.832 4.042 C 14.361 4.210,15.851 4.828,17.040 5.789 C 17.394 6.075,18.067 6.761,18.326 7.100 C 19.406 8.514,20.000 10.253,20.000 12.000 C 20.000 13.810,19.358 15.619,18.211 17.041 C 17.900 17.426,17.184 18.117,16.800 18.402 C 13.933 20.529,10.067 20.529,7.200 18.402 C 6.816 18.117,6.100 17.426,5.789 17.041 C 3.835 14.619,3.452 11.319,4.800 8.529 C 5.197 7.706,5.611 7.114,6.259 6.446 C 6.951 5.730,7.648 5.225,8.526 4.801 C 9.865 4.154,11.392 3.885,12.832 4.042 M7.673 11.063 C 7.310 11.175,7.000 11.606,7.000 12.000 C 7.000 12.415,7.310 12.828,7.710 12.944 C 8.209 13.090,8.693 12.878,8.905 12.422 C 9.160 11.874,8.875 11.230,8.303 11.059 C 8.062 10.987,7.917 10.988,7.673 11.063 M11.673 11.063 C 11.304 11.177,11.000 11.609,11.000 12.020 C 11.000 12.415,11.319 12.831,11.710 12.944 C 12.209 13.090,12.693 12.878,12.905 12.422 C 13.160 11.874,12.875 11.230,12.303 11.059 C 12.062 10.987,11.917 10.988,11.673 11.063 M15.673 11.063 C 15.310 11.175,15.000 11.606,15.000 12.000 C 15.000 12.415,15.310 12.828,15.710 12.944 C 16.209 13.090,16.693 12.878,16.905 12.422 C 17.160 11.874,16.875 11.230,16.303 11.059 C 16.062 10.987,15.917 10.988,15.673 11.063 " stroke="none" fill-rule="evenodd" fill="black"></path></svg>