<svg width="24" height="24" viewBox="0 0 24 24" fill="none" xmlns="http://www.w3.org/2000/svg"><path d="M11.660 2.066 C 11.472 2.122,11.188 2.398,6.795 6.793 C 2.508 11.081,2.124 11.476,2.065 11.657 C 2.029 11.766,2.000 11.920,2.000 12.000 C 2.000 12.405,2.309 12.826,2.690 12.939 C 3.098 13.060,3.394 12.982,3.752 12.657 L 4.000 12.433 4.002 16.347 C 4.005 20.710,3.995 20.542,4.281 21.017 C 4.448 21.294,4.787 21.618,5.071 21.772 C 5.505 22.007,5.261 21.999,12.000 21.999 C 18.736 21.999,18.492 22.007,18.931 21.772 C 19.199 21.629,19.629 21.199,19.772 20.931 C 20.000 20.505,19.999 20.526,19.999 16.307 L 20.000 12.433 20.248 12.657 C 20.495 12.881,20.756 13.000,21.000 13.000 C 21.402 13.000,21.827 12.688,21.939 12.310 C 22.016 12.052,22.016 11.948,21.937 11.677 C 21.875 11.465,21.766 11.352,17.207 6.793 C 12.648 2.234,12.535 2.125,12.323 2.063 C 12.059 1.987,11.922 1.987,11.660 2.066 M15.010 7.430 L 18.000 10.420 18.000 15.210 L 18.000 20.000 16.500 20.000 L 15.000 20.000 14.999 17.910 C 14.999 15.629,14.986 15.469,14.772 15.069 C 14.629 14.801,14.199 14.371,13.931 14.228 C 13.565 14.032,13.300 14.001,12.000 14.001 C 10.699 14.001,10.432 14.033,10.071 14.228 C 9.787 14.382,9.448 14.706,9.281 14.983 C 9.011 15.432,9.005 15.491,9.002 17.870 L 9.000 20.000 7.500 20.000 L 6.000 20.000 6.000 15.210 L 6.000 10.420 8.990 7.430 C 10.634 5.786,11.989 4.440,12.000 4.440 C 12.011 4.440,13.365 5.785,15.010 7.430 M13.000 18.000 L 13.000 20.000 12.000 20.000 L 11.000 20.000 11.000 18.000 L 11.000 16.000 12.000 16.000 L 13.000 16.000 13.000 18.000 " stroke="none" fill-rule="evenodd" fill="black"></path></svg>