<svg width="24" height="24" viewBox="0 0 24 24" fill="none" xmlns="http://www.w3.org/2000/svg"><path d="M11.660 7.066 C 11.472 7.122,11.235 7.351,7.795 10.793 C 4.439 14.150,4.124 14.477,4.065 14.657 C 4.029 14.766,4.000 14.920,4.000 15.000 C 4.000 15.405,4.309 15.826,4.690 15.939 C 4.948 16.016,5.052 16.016,5.323 15.937 C 5.534 15.875,5.634 15.780,8.770 12.647 L 12.000 9.422 15.230 12.647 C 18.366 15.780,18.466 15.875,18.677 15.937 C 18.948 16.016,19.052 16.016,19.310 15.939 C 19.589 15.856,19.856 15.589,19.939 15.310 C 20.016 15.052,20.016 14.948,19.937 14.677 C 19.875 14.466,19.778 14.365,16.207 10.793 C 12.635 7.222,12.534 7.125,12.323 7.063 C 12.059 6.987,11.922 6.987,11.660 7.066 " stroke="none" fill-rule="evenodd" fill="black"></path></svg>