<svg width="24" height="24" viewBox="0 0 24 24" fill="none" xmlns="http://www.w3.org/2000/svg"><path d="M11.360 2.024 C 10.111 2.136,9.094 2.413,8.045 2.927 C 7.354 3.265,7.159 3.434,7.057 3.783 C 6.869 4.432,7.321 5.052,7.985 5.054 C 8.207 5.055,8.285 5.028,8.865 4.751 C 9.911 4.250,10.684 4.051,11.740 4.013 C 13.701 3.941,15.551 4.669,16.941 6.059 C 18.010 7.128,18.670 8.431,18.927 9.980 C 18.963 10.195,18.979 10.660,18.977 11.400 C 18.971 13.447,18.704 15.382,18.121 17.599 C 17.981 18.130,17.978 18.172,18.065 18.429 C 18.314 19.165,19.245 19.360,19.753 18.782 C 19.922 18.589,19.930 18.567,20.161 17.660 C 20.709 15.507,20.970 13.464,20.977 11.280 C 20.980 10.071,20.939 9.671,20.721 8.795 C 19.852 5.305,16.903 2.639,13.320 2.101 C 12.908 2.039,11.715 1.992,11.360 2.024 M4.747 6.063 C 4.443 6.160,4.251 6.385,3.946 7.004 C 3.305 8.304,3.073 9.295,3.001 11.046 C 2.939 12.550,2.747 13.444,2.232 14.633 C 1.998 15.173,1.963 15.387,2.060 15.681 C 2.254 16.265,2.969 16.533,3.501 16.222 C 3.732 16.086,3.835 15.943,4.051 15.460 C 4.672 14.067,4.923 12.896,4.999 11.026 C 5.055 9.638,5.244 8.867,5.789 7.784 C 6.034 7.299,6.054 7.241,6.054 7.000 C 6.055 6.318,5.406 5.853,4.747 6.063 M11.580 6.023 C 11.015 6.102,10.810 6.144,10.480 6.248 C 8.727 6.800,7.381 8.347,7.076 10.160 C 7.055 10.281,7.021 10.760,7.000 11.224 C 6.957 12.181,6.908 12.676,6.800 13.280 C 6.515 14.872,6.035 16.157,5.167 17.654 C 4.990 17.959,4.834 18.278,4.820 18.362 C 4.805 18.447,4.814 18.617,4.840 18.739 C 4.966 19.345,5.640 19.690,6.200 19.437 C 6.460 19.319,6.577 19.192,6.857 18.720 C 7.859 17.035,8.479 15.370,8.779 13.560 C 8.904 12.805,8.954 12.286,8.998 11.260 C 9.027 10.583,9.051 10.366,9.121 10.140 C 9.420 9.175,10.182 8.418,11.160 8.114 C 11.594 7.979,12.406 7.979,12.840 8.114 C 13.817 8.418,14.576 9.171,14.880 10.140 C 15.040 10.648,15.029 11.993,14.854 13.471 C 14.781 14.089,14.800 14.281,14.961 14.535 C 15.292 15.056,16.035 15.147,16.475 14.720 C 16.565 14.633,16.667 14.494,16.703 14.411 C 16.792 14.202,16.908 13.159,16.966 12.045 C 17.051 10.432,16.919 9.628,16.418 8.686 C 15.696 7.328,14.422 6.380,12.945 6.099 C 12.620 6.038,11.802 5.992,11.580 6.023 M11.673 10.063 C 11.429 10.138,11.150 10.414,11.064 10.666 C 11.022 10.790,11.000 10.993,11.000 11.259 C 11.000 11.796,10.937 12.602,10.837 13.340 C 10.535 15.560,9.778 17.715,8.590 19.731 C 8.259 20.293,8.211 20.460,8.282 20.794 C 8.412 21.399,9.092 21.730,9.660 21.466 C 9.926 21.342,10.047 21.197,10.429 20.536 C 11.933 17.936,12.760 15.192,12.960 12.140 C 13.042 10.876,13.004 10.610,12.697 10.303 C 12.418 10.024,12.067 9.942,11.673 10.063 M14.937 16.038 C 14.596 16.119,14.292 16.419,14.199 16.766 C 13.983 17.566,13.486 18.887,13.015 19.909 C 12.675 20.648,12.633 20.838,12.740 21.161 C 12.912 21.678,13.483 21.957,14.005 21.779 C 14.325 21.670,14.456 21.522,14.724 20.967 C 15.396 19.578,16.160 17.454,16.160 16.975 C 16.160 16.362,15.547 15.892,14.937 16.038 " stroke="none" fill-rule="evenodd" fill="black"></path></svg>