<svg width="24" height="24" viewBox="0 0 24 24" fill="none" xmlns="http://www.w3.org/2000/svg"><path d="M8.673 4.063 C 8.429 4.138,8.150 4.414,8.064 4.666 C 7.983 4.905,7.983 5.094,8.065 5.343 C 8.125 5.523,8.414 5.824,11.354 8.770 L 14.578 12.000 11.354 15.230 C 8.414 18.176,8.125 18.477,8.065 18.657 C 8.029 18.766,8.000 18.920,8.000 19.000 C 8.000 19.405,8.309 19.826,8.690 19.939 C 8.948 20.016,9.052 20.016,9.323 19.937 C 9.534 19.875,9.635 19.778,13.207 16.207 C 16.778 12.635,16.875 12.534,16.937 12.323 C 17.016 12.051,17.016 11.949,16.937 11.677 C 16.875 11.466,16.778 11.365,13.207 7.793 C 9.635 4.222,9.534 4.125,9.323 4.063 C 9.061 3.987,8.920 3.987,8.673 4.063 " stroke="none" fill-rule="evenodd" fill="black"></path></svg>