<svg width="24" height="24" viewBox="0 0 24 24" fill="none" xmlns="http://www.w3.org/2000/svg"><path d="M11.060 4.046 C 7.411 4.361,4.145 6.489,2.364 9.712 C 1.888 10.572,1.480 11.629,1.480 12.000 C 1.480 12.519,2.124 13.981,2.818 15.040 C 4.318 17.327,6.727 19.033,9.360 19.675 C 10.305 19.905,10.908 19.973,12.000 19.973 C 12.809 19.973,13.081 19.958,13.560 19.885 C 16.031 19.509,18.199 18.398,19.894 16.640 C 21.024 15.468,21.814 14.197,22.364 12.667 C 22.571 12.091,22.571 11.909,22.364 11.333 C 21.815 9.804,21.026 8.534,19.892 7.359 C 17.605 4.986,14.341 3.762,11.060 4.046 M12.980 6.059 C 15.670 6.363,17.977 7.775,19.522 10.063 C 19.771 10.431,20.217 11.291,20.376 11.710 L 20.487 12.000 20.376 12.290 C 20.316 12.450,20.147 12.814,20.001 13.100 C 19.567 13.952,19.059 14.653,18.390 15.322 C 17.626 16.087,16.885 16.620,15.940 17.083 C 11.863 19.081,6.962 17.717,4.444 13.883 C 4.177 13.476,3.727 12.593,3.603 12.230 C 3.525 12.001,3.525 11.999,3.603 11.770 C 3.646 11.643,3.798 11.304,3.941 11.014 C 5.608 7.631,9.244 5.638,12.980 6.059 M11.378 8.058 C 10.145 8.250,9.030 9.054,8.464 10.160 C 8.233 10.611,8.129 10.930,8.058 11.395 C 7.986 11.879,7.986 12.121,8.058 12.605 C 8.247 13.855,9.042 14.964,10.160 15.536 C 10.347 15.632,10.615 15.749,10.755 15.797 C 11.050 15.897,11.680 16.000,12.000 16.000 C 12.320 16.000,12.950 15.897,13.245 15.797 C 14.229 15.462,15.076 14.739,15.536 13.840 C 15.767 13.389,15.871 13.070,15.942 12.605 C 16.014 12.121,16.014 11.879,15.942 11.395 C 15.614 9.220,13.561 7.719,11.378 8.058 M12.492 10.060 C 13.215 10.248,13.825 10.886,13.959 11.596 C 14.091 12.289,13.901 12.907,13.404 13.404 C 13.001 13.807,12.546 14.000,12.000 14.000 C 11.454 14.000,10.999 13.807,10.596 13.404 C 10.193 13.001,10.000 12.546,10.000 12.000 C 10.000 11.454,10.193 10.999,10.596 10.596 C 11.000 10.191,11.429 10.008,11.982 10.003 C 12.136 10.001,12.366 10.027,12.492 10.060 " stroke="none" fill-rule="evenodd" fill="black"></path></svg>