<svg width="24" height="24" viewBox="0 0 24 24" fill="none" xmlns="http://www.w3.org/2000/svg"><path d="M11.480 2.053 C 11.179 2.125,11.015 2.202,10.776 2.385 C 10.267 2.774,10.002 3.300,10.001 3.927 C 10.000 4.229,9.907 4.656,9.780 4.945 C 9.723 5.074,9.106 6.039,8.408 7.089 L 7.140 8.998 5.960 8.999 C 4.444 9.001,4.070 9.061,3.519 9.394 C 2.819 9.818,2.321 10.448,2.112 11.178 L 2.020 11.500 2.020 15.000 L 2.020 18.500 2.112 18.822 C 2.388 19.785,3.173 20.580,4.139 20.875 C 4.441 20.967,4.535 20.975,5.740 20.998 L 7.020 21.024 8.880 21.502 L 10.740 21.980 13.240 21.980 C 15.731 21.980,15.741 21.980,16.058 21.888 C 16.664 21.712,17.180 21.375,17.582 20.890 C 17.772 20.662,18.098 20.038,19.697 16.840 C 21.693 12.848,21.703 12.826,21.747 12.182 C 21.833 10.958,21.110 9.767,19.979 9.270 C 19.418 9.023,19.450 9.026,17.132 9.010 L 15.004 8.995 14.990 6.727 C 14.977 4.507,14.974 4.454,14.886 4.160 C 14.591 3.186,13.791 2.390,12.834 2.119 C 12.461 2.014,11.784 1.981,11.480 2.053 M12.509 4.143 C 12.703 4.257,12.866 4.455,12.943 4.670 C 12.985 4.788,12.997 5.269,12.998 6.910 L 13.000 9.000 12.447 9.000 C 11.751 9.000,11.554 9.052,11.303 9.303 C 10.903 9.703,10.905 10.298,11.306 10.700 C 11.620 11.014,11.434 11.000,15.397 11.000 C 17.687 11.000,18.952 11.015,19.049 11.042 C 19.443 11.151,19.760 11.579,19.760 12.003 C 19.760 12.231,19.717 12.323,17.924 15.912 C 16.243 19.275,16.072 19.600,15.906 19.746 C 15.806 19.834,15.654 19.927,15.568 19.953 C 15.456 19.986,14.794 20.000,13.275 20.001 L 11.140 20.002 9.570 19.612 L 8.000 19.221 8.000 15.260 L 8.000 11.300 9.652 8.820 C 10.561 7.456,11.361 6.241,11.430 6.120 C 11.717 5.614,11.919 4.943,11.981 4.286 L 12.009 3.991 12.175 4.018 C 12.266 4.032,12.416 4.089,12.509 4.143 M6.000 15.003 L 6.000 19.007 5.350 18.993 C 4.721 18.980,4.694 18.976,4.508 18.867 C 4.290 18.739,4.099 18.498,4.039 18.276 C 4.012 18.177,4.002 17.005,4.009 14.912 L 4.020 11.700 4.131 11.511 C 4.256 11.298,4.449 11.136,4.670 11.057 C 4.768 11.022,5.023 11.003,5.410 11.002 L 6.000 11.000 6.000 15.003 " stroke="none" fill-rule="evenodd" fill="black"></path></svg>