<svg width="24" height="24" viewBox="0 0 24 24" fill="none" xmlns="http://www.w3.org/2000/svg"><path d="M4.530 10.061 C 3.859 10.206,3.251 10.798,3.073 11.477 C 2.707 12.881,3.879 14.186,5.310 13.967 C 5.743 13.901,6.079 13.727,6.403 13.403 C 6.873 12.934,7.067 12.343,6.967 11.690 C 6.900 11.256,6.727 10.920,6.403 10.599 C 6.091 10.291,5.821 10.137,5.451 10.059 C 5.120 9.989,4.859 9.989,4.530 10.061 M11.530 10.061 C 10.859 10.206,10.251 10.798,10.073 11.477 C 9.707 12.881,10.879 14.186,12.310 13.967 C 12.743 13.901,13.079 13.727,13.403 13.403 C 13.873 12.934,14.067 12.343,13.967 11.690 C 13.900 11.256,13.727 10.920,13.403 10.599 C 13.091 10.291,12.821 10.137,12.451 10.059 C 12.120 9.989,11.859 9.989,11.530 10.061 M18.530 10.061 C 17.859 10.206,17.251 10.798,17.073 11.477 C 16.707 12.881,17.879 14.186,19.310 13.967 C 19.743 13.901,20.079 13.727,20.403 13.403 C 20.873 12.934,21.067 12.343,20.967 11.690 C 20.900 11.256,20.727 10.920,20.403 10.599 C 20.091 10.291,19.821 10.137,19.451 10.059 C 19.120 9.989,18.859 9.989,18.530 10.061 " stroke="none" fill-rule="evenodd" fill="black"></path></svg>