<svg width="24" height="24" viewBox="0 0 24 24" fill="none" xmlns="http://www.w3.org/2000/svg"><path d="M11.100 2.041 C 9.341 2.219,7.729 2.802,6.335 3.767 C 3.070 6.025,1.454 9.944,2.178 13.846 C 2.468 15.412,3.137 16.886,4.154 18.200 C 4.493 18.637,5.363 19.507,5.800 19.846 C 8.241 21.735,11.253 22.412,14.240 21.741 C 17.932 20.912,20.910 17.933,21.741 14.240 C 21.929 13.402,21.977 12.954,21.977 12.000 C 21.977 11.046,21.929 10.598,21.741 9.760 C 21.274 7.685,20.065 5.706,18.437 4.354 C 16.934 3.106,15.158 2.329,13.240 2.080 C 12.775 2.019,11.539 1.997,11.100 2.041 M12.832 4.042 C 14.361 4.210,15.851 4.828,17.040 5.789 C 17.394 6.075,18.067 6.761,18.326 7.100 C 19.406 8.514,20.000 10.253,20.000 12.000 C 20.000 13.810,19.358 15.619,18.211 17.041 C 17.900 17.426,17.184 18.117,16.800 18.402 C 13.933 20.529,10.067 20.529,7.200 18.402 C 6.816 18.117,6.100 17.426,5.789 17.041 C 3.835 14.619,3.452 11.319,4.800 8.529 C 5.197 7.706,5.611 7.114,6.259 6.446 C 6.951 5.730,7.648 5.225,8.526 4.801 C 9.865 4.154,11.392 3.885,12.832 4.042 M11.673 7.063 C 11.304 7.177,11.000 7.609,11.000 8.020 C 11.000 8.415,11.319 8.831,11.710 8.944 C 12.209 9.090,12.693 8.878,12.905 8.422 C 13.160 7.874,12.875 7.230,12.303 7.059 C 12.062 6.987,11.917 6.988,11.673 7.063 M10.673 11.063 C 10.310 11.175,10.000 11.606,10.000 12.000 C 10.000 12.405,10.309 12.826,10.690 12.939 C 10.802 12.973,10.918 13.000,10.947 13.000 C 10.990 13.000,11.000 13.298,11.000 14.573 C 11.000 16.370,11.004 16.398,11.306 16.700 C 11.559 16.952,11.749 17.000,12.500 17.000 C 13.254 17.000,13.441 16.953,13.697 16.697 C 13.880 16.514,14.000 16.237,14.000 16.000 C 14.000 15.598,13.688 15.173,13.310 15.061 C 13.198 15.027,13.082 15.000,13.053 15.000 C 13.010 15.000,13.000 14.706,13.000 13.447 C 13.000 11.650,12.993 11.599,12.697 11.303 C 12.438 11.045,12.255 10.999,11.483 11.003 C 11.061 11.005,10.800 11.024,10.673 11.063 " stroke="none" fill-rule="evenodd" fill="black"></path></svg>