<svg width="24" height="24" viewBox="0 0 24 24" fill="none" xmlns="http://www.w3.org/2000/svg"><path d="M13.673 2.063 C 13.429 2.138,13.150 2.414,13.064 2.666 C 13.007 2.833,13.000 3.238,13.000 6.214 L 13.000 9.574 12.267 8.851 C 11.603 8.195,11.515 8.122,11.320 8.064 C 11.053 7.984,10.948 7.984,10.690 8.061 C 10.309 8.174,10.000 8.595,10.000 9.000 C 10.000 9.080,10.029 9.234,10.065 9.343 C 10.124 9.520,10.302 9.712,11.795 11.207 C 13.390 12.803,13.469 12.876,13.677 12.937 C 13.949 13.016,14.051 13.016,14.323 12.937 C 14.531 12.876,14.611 12.802,16.207 11.207 C 17.802 9.611,17.876 9.531,17.937 9.323 C 18.016 9.052,18.016 8.948,17.939 8.690 C 17.856 8.411,17.589 8.144,17.310 8.061 C 17.052 7.984,16.947 7.984,16.680 8.064 C 16.485 8.122,16.397 8.195,15.733 8.851 L 15.000 9.574 15.000 6.234 C 15.000 2.448,15.013 2.620,14.697 2.303 C 14.418 2.024,14.067 1.942,13.673 2.063 M8.506 4.042 C 7.381 4.231,6.418 5.091,6.115 6.178 C 6.041 6.444,6.022 6.631,6.008 7.250 L 5.991 8.000 5.386 8.000 C 4.480 8.001,4.004 8.101,3.519 8.394 C 2.819 8.818,2.321 9.448,2.112 10.178 L 2.020 10.500 2.020 14.500 L 2.020 18.500 2.112 18.822 C 2.391 19.796,3.204 20.609,4.178 20.888 L 4.500 20.980 10.000 20.980 L 15.500 20.980 15.822 20.888 C 16.785 20.612,17.584 19.823,17.874 18.861 C 17.957 18.585,17.973 18.433,17.990 17.775 L 18.009 17.009 18.775 16.990 C 19.433 16.973,19.585 16.957,19.861 16.874 C 20.823 16.584,21.612 15.785,21.888 14.822 L 21.980 14.500 21.980 10.500 L 21.980 6.500 21.888 6.178 C 21.679 5.448,21.181 4.818,20.481 4.394 C 19.987 4.096,19.523 4.001,18.557 4.000 C 17.744 4.000,17.563 4.043,17.306 4.300 C 16.911 4.695,16.903 5.286,17.287 5.682 C 17.546 5.950,17.638 5.973,18.520 5.998 C 19.285 6.020,19.304 6.022,19.492 6.133 C 19.710 6.261,19.901 6.502,19.961 6.723 C 19.988 6.822,19.998 8.162,19.991 10.587 L 19.980 14.300 19.869 14.489 C 19.744 14.702,19.551 14.864,19.330 14.943 C 19.108 15.022,8.892 15.022,8.670 14.943 C 8.449 14.864,8.256 14.702,8.131 14.489 L 8.020 14.300 8.009 10.587 C 8.002 8.162,8.012 6.822,8.039 6.723 C 8.099 6.502,8.290 6.261,8.508 6.133 C 8.696 6.022,8.715 6.020,9.480 5.998 C 10.364 5.973,10.453 5.950,10.717 5.679 C 10.880 5.510,11.000 5.223,11.000 5.000 C 11.000 4.598,10.688 4.173,10.310 4.061 C 10.085 3.994,8.869 3.981,8.506 4.042 M6.009 12.270 L 6.022 14.540 6.122 14.861 C 6.422 15.820,7.177 16.575,8.139 16.878 L 8.460 16.979 12.233 16.991 L 16.007 17.003 15.993 17.651 C 15.980 18.277,15.976 18.307,15.869 18.489 C 15.744 18.702,15.551 18.864,15.330 18.943 C 15.108 19.022,4.892 19.022,4.670 18.943 C 4.449 18.864,4.256 18.702,4.131 18.489 L 4.020 18.300 4.020 14.500 L 4.020 10.700 4.131 10.511 C 4.256 10.298,4.449 10.136,4.670 10.057 C 4.768 10.022,5.022 10.003,5.408 10.002 L 5.996 10.000 6.009 12.270 " stroke="none" fill-rule="evenodd" fill="black"></path></svg>