<svg width="24" height="24" viewBox="0 0 24 24" fill="none" xmlns="http://www.w3.org/2000/svg"><path d="M8.673 2.063 C 8.429 2.138,8.150 2.414,8.064 2.666 C 8.017 2.804,8.000 3.007,8.000 3.427 L 8.000 4.000 7.390 4.000 C 6.480 4.001,6.005 4.101,5.519 4.394 C 4.817 4.819,4.316 5.454,4.115 6.178 C 4.041 6.444,4.022 6.631,4.008 7.250 L 3.991 8.000 3.443 8.000 C 2.754 8.000,2.554 8.053,2.306 8.300 C 1.902 8.704,1.902 9.296,2.306 9.700 C 2.554 9.948,2.753 10.000,3.447 10.000 L 4.000 10.000 4.000 12.000 L 4.000 14.000 3.447 14.000 C 2.753 14.000,2.554 14.052,2.306 14.300 C 1.902 14.704,1.902 15.296,2.306 15.700 C 2.553 15.947,2.754 16.000,3.443 16.000 L 3.991 16.000 4.010 16.770 C 4.027 17.433,4.043 17.584,4.126 17.861 C 4.413 18.812,5.188 19.587,6.139 19.874 C 6.416 19.957,6.567 19.973,7.230 19.990 L 8.000 20.009 8.000 20.578 C 8.000 21.264,8.049 21.442,8.306 21.700 C 8.486 21.879,8.764 22.000,9.000 22.000 C 9.237 22.000,9.514 21.880,9.697 21.697 C 9.948 21.446,10.000 21.249,10.000 20.553 L 10.000 20.000 12.000 20.000 L 14.000 20.000 14.000 20.573 C 14.000 21.265,14.048 21.442,14.306 21.700 C 14.486 21.879,14.764 22.000,15.000 22.000 C 15.237 22.000,15.514 21.880,15.697 21.697 C 15.948 21.446,16.000 21.249,16.000 20.557 L 16.000 20.009 16.770 19.990 C 17.433 19.973,17.584 19.957,17.861 19.874 C 18.812 19.587,19.587 18.812,19.874 17.861 C 19.957 17.584,19.973 17.433,19.990 16.770 L 20.009 16.000 20.557 16.000 C 21.249 16.000,21.446 15.948,21.697 15.697 C 21.880 15.514,22.000 15.237,22.000 15.000 C 22.000 14.763,21.880 14.486,21.697 14.303 C 21.446 14.052,21.249 14.000,20.553 14.000 L 20.000 14.000 20.000 12.000 L 20.000 10.000 20.553 10.000 C 21.249 10.000,21.446 9.948,21.697 9.697 C 21.880 9.514,22.000 9.237,22.000 9.000 C 22.000 8.763,21.880 8.486,21.697 8.303 C 21.446 8.052,21.249 8.000,20.557 8.000 L 20.009 8.000 19.992 7.250 C 19.978 6.631,19.959 6.444,19.885 6.178 C 19.684 5.454,19.183 4.819,18.481 4.394 C 17.995 4.101,17.520 4.001,16.610 4.000 L 16.000 4.000 16.000 3.447 C 16.000 2.751,15.948 2.554,15.697 2.303 C 15.514 2.120,15.237 2.000,15.000 2.000 C 14.764 2.000,14.486 2.121,14.306 2.300 C 14.048 2.558,14.000 2.735,14.000 3.427 L 14.000 4.000 12.000 4.000 L 10.000 4.000 10.000 3.447 C 10.000 2.751,9.948 2.554,9.697 2.303 C 9.418 2.024,9.067 1.942,8.673 2.063 M17.330 6.057 C 17.551 6.136,17.744 6.298,17.869 6.511 L 17.980 6.700 17.980 12.000 L 17.980 17.300 17.869 17.489 C 17.744 17.702,17.551 17.864,17.330 17.943 C 17.108 18.022,6.892 18.022,6.670 17.943 C 6.449 17.864,6.256 17.702,6.131 17.489 L 6.020 17.300 6.020 12.000 L 6.020 6.700 6.131 6.511 C 6.256 6.298,6.449 6.136,6.670 6.057 C 6.892 5.978,17.108 5.978,17.330 6.057 M8.673 8.063 C 8.429 8.138,8.150 8.414,8.064 8.666 C 8.007 8.832,8.000 9.220,8.000 12.000 C 8.000 15.553,7.986 15.379,8.306 15.700 C 8.618 16.011,8.480 16.000,12.000 16.000 C 15.525 16.000,15.382 16.012,15.697 15.697 C 16.012 15.382,16.000 15.525,16.000 12.000 C 16.000 8.475,16.012 8.618,15.697 8.303 C 15.381 7.988,15.528 8.000,11.983 8.003 C 9.383 8.005,8.829 8.015,8.673 8.063 M14.000 12.000 L 14.000 14.000 12.000 14.000 L 10.000 14.000 10.000 12.000 L 10.000 10.000 12.000 10.000 L 14.000 10.000 14.000 12.000 " stroke="none" fill-rule="evenodd" fill="black"></path></svg>