<svg width="24" height="24" viewBox="0 0 24 24" fill="none" xmlns="http://www.w3.org/2000/svg"><path d="M7.726 3.046 C 7.314 3.164,7.000 3.577,7.000 3.998 C 7.000 4.321,7.108 4.508,7.567 4.982 L 8.002 5.431 7.991 7.946 C 7.981 10.302,7.975 10.469,7.906 10.600 C 7.865 10.677,6.630 11.946,5.160 13.420 C 3.121 15.465,2.445 16.166,2.309 16.380 C 1.948 16.949,1.814 17.476,1.852 18.180 C 1.910 19.264,2.531 20.206,3.500 20.682 C 4.159 21.006,3.406 20.980,12.000 20.980 C 19.215 20.980,19.675 20.976,19.920 20.909 C 20.946 20.629,21.724 19.871,22.046 18.840 C 22.170 18.444,22.180 17.559,22.066 17.182 C 21.983 16.911,21.805 16.544,21.629 16.280 C 21.563 16.181,20.307 14.894,18.838 13.420 C 17.370 11.946,16.135 10.677,16.094 10.600 C 16.025 10.469,16.019 10.303,16.009 7.945 L 15.998 5.429 16.410 5.005 C 16.637 4.771,16.854 4.514,16.892 4.433 C 17.075 4.043,16.999 3.606,16.697 3.304 C 16.376 2.982,16.645 3.000,11.983 3.004 C 9.462 3.006,7.808 3.022,7.726 3.046 M14.009 7.870 L 14.021 10.740 14.115 11.020 C 14.332 11.666,14.492 11.894,15.317 12.736 C 15.682 13.108,15.945 13.400,15.901 13.384 C 15.725 13.321,14.774 13.283,14.310 13.321 C 13.344 13.400,12.652 13.595,11.579 14.093 C 10.628 14.533,10.183 14.660,9.420 14.706 C 8.949 14.735,8.480 14.685,7.644 14.516 C 7.327 14.452,7.058 14.400,7.045 14.400 C 7.033 14.400,7.546 13.873,8.185 13.230 C 9.539 11.867,9.649 11.724,9.885 11.020 L 9.978 10.740 9.991 7.870 L 10.004 5.000 12.000 5.000 L 13.997 5.000 14.009 7.870 M16.898 15.599 C 17.689 15.757,18.400 15.920,18.478 15.960 C 18.685 16.067,20.023 17.429,20.098 17.609 C 20.191 17.832,20.177 18.182,20.065 18.422 C 19.955 18.659,19.705 18.888,19.486 18.954 C 19.257 19.022,4.737 19.020,4.505 18.951 C 4.285 18.886,3.954 18.555,3.889 18.335 C 3.822 18.110,3.828 17.787,3.901 17.611 C 3.977 17.430,5.001 16.384,5.206 16.278 C 5.484 16.134,5.605 16.141,6.682 16.354 C 8.077 16.631,8.113 16.637,8.684 16.681 C 9.555 16.748,10.531 16.626,11.380 16.342 C 11.600 16.268,12.068 16.073,12.421 15.908 C 13.205 15.541,13.651 15.401,14.340 15.304 C 14.406 15.294,14.685 15.292,14.960 15.299 C 15.389 15.310,15.664 15.353,16.898 15.599 " stroke="none" fill-rule="evenodd" fill="black"></path></svg>