<svg width="24" height="24" viewBox="0 0 24 24" fill="none" xmlns="http://www.w3.org/2000/svg"><path d="M11.378 3.058 C 10.145 3.250,9.030 4.054,8.464 5.160 C 8.233 5.611,8.129 5.930,8.058 6.395 C 7.986 6.879,7.986 7.121,8.058 7.605 C 8.247 8.855,9.042 9.964,10.160 10.536 C 10.347 10.632,10.615 10.749,10.755 10.797 C 11.050 10.897,11.680 11.000,12.000 11.000 C 12.320 11.000,12.950 10.897,13.245 10.797 C 14.229 10.462,15.076 9.739,15.536 8.840 C 15.767 8.389,15.871 8.070,15.942 7.605 C 16.014 7.121,16.014 6.879,15.942 6.395 C 15.614 4.220,13.561 2.719,11.378 3.058 M12.492 5.060 C 12.852 5.153,13.118 5.310,13.404 5.596 C 13.700 5.891,13.852 6.157,13.940 6.529 C 14.052 7.007,13.994 7.498,13.771 7.937 C 13.638 8.200,13.196 8.640,12.930 8.775 C 12.341 9.073,11.659 9.073,11.070 8.775 C 10.801 8.639,10.361 8.199,10.225 7.930 C 9.927 7.341,9.927 6.659,10.225 6.070 C 10.362 5.800,10.801 5.361,11.071 5.225 C 11.507 5.004,12.040 4.942,12.492 5.060 M4.506 7.042 C 3.381 7.231,2.421 8.088,2.114 9.178 C 1.982 9.645,1.987 10.406,2.125 10.861 C 2.415 11.814,3.185 12.584,4.139 12.875 C 4.412 12.958,4.542 12.973,5.000 12.973 C 5.458 12.973,5.588 12.958,5.861 12.875 C 6.815 12.584,7.585 11.814,7.875 10.861 C 8.013 10.406,8.018 9.645,7.886 9.178 C 7.681 8.452,7.182 7.818,6.481 7.394 C 5.944 7.070,5.167 6.931,4.506 7.042 M18.506 7.042 C 17.381 7.231,16.421 8.088,16.114 9.178 C 15.982 9.645,15.987 10.406,16.125 10.861 C 16.415 11.814,17.185 12.584,18.139 12.875 C 18.412 12.958,18.542 12.973,19.000 12.973 C 19.458 12.973,19.588 12.958,19.861 12.875 C 20.815 12.584,21.585 11.814,21.875 10.861 C 22.013 10.406,22.018 9.645,21.886 9.178 C 21.681 8.452,21.182 7.818,20.481 7.394 C 19.944 7.070,19.167 6.931,18.506 7.042 M5.512 9.147 C 6.142 9.534,6.154 10.446,5.535 10.839 C 5.060 11.141,4.442 10.992,4.141 10.503 C 4.034 10.329,4.020 10.271,4.020 10.003 C 4.020 9.744,4.036 9.673,4.131 9.511 C 4.339 9.158,4.660 8.988,5.072 9.015 C 5.261 9.027,5.371 9.060,5.512 9.147 M19.512 9.147 C 20.142 9.534,20.154 10.446,19.535 10.839 C 19.060 11.141,18.442 10.992,18.141 10.503 C 18.034 10.329,18.020 10.271,18.020 10.003 C 18.020 9.744,18.036 9.673,18.131 9.511 C 18.339 9.158,18.660 8.988,19.072 9.015 C 19.261 9.027,19.371 9.060,19.512 9.147 M11.200 12.058 C 10.756 12.122,10.252 12.246,9.906 12.376 C 9.012 12.713,7.981 13.434,7.440 14.101 C 7.319 14.250,7.183 14.417,7.138 14.471 L 7.056 14.569 6.807 14.444 C 4.855 13.458,2.451 14.231,1.464 16.160 C 1.066 16.938,1.001 17.334,1.000 18.963 C 1.000 20.327,1.014 20.408,1.306 20.700 C 1.633 21.027,0.666 21.000,12.000 21.000 C 23.344 21.000,22.366 21.028,22.697 20.697 C 22.982 20.411,23.000 20.308,23.000 18.943 C 22.999 17.336,22.933 16.935,22.536 16.160 C 21.799 14.719,20.207 13.860,18.596 14.035 C 18.099 14.089,17.632 14.223,17.222 14.429 L 16.944 14.569 16.862 14.471 C 16.817 14.417,16.681 14.250,16.560 14.101 C 15.940 13.337,14.726 12.544,13.741 12.261 C 12.938 12.030,11.944 11.950,11.200 12.058 M12.980 14.119 C 14.225 14.453,15.262 15.360,15.699 16.498 C 15.932 17.105,15.966 17.304,15.989 18.190 L 16.009 19.000 12.000 19.000 L 7.991 19.000 8.011 18.170 C 8.028 17.494,8.047 17.283,8.116 17.032 C 8.322 16.281,8.654 15.703,9.179 15.179 C 9.785 14.573,10.514 14.194,11.361 14.043 C 11.723 13.979,12.612 14.020,12.980 14.119 M5.657 16.115 C 5.788 16.161,5.965 16.246,6.052 16.303 C 6.195 16.398,6.206 16.418,6.181 16.533 C 6.068 17.056,6.036 17.367,6.013 18.130 L 5.988 19.000 4.494 19.000 L 3.000 19.000 3.000 18.368 C 3.000 17.426,3.119 17.073,3.596 16.596 C 3.874 16.318,4.141 16.157,4.491 16.059 C 4.781 15.977,5.348 16.004,5.657 16.115 M19.492 16.060 C 20.215 16.248,20.825 16.886,20.959 17.596 C 20.982 17.714,21.000 18.078,21.000 18.405 L 21.000 19.000 19.500 19.000 L 18.000 19.000 18.000 18.430 C 18.000 17.770,17.943 17.097,17.855 16.709 C 17.782 16.387,17.790 16.370,18.108 16.214 C 18.538 16.004,19.056 15.946,19.492 16.060 " stroke="none" fill-rule="evenodd" fill="black"></path></svg>