<svg width="24" height="24" viewBox="0 0 24 24" fill="none" xmlns="http://www.w3.org/2000/svg"><path d="M5.506 3.042 C 4.382 3.231,3.426 4.084,3.112 5.178 C 3.023 5.489,3.020 5.553,3.020 7.000 C 3.020 8.446,3.023 8.512,3.112 8.822 C 3.391 9.796,4.204 10.609,5.178 10.888 C 5.488 10.977,5.554 10.980,7.000 10.980 C 8.446 10.980,8.512 10.977,8.822 10.888 C 9.796 10.609,10.609 9.796,10.888 8.822 C 10.977 8.512,10.980 8.446,10.980 7.000 C 10.980 5.553,10.977 5.489,10.888 5.178 C 10.570 4.069,9.616 3.227,8.467 3.041 C 8.177 2.994,5.789 2.995,5.506 3.042 M15.506 3.042 C 14.382 3.231,13.426 4.084,13.112 5.178 C 13.023 5.489,13.020 5.553,13.020 7.000 C 13.020 8.446,13.023 8.512,13.112 8.822 C 13.391 9.796,14.204 10.609,15.178 10.888 C 15.488 10.977,15.554 10.980,17.000 10.980 C 18.446 10.980,18.512 10.977,18.822 10.888 C 19.796 10.609,20.609 9.796,20.888 8.822 C 20.977 8.512,20.980 8.446,20.980 7.000 C 20.980 5.553,20.977 5.489,20.888 5.178 C 20.570 4.069,19.616 3.227,18.467 3.041 C 18.177 2.994,15.789 2.995,15.506 3.042 M8.330 5.057 C 8.551 5.136,8.744 5.298,8.869 5.511 L 8.980 5.700 8.980 7.000 L 8.980 8.300 8.869 8.489 C 8.744 8.702,8.551 8.864,8.330 8.943 C 8.115 9.020,5.885 9.020,5.670 8.943 C 5.449 8.864,5.256 8.702,5.131 8.489 L 5.020 8.300 5.020 7.000 L 5.020 5.700 5.131 5.511 C 5.256 5.298,5.449 5.136,5.670 5.057 C 5.885 4.980,8.115 4.980,8.330 5.057 M18.330 5.057 C 18.551 5.136,18.744 5.298,18.869 5.511 L 18.980 5.700 18.980 7.000 L 18.980 8.300 18.869 8.489 C 18.744 8.702,18.551 8.864,18.330 8.943 C 18.115 9.020,15.885 9.020,15.670 8.943 C 15.449 8.864,15.256 8.702,15.131 8.489 L 15.020 8.300 15.020 7.000 L 15.020 5.700 15.131 5.511 C 15.256 5.298,15.449 5.136,15.670 5.057 C 15.885 4.980,18.115 4.980,18.330 5.057 M5.506 13.042 C 4.382 13.231,3.426 14.084,3.112 15.178 C 3.023 15.489,3.020 15.553,3.020 17.000 C 3.020 18.446,3.023 18.512,3.112 18.822 C 3.391 19.796,4.204 20.609,5.178 20.888 C 5.488 20.977,5.554 20.980,7.000 20.980 C 8.446 20.980,8.512 20.977,8.822 20.888 C 9.796 20.609,10.609 19.796,10.888 18.822 C 10.977 18.512,10.980 18.446,10.980 17.000 C 10.980 15.553,10.977 15.489,10.888 15.178 C 10.570 14.069,9.616 13.227,8.467 13.041 C 8.177 12.994,5.789 12.995,5.506 13.042 M16.673 13.063 C 16.429 13.138,16.150 13.414,16.064 13.666 C 16.012 13.820,16.000 14.048,16.000 14.927 L 16.000 16.000 14.947 16.000 C 13.706 16.000,13.584 16.022,13.306 16.300 C 12.902 16.704,12.902 17.296,13.306 17.700 C 13.584 17.978,13.706 18.000,14.947 18.000 L 16.000 18.000 16.000 19.073 C 16.000 20.315,16.018 20.412,16.306 20.700 C 16.486 20.879,16.764 21.000,17.000 21.000 C 17.237 21.000,17.514 20.880,17.697 20.697 C 17.978 20.416,18.000 20.297,18.000 19.053 L 18.000 18.000 19.053 18.000 C 20.297 18.000,20.416 17.978,20.697 17.697 C 20.880 17.514,21.000 17.237,21.000 17.000 C 21.000 16.763,20.880 16.486,20.697 16.303 C 20.416 16.022,20.297 16.000,19.053 16.000 L 18.000 16.000 18.000 14.947 C 18.000 13.703,17.978 13.584,17.697 13.303 C 17.418 13.024,17.067 12.942,16.673 13.063 M8.330 15.057 C 8.551 15.136,8.744 15.298,8.869 15.511 L 8.980 15.700 8.980 17.000 L 8.980 18.300 8.869 18.489 C 8.744 18.702,8.551 18.864,8.330 18.943 C 8.115 19.020,5.885 19.020,5.670 18.943 C 5.449 18.864,5.256 18.702,5.131 18.489 L 5.020 18.300 5.020 17.000 L 5.020 15.700 5.131 15.511 C 5.192 15.408,5.304 15.275,5.381 15.217 C 5.646 15.015,5.730 15.004,7.000 15.004 C 7.884 15.004,8.218 15.017,8.330 15.057 " stroke="none" fill-rule="evenodd" fill="black"></path></svg>