<svg width="24" height="24" viewBox="0 0 24 24" fill="none" xmlns="http://www.w3.org/2000/svg"><path d="M11.140 2.045 C 9.081 2.240,7.111 3.171,5.634 4.648 C 4.491 5.791,3.644 7.291,3.267 8.840 C 3.081 9.603,3.023 10.112,3.023 11.000 C 3.023 11.888,3.081 12.397,3.267 13.160 C 3.565 14.384,4.173 15.612,4.991 16.640 C 5.342 17.082,9.676 21.450,10.120 21.810 C 10.440 22.070,10.920 22.316,11.280 22.405 C 11.567 22.476,12.433 22.476,12.720 22.405 C 13.080 22.316,13.560 22.070,13.880 21.810 C 14.324 21.450,18.658 17.082,19.009 16.640 C 20.023 15.365,20.658 13.905,20.906 12.280 C 21.003 11.646,21.003 10.353,20.906 9.720 C 20.657 8.090,20.017 6.619,19.014 5.369 C 17.858 3.928,16.208 2.835,14.445 2.342 C 13.400 2.050,12.216 1.943,11.140 2.045 M12.868 4.062 C 14.448 4.269,15.827 4.945,16.941 6.059 C 19.238 8.356,19.654 11.892,17.954 14.669 C 17.590 15.265,17.234 15.653,14.964 17.935 C 12.413 20.497,12.434 20.479,12.000 20.479 C 11.566 20.479,11.589 20.499,9.017 17.915 C 6.713 15.600,6.418 15.278,6.039 14.659 C 4.345 11.891,4.765 8.354,7.060 6.060 C 8.598 4.521,10.743 3.784,12.868 4.062 M11.378 7.058 C 10.145 7.250,9.030 8.054,8.464 9.160 C 8.233 9.611,8.129 9.930,8.058 10.395 C 7.986 10.879,7.986 11.121,8.058 11.605 C 8.247 12.855,9.042 13.964,10.160 14.536 C 10.347 14.632,10.615 14.749,10.755 14.797 C 11.050 14.897,11.680 15.000,12.000 15.000 C 12.320 15.000,12.950 14.897,13.245 14.797 C 14.229 14.462,15.076 13.739,15.536 12.840 C 15.767 12.389,15.871 12.070,15.942 11.605 C 16.014 11.121,16.014 10.879,15.942 10.395 C 15.614 8.220,13.561 6.719,11.378 7.058 M12.492 9.060 C 12.852 9.153,13.118 9.310,13.404 9.596 C 13.700 9.891,13.852 10.157,13.940 10.529 C 14.106 11.236,13.920 11.889,13.404 12.404 C 13.001 12.807,12.546 13.000,12.000 13.000 C 11.454 13.000,10.999 12.807,10.596 12.404 C 10.193 12.001,10.000 11.546,10.000 11.000 C 10.000 10.454,10.193 9.999,10.596 9.596 C 11.000 9.191,11.429 9.008,11.982 9.003 C 12.136 9.001,12.366 9.027,12.492 9.060 " stroke="none" fill-rule="evenodd" fill="black"></path></svg>