<svg width="24" height="24" viewBox="0 0 24 24" fill="none" xmlns="http://www.w3.org/2000/svg"><path d="M11.700 2.054 C 11.432 2.145,2.591 6.086,2.430 6.186 C 2.158 6.357,1.977 6.742,2.009 7.077 C 2.062 7.635,2.556 8.049,3.092 7.986 C 3.239 7.969,4.475 7.438,7.617 6.041 C 9.995 4.984,11.967 4.120,12.000 4.120 C 12.033 4.120,14.010 4.987,16.395 6.046 C 19.579 7.461,20.780 7.978,20.920 7.991 C 21.452 8.042,21.921 7.645,21.987 7.088 C 22.027 6.748,21.848 6.361,21.570 6.186 C 21.487 6.135,19.365 5.179,16.854 4.064 C 11.964 1.891,12.066 1.931,11.700 2.054 M2.673 9.063 C 2.310 9.175,2.000 9.606,2.000 10.000 C 2.000 10.405,2.309 10.826,2.690 10.939 C 2.802 10.973,2.918 11.000,2.947 11.000 C 2.991 11.000,3.000 11.802,3.000 15.500 C 3.000 19.198,2.991 20.000,2.947 20.000 C 2.918 20.000,2.802 20.027,2.690 20.061 C 2.309 20.174,2.000 20.595,2.000 21.000 C 2.000 21.405,2.309 21.826,2.690 21.939 C 2.870 21.993,3.965 22.000,12.000 22.000 C 20.035 22.000,21.130 21.993,21.310 21.939 C 21.688 21.827,22.000 21.402,22.000 21.000 C 22.000 20.598,21.688 20.173,21.310 20.061 C 21.198 20.027,21.082 20.000,21.053 20.000 C 21.009 20.000,21.000 19.198,21.000 15.500 C 21.000 11.802,21.009 11.000,21.053 11.000 C 21.082 11.000,21.198 10.973,21.310 10.939 C 21.688 10.827,22.000 10.402,22.000 10.000 C 22.000 9.598,21.688 9.173,21.310 9.061 C 21.129 9.007,20.039 9.000,11.983 9.003 C 4.160 9.005,2.833 9.014,2.673 9.063 M19.000 15.500 L 19.000 20.000 12.000 20.000 L 5.000 20.000 5.000 15.500 L 5.000 11.000 12.000 11.000 L 19.000 11.000 19.000 15.500 M7.673 13.063 C 7.429 13.138,7.150 13.414,7.064 13.666 C 7.009 13.827,7.000 14.096,7.000 15.500 C 7.000 17.378,7.002 17.396,7.306 17.700 C 7.486 17.879,7.764 18.000,8.000 18.000 C 8.237 18.000,8.514 17.880,8.697 17.697 C 8.994 17.400,9.000 17.356,9.000 15.500 C 9.000 13.644,8.994 13.600,8.697 13.303 C 8.418 13.024,8.067 12.942,7.673 13.063 M11.673 13.063 C 11.412 13.143,11.140 13.421,11.061 13.690 C 10.968 14.001,10.971 17.061,11.064 17.334 C 11.188 17.697,11.613 18.000,12.000 18.000 C 12.237 18.000,12.514 17.880,12.697 17.697 C 12.994 17.400,13.000 17.356,13.000 15.500 C 13.000 13.644,12.994 13.600,12.697 13.303 C 12.418 13.024,12.067 12.942,11.673 13.063 M15.673 13.063 C 15.429 13.138,15.150 13.414,15.064 13.666 C 14.968 13.947,14.968 17.053,15.064 17.334 C 15.188 17.697,15.613 18.000,16.000 18.000 C 16.237 18.000,16.514 17.880,16.697 17.697 C 16.994 17.400,17.000 17.356,17.000 15.500 C 17.000 13.644,16.994 13.600,16.697 13.303 C 16.418 13.024,16.067 12.942,15.673 13.063 " stroke="none" fill-rule="evenodd" fill="black"></path></svg>