<svg width="24" height="24" viewBox="0 0 24 24" fill="none" xmlns="http://www.w3.org/2000/svg"><path d="M4.506 4.042 C 3.382 4.231,2.426 5.084,2.112 6.178 L 2.020 6.500 2.020 12.000 L 2.020 17.500 2.112 17.822 C 2.391 18.796,3.204 19.609,4.178 19.888 L 4.500 19.980 12.000 19.980 L 19.500 19.980 19.822 19.888 C 19.999 19.837,20.269 19.726,20.422 19.641 C 21.129 19.248,21.672 18.574,21.888 17.822 L 21.980 17.500 21.980 14.500 L 21.980 11.500 21.888 11.178 C 21.679 10.448,21.181 9.818,20.481 9.394 C 19.996 9.101,19.520 9.001,18.616 9.000 L 18.011 9.000 17.984 8.730 C 17.885 7.739,17.363 6.928,16.481 6.394 C 16.199 6.224,15.854 6.103,15.467 6.041 C 15.327 6.018,14.397 6.000,13.320 6.000 L 11.419 6.000 10.420 5.000 L 9.421 4.000 7.060 4.005 C 5.762 4.007,4.613 4.024,4.506 4.042 M9.580 7.000 L 10.579 8.000 12.880 8.002 C 14.697 8.003,15.212 8.015,15.330 8.057 C 15.664 8.176,15.929 8.489,15.983 8.830 L 16.010 9.000 12.395 9.000 C 10.171 9.000,8.685 9.016,8.533 9.041 C 7.384 9.227,6.430 10.069,6.112 11.178 C 6.021 11.498,6.020 11.521,6.000 14.403 L 5.980 17.306 5.859 17.503 C 5.457 18.156,4.543 18.156,4.141 17.503 L 4.020 17.306 4.020 12.003 L 4.020 6.700 4.131 6.511 C 4.256 6.298,4.449 6.136,4.670 6.057 C 4.787 6.015,5.234 6.003,6.700 6.002 L 8.581 6.000 9.580 7.000 M19.330 11.057 C 19.551 11.136,19.744 11.298,19.869 11.511 L 19.980 11.700 19.980 14.500 L 19.980 17.300 19.869 17.489 C 19.744 17.702,19.551 17.864,19.330 17.943 C 19.207 17.987,18.142 17.997,13.510 17.998 C 10.392 17.999,7.840 17.995,7.840 17.990 C 7.841 17.985,7.871 17.881,7.908 17.760 C 7.967 17.566,7.978 17.196,7.998 14.620 L 8.020 11.700 8.131 11.511 C 8.256 11.298,8.449 11.136,8.670 11.057 C 8.892 10.978,19.108 10.978,19.330 11.057 " stroke="none" fill-rule="evenodd" fill="black"></path></svg>