<svg width="24" height="24" viewBox="0 0 24 24" fill="none" xmlns="http://www.w3.org/2000/svg"><path d="M11.100 2.041 C 9.341 2.219,7.729 2.802,6.335 3.767 C 3.070 6.025,1.454 9.944,2.178 13.846 C 2.468 15.412,3.137 16.886,4.154 18.200 C 4.493 18.637,5.363 19.507,5.800 19.846 C 8.241 21.735,11.253 22.412,14.240 21.741 C 17.932 20.912,20.910 17.933,21.741 14.240 C 21.929 13.402,21.977 12.954,21.977 12.000 C 21.977 11.046,21.929 10.598,21.741 9.760 C 21.274 7.685,20.065 5.706,18.437 4.354 C 16.934 3.106,15.158 2.329,13.240 2.080 C 12.775 2.019,11.539 1.997,11.100 2.041 M12.832 4.042 C 14.361 4.210,15.851 4.828,17.040 5.789 C 17.394 6.075,18.067 6.761,18.326 7.100 C 19.406 8.514,20.000 10.253,20.000 12.000 C 20.000 13.810,19.358 15.619,18.211 17.041 C 17.900 17.426,17.184 18.117,16.800 18.402 C 13.933 20.529,10.067 20.529,7.200 18.402 C 6.816 18.117,6.100 17.426,5.789 17.041 C 3.835 14.619,3.452 11.319,4.800 8.529 C 5.197 7.706,5.611 7.114,6.259 6.446 C 6.951 5.730,7.648 5.225,8.526 4.801 C 9.865 4.154,11.392 3.885,12.832 4.042 M11.660 7.066 C 11.476 7.122,11.330 7.257,9.795 8.793 C 8.302 10.288,8.124 10.480,8.065 10.657 C 8.029 10.766,8.000 10.920,8.000 11.000 C 8.000 11.405,8.309 11.826,8.690 11.939 C 8.948 12.016,9.053 12.016,9.320 11.936 C 9.515 11.878,9.603 11.805,10.267 11.149 L 11.000 10.426 11.000 13.286 C 11.000 16.519,10.988 16.381,11.306 16.700 C 11.486 16.879,11.764 17.000,12.000 17.000 C 12.237 17.000,12.514 16.880,12.697 16.697 C 13.010 16.384,13.000 16.495,13.000 13.266 L 13.000 10.426 13.733 11.149 C 14.397 11.805,14.485 11.878,14.680 11.936 C 14.947 12.016,15.052 12.016,15.310 11.939 C 15.589 11.856,15.856 11.589,15.939 11.310 C 16.016 11.052,16.016 10.948,15.937 10.677 C 15.876 10.469,15.802 10.389,14.207 8.793 C 12.611 7.198,12.531 7.124,12.323 7.063 C 12.059 6.986,11.922 6.987,11.660 7.066 " stroke="none" fill-rule="evenodd" fill="black"></path></svg>