<svg width="24" height="24" viewBox="0 0 24 24" fill="none" xmlns="http://www.w3.org/2000/svg"><path d="M10.960 2.062 C 10.415 2.179,9.767 2.605,9.456 3.050 L 9.380 3.159 9.180 3.097 C 9.070 3.063,8.827 3.026,8.640 3.014 C 7.662 2.951,6.712 3.495,6.285 4.362 C 6.011 4.918,6.001 5.011,6.001 7.147 L 6.000 9.035 5.650 9.013 C 4.414 8.938,3.310 9.784,3.056 11.000 C 2.968 11.419,2.997 14.179,3.095 14.775 C 3.399 16.629,4.199 18.202,5.499 19.501 C 6.800 20.803,8.392 21.610,10.245 21.907 C 10.817 21.999,12.183 21.999,12.755 21.907 C 14.604 21.611,16.202 20.801,17.501 19.501 C 18.788 18.215,19.583 16.658,19.906 14.794 C 20.003 14.231,20.035 8.445,19.943 8.000 C 19.693 6.787,18.585 5.938,17.350 6.013 L 17.000 6.035 16.999 5.647 C 16.998 5.137,16.918 4.774,16.714 4.361 C 16.393 3.710,15.738 3.211,15.000 3.055 C 14.652 2.982,14.134 3.000,13.820 3.097 L 13.620 3.159 13.544 3.050 C 13.502 2.989,13.350 2.827,13.206 2.688 C 12.625 2.128,11.767 1.889,10.960 2.062 M11.724 4.062 C 11.790 4.096,11.879 4.182,11.922 4.252 C 11.997 4.376,12.000 4.478,12.000 7.763 C 12.000 11.581,11.984 11.378,12.306 11.700 C 12.486 11.879,12.764 12.000,13.000 12.000 C 13.237 12.000,13.514 11.880,13.697 11.697 C 14.010 11.384,14.000 11.496,14.000 8.251 C 14.000 5.100,13.989 5.239,14.252 5.078 C 14.415 4.979,14.585 4.979,14.748 5.078 C 15.011 5.239,15.000 5.098,15.000 8.271 C 15.000 11.521,14.988 11.381,15.306 11.700 C 15.486 11.879,15.764 12.000,16.000 12.000 C 16.237 12.000,16.514 11.880,16.697 11.697 C 16.988 11.406,17.000 11.329,17.000 9.751 C 17.000 8.254,17.004 8.230,17.252 8.078 C 17.415 7.979,17.585 7.979,17.748 8.078 C 18.017 8.243,18.006 8.087,17.989 11.352 C 17.972 14.545,17.976 14.482,17.739 15.300 C 17.224 17.081,15.929 18.605,14.280 19.371 C 12.478 20.207,10.486 20.205,8.700 19.364 C 7.060 18.591,5.773 17.071,5.261 15.300 C 5.051 14.573,5.032 14.392,5.012 12.855 C 4.990 11.250,4.992 11.237,5.252 11.078 C 5.487 10.935,5.774 11.009,5.922 11.252 C 5.995 11.372,6.000 11.462,6.000 12.763 C 6.000 14.349,6.008 14.402,6.306 14.700 C 6.486 14.879,6.764 15.000,7.000 15.000 C 7.237 15.000,7.514 14.880,7.697 14.697 C 8.018 14.376,8.000 14.670,8.000 9.751 C 8.000 4.943,7.984 5.242,8.252 5.078 C 8.487 4.935,8.774 5.009,8.922 5.252 C 8.997 5.376,9.000 5.474,9.000 8.263 C 9.000 11.522,8.987 11.381,9.306 11.700 C 9.486 11.879,9.764 12.000,10.000 12.000 C 10.237 12.000,10.514 11.880,10.697 11.697 C 11.013 11.380,11.000 11.554,11.000 7.751 C 11.000 4.048,10.987 4.240,11.252 4.078 C 11.406 3.984,11.563 3.979,11.724 4.062 " stroke="none" fill-rule="evenodd" fill="black"></path></svg>