<svg width="24" height="24" viewBox="0 0 24 24" fill="none" xmlns="http://www.w3.org/2000/svg"><path d="M11.700 2.023 C 11.008 2.117,10.406 2.420,9.973 2.893 C 9.745 3.143,9.481 3.627,9.381 3.980 C 9.296 4.281,9.156 4.467,8.945 4.563 C 8.689 4.680,8.537 4.660,8.136 4.462 C 7.501 4.146,6.949 4.058,6.359 4.178 C 4.540 4.546,3.581 6.551,4.462 8.144 C 4.693 8.561,4.684 8.856,4.434 9.141 C 4.345 9.242,4.235 9.301,3.988 9.381 C 2.971 9.709,2.347 10.354,2.075 11.360 C 2.011 11.598,2.011 12.363,2.076 12.640 C 2.104 12.761,2.210 13.031,2.312 13.240 C 2.645 13.922,3.171 14.355,3.988 14.619 C 4.235 14.699,4.345 14.758,4.434 14.859 C 4.684 15.144,4.693 15.439,4.462 15.856 C 4.162 16.399,4.058 17.045,4.176 17.642 C 4.393 18.732,5.268 19.607,6.358 19.823 C 6.963 19.944,7.546 19.847,8.187 19.519 C 8.537 19.340,8.695 19.323,8.945 19.437 C 9.156 19.533,9.296 19.719,9.381 20.020 C 9.590 20.757,10.090 21.361,10.760 21.688 C 11.238 21.921,11.473 21.975,12.000 21.975 C 12.526 21.975,12.762 21.921,13.240 21.688 C 13.916 21.360,14.357 20.824,14.617 20.017 C 14.731 19.665,14.842 19.525,15.089 19.422 C 15.321 19.325,15.475 19.346,15.813 19.519 C 16.702 19.974,17.504 19.991,18.354 19.572 C 19.102 19.205,19.658 18.473,19.824 17.642 C 19.945 17.032,19.843 16.424,19.515 15.807 C 19.345 15.485,19.324 15.324,19.422 15.089 C 19.525 14.842,19.665 14.731,20.017 14.617 C 20.824 14.357,21.360 13.916,21.688 13.240 C 21.921 12.762,21.975 12.526,21.975 12.000 C 21.975 11.474,21.921 11.238,21.688 10.760 C 21.360 10.084,20.824 9.643,20.017 9.383 C 19.665 9.269,19.525 9.158,19.422 8.911 C 19.324 8.676,19.345 8.515,19.515 8.193 C 19.961 7.353,19.989 6.506,19.599 5.695 C 19.030 4.511,17.712 3.890,16.466 4.219 C 16.338 4.253,16.066 4.362,15.861 4.460 C 15.461 4.654,15.321 4.675,15.089 4.578 C 14.842 4.475,14.731 4.335,14.617 3.983 C 14.401 3.314,14.069 2.839,13.588 2.512 C 13.314 2.326,12.938 2.150,12.680 2.088 C 12.475 2.039,11.879 1.999,11.700 2.023 M12.291 4.055 C 12.496 4.143,12.630 4.318,12.723 4.620 C 13.013 5.560,13.647 6.218,14.540 6.506 C 14.797 6.589,14.946 6.610,15.300 6.615 C 15.835 6.621,16.045 6.572,16.614 6.310 C 16.988 6.138,17.072 6.113,17.228 6.131 C 17.537 6.166,17.834 6.464,17.869 6.773 C 17.887 6.928,17.862 7.014,17.690 7.386 C 17.435 7.938,17.381 8.165,17.383 8.660 C 17.390 9.904,18.147 10.897,19.380 11.277 C 19.800 11.407,20.000 11.639,20.000 11.996 C 20.000 12.364,19.798 12.601,19.381 12.725 C 18.409 13.014,17.699 13.734,17.453 14.680 C 17.370 15.000,17.361 15.656,17.436 15.960 C 17.465 16.081,17.580 16.375,17.690 16.614 C 17.862 16.986,17.887 17.072,17.869 17.227 C 17.834 17.536,17.537 17.834,17.228 17.869 C 17.072 17.887,16.988 17.862,16.614 17.690 C 16.067 17.438,15.840 17.383,15.340 17.384 C 14.103 17.386,13.102 18.149,12.723 19.380 C 12.593 19.801,12.361 20.000,12.000 20.000 C 11.639 20.000,11.407 19.801,11.277 19.380 C 10.898 18.149,9.897 17.386,8.660 17.384 C 8.162 17.383,7.933 17.438,7.397 17.685 C 7.164 17.792,6.918 17.880,6.849 17.880 C 6.484 17.880,6.120 17.518,6.120 17.155 C 6.120 17.084,6.208 16.836,6.315 16.603 C 6.422 16.370,6.535 16.081,6.564 15.960 C 6.639 15.656,6.630 15.000,6.547 14.680 C 6.301 13.734,5.591 13.014,4.619 12.725 C 4.202 12.601,4.000 12.364,4.000 11.996 C 4.000 11.639,4.200 11.407,4.620 11.277 C 5.602 10.975,6.301 10.264,6.547 9.320 C 6.630 9.000,6.639 8.344,6.564 8.040 C 6.535 7.919,6.422 7.630,6.315 7.397 C 6.208 7.164,6.120 6.916,6.120 6.845 C 6.120 6.482,6.484 6.120,6.849 6.120 C 6.918 6.120,7.164 6.208,7.397 6.315 C 7.955 6.572,8.167 6.621,8.700 6.615 C 9.054 6.610,9.203 6.589,9.460 6.506 C 10.353 6.218,10.987 5.560,11.277 4.620 C 11.407 4.198,11.630 4.005,11.991 4.002 C 12.085 4.001,12.220 4.025,12.291 4.055 M11.378 8.058 C 10.145 8.250,9.030 9.054,8.464 10.160 C 8.233 10.611,8.129 10.930,8.058 11.395 C 7.986 11.879,7.986 12.121,8.058 12.605 C 8.247 13.855,9.042 14.964,10.160 15.536 C 10.347 15.632,10.615 15.749,10.755 15.797 C 11.050 15.897,11.680 16.000,12.000 16.000 C 12.320 16.000,12.950 15.897,13.245 15.797 C 14.229 15.462,15.076 14.739,15.536 13.840 C 15.767 13.389,15.871 13.070,15.942 12.605 C 16.014 12.121,16.014 11.879,15.942 11.395 C 15.614 9.220,13.561 7.719,11.378 8.058 M12.492 10.060 C 13.215 10.248,13.825 10.886,13.959 11.596 C 14.091 12.289,13.901 12.907,13.404 13.404 C 13.001 13.807,12.546 14.000,12.000 14.000 C 11.454 14.000,10.999 13.807,10.596 13.404 C 10.193 13.001,10.000 12.546,10.000 12.000 C 10.000 11.454,10.193 10.999,10.596 10.596 C 11.000 10.191,11.429 10.008,11.982 10.003 C 12.136 10.001,12.366 10.027,12.492 10.060 " stroke="none" fill-rule="evenodd" fill="black"></path></svg>