<svg width="24" height="24" viewBox="0 0 24 24" fill="none" xmlns="http://www.w3.org/2000/svg"><path d="M11.604 2.042 C 11.507 2.085,11.282 2.244,11.104 2.394 C 9.973 3.347,8.787 4.010,7.420 4.454 C 6.234 4.839,5.186 4.999,3.840 5.001 C 3.249 5.002,3.115 5.013,2.979 5.075 C 2.772 5.169,2.566 5.376,2.477 5.580 C 2.381 5.797,2.176 6.820,2.096 7.480 C 2.012 8.163,2.000 9.762,2.073 10.380 C 2.333 12.569,3.007 14.426,4.185 16.201 C 4.675 16.939,5.142 17.506,5.818 18.182 C 7.383 19.747,9.162 20.811,11.292 21.457 C 11.905 21.643,12.095 21.643,12.708 21.457 C 14.346 20.960,15.808 20.194,17.141 19.133 C 17.704 18.685,18.685 17.704,19.133 17.141 C 21.579 14.068,22.504 10.201,21.716 6.340 C 21.574 5.643,21.506 5.468,21.301 5.269 C 21.056 5.031,20.935 5.007,19.860 4.985 C 18.809 4.964,18.229 4.893,17.380 4.684 C 15.697 4.269,14.237 3.524,12.896 2.394 C 12.718 2.244,12.493 2.085,12.396 2.042 C 12.165 1.937,11.835 1.937,11.604 2.042 M12.321 4.485 C 13.580 5.434,15.351 6.255,16.971 6.640 C 17.751 6.825,19.032 6.995,19.685 6.999 L 19.829 7.000 19.899 7.510 C 20.313 10.536,19.404 13.721,17.472 16.009 C 16.088 17.648,14.397 18.803,12.430 19.452 L 12.000 19.595 11.570 19.452 C 9.648 18.818,8.021 17.726,6.659 16.156 C 4.617 13.803,3.674 10.615,4.101 7.510 L 4.171 7.000 4.315 6.999 C 4.630 6.997,5.464 6.918,5.982 6.841 C 6.978 6.693,8.103 6.377,9.048 5.980 C 9.893 5.625,11.090 4.942,11.700 4.466 C 11.854 4.346,11.983 4.246,11.988 4.244 C 11.992 4.242,12.142 4.350,12.321 4.485 M14.660 9.066 C 14.476 9.122,14.321 9.265,12.731 10.851 L 11.002 12.575 10.268 11.851 C 9.603 11.195,9.515 11.122,9.320 11.064 C 9.053 10.984,8.948 10.984,8.690 11.061 C 8.309 11.174,8.000 11.595,8.000 12.000 C 8.000 12.080,8.029 12.234,8.065 12.343 C 8.123 12.517,8.268 12.677,9.295 13.706 C 10.396 14.808,10.472 14.876,10.677 14.936 C 10.949 15.016,11.050 15.016,11.323 14.937 C 11.532 14.876,11.617 14.796,13.707 12.707 C 15.796 10.617,15.876 10.532,15.937 10.323 C 16.016 10.052,16.016 9.948,15.939 9.690 C 15.856 9.411,15.589 9.144,15.310 9.061 C 15.059 8.986,14.919 8.988,14.660 9.066 " stroke="none" fill-rule="evenodd" fill="black"></path></svg>