<svg width="24" height="24" viewBox="0 0 24 24" fill="none" xmlns="http://www.w3.org/2000/svg"><path d="M4.506 3.042 C 3.382 3.231,2.426 4.084,2.112 5.178 L 2.020 5.500 2.020 12.000 L 2.020 18.500 2.112 18.822 C 2.391 19.796,3.204 20.609,4.178 20.888 L 4.500 20.980 12.000 20.980 L 19.500 20.980 19.822 20.888 C 20.796 20.609,21.609 19.796,21.888 18.822 L 21.980 18.500 21.980 12.000 L 21.980 5.500 21.888 5.178 C 21.570 4.069,20.616 3.227,19.467 3.041 C 19.167 2.992,4.797 2.993,4.506 3.042 M19.330 5.057 C 19.551 5.136,19.744 5.298,19.869 5.511 L 19.980 5.700 19.980 12.000 L 19.980 18.300 19.869 18.489 C 19.744 18.702,19.551 18.864,19.330 18.943 C 19.107 19.022,4.893 19.022,4.670 18.943 C 4.449 18.864,4.256 18.702,4.131 18.489 L 4.020 18.300 4.020 12.000 L 4.020 5.700 4.131 5.511 C 4.256 5.298,4.449 5.136,4.670 5.057 C 4.893 4.978,19.107 4.978,19.330 5.057 M7.673 8.063 C 7.429 8.138,7.150 8.414,7.064 8.666 C 6.982 8.906,6.983 9.095,7.066 9.343 C 7.124 9.516,7.279 9.688,8.354 10.770 L 9.576 12.000 8.354 13.230 C 7.279 14.312,7.124 14.484,7.066 14.657 C 7.030 14.766,7.000 14.920,7.000 15.000 C 7.000 15.405,7.309 15.826,7.690 15.939 C 7.948 16.016,8.052 16.016,8.323 15.937 C 8.531 15.876,8.611 15.802,10.207 14.207 C 11.802 12.611,11.876 12.531,11.937 12.323 C 12.016 12.051,12.016 11.949,11.937 11.677 C 11.876 11.469,11.802 11.389,10.207 9.793 C 8.611 8.198,8.531 8.124,8.323 8.063 C 8.061 7.987,7.920 7.987,7.673 8.063 M12.673 14.063 C 12.553 14.100,12.421 14.185,12.307 14.299 C 11.902 14.704,11.902 15.295,12.306 15.700 C 12.600 15.993,12.648 16.000,14.500 16.000 C 16.356 16.000,16.400 15.994,16.697 15.697 C 16.880 15.514,17.000 15.237,17.000 15.000 C 17.000 14.598,16.688 14.173,16.310 14.061 C 16.018 13.974,12.956 13.976,12.673 14.063 " stroke="none" fill-rule="evenodd" fill="black"></path></svg>