<svg width="24" height="24" viewBox="0 0 24 24" fill="none" xmlns="http://www.w3.org/2000/svg"><path d="M8.506 2.042 C 7.392 2.229,6.437 3.074,6.115 4.157 C 6.029 4.447,6.025 4.535,6.010 6.230 L 5.995 8.000 5.387 8.000 C 4.480 8.001,4.004 8.101,3.519 8.394 C 2.819 8.818,2.321 9.448,2.112 10.178 C 2.020 10.499,2.020 10.509,2.020 13.000 C 2.020 15.490,2.020 15.501,2.112 15.822 C 2.388 16.785,3.177 17.584,4.139 17.874 C 4.415 17.957,4.567 17.973,5.225 17.990 L 5.991 18.009 6.010 18.775 C 6.027 19.433,6.043 19.585,6.126 19.861 C 6.416 20.823,7.215 21.612,8.178 21.888 L 8.500 21.980 12.000 21.980 L 15.500 21.980 15.822 21.888 C 16.785 21.612,17.584 20.823,17.874 19.861 C 17.957 19.585,17.973 19.433,17.990 18.775 L 18.009 18.009 18.775 17.990 C 19.433 17.973,19.585 17.957,19.861 17.874 C 20.823 17.584,21.612 16.785,21.888 15.822 C 21.980 15.501,21.980 15.490,21.980 13.000 C 21.980 10.509,21.980 10.499,21.888 10.178 C 21.679 9.448,21.181 8.818,20.481 8.394 C 19.996 8.101,19.520 8.001,18.613 8.000 L 18.005 8.000 17.990 6.230 C 17.975 4.535,17.971 4.447,17.885 4.157 C 17.559 3.059,16.606 2.226,15.467 2.041 C 15.170 1.992,8.795 1.994,8.506 2.042 M15.330 4.057 C 15.551 4.136,15.744 4.298,15.869 4.511 L 15.980 4.700 15.992 6.350 L 16.003 8.000 12.000 8.000 L 7.997 8.000 8.008 6.350 L 8.020 4.700 8.131 4.511 C 8.256 4.298,8.449 4.136,8.670 4.057 C 8.891 3.978,15.109 3.978,15.330 4.057 M19.330 10.057 C 19.551 10.136,19.744 10.298,19.869 10.511 L 19.980 10.700 19.991 12.911 C 19.999 14.337,19.988 15.176,19.961 15.275 C 19.901 15.498,19.711 15.739,19.492 15.867 C 19.306 15.976,19.279 15.980,18.654 15.993 L 18.009 16.007 17.992 15.253 C 17.973 14.389,17.902 14.048,17.648 13.590 C 17.182 12.751,16.394 12.191,15.467 12.041 C 15.135 11.987,8.865 11.987,8.533 12.041 C 7.606 12.191,6.818 12.751,6.352 13.590 C 6.098 14.048,6.027 14.389,6.008 15.253 L 5.991 16.007 5.346 15.993 C 4.721 15.980,4.694 15.976,4.508 15.867 C 4.289 15.739,4.099 15.498,4.039 15.275 C 4.012 15.176,4.001 14.337,4.009 12.911 L 4.020 10.700 4.131 10.511 C 4.256 10.298,4.449 10.136,4.670 10.057 C 4.893 9.978,19.107 9.978,19.330 10.057 M15.330 14.057 C 15.551 14.136,15.744 14.298,15.869 14.511 L 15.980 14.700 15.980 17.000 L 15.980 19.300 15.869 19.489 C 15.744 19.702,15.551 19.864,15.330 19.943 C 15.109 20.022,8.891 20.022,8.670 19.943 C 8.449 19.864,8.256 19.702,8.131 19.489 L 8.020 19.300 8.020 17.000 L 8.020 14.700 8.131 14.511 C 8.256 14.298,8.449 14.136,8.670 14.057 C 8.891 13.978,15.109 13.978,15.330 14.057 " stroke="none" fill-rule="evenodd" fill="black"></path></svg>