<svg width="24" height="24" viewBox="0 0 24 24" fill="none" xmlns="http://www.w3.org/2000/svg"><path d="M5.673 3.063 C 5.429 3.138,5.150 3.414,5.064 3.666 C 5.007 3.834,5.000 4.345,5.000 8.504 L 5.000 13.154 4.785 13.252 C 3.986 13.618,3.349 14.352,3.113 15.180 C 2.981 15.643,2.987 16.405,3.125 16.861 C 3.362 17.641,3.928 18.310,4.670 18.687 L 5.000 18.855 5.000 19.500 C 5.000 20.272,5.042 20.436,5.306 20.700 C 5.486 20.879,5.764 21.000,6.000 21.000 C 6.237 21.000,6.514 20.880,6.697 20.697 C 6.954 20.439,7.000 20.256,7.000 19.480 L 7.000 18.855 7.330 18.687 C 8.072 18.310,8.638 17.641,8.875 16.861 C 9.013 16.405,9.019 15.643,8.887 15.180 C 8.651 14.352,8.014 13.618,7.215 13.252 L 7.000 13.154 7.000 8.524 C 7.000 3.298,7.019 3.625,6.697 3.303 C 6.418 3.024,6.067 2.942,5.673 3.063 M11.673 3.063 C 11.552 3.100,11.421 3.185,11.304 3.303 C 11.045 3.561,11.000 3.744,11.000 4.524 L 11.000 5.154 10.785 5.252 C 9.986 5.618,9.349 6.352,9.113 7.180 C 8.981 7.643,8.987 8.405,9.125 8.861 C 9.362 9.641,9.928 10.310,10.670 10.687 L 11.000 10.855 11.000 15.500 C 11.000 20.732,10.979 20.373,11.306 20.700 C 11.486 20.879,11.764 21.000,12.000 21.000 C 12.402 21.000,12.827 20.688,12.939 20.310 C 12.992 20.132,13.000 19.504,13.000 15.480 L 13.000 10.855 13.330 10.687 C 14.072 10.310,14.638 9.641,14.875 8.861 C 15.013 8.405,15.019 7.643,14.887 7.180 C 14.651 6.352,14.014 5.618,13.215 5.252 L 13.000 5.154 13.000 4.524 C 13.000 3.744,12.955 3.561,12.697 3.303 C 12.418 3.024,12.067 2.942,11.673 3.063 M17.673 3.063 C 17.429 3.138,17.150 3.414,17.064 3.666 C 17.007 3.834,17.000 4.345,17.000 8.504 L 17.000 13.154 16.785 13.252 C 15.986 13.618,15.349 14.352,15.113 15.180 C 14.981 15.643,14.987 16.405,15.125 16.861 C 15.362 17.641,15.928 18.310,16.670 18.687 L 17.000 18.855 17.000 19.500 C 17.000 20.272,17.042 20.436,17.306 20.700 C 17.486 20.879,17.764 21.000,18.000 21.000 C 18.237 21.000,18.514 20.880,18.697 20.697 C 18.954 20.439,19.000 20.256,19.000 19.480 L 19.000 18.855 19.330 18.687 C 20.072 18.310,20.638 17.641,20.875 16.861 C 21.013 16.405,21.019 15.643,20.887 15.180 C 20.651 14.352,20.014 13.618,19.215 13.252 L 19.000 13.154 19.000 8.524 C 19.000 3.298,19.019 3.625,18.697 3.303 C 18.418 3.024,18.067 2.942,17.673 3.063 M12.512 7.147 C 13.142 7.534,13.154 8.446,12.535 8.839 C 12.060 9.141,11.442 8.992,11.141 8.503 C 11.034 8.329,11.020 8.271,11.020 8.003 C 11.020 7.744,11.036 7.673,11.131 7.511 C 11.339 7.158,11.660 6.988,12.072 7.015 C 12.261 7.027,12.371 7.060,12.512 7.147 M6.512 15.147 C 7.142 15.534,7.154 16.446,6.535 16.839 C 6.060 17.141,5.442 16.992,5.141 16.503 C 5.034 16.329,5.020 16.271,5.020 16.003 C 5.020 15.744,5.036 15.673,5.131 15.511 C 5.339 15.158,5.660 14.988,6.072 15.015 C 6.261 15.027,6.371 15.060,6.512 15.147 M18.512 15.147 C 19.142 15.534,19.154 16.446,18.535 16.839 C 18.060 17.141,17.442 16.992,17.141 16.503 C 17.034 16.329,17.020 16.271,17.020 16.003 C 17.020 15.744,17.036 15.673,17.131 15.511 C 17.339 15.158,17.660 14.988,18.072 15.015 C 18.261 15.027,18.371 15.060,18.512 15.147 " stroke="none" fill-rule="evenodd" fill="black"></path></svg>