<svg width="24" height="24" viewBox="0 0 24 24" fill="none" xmlns="http://www.w3.org/2000/svg"><path d="M11.100 2.041 C 9.341 2.219,7.729 2.802,6.335 3.767 C 3.070 6.025,1.454 9.944,2.178 13.846 C 2.468 15.412,3.137 16.886,4.154 18.200 C 4.493 18.637,5.363 19.507,5.800 19.846 C 8.241 21.735,11.253 22.412,14.240 21.741 C 17.932 20.912,20.910 17.933,21.741 14.240 C 21.929 13.402,21.977 12.954,21.977 12.000 C 21.977 11.046,21.929 10.598,21.741 9.760 C 21.274 7.685,20.065 5.706,18.437 4.354 C 16.934 3.106,15.158 2.329,13.240 2.080 C 12.775 2.019,11.539 1.997,11.100 2.041 M12.832 4.042 C 14.361 4.210,15.851 4.828,17.040 5.789 C 17.394 6.075,18.067 6.761,18.326 7.100 C 19.406 8.514,20.000 10.253,20.000 12.000 C 20.000 13.810,19.358 15.619,18.211 17.041 C 17.900 17.426,17.184 18.117,16.800 18.402 C 13.933 20.529,10.067 20.529,7.200 18.402 C 6.816 18.117,6.100 17.426,5.789 17.041 C 3.835 14.619,3.452 11.319,4.800 8.529 C 5.197 7.706,5.611 7.114,6.259 6.446 C 6.951 5.730,7.648 5.225,8.526 4.801 C 9.865 4.154,11.392 3.885,12.832 4.042 M11.720 6.023 C 11.265 6.103,11.136 6.135,10.914 6.225 C 10.423 6.425,9.837 6.873,9.454 7.341 C 9.077 7.804,8.701 8.489,8.468 9.140 L 8.339 9.500 7.997 9.521 C 7.640 9.542,7.536 9.584,7.306 9.795 C 7.106 9.980,7.022 10.188,7.022 10.500 C 7.022 10.710,7.044 10.821,7.109 10.944 C 7.265 11.239,7.611 11.480,7.879 11.480 L 8.000 11.480 8.000 12.000 L 8.000 12.520 7.879 12.520 C 7.611 12.520,7.265 12.761,7.109 13.056 C 7.044 13.179,7.022 13.290,7.022 13.500 C 7.022 13.812,7.106 14.020,7.306 14.205 C 7.536 14.416,7.640 14.458,7.997 14.479 L 8.339 14.500 8.468 14.860 C 9.053 16.494,10.082 17.584,11.360 17.924 C 11.605 17.989,12.371 17.988,12.637 17.922 C 13.528 17.702,14.367 17.040,14.928 16.116 C 15.199 15.670,15.174 15.238,14.858 14.886 C 14.648 14.653,14.426 14.552,14.118 14.552 C 13.717 14.552,13.493 14.700,13.145 15.196 C 12.662 15.886,12.133 16.140,11.642 15.918 C 11.262 15.745,10.892 15.339,10.616 14.791 C 10.541 14.643,10.480 14.513,10.480 14.501 C 10.480 14.489,10.877 14.480,11.361 14.480 C 12.329 14.480,12.394 14.468,12.655 14.239 C 12.888 14.034,12.978 13.829,12.978 13.500 C 12.978 13.103,12.830 12.849,12.462 12.615 C 12.355 12.547,12.230 12.538,11.182 12.520 L 10.020 12.500 10.020 12.000 L 10.020 11.500 11.182 11.480 C 12.230 11.462,12.355 11.453,12.462 11.385 C 12.830 11.151,12.978 10.897,12.978 10.500 C 12.978 10.171,12.888 9.966,12.655 9.761 C 12.394 9.532,12.329 9.520,11.361 9.520 C 10.877 9.520,10.480 9.509,10.480 9.495 C 10.480 9.433,10.745 8.957,10.904 8.734 C 11.249 8.249,11.597 8.023,12.000 8.023 C 12.420 8.023,12.759 8.253,13.140 8.796 C 13.502 9.312,13.707 9.448,14.118 9.448 C 14.426 9.448,14.648 9.347,14.858 9.114 C 15.171 8.765,15.198 8.338,14.935 7.892 C 14.403 6.994,13.478 6.264,12.647 6.085 C 12.413 6.035,11.863 5.998,11.720 6.023 " stroke="none" fill-rule="evenodd" fill="black"></path></svg>