<svg width="24" height="24" viewBox="0 0 24 24" fill="none" xmlns="http://www.w3.org/2000/svg"><path d="M16.673 7.063 C 16.429 7.138,16.150 7.414,16.064 7.666 C 15.982 7.906,15.983 8.095,16.066 8.343 C 16.124 8.516,16.279 8.688,17.354 9.770 L 18.576 11.000 10.735 11.000 C 1.930 11.000,2.631 10.975,2.306 11.300 C 1.902 11.704,1.902 12.296,2.306 12.700 C 2.631 13.025,1.930 13.000,10.735 13.000 L 18.576 13.000 17.354 14.230 C 16.279 15.312,16.124 15.484,16.066 15.657 C 16.030 15.766,16.000 15.920,16.000 16.000 C 16.000 16.405,16.309 16.826,16.690 16.939 C 16.948 17.016,17.052 17.016,17.323 16.937 C 17.532 16.876,17.617 16.796,19.707 14.707 C 21.796 12.617,21.876 12.532,21.937 12.323 C 21.972 12.203,22.000 12.058,22.000 12.000 C 22.000 11.942,21.972 11.797,21.937 11.677 C 21.876 11.468,21.796 11.383,19.707 9.293 C 17.617 7.204,17.532 7.124,17.323 7.063 C 17.061 6.987,16.920 6.987,16.673 7.063 " stroke="none" fill-rule="evenodd" fill="black"></path></svg>