<svg width="24" height="24" viewBox="0 0 24 24" fill="none" xmlns="http://www.w3.org/2000/svg"><path d="M11.673 2.063 C 11.412 2.143,11.140 2.421,11.061 2.690 C 10.974 2.983,10.976 4.075,11.064 4.334 C 11.188 4.697,11.613 5.000,12.000 5.000 C 12.402 5.000,12.827 4.688,12.939 4.310 C 13.024 4.026,13.024 2.974,12.939 2.690 C 12.856 2.411,12.589 2.144,12.310 2.061 C 12.062 1.987,11.919 1.988,11.673 2.063 M5.305 4.699 C 5.074 4.781,4.874 4.962,4.746 5.204 C 4.646 5.394,4.634 5.452,4.650 5.680 C 4.660 5.823,4.700 6.003,4.740 6.079 C 4.779 6.155,5.010 6.421,5.252 6.669 C 5.806 7.236,5.985 7.336,6.409 7.314 C 6.652 7.302,6.730 7.279,6.879 7.179 C 6.978 7.112,7.112 6.978,7.179 6.879 C 7.279 6.730,7.302 6.652,7.314 6.409 C 7.336 5.980,7.236 5.804,6.646 5.231 C 6.276 4.872,6.132 4.758,5.980 4.706 C 5.746 4.627,5.515 4.624,5.305 4.699 M18.004 4.706 C 17.753 4.798,16.919 5.612,16.776 5.904 C 16.686 6.089,16.673 6.159,16.686 6.409 C 16.698 6.652,16.721 6.730,16.821 6.879 C 16.888 6.978,17.022 7.112,17.121 7.179 C 17.270 7.279,17.348 7.302,17.591 7.314 C 18.015 7.336,18.194 7.236,18.748 6.669 C 19.237 6.168,19.317 6.045,19.348 5.745 C 19.388 5.349,19.201 4.978,18.860 4.778 C 18.628 4.642,18.262 4.611,18.004 4.706 M11.580 7.023 C 11.015 7.102,10.810 7.144,10.480 7.248 C 8.867 7.756,7.586 9.112,7.161 10.760 C 6.920 11.693,6.983 12.875,7.320 13.752 C 7.829 15.077,8.887 16.144,10.207 16.663 C 11.298 17.093,12.702 17.093,13.793 16.663 C 15.135 16.135,16.223 15.022,16.699 13.688 C 17.096 12.576,17.082 11.272,16.663 10.207 C 16.033 8.604,14.610 7.415,12.945 7.099 C 12.620 7.038,11.802 6.992,11.580 7.023 M12.860 9.121 C 13.825 9.421,14.582 10.182,14.886 11.160 C 15.021 11.594,15.021 12.406,14.886 12.840 C 14.579 13.826,13.825 14.580,12.840 14.886 C 12.404 15.021,11.592 15.021,11.160 14.886 C 10.173 14.578,9.421 13.826,9.114 12.840 C 8.979 12.406,8.979 11.594,9.114 11.160 C 9.455 10.066,10.373 9.239,11.471 9.039 C 11.797 8.979,12.546 9.023,12.860 9.121 M2.673 11.063 C 2.310 11.175,2.000 11.606,2.000 12.000 C 2.000 12.405,2.309 12.826,2.690 12.939 C 2.974 13.024,4.026 13.024,4.310 12.939 C 4.688 12.827,5.000 12.402,5.000 12.000 C 5.000 11.598,4.688 11.173,4.310 11.061 C 4.035 10.979,2.941 10.981,2.673 11.063 M19.673 11.063 C 19.310 11.175,19.000 11.606,19.000 12.000 C 19.000 12.405,19.309 12.826,19.690 12.939 C 19.974 13.024,21.026 13.024,21.310 12.939 C 21.688 12.827,22.000 12.402,22.000 12.000 C 22.000 11.598,21.688 11.173,21.310 11.061 C 21.035 10.979,19.941 10.981,19.673 11.063 M5.896 16.778 C 5.666 16.894,4.857 17.693,4.740 17.919 C 4.701 17.995,4.661 18.167,4.650 18.301 C 4.617 18.716,4.827 19.070,5.223 19.263 C 5.412 19.356,5.478 19.368,5.693 19.351 C 5.831 19.340,6.005 19.299,6.081 19.260 C 6.156 19.221,6.421 18.990,6.669 18.748 C 7.236 18.194,7.336 18.015,7.314 17.591 C 7.302 17.348,7.279 17.270,7.179 17.121 C 6.995 16.848,6.731 16.704,6.384 16.688 C 6.142 16.677,6.070 16.690,5.896 16.778 M17.215 16.780 C 16.849 16.963,16.680 17.234,16.680 17.642 C 16.680 18.031,16.791 18.220,17.332 18.749 C 17.832 19.237,17.955 19.317,18.255 19.348 C 18.675 19.391,19.048 19.186,19.252 18.799 C 19.354 18.606,19.366 18.549,19.350 18.320 C 19.340 18.177,19.300 17.997,19.260 17.921 C 19.142 17.692,18.335 16.894,18.106 16.781 C 17.828 16.642,17.492 16.642,17.215 16.780 M11.673 19.063 C 11.412 19.143,11.140 19.421,11.061 19.690 C 10.974 19.983,10.976 21.075,11.064 21.334 C 11.188 21.697,11.613 22.000,12.000 22.000 C 12.402 22.000,12.827 21.688,12.939 21.310 C 13.024 21.026,13.024 19.974,12.939 19.690 C 12.856 19.411,12.589 19.144,12.310 19.061 C 12.062 18.987,11.919 18.988,11.673 19.063 " stroke="none" fill-rule="evenodd" fill="black"></path></svg>