<svg width="24" height="24" viewBox="0 0 24 24" fill="none" xmlns="http://www.w3.org/2000/svg"><path d="M9.680 6.024 C 9.493 6.059,9.101 6.211,8.944 6.310 C 8.590 6.533,3.367 10.481,3.210 10.643 C 3.002 10.858,2.784 11.266,2.724 11.552 C 2.582 12.231,2.784 12.934,3.253 13.395 C 3.367 13.507,4.708 14.533,6.232 15.675 C 9.283 17.960,9.248 17.939,9.877 17.987 C 10.841 18.061,11.784 17.333,11.957 16.383 C 11.981 16.251,12.000 15.668,12.000 15.073 L 12.000 14.000 14.502 15.876 C 17.256 17.941,17.253 17.939,17.877 17.987 C 18.841 18.061,19.784 17.333,19.957 16.383 C 20.017 16.053,20.017 7.947,19.957 7.617 C 19.836 6.953,19.342 6.382,18.660 6.119 C 18.464 6.043,18.343 6.026,18.000 6.026 C 17.549 6.026,17.282 6.098,16.944 6.311 C 16.858 6.365,15.710 7.217,14.394 8.205 L 12.000 10.001 12.000 8.928 C 12.000 8.332,11.981 7.749,11.957 7.617 C 11.836 6.952,11.333 6.372,10.662 6.123 C 10.428 6.037,9.900 5.983,9.680 6.024 M10.000 12.000 L 10.000 16.000 7.342 14.010 C 5.880 12.916,4.684 12.011,4.684 12.000 C 4.684 11.984,9.955 8.013,9.990 8.003 C 9.995 8.001,10.000 9.800,10.000 12.000 M18.000 12.000 L 18.000 16.000 15.342 14.010 C 13.880 12.916,12.684 12.011,12.684 12.000 C 12.684 11.984,17.955 8.013,17.990 8.003 C 17.995 8.001,18.000 9.800,18.000 12.000 " stroke="none" fill-rule="evenodd" fill="black"></path></svg>