<svg width="24" height="24" viewBox="0 0 24 24" fill="none" xmlns="http://www.w3.org/2000/svg"><path d="M14.729 3.537 C 8.187 5.174,8.406 5.111,8.197 5.404 C 7.992 5.692,8.000 5.459,8.000 11.119 L 8.000 16.389 7.682 16.276 C 7.144 16.086,6.733 16.024,6.000 16.024 C 5.244 16.024,4.849 16.086,4.252 16.300 C 2.743 16.839,1.852 18.047,2.034 19.308 C 2.142 20.050,2.505 20.630,3.177 21.130 C 3.773 21.573,4.512 21.855,5.340 21.956 C 7.313 22.196,9.195 21.345,9.802 19.937 C 9.998 19.481,10.000 19.441,10.000 14.966 L 10.000 10.780 14.950 9.544 C 17.672 8.864,19.922 8.299,19.950 8.289 C 19.990 8.275,20.000 8.800,20.000 10.830 L 20.000 13.389 19.682 13.276 C 19.141 13.084,18.733 13.023,18.000 13.023 C 17.245 13.023,16.853 13.085,16.252 13.300 C 14.743 13.839,13.852 15.047,14.034 16.308 C 14.142 17.050,14.505 17.630,15.177 18.130 C 15.773 18.573,16.512 18.855,17.340 18.956 C 19.313 19.196,21.195 18.345,21.802 16.937 C 22.004 16.467,22.000 16.632,22.000 9.504 C 22.000 3.414,21.994 2.838,21.934 2.659 C 21.810 2.296,21.388 1.998,21.003 2.001 C 20.924 2.002,18.101 2.693,14.729 3.537 M20.000 5.250 L 20.000 6.220 15.050 7.456 C 12.328 8.136,10.078 8.701,10.050 8.711 C 10.011 8.725,10.000 8.517,10.000 7.754 L 10.000 6.780 14.970 5.534 C 17.703 4.848,19.953 4.286,19.970 4.284 C 19.987 4.282,20.000 4.717,20.000 5.250 M18.820 15.097 C 19.375 15.245,19.912 15.615,19.983 15.898 C 20.023 16.057,19.971 16.190,19.793 16.383 C 19.607 16.585,19.198 16.802,18.800 16.910 C 18.439 17.007,17.561 17.007,17.200 16.910 C 16.802 16.802,16.393 16.585,16.207 16.383 C 15.942 16.095,15.937 15.914,16.188 15.637 C 16.429 15.370,16.840 15.167,17.360 15.057 C 17.691 14.988,18.492 15.009,18.820 15.097 M6.820 18.097 C 7.375 18.245,7.912 18.615,7.983 18.898 C 8.023 19.057,7.971 19.190,7.793 19.383 C 7.607 19.585,7.198 19.802,6.800 19.910 C 6.439 20.007,5.561 20.007,5.200 19.910 C 4.802 19.802,4.393 19.585,4.207 19.383 C 3.942 19.095,3.937 18.914,4.188 18.637 C 4.429 18.370,4.840 18.167,5.360 18.057 C 5.691 17.988,6.492 18.009,6.820 18.097 " stroke="none" fill-rule="evenodd" fill="black"></path></svg>