<svg width="24" height="24" viewBox="0 0 24 24" fill="none" xmlns="http://www.w3.org/2000/svg"><path d="M11.100 2.041 C 9.341 2.219,7.729 2.802,6.335 3.767 C 3.070 6.025,1.454 9.944,2.178 13.846 C 2.468 15.412,3.137 16.886,4.154 18.200 C 4.493 18.637,5.363 19.507,5.800 19.846 C 8.241 21.735,11.253 22.412,14.240 21.741 C 17.932 20.912,20.910 17.933,21.741 14.240 C 21.929 13.402,21.977 12.954,21.977 12.000 C 21.977 11.046,21.929 10.598,21.741 9.760 C 21.274 7.685,20.065 5.706,18.437 4.354 C 16.934 3.106,15.158 2.329,13.240 2.080 C 12.775 2.019,11.539 1.997,11.100 2.041 M12.832 4.042 C 14.361 4.210,15.851 4.828,17.040 5.789 C 17.394 6.075,18.067 6.761,18.326 7.100 C 19.406 8.514,20.000 10.253,20.000 12.000 C 20.000 13.810,19.358 15.619,18.211 17.041 C 17.900 17.426,17.184 18.117,16.800 18.402 C 13.933 20.529,10.067 20.529,7.200 18.402 C 6.816 18.117,6.100 17.426,5.789 17.041 C 3.835 14.619,3.452 11.319,4.800 8.529 C 5.197 7.706,5.611 7.114,6.259 6.446 C 6.951 5.730,7.648 5.225,8.526 4.801 C 9.865 4.154,11.392 3.885,12.832 4.042 M8.650 7.064 C 8.170 7.241,7.887 7.832,8.055 8.305 C 8.085 8.390,8.454 9.031,8.873 9.730 L 9.637 11.000 9.266 11.000 C 8.768 11.000,8.533 11.073,8.306 11.300 C 7.902 11.704,7.902 12.296,8.306 12.700 C 8.581 12.974,8.714 13.000,9.864 13.000 L 10.833 13.000 10.917 13.135 C 10.985 13.245,11.000 13.334,11.000 13.635 L 11.000 14.000 9.947 14.000 C 8.706 14.000,8.584 14.022,8.306 14.300 C 7.902 14.704,7.902 15.296,8.306 15.700 C 8.584 15.978,8.706 16.000,9.947 16.000 L 11.000 16.000 11.000 16.573 C 11.000 17.265,11.048 17.442,11.306 17.700 C 11.486 17.879,11.764 18.000,12.000 18.000 C 12.237 18.000,12.514 17.880,12.697 17.697 C 12.948 17.446,13.000 17.249,13.000 16.553 L 13.000 16.000 14.053 16.000 C 15.297 16.000,15.416 15.978,15.697 15.697 C 15.880 15.514,16.000 15.237,16.000 15.000 C 16.000 14.763,15.880 14.486,15.697 14.303 C 15.416 14.022,15.297 14.000,14.053 14.000 L 13.000 14.000 13.000 13.635 C 13.000 13.334,13.015 13.245,13.083 13.135 L 13.167 13.000 14.136 13.000 C 15.289 13.000,15.419 12.975,15.697 12.697 C 15.880 12.514,16.000 12.237,16.000 12.000 C 16.000 11.763,15.880 11.486,15.697 11.303 C 15.467 11.073,15.235 11.000,14.734 11.000 L 14.363 11.000 15.127 9.730 C 15.546 9.031,15.915 8.390,15.945 8.305 C 16.176 7.655,15.598 6.932,14.912 7.013 C 14.651 7.044,14.378 7.185,14.243 7.359 C 14.182 7.437,13.661 8.287,13.084 9.250 C 12.508 10.213,12.020 11.000,12.000 11.000 C 11.980 11.000,11.492 10.213,10.916 9.250 C 10.339 8.287,9.818 7.437,9.757 7.359 C 9.531 7.069,9.013 6.931,8.650 7.064 " stroke="none" fill-rule="evenodd" fill="black"></path></svg>