<svg width="24" height="24" viewBox="0 0 24 24" fill="none" xmlns="http://www.w3.org/2000/svg"><path d="M16.580 2.023 C 16.014 2.102,15.810 2.144,15.480 2.249 C 15.023 2.394,14.656 2.573,14.200 2.871 C 13.733 3.177,12.311 4.574,12.176 4.860 C 11.873 5.500,12.329 6.240,13.034 6.252 C 13.441 6.259,13.518 6.210,14.280 5.462 C 15.278 4.483,15.505 4.319,16.161 4.114 C 16.593 3.979,17.406 3.979,17.840 4.114 C 18.826 4.421,19.578 5.173,19.886 6.160 C 19.967 6.418,19.980 6.539,19.977 7.020 C 19.974 7.508,19.961 7.620,19.872 7.887 C 19.729 8.318,19.531 8.652,19.187 9.043 C 18.740 9.549,14.970 13.284,14.740 13.448 C 14.468 13.642,14.195 13.775,13.839 13.886 C 13.407 14.021,12.594 14.021,12.160 13.886 C 11.731 13.753,11.391 13.560,10.991 13.225 C 10.623 12.917,10.453 12.840,10.144 12.840 C 9.622 12.840,9.190 13.282,9.190 13.815 C 9.190 14.251,9.354 14.493,9.964 14.962 C 10.961 15.726,12.231 16.089,13.470 15.964 C 13.728 15.938,14.048 15.889,14.180 15.856 C 14.831 15.690,15.520 15.358,16.036 14.961 C 16.402 14.679,20.752 10.322,21.011 9.978 C 21.240 9.673,21.565 9.066,21.695 8.700 C 21.948 7.988,22.038 7.262,21.964 6.530 C 21.890 5.791,21.737 5.286,21.395 4.644 C 20.692 3.325,19.407 2.377,17.945 2.099 C 17.620 2.038,16.802 1.992,16.580 2.023 M10.580 8.023 C 10.014 8.102,9.810 8.144,9.480 8.249 C 9.025 8.393,8.658 8.572,8.200 8.870 C 7.920 9.053,7.453 9.497,5.566 11.376 C 4.305 12.632,3.168 13.797,3.039 13.964 C 2.274 14.959,1.910 16.230,2.036 17.470 C 2.111 18.209,2.263 18.714,2.606 19.358 C 3.268 20.601,4.427 21.501,5.820 21.856 C 6.276 21.972,6.954 22.016,7.470 21.964 C 8.209 21.889,8.714 21.737,9.358 21.394 C 9.898 21.106,10.126 20.922,10.974 20.084 C 11.815 19.255,11.919 19.104,11.920 18.718 C 11.921 17.993,11.117 17.511,10.465 17.846 C 10.418 17.870,10.074 18.191,9.700 18.558 C 8.727 19.514,8.492 19.681,7.839 19.886 C 7.407 20.021,6.594 20.021,6.160 19.886 C 5.174 19.579,4.421 18.826,4.114 17.840 C 3.979 17.406,3.979 16.593,4.114 16.161 C 4.225 15.805,4.358 15.532,4.552 15.260 C 4.722 15.023,8.462 11.249,8.977 10.796 C 9.373 10.448,9.709 10.254,10.160 10.114 C 10.594 9.979,11.406 9.979,11.840 10.114 C 12.271 10.248,12.609 10.440,13.017 10.781 C 13.391 11.094,13.535 11.159,13.851 11.160 C 14.382 11.160,14.810 10.724,14.810 10.182 C 14.810 9.838,14.708 9.632,14.391 9.335 C 13.741 8.729,12.826 8.267,11.945 8.099 C 11.620 8.038,10.802 7.992,10.580 8.023 " stroke="none" fill-rule="evenodd" fill="black"></path></svg>