<svg width="24" height="24" viewBox="0 0 24 24" fill="none" xmlns="http://www.w3.org/2000/svg"><path d="M10.580 4.026 C 9.945 4.098,9.675 4.148,9.280 4.267 C 8.278 4.569,7.457 5.064,6.731 5.805 C 5.589 6.971,5.009 8.416,5.001 10.120 L 4.999 10.420 4.763 10.530 C 3.721 11.015,2.707 12.152,2.299 13.295 C 1.909 14.385,1.917 15.704,2.320 16.752 C 2.999 18.520,4.588 19.754,6.448 19.957 C 6.939 20.011,16.015 20.014,16.564 19.961 C 18.921 19.731,20.913 18.163,21.671 15.940 C 22.168 14.483,22.068 12.749,21.410 11.420 C 20.785 10.159,19.860 9.229,18.602 8.600 C 18.236 8.417,17.461 8.170,17.033 8.101 C 16.833 8.069,16.666 8.037,16.662 8.031 C 16.658 8.025,16.607 7.894,16.547 7.740 C 15.969 6.241,14.576 4.907,13.020 4.361 C 12.221 4.081,11.258 3.948,10.580 4.026 M11.967 6.114 C 12.693 6.306,13.272 6.638,13.817 7.174 C 14.358 7.707,14.667 8.241,14.865 8.989 C 14.988 9.451,15.030 9.539,15.207 9.706 C 15.438 9.923,15.579 9.970,16.100 10.002 C 16.661 10.037,17.063 10.121,17.480 10.290 C 18.751 10.807,19.643 11.882,19.918 13.228 C 20.289 15.050,19.303 16.931,17.595 17.662 C 17.417 17.738,17.126 17.841,16.946 17.890 L 16.620 17.980 11.540 17.980 L 6.460 17.980 6.160 17.886 C 5.173 17.578,4.420 16.824,4.114 15.840 C 3.993 15.448,3.982 14.644,4.092 14.241 C 4.381 13.187,5.194 12.385,6.277 12.084 C 6.713 11.964,6.982 11.717,7.086 11.344 C 7.120 11.219,7.119 11.104,7.080 10.860 C 6.985 10.254,6.984 9.703,7.079 9.241 C 7.410 7.630,8.596 6.431,10.203 6.082 C 10.692 5.976,11.500 5.991,11.967 6.114 " stroke="none" fill-rule="evenodd" fill="black"></path></svg>