<svg width="24" height="24" viewBox="0 0 24 24" fill="none" xmlns="http://www.w3.org/2000/svg"><path d="M3.673 7.063 C 3.310 7.175,3.000 7.606,3.000 8.000 C 3.000 8.405,3.309 8.826,3.690 8.939 C 3.870 8.993,4.860 9.000,12.000 9.000 C 19.140 9.000,20.130 8.993,20.310 8.939 C 20.688 8.827,21.000 8.402,21.000 8.000 C 21.000 7.598,20.688 7.173,20.310 7.061 C 20.130 7.007,19.144 7.000,11.983 7.003 C 5.030 7.005,3.833 7.014,3.673 7.063 M3.673 15.063 C 3.310 15.175,3.000 15.606,3.000 16.000 C 3.000 16.405,3.309 16.826,3.690 16.939 C 3.870 16.993,4.860 17.000,12.000 17.000 C 19.140 17.000,20.130 16.993,20.310 16.939 C 20.688 16.827,21.000 16.402,21.000 16.000 C 21.000 15.598,20.688 15.173,20.310 15.061 C 20.130 15.007,19.144 15.000,11.983 15.003 C 5.030 15.005,3.833 15.014,3.673 15.063 " stroke="none" fill-rule="evenodd" fill="black"></path></svg>