<svg width="24" height="24" viewBox="0 0 24 24" fill="none" xmlns="http://www.w3.org/2000/svg"><path d="M8.673 2.063 C 8.429 2.138,8.150 2.414,8.064 2.666 C 8.017 2.804,8.000 3.007,8.000 3.427 L 8.000 4.000 5.447 4.000 C 2.542 4.000,2.613 3.993,2.306 4.300 C 1.902 4.704,1.902 5.296,2.306 5.700 C 2.624 6.017,2.340 6.000,7.210 6.000 C 11.301 6.000,11.524 6.004,11.505 6.070 C 11.493 6.109,11.455 6.257,11.420 6.400 C 11.195 7.305,10.738 8.524,10.258 9.500 C 9.820 10.391,9.073 11.617,8.985 11.589 C 8.853 11.547,7.896 9.865,7.478 8.940 C 7.220 8.368,7.077 8.195,6.767 8.078 C 6.111 7.830,5.427 8.301,5.427 9.000 C 5.427 9.170,5.466 9.310,5.596 9.616 C 6.044 10.663,6.716 11.865,7.408 12.854 C 7.592 13.117,7.676 13.271,7.660 13.319 C 7.648 13.359,7.291 13.731,6.869 14.146 C 5.579 15.412,4.477 16.212,2.750 17.137 C 2.327 17.363,2.154 17.532,2.066 17.804 C 1.984 18.059,1.983 18.215,2.061 18.445 C 2.198 18.848,2.581 19.120,3.009 19.120 C 3.221 19.120,3.294 19.093,3.830 18.814 C 5.563 17.913,7.101 16.774,8.533 15.330 L 9.006 14.853 9.222 15.079 C 9.509 15.379,9.716 15.480,10.044 15.479 C 10.373 15.478,10.575 15.386,10.792 15.140 C 10.989 14.915,11.057 14.705,11.029 14.396 C 11.002 14.102,10.946 14.003,10.585 13.610 L 10.281 13.281 10.572 12.870 C 11.896 11.003,12.887 8.823,13.445 6.550 L 13.580 6.000 14.343 6.000 C 15.268 6.000,15.430 5.964,15.697 5.697 C 15.880 5.514,16.000 5.237,16.000 5.000 C 16.000 4.763,15.880 4.486,15.697 4.303 C 15.386 3.993,15.462 4.000,12.553 4.000 L 10.000 4.000 10.000 3.447 C 10.000 2.751,9.948 2.554,9.697 2.303 C 9.418 2.024,9.067 1.942,8.673 2.063 M15.692 10.058 C 15.599 10.087,15.450 10.169,15.359 10.241 C 15.209 10.360,14.975 10.810,12.621 15.519 C 10.821 19.119,10.039 20.722,10.019 20.852 C 9.910 21.577,10.620 22.173,11.317 21.941 C 11.687 21.818,11.767 21.703,12.475 20.290 L 13.121 19.000 16.000 19.000 L 18.879 19.000 19.525 20.290 C 20.233 21.703,20.313 21.818,20.683 21.941 C 21.380 22.173,22.090 21.577,21.981 20.852 C 21.961 20.722,21.179 19.118,19.377 15.514 C 16.829 10.419,16.798 10.359,16.610 10.223 C 16.314 10.008,16.021 9.955,15.692 10.058 M16.950 15.140 L 17.880 17.000 16.000 17.000 L 14.120 17.000 15.050 15.140 C 15.561 14.117,15.989 13.280,16.000 13.280 C 16.011 13.280,16.439 14.117,16.950 15.140 " stroke="none" fill-rule="evenodd" fill="black"></path></svg>