<svg width="24" height="24" viewBox="0 0 24 24" fill="none" xmlns="http://www.w3.org/2000/svg"><path d="M2.673 6.063 C 2.429 6.138,2.150 6.414,2.064 6.666 C 1.983 6.905,1.983 7.094,2.065 7.343 C 2.124 7.523,2.405 7.815,5.295 10.707 C 8.371 13.785,8.466 13.875,8.677 13.937 C 8.950 14.016,9.051 14.016,9.323 13.936 C 9.530 13.875,9.616 13.797,11.271 12.147 L 13.001 10.422 15.791 13.211 L 18.580 16.000 15.737 16.000 C 12.510 16.000,12.616 15.991,12.306 16.300 C 11.902 16.704,11.902 17.296,12.306 17.700 C 12.623 18.016,12.365 18.000,17.000 18.000 C 21.641 18.000,21.377 18.017,21.697 17.697 C 22.017 17.377,22.000 17.641,22.000 13.000 C 22.000 8.359,22.017 8.623,21.697 8.303 C 21.514 8.120,21.237 8.000,21.000 8.000 C 20.764 8.000,20.486 8.121,20.306 8.300 C 19.988 8.619,20.000 8.481,20.000 11.716 L 20.000 14.578 16.770 11.353 C 13.634 8.220,13.534 8.125,13.323 8.063 C 13.050 7.984,12.949 7.984,12.677 8.064 C 12.470 8.125,12.384 8.203,10.730 9.853 L 8.999 11.578 6.270 8.852 C 3.628 6.215,3.533 6.125,3.323 6.064 C 3.061 5.987,2.920 5.987,2.673 6.063 " stroke="none" fill-rule="evenodd" fill="black"></path></svg>