<svg width="24" height="24" viewBox="0 0 24 24" fill="none" xmlns="http://www.w3.org/2000/svg"><path d="M10.560 1.026 C 9.588 1.114,8.677 1.403,7.908 1.866 C 7.114 2.344,6.339 3.118,5.872 3.900 C 5.288 4.878,5.006 5.919,5.001 7.120 L 4.999 7.420 4.763 7.530 C 3.721 8.015,2.707 9.152,2.299 10.295 C 1.971 11.212,1.920 12.299,2.161 13.240 C 2.506 14.583,3.410 15.732,4.647 16.398 C 5.279 16.739,5.808 16.895,6.567 16.966 C 6.999 17.007,7.088 17.004,7.287 16.946 C 7.687 16.829,8.000 16.414,8.000 16.000 C 8.000 15.645,7.725 15.225,7.407 15.092 C 7.326 15.058,7.070 15.015,6.838 14.996 C 5.935 14.924,5.273 14.585,4.679 13.891 C 4.437 13.609,4.238 13.239,4.114 12.840 C 3.993 12.448,3.982 11.644,4.092 11.241 C 4.381 10.187,5.194 9.385,6.277 9.084 C 6.713 8.964,6.982 8.717,7.086 8.344 C 7.120 8.219,7.119 8.104,7.080 7.860 C 6.985 7.254,6.984 6.703,7.079 6.242 C 7.413 4.612,8.609 3.416,10.241 3.079 C 10.589 3.007,10.745 2.995,11.160 3.013 C 12.214 3.057,13.056 3.425,13.817 4.174 C 14.358 4.707,14.667 5.241,14.865 5.989 C 14.988 6.451,15.030 6.539,15.207 6.706 C 15.438 6.923,15.579 6.970,16.100 7.002 C 16.661 7.037,17.063 7.121,17.480 7.290 C 18.502 7.706,19.277 8.475,19.699 9.495 C 20.194 10.691,20.063 12.098,19.355 13.176 C 18.800 14.022,17.966 14.619,16.979 14.879 C 16.804 14.925,16.611 14.982,16.551 15.006 C 16.392 15.069,16.143 15.356,16.061 15.573 C 15.883 16.037,16.149 16.626,16.626 16.825 C 16.919 16.947,17.451 16.864,18.171 16.584 C 20.025 15.861,21.401 14.255,21.858 12.280 C 22.082 11.312,22.009 10.050,21.671 9.060 C 21.161 7.563,20.072 6.335,18.602 5.600 C 18.236 5.417,17.461 5.170,17.033 5.101 C 16.833 5.069,16.666 5.037,16.662 5.031 C 16.658 5.025,16.607 4.894,16.547 4.740 C 16.069 3.499,15.005 2.334,13.760 1.685 C 12.787 1.178,11.589 0.932,10.560 1.026 M11.673 9.063 C 11.412 9.143,11.140 9.421,11.061 9.690 C 11.008 9.868,11.000 10.518,11.000 14.734 L 11.000 19.574 10.267 18.851 C 9.603 18.195,9.515 18.122,9.320 18.064 C 9.053 17.984,8.948 17.984,8.690 18.061 C 8.309 18.174,8.000 18.595,8.000 19.000 C 8.000 19.080,8.029 19.234,8.065 19.343 C 8.124 19.520,8.302 19.712,9.795 21.207 C 11.390 22.803,11.469 22.876,11.677 22.937 C 11.949 23.016,12.051 23.016,12.323 22.937 C 12.531 22.876,12.611 22.802,14.207 21.207 C 15.802 19.611,15.876 19.531,15.937 19.323 C 16.016 19.052,16.016 18.948,15.939 18.690 C 15.856 18.411,15.589 18.144,15.310 18.061 C 15.052 17.984,14.947 17.984,14.680 18.064 C 14.485 18.122,14.397 18.195,13.733 18.851 L 13.000 19.574 13.000 14.734 C 13.000 9.274,13.020 9.626,12.697 9.303 C 12.418 9.024,12.067 8.942,11.673 9.063 " stroke="none" fill-rule="evenodd" fill="black"></path></svg>