<svg width="24" height="24" viewBox="0 0 24 24" fill="none" xmlns="http://www.w3.org/2000/svg"><path d="M4.506 4.042 C 3.382 4.231,2.426 5.084,2.112 6.178 L 2.020 6.500 2.020 12.000 L 2.020 17.500 2.112 17.822 C 2.391 18.796,3.204 19.609,4.178 19.888 L 4.500 19.980 12.000 19.980 L 19.500 19.980 19.822 19.888 C 19.999 19.837,20.269 19.726,20.422 19.641 C 21.129 19.248,21.672 18.574,21.888 17.822 L 21.980 17.500 21.980 12.000 L 21.980 6.500 21.888 6.178 C 21.570 5.069,20.616 4.227,19.467 4.041 C 19.167 3.992,4.797 3.993,4.506 4.042 M19.330 6.057 C 19.551 6.136,19.744 6.298,19.868 6.510 C 19.962 6.671,19.980 6.751,19.993 7.079 L 20.009 7.461 16.239 9.974 C 14.165 11.357,12.397 12.513,12.309 12.544 C 12.107 12.615,11.893 12.615,11.691 12.544 C 11.603 12.513,9.835 11.357,7.761 9.974 L 3.991 7.461 4.007 7.079 C 4.020 6.751,4.038 6.671,4.132 6.510 C 4.256 6.298,4.449 6.136,4.670 6.057 C 4.893 5.978,19.107 5.978,19.330 6.057 M7.269 12.046 C 9.012 13.208,10.545 14.212,10.677 14.278 C 11.468 14.678,12.532 14.678,13.323 14.279 C 13.454 14.212,15.006 13.195,16.771 12.019 L 19.980 9.880 19.990 13.505 C 19.997 15.835,19.986 17.183,19.960 17.279 C 19.901 17.498,19.709 17.739,19.492 17.867 L 19.300 17.980 12.086 17.990 C 7.332 17.997,4.821 17.987,4.722 17.961 C 4.502 17.901,4.261 17.709,4.133 17.492 L 4.020 17.300 4.009 13.587 C 4.000 10.594,4.008 9.880,4.049 9.905 C 4.077 9.922,5.526 10.885,7.269 12.046 " stroke="none" fill-rule="evenodd" fill="black"></path></svg>