<svg width="24" height="24" viewBox="0 0 24 24" fill="none" xmlns="http://www.w3.org/2000/svg"><path d="M6.660 3.066 C 6.474 3.122,6.306 3.280,4.295 5.293 C 2.336 7.254,2.124 7.479,2.065 7.657 C 2.029 7.766,2.000 7.920,2.000 8.000 C 2.000 8.405,2.309 8.826,2.690 8.939 C 2.949 9.016,3.053 9.016,3.323 8.936 C 3.528 8.875,3.610 8.801,4.770 7.648 L 6.000 6.424 6.000 11.285 C 6.000 16.757,5.978 16.372,6.306 16.700 C 6.486 16.879,6.764 17.000,7.000 17.000 C 7.402 17.000,7.827 16.688,7.939 16.310 C 7.992 16.132,8.000 15.482,8.000 11.265 L 8.000 6.424 9.230 7.648 C 10.390 8.801,10.472 8.875,10.677 8.936 C 10.947 9.016,11.051 9.016,11.310 8.939 C 11.589 8.856,11.856 8.589,11.939 8.310 C 12.016 8.052,12.016 7.948,11.937 7.677 C 11.876 7.468,11.796 7.383,9.707 5.293 C 7.617 3.204,7.532 3.124,7.323 3.063 C 7.059 2.986,6.922 2.987,6.660 3.066 M16.673 7.063 C 16.429 7.138,16.150 7.414,16.064 7.666 C 16.007 7.835,16.000 8.362,16.000 12.715 L 16.000 17.576 14.770 16.352 C 13.610 15.199,13.528 15.125,13.323 15.064 C 13.053 14.984,12.949 14.984,12.690 15.061 C 12.309 15.174,12.000 15.595,12.000 16.000 C 12.000 16.080,12.029 16.234,12.065 16.343 C 12.124 16.521,12.336 16.746,14.295 18.707 C 16.384 20.797,16.468 20.876,16.677 20.937 C 16.949 21.016,17.051 21.016,17.323 20.937 C 17.532 20.876,17.617 20.796,19.707 18.707 C 21.796 16.617,21.876 16.532,21.937 16.323 C 22.016 16.052,22.016 15.948,21.939 15.690 C 21.856 15.411,21.589 15.144,21.310 15.061 C 21.051 14.984,20.947 14.984,20.677 15.064 C 20.472 15.125,20.390 15.199,19.230 16.352 L 18.000 17.576 18.000 12.735 C 18.000 7.274,18.020 7.626,17.697 7.303 C 17.418 7.024,17.067 6.942,16.673 7.063 " stroke="none" fill-rule="evenodd" fill="black"></path></svg>