<svg width="24" height="24" viewBox="0 0 24 24" fill="none" xmlns="http://www.w3.org/2000/svg"><path d="M10.920 2.043 C 6.877 2.294,3.759 3.949,3.110 6.188 L 3.020 6.500 3.020 12.000 L 3.020 17.500 3.110 17.812 C 3.296 18.452,3.656 19.014,4.241 19.575 C 7.039 22.261,13.909 22.815,18.137 20.696 C 19.578 19.973,20.562 18.943,20.890 17.812 L 20.980 17.500 20.980 12.000 L 20.980 6.500 20.890 6.188 C 20.705 5.550,20.344 4.986,19.764 4.430 C 18.010 2.747,14.561 1.816,10.920 2.043 M13.720 4.098 C 14.357 4.180,14.797 4.261,15.300 4.386 C 17.495 4.935,18.980 5.990,18.980 6.999 C 18.980 7.991,17.559 9.022,15.422 9.581 C 14.293 9.876,13.399 9.980,12.000 9.980 C 10.887 9.980,10.504 9.951,9.580 9.797 C 6.990 9.366,5.020 8.157,5.020 7.000 C 5.020 5.693,7.465 4.382,10.460 4.083 C 10.702 4.059,10.963 4.032,11.040 4.023 C 11.380 3.985,13.250 4.037,13.720 4.098 M5.872 10.700 C 9.298 12.422,14.702 12.422,18.128 10.700 C 18.366 10.580,18.660 10.418,18.782 10.340 L 19.004 10.199 18.992 11.229 C 18.980 12.244,18.978 12.263,18.876 12.480 C 18.471 13.338,17.185 14.120,15.422 14.581 C 14.293 14.876,13.399 14.980,12.000 14.980 C 10.887 14.980,10.504 14.951,9.580 14.797 C 7.438 14.440,5.641 13.523,5.156 12.539 L 5.020 12.262 5.008 11.230 L 4.996 10.199 5.218 10.340 C 5.340 10.418,5.634 10.580,5.872 10.700 M5.872 15.700 C 9.298 17.422,14.702 17.422,18.128 15.700 C 18.366 15.580,18.660 15.418,18.782 15.340 L 19.004 15.199 18.992 16.229 C 18.980 17.244,18.978 17.263,18.876 17.480 C 18.471 18.338,17.185 19.120,15.422 19.581 C 14.293 19.876,13.399 19.980,12.000 19.980 C 10.887 19.980,10.504 19.951,9.580 19.797 C 7.438 19.440,5.641 18.523,5.156 17.539 L 5.020 17.262 5.008 16.230 L 4.996 15.199 5.218 15.340 C 5.340 15.418,5.634 15.580,5.872 15.700 " stroke="none" fill-rule="evenodd" fill="black"></path></svg>