<svg width="24" height="24" viewBox="0 0 24 24" fill="none" xmlns="http://www.w3.org/2000/svg"><path d="M12.673 6.063 C 12.553 6.100,12.421 6.185,12.307 6.299 C 11.902 6.704,11.902 7.295,12.306 7.700 C 12.616 8.009,12.510 8.000,15.737 8.000 L 18.580 8.000 15.791 10.789 L 13.001 13.578 11.271 11.853 C 9.616 10.203,9.530 10.125,9.323 10.064 C 9.051 9.984,8.950 9.984,8.677 10.063 C 8.466 10.125,8.371 10.215,5.295 13.293 C 2.405 16.185,2.124 16.477,2.065 16.657 C 2.029 16.766,2.000 16.920,2.000 17.000 C 2.000 17.405,2.309 17.826,2.690 17.939 C 2.948 18.016,3.052 18.016,3.323 17.936 C 3.533 17.875,3.628 17.785,6.270 15.148 L 8.999 12.422 10.730 14.147 C 12.384 15.797,12.470 15.875,12.677 15.936 C 12.949 16.016,13.050 16.016,13.323 15.937 C 13.534 15.875,13.634 15.780,16.770 12.647 L 20.000 9.422 20.000 12.284 C 20.000 15.519,19.988 15.381,20.306 15.700 C 20.486 15.879,20.764 16.000,21.000 16.000 C 21.402 16.000,21.827 15.688,21.939 15.310 C 22.031 15.002,22.031 6.998,21.939 6.690 C 21.856 6.411,21.589 6.144,21.310 6.061 C 21.011 5.972,12.962 5.974,12.673 6.063 " stroke="none" fill-rule="evenodd" fill="black"></path></svg>