<svg width="24" height="24" viewBox="0 0 24 24" fill="none" xmlns="http://www.w3.org/2000/svg"><path d="M5.506 3.042 C 4.382 3.231,3.426 4.084,3.112 5.178 L 3.020 5.500 3.020 12.000 L 3.020 18.500 3.112 18.822 C 3.391 19.796,4.204 20.609,5.178 20.888 L 5.500 20.980 12.000 20.980 L 18.500 20.980 18.822 20.888 C 19.796 20.609,20.609 19.796,20.888 18.822 L 20.980 18.500 20.980 12.000 L 20.980 5.500 20.888 5.178 C 20.570 4.069,19.616 3.227,18.467 3.041 C 18.167 2.992,5.797 2.993,5.506 3.042 M18.330 5.057 C 18.551 5.136,18.744 5.298,18.869 5.511 L 18.980 5.700 18.991 8.846 L 19.002 11.993 17.991 12.008 C 17.046 12.023,16.964 12.030,16.740 12.118 C 16.608 12.169,16.410 12.271,16.300 12.344 C 16.190 12.417,15.533 13.044,14.840 13.738 L 13.580 15.000 12.000 15.000 L 10.420 15.000 9.200 13.777 C 7.409 11.982,7.499 12.031,6.009 12.008 L 4.998 11.993 5.009 8.846 L 5.020 5.700 5.131 5.511 C 5.256 5.298,5.449 5.136,5.670 5.057 C 5.892 4.978,18.108 4.978,18.330 5.057 M7.918 15.332 C 9.104 16.508,9.291 16.678,9.522 16.788 C 9.666 16.857,9.890 16.933,10.019 16.956 C 10.337 17.015,13.663 17.015,13.981 16.956 C 14.110 16.933,14.334 16.857,14.478 16.788 C 14.709 16.678,14.896 16.508,16.082 15.332 L 17.424 14.000 18.213 14.000 L 19.003 14.000 18.991 16.150 L 18.980 18.300 18.869 18.489 C 18.744 18.702,18.551 18.864,18.330 18.943 C 18.108 19.022,5.892 19.022,5.670 18.943 C 5.449 18.864,5.256 18.702,5.131 18.489 L 5.020 18.300 5.009 16.150 L 4.997 14.000 5.787 14.000 L 6.576 14.000 7.918 15.332 " stroke="none" fill-rule="evenodd" fill="black"></path></svg>