<svg width="24" height="24" viewBox="0 0 24 24" fill="none" xmlns="http://www.w3.org/2000/svg"><path d="M9.540 3.059 C 8.952 3.168,8.354 3.480,7.943 3.892 C 7.830 4.007,7.500 4.454,7.210 4.886 C 6.920 5.318,6.618 5.725,6.539 5.790 C 6.323 5.969,6.158 6.000,5.435 6.000 C 4.478 6.001,4.012 6.096,3.519 6.394 C 2.819 6.818,2.321 7.448,2.112 8.178 L 2.020 8.500 2.020 13.500 L 2.020 18.500 2.112 18.822 C 2.391 19.796,3.204 20.609,4.178 20.888 L 4.500 20.980 12.000 20.980 L 19.500 20.980 19.822 20.888 C 20.796 20.609,21.609 19.796,21.888 18.822 L 21.980 18.500 21.980 13.500 L 21.980 8.500 21.888 8.178 C 21.679 7.448,21.181 6.818,20.481 6.394 C 19.988 6.096,19.522 6.001,18.565 6.000 C 17.842 6.000,17.677 5.969,17.461 5.790 C 17.382 5.725,17.080 5.318,16.790 4.886 C 16.500 4.454,16.170 4.007,16.057 3.892 C 15.640 3.474,15.046 3.167,14.440 3.057 C 14.021 2.981,9.951 2.983,9.540 3.059 M14.340 5.095 C 14.603 5.220,14.661 5.289,15.243 6.160 C 15.769 6.948,15.992 7.204,16.386 7.471 C 16.976 7.871,17.321 7.958,18.440 7.993 C 19.289 8.020,19.303 8.022,19.492 8.133 C 19.710 8.261,19.901 8.502,19.961 8.723 C 19.987 8.822,19.998 10.496,19.991 13.587 L 19.980 18.300 19.869 18.489 C 19.744 18.702,19.551 18.864,19.330 18.943 C 19.107 19.022,4.893 19.022,4.670 18.943 C 4.449 18.864,4.256 18.702,4.131 18.489 L 4.020 18.300 4.009 13.587 C 4.002 10.496,4.013 8.822,4.039 8.723 C 4.099 8.502,4.290 8.261,4.508 8.133 C 4.698 8.022,4.711 8.020,5.560 7.994 C 6.665 7.961,7.026 7.869,7.610 7.473 C 8.008 7.204,8.230 6.949,8.757 6.160 C 9.339 5.289,9.397 5.220,9.660 5.095 L 9.860 5.001 12.000 5.001 L 14.140 5.001 14.340 5.095 M11.378 9.058 C 10.145 9.250,9.030 10.054,8.464 11.160 C 8.233 11.611,8.129 11.930,8.058 12.395 C 7.986 12.879,7.986 13.121,8.058 13.605 C 8.247 14.855,9.042 15.964,10.160 16.536 C 10.347 16.632,10.615 16.749,10.755 16.797 C 11.050 16.897,11.680 17.000,12.000 17.000 C 12.320 17.000,12.950 16.897,13.245 16.797 C 14.229 16.462,15.076 15.739,15.536 14.840 C 15.767 14.389,15.871 14.070,15.942 13.605 C 16.014 13.121,16.014 12.879,15.942 12.395 C 15.614 10.220,13.561 8.719,11.378 9.058 M12.492 11.060 C 13.215 11.248,13.825 11.886,13.959 12.596 C 14.091 13.289,13.901 13.907,13.404 14.404 C 13.001 14.807,12.546 15.000,12.000 15.000 C 11.454 15.000,10.999 14.807,10.596 14.404 C 10.193 14.001,10.000 13.546,10.000 13.000 C 10.000 12.454,10.193 11.999,10.596 11.596 C 11.000 11.191,11.429 11.008,11.982 11.003 C 12.136 11.001,12.366 11.027,12.492 11.060 " stroke="none" fill-rule="evenodd" fill="black"></path></svg>