<svg width="24" height="24" viewBox="0 0 24 24" fill="none" xmlns="http://www.w3.org/2000/svg"><path d="M10.560 1.026 C 9.588 1.114,8.677 1.403,7.908 1.866 C 7.114 2.344,6.339 3.118,5.872 3.900 C 5.288 4.878,5.006 5.919,5.001 7.120 L 4.999 7.420 4.763 7.530 C 3.721 8.015,2.707 9.152,2.299 10.295 C 1.971 11.212,1.920 12.299,2.161 13.240 C 2.506 14.583,3.410 15.732,4.647 16.398 C 5.279 16.739,5.808 16.895,6.567 16.966 C 6.999 17.007,7.088 17.004,7.287 16.946 C 7.687 16.829,8.000 16.414,8.000 16.000 C 8.000 15.645,7.725 15.225,7.407 15.092 C 7.326 15.058,7.070 15.015,6.838 14.996 C 5.935 14.924,5.273 14.585,4.679 13.891 C 4.437 13.609,4.238 13.239,4.114 12.840 C 3.993 12.448,3.982 11.644,4.092 11.241 C 4.381 10.187,5.194 9.385,6.277 9.084 C 6.713 8.964,6.982 8.717,7.086 8.344 C 7.120 8.219,7.119 8.104,7.080 7.860 C 6.985 7.254,6.984 6.703,7.079 6.242 C 7.413 4.612,8.609 3.416,10.241 3.079 C 10.589 3.007,10.745 2.995,11.160 3.013 C 12.214 3.057,13.056 3.425,13.817 4.174 C 14.358 4.707,14.667 5.241,14.865 5.989 C 14.988 6.451,15.030 6.539,15.207 6.706 C 15.438 6.923,15.579 6.970,16.100 7.002 C 16.661 7.037,17.063 7.121,17.480 7.290 C 18.502 7.706,19.277 8.475,19.699 9.495 C 20.194 10.691,20.063 12.098,19.355 13.176 C 18.800 14.022,17.966 14.619,16.979 14.879 C 16.804 14.925,16.611 14.982,16.551 15.006 C 16.392 15.069,16.143 15.356,16.061 15.573 C 15.883 16.037,16.149 16.626,16.626 16.825 C 16.919 16.947,17.451 16.864,18.171 16.584 C 20.025 15.861,21.401 14.255,21.858 12.280 C 22.082 11.312,22.009 10.050,21.671 9.060 C 21.161 7.563,20.072 6.335,18.602 5.600 C 18.236 5.417,17.461 5.170,17.033 5.101 C 16.833 5.069,16.666 5.037,16.662 5.031 C 16.658 5.025,16.607 4.894,16.547 4.740 C 16.069 3.499,15.005 2.334,13.760 1.685 C 12.787 1.178,11.589 0.932,10.560 1.026 M11.660 9.066 C 11.476 9.122,11.330 9.257,9.795 10.793 C 8.302 12.288,8.124 12.480,8.065 12.657 C 8.029 12.766,8.000 12.920,8.000 13.000 C 8.000 13.405,8.309 13.826,8.690 13.939 C 8.948 14.016,9.053 14.016,9.320 13.936 C 9.515 13.878,9.603 13.805,10.267 13.149 L 11.000 12.426 11.000 17.286 C 11.000 22.757,10.978 22.372,11.306 22.700 C 11.486 22.879,11.764 23.000,12.000 23.000 C 12.402 23.000,12.827 22.688,12.939 22.310 C 12.992 22.132,13.000 21.482,13.000 17.266 L 13.000 12.426 13.733 13.149 C 14.397 13.805,14.485 13.878,14.680 13.936 C 14.947 14.016,15.052 14.016,15.310 13.939 C 15.589 13.856,15.856 13.589,15.939 13.310 C 16.016 13.052,16.016 12.948,15.937 12.677 C 15.876 12.469,15.802 12.389,14.207 10.793 C 12.611 9.198,12.531 9.124,12.323 9.063 C 12.059 8.986,11.922 8.987,11.660 9.066 " stroke="none" fill-rule="evenodd" fill="black"></path></svg>