<svg width="24" height="24" viewBox="0 0 24 24" fill="none" xmlns="http://www.w3.org/2000/svg"><path d="M3.530 4.061 C 2.859 4.206,2.251 4.798,2.073 5.477 C 2.010 5.719,2.005 6.157,2.005 11.000 C 2.005 16.867,1.989 16.533,2.281 17.017 C 2.448 17.294,2.787 17.618,3.071 17.772 C 3.293 17.892,3.719 17.998,3.983 17.999 L 4.145 18.000 4.313 18.330 C 4.690 19.072,5.359 19.637,6.139 19.875 C 6.412 19.958,6.542 19.973,7.000 19.973 C 7.458 19.973,7.588 19.958,7.861 19.875 C 8.640 19.637,9.310 19.071,9.685 18.333 L 9.852 18.006 11.136 17.992 C 12.370 17.979,12.429 17.974,12.660 17.885 C 12.955 17.769,13.039 17.768,13.330 17.876 C 13.457 17.923,13.693 17.972,13.856 17.986 L 14.151 18.011 14.316 18.335 C 14.690 19.071,15.361 19.638,16.139 19.875 C 16.412 19.958,16.542 19.973,17.000 19.973 C 17.458 19.973,17.588 19.958,17.861 19.875 C 18.641 19.637,19.310 19.072,19.687 18.330 L 19.855 18.000 20.017 17.999 C 20.280 17.998,20.706 17.892,20.931 17.772 C 21.199 17.629,21.629 17.199,21.772 16.931 C 21.990 16.523,21.999 16.402,21.999 13.717 C 22.000 12.111,21.985 11.173,21.956 11.019 C 21.933 10.890,21.857 10.666,21.789 10.522 C 21.676 10.286,21.481 10.076,19.802 8.386 C 18.778 7.356,17.841 6.445,17.720 6.362 C 17.599 6.280,17.392 6.169,17.260 6.117 C 17.025 6.023,16.991 6.021,15.517 6.008 L 14.014 5.995 13.966 5.687 C 13.900 5.256,13.726 4.919,13.403 4.599 C 13.091 4.291,12.821 4.137,12.451 4.059 C 12.061 3.976,3.911 3.978,3.530 4.061 M12.000 11.000 L 12.000 16.000 10.927 16.000 L 9.855 16.000 9.687 15.670 C 9.421 15.148,9.013 14.716,8.481 14.394 C 7.633 13.882,6.367 13.882,5.519 14.394 C 4.987 14.716,4.579 15.148,4.313 15.670 C 4.196 15.901,4.123 16.000,4.073 16.000 C 4.003 16.000,4.000 15.805,4.000 11.000 L 4.000 6.000 8.000 6.000 L 12.000 6.000 12.000 11.000 M18.290 9.710 L 20.000 11.420 20.000 13.710 C 20.000 15.896,19.997 16.000,19.927 16.000 C 19.877 16.000,19.804 15.901,19.687 15.670 C 19.421 15.148,19.013 14.716,18.481 14.394 C 17.633 13.882,16.367 13.882,15.519 14.394 C 14.987 14.716,14.579 15.148,14.313 15.670 C 14.196 15.901,14.123 16.000,14.073 16.000 C 14.003 16.000,14.000 15.838,14.000 12.000 L 14.000 8.000 15.290 8.000 L 16.580 8.000 18.290 9.710 M7.512 16.147 C 8.142 16.534,8.154 17.446,7.535 17.839 C 7.060 18.141,6.442 17.992,6.141 17.503 C 6.034 17.329,6.020 17.271,6.020 17.003 C 6.020 16.744,6.036 16.673,6.131 16.511 C 6.339 16.158,6.660 15.988,7.072 16.015 C 7.261 16.027,7.371 16.060,7.512 16.147 M17.512 16.147 C 18.142 16.534,18.154 17.446,17.535 17.839 C 17.060 18.141,16.442 17.992,16.141 17.503 C 16.034 17.329,16.020 17.271,16.020 17.003 C 16.020 16.744,16.036 16.673,16.131 16.511 C 16.339 16.158,16.660 15.988,17.072 16.015 C 17.261 16.027,17.371 16.060,17.512 16.147 " stroke="none" fill-rule="evenodd" fill="black"></path></svg>