<svg width="24" height="24" viewBox="0 0 24 24" fill="none" xmlns="http://www.w3.org/2000/svg"><path d="M11.100 2.041 C 9.341 2.219,7.729 2.802,6.335 3.767 C 3.070 6.025,1.454 9.944,2.178 13.846 C 2.468 15.412,3.137 16.886,4.154 18.200 C 4.493 18.637,5.363 19.507,5.800 19.846 C 8.241 21.735,11.253 22.412,14.240 21.741 C 17.932 20.912,20.910 17.933,21.741 14.240 C 21.929 13.402,21.977 12.954,21.977 12.000 C 21.977 11.046,21.929 10.598,21.741 9.760 C 21.274 7.685,20.065 5.706,18.437 4.354 C 16.934 3.106,15.158 2.329,13.240 2.080 C 12.775 2.019,11.539 1.997,11.100 2.041 M12.832 4.042 C 14.361 4.210,15.851 4.828,17.040 5.789 C 17.394 6.075,18.067 6.761,18.326 7.100 C 19.406 8.514,20.000 10.253,20.000 12.000 C 20.000 13.810,19.358 15.619,18.211 17.041 C 17.900 17.426,17.184 18.117,16.800 18.402 C 13.933 20.529,10.067 20.529,7.200 18.402 C 6.816 18.117,6.100 17.426,5.789 17.041 C 3.835 14.619,3.452 11.319,4.800 8.529 C 5.197 7.706,5.611 7.114,6.259 6.446 C 6.951 5.730,7.648 5.225,8.526 4.801 C 9.865 4.154,11.392 3.885,12.832 4.042 M11.280 6.041 C 10.075 6.187,8.946 6.689,8.147 7.436 C 7.865 7.699,7.611 8.043,7.412 8.429 C 7.268 8.709,7.240 8.801,7.240 8.992 C 7.242 9.737,8.017 10.218,8.676 9.882 C 8.881 9.777,9.003 9.646,9.201 9.314 C 9.979 8.008,12.406 7.582,13.931 8.485 C 15.140 9.200,15.339 10.327,14.405 11.164 C 13.996 11.531,13.603 11.722,12.847 11.920 C 12.597 11.985,12.282 12.097,12.147 12.168 C 11.806 12.347,11.367 12.791,11.206 13.120 C 11.039 13.463,10.962 13.959,11.034 14.230 C 11.306 15.257,12.754 15.230,12.968 14.194 C 12.996 14.057,13.041 13.953,13.078 13.938 C 13.112 13.924,13.365 13.851,13.640 13.775 C 14.829 13.447,15.857 12.742,16.433 11.861 C 17.226 10.647,17.166 9.118,16.277 7.934 C 15.986 7.546,15.869 7.430,15.448 7.112 C 14.785 6.612,13.934 6.251,13.060 6.099 C 12.619 6.022,11.686 5.992,11.280 6.041 M11.673 16.063 C 11.304 16.177,11.000 16.609,11.000 17.020 C 11.000 17.415,11.319 17.831,11.710 17.944 C 12.209 18.090,12.693 17.878,12.905 17.422 C 13.160 16.874,12.875 16.230,12.303 16.059 C 12.062 15.987,11.917 15.988,11.673 16.063 " stroke="none" fill-rule="evenodd" fill="black"></path></svg>