<svg width="24" height="24" viewBox="0 0 24 24" fill="none" xmlns="http://www.w3.org/2000/svg"><path d="M11.120 2.039 C 9.316 2.220,7.707 2.807,6.280 3.806 C 2.738 6.286,1.178 10.759,2.422 14.865 C 2.918 16.499,3.728 17.850,4.939 19.061 C 5.928 20.050,7.038 20.788,8.272 21.278 C 11.634 22.610,15.313 22.080,18.200 19.845 C 18.637 19.507,19.507 18.637,19.845 18.200 C 21.255 16.379,22.000 14.234,22.000 12.000 C 22.000 7.432,18.842 3.387,14.430 2.303 C 13.446 2.062,12.028 1.948,11.120 2.039 M12.740 4.041 C 15.525 4.302,17.953 5.983,19.182 8.500 C 20.655 11.514,20.091 15.104,17.765 17.530 C 16.248 19.111,14.175 19.999,12.000 19.999 C 8.235 19.999,4.948 17.331,4.177 13.648 C 3.426 10.057,5.201 6.431,8.501 4.817 C 9.822 4.170,11.277 3.904,12.740 4.041 M11.664 6.063 C 11.302 6.195,11.051 6.514,11.013 6.890 L 10.991 7.103 10.685 7.172 C 9.458 7.451,8.424 8.304,8.109 9.300 C 7.984 9.693,7.984 10.307,8.109 10.700 C 8.425 11.698,9.412 12.513,10.700 12.840 L 10.980 12.911 10.991 13.878 L 11.001 14.846 10.911 14.818 C 10.692 14.750,10.421 14.582,10.180 14.363 C 9.907 14.116,9.659 14.000,9.400 14.000 C 8.876 14.000,8.400 14.476,8.400 15.000 C 8.400 15.701,9.417 16.514,10.700 16.840 L 10.980 16.911 11.011 17.123 C 11.103 17.760,11.722 18.144,12.325 17.939 C 12.688 17.815,12.935 17.503,12.993 17.094 L 13.020 16.906 13.302 16.837 C 14.574 16.524,15.575 15.698,15.891 14.700 C 15.959 14.485,15.980 14.323,15.980 14.000 C 15.980 13.677,15.959 13.515,15.891 13.300 C 15.575 12.303,14.542 11.451,13.310 11.171 L 13.000 11.101 13.000 10.128 L 13.000 9.155 13.090 9.182 C 13.306 9.249,13.582 9.419,13.799 9.619 C 14.089 9.886,14.231 9.961,14.499 9.988 C 14.944 10.034,15.393 9.753,15.534 9.340 C 15.684 8.901,15.586 8.577,15.184 8.179 C 14.712 7.712,14.109 7.381,13.373 7.186 L 13.020 7.092 12.993 6.905 C 12.898 6.242,12.267 5.842,11.664 6.063 M11.000 10.003 L 11.000 10.845 10.910 10.818 C 10.698 10.754,10.348 10.536,10.201 10.377 C 9.936 10.089,9.938 9.909,10.206 9.618 C 10.346 9.466,10.853 9.160,10.965 9.160 C 10.984 9.160,11.000 9.539,11.000 10.003 M13.410 13.330 C 13.537 13.397,13.712 13.529,13.799 13.623 C 14.062 13.909,14.062 14.091,13.799 14.377 C 13.652 14.536,13.302 14.754,13.090 14.818 L 13.000 14.845 13.000 14.000 L 13.000 13.155 13.090 13.182 C 13.139 13.197,13.284 13.264,13.410 13.330 " fill="#1E1E1E" stroke="none" fill-rule="evenodd"></path></svg>