<svg width="24" height="24" viewBox="0 0 24 24" fill="none" xmlns="http://www.w3.org/2000/svg"><path d="M8.660 3.066 C 8.473 3.122,8.259 3.327,5.295 6.293 C 2.405 9.185,2.124 9.477,2.065 9.657 C 1.983 9.906,1.983 10.094,2.065 10.343 C 2.124 10.523,2.405 10.815,5.295 13.707 C 8.371 16.785,8.466 16.875,8.677 16.937 C 8.948 17.016,9.052 17.016,9.310 16.939 C 9.589 16.856,9.856 16.589,9.939 16.310 C 10.016 16.052,10.016 15.947,9.936 15.677 C 9.875 15.468,9.791 15.378,7.646 13.228 L 5.420 10.997 9.620 11.012 C 14.125 11.028,13.952 11.021,14.786 11.236 C 17.173 11.850,19.150 13.828,19.764 16.214 C 19.948 16.928,19.970 17.166,19.996 18.740 C 20.024 20.445,20.020 20.425,20.321 20.717 C 20.490 20.880,20.777 21.000,21.000 21.000 C 21.238 21.000,21.514 20.880,21.697 20.696 C 22.002 20.391,22.012 20.323,21.989 18.585 C 21.968 16.979,21.938 16.671,21.720 15.795 C 20.937 12.645,18.417 10.107,15.273 9.301 C 14.160 9.015,14.361 9.026,9.663 9.010 L 5.426 8.996 7.649 6.768 C 9.791 4.622,9.875 4.532,9.936 4.323 C 10.016 4.053,10.016 3.948,9.939 3.690 C 9.856 3.411,9.589 3.144,9.310 3.061 C 9.060 2.986,8.920 2.988,8.660 3.066 " stroke="none" fill-rule="evenodd" fill="black"></path></svg>