<svg width="24" height="24" viewBox="0 0 24 24" fill="none" xmlns="http://www.w3.org/2000/svg"><path d="M15.673 2.063 C 15.429 2.138,15.150 2.414,15.064 2.666 C 14.982 2.906,14.983 3.095,15.066 3.343 C 15.124 3.516,15.279 3.688,16.354 4.770 L 17.576 6.000 12.735 6.000 C 7.280 6.000,7.625 5.981,7.306 6.300 C 6.902 6.704,6.902 7.296,7.306 7.700 C 7.625 8.019,7.280 8.000,12.735 8.000 L 17.576 8.000 16.354 9.230 C 15.279 10.312,15.124 10.484,15.066 10.657 C 15.030 10.766,15.000 10.920,15.000 11.000 C 15.000 11.405,15.309 11.826,15.690 11.939 C 15.948 12.016,16.052 12.016,16.323 11.937 C 16.532 11.876,16.617 11.796,18.707 9.707 C 20.796 7.617,20.876 7.532,20.937 7.323 C 20.972 7.203,21.000 7.058,21.000 7.000 C 21.000 6.942,20.972 6.797,20.937 6.677 C 20.876 6.468,20.796 6.383,18.707 4.293 C 16.617 2.204,16.532 2.124,16.323 2.063 C 16.061 1.987,15.920 1.987,15.673 2.063 M7.660 12.066 C 7.474 12.122,7.306 12.280,5.295 14.293 C 3.336 16.254,3.124 16.479,3.065 16.657 C 2.983 16.906,2.983 17.094,3.065 17.343 C 3.124 17.521,3.336 17.746,5.295 19.707 C 7.384 21.797,7.468 21.876,7.677 21.937 C 7.948 22.016,8.052 22.016,8.310 21.939 C 8.589 21.856,8.856 21.589,8.939 21.310 C 9.016 21.051,9.016 20.947,8.936 20.677 C 8.875 20.472,8.801 20.390,7.648 19.230 L 6.424 18.000 11.265 18.000 C 15.482 18.000,16.132 17.992,16.310 17.939 C 16.688 17.827,17.000 17.402,17.000 17.000 C 17.000 16.598,16.688 16.173,16.310 16.061 C 16.132 16.008,15.482 16.000,11.265 16.000 L 6.424 16.000 7.648 14.770 C 8.801 13.610,8.875 13.528,8.936 13.323 C 9.016 13.053,9.016 12.949,8.939 12.690 C 8.856 12.411,8.589 12.144,8.310 12.061 C 8.060 11.986,7.920 11.988,7.660 12.066 " stroke="none" fill-rule="evenodd" fill="black"></path></svg>