<svg width="24" height="24" viewBox="0 0 24 24" fill="none" xmlns="http://www.w3.org/2000/svg"><path d="M17.665 2.066 C 17.509 2.113,17.387 2.205,17.065 2.517 C 16.457 3.104,15.899 3.465,14.987 3.859 C 13.865 4.344,12.357 4.728,10.980 4.879 C 10.760 4.903,10.517 4.932,10.440 4.944 C 10.363 4.956,9.409 4.981,8.320 4.999 C 6.556 5.029,6.301 5.041,5.980 5.113 C 4.086 5.538,2.631 6.927,2.161 8.760 C 1.804 10.154,2.063 11.602,2.891 12.839 C 3.157 13.236,3.824 13.897,4.206 14.143 C 4.375 14.251,4.541 14.358,4.575 14.380 C 4.611 14.403,5.063 15.640,5.634 17.280 C 6.183 18.853,6.678 20.246,6.736 20.375 C 6.988 20.944,7.466 21.428,8.057 21.715 C 8.428 21.895,8.612 21.944,9.061 21.982 C 10.237 22.081,11.368 21.365,11.812 20.239 C 11.985 19.801,11.999 19.583,12.000 17.370 C 12.000 15.439,12.005 15.280,12.067 15.280 C 12.228 15.280,13.429 15.585,13.960 15.760 C 15.388 16.232,16.273 16.719,17.020 17.443 C 17.218 17.635,17.453 17.830,17.541 17.876 C 17.922 18.072,18.378 18.008,18.678 17.717 C 18.985 17.420,18.978 17.467,19.000 15.567 L 19.020 13.874 19.288 13.780 C 20.257 13.441,21.080 12.731,21.536 11.840 C 21.767 11.389,21.871 11.070,21.942 10.605 C 22.014 10.121,22.014 9.879,21.942 9.395 C 21.722 7.938,20.680 6.692,19.287 6.223 L 19.020 6.133 19.000 4.436 L 18.980 2.740 18.881 2.546 C 18.767 2.324,18.561 2.145,18.319 2.060 C 18.110 1.986,17.918 1.988,17.665 2.066 M17.000 9.998 L 17.000 14.917 16.548 14.679 C 15.470 14.113,14.104 13.649,12.720 13.380 C 12.423 13.322,12.139 13.267,12.090 13.257 L 12.000 13.238 12.000 10.000 L 12.000 6.762 12.090 6.743 C 12.139 6.733,12.459 6.670,12.801 6.603 C 14.084 6.351,15.350 5.925,16.380 5.397 C 16.710 5.228,16.985 5.088,16.990 5.085 C 16.995 5.082,17.000 7.293,17.000 9.998 M10.000 9.990 L 10.000 13.020 8.370 13.009 C 6.325 12.995,6.110 12.961,5.443 12.551 C 4.475 11.955,3.940 10.917,4.013 9.780 C 4.092 8.559,4.926 7.515,6.140 7.116 C 6.407 7.028,6.492 7.023,8.040 7.000 C 8.931 6.987,9.736 6.973,9.830 6.968 L 10.000 6.960 10.000 9.990 M19.376 8.570 C 19.698 8.888,19.849 9.145,19.940 9.529 C 20.052 10.007,19.994 10.497,19.772 10.937 C 19.673 11.132,19.125 11.720,19.041 11.720 C 19.014 11.720,19.000 11.142,19.000 10.000 C 19.000 8.858,19.014 8.280,19.041 8.280 C 19.063 8.280,19.214 8.410,19.376 8.570 M9.816 15.026 L 10.003 15.051 9.991 17.279 L 9.980 19.506 9.870 19.650 C 9.701 19.872,9.534 19.972,9.300 19.992 C 9.005 20.016,8.713 19.855,8.577 19.593 C 8.546 19.534,8.177 18.499,7.755 17.293 C 7.334 16.087,6.981 15.078,6.971 15.050 C 6.956 15.011,7.236 15.000,8.290 15.000 C 9.026 15.000,9.713 15.012,9.816 15.026 " stroke="none" fill-rule="evenodd" fill="black"></path></svg>