<svg width="24" height="24" viewBox="0 0 24 24" fill="none" xmlns="http://www.w3.org/2000/svg"><path d="M11.541 2.042 C 10.701 2.173,9.924 2.683,9.471 3.400 C 9.099 3.990,2.371 15.690,2.291 15.886 C 2.069 16.436,2.023 17.205,2.177 17.780 C 2.448 18.791,3.318 19.646,4.341 19.909 C 4.604 19.976,5.044 19.980,12.000 19.980 C 18.956 19.980,19.396 19.976,19.659 19.909 C 20.682 19.646,21.552 18.791,21.823 17.780 C 21.977 17.205,21.931 16.436,21.709 15.886 C 21.629 15.690,14.903 3.994,14.528 3.400 C 14.232 2.930,13.849 2.588,13.340 2.338 C 13.142 2.240,12.873 2.133,12.743 2.101 C 12.436 2.023,11.845 1.994,11.541 2.042 M12.441 4.110 C 12.559 4.171,12.705 4.283,12.764 4.360 C 12.887 4.519,19.731 16.367,19.844 16.618 C 20.005 16.970,19.896 17.462,19.595 17.748 C 19.311 18.018,19.851 18.000,12.000 18.000 C 4.149 18.000,4.689 18.018,4.405 17.748 C 4.104 17.462,3.995 16.970,4.156 16.617 C 4.270 16.366,11.113 4.519,11.236 4.360 C 11.395 4.154,11.722 4.000,12.000 4.000 C 12.167 4.000,12.281 4.028,12.441 4.110 M11.673 8.063 C 11.412 8.143,11.140 8.421,11.061 8.690 C 10.970 8.996,10.972 11.065,11.064 11.334 C 11.188 11.697,11.613 12.000,12.000 12.000 C 12.237 12.000,12.514 11.880,12.697 11.697 C 12.980 11.414,13.000 11.303,13.000 10.000 C 13.000 8.697,12.980 8.586,12.697 8.303 C 12.418 8.024,12.067 7.942,11.673 8.063 M11.673 14.063 C 11.304 14.177,11.000 14.609,11.000 15.020 C 11.000 15.415,11.319 15.831,11.710 15.944 C 12.209 16.090,12.693 15.878,12.905 15.422 C 13.160 14.874,12.875 14.230,12.303 14.059 C 12.062 13.987,11.917 13.988,11.673 14.063 " stroke="none" fill-rule="evenodd" fill="black"></path></svg>