<svg width="24" height="24" viewBox="0 0 24 24" fill="none" xmlns="http://www.w3.org/2000/svg"><path d="M5.506 3.042 C 4.382 3.231,3.426 4.084,3.112 5.178 L 3.020 5.500 3.020 10.000 L 3.020 14.500 3.112 14.822 C 3.388 15.785,4.177 16.584,5.139 16.874 C 5.415 16.957,5.567 16.973,6.225 16.990 L 6.991 17.009 7.010 17.775 C 7.027 18.433,7.043 18.585,7.126 18.861 C 7.416 19.823,8.215 20.612,9.178 20.888 L 9.500 20.980 14.000 20.980 L 18.500 20.980 18.822 20.888 C 19.796 20.609,20.609 19.796,20.888 18.822 L 20.980 18.500 20.980 14.000 L 20.980 9.500 20.888 9.178 C 20.679 8.448,20.181 7.818,19.481 7.394 C 18.996 7.101,18.520 7.001,17.614 7.000 L 17.009 7.000 16.992 6.250 C 16.973 5.389,16.902 5.047,16.648 4.590 C 16.182 3.751,15.394 3.191,14.467 3.041 C 14.169 2.992,5.796 2.993,5.506 3.042 M14.330 5.057 C 14.551 5.136,14.744 5.298,14.869 5.511 C 14.976 5.693,14.980 5.723,14.993 6.350 L 15.007 7.000 12.393 7.000 C 10.839 7.000,9.680 7.017,9.533 7.041 C 8.394 7.226,7.445 8.056,7.114 9.157 C 7.024 9.457,7.023 9.484,7.010 12.233 L 6.996 15.007 6.348 14.993 C 5.721 14.980,5.694 14.976,5.508 14.867 C 5.290 14.739,5.099 14.498,5.039 14.277 C 5.013 14.178,5.002 12.672,5.009 9.913 L 5.020 5.700 5.131 5.511 C 5.256 5.298,5.449 5.136,5.670 5.057 C 5.892 4.978,14.108 4.978,14.330 5.057 M18.330 9.057 C 18.551 9.136,18.744 9.298,18.869 9.511 L 18.980 9.700 18.980 14.000 L 18.980 18.300 18.869 18.489 C 18.744 18.702,18.551 18.864,18.330 18.943 C 18.108 19.022,9.892 19.022,9.670 18.943 C 9.449 18.864,9.256 18.702,9.131 18.489 L 9.020 18.300 9.020 14.000 L 9.020 9.700 9.131 9.511 C 9.256 9.298,9.449 9.136,9.670 9.057 C 9.892 8.978,18.108 8.978,18.330 9.057 " stroke="none" fill-rule="evenodd" fill="black"></path></svg>