<svg width="24" height="24" viewBox="0 0 24 24" fill="none" xmlns="http://www.w3.org/2000/svg"><path d="M2.673 3.063 C 2.310 3.175,2.000 3.606,2.000 4.000 C 2.000 4.405,2.309 4.826,2.690 4.939 C 2.869 4.993,3.703 5.000,9.500 5.000 C 15.297 5.000,16.131 4.993,16.310 4.939 C 16.688 4.827,17.000 4.402,17.000 4.000 C 17.000 3.598,16.688 3.173,16.310 3.061 C 16.010 2.972,2.963 2.974,2.673 3.063 M2.673 7.063 C 2.310 7.175,2.000 7.606,2.000 8.000 C 2.000 8.405,2.309 8.826,2.690 8.939 C 2.868 8.992,3.493 9.000,7.500 9.000 C 11.507 9.000,12.132 8.992,12.310 8.939 C 12.688 8.827,13.000 8.402,13.000 8.000 C 13.000 7.598,12.688 7.173,12.310 7.061 C 12.011 6.972,2.962 6.974,2.673 7.063 M16.660 7.066 C 16.474 7.122,16.306 7.280,14.295 9.293 C 12.336 11.254,12.124 11.479,12.065 11.657 C 12.029 11.766,12.000 11.920,12.000 12.000 C 12.000 12.405,12.309 12.826,12.690 12.939 C 12.949 13.016,13.053 13.016,13.323 12.936 C 13.528 12.875,13.610 12.801,14.770 11.648 L 16.000 10.424 16.000 15.285 C 16.000 20.757,15.978 20.372,16.306 20.700 C 16.486 20.879,16.764 21.000,17.000 21.000 C 17.402 21.000,17.827 20.688,17.939 20.310 C 17.992 20.132,18.000 19.482,18.000 15.265 L 18.000 10.424 19.230 11.648 C 20.390 12.801,20.472 12.875,20.677 12.936 C 20.947 13.016,21.051 13.016,21.310 12.939 C 21.589 12.856,21.856 12.589,21.939 12.310 C 22.016 12.052,22.016 11.948,21.937 11.677 C 21.876 11.468,21.796 11.383,19.707 9.293 C 17.617 7.204,17.532 7.124,17.323 7.063 C 17.059 6.986,16.922 6.987,16.660 7.066 M2.673 11.063 C 2.310 11.175,2.000 11.606,2.000 12.000 C 2.000 12.405,2.309 12.826,2.690 12.939 C 2.997 13.030,9.003 13.030,9.310 12.939 C 9.688 12.827,10.000 12.402,10.000 12.000 C 10.000 11.598,9.688 11.173,9.310 11.061 C 9.013 10.972,2.961 10.975,2.673 11.063 " stroke="none" fill-rule="evenodd" fill="black"></path></svg>