<svg width="24" height="24" viewBox="0 0 24 24" fill="none" xmlns="http://www.w3.org/2000/svg"><path d="M8.580 2.023 C 8.015 2.102,7.810 2.144,7.480 2.248 C 5.867 2.756,4.586 4.112,4.161 5.760 C 3.920 6.693,3.983 7.875,4.320 8.752 C 4.829 10.077,5.887 11.144,7.207 11.663 C 8.298 12.093,9.702 12.093,10.793 11.663 C 12.135 11.135,13.223 10.022,13.699 8.688 C 14.096 7.576,14.082 6.272,13.663 5.207 C 13.033 3.604,11.610 2.415,9.945 2.099 C 9.620 2.038,8.802 1.992,8.580 2.023 M9.860 4.121 C 10.825 4.421,11.582 5.182,11.886 6.160 C 12.021 6.594,12.021 7.406,11.886 7.840 C 11.579 8.826,10.825 9.580,9.840 9.886 C 9.404 10.021,8.592 10.021,8.160 9.886 C 7.173 9.578,6.421 8.826,6.114 7.840 C 5.979 7.406,5.979 6.594,6.114 6.160 C 6.455 5.066,7.373 4.239,8.471 4.039 C 8.797 3.979,9.546 4.023,9.860 4.121 M14.673 11.063 C 14.310 11.175,14.000 11.606,14.000 12.000 C 14.000 12.405,14.309 12.826,14.690 12.939 C 14.997 13.030,21.003 13.030,21.310 12.939 C 21.688 12.827,22.000 12.402,22.000 12.000 C 22.000 11.598,21.688 11.173,21.310 11.061 C 21.013 10.972,14.961 10.975,14.673 11.063 M8.540 13.023 C 7.713 13.103,7.194 13.216,6.529 13.463 C 4.642 14.162,3.114 15.711,2.427 17.620 C 2.126 18.457,2.044 18.960,2.013 20.182 C 1.984 21.272,2.009 21.403,2.306 21.699 C 2.629 22.022,2.131 22.000,9.000 22.000 C 15.875 22.000,15.371 22.023,15.697 21.696 C 15.987 21.407,16.017 21.250,15.987 20.160 C 15.955 18.959,15.872 18.452,15.573 17.620 C 14.968 15.939,13.714 14.537,12.087 13.722 C 11.536 13.447,10.745 13.197,10.120 13.101 C 9.726 13.041,8.820 12.997,8.540 13.023 M10.000 15.101 C 10.631 15.238,11.268 15.508,11.815 15.868 C 12.181 16.110,12.890 16.819,13.132 17.185 C 13.630 17.941,13.927 18.803,13.988 19.670 L 14.012 20.000 9.000 20.000 L 3.988 20.000 4.012 19.670 C 4.073 18.803,4.370 17.941,4.868 17.185 C 5.110 16.819,5.819 16.110,6.185 15.868 C 6.872 15.416,7.413 15.213,8.440 15.024 C 8.651 14.985,9.710 15.037,10.000 15.101 " stroke="none" fill-rule="evenodd" fill="black"></path></svg>