<svg width="24" height="24" viewBox="0 0 24 24" fill="none" xmlns="http://www.w3.org/2000/svg"><path d="M5.378 3.058 C 3.924 3.284,2.686 4.336,2.203 5.755 C 2.002 6.347,2.000 6.400,2.000 12.000 C 2.000 16.356,2.010 17.284,2.058 17.605 C 2.280 19.074,3.324 20.310,4.755 20.797 C 5.328 20.991,5.519 21.000,9.500 21.000 C 13.481 21.000,13.672 20.991,14.245 20.797 C 15.229 20.462,16.076 19.739,16.536 18.840 C 16.892 18.144,16.999 17.615,17.000 16.557 C 17.000 15.741,16.957 15.564,16.697 15.303 C 16.514 15.120,16.237 15.000,16.000 15.000 C 15.764 15.000,15.486 15.121,15.306 15.300 C 15.038 15.568,15.000 15.723,15.000 16.551 C 15.000 17.575,14.889 17.919,14.404 18.404 C 14.118 18.690,13.852 18.847,13.492 18.940 C 13.149 19.030,5.851 19.030,5.508 18.940 C 5.148 18.847,4.882 18.690,4.596 18.404 C 4.310 18.118,4.153 17.852,4.060 17.492 C 3.970 17.148,3.970 6.852,4.060 6.508 C 4.153 6.148,4.310 5.882,4.596 5.596 C 4.882 5.310,5.148 5.153,5.508 5.060 C 5.851 4.970,13.149 4.970,13.492 5.060 C 13.852 5.153,14.118 5.310,14.404 5.596 C 14.887 6.079,14.999 6.429,14.999 7.463 C 15.000 8.275,15.039 8.433,15.306 8.700 C 15.486 8.879,15.764 9.000,16.000 9.000 C 16.402 9.000,16.827 8.688,16.939 8.310 C 17.020 8.039,17.021 6.922,16.942 6.395 C 16.682 4.676,15.326 3.322,13.600 3.058 C 13.084 2.980,5.884 2.979,5.378 3.058 M10.660 7.066 C 10.474 7.122,10.306 7.280,8.295 9.293 C 6.336 11.254,6.124 11.479,6.065 11.657 C 5.983 11.906,5.983 12.094,6.065 12.343 C 6.124 12.521,6.336 12.746,8.295 14.707 C 10.384 16.797,10.468 16.876,10.677 16.937 C 10.948 17.016,11.052 17.016,11.310 16.939 C 11.589 16.856,11.856 16.589,11.939 16.310 C 12.016 16.051,12.016 15.947,11.936 15.677 C 11.875 15.472,11.801 15.390,10.648 14.230 L 9.424 13.000 15.265 13.000 C 20.377 13.000,21.131 12.992,21.310 12.939 C 21.688 12.827,22.000 12.402,22.000 12.000 C 22.000 11.598,21.688 11.173,21.310 11.061 C 21.131 11.008,20.377 11.000,15.265 11.000 L 9.424 11.000 10.648 9.770 C 11.801 8.610,11.875 8.528,11.936 8.323 C 12.016 8.053,12.016 7.949,11.939 7.690 C 11.856 7.411,11.589 7.144,11.310 7.061 C 11.060 6.986,10.920 6.988,10.660 7.066 " stroke="none" fill-rule="evenodd" fill="black"></path></svg>