<svg width="24" height="24" viewBox="0 0 24 24" fill="none" xmlns="http://www.w3.org/2000/svg"><path d="M11.100 2.041 C 9.341 2.219,7.729 2.802,6.335 3.767 C 3.070 6.025,1.454 9.944,2.178 13.846 C 2.468 15.412,3.137 16.886,4.154 18.200 C 4.493 18.637,5.363 19.507,5.800 19.846 C 8.241 21.735,11.253 22.412,14.240 21.741 C 17.932 20.912,20.910 17.933,21.741 14.240 C 21.929 13.402,21.977 12.954,21.977 12.000 C 21.977 11.046,21.929 10.598,21.741 9.760 C 21.274 7.685,20.065 5.706,18.437 4.354 C 16.934 3.106,15.158 2.329,13.240 2.080 C 12.775 2.019,11.539 1.997,11.100 2.041 M12.832 4.042 C 14.361 4.210,15.851 4.828,17.040 5.789 C 17.394 6.075,18.067 6.761,18.326 7.100 C 19.406 8.514,20.000 10.253,20.000 12.000 C 20.000 13.810,19.358 15.619,18.211 17.041 C 17.900 17.426,17.184 18.117,16.800 18.402 C 13.933 20.529,10.067 20.529,7.200 18.402 C 6.816 18.117,6.100 17.426,5.789 17.041 C 3.835 14.619,3.452 11.319,4.800 8.529 C 5.197 7.706,5.611 7.114,6.259 6.446 C 6.951 5.730,7.648 5.225,8.526 4.801 C 9.865 4.154,11.392 3.885,12.832 4.042 M8.673 6.060 C 8.308 6.178,8.000 6.608,8.000 7.000 C 8.000 7.354,8.271 7.773,8.585 7.905 C 8.661 7.936,8.860 7.980,9.028 8.001 C 9.377 8.045,9.621 8.168,9.783 8.381 C 9.964 8.618,9.996 8.773,9.998 9.410 L 10.000 10.000 9.447 10.000 C 8.753 10.000,8.554 10.052,8.306 10.300 C 7.902 10.704,7.902 11.296,8.306 11.700 C 8.554 11.947,8.753 12.000,9.445 12.000 L 9.995 12.000 10.009 13.770 C 10.023 15.523,10.024 15.543,10.123 15.861 C 10.421 16.820,11.186 17.585,12.139 17.875 C 12.412 17.958,12.542 17.973,13.000 17.973 C 13.458 17.973,13.588 17.958,13.861 17.875 C 14.815 17.584,15.587 16.812,15.874 15.861 C 15.959 15.581,15.974 15.438,15.990 14.736 C 16.013 13.754,15.979 13.585,15.697 13.304 C 15.514 13.120,15.238 13.000,15.000 13.000 C 14.777 13.000,14.490 13.120,14.321 13.283 C 14.047 13.549,14.025 13.636,14.001 14.523 L 13.980 15.306 13.859 15.503 C 13.457 16.156,12.543 16.156,12.141 15.503 L 12.020 15.306 12.008 13.653 L 11.997 12.000 13.551 12.000 C 15.350 12.000,15.401 11.993,15.697 11.697 C 15.880 11.514,16.000 11.237,16.000 11.000 C 16.000 10.763,15.880 10.486,15.697 10.303 C 15.401 10.007,15.350 10.000,13.557 10.000 L 12.009 10.000 11.989 9.230 C 11.973 8.599,11.954 8.406,11.882 8.160 C 11.656 7.380,11.079 6.696,10.314 6.299 C 9.855 6.061,9.039 5.942,8.673 6.060 " stroke="none" fill-rule="evenodd" fill="black"></path></svg>