<svg width="24" height="24" viewBox="0 0 24 24" fill="none" xmlns="http://www.w3.org/2000/svg"><path d="M11.712 2.053 C 11.630 2.079,11.482 2.158,11.382 2.229 C 11.205 2.355,11.122 2.517,6.624 11.512 C 3.357 18.046,2.039 20.720,2.019 20.854 C 1.940 21.383,2.279 21.857,2.819 21.970 C 3.023 22.013,3.185 21.980,7.515 21.019 L 12.000 20.023 16.470 21.013 C 18.928 21.558,20.986 22.003,21.043 22.002 C 21.246 21.998,21.522 21.871,21.698 21.700 C 21.911 21.493,22.023 21.177,21.986 20.884 C 21.970 20.747,20.804 18.378,17.384 11.535 C 13.172 3.105,12.792 2.360,12.641 2.241 C 12.367 2.023,12.024 1.954,11.712 2.053 M15.590 12.420 C 17.554 16.347,19.151 19.560,19.140 19.560 C 19.121 19.560,13.310 18.273,13.090 18.220 L 13.000 18.198 13.000 14.546 C 13.000 10.412,13.015 10.621,12.697 10.303 C 12.514 10.120,12.237 10.000,12.000 10.000 C 11.763 10.000,11.486 10.120,11.303 10.303 C 10.985 10.621,11.000 10.412,11.000 14.546 L 11.000 18.198 10.910 18.220 C 10.690 18.273,4.879 19.560,4.860 19.560 C 4.849 19.560,6.446 16.347,8.410 12.420 C 10.373 8.493,11.989 5.280,12.000 5.280 C 12.011 5.280,13.627 8.493,15.590 12.420 " stroke="none" fill-rule="evenodd" fill="black"></path></svg>