<svg width="24" height="24" viewBox="0 0 24 24" fill="none" xmlns="http://www.w3.org/2000/svg"><path d="M8.506 2.042 C 7.381 2.231,6.419 3.090,6.114 4.178 C 6.038 4.452,6.022 4.623,6.008 5.329 L 5.992 6.158 5.781 6.254 C 4.995 6.614,4.354 7.348,4.117 8.160 C 4.043 8.413,4.027 8.592,4.010 9.309 L 3.991 10.158 3.781 10.254 C 2.987 10.618,2.351 11.351,2.112 12.180 L 2.020 12.500 2.020 16.000 L 2.020 19.500 2.112 19.822 C 2.391 20.796,3.204 21.609,4.178 21.888 L 4.500 21.980 12.000 21.980 L 19.500 21.980 19.822 21.888 C 20.796 21.609,21.609 20.796,21.888 19.822 L 21.980 19.500 21.980 16.000 L 21.980 12.500 21.888 12.180 C 21.649 11.351,21.013 10.618,20.219 10.254 L 20.009 10.158 19.990 9.309 C 19.973 8.592,19.957 8.413,19.883 8.160 C 19.646 7.348,19.005 6.614,18.219 6.254 L 18.008 6.158 17.992 5.329 C 17.978 4.623,17.962 4.452,17.886 4.178 C 17.577 3.076,16.617 2.227,15.467 2.041 C 15.170 1.992,8.795 1.994,8.506 2.042 M15.330 4.057 C 15.551 4.136,15.744 4.298,15.869 4.511 C 15.976 4.693,15.980 4.723,15.993 5.350 L 16.007 6.000 12.000 6.000 L 7.993 6.000 8.007 5.350 C 8.020 4.723,8.024 4.693,8.131 4.511 C 8.256 4.298,8.449 4.136,8.670 4.057 C 8.891 3.978,15.109 3.978,15.330 4.057 M17.330 8.057 C 17.551 8.136,17.744 8.298,17.869 8.511 C 17.976 8.693,17.980 8.723,17.993 9.350 L 18.007 10.000 12.000 10.000 L 5.993 10.000 6.007 9.350 C 6.020 8.723,6.024 8.693,6.131 8.511 C 6.256 8.298,6.449 8.136,6.670 8.057 C 6.892 7.978,17.108 7.978,17.330 8.057 M19.330 12.057 C 19.551 12.136,19.744 12.298,19.869 12.511 L 19.980 12.700 19.980 16.000 L 19.980 19.300 19.869 19.489 C 19.744 19.702,19.551 19.864,19.330 19.943 C 19.107 20.022,4.893 20.022,4.670 19.943 C 4.449 19.864,4.256 19.702,4.131 19.489 L 4.020 19.300 4.020 16.000 L 4.020 12.700 4.131 12.511 C 4.256 12.298,4.449 12.136,4.670 12.057 C 4.893 11.978,19.107 11.978,19.330 12.057 " stroke="none" fill-rule="evenodd" fill="black"></path></svg>