<svg width="24" height="24" viewBox="0 0 24 24" fill="none" xmlns="http://www.w3.org/2000/svg"><path d="M9.506 2.041 C 8.375 2.236,7.418 3.091,7.115 4.178 C 7.041 4.444,7.022 4.631,7.008 5.250 L 6.991 6.000 6.386 6.000 C 5.480 6.001,5.004 6.101,4.519 6.394 C 3.819 6.818,3.321 7.448,3.112 8.178 L 3.020 8.500 3.020 14.000 L 3.020 19.500 3.112 19.822 C 3.391 20.796,4.204 21.609,5.178 21.888 L 5.500 21.980 10.000 21.980 L 14.500 21.980 14.822 21.888 C 15.785 21.612,16.584 20.823,16.874 19.861 C 16.957 19.585,16.973 19.433,16.990 18.775 L 17.009 18.009 17.775 17.990 C 18.433 17.973,18.585 17.957,18.861 17.874 C 19.810 17.588,20.575 16.825,20.878 15.861 L 20.979 15.540 20.992 11.920 C 21.000 9.419,20.990 8.221,20.960 8.045 C 20.936 7.905,20.859 7.671,20.790 7.525 C 20.675 7.282,20.466 7.061,18.302 4.886 C 17.003 3.581,15.841 2.445,15.720 2.363 C 15.599 2.280,15.392 2.169,15.260 2.116 L 15.020 2.020 12.360 2.014 C 10.897 2.011,9.613 2.023,9.506 2.041 M16.791 6.211 L 19.002 8.422 18.991 11.861 L 18.980 15.300 18.869 15.489 C 18.744 15.702,18.551 15.864,18.330 15.943 C 18.108 16.022,9.892 16.022,9.670 15.943 C 9.449 15.864,9.256 15.702,9.131 15.489 L 9.020 15.300 9.020 10.000 L 9.020 4.700 9.131 4.511 C 9.256 4.298,9.449 4.136,9.670 4.057 C 9.789 4.015,10.317 4.003,12.200 4.002 L 14.580 4.000 16.791 6.211 M7.009 11.770 L 7.021 15.540 7.122 15.861 C 7.425 16.823,8.179 17.577,9.139 17.878 L 9.460 17.978 12.233 17.991 L 15.007 18.004 14.993 18.652 C 14.980 19.277,14.976 19.307,14.869 19.489 C 14.744 19.702,14.551 19.864,14.330 19.943 C 14.108 20.022,5.892 20.022,5.670 19.943 C 5.449 19.864,5.256 19.702,5.131 19.489 L 5.020 19.300 5.020 14.000 L 5.020 8.700 5.131 8.511 C 5.256 8.298,5.449 8.136,5.670 8.057 C 5.768 8.022,6.022 8.003,6.409 8.002 L 6.997 8.000 7.009 11.770 " stroke="none" fill-rule="evenodd" fill="black"></path></svg>