<svg width="24" height="24" viewBox="0 0 24 24" fill="none" xmlns="http://www.w3.org/2000/svg"><path d="M3.673 3.063 C 3.429 3.138,3.150 3.414,3.064 3.666 C 3.008 3.831,3.000 4.178,3.000 6.500 C 3.000 9.494,2.989 9.383,3.306 9.700 C 3.614 10.007,3.536 10.000,6.500 10.000 C 9.468 10.000,9.386 10.008,9.697 9.697 C 9.880 9.514,10.000 9.237,10.000 9.000 C 10.000 8.763,9.880 8.486,9.697 8.303 C 9.404 8.010,9.335 8.000,7.693 8.000 C 6.916 8.000,6.280 7.991,6.280 7.980 C 6.280 7.872,6.956 7.116,7.397 6.731 C 10.286 4.205,14.731 4.493,17.241 7.370 C 18.140 8.401,18.706 9.611,18.920 10.960 C 18.983 11.352,19.071 11.548,19.267 11.724 C 19.691 12.106,20.308 12.078,20.674 11.661 C 20.952 11.345,20.979 11.065,20.817 10.230 C 20.237 7.255,18.116 4.734,15.252 3.614 C 14.223 3.212,13.198 3.024,12.040 3.024 C 10.905 3.024,10.180 3.134,9.174 3.458 C 7.722 3.926,6.086 5.023,5.147 6.157 L 5.000 6.334 5.000 5.114 C 5.000 3.686,4.984 3.590,4.697 3.303 C 4.418 3.024,4.067 2.942,3.673 3.063 M3.800 12.035 C 3.500 12.133,3.245 12.362,3.130 12.637 C 2.952 13.063,3.311 14.666,3.832 15.770 C 5.141 18.546,7.701 20.462,10.680 20.897 C 12.425 21.151,14.236 20.892,15.771 20.168 C 16.915 19.629,18.080 18.752,18.834 17.864 L 19.000 17.669 19.000 18.907 C 19.000 20.333,19.013 20.406,19.306 20.700 C 19.486 20.879,19.764 21.000,20.000 21.000 C 20.237 21.000,20.514 20.880,20.697 20.697 C 21.008 20.386,21.000 20.468,21.000 17.500 C 21.000 14.532,21.008 14.614,20.697 14.303 C 20.386 13.992,20.468 14.000,17.500 14.000 C 14.536 14.000,14.614 13.993,14.306 14.300 C 13.902 14.704,13.902 15.296,14.306 15.700 C 14.595 15.989,14.668 16.000,16.307 16.000 C 17.084 16.000,17.720 16.010,17.720 16.022 C 17.720 16.096,17.319 16.567,16.922 16.960 C 16.418 17.457,16.025 17.758,15.424 18.103 C 13.972 18.937,12.185 19.203,10.500 18.836 C 7.929 18.276,5.860 16.270,5.222 13.720 C 5.170 13.511,5.106 13.205,5.079 13.040 C 5.053 12.875,5.005 12.677,4.973 12.600 C 4.899 12.419,4.702 12.214,4.503 12.112 C 4.331 12.024,3.959 11.983,3.800 12.035 " stroke="none" fill-rule="evenodd" fill="black"></path></svg>