<svg width="24" height="24" viewBox="0 0 24 24" fill="none" xmlns="http://www.w3.org/2000/svg"><path d="M11.673 3.063 C 11.412 3.143,11.140 3.421,11.061 3.690 C 11.008 3.868,11.000 4.518,11.000 8.735 L 11.000 13.576 9.770 12.352 C 8.610 11.199,8.528 11.125,8.323 11.064 C 8.053 10.984,7.949 10.984,7.690 11.061 C 7.309 11.174,7.000 11.595,7.000 12.000 C 7.000 12.080,7.029 12.234,7.065 12.343 C 7.124 12.521,7.336 12.746,9.295 14.707 C 11.384 16.797,11.468 16.876,11.677 16.937 C 11.949 17.016,12.051 17.016,12.323 16.937 C 12.532 16.876,12.617 16.796,14.707 14.707 C 16.796 12.617,16.876 12.532,16.937 12.323 C 17.016 12.052,17.016 11.948,16.939 11.690 C 16.856 11.411,16.589 11.144,16.310 11.061 C 16.051 10.984,15.947 10.984,15.677 11.064 C 15.472 11.125,15.390 11.199,14.230 12.352 L 13.000 13.576 13.000 8.735 C 13.000 3.274,13.020 3.626,12.697 3.303 C 12.418 3.024,12.067 2.942,11.673 3.063 M3.673 15.063 C 3.429 15.138,3.150 15.414,3.064 15.666 C 2.980 15.914,2.976 17.060,3.058 17.605 C 3.280 19.074,4.324 20.310,5.755 20.797 C 6.347 20.998,6.400 21.000,12.000 21.000 C 17.600 21.000,17.653 20.998,18.245 20.797 C 19.229 20.462,20.076 19.739,20.536 18.840 C 20.892 18.144,20.999 17.615,21.000 16.557 C 21.000 15.741,20.957 15.564,20.697 15.303 C 20.514 15.120,20.237 15.000,20.000 15.000 C 19.764 15.000,19.486 15.121,19.306 15.300 C 19.038 15.568,19.000 15.723,19.000 16.551 C 19.000 17.575,18.889 17.919,18.404 18.404 C 18.118 18.690,17.852 18.847,17.492 18.940 C 17.148 19.030,6.852 19.030,6.508 18.940 C 6.148 18.847,5.882 18.690,5.596 18.404 C 5.111 17.919,5.000 17.579,5.000 16.579 C 5.000 15.739,4.959 15.565,4.697 15.303 C 4.418 15.024,4.067 14.942,3.673 15.063 " stroke="none" fill-rule="evenodd" fill="black"></path></svg>