<svg width="24" height="24" viewBox="0 0 24 24" fill="none" xmlns="http://www.w3.org/2000/svg"><path d="M17.378 2.058 C 15.924 2.284,14.686 3.336,14.203 4.756 C 14.018 5.300,13.964 6.050,14.064 6.678 L 14.089 6.835 11.562 8.099 L 9.034 9.363 8.777 9.123 C 6.616 7.102,3.153 7.962,2.203 10.755 C 2.103 11.050,2.000 11.680,2.000 12.000 C 2.000 12.320,2.103 12.950,2.203 13.245 C 2.444 13.952,2.937 14.663,3.490 15.101 C 4.069 15.559,4.700 15.836,5.416 15.946 C 6.622 16.131,7.856 15.738,8.777 14.877 L 9.034 14.637 11.562 15.901 L 14.089 17.165 14.064 17.322 C 13.964 17.950,14.018 18.700,14.203 19.244 C 14.538 20.229,15.261 21.076,16.160 21.536 C 16.611 21.767,16.930 21.871,17.395 21.942 C 17.879 22.014,18.121 22.014,18.605 21.942 C 20.074 21.720,21.310 20.676,21.797 19.245 C 21.897 18.950,22.000 18.320,22.000 18.000 C 22.000 17.680,21.897 17.050,21.797 16.755 C 21.556 16.048,21.063 15.337,20.510 14.899 C 18.912 13.635,16.715 13.728,15.223 15.123 L 14.966 15.363 12.442 14.101 L 9.918 12.839 9.949 12.569 C 9.989 12.226,9.989 11.774,9.949 11.431 L 9.918 11.161 12.442 9.899 L 14.966 8.637 15.223 8.877 C 16.145 9.739,17.377 10.131,18.584 9.946 C 19.070 9.871,19.386 9.768,19.840 9.536 C 20.554 9.171,21.171 8.554,21.536 7.840 C 21.767 7.389,21.871 7.070,21.942 6.605 C 22.014 6.121,22.014 5.879,21.942 5.395 C 21.614 3.220,19.561 1.719,17.378 2.058 M18.492 4.060 C 18.852 4.153,19.118 4.310,19.404 4.596 C 19.700 4.891,19.852 5.157,19.940 5.529 C 20.052 6.007,19.994 6.498,19.771 6.937 C 19.638 7.200,19.196 7.640,18.930 7.775 C 18.133 8.179,17.230 8.035,16.596 7.403 C 15.967 6.775,15.822 5.864,16.225 5.070 C 16.362 4.800,16.801 4.361,17.071 4.225 C 17.507 4.004,18.040 3.942,18.492 4.060 M6.408 10.044 C 7.310 10.232,8.000 11.080,8.000 12.000 C 8.000 13.082,7.084 13.998,5.998 14.000 C 5.455 14.001,4.999 13.807,4.596 13.404 C 4.193 13.001,4.000 12.546,4.000 12.000 C 4.000 11.454,4.193 10.999,4.596 10.596 C 5.097 10.094,5.728 9.902,6.408 10.044 M18.492 16.060 C 18.854 16.154,19.118 16.310,19.410 16.602 C 20.038 17.230,20.178 18.134,19.771 18.937 C 19.638 19.200,19.196 19.640,18.930 19.775 C 18.341 20.073,17.659 20.073,17.070 19.775 C 16.801 19.639,16.361 19.199,16.225 18.930 C 15.822 18.136,15.967 17.225,16.596 16.597 C 17.106 16.088,17.823 15.885,18.492 16.060 " stroke="none" fill-rule="evenodd" fill="black"></path></svg>