<svg width="24" height="24" viewBox="0 0 24 24" fill="none" xmlns="http://www.w3.org/2000/svg"><path d="M11.100 2.041 C 9.341 2.219,7.729 2.802,6.335 3.767 C 3.070 6.025,1.454 9.944,2.178 13.846 C 2.468 15.412,3.137 16.886,4.154 18.200 C 4.493 18.637,5.363 19.507,5.800 19.846 C 8.241 21.735,11.253 22.412,14.240 21.741 C 17.932 20.912,20.910 17.933,21.741 14.240 C 21.929 13.402,21.977 12.954,21.977 12.000 C 21.977 11.046,21.929 10.598,21.741 9.760 C 21.274 7.685,20.065 5.706,18.437 4.354 C 16.934 3.106,15.158 2.329,13.240 2.080 C 12.775 2.019,11.539 1.997,11.100 2.041 M12.832 4.042 C 14.361 4.210,15.851 4.828,17.040 5.789 C 17.394 6.075,18.067 6.761,18.326 7.100 C 19.406 8.514,20.000 10.253,20.000 12.000 C 20.000 13.810,19.358 15.619,18.211 17.041 C 17.900 17.426,17.184 18.117,16.800 18.402 C 13.933 20.529,10.067 20.529,7.200 18.402 C 6.816 18.117,6.100 17.426,5.789 17.041 C 3.835 14.619,3.452 11.319,4.800 8.529 C 5.197 7.706,5.611 7.114,6.259 6.446 C 6.951 5.730,7.648 5.225,8.526 4.801 C 9.865 4.154,11.392 3.885,12.832 4.042 M12.378 7.058 C 10.924 7.284,9.686 8.336,9.203 9.755 C 9.103 10.050,9.000 10.680,9.000 11.000 C 9.000 11.564,9.172 12.272,9.431 12.780 L 9.553 13.020 8.343 14.240 C 7.278 15.312,7.124 15.484,7.066 15.657 C 7.030 15.766,7.000 15.920,7.000 16.000 C 7.000 16.405,7.309 16.826,7.690 16.939 C 7.949 17.016,8.053 17.016,8.323 16.936 C 8.527 16.875,8.611 16.801,9.760 15.659 L 10.980 14.447 11.220 14.569 C 11.587 14.756,11.968 14.877,12.394 14.941 C 12.879 15.014,13.121 15.015,13.605 14.942 C 14.855 14.753,15.964 13.958,16.536 12.840 C 16.767 12.389,16.871 12.070,16.942 11.605 C 17.014 11.121,17.014 10.879,16.942 10.395 C 16.614 8.220,14.561 6.719,12.378 7.058 M13.492 9.060 C 13.852 9.153,14.118 9.310,14.404 9.596 C 14.700 9.891,14.852 10.157,14.940 10.529 C 15.106 11.236,14.920 11.889,14.404 12.404 C 14.001 12.807,13.546 13.000,13.000 13.000 C 12.454 13.000,11.999 12.807,11.596 12.404 C 11.193 12.001,11.000 11.546,11.000 11.000 C 11.000 10.454,11.193 9.999,11.596 9.596 C 12.000 9.191,12.429 9.008,12.982 9.003 C 13.136 9.001,13.366 9.027,13.492 9.060 " stroke="none" fill-rule="evenodd" fill="black"></path></svg>