<svg width="24" height="24" viewBox="0 0 24 24" fill="none" xmlns="http://www.w3.org/2000/svg"><path d="M9.660 4.066 C 9.472 4.122,9.235 4.351,5.795 7.793 C 2.439 11.150,2.124 11.477,2.065 11.657 C 1.983 11.906,1.983 12.094,2.065 12.343 C 2.124 12.523,2.439 12.850,5.795 16.207 C 9.365 19.779,9.466 19.875,9.677 19.937 C 9.948 20.016,10.052 20.016,10.310 19.939 C 10.589 19.856,10.856 19.589,10.939 19.310 C 11.016 19.052,11.016 18.948,10.936 18.677 C 10.875 18.467,10.785 18.372,8.147 15.730 L 5.422 13.000 13.264 13.000 C 20.168 13.000,21.130 12.993,21.310 12.939 C 21.688 12.827,22.000 12.402,22.000 12.000 C 22.000 11.598,21.688 11.173,21.310 11.061 C 21.130 11.007,20.168 11.000,13.264 11.000 L 5.422 11.000 8.147 8.270 C 10.785 5.628,10.875 5.533,10.936 5.323 C 11.016 5.052,11.016 4.948,10.939 4.690 C 10.856 4.411,10.589 4.144,10.310 4.061 C 10.060 3.987,9.920 3.988,9.660 4.066 " stroke="none" fill-rule="evenodd" fill="black"></path></svg>