<svg width="24" height="24" viewBox="0 0 24 24" fill="none" xmlns="http://www.w3.org/2000/svg"><path d="M4.673 4.063 C 4.429 4.138,4.150 4.414,4.064 4.666 C 3.983 4.905,3.983 5.094,4.065 5.343 C 4.124 5.523,4.439 5.850,7.795 9.207 C 11.365 12.779,11.466 12.875,11.677 12.937 C 11.797 12.972,11.942 13.000,12.000 13.000 C 12.058 13.000,12.203 12.972,12.323 12.937 C 12.534 12.875,12.635 12.778,16.207 9.207 C 19.778 5.635,19.875 5.534,19.937 5.323 C 20.016 5.052,20.016 4.948,19.939 4.690 C 19.856 4.411,19.589 4.144,19.310 4.061 C 19.052 3.984,18.948 3.984,18.677 4.063 C 18.466 4.125,18.366 4.220,15.230 7.353 L 12.000 10.578 8.770 7.353 C 5.634 4.220,5.534 4.125,5.323 4.063 C 5.061 3.987,4.920 3.987,4.673 4.063 M4.673 12.063 C 4.429 12.138,4.150 12.414,4.064 12.666 C 3.983 12.905,3.983 13.094,4.065 13.343 C 4.124 13.523,4.439 13.850,7.795 17.207 C 11.365 20.779,11.466 20.875,11.677 20.937 C 11.797 20.972,11.942 21.000,12.000 21.000 C 12.058 21.000,12.203 20.972,12.323 20.937 C 12.534 20.875,12.635 20.778,16.207 17.207 C 19.778 13.635,19.875 13.534,19.937 13.323 C 20.016 13.052,20.016 12.948,19.939 12.690 C 19.856 12.411,19.589 12.144,19.310 12.061 C 19.052 11.984,18.948 11.984,18.677 12.063 C 18.466 12.125,18.366 12.220,15.230 15.353 L 12.000 18.578 8.770 15.353 C 5.634 12.220,5.534 12.125,5.323 12.063 C 5.061 11.987,4.920 11.987,4.673 12.063 " stroke="none" fill-rule="evenodd" fill="black"></path></svg>