<svg width="24" height="24" viewBox="0 0 24 24" fill="none" xmlns="http://www.w3.org/2000/svg"><path d="M8.400 2.028 C 7.866 2.093,7.276 2.336,6.871 2.658 C 6.349 3.073,6.340 3.087,4.321 7.123 C 3.221 9.320,2.413 10.982,2.364 11.147 C 1.937 12.581,2.659 14.128,4.040 14.739 C 4.568 14.973,4.562 14.972,6.868 14.989 L 8.996 15.005 9.009 17.273 L 9.022 19.540 9.122 19.861 C 9.507 21.091,10.568 21.915,11.860 21.987 C 12.543 22.024,13.007 21.862,13.434 21.434 C 13.805 21.064,13.998 20.598,13.999 20.073 C 14.000 19.771,14.093 19.344,14.220 19.055 C 14.277 18.926,14.894 17.962,15.592 16.913 L 16.860 15.007 18.200 14.991 C 19.488 14.976,19.552 14.971,19.861 14.876 C 20.829 14.578,21.612 13.784,21.888 12.822 L 21.980 12.500 21.980 9.000 L 21.980 5.500 21.888 5.178 C 21.679 4.448,21.181 3.818,20.481 3.394 C 19.941 3.068,19.546 3.001,18.171 3.000 L 17.122 3.000 15.191 2.511 L 13.260 2.023 10.900 2.017 C 9.602 2.013,8.477 2.018,8.400 2.028 M14.430 4.388 L 16.000 4.779 16.000 8.739 L 16.000 12.699 14.280 15.280 C 12.483 17.978,12.329 18.242,12.159 18.905 C 12.114 19.078,12.058 19.397,12.033 19.614 L 11.988 20.008 11.824 19.982 C 11.489 19.929,11.176 19.662,11.057 19.330 C 11.015 19.212,11.003 18.731,11.002 17.090 L 11.000 15.000 11.553 15.000 C 12.249 15.000,12.446 14.948,12.697 14.697 C 12.880 14.514,13.000 14.237,13.000 14.000 C 13.000 13.777,12.880 13.490,12.717 13.321 C 12.404 12.999,12.701 13.022,8.600 13.000 L 4.940 12.980 4.775 12.892 C 4.451 12.718,4.242 12.367,4.241 11.992 C 4.240 11.770,4.293 11.657,6.076 8.088 C 7.761 4.717,7.928 4.400,8.095 4.253 C 8.195 4.165,8.336 4.073,8.409 4.050 C 8.493 4.023,9.312 4.006,10.700 4.003 L 12.860 3.998 14.430 4.388 M19.489 5.131 C 19.702 5.256,19.864 5.449,19.943 5.670 C 20.022 5.891,20.022 12.109,19.943 12.330 C 19.864 12.551,19.702 12.744,19.489 12.869 C 19.307 12.976,19.277 12.980,18.650 12.993 L 18.000 13.007 18.000 9.000 L 18.000 4.993 18.650 5.007 C 19.277 5.020,19.307 5.024,19.489 5.131 " stroke="none" fill-rule="evenodd" fill="black"></path></svg>