<svg width="24" height="24" viewBox="0 0 24 24" fill="none" xmlns="http://www.w3.org/2000/svg"><path d="M6.506 2.042 C 5.382 2.231,4.426 3.084,4.112 4.178 L 4.020 4.500 4.020 12.880 L 4.020 21.260 4.120 21.455 C 4.242 21.694,4.435 21.858,4.694 21.945 C 5.090 22.076,5.008 22.110,8.650 20.293 L 12.000 18.621 15.350 20.292 C 17.789 21.509,18.750 21.969,18.884 21.986 C 19.338 22.043,19.815 21.735,19.940 21.305 C 19.994 21.119,20.000 20.131,19.990 12.778 L 19.979 4.460 19.887 4.157 C 19.551 3.052,18.605 2.225,17.467 2.041 C 17.168 1.992,6.796 1.993,6.506 2.042 M17.489 4.131 C 17.702 4.256,17.864 4.449,17.943 4.670 C 17.987 4.793,17.997 6.121,17.998 12.090 C 17.999 16.089,17.991 19.360,17.981 19.360 C 17.970 19.360,16.691 18.726,15.139 17.950 L 12.317 16.540 12.000 16.540 L 11.683 16.540 8.861 17.950 C 7.309 18.726,6.030 19.360,6.019 19.360 C 6.008 19.360,6.004 16.062,6.010 12.030 L 6.020 4.700 6.131 4.511 C 6.256 4.298,6.448 4.136,6.670 4.057 C 6.793 4.012,7.752 4.004,12.060 4.011 L 17.300 4.020 17.489 4.131 " stroke="none" fill-rule="evenodd" fill="black"></path></svg>