<svg width="24" height="24" viewBox="0 0 24 24" fill="none" xmlns="http://www.w3.org/2000/svg"><path d="M6.506 2.041 C 5.377 2.235,4.426 3.084,4.112 4.178 L 4.020 4.500 4.020 12.000 L 4.020 19.500 4.112 19.822 C 4.391 20.796,5.204 21.609,6.178 21.888 L 6.500 21.980 12.000 21.980 L 17.500 21.980 17.822 21.888 C 18.783 21.613,19.570 20.836,19.879 19.861 L 19.980 19.540 19.992 14.420 C 20.000 10.847,19.990 9.223,19.960 9.045 C 19.936 8.905,19.859 8.671,19.790 8.525 C 19.675 8.281,19.443 8.037,16.802 5.387 C 15.228 3.806,13.841 2.445,13.720 2.363 C 13.599 2.280,13.392 2.169,13.260 2.116 L 13.020 2.020 9.860 2.014 C 8.122 2.011,6.613 2.023,6.506 2.041 M15.290 6.710 L 18.000 9.420 17.998 14.300 C 17.997 18.272,17.987 19.208,17.943 19.330 C 17.864 19.551,17.702 19.744,17.489 19.869 L 17.300 19.980 12.000 19.980 L 6.700 19.980 6.508 19.867 C 6.291 19.739,6.099 19.498,6.039 19.278 C 6.013 19.179,6.003 16.668,6.010 11.914 L 6.020 4.700 6.131 4.511 C 6.256 4.298,6.449 4.136,6.670 4.057 C 6.790 4.014,7.399 4.003,9.700 4.002 L 12.580 4.000 15.290 6.710 M14.673 10.063 C 14.429 10.138,14.150 10.414,14.064 10.666 C 14.007 10.832,14.000 11.220,14.000 14.000 C 14.000 17.553,13.986 17.379,14.306 17.700 C 14.486 17.879,14.764 18.000,15.000 18.000 C 15.237 18.000,15.514 17.880,15.697 17.697 C 16.012 17.382,16.000 17.525,16.000 14.000 C 16.000 10.475,16.012 10.618,15.697 10.303 C 15.418 10.024,15.067 9.942,14.673 10.063 M11.673 12.063 C 11.412 12.143,11.140 12.421,11.061 12.690 C 10.968 13.003,10.970 17.059,11.064 17.334 C 11.188 17.697,11.613 18.000,12.000 18.000 C 12.237 18.000,12.514 17.880,12.697 17.697 C 13.002 17.391,13.000 17.411,13.000 15.000 C 13.000 12.589,13.002 12.609,12.697 12.303 C 12.418 12.024,12.067 11.942,11.673 12.063 M8.673 14.063 C 8.429 14.138,8.150 14.414,8.064 14.666 C 7.970 14.943,7.970 17.057,8.064 17.334 C 8.188 17.697,8.613 18.000,9.000 18.000 C 9.237 18.000,9.514 17.880,9.697 17.697 C 9.980 17.414,10.000 17.303,10.000 16.000 C 10.000 14.697,9.980 14.586,9.697 14.303 C 9.418 14.024,9.067 13.942,8.673 14.063 " stroke="none" fill-rule="evenodd" fill="black"></path></svg>