<svg width="24" height="24" viewBox="0 0 24 24" fill="none" xmlns="http://www.w3.org/2000/svg"><path d="M12.673 6.063 C 12.429 6.138,12.150 6.414,12.064 6.666 C 11.983 6.905,11.983 7.095,12.066 7.343 C 12.124 7.519,12.312 7.721,13.854 9.270 L 15.577 11.000 10.736 11.000 C 5.280 11.000,5.625 10.981,5.306 11.300 C 4.902 11.704,4.902 12.296,5.306 12.700 C 5.625 13.019,5.280 13.000,10.736 13.000 L 15.577 13.000 13.854 14.730 C 12.312 16.279,12.124 16.481,12.066 16.657 C 12.030 16.766,12.000 16.920,12.000 17.000 C 12.000 17.405,12.309 17.826,12.690 17.939 C 12.948 18.016,13.052 18.016,13.323 17.937 C 13.533 17.875,13.623 17.790,16.207 15.207 C 18.790 12.623,18.875 12.533,18.937 12.323 C 18.972 12.203,19.000 12.058,19.000 12.000 C 19.000 11.942,18.972 11.797,18.937 11.677 C 18.875 11.467,18.790 11.377,16.207 8.793 C 13.623 6.210,13.533 6.125,13.323 6.063 C 13.061 5.987,12.920 5.987,12.673 6.063 " stroke="none" fill-rule="evenodd" fill="black"></path></svg>