<svg width="24" height="24" viewBox="0 0 24 24" fill="none" xmlns="http://www.w3.org/2000/svg"><path d="M11.100 2.041 C 9.341 2.219,7.729 2.802,6.335 3.767 C 3.070 6.025,1.454 9.944,2.178 13.846 C 2.468 15.412,3.137 16.886,4.154 18.200 C 4.493 18.637,5.363 19.507,5.800 19.846 C 8.241 21.735,11.253 22.412,14.240 21.741 C 17.932 20.912,20.910 17.933,21.741 14.240 C 21.929 13.402,21.977 12.954,21.977 12.000 C 21.977 11.046,21.929 10.598,21.741 9.760 C 21.274 7.685,20.065 5.706,18.437 4.354 C 16.934 3.106,15.158 2.329,13.240 2.080 C 12.775 2.019,11.539 1.997,11.100 2.041 M12.832 4.042 C 14.361 4.210,15.851 4.828,17.040 5.789 C 17.394 6.075,18.067 6.761,18.326 7.100 C 19.406 8.514,20.000 10.253,20.000 12.000 C 20.000 13.810,19.358 15.619,18.211 17.041 C 17.900 17.426,17.184 18.117,16.800 18.402 C 13.933 20.529,10.067 20.529,7.200 18.402 C 6.816 18.117,6.100 17.426,5.789 17.041 C 3.835 14.619,3.452 11.319,4.800 8.529 C 5.197 7.706,5.611 7.114,6.259 6.446 C 6.951 5.730,7.648 5.225,8.526 4.801 C 9.865 4.154,11.392 3.885,12.832 4.042 M12.673 8.063 C 12.310 8.175,12.000 8.606,12.000 9.000 C 12.000 9.362,12.090 9.496,12.854 10.270 L 13.574 11.000 10.734 11.000 C 8.308 11.000,7.865 11.009,7.690 11.061 C 7.309 11.174,7.000 11.595,7.000 12.000 C 7.000 12.405,7.309 12.826,7.690 12.939 C 7.865 12.991,8.308 13.000,10.734 13.000 L 13.574 13.000 12.854 13.730 C 12.090 14.504,12.000 14.638,12.000 15.000 C 12.000 15.405,12.309 15.826,12.690 15.939 C 12.948 16.016,13.052 16.016,13.323 15.937 C 13.531 15.876,13.611 15.802,15.207 14.207 C 16.802 12.611,16.876 12.531,16.937 12.323 C 17.016 12.051,17.016 11.949,16.937 11.677 C 16.876 11.469,16.802 11.389,15.207 9.793 C 13.611 8.198,13.531 8.124,13.323 8.063 C 13.061 7.987,12.920 7.987,12.673 8.063 " stroke="none" fill-rule="evenodd" fill="black"></path></svg>