<svg width="24" height="24" viewBox="0 0 24 24" fill="none" xmlns="http://www.w3.org/2000/svg"><path d="M11.100 2.041 C 9.341 2.219,7.729 2.802,6.335 3.767 C 3.070 6.025,1.454 9.944,2.178 13.846 C 2.468 15.412,3.137 16.886,4.154 18.200 C 4.493 18.637,5.363 19.507,5.800 19.846 C 8.241 21.735,11.253 22.412,14.240 21.741 C 17.932 20.912,20.910 17.933,21.741 14.240 C 21.929 13.402,21.977 12.954,21.977 12.000 C 21.977 11.046,21.929 10.598,21.741 9.760 C 21.274 7.685,20.065 5.706,18.437 4.354 C 16.934 3.106,15.158 2.329,13.240 2.080 C 12.775 2.019,11.539 1.997,11.100 2.041 M12.832 4.042 C 14.361 4.210,15.851 4.828,17.040 5.789 C 17.394 6.075,18.067 6.761,18.326 7.100 C 19.406 8.514,20.000 10.253,20.000 12.000 C 20.000 13.810,19.358 15.619,18.211 17.041 C 17.900 17.426,17.184 18.117,16.800 18.402 C 13.933 20.529,10.067 20.529,7.200 18.402 C 6.816 18.117,6.100 17.426,5.789 17.041 C 3.835 14.619,3.452 11.319,4.800 8.529 C 5.197 7.706,5.611 7.114,6.259 6.446 C 6.951 5.730,7.648 5.225,8.526 4.801 C 9.865 4.154,11.392 3.885,12.832 4.042 M14.660 9.066 C 14.476 9.122,14.321 9.265,12.731 10.851 L 11.002 12.575 10.268 11.851 C 9.603 11.195,9.515 11.122,9.320 11.064 C 9.053 10.984,8.948 10.984,8.690 11.061 C 8.309 11.174,8.000 11.595,8.000 12.000 C 8.000 12.080,8.029 12.234,8.065 12.343 C 8.123 12.517,8.268 12.677,9.295 13.706 C 10.396 14.808,10.472 14.876,10.677 14.936 C 10.949 15.016,11.050 15.016,11.323 14.937 C 11.532 14.876,11.617 14.796,13.707 12.707 C 15.796 10.617,15.876 10.532,15.937 10.323 C 16.016 10.052,16.016 9.948,15.939 9.690 C 15.856 9.411,15.589 9.144,15.310 9.061 C 15.059 8.986,14.919 8.988,14.660 9.066 " stroke="none" fill-rule="evenodd" fill="black"></path></svg>