<svg width="24" height="24" viewBox="0 0 24 24" fill="none" xmlns="http://www.w3.org/2000/svg"><path d="M11.100 2.044 C 6.643 2.459,2.989 5.780,2.178 10.154 C 1.445 14.104,3.113 18.073,6.440 20.299 C 10.773 23.198,16.581 22.294,19.824 18.217 C 22.715 14.582,22.715 9.418,19.824 5.783 C 18.294 3.860,16.068 2.545,13.660 2.144 C 12.839 2.007,11.896 1.970,11.100 2.044 M12.832 4.042 C 14.361 4.210,15.851 4.828,17.040 5.789 C 17.394 6.075,18.067 6.761,18.326 7.100 C 18.653 7.529,18.958 8.027,19.200 8.529 C 20.267 10.737,20.265 13.265,19.197 15.480 C 18.972 15.944,18.392 16.880,18.328 16.880 C 18.291 16.880,7.120 5.709,7.120 5.672 C 7.120 5.608,8.055 5.028,8.520 4.803 C 9.863 4.155,11.393 3.885,12.832 4.042 M11.300 12.722 L 16.900 18.324 16.784 18.412 C 16.183 18.867,15.276 19.339,14.517 19.591 C 12.278 20.333,9.843 20.052,7.809 18.817 C 7.139 18.411,6.299 17.672,5.789 17.040 C 3.834 14.622,3.453 11.319,4.803 8.520 C 5.028 8.055,5.608 7.120,5.672 7.120 C 5.687 7.120,8.220 9.641,11.300 12.722 " stroke="none" fill-rule="evenodd" fill="black"></path></svg>