<svg width="24" height="24" viewBox="0 0 24 24" fill="none" xmlns="http://www.w3.org/2000/svg"><path d="M4.506 2.042 C 3.393 2.229,2.445 3.067,2.113 4.157 L 2.021 4.460 2.010 12.798 C 1.997 22.173,1.970 21.364,2.306 21.699 C 2.486 21.880,2.764 22.000,3.000 22.000 C 3.223 22.000,3.510 21.880,3.679 21.717 C 3.992 21.413,3.978 21.536,4.000 18.980 L 4.020 16.700 4.131 16.511 C 4.256 16.298,4.449 16.136,4.670 16.057 C 4.790 16.014,5.442 16.003,7.961 16.002 L 11.102 16.000 11.501 16.403 C 11.720 16.625,11.972 16.845,12.060 16.893 L 12.220 16.980 16.740 16.980 L 21.260 16.980 21.460 16.876 C 21.829 16.683,22.043 16.264,21.981 15.853 C 21.962 15.727,21.502 14.766,20.537 12.835 L 19.121 10.000 20.542 7.150 C 21.570 5.088,21.970 4.249,21.986 4.116 C 22.043 3.665,21.737 3.187,21.310 3.061 C 21.133 3.008,20.559 3.000,17.005 3.000 L 12.904 3.000 12.462 2.564 C 12.079 2.187,11.991 2.120,11.803 2.064 C 11.610 2.007,11.197 2.001,8.143 2.005 C 6.249 2.007,4.613 2.024,4.506 2.042 M11.000 6.573 C 11.000 9.485,10.990 9.384,11.306 9.700 C 11.486 9.879,11.764 10.000,12.000 10.000 C 12.237 10.000,12.514 9.880,12.697 9.697 C 13.002 9.392,13.000 9.405,13.000 7.053 L 13.000 5.000 16.180 5.000 C 17.929 5.000,19.360 5.009,19.360 5.019 C 19.360 5.030,18.833 6.093,18.190 7.381 L 17.020 9.723 17.020 10.000 L 17.020 10.277 18.190 12.619 C 18.834 13.907,19.360 14.970,19.360 14.981 C 19.360 14.991,17.907 15.000,16.132 15.000 L 12.904 15.000 12.462 14.564 C 12.072 14.179,11.994 14.120,11.795 14.063 C 11.592 14.004,11.211 13.998,8.015 14.010 C 4.809 14.022,4.438 14.030,4.240 14.091 C 4.119 14.129,4.015 14.159,4.009 14.160 C 4.004 14.160,4.004 12.032,4.009 9.430 L 4.020 4.700 4.131 4.511 C 4.256 4.298,4.449 4.136,4.670 4.057 C 4.790 4.014,5.433 4.003,7.910 4.002 L 11.000 4.000 11.000 6.573 " stroke="none" fill-rule="evenodd" fill="black"></path></svg>