<svg width="24" height="24" viewBox="0 0 24 24" fill="none" xmlns="http://www.w3.org/2000/svg"><path d="M9.506 1.042 C 8.381 1.231,7.418 2.091,7.115 3.178 C 7.041 3.444,7.022 3.631,7.008 4.250 L 6.991 5.000 5.886 5.000 C 4.450 5.001,4.064 5.065,3.519 5.394 C 2.819 5.818,2.321 6.448,2.112 7.178 L 2.020 7.500 2.020 13.000 L 2.020 18.500 2.112 18.822 C 2.391 19.796,3.204 20.609,4.178 20.888 L 4.500 20.980 12.000 20.980 L 19.500 20.980 19.822 20.888 C 20.796 20.609,21.609 19.796,21.888 18.822 L 21.980 18.500 21.980 13.000 L 21.980 7.500 21.888 7.178 C 21.679 6.448,21.181 5.818,20.481 5.394 C 19.936 5.065,19.550 5.001,18.114 5.000 L 17.009 5.000 16.992 4.250 C 16.973 3.389,16.902 3.047,16.648 2.590 C 16.182 1.751,15.394 1.191,14.467 1.041 C 14.172 0.993,9.793 0.994,9.506 1.042 M14.330 3.057 C 14.551 3.136,14.744 3.298,14.869 3.511 C 14.976 3.693,14.980 3.723,14.993 4.350 L 15.007 5.000 12.000 5.000 L 8.993 5.000 9.007 4.350 C 9.020 3.723,9.024 3.693,9.131 3.511 C 9.256 3.298,9.449 3.136,9.670 3.057 C 9.889 2.979,14.111 2.979,14.330 3.057 M19.330 7.057 C 19.551 7.136,19.744 7.298,19.869 7.511 L 19.980 7.700 19.980 10.140 L 19.980 12.580 19.360 12.792 C 14.658 14.400,9.342 14.400,4.640 12.792 L 4.020 12.580 4.020 10.140 L 4.020 7.700 4.131 7.511 C 4.256 7.298,4.449 7.136,4.670 7.057 C 4.893 6.978,19.107 6.978,19.330 7.057 M11.673 11.063 C 11.304 11.177,11.000 11.609,11.000 12.020 C 11.000 12.415,11.319 12.831,11.710 12.944 C 12.209 13.090,12.693 12.878,12.905 12.422 C 13.160 11.874,12.875 11.230,12.303 11.059 C 12.062 10.987,11.917 10.988,11.673 11.063 M5.280 15.081 C 7.587 15.711,9.567 15.974,12.000 15.974 C 13.649 15.974,14.686 15.891,16.213 15.636 C 17.322 15.452,18.784 15.098,19.652 14.803 L 20.003 14.684 19.992 16.492 L 19.980 18.300 19.869 18.489 C 19.744 18.702,19.551 18.864,19.330 18.943 C 19.107 19.022,4.893 19.022,4.670 18.943 C 4.449 18.864,4.256 18.702,4.131 18.489 L 4.020 18.300 4.008 16.492 L 3.997 14.684 4.348 14.803 C 4.542 14.869,4.961 14.994,5.280 15.081 " stroke="none" fill-rule="evenodd" fill="black"></path></svg>