<svg width="24" height="24" viewBox="0 0 24 24" fill="none" xmlns="http://www.w3.org/2000/svg"><path d="M4.539 3.064 C 4.232 3.173,4.095 3.330,3.833 3.875 C 2.866 5.886,2.285 8.027,2.075 10.360 C 2.013 11.044,2.013 12.984,2.075 13.640 C 2.297 15.991,2.845 18.030,3.798 20.059 C 4.045 20.584,4.147 20.725,4.375 20.859 C 4.851 21.138,5.475 20.959,5.744 20.466 C 5.836 20.298,5.856 20.212,5.854 20.000 C 5.852 19.764,5.824 19.680,5.550 19.080 C 4.835 17.515,4.387 15.984,4.164 14.340 C 3.719 11.070,4.185 7.908,5.550 4.920 C 5.824 4.320,5.852 4.236,5.854 4.000 C 5.856 3.787,5.836 3.702,5.743 3.532 C 5.509 3.104,4.992 2.903,4.539 3.064 M18.726 3.046 C 18.262 3.179,17.952 3.647,18.016 4.117 C 18.030 4.215,18.156 4.548,18.297 4.858 C 19.246 6.935,19.717 8.851,19.844 11.150 C 19.994 13.870,19.469 16.584,18.298 19.142 C 18.003 19.787,17.963 19.973,18.054 20.284 C 18.169 20.677,18.486 20.936,18.912 20.987 C 19.252 21.027,19.639 20.848,19.813 20.570 C 19.937 20.373,20.397 19.360,20.582 18.880 C 21.457 16.610,21.845 14.492,21.845 12.000 C 21.845 9.508,21.457 7.390,20.582 5.120 C 20.420 4.699,19.949 3.654,19.831 3.454 C 19.629 3.111,19.134 2.928,18.726 3.046 M8.673 8.063 C 8.310 8.175,8.000 8.606,8.000 9.000 C 8.000 9.233,8.114 9.504,8.287 9.682 C 8.547 9.951,8.640 9.975,9.496 9.999 L 10.252 10.020 10.566 11.120 C 10.739 11.725,10.872 12.242,10.862 12.269 C 10.852 12.296,10.365 12.875,9.781 13.555 C 8.605 14.927,8.519 15.000,8.099 15.000 C 7.768 15.000,7.508 15.098,7.306 15.300 C 6.902 15.705,6.902 16.296,7.307 16.701 C 7.547 16.940,7.813 17.020,8.258 16.986 C 8.706 16.951,9.000 16.869,9.429 16.658 C 9.892 16.432,10.117 16.226,10.893 15.320 C 11.223 14.935,11.505 14.606,11.520 14.588 C 11.535 14.571,11.615 14.796,11.698 15.088 C 11.905 15.821,12.036 16.084,12.356 16.404 C 12.663 16.710,13.010 16.894,13.401 16.957 C 13.811 17.024,15.065 17.012,15.310 16.939 C 15.688 16.827,16.000 16.402,16.000 16.000 C 16.000 15.777,15.880 15.490,15.717 15.321 C 15.452 15.049,15.361 15.025,14.504 15.001 L 13.748 14.980 13.434 13.880 C 13.261 13.275,13.128 12.758,13.138 12.731 C 13.148 12.704,13.635 12.125,14.219 11.445 C 15.408 10.059,15.415 10.053,15.957 9.998 C 16.348 9.959,16.512 9.890,16.717 9.679 C 16.880 9.510,17.000 9.223,17.000 9.000 C 17.000 8.587,16.687 8.171,16.289 8.055 C 15.879 7.936,15.208 8.036,14.650 8.299 C 14.099 8.559,13.913 8.728,12.999 9.800 C 12.708 10.141,12.466 10.425,12.461 10.431 C 12.456 10.437,12.384 10.203,12.302 9.911 C 12.094 9.176,11.964 8.916,11.644 8.599 C 11.337 8.296,10.991 8.113,10.597 8.045 C 10.211 7.979,8.907 7.991,8.673 8.063 " stroke="none" fill-rule="evenodd" fill="black"></path></svg>