<svg width="24" height="24" viewBox="0 0 24 24" fill="none" xmlns="http://www.w3.org/2000/svg"><path d="M4.673 8.063 C 4.429 8.138,4.150 8.414,4.064 8.666 C 3.983 8.905,3.983 9.094,4.065 9.343 C 4.124 9.523,4.439 9.850,7.795 13.207 C 11.365 16.779,11.466 16.875,11.677 16.937 C 11.797 16.972,11.942 17.000,12.000 17.000 C 12.058 17.000,12.203 16.972,12.323 16.937 C 12.534 16.875,12.635 16.778,16.207 13.207 C 19.778 9.635,19.875 9.534,19.937 9.323 C 20.016 9.052,20.016 8.948,19.939 8.690 C 19.856 8.411,19.589 8.144,19.310 8.061 C 19.052 7.984,18.948 7.984,18.677 8.063 C 18.466 8.125,18.366 8.220,15.230 11.353 L 12.000 14.578 8.770 11.353 C 5.634 8.220,5.534 8.125,5.323 8.063 C 5.061 7.987,4.920 7.987,4.673 8.063 " stroke="none" fill-rule="evenodd" fill="black"></path></svg>