<svg width="24" height="24" viewBox="0 0 24 24" fill="none" xmlns="http://www.w3.org/2000/svg"><path d="M13.673 3.063 C 13.553 3.100,13.421 3.185,13.307 3.299 C 12.902 3.704,12.902 4.295,13.306 4.700 C 13.604 4.998,13.622 5.000,15.737 5.000 L 17.579 5.000 13.354 9.230 C 9.483 13.107,9.125 13.476,9.065 13.657 C 9.029 13.766,9.000 13.920,9.000 14.000 C 9.000 14.405,9.309 14.826,9.690 14.939 C 9.948 15.016,10.052 15.016,10.323 14.937 C 10.535 14.875,10.646 14.768,14.770 10.647 L 19.000 6.421 19.000 8.283 C 19.000 10.403,18.999 10.392,19.306 10.700 C 19.486 10.879,19.764 11.000,20.000 11.000 C 20.402 11.000,20.827 10.688,20.939 10.310 C 21.030 10.003,21.030 3.997,20.939 3.690 C 20.856 3.411,20.589 3.144,20.310 3.061 C 20.013 2.972,13.961 2.975,13.673 3.063 M5.506 5.042 C 4.382 5.231,3.426 6.084,3.112 7.178 L 3.020 7.500 3.020 13.000 L 3.020 18.500 3.112 18.822 C 3.391 19.796,4.204 20.609,5.178 20.888 L 5.500 20.980 11.000 20.980 L 16.500 20.980 16.822 20.888 C 17.784 20.612,18.574 19.833,18.878 18.861 L 18.978 18.540 18.991 16.227 C 19.006 13.573,19.011 13.617,18.697 13.304 C 18.514 13.120,18.238 13.000,18.000 13.000 C 17.777 13.000,17.490 13.120,17.321 13.283 C 17.008 13.587,17.022 13.464,17.000 16.020 L 16.980 18.300 16.869 18.489 C 16.744 18.702,16.551 18.864,16.330 18.943 C 16.108 19.022,5.892 19.022,5.670 18.943 C 5.449 18.864,5.256 18.702,5.131 18.489 L 5.020 18.300 5.009 13.086 C 5.002 9.663,5.013 7.821,5.039 7.723 C 5.099 7.502,5.290 7.261,5.508 7.133 L 5.700 7.020 7.980 7.000 C 10.536 6.978,10.413 6.992,10.717 6.679 C 10.880 6.510,11.000 6.223,11.000 6.000 C 11.000 5.763,10.880 5.486,10.697 5.303 C 10.389 4.996,10.423 4.999,7.903 5.005 C 6.691 5.007,5.613 5.024,5.506 5.042 " stroke="none" fill-rule="evenodd" fill="black"></path></svg>