<svg width="24" height="24" viewBox="0 0 24 24" fill="none" xmlns="http://www.w3.org/2000/svg"><path d="M3.530 3.061 C 2.859 3.206,2.251 3.798,2.073 4.477 C 2.010 4.721,2.005 5.266,2.005 12.000 C 2.005 18.734,2.010 19.279,2.073 19.523 C 2.253 20.212,2.860 20.795,3.549 20.941 C 3.956 21.027,20.044 21.027,20.451 20.941 C 20.822 20.863,21.092 20.709,21.401 20.401 C 21.709 20.092,21.863 19.822,21.941 19.451 C 22.027 19.045,22.027 4.955,21.941 4.549 C 21.863 4.178,21.709 3.908,21.401 3.599 C 21.092 3.291,20.822 3.137,20.451 3.059 C 20.058 2.976,3.914 2.977,3.530 3.061 M6.000 6.000 L 6.000 7.000 5.000 7.000 L 4.000 7.000 4.000 6.000 L 4.000 5.000 5.000 5.000 L 6.000 5.000 6.000 6.000 M16.000 8.000 L 16.000 11.000 12.000 11.000 L 8.000 11.000 8.000 8.000 L 8.000 5.000 12.000 5.000 L 16.000 5.000 16.000 8.000 M20.000 6.000 L 20.000 7.000 19.000 7.000 L 18.000 7.000 18.000 6.000 L 18.000 5.000 19.000 5.000 L 20.000 5.000 20.000 6.000 M6.000 10.000 L 6.000 11.000 5.000 11.000 L 4.000 11.000 4.000 10.000 L 4.000 9.000 5.000 9.000 L 6.000 9.000 6.000 10.000 M20.000 10.000 L 20.000 11.000 19.000 11.000 L 18.000 11.000 18.000 10.000 L 18.000 9.000 19.000 9.000 L 20.000 9.000 20.000 10.000 M6.000 14.000 L 6.000 15.000 5.000 15.000 L 4.000 15.000 4.000 14.000 L 4.000 13.000 5.000 13.000 L 6.000 13.000 6.000 14.000 M16.000 16.000 L 16.000 19.000 12.000 19.000 L 8.000 19.000 8.000 16.000 L 8.000 13.000 12.000 13.000 L 16.000 13.000 16.000 16.000 M20.000 14.000 L 20.000 15.000 19.000 15.000 L 18.000 15.000 18.000 14.000 L 18.000 13.000 19.000 13.000 L 20.000 13.000 20.000 14.000 M6.000 18.000 L 6.000 19.000 5.000 19.000 L 4.000 19.000 4.000 18.000 L 4.000 17.000 5.000 17.000 L 6.000 17.000 6.000 18.000 M20.000 18.000 L 20.000 19.000 19.000 19.000 L 18.000 19.000 18.000 18.000 L 18.000 17.000 19.000 17.000 L 20.000 17.000 20.000 18.000 " stroke="none" fill-rule="evenodd" fill="black"></path></svg>