<svg width="24" height="24" viewBox="0 0 24 24" fill="none" xmlns="http://www.w3.org/2000/svg"><path d="M4.506 4.041 C 3.379 4.233,2.426 5.084,2.112 6.178 L 2.020 6.500 2.020 12.000 L 2.020 17.500 2.112 17.822 C 2.391 18.796,3.204 19.609,4.178 19.888 L 4.500 19.980 12.000 19.980 L 19.500 19.980 19.822 19.888 C 20.796 19.609,21.609 18.796,21.888 17.822 L 21.980 17.500 21.980 13.000 L 21.980 8.500 21.888 8.178 C 21.570 7.069,20.616 6.227,19.467 6.041 C 19.318 6.017,18.066 6.000,16.322 6.000 L 13.424 6.000 12.502 5.087 C 11.952 4.542,11.515 4.143,11.420 4.097 C 11.266 4.023,11.130 4.020,7.980 4.014 C 6.176 4.011,4.613 4.023,4.506 4.041 M11.498 6.913 C 12.048 7.458,12.485 7.857,12.580 7.903 C 12.733 7.977,12.886 7.981,16.020 8.000 L 19.300 8.020 19.492 8.133 C 19.710 8.261,19.901 8.502,19.961 8.723 C 19.987 8.822,19.998 10.328,19.991 13.087 L 19.980 17.300 19.869 17.489 C 19.744 17.702,19.551 17.864,19.330 17.943 C 19.107 18.022,4.893 18.022,4.670 17.943 C 4.449 17.864,4.256 17.702,4.131 17.489 L 4.020 17.300 4.020 12.000 L 4.020 6.700 4.131 6.511 C 4.256 6.298,4.449 6.136,4.670 6.057 C 4.790 6.014,5.399 6.003,7.698 6.002 L 10.576 6.000 11.498 6.913 " stroke="none" fill-rule="evenodd" fill="black"></path></svg>