<svg width="24" height="24" viewBox="0 0 24 24" fill="none" xmlns="http://www.w3.org/2000/svg"><path d="M11.100 2.041 C 9.341 2.219,7.729 2.802,6.335 3.767 C 3.070 6.025,1.454 9.944,2.178 13.846 C 2.468 15.412,3.137 16.886,4.154 18.200 C 4.493 18.637,5.363 19.507,5.800 19.846 C 8.241 21.735,11.253 22.412,14.240 21.741 C 17.932 20.912,20.910 17.933,21.741 14.240 C 21.929 13.402,21.977 12.954,21.977 12.000 C 21.977 11.046,21.929 10.598,21.741 9.760 C 21.274 7.685,20.065 5.706,18.437 4.354 C 16.934 3.106,15.158 2.329,13.240 2.080 C 12.775 2.019,11.539 1.997,11.100 2.041 M12.832 4.042 C 14.361 4.210,15.851 4.828,17.040 5.789 C 17.394 6.075,18.067 6.761,18.326 7.100 C 19.406 8.514,20.000 10.253,20.000 12.000 C 20.000 13.810,19.358 15.619,18.211 17.041 C 17.900 17.426,17.184 18.117,16.800 18.402 C 13.933 20.529,10.067 20.529,7.200 18.402 C 6.816 18.117,6.100 17.426,5.789 17.041 C 3.835 14.619,3.452 11.319,4.800 8.529 C 5.197 7.706,5.611 7.114,6.259 6.446 C 6.951 5.730,7.648 5.225,8.526 4.801 C 9.865 4.154,11.392 3.885,12.832 4.042 M8.673 9.063 C 8.310 9.175,8.000 9.606,8.000 10.000 C 8.000 10.575,8.547 11.055,9.124 10.987 C 10.178 10.862,10.318 9.362,9.303 9.059 C 9.062 8.987,8.917 8.988,8.673 9.063 M14.673 9.063 C 14.310 9.175,14.000 9.606,14.000 10.000 C 14.000 10.575,14.547 11.055,15.124 10.987 C 16.178 10.862,16.318 9.362,15.303 9.059 C 15.062 8.987,14.917 8.988,14.673 9.063 M8.810 13.900 C 8.424 14.067,8.190 14.413,8.190 14.815 C 8.190 15.251,8.354 15.493,8.964 15.962 C 9.961 16.726,11.231 17.089,12.470 16.964 C 12.977 16.913,13.262 16.851,13.700 16.695 C 14.535 16.398,15.560 15.658,15.743 15.220 C 16.008 14.584,15.530 13.840,14.856 13.840 C 14.547 13.840,14.377 13.917,14.009 14.225 C 13.609 14.560,13.269 14.753,12.840 14.886 C 12.588 14.964,12.453 14.979,12.000 14.979 C 11.547 14.979,11.412 14.964,11.160 14.886 C 10.731 14.753,10.391 14.560,9.991 14.225 C 9.794 14.061,9.574 13.913,9.486 13.887 C 9.278 13.824,8.970 13.830,8.810 13.900 " stroke="none" fill-rule="evenodd" fill="black"></path></svg>