<svg width="24" height="24" viewBox="0 0 24 24" fill="none" xmlns="http://www.w3.org/2000/svg"><path d="M5.506 3.042 C 4.382 3.231,3.426 4.084,3.112 5.178 L 3.020 5.500 3.020 12.000 L 3.020 18.500 3.112 18.822 C 3.391 19.796,4.204 20.609,5.178 20.888 L 5.500 20.980 12.000 20.980 L 18.500 20.980 18.822 20.888 C 19.796 20.609,20.609 19.796,20.888 18.822 L 20.980 18.500 20.980 12.000 L 20.980 5.500 20.888 5.178 C 20.570 4.069,19.616 3.227,18.467 3.041 C 18.167 2.992,5.797 2.993,5.506 3.042 M18.330 5.057 C 18.551 5.136,18.744 5.298,18.869 5.511 L 18.980 5.700 18.980 12.000 L 18.980 18.300 18.869 18.489 C 18.744 18.702,18.551 18.864,18.330 18.943 C 18.108 19.022,5.892 19.022,5.670 18.943 C 5.449 18.864,5.256 18.702,5.131 18.489 L 5.020 18.300 5.020 12.000 L 5.020 5.700 5.131 5.511 C 5.256 5.298,5.449 5.136,5.670 5.057 C 5.892 4.978,18.108 4.978,18.330 5.057 M15.673 7.063 C 15.429 7.138,15.150 7.414,15.064 7.666 C 15.007 7.834,15.000 8.303,15.000 12.000 C 15.000 16.672,14.981 16.374,15.306 16.700 C 15.486 16.879,15.764 17.000,16.000 17.000 C 16.237 17.000,16.514 16.880,16.697 16.697 C 17.017 16.377,17.000 16.641,17.000 12.000 C 17.000 7.359,17.017 7.623,16.697 7.303 C 16.418 7.024,16.067 6.942,15.673 7.063 M11.673 10.063 C 11.412 10.143,11.140 10.421,11.061 10.690 C 10.967 11.005,10.970 16.058,11.064 16.334 C 11.188 16.697,11.613 17.000,12.000 17.000 C 12.237 17.000,12.514 16.880,12.697 16.697 C 13.008 16.386,13.000 16.468,13.000 13.500 C 13.000 10.532,13.008 10.614,12.697 10.303 C 12.418 10.024,12.067 9.942,11.673 10.063 M7.673 13.063 C 7.429 13.138,7.150 13.414,7.064 13.666 C 6.970 13.943,6.970 16.057,7.064 16.334 C 7.188 16.697,7.613 17.000,8.000 17.000 C 8.237 17.000,8.514 16.880,8.697 16.697 C 8.980 16.414,9.000 16.303,9.000 15.000 C 9.000 13.697,8.980 13.586,8.697 13.303 C 8.418 13.024,8.067 12.942,7.673 13.063 " stroke="none" fill-rule="evenodd" fill="black"></path></svg>