<svg width="24" height="24" viewBox="0 0 24 24" fill="none" xmlns="http://www.w3.org/2000/svg"><path d="M5.506 3.042 C 4.382 3.231,3.426 4.084,3.112 5.178 L 3.020 5.500 3.020 12.000 L 3.020 18.500 3.112 18.822 C 3.391 19.796,4.204 20.609,5.178 20.888 L 5.500 20.980 12.000 20.980 L 18.500 20.980 18.822 20.888 C 19.796 20.609,20.609 19.796,20.888 18.822 L 20.980 18.500 20.980 12.000 L 20.980 5.500 20.888 5.178 C 20.570 4.069,19.616 3.227,18.467 3.041 C 18.167 2.992,5.797 2.993,5.506 3.042 M7.009 10.630 L 7.020 16.260 7.120 16.455 C 7.242 16.694,7.435 16.858,7.694 16.945 C 8.072 17.070,8.129 17.049,10.150 16.043 L 12.000 15.121 13.850 16.042 C 15.156 16.692,15.754 16.970,15.884 16.986 C 16.335 17.043,16.812 16.737,16.939 16.310 C 16.992 16.131,17.000 15.407,17.000 10.549 L 17.000 4.993 17.650 5.007 C 18.279 5.020,18.306 5.024,18.492 5.133 C 18.710 5.261,18.901 5.502,18.961 5.722 C 18.987 5.821,18.997 7.997,18.990 12.086 L 18.980 18.300 18.869 18.489 C 18.744 18.702,18.551 18.864,18.330 18.943 C 18.108 19.022,5.892 19.022,5.670 18.943 C 5.449 18.864,5.256 18.702,5.131 18.489 L 5.020 18.300 5.020 12.000 L 5.020 5.700 5.131 5.511 C 5.256 5.298,5.449 5.136,5.670 5.057 C 5.768 5.022,6.023 5.003,6.409 5.002 L 6.999 5.000 7.009 10.630 M15.000 9.680 C 15.000 12.254,14.992 14.360,14.981 14.360 C 14.971 14.360,14.359 14.059,13.622 13.692 L 12.281 13.024 12.000 13.024 L 11.719 13.024 10.378 13.692 C 9.641 14.059,9.029 14.360,9.019 14.360 C 9.008 14.360,9.000 12.254,9.000 9.680 L 9.000 5.000 12.000 5.000 L 15.000 5.000 15.000 9.680 " stroke="none" fill-rule="evenodd" fill="black"></path></svg>