<svg width="24" height="24" viewBox="0 0 24 24" fill="none" xmlns="http://www.w3.org/2000/svg"><path d="M5.378 3.058 C 3.924 3.284,2.686 4.336,2.203 5.755 C 2.002 6.347,2.000 6.400,2.000 12.000 C 2.000 17.600,2.002 17.653,2.203 18.245 C 2.538 19.229,3.261 20.076,4.160 20.536 C 5.020 20.976,5.215 21.000,8.000 21.000 C 10.785 21.000,10.980 20.976,11.840 20.536 C 12.554 20.171,13.171 19.554,13.536 18.840 C 13.892 18.144,13.999 17.615,14.000 16.557 C 14.000 15.741,13.957 15.564,13.697 15.303 C 13.514 15.120,13.237 15.000,13.000 15.000 C 12.764 15.000,12.486 15.121,12.306 15.300 C 12.038 15.568,12.000 15.723,12.000 16.551 C 12.000 17.575,11.889 17.919,11.404 18.404 C 11.118 18.690,10.852 18.847,10.492 18.940 C 10.153 19.029,5.847 19.029,5.508 18.940 C 5.148 18.847,4.882 18.690,4.596 18.404 C 4.310 18.118,4.153 17.852,4.060 17.492 C 3.970 17.148,3.970 6.852,4.060 6.508 C 4.153 6.148,4.310 5.882,4.596 5.596 C 4.882 5.310,5.148 5.153,5.508 5.060 C 5.847 4.971,10.153 4.971,10.492 5.060 C 10.852 5.153,11.118 5.310,11.404 5.596 C 11.887 6.079,11.999 6.429,11.999 7.463 C 12.000 8.275,12.039 8.433,12.306 8.700 C 12.486 8.879,12.764 9.000,13.000 9.000 C 13.402 9.000,13.827 8.688,13.939 8.310 C 14.020 8.039,14.021 6.922,13.942 6.395 C 13.682 4.676,12.326 3.322,10.600 3.058 C 10.094 2.981,5.875 2.981,5.378 3.058 M16.673 7.063 C 16.429 7.138,16.150 7.414,16.064 7.666 C 15.982 7.906,15.983 8.095,16.066 8.343 C 16.124 8.516,16.279 8.688,17.354 9.770 L 18.576 11.000 12.735 11.000 C 6.164 11.000,6.628 10.978,6.306 11.300 C 5.902 11.704,5.902 12.296,6.306 12.700 C 6.628 13.022,6.164 13.000,12.735 13.000 L 18.576 13.000 17.354 14.230 C 16.279 15.312,16.124 15.484,16.066 15.657 C 16.030 15.766,16.000 15.920,16.000 16.000 C 16.000 16.405,16.309 16.826,16.690 16.939 C 16.948 17.016,17.052 17.016,17.323 16.937 C 17.532 16.876,17.617 16.796,19.707 14.707 C 21.796 12.617,21.876 12.532,21.937 12.323 C 21.972 12.203,22.000 12.058,22.000 12.000 C 22.000 11.942,21.972 11.797,21.937 11.677 C 21.876 11.468,21.796 11.383,19.707 9.293 C 17.617 7.204,17.532 7.124,17.323 7.063 C 17.061 6.987,16.920 6.987,16.673 7.063 " stroke="none" fill-rule="evenodd" fill="black"></path></svg>