<svg width="24" height="24" viewBox="0 0 24 24" fill="none" xmlns="http://www.w3.org/2000/svg"><path d="M6.860 4.046 C 4.458 4.311,2.468 6.214,2.076 8.620 C 2.010 9.031,2.010 9.969,2.076 10.380 C 2.220 11.261,2.589 12.113,3.151 12.859 C 3.417 13.212,11.305 21.105,11.520 21.233 C 11.672 21.324,11.746 21.340,12.000 21.340 C 12.254 21.340,12.328 21.324,12.480 21.233 C 12.695 21.105,20.583 13.212,20.849 12.859 C 21.411 12.113,21.780 11.261,21.924 10.380 C 21.990 9.969,21.990 9.031,21.924 8.620 C 21.739 7.488,21.200 6.438,20.381 5.619 C 18.432 3.670,15.331 3.471,13.141 5.154 C 13.008 5.256,12.697 5.536,12.450 5.775 L 12.000 6.211 11.550 5.775 C 11.303 5.536,10.992 5.256,10.859 5.154 C 9.725 4.283,8.297 3.887,6.860 4.046 M8.420 6.115 C 9.170 6.330,9.451 6.527,10.540 7.599 C 11.073 8.124,11.483 8.495,11.580 8.540 C 11.795 8.641,12.205 8.641,12.420 8.540 C 12.517 8.495,12.927 8.124,13.460 7.599 C 14.558 6.518,14.827 6.330,15.594 6.110 C 16.003 5.992,16.959 5.984,17.360 6.095 C 18.003 6.273,18.555 6.600,19.008 7.071 C 19.459 7.541,19.734 8.022,19.905 8.640 C 20.007 9.007,20.007 9.993,19.905 10.360 C 19.794 10.761,19.621 11.137,19.402 11.452 C 19.265 11.650,18.076 12.866,15.601 15.340 L 12.000 18.940 8.399 15.340 C 4.735 11.677,4.524 11.451,4.297 10.937 C 4.079 10.444,4.022 10.145,4.022 9.500 C 4.022 9.001,4.036 8.848,4.110 8.594 C 4.293 7.955,4.599 7.446,5.071 6.992 C 5.621 6.465,6.188 6.171,6.913 6.038 C 7.232 5.980,8.105 6.024,8.420 6.115 " stroke="none" fill-rule="evenodd" fill="black"></path></svg>