<svg width="24" height="24" viewBox="0 0 24 24" fill="none" xmlns="http://www.w3.org/2000/svg"><path d="M11.660 5.066 C 11.473 5.122,11.282 5.304,8.793 7.793 C 6.210 10.377,6.125 10.467,6.063 10.677 C 5.984 10.948,5.984 11.052,6.061 11.310 C 6.144 11.589,6.411 11.856,6.690 11.939 C 6.949 12.016,7.053 12.016,7.323 11.936 C 7.530 11.875,7.616 11.797,9.270 10.148 L 11.000 8.423 11.000 13.284 C 11.000 18.757,10.978 18.372,11.306 18.700 C 11.486 18.879,11.764 19.000,12.000 19.000 C 12.402 19.000,12.827 18.688,12.939 18.310 C 12.992 18.132,13.000 17.482,13.000 13.264 L 13.000 8.423 14.730 10.148 C 16.384 11.797,16.470 11.875,16.677 11.936 C 16.947 12.016,17.051 12.016,17.310 11.939 C 17.589 11.856,17.856 11.589,17.939 11.310 C 18.016 11.052,18.016 10.948,17.937 10.677 C 17.875 10.467,17.790 10.377,15.207 7.793 C 12.623 5.210,12.533 5.125,12.323 5.063 C 12.059 4.987,11.922 4.987,11.660 5.066 " stroke="none" fill-rule="evenodd" fill="black"></path></svg>