<svg width="24" height="24" viewBox="0 0 24 24" fill="none" xmlns="http://www.w3.org/2000/svg"><path d="M11.580 2.023 C 11.015 2.102,10.810 2.144,10.480 2.248 C 8.867 2.756,7.581 4.117,7.162 5.760 C 7.031 6.272,7.000 6.782,7.000 8.418 L 7.000 10.000 6.390 10.000 C 5.480 10.001,5.005 10.101,4.519 10.394 C 3.819 10.818,3.321 11.448,3.112 12.178 L 3.020 12.500 3.020 16.000 L 3.020 19.500 3.112 19.822 C 3.391 20.796,4.204 21.609,5.178 21.888 L 5.500 21.980 12.000 21.980 L 18.500 21.980 18.822 21.888 C 19.796 21.609,20.609 20.796,20.888 19.822 L 20.980 19.500 20.980 16.000 L 20.980 12.500 20.888 12.178 C 20.570 11.069,19.616 10.227,18.467 10.041 C 18.312 10.016,16.498 10.000,13.607 10.000 L 8.995 10.000 9.009 8.210 C 9.023 6.467,9.026 6.413,9.116 6.140 C 9.441 5.155,10.184 4.418,11.160 4.114 C 11.594 3.979,12.406 3.979,12.840 4.114 C 14.057 4.493,14.908 5.550,14.985 6.777 C 15.015 7.273,15.088 7.482,15.306 7.699 C 15.486 7.880,15.764 8.000,16.000 8.000 C 16.414 8.000,16.829 7.687,16.946 7.287 C 17.063 6.885,16.926 5.875,16.663 5.207 C 16.033 3.604,14.610 2.415,12.945 2.099 C 12.620 2.038,11.802 1.992,11.580 2.023 M18.330 12.057 C 18.551 12.136,18.744 12.298,18.869 12.511 L 18.980 12.700 18.980 16.000 L 18.980 19.300 18.869 19.489 C 18.744 19.702,18.551 19.864,18.330 19.943 C 18.108 20.022,5.892 20.022,5.670 19.943 C 5.449 19.864,5.256 19.702,5.131 19.489 L 5.020 19.300 5.020 16.000 L 5.020 12.700 5.131 12.511 C 5.256 12.298,5.449 12.136,5.670 12.057 C 5.892 11.978,18.108 11.978,18.330 12.057 M11.673 14.063 C 11.412 14.143,11.140 14.421,11.061 14.690 C 10.970 14.996,10.972 17.065,11.064 17.334 C 11.188 17.697,11.613 18.000,12.000 18.000 C 12.237 18.000,12.514 17.880,12.697 17.697 C 12.980 17.414,13.000 17.303,13.000 16.000 C 13.000 14.697,12.980 14.586,12.697 14.303 C 12.418 14.024,12.067 13.942,11.673 14.063 " stroke="none" fill-rule="evenodd" fill="black"></path></svg>