<svg width="24" height="24" viewBox="0 0 24 24" fill="none" xmlns="http://www.w3.org/2000/svg"><path d="M11.100 2.041 C 9.341 2.219,7.729 2.802,6.335 3.767 C 3.070 6.025,1.454 9.944,2.178 13.846 C 2.468 15.412,3.137 16.886,4.154 18.200 C 4.493 18.637,5.363 19.507,5.800 19.846 C 8.241 21.735,11.253 22.412,14.240 21.741 C 17.932 20.912,20.910 17.933,21.741 14.240 C 21.929 13.402,21.977 12.954,21.977 12.000 C 21.977 11.046,21.929 10.598,21.741 9.760 C 21.274 7.685,20.065 5.706,18.437 4.354 C 16.934 3.106,15.158 2.329,13.240 2.080 C 12.775 2.019,11.539 1.997,11.100 2.041 M12.832 4.042 C 14.361 4.210,15.851 4.828,17.040 5.789 C 17.394 6.075,18.067 6.761,18.326 7.100 C 18.653 7.529,18.958 8.027,19.200 8.529 C 20.264 10.732,20.265 13.267,19.202 15.468 C 18.920 16.053,18.616 16.535,18.548 16.507 C 18.522 16.496,18.293 16.393,18.040 16.278 C 16.650 15.649,15.114 15.246,13.460 15.076 C 12.842 15.013,11.158 15.013,10.540 15.076 C 8.928 15.242,7.385 15.641,6.040 16.240 C 5.831 16.334,5.601 16.435,5.530 16.466 L 5.399 16.521 5.216 16.239 C 5.116 16.083,4.927 15.736,4.798 15.468 C 3.480 12.740,3.816 9.533,5.674 7.100 C 5.933 6.761,6.606 6.075,6.960 5.789 C 8.129 4.844,9.640 4.211,11.120 4.044 C 11.560 3.995,12.387 3.994,12.832 4.042 M11.378 6.058 C 10.145 6.250,9.030 7.054,8.464 8.160 C 8.233 8.611,8.129 8.930,8.058 9.395 C 7.986 9.879,7.986 10.121,8.058 10.605 C 8.247 11.855,9.042 12.964,10.160 13.536 C 10.347 13.632,10.615 13.749,10.755 13.797 C 11.050 13.897,11.680 14.000,12.000 14.000 C 12.320 14.000,12.950 13.897,13.245 13.797 C 14.229 13.462,15.076 12.739,15.536 11.840 C 15.767 11.389,15.871 11.070,15.942 10.605 C 16.014 10.121,16.014 9.879,15.942 9.395 C 15.614 7.220,13.561 5.719,11.378 6.058 M12.492 8.060 C 12.852 8.153,13.118 8.310,13.404 8.596 C 13.700 8.891,13.852 9.157,13.940 9.529 C 14.106 10.236,13.920 10.889,13.404 11.404 C 13.001 11.807,12.546 12.000,12.000 12.000 C 11.454 12.000,10.999 11.807,10.596 11.404 C 10.193 11.001,10.000 10.546,10.000 10.000 C 10.000 9.454,10.193 8.999,10.596 8.596 C 11.000 8.191,11.429 8.008,11.982 8.003 C 12.136 8.001,12.366 8.027,12.492 8.060 M13.220 17.060 C 14.478 17.184,15.550 17.433,16.600 17.843 C 16.831 17.933,17.052 18.016,17.090 18.028 C 17.196 18.060,17.177 18.098,16.970 18.271 C 16.392 18.753,15.393 19.294,14.560 19.574 C 12.868 20.145,11.132 20.145,9.440 19.574 C 8.607 19.294,7.608 18.753,7.030 18.271 C 6.823 18.098,6.804 18.060,6.910 18.028 C 6.949 18.016,7.169 17.933,7.400 17.843 C 9.166 17.153,11.287 16.868,13.220 17.060 " stroke="none" fill-rule="evenodd" fill="black"></path></svg>