<svg width="24" height="24" viewBox="0 0 24 24" fill="none" xmlns="http://www.w3.org/2000/svg"><path d="M10.558 3.055 C 10.024 3.170,10.041 3.155,7.519 5.668 L 5.178 8.000 4.499 8.001 C 3.731 8.001,3.389 8.056,3.071 8.228 C 2.787 8.382,2.448 8.706,2.281 8.983 C 2.008 9.436,2.005 9.476,2.005 12.000 C 2.005 14.524,2.008 14.564,2.281 15.017 C 2.448 15.294,2.787 15.618,3.071 15.772 C 3.389 15.944,3.731 15.999,4.499 15.999 L 5.178 16.000 7.519 18.335 C 9.669 20.480,9.881 20.680,10.120 20.791 C 10.754 21.085,11.332 21.067,11.967 20.734 C 12.469 20.470,12.867 19.919,12.957 19.360 C 13.017 18.992,13.016 4.945,12.957 4.617 C 12.851 4.035,12.447 3.506,11.905 3.239 C 11.426 3.004,11.040 2.951,10.558 3.055 M18.010 4.704 C 17.607 4.853,17.317 5.335,17.380 5.753 C 17.420 6.023,17.519 6.189,17.860 6.560 C 18.438 7.190,18.836 7.774,19.200 8.529 C 20.635 11.499,20.110 14.989,17.860 17.440 C 17.468 17.867,17.387 18.025,17.384 18.360 C 17.382 18.660,17.462 18.859,17.668 19.065 C 17.886 19.283,18.025 19.338,18.360 19.339 C 18.734 19.340,18.913 19.246,19.279 18.855 C 22.430 15.486,22.886 10.428,20.387 6.563 C 19.911 5.825,19.166 4.957,18.852 4.773 C 18.630 4.643,18.258 4.613,18.010 4.704 M11.000 12.010 L 11.000 19.020 8.570 16.594 C 7.233 15.259,6.077 14.134,6.000 14.094 C 5.878 14.029,5.741 14.018,4.930 14.007 L 4.000 13.995 4.000 12.000 L 4.000 10.005 4.930 9.993 C 5.797 9.981,5.871 9.974,6.020 9.893 C 6.110 9.843,7.228 8.756,8.580 7.403 C 9.900 6.081,10.984 5.000,10.990 5.000 C 10.995 5.000,11.000 8.154,11.000 12.010 M15.170 7.540 C 14.773 7.712,14.560 8.036,14.560 8.466 C 14.560 8.803,14.620 8.925,14.995 9.360 C 15.670 10.141,15.980 10.973,15.980 12.000 C 15.980 13.036,15.652 13.898,14.960 14.681 C 14.626 15.060,14.560 15.202,14.560 15.541 C 14.560 15.789,14.576 15.850,14.690 16.040 C 14.869 16.338,15.120 16.491,15.466 16.513 C 15.835 16.537,16.023 16.453,16.338 16.126 C 17.519 14.903,18.115 13.201,17.964 11.490 C 17.879 10.530,17.618 9.721,17.128 8.900 C 16.785 8.325,16.216 7.682,15.940 7.555 C 15.747 7.467,15.356 7.459,15.170 7.540 " stroke="none" fill-rule="evenodd" fill="black"></path></svg>