<svg width="24" height="24" viewBox="0 0 24 24" fill="none" xmlns="http://www.w3.org/2000/svg"><path d="M2.643 2.069 C 2.112 2.256,1.857 2.918,2.113 3.444 C 2.176 3.573,4.616 6.037,11.329 12.745 C 19.770 21.181,20.475 21.875,20.657 21.935 C 21.047 22.063,21.423 21.979,21.701 21.701 C 21.980 21.423,22.064 21.046,21.934 20.657 C 21.877 20.485,21.735 20.326,20.809 19.393 L 19.750 18.327 19.929 18.093 C 20.523 17.319,21.128 16.203,21.434 15.315 C 21.632 14.741,21.814 14.005,21.907 13.400 C 22.006 12.756,22.006 11.244,21.907 10.600 C 21.632 8.815,20.912 7.144,19.831 5.787 C 19.426 5.278,19.048 4.888,18.845 4.769 C 18.688 4.677,18.615 4.660,18.360 4.660 C 18.104 4.660,18.032 4.676,17.871 4.771 C 17.651 4.900,17.506 5.077,17.421 5.318 C 17.277 5.724,17.374 6.033,17.781 6.476 C 18.971 7.768,19.648 9.151,19.908 10.820 C 20.001 11.418,20.001 12.582,19.908 13.180 C 19.721 14.379,19.311 15.436,18.636 16.458 C 18.483 16.690,18.344 16.880,18.328 16.880 C 18.294 16.880,16.920 15.510,16.920 15.476 C 16.920 15.463,17.016 15.292,17.134 15.096 C 17.505 14.481,17.745 13.856,17.908 13.080 C 18.008 12.601,18.008 11.399,17.908 10.920 C 17.649 9.691,17.117 8.656,16.330 7.855 C 16.031 7.551,15.827 7.464,15.466 7.487 C 15.001 7.516,14.647 7.827,14.556 8.285 C 14.488 8.627,14.574 8.874,14.884 9.223 C 15.378 9.781,15.727 10.421,15.887 11.062 C 16.013 11.569,16.013 12.429,15.888 12.933 C 15.807 13.260,15.499 14.000,15.445 14.000 C 15.431 14.000,15.085 13.665,14.676 13.256 L 13.930 12.511 13.964 12.366 C 14.152 11.560,13.655 10.578,12.872 10.205 C 12.532 10.043,12.076 9.972,11.740 10.027 L 11.500 10.066 7.520 6.098 C 3.877 2.465,3.523 2.124,3.343 2.065 C 3.101 1.985,2.876 1.987,2.643 2.069 M3.149 8.182 C 2.881 8.268,2.633 8.520,2.522 8.820 C 2.387 9.184,2.179 10.042,2.096 10.580 C 1.993 11.246,1.991 12.745,2.093 13.400 C 2.414 15.475,3.314 17.353,4.694 18.824 C 5.116 19.274,5.322 19.380,5.707 19.350 C 6.127 19.316,6.440 19.076,6.579 18.682 C 6.727 18.262,6.630 17.970,6.176 17.478 C 5.562 16.812,5.207 16.295,4.817 15.500 C 3.921 13.674,3.766 11.576,4.378 9.563 C 4.501 9.157,4.504 9.066,4.400 8.790 C 4.316 8.565,4.108 8.333,3.893 8.225 C 3.704 8.130,3.372 8.111,3.149 8.182 M6.595 11.832 C 6.326 11.972,6.141 12.210,6.077 12.499 C 6.035 12.686,6.038 12.773,6.095 13.070 C 6.286 14.054,6.694 14.960,7.273 15.687 C 7.806 16.356,8.038 16.518,8.460 16.518 C 9.111 16.518,9.573 15.956,9.438 15.328 C 9.393 15.118,9.338 15.033,8.960 14.587 C 8.543 14.096,8.227 13.460,8.101 12.860 C 7.981 12.290,7.931 12.178,7.714 11.982 C 7.387 11.688,6.976 11.633,6.595 11.832 " fill="#1E1E1E" stroke="none" fill-rule="evenodd"></path></svg>