<svg width="24" height="24" viewBox="0 0 24 24" fill="none" xmlns="http://www.w3.org/2000/svg"><path d="M10.558 3.055 C 10.024 3.170,10.041 3.155,7.519 5.668 L 5.178 8.000 4.499 8.001 C 3.731 8.001,3.389 8.056,3.071 8.228 C 2.787 8.382,2.448 8.706,2.281 8.983 C 2.008 9.436,2.005 9.476,2.005 12.000 C 2.005 14.524,2.008 14.564,2.281 15.017 C 2.448 15.294,2.787 15.618,3.071 15.772 C 3.389 15.944,3.731 15.999,4.499 15.999 L 5.178 16.000 7.519 18.335 C 9.669 20.480,9.881 20.680,10.120 20.791 C 10.754 21.085,11.332 21.067,11.967 20.734 C 12.469 20.470,12.867 19.919,12.957 19.360 C 13.017 18.992,13.016 4.945,12.957 4.617 C 12.851 4.035,12.447 3.506,11.905 3.239 C 11.426 3.004,11.040 2.951,10.558 3.055 M11.000 12.010 L 11.000 19.020 8.570 16.594 C 7.233 15.259,6.077 14.134,6.000 14.094 C 5.878 14.029,5.741 14.018,4.930 14.007 L 4.000 13.995 4.000 12.000 L 4.000 10.005 4.930 9.993 C 5.797 9.981,5.871 9.974,6.020 9.893 C 6.110 9.843,7.228 8.756,8.580 7.403 C 9.900 6.081,10.984 5.000,10.990 5.000 C 10.995 5.000,11.000 8.154,11.000 12.010 M16.673 9.063 C 16.310 9.175,16.000 9.606,16.000 10.000 C 16.000 10.362,16.090 10.496,16.854 11.270 L 17.574 12.000 16.854 12.730 C 16.090 13.504,16.000 13.638,16.000 14.000 C 16.000 14.405,16.309 14.826,16.690 14.939 C 16.948 15.016,17.053 15.016,17.320 14.936 C 17.515 14.878,17.603 14.805,18.267 14.149 L 19.000 13.426 19.733 14.149 C 20.397 14.805,20.485 14.878,20.680 14.936 C 20.947 15.016,21.052 15.016,21.310 14.939 C 21.589 14.856,21.856 14.589,21.939 14.310 C 22.016 14.052,22.016 13.947,21.936 13.680 C 21.878 13.485,21.805 13.397,21.149 12.733 L 20.426 12.000 21.149 11.267 C 21.805 10.603,21.878 10.515,21.936 10.320 C 22.016 10.053,22.016 9.948,21.939 9.690 C 21.856 9.411,21.589 9.144,21.310 9.061 C 21.052 8.984,20.947 8.984,20.680 9.064 C 20.485 9.122,20.397 9.195,19.733 9.851 L 19.000 10.574 18.267 9.851 C 17.603 9.195,17.515 9.122,17.320 9.064 C 17.062 8.987,16.921 8.987,16.673 9.063 " stroke="none" fill-rule="evenodd" fill="black"></path></svg>