<svg width="24" height="24" viewBox="0 0 24 24" fill="none" xmlns="http://www.w3.org/2000/svg"><path d="M6.506 2.042 C 5.393 2.229,4.445 3.067,4.113 4.157 L 4.021 4.460 4.010 12.230 L 3.999 20.000 3.447 20.000 C 2.753 20.000,2.554 20.052,2.306 20.300 C 1.902 20.704,1.902 21.296,2.306 21.700 C 2.633 22.026,1.783 22.000,12.000 22.000 C 20.035 22.000,21.130 21.993,21.310 21.939 C 21.688 21.827,22.000 21.402,22.000 21.000 C 22.000 20.763,21.880 20.486,21.697 20.303 C 21.446 20.052,21.249 20.000,20.553 20.000 L 20.001 20.000 19.990 12.230 L 19.979 4.460 19.887 4.157 C 19.551 3.052,18.605 2.225,17.467 2.041 C 17.168 1.992,6.796 1.993,6.506 2.042 M17.489 4.131 C 17.702 4.256,17.864 4.449,17.943 4.670 C 17.987 4.793,17.997 6.174,17.998 12.410 L 18.000 20.000 16.500 20.000 L 15.000 20.000 14.999 17.910 C 14.999 15.629,14.986 15.469,14.772 15.069 C 14.711 14.954,14.544 14.743,14.401 14.599 C 14.092 14.291,13.822 14.137,13.451 14.059 C 13.067 13.977,10.933 13.977,10.549 14.059 C 9.860 14.205,9.253 14.788,9.073 15.477 C 9.013 15.709,9.004 15.990,9.002 17.870 L 9.000 20.000 7.500 20.000 L 5.999 20.000 6.010 12.350 L 6.020 4.700 6.131 4.511 C 6.256 4.298,6.448 4.136,6.670 4.057 C 6.793 4.012,7.752 4.004,12.060 4.011 L 17.300 4.020 17.489 4.131 M8.673 6.063 C 8.310 6.175,8.000 6.606,8.000 7.000 C 8.000 7.405,8.309 7.826,8.690 7.939 C 8.974 8.024,10.026 8.024,10.310 7.939 C 10.688 7.827,11.000 7.402,11.000 7.000 C 11.000 6.598,10.688 6.173,10.310 6.061 C 10.035 5.979,8.941 5.981,8.673 6.063 M13.673 6.063 C 13.310 6.175,13.000 6.606,13.000 7.000 C 13.000 7.405,13.309 7.826,13.690 7.939 C 13.974 8.024,15.026 8.024,15.310 7.939 C 15.688 7.827,16.000 7.402,16.000 7.000 C 16.000 6.598,15.688 6.173,15.310 6.061 C 15.035 5.979,13.941 5.981,13.673 6.063 M8.673 10.063 C 8.310 10.175,8.000 10.606,8.000 11.000 C 8.000 11.405,8.309 11.826,8.690 11.939 C 8.974 12.024,10.026 12.024,10.310 11.939 C 10.688 11.827,11.000 11.402,11.000 11.000 C 11.000 10.598,10.688 10.173,10.310 10.061 C 10.035 9.979,8.941 9.981,8.673 10.063 M13.673 10.063 C 13.310 10.175,13.000 10.606,13.000 11.000 C 13.000 11.405,13.309 11.826,13.690 11.939 C 13.974 12.024,15.026 12.024,15.310 11.939 C 15.688 11.827,16.000 11.402,16.000 11.000 C 16.000 10.598,15.688 10.173,15.310 10.061 C 15.035 9.979,13.941 9.981,13.673 10.063 M13.000 18.000 L 13.000 20.000 12.000 20.000 L 11.000 20.000 11.000 18.000 L 11.000 16.000 12.000 16.000 L 13.000 16.000 13.000 18.000 " stroke="none" fill-rule="evenodd" fill="black"></path></svg>