<svg width="24" height="24" viewBox="0 0 24 24" fill="none" xmlns="http://www.w3.org/2000/svg"><path d="M6.506 2.041 C 5.388 2.233,4.444 3.068,4.113 4.157 L 4.022 4.460 4.010 10.297 C 3.997 16.872,3.973 16.367,4.306 16.699 C 4.486 16.880,4.764 17.000,5.000 17.000 C 5.402 17.000,5.827 16.688,5.939 16.310 C 5.992 16.131,6.000 15.394,6.002 10.463 C 6.003 5.853,6.013 4.793,6.057 4.670 C 6.136 4.449,6.298 4.256,6.511 4.131 L 6.700 4.020 9.639 4.009 L 12.578 3.998 15.289 6.709 L 18.000 9.420 17.998 14.300 C 17.997 18.272,17.987 19.208,17.943 19.330 C 17.864 19.551,17.702 19.744,17.489 19.869 L 17.300 19.980 13.520 20.000 C 9.288 20.022,9.596 19.999,9.287 20.318 C 8.902 20.714,8.911 21.305,9.307 21.701 C 9.625 22.019,9.402 22.004,13.725 21.991 L 17.540 21.979 17.861 21.878 C 18.822 21.575,19.575 20.823,19.879 19.861 L 19.980 19.540 19.992 14.420 C 20.000 10.847,19.990 9.223,19.960 9.045 C 19.936 8.905,19.859 8.671,19.790 8.525 C 19.675 8.281,19.443 8.037,16.802 5.387 C 15.228 3.806,13.841 2.445,13.720 2.363 C 13.599 2.280,13.392 2.169,13.260 2.116 L 13.020 2.020 9.860 2.014 C 8.122 2.011,6.613 2.023,6.506 2.041 M11.378 10.058 C 9.924 10.284,8.686 11.336,8.203 12.755 C 8.103 13.050,8.000 13.680,8.000 14.000 C 8.000 14.565,8.172 15.273,8.431 15.780 L 8.554 16.020 6.342 18.240 C 4.346 20.244,4.124 20.479,4.065 20.657 C 4.029 20.766,4.000 20.920,4.000 21.000 C 4.000 21.405,4.309 21.826,4.690 21.939 C 4.948 22.016,5.053 22.016,5.323 21.936 C 5.532 21.875,5.622 21.791,7.760 19.659 L 9.980 17.446 10.220 17.569 C 10.586 17.756,10.967 17.877,11.394 17.941 C 11.879 18.014,12.121 18.015,12.605 17.942 C 13.855 17.753,14.964 16.958,15.536 15.840 C 15.767 15.389,15.871 15.070,15.942 14.605 C 16.014 14.121,16.014 13.879,15.942 13.395 C 15.614 11.220,13.561 9.719,11.378 10.058 M12.492 12.060 C 13.215 12.248,13.825 12.886,13.959 13.596 C 14.091 14.289,13.901 14.907,13.404 15.404 C 13.001 15.807,12.546 16.000,12.000 16.000 C 11.454 16.000,10.999 15.807,10.596 15.404 C 10.193 15.001,10.000 14.546,10.000 14.000 C 10.000 13.454,10.193 12.999,10.596 12.596 C 11.000 12.191,11.429 12.008,11.982 12.003 C 12.136 12.001,12.366 12.027,12.492 12.060 " stroke="none" fill-rule="evenodd" fill="black"></path></svg>