<svg width="24" height="24" viewBox="0 0 24 24" fill="none" xmlns="http://www.w3.org/2000/svg"><path d="M2.664 3.063 C 2.436 3.146,2.257 3.297,2.131 3.511 C 2.036 3.673,2.020 3.744,2.020 4.003 C 2.020 4.271,2.034 4.329,2.141 4.502 C 2.290 4.743,2.514 4.904,2.790 4.969 L 3.000 5.019 3.000 10.607 C 3.000 14.533,3.013 16.259,3.044 16.408 C 3.201 17.158,3.842 17.799,4.592 17.956 C 4.733 17.985,5.603 18.000,7.191 18.000 L 9.577 18.000 8.354 19.230 C 7.276 20.315,7.123 20.483,7.066 20.657 C 6.936 21.046,7.021 21.423,7.299 21.701 C 7.577 21.979,7.954 22.064,8.343 21.935 C 8.520 21.876,8.719 21.691,10.270 20.146 L 12.000 18.422 13.730 20.146 C 15.281 21.691,15.480 21.876,15.657 21.935 C 16.046 22.064,16.423 21.979,16.701 21.701 C 16.979 21.423,17.064 21.046,16.934 20.657 C 16.877 20.483,16.724 20.315,15.646 19.230 L 14.423 18.000 16.809 18.000 C 18.397 18.000,19.267 17.985,19.408 17.956 C 20.158 17.799,20.799 17.158,20.956 16.408 C 20.987 16.259,21.000 14.530,21.000 10.598 C 21.000 5.209,21.003 5.000,21.073 5.000 C 21.246 5.000,21.544 4.858,21.701 4.701 C 22.092 4.310,22.092 3.690,21.701 3.299 C 21.375 2.972,22.267 3.000,11.983 3.003 C 4.135 3.005,2.798 3.014,2.664 3.063 M19.000 10.500 L 19.000 16.000 12.000 16.000 L 5.000 16.000 5.000 10.500 L 5.000 5.000 12.000 5.000 L 19.000 5.000 19.000 10.500 M16.640 7.068 C 16.487 7.121,16.198 7.391,14.730 8.854 L 13.000 10.577 11.770 9.354 C 10.639 8.229,10.523 8.125,10.326 8.060 C 10.066 7.976,9.801 7.994,9.556 8.112 C 9.432 8.172,8.896 8.684,7.755 9.829 C 6.302 11.288,6.124 11.481,6.065 11.657 C 5.936 12.046,6.021 12.423,6.299 12.701 C 6.577 12.979,6.954 13.064,7.343 12.934 C 7.517 12.877,7.685 12.724,8.770 11.646 L 10.000 10.423 11.230 11.646 C 12.361 12.771,12.477 12.875,12.674 12.940 C 12.934 13.024,13.199 13.006,13.444 12.888 C 13.569 12.827,14.234 12.187,15.745 10.671 C 17.664 8.747,17.876 8.521,17.935 8.343 C 18.064 7.953,17.979 7.577,17.701 7.299 C 17.423 7.021,17.027 6.935,16.640 7.068 " fill="#1E1E1E" stroke="none" fill-rule="evenodd"></path></svg>