<svg width="24" height="24" viewBox="0 0 24 24" fill="none" xmlns="http://www.w3.org/2000/svg"><path d="M10.660 4.066 C 10.472 4.122,10.235 4.351,6.795 7.793 C 3.439 11.150,3.124 11.477,3.065 11.657 C 2.983 11.906,2.983 12.094,3.065 12.343 C 3.124 12.523,3.439 12.850,6.795 16.207 C 10.365 19.779,10.466 19.875,10.677 19.937 C 10.948 20.016,11.052 20.016,11.310 19.939 C 11.589 19.856,11.856 19.589,11.939 19.310 C 12.016 19.052,12.016 18.948,11.937 18.677 C 11.875 18.466,11.780 18.366,8.647 15.230 L 5.422 12.000 8.647 8.770 C 11.780 5.634,11.875 5.534,11.937 5.323 C 12.016 5.052,12.016 4.948,11.939 4.690 C 11.856 4.411,11.589 4.144,11.310 4.061 C 11.060 3.987,10.920 3.988,10.660 4.066 M18.660 4.066 C 18.472 4.122,18.235 4.351,14.793 7.793 C 11.222 11.365,11.125 11.466,11.063 11.677 C 10.984 11.949,10.984 12.051,11.063 12.323 C 11.125 12.534,11.222 12.635,14.793 16.207 C 18.365 19.778,18.466 19.875,18.677 19.937 C 18.948 20.016,19.052 20.016,19.310 19.939 C 19.589 19.856,19.856 19.589,19.939 19.310 C 20.016 19.052,20.016 18.948,19.937 18.677 C 19.875 18.466,19.780 18.366,16.647 15.230 L 13.422 12.000 16.647 8.770 C 19.780 5.634,19.875 5.534,19.937 5.323 C 20.016 5.052,20.016 4.948,19.939 4.690 C 19.856 4.411,19.589 4.144,19.310 4.061 C 19.060 3.987,18.920 3.988,18.660 4.066 " stroke="none" fill-rule="evenodd" fill="black"></path></svg>