<svg width="24" height="24" viewBox="0 0 24 24" fill="none" xmlns="http://www.w3.org/2000/svg"><path d="M4.506 5.042 C 3.382 5.231,2.426 6.084,2.112 7.178 L 2.020 7.500 2.020 12.000 L 2.020 16.500 2.112 16.822 C 2.391 17.796,3.204 18.609,4.178 18.888 L 4.500 18.980 12.000 18.980 L 19.500 18.980 19.822 18.888 C 20.796 18.609,21.609 17.796,21.888 16.822 L 21.980 16.500 21.980 12.000 L 21.980 7.500 21.888 7.178 C 21.570 6.069,20.616 5.227,19.467 5.041 C 19.167 4.992,4.797 4.993,4.506 5.042 M19.330 7.057 C 19.551 7.136,19.744 7.298,19.869 7.511 C 19.976 7.693,19.980 7.723,19.993 8.350 L 20.007 9.000 12.000 9.000 L 3.993 9.000 4.007 8.350 C 4.020 7.723,4.024 7.693,4.131 7.511 C 4.256 7.298,4.449 7.136,4.670 7.057 C 4.893 6.978,19.107 6.978,19.330 7.057 M11.000 12.000 L 11.000 13.000 7.500 13.000 L 4.000 13.000 4.000 12.000 L 4.000 11.000 7.500 11.000 L 11.000 11.000 11.000 12.000 M20.000 12.000 L 20.000 13.000 16.500 13.000 L 13.000 13.000 13.000 12.000 L 13.000 11.000 16.500 11.000 L 20.000 11.000 20.000 12.000 M11.000 16.000 L 11.000 17.000 7.910 16.998 C 5.433 16.997,4.790 16.986,4.670 16.943 C 4.449 16.864,4.256 16.702,4.131 16.489 C 4.024 16.307,4.020 16.277,4.007 15.650 L 3.993 15.000 7.497 15.000 L 11.000 15.000 11.000 16.000 M19.993 15.650 C 19.980 16.277,19.976 16.307,19.869 16.489 C 19.744 16.702,19.551 16.864,19.330 16.943 C 19.210 16.986,18.567 16.997,16.090 16.998 L 13.000 17.000 13.000 16.000 L 13.000 15.000 16.503 15.000 L 20.007 15.000 19.993 15.650 " stroke="none" fill-rule="evenodd" fill="black"></path></svg>