<svg width="24" height="24" viewBox="0 0 24 24" fill="none" xmlns="http://www.w3.org/2000/svg"><path d="M4.506 4.040 C 3.371 4.240,2.426 5.084,2.112 6.178 L 2.020 6.500 2.020 12.000 L 2.020 17.500 2.112 17.822 C 2.391 18.796,3.204 19.609,4.178 19.888 C 4.488 19.977,4.554 19.980,6.000 19.980 C 7.447 19.980,7.511 19.977,7.820 19.888 C 8.176 19.785,8.572 19.583,8.830 19.373 L 9.000 19.235 9.170 19.373 C 9.428 19.583,9.824 19.785,10.180 19.888 C 10.489 19.977,10.553 19.980,12.000 19.980 C 13.447 19.980,13.511 19.977,13.820 19.888 C 14.176 19.785,14.572 19.583,14.830 19.373 L 15.000 19.235 15.170 19.373 C 15.428 19.583,15.824 19.785,16.180 19.888 C 16.489 19.977,16.553 19.980,18.000 19.980 C 19.446 19.980,19.512 19.977,19.822 19.888 C 20.796 19.609,21.609 18.796,21.888 17.822 L 21.980 17.500 21.980 12.000 L 21.980 6.500 21.888 6.178 C 21.679 5.448,21.181 4.818,20.481 4.394 C 19.900 4.043,19.523 3.989,17.809 4.010 C 16.554 4.025,16.439 4.033,16.160 4.116 C 15.811 4.220,15.505 4.376,15.210 4.600 L 15.000 4.759 14.790 4.600 C 14.488 4.371,14.183 4.218,13.819 4.112 C 13.511 4.023,13.448 4.020,12.000 4.020 C 10.552 4.020,10.489 4.023,10.181 4.112 C 9.817 4.218,9.512 4.371,9.210 4.600 L 9.000 4.759 8.790 4.600 C 8.495 4.377,8.189 4.220,7.840 4.116 C 7.557 4.031,7.461 4.025,6.120 4.016 C 5.339 4.011,4.613 4.022,4.506 4.040 M7.489 6.131 C 7.702 6.256,7.864 6.449,7.943 6.670 C 8.022 6.892,8.022 17.108,7.943 17.330 C 7.864 17.551,7.702 17.744,7.489 17.869 L 7.300 17.980 6.000 17.980 L 4.700 17.980 4.508 17.867 C 4.290 17.739,4.099 17.498,4.039 17.277 C 4.013 17.179,4.002 15.337,4.009 11.914 L 4.020 6.700 4.131 6.511 C 4.192 6.408,4.304 6.275,4.381 6.217 C 4.653 6.009,4.720 6.001,6.060 6.011 L 7.300 6.020 7.489 6.131 M13.489 6.131 C 13.702 6.256,13.864 6.449,13.943 6.670 C 14.022 6.892,14.022 17.108,13.943 17.330 C 13.864 17.551,13.702 17.744,13.489 17.869 L 13.300 17.980 12.000 17.980 L 10.700 17.980 10.508 17.867 C 10.290 17.739,10.099 17.498,10.039 17.277 C 10.013 17.179,10.002 15.337,10.009 11.914 L 10.020 6.700 10.131 6.511 C 10.192 6.408,10.304 6.275,10.381 6.217 C 10.653 6.009,10.720 6.001,12.060 6.011 L 13.300 6.020 13.489 6.131 M19.489 6.131 C 19.702 6.256,19.864 6.449,19.943 6.670 C 20.022 6.892,20.022 17.108,19.943 17.330 C 19.864 17.551,19.702 17.744,19.489 17.869 L 19.300 17.980 18.000 17.980 L 16.700 17.980 16.508 17.867 C 16.290 17.739,16.099 17.498,16.039 17.277 C 16.013 17.179,16.002 15.337,16.009 11.914 L 16.020 6.700 16.131 6.511 C 16.192 6.408,16.304 6.275,16.381 6.217 C 16.653 6.009,16.720 6.001,18.060 6.011 L 19.300 6.020 19.489 6.131 " stroke="none" fill-rule="evenodd" fill="black"></path></svg>