<svg width="24" height="24" viewBox="0 0 24 24" fill="none" xmlns="http://www.w3.org/2000/svg"><path d="M14.660 4.066 C 14.472 4.122,14.235 4.351,10.795 7.793 C 7.439 11.150,7.124 11.477,7.065 11.657 C 6.983 11.906,6.983 12.094,7.065 12.343 C 7.124 12.523,7.439 12.850,10.795 16.207 C 14.365 19.779,14.466 19.875,14.677 19.937 C 14.948 20.016,15.052 20.016,15.310 19.939 C 15.589 19.856,15.856 19.589,15.939 19.310 C 16.016 19.052,16.016 18.948,15.937 18.677 C 15.875 18.466,15.780 18.366,12.647 15.230 L 9.422 12.000 12.647 8.770 C 15.780 5.634,15.875 5.534,15.937 5.323 C 16.016 5.052,16.016 4.948,15.939 4.690 C 15.856 4.411,15.589 4.144,15.310 4.061 C 15.060 3.987,14.920 3.988,14.660 4.066 " stroke="none" fill-rule="evenodd" fill="black"></path></svg>