<svg width="24" height="24" viewBox="0 0 24 24" fill="none" xmlns="http://www.w3.org/2000/svg"><path d="M10.506 2.042 C 9.572 2.199,8.752 2.807,8.313 3.670 L 8.145 4.000 7.463 4.000 C 6.476 4.001,6.016 4.094,5.519 4.394 C 4.819 4.818,4.321 5.448,4.112 6.178 L 4.020 6.500 4.020 13.000 L 4.020 19.500 4.112 19.822 C 4.391 20.796,5.204 21.609,6.178 21.888 L 6.500 21.980 12.000 21.980 L 17.500 21.980 17.822 21.888 C 18.796 21.609,19.609 20.796,19.888 19.822 L 19.980 19.500 19.980 13.000 L 19.980 6.500 19.888 6.178 C 19.679 5.448,19.181 4.818,18.481 4.394 C 17.984 4.094,17.524 4.001,16.537 4.000 L 15.855 4.000 15.687 3.670 C 15.241 2.793,14.428 2.197,13.467 2.041 C 13.177 1.994,10.789 1.995,10.506 2.042 M13.503 4.141 C 14.156 4.543,14.156 5.457,13.503 5.859 L 13.306 5.980 12.096 5.992 C 11.335 6.000,10.826 5.989,10.728 5.962 C 10.502 5.901,10.262 5.712,10.133 5.492 C 10.036 5.327,10.020 5.257,10.020 5.000 C 10.020 4.744,10.036 4.672,10.131 4.511 C 10.192 4.408,10.304 4.275,10.381 4.217 C 10.653 4.009,10.720 4.001,12.063 4.011 L 13.306 4.020 13.503 4.141 M8.313 6.330 C 8.695 7.082,9.390 7.662,10.178 7.888 C 10.488 7.977,10.554 7.980,12.000 7.980 C 13.446 7.980,13.512 7.977,13.822 7.888 C 14.611 7.662,15.305 7.082,15.689 6.327 L 15.858 5.994 16.579 6.007 C 17.284 6.020,17.304 6.022,17.489 6.131 C 17.702 6.256,17.864 6.449,17.943 6.670 C 18.022 6.892,18.022 19.108,17.943 19.330 C 17.864 19.551,17.702 19.744,17.489 19.869 L 17.300 19.980 12.000 19.980 L 6.700 19.980 6.508 19.867 C 6.290 19.739,6.099 19.498,6.039 19.278 C 6.013 19.179,6.003 17.003,6.010 12.914 L 6.020 6.700 6.131 6.511 C 6.192 6.408,6.304 6.275,6.381 6.217 C 6.623 6.032,6.768 6.004,7.483 6.002 L 8.145 6.000 8.313 6.330 M8.673 11.063 C 8.310 11.175,8.000 11.606,8.000 12.000 C 8.000 12.415,8.310 12.828,8.710 12.944 C 9.209 13.090,9.693 12.878,9.905 12.422 C 10.160 11.874,9.875 11.230,9.303 11.059 C 9.062 10.987,8.917 10.988,8.673 11.063 M11.673 11.063 C 11.552 11.100,11.421 11.185,11.304 11.303 C 10.903 11.703,10.905 12.298,11.306 12.700 C 11.600 12.993,11.648 13.000,13.500 13.000 C 15.356 13.000,15.400 12.994,15.697 12.697 C 15.880 12.514,16.000 12.237,16.000 12.000 C 16.000 11.598,15.688 11.173,15.310 11.061 C 15.018 10.974,11.956 10.976,11.673 11.063 M8.673 15.063 C 8.310 15.175,8.000 15.606,8.000 16.000 C 8.000 16.415,8.310 16.828,8.710 16.944 C 9.209 17.090,9.693 16.878,9.905 16.422 C 10.160 15.874,9.875 15.230,9.303 15.059 C 9.062 14.987,8.917 14.988,8.673 15.063 M11.673 15.063 C 11.552 15.100,11.421 15.185,11.304 15.303 C 10.903 15.703,10.905 16.298,11.306 16.700 C 11.600 16.993,11.648 17.000,13.500 17.000 C 15.356 17.000,15.400 16.994,15.697 16.697 C 15.880 16.514,16.000 16.237,16.000 16.000 C 16.000 15.598,15.688 15.173,15.310 15.061 C 15.018 14.974,11.956 14.976,11.673 15.063 " stroke="none" fill-rule="evenodd" fill="black"></path></svg>