<svg width="24" height="24" viewBox="0 0 24 24" fill="none" xmlns="http://www.w3.org/2000/svg"><path d="M5.673 4.060 C 5.307 4.178,5.000 4.608,5.000 5.000 C 5.000 5.409,5.313 5.832,5.693 5.936 C 5.807 5.967,6.177 6.004,6.516 6.016 C 8.380 6.088,10.306 6.640,11.934 7.570 C 15.530 9.626,17.835 13.413,17.984 17.508 C 17.998 17.893,18.030 18.214,18.067 18.330 C 18.181 18.693,18.609 19.000,19.000 19.000 C 19.414 19.000,19.829 18.687,19.945 18.288 C 20.000 18.100,20.006 17.960,19.983 17.461 C 19.864 14.901,19.159 12.637,17.810 10.489 C 16.901 9.041,15.520 7.590,14.080 6.572 C 12.459 5.426,10.534 4.611,8.580 4.244 C 7.520 4.045,6.015 3.950,5.673 4.060 M5.673 10.060 C 5.557 10.098,5.418 10.189,5.307 10.299 C 4.902 10.705,4.902 11.295,5.307 11.701 C 5.527 11.921,5.733 11.984,6.333 12.016 C 9.370 12.180,11.832 14.652,11.985 17.691 C 11.997 17.938,12.034 18.226,12.067 18.330 C 12.181 18.693,12.609 19.000,13.000 19.000 C 13.402 19.000,13.827 18.688,13.939 18.310 C 14.011 18.069,14.015 17.857,13.959 17.260 C 13.617 13.612,10.821 10.643,7.218 10.100 C 6.591 10.006,5.896 9.988,5.673 10.060 M5.530 16.061 C 4.859 16.206,4.251 16.798,4.073 17.477 C 3.707 18.881,4.879 20.186,6.310 19.967 C 6.743 19.901,7.079 19.727,7.403 19.403 C 7.873 18.934,8.067 18.343,7.967 17.690 C 7.900 17.256,7.727 16.920,7.403 16.599 C 7.091 16.291,6.821 16.137,6.451 16.059 C 6.120 15.989,5.859 15.989,5.530 16.061 " stroke="none" fill-rule="evenodd" fill="black"></path></svg>