<svg width="24" height="24" viewBox="0 0 24 24" fill="none" xmlns="http://www.w3.org/2000/svg"><path d="M11.613 2.472 C 11.240 2.605,10.996 2.853,10.862 3.235 C 10.808 3.389,10.800 3.976,10.800 8.053 L 10.800 12.696 9.930 11.834 C 8.951 10.864,8.884 10.820,8.380 10.820 C 7.548 10.820,6.994 11.634,7.285 12.428 C 7.364 12.646,7.489 12.780,9.315 14.612 C 11.445 16.749,11.462 16.763,11.938 16.792 C 12.117 16.803,12.242 16.784,12.420 16.719 C 12.648 16.635,12.757 16.534,14.612 14.685 C 16.749 12.555,16.763 12.538,16.792 12.062 C 16.821 11.592,16.558 11.143,16.129 10.932 C 15.944 10.842,15.846 10.820,15.620 10.820 C 15.116 10.820,15.049 10.864,14.070 11.834 L 13.200 12.696 13.200 8.050 C 13.200 3.495,13.198 3.399,13.120 3.188 C 12.894 2.584,12.210 2.258,11.613 2.472 M4.413 19.274 C 4.042 19.402,3.796 19.651,3.662 20.035 C 3.460 20.609,3.791 21.296,4.374 21.514 L 4.603 21.600 12.000 21.600 L 19.397 21.600 19.626 21.514 C 19.775 21.459,19.921 21.363,20.042 21.242 C 20.621 20.662,20.462 19.693,19.729 19.332 L 19.500 19.220 12.060 19.211 C 4.999 19.203,4.609 19.206,4.413 19.274 " fill="#1E1E1E" stroke="none" fill-rule="evenodd"></path></svg>