<svg width="24" height="24" viewBox="0 0 24 24" fill="none" xmlns="http://www.w3.org/2000/svg"><path d="M11.320 2.423 C 11.243 2.432,11.013 2.459,10.808 2.483 C 8.508 2.751,6.197 3.988,4.729 5.739 C 3.496 7.208,2.782 8.773,2.493 10.640 C 2.394 11.282,2.394 12.718,2.493 13.360 C 3.154 17.630,6.370 20.846,10.640 21.507 C 11.282 21.606,12.718 21.606,13.360 21.507 C 15.173 21.226,16.839 20.473,18.220 19.308 C 19.737 18.029,20.852 16.214,21.333 14.240 C 21.526 13.450,21.578 12.972,21.578 12.000 C 21.578 11.336,21.560 10.979,21.507 10.640 C 21.039 7.618,19.289 5.083,16.658 3.615 C 15.639 3.046,14.573 2.686,13.360 2.501 C 12.960 2.440,11.616 2.389,11.320 2.423 M12.340 6.266 C 12.593 6.353,12.847 6.607,12.934 6.860 C 12.992 7.032,13.000 7.316,13.000 9.316 L 13.000 11.578 14.637 13.219 C 16.245 14.832,16.274 14.864,16.341 15.094 C 16.482 15.584,16.278 16.052,15.821 16.292 C 15.594 16.411,15.202 16.411,14.960 16.291 C 14.832 16.228,14.248 15.669,12.955 14.371 C 11.316 12.726,11.124 12.520,11.065 12.343 C 11.008 12.169,11.000 11.847,11.000 9.600 C 11.000 6.725,10.992 6.806,11.300 6.498 C 11.577 6.220,11.957 6.136,12.340 6.266 " fill="#1E1E1E" stroke="none" fill-rule="evenodd"></path></svg>