<svg width="24" height="24" viewBox="0 0 24 24" fill="none" xmlns="http://www.w3.org/2000/svg"><path d="M11.320 2.423 C 11.243 2.432,11.013 2.459,10.808 2.483 C 8.508 2.751,6.197 3.988,4.729 5.739 C 3.496 7.208,2.782 8.773,2.493 10.640 C 2.394 11.282,2.394 12.718,2.493 13.360 C 3.154 17.630,6.370 20.846,10.640 21.507 C 11.282 21.606,12.718 21.606,13.360 21.507 C 15.173 21.226,16.839 20.473,18.220 19.308 C 19.737 18.029,20.852 16.214,21.333 14.240 C 21.526 13.450,21.578 12.972,21.578 12.000 C 21.578 11.336,21.560 10.979,21.507 10.640 C 21.039 7.618,19.289 5.083,16.658 3.615 C 15.639 3.046,14.573 2.686,13.360 2.501 C 12.960 2.440,11.616 2.389,11.320 2.423 M12.537 6.137 C 12.955 6.341,13.178 6.710,13.179 7.200 C 13.180 7.449,13.161 7.539,13.068 7.729 C 12.798 8.277,12.158 8.533,11.588 8.320 C 10.871 8.051,10.587 7.197,10.999 6.548 C 11.318 6.045,11.985 5.867,12.537 6.137 M12.482 10.904 C 12.748 11.027,12.942 11.215,13.068 11.473 L 13.180 11.700 13.191 13.642 L 13.203 15.585 13.433 15.632 C 14.607 15.875,14.733 17.500,13.612 17.920 C 13.423 17.990,13.300 18.000,12.600 18.000 C 11.900 18.000,11.777 17.990,11.588 17.920 C 11.297 17.811,11.067 17.604,10.932 17.329 L 10.820 17.100 10.809 15.150 L 10.797 13.200 10.700 13.200 C 10.534 13.200,10.181 13.046,10.009 12.899 C 9.463 12.431,9.489 11.493,10.059 11.058 C 10.359 10.829,10.532 10.799,11.460 10.810 C 12.217 10.819,12.318 10.828,12.482 10.904 " fill="#1E1E1E" stroke="none" fill-rule="evenodd"></path></svg>