<svg width="24" height="24" viewBox="0 0 24 24" fill="none" xmlns="http://www.w3.org/2000/svg"><path d="M11.433 2.902 C 11.309 2.932,11.111 3.003,10.993 3.059 C 10.876 3.116,9.115 4.201,7.080 5.471 C 3.810 7.511,3.347 7.813,3.100 8.060 C 2.775 8.385,2.591 8.706,2.479 9.144 C 2.402 9.443,2.400 9.604,2.400 14.460 C 2.400 19.316,2.402 19.477,2.479 19.776 C 2.595 20.228,2.772 20.535,3.119 20.881 C 3.465 21.228,3.772 21.405,4.224 21.521 C 4.526 21.598,4.695 21.600,12.000 21.600 C 19.305 21.600,19.474 21.598,19.776 21.521 C 20.228 21.405,20.535 21.228,20.881 20.881 C 21.228 20.535,21.405 20.228,21.521 19.776 C 21.598 19.477,21.600 19.316,21.600 14.460 C 21.600 9.604,21.598 9.443,21.521 9.144 C 21.409 8.706,21.225 8.385,20.900 8.060 C 20.652 7.812,20.193 7.514,16.920 5.474 C 14.885 4.205,13.126 3.120,13.011 3.063 C 12.578 2.849,11.927 2.782,11.433 2.902 M6.380 10.473 C 6.497 10.514,7.700 11.290,9.290 12.352 L 12.000 14.160 14.751 12.326 C 17.715 10.351,17.695 10.362,18.132 10.414 C 18.867 10.501,19.350 11.222,19.146 11.926 C 19.017 12.368,19.083 12.317,15.710 14.568 C 13.856 15.805,12.498 16.685,12.380 16.727 C 12.126 16.816,11.874 16.816,11.620 16.727 C 11.502 16.685,10.144 15.805,8.290 14.568 C 4.939 12.332,4.985 12.367,4.860 11.946 C 4.784 11.692,4.784 11.508,4.860 11.254 C 5.052 10.608,5.747 10.250,6.380 10.473 " fill="#1E1E1E" stroke="none" fill-rule="evenodd"></path></svg>