<svg width="24" height="24" viewBox="0 0 24 24" fill="none" xmlns="http://www.w3.org/2000/svg"><path d="M9.060 2.442 C 8.183 2.578,7.337 3.065,6.798 3.742 C 6.141 4.568,5.863 5.692,6.072 6.680 C 6.116 6.889,6.165 7.091,6.180 7.130 C 6.207 7.195,6.154 7.200,5.394 7.201 C 4.451 7.201,4.169 7.246,3.720 7.466 C 3.346 7.649,2.879 8.102,2.688 8.467 C 2.410 8.998,2.335 9.612,2.479 10.176 C 2.595 10.628,2.772 10.935,3.119 11.281 C 3.465 11.628,3.772 11.805,4.224 11.921 C 4.519 11.996,4.677 12.000,7.663 12.000 L 10.794 12.000 10.807 11.250 C 10.820 10.523,10.823 10.493,10.932 10.273 C 11.142 9.844,11.507 9.622,12.000 9.622 C 12.493 9.622,12.858 9.844,13.068 10.273 C 13.177 10.493,13.180 10.523,13.193 11.250 L 13.206 12.000 16.337 12.000 C 19.323 12.000,19.481 11.996,19.776 11.921 C 20.228 11.805,20.535 11.628,20.881 11.281 C 21.228 10.935,21.405 10.628,21.521 10.176 C 21.665 9.612,21.590 8.998,21.312 8.467 C 21.121 8.102,20.654 7.649,20.280 7.466 C 19.831 7.246,19.549 7.201,18.606 7.201 C 17.846 7.200,17.793 7.195,17.820 7.130 C 17.835 7.091,17.884 6.889,17.928 6.680 C 17.992 6.376,18.004 6.208,17.987 5.840 C 17.914 4.255,16.844 2.930,15.300 2.515 C 14.880 2.402,13.999 2.391,13.587 2.493 C 13.061 2.623,12.412 2.947,12.110 3.232 L 12.000 3.335 11.890 3.233 C 11.580 2.947,10.991 2.646,10.488 2.516 C 10.130 2.424,9.412 2.387,9.060 2.442 M10.137 4.937 C 10.385 5.058,10.574 5.255,10.696 5.518 C 10.770 5.678,10.782 5.789,10.793 6.450 L 10.806 7.200 10.105 7.200 C 9.500 7.200,9.373 7.189,9.188 7.120 C 8.471 6.851,8.187 5.997,8.599 5.348 C 8.918 4.845,9.585 4.667,10.137 4.937 M14.937 4.937 C 15.355 5.141,15.578 5.510,15.579 6.000 C 15.580 6.249,15.561 6.339,15.468 6.529 C 15.333 6.804,15.103 7.011,14.812 7.120 C 14.627 7.189,14.500 7.200,13.898 7.200 L 13.200 7.200 13.200 6.527 C 13.200 5.778,13.241 5.560,13.436 5.292 C 13.772 4.828,14.407 4.678,14.937 4.937 M3.601 16.310 C 3.601 19.768,3.599 19.736,3.866 20.280 C 4.068 20.693,4.507 21.132,4.920 21.334 C 5.454 21.595,5.493 21.599,8.290 21.599 L 10.800 21.600 10.800 17.400 L 10.800 13.200 7.200 13.200 L 3.600 13.200 3.601 16.310 M13.200 17.400 L 13.200 21.600 15.710 21.599 C 18.507 21.599,18.546 21.595,19.080 21.334 C 19.493 21.132,19.932 20.693,20.134 20.280 C 20.401 19.736,20.399 19.768,20.399 16.310 L 20.400 13.200 16.800 13.200 L 13.200 13.200 13.200 17.400 " fill="#1E1E1E" stroke="none" fill-rule="evenodd"></path></svg>