<svg width="24" height="24" viewBox="0 0 24 24" fill="none" xmlns="http://www.w3.org/2000/svg"><path d="M12.808 1.273 C 12.692 1.315,12.530 1.403,12.448 1.469 C 12.242 1.636,3.788 13.711,3.681 13.992 C 3.466 14.555,3.723 15.199,4.271 15.468 L 4.500 15.580 7.049 15.591 L 9.598 15.602 9.609 18.751 L 9.620 21.900 9.732 22.127 C 9.942 22.556,10.306 22.778,10.800 22.779 C 11.046 22.780,11.139 22.761,11.321 22.671 C 11.443 22.612,11.589 22.513,11.647 22.451 C 11.873 22.210,20.257 10.177,20.327 9.992 C 20.534 9.446,20.269 8.798,19.729 8.532 L 19.500 8.420 16.951 8.409 L 14.402 8.398 14.391 5.249 C 14.380 2.143,14.379 2.097,14.296 1.918 C 14.033 1.351,13.382 1.068,12.808 1.273 " fill="#1E1E1E" stroke="none" fill-rule="evenodd"></path></svg>