<svg width="24" height="24" viewBox="0 0 24 24" fill="none" xmlns="http://www.w3.org/2000/svg"><path d="M11.460 1.242 C 10.072 1.458,8.966 2.432,8.532 3.820 L 8.420 4.180 8.420 7.200 L 8.420 10.220 8.532 10.578 C 8.919 11.814,9.798 12.692,11.022 13.065 C 11.346 13.164,11.439 13.174,12.000 13.174 C 12.561 13.174,12.654 13.164,12.978 13.065 C 14.202 12.692,15.081 11.814,15.468 10.578 L 15.580 10.220 15.580 7.200 L 15.580 4.180 15.468 3.820 C 15.074 2.559,14.123 1.633,12.900 1.319 C 12.530 1.224,11.818 1.186,11.460 1.242 M4.413 8.474 C 3.965 8.629,3.655 9.031,3.611 9.512 C 3.565 10.029,3.729 11.255,3.941 11.964 C 4.237 12.954,4.757 13.971,5.373 14.760 C 5.672 15.143,6.371 15.848,6.760 16.158 C 7.784 16.976,9.071 17.582,10.285 17.818 C 10.469 17.854,10.660 17.892,10.710 17.902 L 10.800 17.922 10.800 19.161 L 10.800 20.400 8.927 20.400 C 6.824 20.400,6.795 20.403,6.447 20.678 C 6.159 20.906,6.020 21.205,6.020 21.600 C 6.020 22.100,6.266 22.487,6.718 22.696 L 6.900 22.780 12.000 22.780 L 17.100 22.780 17.327 22.668 C 17.756 22.458,17.978 22.094,17.979 21.600 C 17.980 21.206,17.842 20.907,17.553 20.678 C 17.205 20.403,17.176 20.400,15.073 20.400 L 13.200 20.400 13.200 19.161 L 13.200 17.922 13.290 17.903 C 13.340 17.893,13.565 17.846,13.790 17.800 C 15.027 17.547,16.296 16.931,17.340 16.077 C 17.683 15.797,18.352 15.112,18.627 14.760 C 19.243 13.971,19.763 12.955,20.059 11.964 C 20.271 11.255,20.435 10.029,20.389 9.512 C 20.332 8.893,19.806 8.400,19.200 8.400 C 18.776 8.400,18.324 8.681,18.138 9.060 C 18.043 9.255,18.024 9.356,17.995 9.835 C 17.939 10.750,17.741 11.523,17.376 12.253 C 16.540 13.927,15.035 15.088,13.188 15.488 C 12.846 15.561,12.654 15.576,12.000 15.576 C 11.346 15.576,11.154 15.561,10.812 15.488 C 8.418 14.970,6.616 13.165,6.119 10.784 C 6.076 10.577,6.025 10.155,6.006 9.846 C 5.964 9.163,5.875 8.933,5.553 8.678 C 5.214 8.410,4.809 8.337,4.413 8.474 " fill="#1E1E1E" stroke="none" fill-rule="evenodd"></path></svg>