<svg width="24" height="24" viewBox="0 0 24 24" fill="none" xmlns="http://www.w3.org/2000/svg"><path d="M7.880 2.462 C 7.443 2.557,7.060 2.772,6.719 3.116 C 6.372 3.465,6.194 3.774,6.079 4.224 C 6.002 4.526,6.000 4.695,6.000 12.000 C 6.000 19.305,6.002 19.474,6.079 19.776 C 6.195 20.228,6.372 20.535,6.719 20.881 C 7.065 21.228,7.372 21.405,7.824 21.521 C 8.121 21.597,8.280 21.600,12.000 21.600 C 15.720 21.600,15.879 21.597,16.176 21.521 C 16.628 21.405,16.935 21.228,17.281 20.881 C 17.628 20.535,17.805 20.228,17.921 19.776 C 17.998 19.474,18.000 19.305,18.000 12.000 C 18.000 4.695,17.998 4.526,17.921 4.224 C 17.806 3.774,17.628 3.465,17.281 3.116 C 16.934 2.767,16.554 2.555,16.100 2.460 C 15.695 2.375,8.276 2.377,7.880 2.462 M12.537 16.937 C 12.955 17.141,13.178 17.510,13.179 18.000 C 13.180 18.249,13.161 18.339,13.068 18.529 C 12.933 18.804,12.703 19.011,12.412 19.120 C 11.530 19.450,10.619 18.643,10.838 17.727 C 11.019 16.974,11.836 16.594,12.537 16.937 " fill="#1E1E1E" stroke="none" fill-rule="evenodd"></path></svg>