<svg width="24" height="24" viewBox="0 0 24 24" fill="none" xmlns="http://www.w3.org/2000/svg"><path d="M10.260 2.443 C 8.880 2.651,7.750 3.646,7.336 5.020 C 7.235 5.355,7.227 5.444,7.210 6.290 L 7.191 7.200 5.886 7.201 C 4.409 7.201,4.210 7.226,3.720 7.466 C 3.314 7.664,2.870 8.106,2.670 8.510 C 2.402 9.049,2.397 9.110,2.409 11.636 L 2.420 13.893 2.860 14.049 C 5.672 15.052,8.903 15.600,12.000 15.600 C 15.097 15.600,18.328 15.052,21.140 14.049 L 21.580 13.893 21.591 11.636 C 21.603 9.110,21.598 9.049,21.330 8.510 C 21.130 8.106,20.686 7.664,20.280 7.466 C 19.790 7.226,19.591 7.201,18.114 7.201 L 16.809 7.200 16.790 6.290 C 16.773 5.444,16.765 5.355,16.664 5.020 C 16.288 3.775,15.349 2.857,14.100 2.513 C 13.798 2.430,13.690 2.425,12.140 2.416 C 11.238 2.411,10.392 2.423,10.260 2.443 M13.682 4.904 C 13.948 5.027,14.142 5.215,14.268 5.473 C 14.377 5.693,14.380 5.723,14.393 6.450 L 14.406 7.200 12.003 7.200 L 9.600 7.200 9.600 6.527 C 9.600 5.778,9.641 5.560,9.836 5.292 C 9.982 5.091,10.160 4.962,10.419 4.871 C 10.599 4.808,10.772 4.802,12.060 4.810 C 13.429 4.820,13.509 4.824,13.682 4.904 M12.551 10.935 C 13.238 11.284,13.415 12.208,12.905 12.788 C 12.350 13.418,11.305 13.290,10.941 12.547 C 10.524 11.693,11.147 10.750,12.086 10.816 C 12.261 10.828,12.420 10.869,12.551 10.935 M2.401 17.926 C 2.401 19.084,2.415 19.483,2.460 19.700 C 2.649 20.600,3.400 21.351,4.300 21.540 C 4.721 21.628,19.279 21.628,19.700 21.540 C 20.600 21.351,21.351 20.600,21.540 19.700 C 21.585 19.483,21.599 19.084,21.599 17.926 C 21.600 16.584,21.594 16.434,21.537 16.456 C 21.286 16.552,20.170 16.880,19.540 17.042 C 17.773 17.496,16.191 17.760,14.220 17.928 C 13.425 17.995,10.575 17.995,9.780 17.928 C 7.809 17.760,6.227 17.496,4.460 17.042 C 3.830 16.880,2.714 16.552,2.463 16.456 C 2.406 16.434,2.400 16.584,2.401 17.926 " fill="#1E1E1E" stroke="none" fill-rule="evenodd"></path></svg>