<svg width="24" height="24" viewBox="0 0 24 24" fill="none" xmlns="http://www.w3.org/2000/svg"><path d="M10.340 1.226 C 9.738 1.294,9.156 1.460,8.674 1.703 C 6.793 2.650,5.747 4.656,6.058 6.720 C 6.089 6.930,6.126 7.130,6.140 7.166 C 6.160 7.219,6.125 7.235,5.942 7.258 C 5.146 7.358,4.243 7.822,3.619 8.455 C 3.072 9.009,2.721 9.634,2.516 10.420 C 2.384 10.922,2.381 11.854,2.509 12.360 C 2.905 13.931,4.036 15.069,5.620 15.491 C 5.927 15.572,6.042 15.576,8.369 15.590 L 10.798 15.604 10.809 18.752 L 10.820 21.900 10.932 22.127 C 11.142 22.556,11.507 22.778,12.000 22.778 C 12.493 22.778,12.858 22.556,13.068 22.127 L 13.180 21.900 13.191 18.753 L 13.202 15.606 15.091 15.589 C 16.830 15.573,17.007 15.565,17.320 15.489 C 18.472 15.209,19.326 14.724,20.107 13.907 C 20.674 13.314,21.027 12.739,21.292 11.976 C 21.527 11.302,21.578 10.987,21.578 10.200 C 21.578 9.413,21.527 9.100,21.292 8.421 C 21.008 7.599,20.570 6.926,19.911 6.298 C 19.316 5.730,18.654 5.329,17.905 5.084 C 17.253 4.870,16.966 4.826,16.177 4.823 L 15.453 4.821 15.381 4.568 C 15.273 4.189,14.913 3.489,14.644 3.132 C 13.883 2.122,12.748 1.444,11.515 1.263 C 11.128 1.206,10.650 1.191,10.340 1.226 M12.530 7.334 C 12.697 7.416,13.136 7.834,14.685 9.388 C 16.851 11.562,16.780 11.473,16.780 12.020 C 16.780 12.853,15.964 13.408,15.172 13.114 C 14.964 13.038,14.850 12.940,14.070 12.166 L 13.200 11.304 13.200 13.452 L 13.200 15.600 12.000 15.600 L 10.800 15.600 10.800 13.452 L 10.800 11.304 9.930 12.166 C 9.150 12.940,9.036 13.038,8.828 13.114 C 8.239 13.332,7.605 13.084,7.332 12.529 C 7.242 12.344,7.220 12.246,7.220 12.020 C 7.220 11.473,7.151 11.560,9.295 9.408 C 10.354 8.345,11.280 7.438,11.353 7.393 C 11.702 7.175,12.160 7.152,12.530 7.334 " fill="#1E1E1E" stroke="none" fill-rule="evenodd"></path></svg>