<svg width="24" height="24" viewBox="0 0 24 24" fill="none" xmlns="http://www.w3.org/2000/svg"><path d="M14.053 6.055 C 13.961 6.085,13.826 6.147,13.753 6.193 C 13.680 6.239,12.484 7.415,11.095 8.808 C 8.676 11.233,8.566 11.350,8.481 11.580 C 8.416 11.758,8.397 11.883,8.408 12.062 C 8.438 12.548,8.399 12.503,11.189 15.285 C 13.603 17.694,13.752 17.835,13.972 17.915 C 14.429 18.083,14.903 17.981,15.242 17.642 C 15.581 17.303,15.683 16.829,15.515 16.372 C 15.435 16.154,15.308 16.017,13.366 14.070 L 11.302 12.000 13.366 9.930 C 15.308 7.983,15.435 7.846,15.515 7.628 C 15.798 6.858,15.284 6.065,14.470 6.016 C 14.325 6.007,14.150 6.023,14.053 6.055 " fill="#1E1E1E" stroke="none" fill-rule="evenodd"></path></svg>