<svg width="24" height="24" viewBox="0 0 24 24" fill="none" xmlns="http://www.w3.org/2000/svg"><path d="M11.653 2.455 C 11.561 2.485,11.426 2.547,11.353 2.593 C 11.280 2.639,9.274 4.626,6.895 7.008 C 2.756 11.152,2.565 11.350,2.485 11.572 C 2.377 11.866,2.377 12.136,2.486 12.426 C 2.652 12.872,3.125 13.200,3.600 13.200 C 3.922 13.200,4.212 13.065,4.524 12.771 L 4.800 12.510 4.800 16.554 C 4.800 20.589,4.800 20.597,4.886 20.826 C 5.000 21.131,5.269 21.400,5.574 21.514 C 5.792 21.596,5.870 21.600,7.200 21.600 C 8.501 21.600,8.612 21.594,8.812 21.520 C 9.103 21.411,9.333 21.204,9.468 20.929 L 9.580 20.700 9.600 19.200 C 9.619 17.782,9.625 17.690,9.704 17.518 C 9.827 17.252,10.015 17.058,10.273 16.932 L 10.500 16.820 12.000 16.820 L 13.500 16.820 13.727 16.932 C 13.985 17.058,14.173 17.252,14.296 17.518 C 14.375 17.690,14.381 17.782,14.400 19.200 L 14.420 20.700 14.532 20.929 C 14.667 21.204,14.897 21.411,15.188 21.520 C 15.388 21.594,15.499 21.600,16.800 21.600 C 18.130 21.600,18.208 21.596,18.426 21.514 C 18.731 21.400,19.000 21.131,19.114 20.826 C 19.200 20.597,19.200 20.589,19.200 16.554 L 19.200 12.510 19.476 12.771 C 19.919 13.188,20.341 13.296,20.826 13.114 C 21.272 12.948,21.600 12.475,21.600 12.000 C 21.600 11.892,21.562 11.699,21.515 11.572 C 21.435 11.350,21.243 11.152,17.085 6.989 C 13.540 3.438,12.701 2.618,12.530 2.534 C 12.277 2.409,11.897 2.375,11.653 2.455 " fill="#1E1E1E" stroke="none" fill-rule="evenodd"></path></svg>