<svg width="24" height="24" viewBox="0 0 24 24" fill="none" xmlns="http://www.w3.org/2000/svg"><path d="M4.280 3.662 C 3.843 3.757,3.460 3.972,3.119 4.316 C 2.772 4.665,2.594 4.974,2.479 5.424 C 2.379 5.816,2.379 6.184,2.479 6.576 C 2.595 7.028,2.772 7.335,3.119 7.681 C 3.465 8.028,3.772 8.205,4.224 8.321 C 4.526 8.398,4.695 8.400,12.000 8.400 C 19.305 8.400,19.474 8.398,19.776 8.321 C 20.228 8.205,20.535 8.028,20.881 7.681 C 21.228 7.335,21.405 7.028,21.521 6.576 C 21.665 6.012,21.590 5.398,21.312 4.867 C 21.121 4.502,20.654 4.049,20.280 3.866 C 19.706 3.585,20.224 3.601,11.980 3.604 C 5.757 3.606,4.497 3.616,4.280 3.662 M3.601 13.910 C 3.601 17.546,3.611 18.264,3.660 18.500 C 3.849 19.400,4.600 20.151,5.500 20.340 C 5.920 20.428,18.080 20.428,18.500 20.340 C 19.400 20.151,20.151 19.400,20.340 18.500 C 20.389 18.264,20.399 17.546,20.399 13.910 L 20.400 9.600 12.000 9.600 L 3.600 9.600 3.601 13.910 M13.626 12.086 C 13.775 12.141,13.921 12.237,14.042 12.358 C 14.613 12.929,14.472 13.864,13.754 14.261 L 13.540 14.380 12.000 14.380 L 10.460 14.380 10.246 14.261 C 9.528 13.864,9.387 12.929,9.958 12.358 C 10.301 12.015,10.361 12.004,11.988 12.002 C 13.333 12.000,13.407 12.004,13.626 12.086 " fill="#1E1E1E" stroke="none" fill-rule="evenodd"></path></svg>