<svg width="24" height="24" viewBox="0 0 24 24" fill="none" xmlns="http://www.w3.org/2000/svg"><path d="M5.480 2.462 C 4.600 2.652,3.858 3.398,3.662 4.290 C 3.605 4.551,3.599 5.428,3.609 13.085 L 3.620 21.589 5.710 20.394 L 7.800 19.199 9.900 20.400 L 12.000 21.601 14.100 20.400 L 16.200 19.199 18.290 20.394 L 20.380 21.589 20.391 13.085 C 20.401 5.428,20.395 4.551,20.338 4.290 C 20.140 3.388,19.397 2.649,18.500 2.460 C 18.091 2.374,5.879 2.376,5.480 2.462 M9.368 6.045 C 10.296 6.242,10.926 7.161,10.767 8.086 C 10.618 8.956,9.867 9.599,9.000 9.599 C 8.133 9.599,7.382 8.956,7.233 8.086 C 7.023 6.862,8.149 5.786,9.368 6.045 M16.137 6.137 C 16.555 6.341,16.778 6.710,16.779 7.200 C 16.781 7.751,16.995 7.509,12.811 11.685 C 9.231 15.260,9.049 15.435,8.828 15.515 C 8.237 15.731,7.605 15.483,7.332 14.929 C 7.242 14.744,7.220 14.646,7.220 14.420 C 7.220 13.854,6.955 14.156,11.095 10.008 C 13.144 7.956,14.880 6.239,14.953 6.193 C 15.304 5.973,15.759 5.952,16.137 6.137 M15.368 12.045 C 16.296 12.242,16.926 13.161,16.767 14.086 C 16.618 14.956,15.867 15.599,15.000 15.599 C 14.133 15.599,13.382 14.956,13.233 14.086 C 13.023 12.862,14.149 11.786,15.368 12.045 " fill="#1E1E1E" stroke="none" fill-rule="evenodd"></path></svg>