<svg width="24" height="24" viewBox="0 0 24 24" fill="none" xmlns="http://www.w3.org/2000/svg"><path d="M11.990 4.310 L 9.600 6.700 9.600 14.400 L 9.600 22.100 12.000 19.700 L 14.400 17.300 14.390 9.610 L 14.380 1.920 11.990 4.310 M16.800 9.601 L 16.800 17.302 18.270 18.766 C 19.911 20.399,19.885 20.380,20.420 20.380 C 20.793 20.380,21.099 20.235,21.322 19.952 C 21.621 19.575,21.602 20.049,21.590 13.118 L 21.580 6.900 21.471 6.680 C 21.382 6.500,20.952 6.049,19.081 4.180 L 16.800 1.900 16.800 9.601 M3.220 3.669 C 2.821 3.812,2.524 4.142,2.440 4.534 C 2.408 4.681,2.399 6.509,2.408 10.920 L 2.420 17.100 2.529 17.320 C 2.618 17.500,3.048 17.951,4.919 19.820 L 7.200 22.100 7.200 14.399 L 7.200 6.698 5.750 5.251 C 4.170 3.675,4.131 3.644,3.662 3.614 C 3.496 3.603,3.357 3.620,3.220 3.669 " fill="#1E1E1E" stroke="none" fill-rule="evenodd"></path></svg>