<svg width="24" height="24" viewBox="0 0 24 24" fill="none" xmlns="http://www.w3.org/2000/svg"><path d="M6.680 2.462 C 6.243 2.557,5.860 2.772,5.519 3.116 C 5.172 3.465,4.994 3.774,4.879 4.224 C 4.803 4.520,4.800 4.678,4.800 7.966 C 4.800 9.855,4.810 11.400,4.822 11.400 C 4.834 11.400,4.949 11.313,5.077 11.206 C 5.882 10.536,7.047 9.981,8.113 9.760 C 10.290 9.310,12.537 9.875,14.240 11.302 C 15.447 12.314,16.323 13.777,16.639 15.313 C 16.892 16.535,16.819 17.875,16.438 19.047 C 16.194 19.797,15.678 20.742,15.194 21.323 C 15.087 21.451,15.000 21.566,15.000 21.578 C 15.000 21.590,15.465 21.600,16.034 21.600 C 17.194 21.600,17.460 21.560,17.933 21.312 C 18.290 21.125,18.750 20.654,18.930 20.290 C 19.218 19.712,19.204 20.046,19.191 13.920 L 19.180 8.420 19.073 8.128 C 19.014 7.967,18.894 7.724,18.804 7.588 C 18.586 7.254,14.307 2.981,14.000 2.791 C 13.690 2.599,13.416 2.491,13.117 2.442 C 12.954 2.416,11.780 2.402,9.900 2.403 C 7.521 2.406,6.889 2.417,6.680 2.462 M8.980 12.046 C 7.424 12.244,6.023 13.244,5.306 14.669 C 4.964 15.347,4.830 15.932,4.824 16.760 C 4.819 17.622,4.920 18.096,5.271 18.851 L 5.453 19.243 4.613 20.091 C 3.666 21.047,3.620 21.118,3.620 21.620 C 3.620 22.284,4.112 22.775,4.780 22.779 C 5.281 22.781,5.352 22.736,6.309 21.787 L 7.157 20.947 7.549 21.129 C 8.001 21.339,8.209 21.409,8.680 21.508 C 9.124 21.602,10.126 21.600,10.554 21.505 C 11.520 21.290,12.303 20.864,12.984 20.184 C 13.663 19.504,14.087 18.726,14.306 17.754 C 14.398 17.347,14.398 16.253,14.306 15.846 C 14.087 14.874,13.663 14.096,12.984 13.416 C 11.924 12.357,10.463 11.857,8.980 12.046 M10.176 14.479 C 10.628 14.595,10.935 14.772,11.281 15.119 C 11.628 15.465,11.805 15.772,11.921 16.224 C 12.123 17.014,11.906 17.834,11.334 18.439 C 11.059 18.731,10.770 18.920,10.370 19.073 C 10.132 19.163,10.040 19.175,9.600 19.175 C 9.160 19.175,9.068 19.163,8.830 19.073 C 8.430 18.920,8.141 18.731,7.866 18.439 C 7.570 18.125,7.385 17.791,7.279 17.376 C 7.135 16.812,7.210 16.198,7.488 15.667 C 7.658 15.343,8.143 14.858,8.468 14.687 C 8.999 14.409,9.611 14.335,10.176 14.479 " fill="#1E1E1E" stroke="none" fill-rule="evenodd"></path></svg>