<svg width="24" height="24" viewBox="0 0 24 24" fill="none" xmlns="http://www.w3.org/2000/svg"><path d="M11.613 2.472 C 11.240 2.605,10.996 2.853,10.862 3.235 C 10.814 3.370,10.800 3.592,10.800 4.204 C 10.800 5.148,10.845 5.329,11.158 5.642 C 11.629 6.112,12.371 6.112,12.842 5.642 C 13.155 5.328,13.200 5.149,13.200 4.200 C 13.200 3.297,13.161 3.115,12.899 2.809 C 12.604 2.465,12.043 2.318,11.613 2.472 M4.280 4.862 C 3.399 5.052,2.647 5.812,2.460 6.700 C 2.372 7.120,2.372 18.080,2.460 18.500 C 2.649 19.400,3.400 20.151,4.300 20.340 C 4.721 20.428,19.279 20.428,19.700 20.340 C 20.600 20.151,21.351 19.400,21.540 18.500 C 21.628 18.080,21.628 7.120,21.540 6.700 C 21.351 5.802,20.598 5.049,19.700 4.860 C 19.477 4.813,19.035 4.801,17.516 4.801 L 15.612 4.800 15.585 5.118 C 15.550 5.537,15.395 6.060,15.189 6.457 C 14.731 7.337,13.962 7.964,12.971 8.267 C 12.655 8.363,12.558 8.374,12.000 8.374 C 11.442 8.374,11.345 8.363,11.029 8.267 C 10.038 7.964,9.269 7.337,8.811 6.457 C 8.605 6.060,8.450 5.537,8.415 5.118 L 8.388 4.800 6.464 4.803 C 4.974 4.806,4.481 4.819,4.280 4.862 M8.230 9.657 C 8.576 9.749,8.807 9.882,9.062 10.138 C 9.756 10.831,9.780 11.892,9.120 12.611 C 8.401 13.395,7.199 13.395,6.480 12.611 C 5.820 11.892,5.844 10.831,6.538 10.138 C 6.996 9.679,7.633 9.498,8.230 9.657 M18.426 10.886 C 18.575 10.941,18.721 11.037,18.842 11.158 C 19.413 11.729,19.272 12.664,18.554 13.061 L 18.340 13.180 16.200 13.180 L 14.060 13.180 13.846 13.061 C 13.128 12.664,12.987 11.729,13.558 11.158 C 13.673 11.043,13.829 10.939,13.963 10.888 C 14.172 10.807,14.251 10.804,16.188 10.802 C 18.146 10.800,18.203 10.802,18.426 10.886 M8.381 14.462 C 9.585 14.710,10.490 15.615,10.738 16.819 C 10.803 17.133,10.817 17.506,10.775 17.814 L 10.749 18.000 7.800 18.000 L 4.851 18.000 4.825 17.814 C 4.548 15.790,6.392 14.051,8.381 14.462 M17.226 14.486 C 17.375 14.541,17.521 14.637,17.642 14.758 C 18.213 15.329,18.072 16.264,17.354 16.661 L 17.140 16.780 15.600 16.780 L 14.060 16.780 13.846 16.661 C 13.128 16.264,12.987 15.329,13.558 14.758 C 13.901 14.415,13.961 14.404,15.588 14.402 C 16.933 14.400,17.007 14.404,17.226 14.486 " fill="#1E1E1E" stroke="none" fill-rule="evenodd"></path></svg>