<svg width="24" height="24" viewBox="0 0 24 24" fill="none" xmlns="http://www.w3.org/2000/svg"><path d="M11.320 2.426 C 10.437 2.511,9.752 2.644,9.080 2.861 C 6.829 3.590,4.981 5.055,3.759 7.080 C 3.135 8.115,2.691 9.364,2.493 10.640 C 2.394 11.282,2.394 12.718,2.493 13.360 C 3.154 17.630,6.370 20.846,10.640 21.507 C 11.282 21.606,12.718 21.606,13.360 21.507 C 15.816 21.127,17.964 19.897,19.488 17.998 C 20.745 16.431,21.478 14.506,21.586 12.484 L 21.612 12.000 16.806 12.000 L 12.000 12.000 12.000 7.200 L 12.000 2.400 11.730 2.406 C 11.582 2.410,11.397 2.419,11.320 2.426 M14.400 6.160 L 14.400 9.600 17.844 9.600 L 21.289 9.600 21.263 9.490 C 21.249 9.430,21.182 9.209,21.114 9.001 C 20.174 6.107,17.859 3.810,14.931 2.865 C 14.684 2.785,14.463 2.720,14.441 2.720 C 14.413 2.720,14.400 3.852,14.400 6.160 " fill="#1E1E1E" stroke="none" fill-rule="evenodd"></path></svg>