<svg width="24" height="24" viewBox="0 0 24 24" fill="none" xmlns="http://www.w3.org/2000/svg"><path d="M10.280 2.462 C 9.843 2.557,9.460 2.772,9.119 3.116 C 8.772 3.465,8.594 3.774,8.479 4.224 C 8.402 4.524,8.400 4.685,8.400 9.600 C 8.400 14.515,8.402 14.676,8.479 14.976 C 8.595 15.428,8.772 15.735,9.119 16.081 C 9.465 16.428,9.772 16.605,10.224 16.721 C 10.521 16.797,10.680 16.800,14.400 16.800 C 18.120 16.800,18.279 16.797,18.576 16.721 C 19.026 16.606,19.335 16.428,19.683 16.081 C 19.899 15.867,20.028 15.696,20.130 15.490 C 20.411 14.925,20.404 15.047,20.391 10.920 L 20.380 7.220 20.273 6.928 C 20.214 6.767,20.094 6.524,20.005 6.388 C 19.789 6.058,16.704 2.980,16.400 2.791 C 16.091 2.599,15.816 2.491,15.517 2.442 C 15.102 2.375,10.606 2.392,10.280 2.462 M5.480 7.262 C 4.599 7.452,3.847 8.212,3.660 9.100 C 3.572 9.519,3.572 19.281,3.660 19.700 C 3.849 20.600,4.600 21.351,5.500 21.540 C 5.917 21.627,13.283 21.627,13.700 21.540 C 14.380 21.397,15.034 20.893,15.334 20.280 C 15.475 19.993,15.598 19.543,15.599 19.310 L 15.600 19.200 10.800 19.200 L 6.000 19.200 6.000 13.200 L 6.000 7.200 5.870 7.203 C 5.799 7.205,5.623 7.232,5.480 7.262 " fill="#1E1E1E" stroke="none" fill-rule="evenodd"></path></svg>