<svg width="24" height="24" viewBox="0 0 24 24" fill="none" xmlns="http://www.w3.org/2000/svg"><path d="M3.213 3.672 C 2.840 3.805,2.596 4.053,2.462 4.435 C 2.407 4.590,2.400 5.451,2.400 12.004 L 2.400 19.397 2.486 19.626 C 2.652 20.072,3.125 20.400,3.600 20.400 C 4.075 20.400,4.548 20.072,4.714 19.626 L 4.800 19.397 4.800 12.000 C 4.800 4.691,4.799 4.600,4.720 4.388 C 4.494 3.784,3.810 3.458,3.213 3.672 M16.413 7.272 C 15.733 7.515,15.425 8.243,15.720 8.910 C 15.783 9.052,16.019 9.316,16.651 9.950 L 17.498 10.800 12.876 10.800 C 7.724 10.800,8.019 10.784,7.647 11.078 C 7.358 11.307,7.220 11.606,7.221 12.000 C 7.222 12.494,7.444 12.858,7.873 13.068 L 8.100 13.180 12.797 13.191 L 17.495 13.201 16.633 14.071 C 15.664 15.049,15.620 15.116,15.620 15.620 C 15.620 16.284,16.112 16.775,16.780 16.779 C 17.326 16.781,17.237 16.852,19.412 14.685 C 21.612 12.492,21.580 12.532,21.580 12.000 C 21.580 11.469,21.610 11.506,19.432 9.332 C 17.329 7.233,17.343 7.245,16.862 7.214 C 16.694 7.203,16.557 7.220,16.413 7.272 " fill="#1E1E1E" stroke="none" fill-rule="evenodd"></path></svg>