<svg width="24" height="24" viewBox="0 0 24 24" fill="none" xmlns="http://www.w3.org/2000/svg"><path d="M11.320 2.423 C 11.243 2.432,11.013 2.459,10.808 2.483 C 8.508 2.751,6.197 3.988,4.729 5.739 C 3.496 7.208,2.782 8.773,2.493 10.640 C 2.394 11.282,2.394 12.718,2.493 13.360 C 3.154 17.630,6.370 20.846,10.640 21.507 C 11.282 21.606,12.718 21.606,13.360 21.507 C 15.173 21.226,16.839 20.473,18.220 19.308 C 19.737 18.029,20.852 16.214,21.333 14.240 C 21.526 13.450,21.578 12.972,21.578 12.000 C 21.578 11.336,21.560 10.979,21.507 10.640 C 21.039 7.618,19.289 5.083,16.658 3.615 C 15.639 3.046,14.573 2.686,13.360 2.501 C 12.960 2.440,11.616 2.389,11.320 2.423 M14.100 4.919 C 15.349 5.240,16.352 6.241,16.683 7.500 C 16.741 7.719,16.769 7.958,16.774 8.260 C 16.780 8.668,16.772 8.717,16.668 8.929 C 16.398 9.477,15.758 9.733,15.188 9.520 C 14.722 9.345,14.460 8.976,14.404 8.414 C 14.349 7.871,14.138 7.533,13.727 7.332 C 13.403 7.172,12.997 7.173,12.671 7.332 C 12.396 7.467,12.189 7.697,12.080 7.988 C 12.006 8.187,12.000 8.299,12.000 9.498 L 12.000 10.794 12.750 10.807 C 13.477 10.820,13.507 10.823,13.727 10.932 C 14.156 11.142,14.378 11.506,14.379 12.000 C 14.380 12.249,14.361 12.339,14.268 12.529 C 14.133 12.804,13.903 13.011,13.612 13.120 C 13.427 13.189,13.300 13.200,12.703 13.200 L 12.010 13.200 11.989 14.090 C 11.969 14.914,11.931 15.237,11.819 15.529 C 11.794 15.593,11.925 15.598,13.846 15.609 C 15.837 15.620,15.906 15.623,16.082 15.704 C 16.182 15.751,16.330 15.846,16.410 15.917 C 16.782 16.243,16.895 16.866,16.668 17.329 C 16.533 17.604,16.303 17.811,16.012 17.920 C 15.802 17.998,15.704 18.000,12.000 18.000 C 8.296 18.000,8.198 17.998,7.988 17.920 C 7.870 17.876,7.700 17.776,7.609 17.699 C 7.221 17.366,7.100 16.745,7.332 16.273 C 7.533 15.862,7.861 15.657,8.402 15.602 C 8.968 15.545,9.345 15.279,9.520 14.812 C 9.589 14.627,9.600 14.500,9.600 13.898 L 9.600 13.200 8.902 13.200 C 8.300 13.200,8.173 13.189,7.988 13.120 C 7.697 13.011,7.467 12.804,7.332 12.529 C 7.239 12.339,7.220 12.249,7.221 12.000 C 7.222 11.506,7.444 11.142,7.873 10.932 C 8.093 10.823,8.123 10.820,8.847 10.807 L 9.593 10.794 9.610 9.307 C 9.625 7.930,9.633 7.796,9.714 7.500 C 10.097 6.098,11.246 5.062,12.660 4.842 C 13.018 4.786,13.730 4.824,14.100 4.919 " fill="#1E1E1E" stroke="none" fill-rule="evenodd"></path></svg>