<svg width="24" height="24" viewBox="0 0 24 24" fill="none" xmlns="http://www.w3.org/2000/svg"><path d="M8.013 2.471 C 7.169 2.774,6.929 3.813,7.558 4.442 C 8.312 5.196,9.600 4.664,9.600 3.600 C 9.600 2.960,9.130 2.461,8.486 2.416 C 8.290 2.402,8.165 2.417,8.013 2.471 M11.613 2.472 C 11.317 2.577,11.067 2.798,10.933 3.070 C 10.839 3.261,10.820 3.351,10.821 3.600 C 10.822 4.094,11.044 4.458,11.473 4.668 C 11.666 4.763,11.748 4.780,12.020 4.778 C 12.285 4.776,12.375 4.758,12.545 4.670 C 13.237 4.312,13.417 3.394,12.909 2.817 C 12.598 2.464,12.046 2.317,11.613 2.472 M15.213 2.472 C 14.917 2.577,14.667 2.798,14.533 3.070 C 14.439 3.261,14.420 3.351,14.421 3.600 C 14.422 4.094,14.644 4.458,15.073 4.668 C 15.266 4.763,15.348 4.780,15.620 4.778 C 15.885 4.776,15.975 4.758,16.145 4.670 C 16.837 4.312,17.017 3.394,16.509 2.817 C 16.198 2.464,15.646 2.317,15.213 2.472 M8.013 6.074 C 7.719 6.176,7.467 6.396,7.333 6.670 C 7.223 6.894,7.220 6.921,7.207 7.650 L 7.194 8.400 7.087 8.401 C 6.857 8.402,6.406 8.526,6.123 8.665 C 5.709 8.869,5.265 9.312,5.065 9.720 C 4.853 10.156,4.802 10.459,4.801 11.290 L 4.800 12.000 4.690 12.001 C 4.457 12.002,4.008 12.125,3.723 12.265 C 3.309 12.469,2.865 12.912,2.665 13.320 C 2.468 13.724,2.402 14.072,2.401 14.703 L 2.400 15.225 2.630 15.297 C 2.845 15.364,3.269 15.572,3.812 15.878 C 4.124 16.053,4.393 16.119,4.800 16.119 C 5.216 16.119,5.483 16.052,5.810 15.863 C 6.667 15.370,7.252 15.158,7.977 15.077 C 8.950 14.967,9.832 15.198,10.990 15.863 C 11.317 16.052,11.584 16.119,12.000 16.119 C 12.416 16.119,12.683 16.052,13.010 15.863 C 13.867 15.370,14.452 15.158,15.177 15.077 C 16.150 14.967,17.032 15.198,18.190 15.863 C 18.517 16.052,18.784 16.119,19.200 16.119 C 19.607 16.119,19.876 16.053,20.188 15.878 C 20.731 15.572,21.155 15.364,21.370 15.297 L 21.600 15.225 21.599 14.703 C 21.598 14.072,21.532 13.724,21.335 13.320 C 21.135 12.912,20.691 12.469,20.277 12.265 C 19.992 12.125,19.543 12.002,19.310 12.001 L 19.200 12.000 19.199 11.290 C 19.198 10.459,19.147 10.156,18.935 9.720 C 18.735 9.312,18.291 8.869,17.877 8.665 C 17.594 8.526,17.143 8.402,16.913 8.401 L 16.806 8.400 16.793 7.650 C 16.780 6.919,16.777 6.894,16.666 6.668 C 16.476 6.281,16.028 6.000,15.600 6.000 C 15.172 6.000,14.724 6.281,14.534 6.668 C 14.423 6.894,14.420 6.919,14.407 7.650 L 14.394 8.400 13.800 8.400 L 13.206 8.400 13.193 7.650 C 13.180 6.919,13.177 6.894,13.066 6.668 C 12.876 6.281,12.428 6.000,12.000 6.000 C 11.572 6.000,11.124 6.281,10.934 6.668 C 10.823 6.894,10.820 6.919,10.807 7.650 L 10.794 8.400 10.200 8.400 L 9.606 8.400 9.593 7.650 C 9.580 6.919,9.577 6.894,9.466 6.668 C 9.204 6.135,8.578 5.879,8.013 6.074 M7.797 17.556 C 7.674 17.595,7.385 17.735,7.156 17.867 C 6.467 18.263,5.935 18.443,5.215 18.524 C 4.435 18.612,3.619 18.456,2.828 18.067 L 2.396 17.855 2.408 19.277 L 2.420 20.700 2.532 20.927 C 2.658 21.185,2.852 21.373,3.118 21.496 L 3.300 21.580 12.000 21.580 L 20.700 21.580 20.927 21.468 C 21.185 21.342,21.373 21.148,21.496 20.882 C 21.576 20.709,21.581 20.626,21.592 19.277 L 21.604 17.855 21.172 18.067 C 20.381 18.456,19.565 18.612,18.785 18.524 C 18.065 18.443,17.533 18.263,16.845 17.867 C 16.311 17.561,16.052 17.480,15.604 17.480 C 15.160 17.480,14.918 17.551,14.440 17.821 C 13.655 18.265,13.146 18.442,12.423 18.523 C 11.501 18.627,10.594 18.413,9.645 17.867 C 9.415 17.736,9.121 17.595,8.990 17.554 C 8.677 17.456,8.105 17.457,7.797 17.556 " fill="#1E1E1E" stroke="none" fill-rule="evenodd"></path></svg>