<svg width="24" height="24" viewBox="0 0 24 24" fill="none" xmlns="http://www.w3.org/2000/svg"><path d="M5.700 4.845 C 4.698 4.941,3.644 5.215,2.731 5.617 L 2.420 5.755 2.410 11.756 L 2.400 17.758 2.490 17.723 C 2.539 17.703,2.683 17.641,2.809 17.584 C 4.471 16.840,6.563 16.618,8.460 16.985 C 9.539 17.193,10.717 17.654,11.619 18.220 C 11.811 18.341,11.983 18.440,12.000 18.440 C 12.017 18.440,12.189 18.341,12.381 18.220 C 14.510 16.884,17.276 16.464,19.763 17.100 C 20.199 17.211,20.854 17.434,21.191 17.584 C 21.317 17.641,21.461 17.703,21.510 17.723 L 21.600 17.758 21.600 11.762 L 21.600 5.766 21.374 5.662 C 18.925 4.541,16.009 4.525,13.531 5.617 L 13.220 5.755 13.200 10.227 L 13.180 14.700 13.068 14.929 C 12.798 15.477,12.158 15.733,11.588 15.520 C 11.297 15.411,11.067 15.204,10.932 14.929 L 10.820 14.700 10.800 10.227 L 10.780 5.755 10.469 5.617 C 8.997 4.969,7.295 4.693,5.700 4.845 " fill="#1E1E1E" stroke="none" fill-rule="evenodd"></path></svg>