<svg width="24" height="24" viewBox="0 0 24 24" fill="none" xmlns="http://www.w3.org/2000/svg"><path d="M11.320 2.423 C 11.243 2.432,11.013 2.459,10.808 2.483 C 8.508 2.751,6.197 3.988,4.729 5.739 C 3.496 7.208,2.782 8.773,2.493 10.640 C 2.394 11.282,2.394 12.718,2.493 13.360 C 3.154 17.630,6.370 20.846,10.640 21.507 C 11.282 21.606,12.718 21.606,13.360 21.507 C 15.173 21.226,16.839 20.473,18.220 19.308 C 19.737 18.029,20.852 16.214,21.333 14.240 C 21.526 13.450,21.578 12.972,21.578 12.000 C 21.578 11.336,21.560 10.979,21.507 10.640 C 21.039 7.618,19.289 5.083,16.658 3.615 C 15.639 3.046,14.573 2.686,13.360 2.501 C 12.960 2.440,11.616 2.389,11.320 2.423 M12.537 7.337 C 12.947 7.538,13.176 7.910,13.179 8.380 C 13.181 8.883,13.138 8.950,12.167 9.929 L 11.307 10.797 13.603 10.809 C 15.842 10.820,15.905 10.822,16.082 10.904 C 16.182 10.951,16.330 11.046,16.410 11.117 C 16.782 11.443,16.895 12.066,16.668 12.529 C 16.533 12.804,16.303 13.011,16.012 13.120 C 15.806 13.197,15.702 13.200,13.550 13.200 L 11.304 13.200 12.166 14.070 C 13.136 15.049,13.180 15.116,13.180 15.620 C 13.180 16.452,12.366 17.006,11.572 16.715 C 11.354 16.636,11.220 16.511,9.388 14.685 C 7.201 12.505,7.220 12.528,7.220 12.020 C 7.220 11.473,7.151 11.560,9.295 9.408 C 10.354 8.345,11.280 7.438,11.353 7.393 C 11.705 7.173,12.159 7.152,12.537 7.337 " fill="#1E1E1E" stroke="none" fill-rule="evenodd"></path></svg>