<svg width="24" height="24" viewBox="0 0 24 24" fill="none" xmlns="http://www.w3.org/2000/svg"><path d="M11.613 6.072 C 11.240 6.205,10.996 6.453,10.862 6.835 C 10.809 6.983,10.800 7.302,10.800 8.904 L 10.800 10.797 8.850 10.809 L 6.900 10.820 6.671 10.932 C 5.938 11.293,5.779 12.262,6.358 12.842 C 6.479 12.963,6.625 13.059,6.774 13.114 C 6.996 13.197,7.059 13.200,8.902 13.200 L 10.800 13.200 10.800 15.098 C 10.800 16.941,10.803 17.004,10.886 17.226 C 11.052 17.672,11.525 18.000,12.000 18.000 C 12.475 18.000,12.948 17.672,13.114 17.226 C 13.197 17.004,13.200 16.941,13.200 15.098 L 13.200 13.200 15.098 13.200 C 16.941 13.200,17.004 13.197,17.226 13.114 C 17.375 13.059,17.521 12.963,17.642 12.842 C 18.221 12.262,18.062 11.293,17.329 10.932 L 17.100 10.820 15.150 10.809 L 13.200 10.797 13.200 8.900 C 13.200 7.098,13.196 6.992,13.120 6.788 C 12.894 6.184,12.210 5.858,11.613 6.072 " fill="#1E1E1E" stroke="none" fill-rule="evenodd"></path></svg>