<svg width="24" height="24" viewBox="0 0 24 24" fill="none" xmlns="http://www.w3.org/2000/svg"><path d="M3.213 3.674 C 2.371 3.966,2.129 5.013,2.758 5.642 C 2.947 5.831,3.298 6.000,3.502 6.000 L 3.600 6.000 3.600 10.934 C 3.600 15.716,3.602 15.877,3.679 16.176 C 3.795 16.628,3.972 16.935,4.319 17.281 C 4.665 17.628,4.972 17.805,5.424 17.921 C 5.707 17.994,5.871 18.000,7.414 18.000 L 9.096 18.000 8.234 18.870 C 7.460 19.650,7.362 19.764,7.286 19.972 C 7.117 20.428,7.219 20.903,7.558 21.242 C 7.897 21.581,8.372 21.683,8.828 21.515 C 9.043 21.436,9.166 21.325,10.530 19.966 L 12.000 18.502 13.470 19.966 C 14.834 21.325,14.957 21.436,15.172 21.515 C 15.628 21.683,16.103 21.581,16.442 21.242 C 16.781 20.903,16.883 20.428,16.714 19.972 C 16.638 19.764,16.540 19.650,15.766 18.870 L 14.904 18.000 16.586 18.000 C 18.129 18.000,18.293 17.994,18.576 17.921 C 19.028 17.805,19.335 17.628,19.681 17.281 C 20.028 16.935,20.205 16.628,20.321 16.176 C 20.398 15.877,20.400 15.716,20.400 10.934 L 20.400 6.000 20.498 6.000 C 20.702 6.000,21.053 5.831,21.242 5.642 C 21.821 5.062,21.662 4.093,20.929 3.732 L 20.700 3.620 12.060 3.611 C 3.848 3.603,3.410 3.606,3.213 3.674 M17.337 7.337 C 17.755 7.541,17.978 7.910,17.979 8.400 C 17.981 8.940,18.073 8.831,15.211 11.685 C 12.797 14.094,12.648 14.235,12.428 14.315 C 12.134 14.423,11.865 14.423,11.572 14.314 C 11.364 14.238,11.250 14.140,10.470 13.366 L 9.600 12.504 8.730 13.366 C 7.950 14.140,7.836 14.238,7.628 14.314 C 7.039 14.532,6.405 14.284,6.132 13.729 C 6.040 13.540,6.020 13.448,6.020 13.200 C 6.020 12.684,6.047 12.649,7.588 11.115 C 9.089 9.623,9.093 9.620,9.600 9.620 C 10.081 9.620,10.159 9.671,11.131 10.635 L 12.001 11.497 14.051 9.453 C 15.178 8.329,16.145 7.386,16.200 7.357 C 16.562 7.171,16.983 7.164,17.337 7.337 " fill="#1E1E1E" stroke="none" fill-rule="evenodd"></path></svg>