<svg width="24" height="24" viewBox="0 0 24 24" fill="none" xmlns="http://www.w3.org/2000/svg"><path d="M9.213 1.274 C 8.919 1.376,8.667 1.596,8.533 1.870 C 8.423 2.094,8.420 2.121,8.407 2.850 L 8.394 3.600 7.087 3.601 C 5.609 3.601,5.409 3.626,4.923 3.865 C 4.509 4.069,4.065 4.512,3.865 4.920 C 3.626 5.411,3.601 5.609,3.601 7.090 L 3.600 8.400 2.927 8.400 C 2.142 8.400,1.945 8.443,1.647 8.678 C 1.359 8.906,1.220 9.205,1.220 9.600 C 1.220 10.100,1.466 10.487,1.918 10.696 C 2.078 10.770,2.189 10.782,2.850 10.793 L 3.600 10.806 3.600 12.003 L 3.600 13.200 2.927 13.200 C 2.142 13.200,1.945 13.243,1.647 13.478 C 1.359 13.706,1.220 14.005,1.220 14.400 C 1.220 14.900,1.466 15.287,1.918 15.496 C 2.078 15.570,2.189 15.582,2.850 15.593 L 3.600 15.606 3.601 16.913 C 3.601 18.391,3.626 18.590,3.866 19.080 C 4.068 19.493,4.507 19.932,4.920 20.134 C 5.410 20.374,5.609 20.399,7.087 20.399 L 8.394 20.400 8.407 21.150 C 8.420 21.877,8.423 21.907,8.532 22.127 C 8.742 22.556,9.107 22.778,9.600 22.778 C 10.093 22.778,10.458 22.556,10.668 22.127 C 10.777 21.907,10.780 21.877,10.793 21.150 L 10.806 20.400 12.000 20.400 L 13.194 20.400 13.207 21.150 C 13.220 21.877,13.223 21.907,13.332 22.127 C 13.542 22.556,13.907 22.778,14.400 22.778 C 14.893 22.778,15.258 22.556,15.468 22.127 C 15.577 21.907,15.580 21.877,15.593 21.150 L 15.606 20.400 16.913 20.399 C 18.391 20.399,18.590 20.374,19.080 20.134 C 19.493 19.932,19.932 19.493,20.134 19.080 C 20.374 18.590,20.399 18.391,20.399 16.913 L 20.400 15.606 21.150 15.593 C 21.877 15.580,21.907 15.577,22.127 15.468 C 22.556 15.258,22.778 14.894,22.779 14.400 C 22.780 14.006,22.642 13.707,22.353 13.478 C 22.055 13.243,21.858 13.200,21.073 13.200 L 20.400 13.200 20.400 12.003 L 20.400 10.806 21.150 10.793 C 21.877 10.780,21.907 10.777,22.127 10.668 C 22.556 10.458,22.778 10.094,22.779 9.600 C 22.780 9.206,22.642 8.907,22.353 8.678 C 22.055 8.443,21.858 8.400,21.073 8.400 L 20.400 8.400 20.399 7.090 C 20.399 5.609,20.374 5.411,20.135 4.920 C 19.935 4.512,19.491 4.069,19.077 3.865 C 18.591 3.626,18.391 3.601,16.913 3.601 L 15.606 3.600 15.593 2.850 C 15.580 2.119,15.577 2.094,15.466 1.868 C 15.276 1.481,14.828 1.200,14.400 1.200 C 13.972 1.200,13.524 1.481,13.334 1.868 C 13.223 2.094,13.220 2.119,13.207 2.850 L 13.194 3.600 12.000 3.600 L 10.806 3.600 10.793 2.850 C 10.780 2.119,10.777 2.094,10.666 1.868 C 10.404 1.335,9.778 1.079,9.213 1.274 M18.000 12.000 L 18.000 18.000 12.000 18.000 L 6.000 18.000 6.000 12.000 L 6.000 6.000 12.000 6.000 L 18.000 6.000 18.000 12.000 M8.400 12.000 L 8.400 15.600 12.000 15.600 L 15.600 15.600 15.600 12.000 L 15.600 8.400 12.000 8.400 L 8.400 8.400 8.400 12.000 " fill="#1E1E1E" stroke="none" fill-rule="evenodd"></path></svg>