<svg width="24" height="24" viewBox="0 0 24 24" fill="none" xmlns="http://www.w3.org/2000/svg"><path d="M8.019 2.472 C 7.634 2.605,7.372 2.874,7.260 3.254 C 7.177 3.531,7.185 3.757,7.286 4.028 C 7.359 4.224,7.453 4.342,7.888 4.784 L 8.402 5.308 8.391 7.704 L 8.380 10.100 8.288 10.300 C 8.214 10.462,7.702 10.996,5.584 13.120 C 3.986 14.722,2.909 15.833,2.811 15.980 C 2.589 16.313,2.468 16.564,2.337 16.960 C 2.233 17.274,2.225 17.350,2.222 17.940 C 2.220 18.637,2.261 18.869,2.485 19.412 C 2.723 19.989,3.250 20.635,3.778 20.999 C 4.048 21.184,4.493 21.381,4.883 21.488 L 5.220 21.580 12.000 21.580 L 18.780 21.580 19.120 21.487 C 20.411 21.135,21.330 20.198,21.704 18.855 C 21.790 18.545,21.824 17.710,21.763 17.388 C 21.663 16.859,21.486 16.426,21.189 15.980 C 21.091 15.833,20.014 14.722,18.416 13.120 C 16.298 10.996,15.786 10.462,15.712 10.300 L 15.620 10.100 15.609 7.704 L 15.598 5.308 16.112 4.784 C 16.552 4.336,16.640 4.225,16.718 4.020 C 16.897 3.544,16.746 2.989,16.353 2.678 C 15.985 2.387,16.181 2.400,11.983 2.401 C 8.516 2.403,8.204 2.408,8.019 2.472 M13.209 7.610 L 13.221 10.420 13.331 10.772 C 13.448 11.148,13.656 11.589,13.852 11.880 C 13.919 11.979,14.308 12.399,14.717 12.814 L 15.460 13.568 15.240 13.534 C 15.119 13.515,14.723 13.500,14.360 13.500 C 13.609 13.501,13.426 13.534,12.461 13.841 C 11.743 14.069,11.374 14.132,10.760 14.128 C 10.176 14.124,9.760 14.049,9.042 13.818 L 8.471 13.634 9.227 12.867 C 9.644 12.445,10.049 12.010,10.127 11.900 C 10.334 11.611,10.543 11.175,10.669 10.772 L 10.779 10.420 10.791 7.610 L 10.804 4.800 12.000 4.800 L 13.196 4.800 13.209 7.610 " fill="#1E1E1E" stroke="none" fill-rule="evenodd"></path></svg>