<svg width="24" height="24" viewBox="0 0 24 24" fill="none" xmlns="http://www.w3.org/2000/svg"><path d="M8.013 3.674 C 7.642 3.803,7.396 4.052,7.262 4.435 C 7.060 5.009,7.391 5.696,7.974 5.914 C 8.202 6.000,8.216 6.000,12.000 6.000 C 15.784 6.000,15.798 6.000,16.026 5.914 C 16.175 5.859,16.321 5.763,16.442 5.642 C 17.021 5.062,16.862 4.093,16.129 3.732 L 15.900 3.620 12.060 3.611 C 8.455 3.602,8.207 3.606,8.013 3.674 M5.608 7.276 C 5.204 7.416,4.922 7.740,4.832 8.171 C 4.741 8.603,4.919 9.078,5.274 9.348 C 5.626 9.617,5.212 9.602,12.082 9.590 L 18.300 9.580 18.527 9.468 C 18.956 9.258,19.178 8.894,19.179 8.400 C 19.180 8.006,19.042 7.707,18.753 7.478 C 18.376 7.181,18.847 7.200,11.983 7.201 C 6.118 7.203,5.810 7.206,5.608 7.276 M4.280 10.862 C 3.399 11.052,2.647 11.812,2.460 12.700 C 2.373 13.113,2.373 18.087,2.460 18.500 C 2.649 19.400,3.400 20.151,4.300 20.340 C 4.721 20.428,19.279 20.428,19.700 20.340 C 20.600 20.151,21.351 19.400,21.540 18.500 C 21.627 18.087,21.627 13.113,21.540 12.700 C 21.351 11.802,20.598 11.049,19.700 10.860 C 19.291 10.774,4.679 10.776,4.280 10.862 " fill="#1E1E1E" stroke="none" fill-rule="evenodd"></path></svg>