<svg width="24" height="24" viewBox="0 0 24 24" fill="none" xmlns="http://www.w3.org/2000/svg"><path d="M11.613 2.472 C 11.240 2.605,10.996 2.853,10.862 3.235 C 10.808 3.387,10.800 3.858,10.800 6.872 L 10.800 10.333 10.701 10.501 C 10.469 10.898,9.931 10.898,9.699 10.501 L 9.600 10.333 9.600 7.468 C 9.600 4.697,9.597 4.596,9.520 4.388 C 9.476 4.270,9.376 4.100,9.299 4.009 C 8.966 3.620,8.345 3.500,7.871 3.732 C 7.596 3.867,7.389 4.097,7.280 4.388 C 7.202 4.599,7.200 4.695,7.200 9.268 L 7.200 13.933 7.101 14.101 C 6.869 14.498,6.331 14.498,6.099 14.101 L 6.000 13.933 6.000 12.268 C 6.000 10.699,5.995 10.591,5.920 10.388 C 5.876 10.270,5.776 10.100,5.699 10.009 C 5.366 9.620,4.745 9.500,4.271 9.732 C 3.996 9.867,3.789 10.097,3.680 10.388 C 3.605 10.589,3.600 10.699,3.600 12.123 C 3.600 12.959,3.619 13.818,3.642 14.032 C 3.810 15.586,4.356 16.992,5.272 18.227 C 5.609 18.681,6.519 19.591,6.973 19.928 C 9.974 22.153,14.026 22.153,17.027 19.928 C 17.481 19.591,18.391 18.681,18.728 18.227 C 19.436 17.271,19.955 16.141,20.199 15.020 C 20.387 14.160,20.397 13.906,20.399 10.352 C 20.400 7.095,20.398 6.997,20.320 6.788 C 20.276 6.670,20.176 6.500,20.099 6.409 C 19.766 6.020,19.145 5.900,18.671 6.132 C 18.396 6.267,18.189 6.497,18.080 6.788 C 18.005 6.991,18.000 7.099,18.000 8.668 L 18.000 10.333 17.901 10.501 C 17.669 10.898,17.131 10.898,16.899 10.501 L 16.800 10.333 16.800 7.468 C 16.800 4.697,16.797 4.596,16.720 4.388 C 16.676 4.270,16.576 4.100,16.499 4.009 C 16.166 3.620,15.545 3.500,15.071 3.732 C 14.796 3.867,14.589 4.097,14.480 4.388 C 14.403 4.596,14.400 4.697,14.400 7.468 L 14.400 10.333 14.301 10.501 C 14.069 10.898,13.531 10.898,13.299 10.501 L 13.200 10.333 13.200 6.868 C 13.200 3.496,13.198 3.397,13.120 3.188 C 12.894 2.584,12.210 2.258,11.613 2.472 " fill="#1E1E1E" stroke="none" fill-rule="evenodd"></path></svg>