<svg width="24" height="24" viewBox="0 0 24 24" fill="none" xmlns="http://www.w3.org/2000/svg"><path d="M11.180 2.441 C 9.570 2.605,8.025 3.234,6.756 4.244 C 6.296 4.610,5.520 5.420,5.206 5.862 C 4.332 7.094,3.836 8.367,3.658 9.840 C 3.447 11.585,3.845 13.504,4.728 15.000 C 5.259 15.900,5.281 15.924,8.728 19.380 L 12.000 22.660 15.272 19.380 C 17.937 16.709,18.593 16.029,18.810 15.720 C 19.586 14.613,20.050 13.498,20.286 12.175 C 20.418 11.432,20.418 10.168,20.286 9.425 C 19.978 7.696,19.250 6.242,18.086 5.033 C 17.294 4.210,16.620 3.718,15.633 3.242 C 14.817 2.849,14.123 2.632,13.255 2.499 C 12.764 2.423,11.659 2.393,11.180 2.441 M12.500 8.460 C 13.400 8.649,14.151 9.400,14.340 10.300 C 14.511 11.115,14.277 11.892,13.684 12.481 C 13.335 12.828,13.026 13.006,12.576 13.121 C 12.012 13.265,11.398 13.190,10.867 12.912 C 10.502 12.721,10.049 12.254,9.866 11.880 C 9.396 10.920,9.568 9.865,10.316 9.116 C 10.911 8.522,11.685 8.289,12.500 8.460 " fill="#1E1E1E" stroke="none" fill-rule="evenodd"></path></svg>