<svg width="24" height="24" viewBox="0 0 24 24" fill="none" xmlns="http://www.w3.org/2000/svg"><path d="M11.320 2.423 C 11.243 2.432,11.013 2.459,10.808 2.483 C 8.508 2.751,6.197 3.988,4.729 5.739 C 3.496 7.208,2.782 8.773,2.493 10.640 C 2.394 11.282,2.394 12.718,2.493 13.360 C 3.154 17.630,6.370 20.846,10.640 21.507 C 11.282 21.606,12.718 21.606,13.360 21.507 C 15.173 21.226,16.839 20.473,18.220 19.308 C 19.737 18.029,20.852 16.214,21.333 14.240 C 21.526 13.450,21.578 12.972,21.578 12.000 C 21.578 11.336,21.560 10.979,21.507 10.640 C 21.039 7.618,19.289 5.083,16.658 3.615 C 15.639 3.046,14.573 2.686,13.360 2.501 C 12.960 2.440,11.616 2.389,11.320 2.423 M8.937 8.537 C 9.355 8.741,9.578 9.110,9.579 9.600 C 9.580 9.849,9.561 9.939,9.468 10.129 C 9.333 10.404,9.103 10.611,8.812 10.720 C 7.930 11.050,7.019 10.243,7.238 9.327 C 7.419 8.574,8.236 8.194,8.937 8.537 M16.137 8.537 C 16.555 8.741,16.778 9.110,16.779 9.600 C 16.780 9.849,16.761 9.939,16.668 10.129 C 16.533 10.404,16.303 10.611,16.012 10.720 C 15.130 11.050,14.219 10.243,14.438 9.327 C 14.619 8.574,15.436 8.194,16.137 8.537 M13.160 13.319 C 14.280 13.547,15.369 14.112,16.142 14.868 C 16.469 15.188,16.574 15.414,16.577 15.800 C 16.579 16.050,16.560 16.139,16.468 16.327 C 16.279 16.713,15.924 16.956,15.498 16.990 C 15.110 17.021,14.878 16.932,14.488 16.602 C 14.057 16.238,13.864 16.106,13.510 15.939 C 13.005 15.699,12.660 15.628,12.000 15.628 C 11.340 15.628,10.995 15.699,10.490 15.939 C 10.138 16.105,9.943 16.238,9.519 16.596 C 9.130 16.926,8.884 17.021,8.504 16.990 C 8.076 16.956,7.721 16.714,7.532 16.327 C 7.382 16.022,7.378 15.598,7.521 15.302 C 7.773 14.780,8.926 13.945,9.903 13.577 C 10.245 13.449,10.895 13.291,11.284 13.242 C 11.752 13.183,12.678 13.221,13.160 13.319 " fill="#1E1E1E" stroke="none" fill-rule="evenodd"></path></svg>