<svg width="24" height="24" viewBox="0 0 24 24" fill="none" xmlns="http://www.w3.org/2000/svg"><path d="M5.480 3.662 C 4.599 3.852,3.847 4.612,3.660 5.500 C 3.573 5.917,3.573 13.283,3.660 13.700 C 3.849 14.600,4.600 15.351,5.500 15.540 C 5.654 15.572,5.830 15.599,5.890 15.599 L 6.000 15.600 6.000 10.800 L 6.000 6.000 10.800 6.000 L 15.600 6.000 15.599 5.890 C 15.599 5.830,15.572 5.654,15.540 5.500 C 15.351 4.602,14.598 3.849,13.700 3.660 C 13.295 3.575,5.876 3.577,5.480 3.662 M10.280 8.462 C 9.843 8.557,9.460 8.772,9.119 9.116 C 8.772 9.465,8.594 9.774,8.479 10.224 C 8.403 10.521,8.400 10.680,8.400 14.400 C 8.400 18.120,8.403 18.279,8.479 18.576 C 8.595 19.028,8.772 19.335,9.119 19.681 C 9.465 20.028,9.772 20.205,10.224 20.321 C 10.521 20.397,10.680 20.400,14.400 20.400 C 18.120 20.400,18.279 20.397,18.576 20.321 C 19.028 20.205,19.335 20.028,19.681 19.681 C 20.028 19.335,20.205 19.028,20.321 18.576 C 20.397 18.279,20.400 18.120,20.400 14.400 C 20.400 10.680,20.397 10.521,20.321 10.224 C 20.206 9.774,20.028 9.465,19.681 9.116 C 19.334 8.767,18.954 8.555,18.500 8.460 C 18.095 8.375,10.676 8.377,10.280 8.462 " fill="#1E1E1E" stroke="none" fill-rule="evenodd"></path></svg>