<svg width="24" height="24" viewBox="0 0 24 24" fill="none" xmlns="http://www.w3.org/2000/svg"><path d="M11.200 2.458 C 10.483 2.561,9.933 2.732,9.320 3.040 C 7.901 3.753,6.815 4.996,6.321 6.472 C 6.045 7.296,6.030 7.420,6.011 9.190 L 5.993 10.800 5.887 10.801 C 5.657 10.802,5.206 10.926,4.920 11.066 C 4.700 11.174,4.540 11.293,4.319 11.516 C 3.972 11.865,3.794 12.174,3.679 12.624 C 3.603 12.919,3.600 13.077,3.600 16.200 C 3.600 19.323,3.603 19.481,3.679 19.776 C 3.795 20.228,3.972 20.535,4.319 20.881 C 4.665 21.228,4.972 21.405,5.424 21.521 C 5.725 21.598,5.890 21.600,12.000 21.600 C 18.110 21.600,18.275 21.598,18.576 21.521 C 19.028 21.405,19.335 21.228,19.681 20.881 C 20.028 20.535,20.205 20.228,20.321 19.776 C 20.397 19.481,20.400 19.323,20.400 16.200 C 20.400 13.077,20.397 12.919,20.321 12.624 C 20.206 12.174,20.028 11.865,19.681 11.516 C 19.460 11.293,19.300 11.174,19.080 11.066 C 18.518 10.791,18.755 10.801,13.307 10.801 L 8.394 10.800 8.410 9.310 C 8.424 7.926,8.431 7.797,8.513 7.500 C 8.864 6.227,9.837 5.254,11.100 4.915 C 11.525 4.802,12.405 4.789,12.813 4.892 C 13.860 5.154,14.738 5.847,15.212 6.785 C 15.269 6.897,15.373 7.158,15.443 7.365 C 15.591 7.801,15.730 8.020,15.953 8.175 C 16.448 8.519,17.077 8.457,17.504 8.022 C 17.877 7.642,17.931 7.242,17.702 6.544 C 17.025 4.478,15.309 2.957,13.160 2.519 C 12.620 2.409,11.727 2.381,11.200 2.458 " fill="#1E1E1E" stroke="none" fill-rule="evenodd"></path></svg>