<svg width="24" height="24" viewBox="0 0 24 24" fill="none" xmlns="http://www.w3.org/2000/svg"><path d="M4.280 3.662 C 3.843 3.757,3.460 3.972,3.119 4.316 C 2.772 4.665,2.594 4.974,2.479 5.424 C 2.402 5.725,2.400 5.890,2.400 12.000 C 2.400 18.110,2.402 18.275,2.479 18.576 C 2.595 19.028,2.772 19.335,3.119 19.681 C 3.465 20.028,3.772 20.205,4.224 20.321 C 4.526 20.398,4.690 20.400,11.716 20.398 C 18.867 20.396,18.899 20.395,18.608 20.319 C 18.172 20.205,17.860 20.023,17.516 19.681 C 17.293 19.460,17.174 19.300,17.066 19.080 C 16.787 18.511,16.801 18.895,16.801 11.976 C 16.800 5.891,16.798 5.725,16.721 5.424 C 16.606 4.974,16.428 4.665,16.081 4.316 C 15.734 3.967,15.354 3.755,14.900 3.660 C 14.493 3.575,4.677 3.577,4.280 3.662 M13.200 9.600 L 13.200 12.000 9.600 12.000 L 6.000 12.000 6.000 9.600 L 6.000 7.200 9.600 7.200 L 13.200 7.200 13.200 9.600 M18.000 12.978 C 18.000 16.178,18.013 17.620,18.044 17.768 C 18.152 18.281,18.520 18.758,18.994 18.997 C 19.860 19.434,20.930 19.097,21.372 18.248 C 21.448 18.101,21.531 17.885,21.556 17.768 C 21.586 17.622,21.600 16.472,21.599 14.068 C 21.599 10.194,21.603 10.270,21.335 9.720 C 21.135 9.312,20.691 8.869,20.277 8.665 C 19.846 8.453,19.541 8.402,18.710 8.401 L 18.000 8.400 18.000 12.978 M13.200 15.600 L 13.200 16.800 9.600 16.800 L 6.000 16.800 6.000 15.600 L 6.000 14.400 9.600 14.400 L 13.200 14.400 13.200 15.600 " fill="#1E1E1E" stroke="none" fill-rule="evenodd"></path></svg>