<svg width="24" height="24" viewBox="0 0 24 24" fill="none" xmlns="http://www.w3.org/2000/svg"><path d="M4.280 2.462 C 3.400 2.652,2.659 3.397,2.461 4.290 C 2.404 4.551,2.399 5.285,2.409 11.600 L 2.420 18.620 2.532 18.978 C 2.919 20.214,3.798 21.092,5.022 21.465 C 5.346 21.564,5.439 21.574,6.000 21.574 C 6.561 21.574,6.654 21.564,6.978 21.465 C 8.202 21.092,9.081 20.214,9.468 18.978 L 9.580 18.620 9.591 11.600 C 9.601 5.285,9.596 4.551,9.539 4.290 C 9.339 3.387,8.597 2.649,7.700 2.460 C 7.309 2.378,4.663 2.380,4.280 2.462 M14.020 5.467 C 13.460 5.593,13.099 5.817,12.473 6.430 L 12.000 6.893 12.000 11.997 L 12.001 17.100 15.051 14.040 C 18.216 10.864,18.257 10.820,18.448 10.297 C 18.568 9.968,18.594 9.282,18.500 8.920 C 18.350 8.337,18.243 8.198,17.023 6.977 C 15.808 5.762,15.661 5.650,15.094 5.503 C 14.865 5.444,14.219 5.423,14.020 5.467 M14.500 18.000 L 10.900 21.600 15.160 21.599 C 19.887 21.599,19.723 21.607,20.280 21.334 C 20.693 21.132,21.132 20.693,21.334 20.280 C 21.578 19.783,21.599 19.602,21.599 18.000 C 21.599 16.399,21.578 16.218,21.335 15.720 C 21.135 15.312,20.691 14.869,20.277 14.665 C 19.853 14.457,19.538 14.402,18.760 14.401 L 18.100 14.400 14.500 18.000 M6.537 16.937 C 6.955 17.141,7.178 17.510,7.179 18.000 C 7.180 18.249,7.161 18.339,7.068 18.529 C 6.933 18.804,6.703 19.011,6.412 19.120 C 5.530 19.450,4.619 18.643,4.838 17.727 C 5.019 16.974,5.836 16.594,6.537 16.937 " fill="#1E1E1E" stroke="none" fill-rule="evenodd"></path></svg>