<svg width="24" height="24" viewBox="0 0 24 24" fill="none" xmlns="http://www.w3.org/2000/svg"><path d="M11.613 2.472 C 11.240 2.605,10.996 2.853,10.862 3.235 C 10.814 3.370,10.800 3.592,10.800 4.204 C 10.800 5.148,10.845 5.329,11.158 5.642 C 11.629 6.112,12.371 6.112,12.842 5.642 C 13.155 5.328,13.200 5.149,13.200 4.200 C 13.200 3.297,13.161 3.115,12.899 2.809 C 12.604 2.465,12.043 2.318,11.613 2.472 M5.528 5.002 C 5.104 5.214,4.881 5.579,4.880 6.064 C 4.880 6.509,5.001 6.709,5.669 7.365 C 6.319 8.003,6.472 8.093,6.896 8.093 C 7.588 8.093,8.091 7.590,8.093 6.896 C 8.094 6.472,8.003 6.320,7.365 5.669 C 6.708 5.000,6.510 4.880,6.060 4.880 C 5.820 4.880,5.733 4.900,5.528 5.002 M17.414 4.999 C 17.234 5.089,17.044 5.253,16.635 5.669 C 15.997 6.320,15.906 6.472,15.907 6.896 C 15.909 7.588,16.413 8.094,17.100 8.092 C 17.527 8.091,17.684 7.999,18.331 7.364 C 19.000 6.708,19.120 6.510,19.120 6.060 C 19.120 5.379,18.620 4.881,17.936 4.880 C 17.701 4.880,17.612 4.900,17.414 4.999 M11.380 7.246 C 9.824 7.444,8.423 8.444,7.706 9.869 C 7.368 10.538,7.232 11.129,7.225 11.940 C 7.218 12.844,7.368 13.486,7.757 14.226 C 8.033 14.751,8.337 15.133,8.882 15.643 C 9.374 16.104,9.524 16.319,9.582 16.650 L 9.609 16.800 12.000 16.800 L 14.391 16.800 14.419 16.650 C 14.481 16.310,14.593 16.153,15.177 15.581 C 15.767 15.003,16.022 14.672,16.297 14.126 C 16.477 13.769,16.651 13.244,16.725 12.840 C 16.800 12.426,16.789 11.425,16.705 11.046 C 16.490 10.081,16.064 9.297,15.384 8.616 C 14.324 7.557,12.863 7.057,11.380 7.246 M3.213 10.874 C 2.919 10.976,2.667 11.196,2.533 11.470 C 2.439 11.661,2.420 11.751,2.421 12.000 C 2.422 12.494,2.644 12.858,3.073 13.068 L 3.300 13.180 4.200 13.180 C 5.201 13.180,5.295 13.160,5.610 12.883 C 5.983 12.556,6.095 11.935,5.866 11.468 C 5.728 11.187,5.447 10.949,5.150 10.861 C 4.836 10.768,3.495 10.777,3.213 10.874 M18.813 10.874 C 18.519 10.976,18.267 11.196,18.133 11.470 C 18.039 11.661,18.020 11.751,18.021 12.000 C 18.022 12.494,18.244 12.858,18.673 13.068 L 18.900 13.180 19.800 13.180 C 20.801 13.180,20.895 13.160,21.210 12.883 C 21.583 12.556,21.695 11.935,21.466 11.468 C 21.328 11.187,21.047 10.949,20.750 10.861 C 20.436 10.768,19.095 10.777,18.813 10.874 M9.601 18.710 C 9.601 19.178,9.621 19.515,9.660 19.700 C 9.887 20.779,10.896 21.599,12.000 21.599 C 13.104 21.599,14.113 20.779,14.340 19.700 C 14.379 19.515,14.399 19.178,14.399 18.710 L 14.400 18.000 12.000 18.000 L 9.600 18.000 9.601 18.710 " fill="#1E1E1E" stroke="none" fill-rule="evenodd"></path></svg>