<svg width="24" height="24" viewBox="0 0 24 24" fill="none" xmlns="http://www.w3.org/2000/svg"><path d="M4.280 4.862 C 3.843 4.957,3.460 5.172,3.119 5.516 C 2.772 5.865,2.594 6.174,2.479 6.624 C 2.402 6.923,2.400 7.083,2.400 11.676 C 2.401 16.770,2.394 16.593,2.604 17.030 C 2.654 17.134,2.804 17.329,2.938 17.462 C 3.874 18.399,5.429 18.054,5.893 16.807 C 5.970 16.598,5.979 16.469,6.003 15.200 C 6.026 13.960,6.037 13.788,6.115 13.500 C 6.457 12.235,7.418 11.272,8.700 10.911 L 9.020 10.821 14.110 10.809 L 19.200 10.798 19.200 10.065 C 19.200 9.234,19.140 8.903,18.912 8.467 C 18.721 8.102,18.254 7.649,17.880 7.466 C 17.347 7.205,17.306 7.201,14.520 7.201 L 12.019 7.200 10.820 6.000 L 9.621 4.800 7.080 4.803 C 5.062 4.806,4.487 4.818,4.280 4.862 M9.080 12.062 C 8.199 12.252,7.447 13.012,7.260 13.900 C 7.215 14.116,7.201 14.509,7.201 15.624 C 7.200 16.929,7.192 17.097,7.121 17.376 C 6.892 18.272,6.154 18.980,5.260 19.159 C 5.172 19.177,8.322 19.193,12.260 19.195 C 18.415 19.198,19.459 19.190,19.700 19.140 C 20.600 18.951,21.351 18.200,21.540 17.300 C 21.624 16.897,21.624 14.303,21.540 13.900 C 21.351 13.002,20.598 12.249,19.700 12.060 C 19.293 11.975,9.477 11.977,9.080 12.062 " fill="#1E1E1E" stroke="none" fill-rule="evenodd"></path></svg>