<svg width="24" height="24" viewBox="0 0 24 24" fill="none" xmlns="http://www.w3.org/2000/svg"><path d="M11.320 2.423 C 11.243 2.432,11.013 2.459,10.808 2.483 C 8.508 2.751,6.197 3.988,4.729 5.739 C 3.496 7.208,2.782 8.773,2.493 10.640 C 2.394 11.282,2.394 12.718,2.493 13.360 C 3.154 17.630,6.370 20.846,10.640 21.507 C 11.282 21.606,12.718 21.606,13.360 21.507 C 15.173 21.226,16.839 20.473,18.220 19.308 C 19.737 18.029,20.852 16.214,21.333 14.240 C 21.526 13.450,21.578 12.972,21.578 12.000 C 21.578 11.336,21.560 10.979,21.507 10.640 C 21.039 7.618,19.289 5.083,16.658 3.615 C 15.639 3.046,14.573 2.686,13.360 2.501 C 12.960 2.440,11.616 2.389,11.320 2.423 M12.530 7.334 C 12.697 7.416,13.136 7.834,14.685 9.388 C 16.851 11.562,16.780 11.473,16.780 12.020 C 16.780 12.853,15.964 13.408,15.172 13.114 C 14.964 13.038,14.850 12.940,14.071 12.168 L 13.203 11.307 13.191 13.603 L 13.180 15.900 13.068 16.129 C 12.933 16.404,12.703 16.611,12.412 16.720 C 11.842 16.933,11.202 16.677,10.932 16.129 L 10.820 15.900 10.809 13.603 L 10.797 11.307 9.929 12.168 C 9.150 12.940,9.036 13.038,8.828 13.114 C 8.239 13.332,7.605 13.084,7.332 12.529 C 7.242 12.344,7.220 12.246,7.220 12.020 C 7.220 11.473,7.151 11.560,9.295 9.408 C 10.354 8.345,11.280 7.438,11.353 7.393 C 11.702 7.175,12.160 7.152,12.530 7.334 " fill="#1E1E1E" stroke="none" fill-rule="evenodd"></path></svg>