<svg width="24" height="24" viewBox="0 0 24 24" fill="none" xmlns="http://www.w3.org/2000/svg"><path d="M11.320 2.423 C 11.243 2.432,11.013 2.459,10.808 2.483 C 8.508 2.751,6.197 3.988,4.729 5.739 C 3.496 7.208,2.782 8.773,2.493 10.640 C 2.394 11.282,2.394 12.718,2.493 13.360 C 3.154 17.630,6.370 20.846,10.640 21.507 C 11.282 21.606,12.718 21.606,13.360 21.507 C 15.173 21.226,16.839 20.473,18.220 19.308 C 19.737 18.029,20.852 16.214,21.333 14.240 C 21.526 13.450,21.578 12.972,21.578 12.000 C 21.578 11.336,21.560 10.979,21.507 10.640 C 21.039 7.618,19.289 5.083,16.658 3.615 C 15.639 3.046,14.573 2.686,13.360 2.501 C 12.960 2.440,11.616 2.389,11.320 2.423 M12.237 4.878 C 12.562 5.044,12.945 5.529,13.279 6.197 C 13.819 7.276,14.165 8.687,14.341 10.530 L 14.366 10.800 12.000 10.800 L 9.634 10.800 9.659 10.530 C 9.869 8.330,10.334 6.699,11.067 5.590 C 11.371 5.131,11.752 4.806,11.992 4.802 C 12.042 4.801,12.152 4.835,12.237 4.878 M8.071 6.330 C 7.661 7.514,7.364 9.012,7.257 10.430 L 7.230 10.800 6.075 10.800 C 4.960 10.800,4.920 10.797,4.920 10.723 C 4.920 10.584,5.152 9.743,5.277 9.428 C 5.752 8.231,6.511 7.183,7.454 6.421 C 7.689 6.230,8.171 5.884,8.203 5.882 C 8.216 5.881,8.156 6.083,8.071 6.330 M16.075 6.067 C 17.303 6.934,18.169 8.033,18.723 9.428 C 18.848 9.743,19.080 10.584,19.080 10.723 C 19.080 10.797,19.040 10.800,17.925 10.800 L 16.770 10.800 16.743 10.430 C 16.635 9.005,16.332 7.479,15.927 6.330 C 15.840 6.083,15.778 5.880,15.789 5.880 C 15.801 5.880,15.929 5.964,16.075 6.067 M7.257 13.570 C 7.364 14.988,7.661 16.486,8.071 17.670 C 8.156 17.918,8.220 18.120,8.211 18.120 C 8.176 18.120,7.707 17.786,7.472 17.594 C 6.495 16.797,5.757 15.780,5.277 14.572 C 5.152 14.257,4.920 13.416,4.920 13.277 C 4.920 13.203,4.960 13.200,6.075 13.200 L 7.230 13.200 7.257 13.570 M14.341 13.470 C 14.120 15.779,13.597 17.528,12.813 18.578 C 12.360 19.184,12.013 19.319,11.625 19.040 C 11.246 18.767,10.744 17.969,10.424 17.131 C 10.055 16.164,9.800 14.943,9.659 13.470 L 9.634 13.200 12.000 13.200 L 14.366 13.200 14.341 13.470 M19.080 13.277 C 19.080 13.416,18.848 14.257,18.723 14.572 C 18.255 15.751,17.564 16.718,16.631 17.502 C 16.319 17.765,15.833 18.120,15.786 18.120 C 15.777 18.120,15.840 17.918,15.927 17.670 C 16.332 16.521,16.635 14.995,16.743 13.570 L 16.770 13.200 17.925 13.200 C 19.040 13.200,19.080 13.203,19.080 13.277 " fill="#1E1E1E" stroke="none" fill-rule="evenodd"></path></svg>