<svg width="24" height="24" viewBox="0 0 24 24" fill="none" xmlns="http://www.w3.org/2000/svg"><path d="M3.213 1.274 C 2.372 1.565,2.129 2.613,2.758 3.242 C 3.074 3.558,3.248 3.600,4.232 3.600 L 5.060 3.600 6.064 7.616 L 7.068 11.633 6.491 12.206 C 5.651 13.041,5.467 13.322,5.336 13.966 C 5.183 14.725,5.438 15.524,6.018 16.100 C 6.345 16.425,6.668 16.609,7.104 16.721 C 7.404 16.798,7.566 16.800,12.805 16.800 L 18.197 16.800 18.426 16.714 C 18.575 16.659,18.721 16.563,18.842 16.442 C 19.421 15.862,19.262 14.893,18.529 14.532 L 18.300 14.420 13.009 14.400 L 7.719 14.380 8.309 13.791 L 8.900 13.201 13.000 13.191 L 17.100 13.180 17.327 13.068 C 17.452 13.007,17.611 12.893,17.679 12.815 C 17.749 12.736,18.644 10.993,19.690 8.899 C 21.491 5.295,21.577 5.115,21.592 4.873 C 21.621 4.392,21.362 3.945,20.929 3.732 L 20.700 3.620 14.120 3.610 L 7.540 3.599 7.332 2.773 C 7.103 1.865,7.014 1.671,6.727 1.452 C 6.416 1.215,6.297 1.200,4.783 1.201 C 3.581 1.202,3.396 1.211,3.213 1.274 M7.371 18.062 C 6.662 18.253,6.155 18.803,6.033 19.514 C 5.905 20.257,6.285 21.023,6.956 21.375 C 8.053 21.952,9.358 21.306,9.568 20.081 C 9.781 18.840,8.580 17.736,7.371 18.062 M16.971 18.062 C 16.262 18.253,15.755 18.803,15.633 19.514 C 15.505 20.257,15.885 21.023,16.556 21.375 C 17.653 21.952,18.958 21.306,19.168 20.081 C 19.381 18.840,18.180 17.736,16.971 18.062 " fill="#1E1E1E" stroke="none" fill-rule="evenodd"></path></svg>