<svg width="24" height="24" viewBox="0 0 24 24" fill="none" xmlns="http://www.w3.org/2000/svg"><path d="M11.613 3.672 C 11.240 3.805,10.996 4.053,10.862 4.435 C 10.808 4.587,10.800 5.022,10.800 7.704 L 10.800 10.798 7.650 10.809 L 4.500 10.820 4.271 10.932 C 3.538 11.293,3.379 12.262,3.958 12.842 C 4.079 12.963,4.225 13.059,4.374 13.114 C 4.601 13.199,4.632 13.200,7.702 13.200 L 10.800 13.200 10.800 16.298 C 10.800 19.368,10.801 19.399,10.886 19.626 C 11.052 20.072,11.525 20.400,12.000 20.400 C 12.475 20.400,12.948 20.072,13.114 19.626 C 13.199 19.399,13.200 19.368,13.200 16.298 L 13.200 13.200 16.298 13.200 C 19.368 13.200,19.399 13.199,19.626 13.114 C 19.775 13.059,19.921 12.963,20.042 12.842 C 20.621 12.262,20.462 11.293,19.729 10.932 L 19.500 10.820 16.350 10.809 L 13.200 10.798 13.200 7.701 C 13.200 4.697,13.198 4.596,13.120 4.388 C 12.894 3.784,12.210 3.458,11.613 3.672 " fill="#1E1E1E" stroke="none" fill-rule="evenodd"></path></svg>