<svg width="24" height="24" viewBox="0 0 24 24" fill="none" xmlns="http://www.w3.org/2000/svg"><path d="M13.413 2.472 C 12.211 2.901,11.102 5.217,10.302 8.967 C 10.095 9.939,9.720 12.230,9.720 12.526 C 9.720 12.650,9.110 12.093,8.855 11.736 C 8.372 11.058,8.182 10.267,8.122 8.680 C 8.087 7.738,8.065 7.639,7.820 7.339 C 7.529 6.981,6.979 6.830,6.515 6.980 C 6.332 7.039,6.237 7.114,5.880 7.476 C 4.450 8.927,3.602 11.056,3.602 13.200 C 3.602 14.972,4.139 16.625,5.205 18.140 C 5.537 18.611,6.589 19.663,7.060 19.995 C 8.664 21.124,10.429 21.660,12.300 21.588 C 13.982 21.523,15.514 20.999,16.920 20.009 C 17.423 19.655,18.455 18.623,18.809 18.120 C 19.583 17.022,20.050 15.900,20.286 14.575 C 20.418 13.832,20.418 12.568,20.286 11.825 C 20.049 10.497,19.575 9.361,18.808 8.283 C 18.661 8.075,18.171 7.519,17.720 7.047 C 16.268 5.527,15.918 5.052,15.081 3.464 C 14.919 3.159,14.735 2.849,14.671 2.776 C 14.396 2.463,13.825 2.325,13.413 2.472 M13.528 11.888 C 13.659 12.079,13.999 12.482,14.284 12.784 C 15.016 13.559,15.298 14.009,15.485 14.700 C 15.609 15.158,15.609 16.042,15.485 16.500 C 15.149 17.739,14.223 18.685,12.972 19.067 C 12.655 19.163,12.559 19.174,12.000 19.174 C 11.441 19.174,11.345 19.163,11.028 19.067 C 9.560 18.619,8.560 17.408,8.420 15.912 L 8.391 15.604 8.683 15.727 C 9.273 15.975,10.444 16.200,11.143 16.200 L 11.387 16.200 11.436 15.630 C 11.534 14.502,11.837 12.997,12.144 12.115 C 12.332 11.575,12.527 11.194,12.728 10.976 L 12.892 10.798 13.091 11.169 C 13.200 11.373,13.397 11.696,13.528 11.888 " fill="#1E1E1E" stroke="none" fill-rule="evenodd"></path></svg>