<svg width="24" height="24" viewBox="0 0 24 24" fill="none" xmlns="http://www.w3.org/2000/svg"><path d="M3.219 2.470 C 2.690 2.659,2.368 3.137,2.408 3.677 C 2.443 4.173,1.902 3.605,11.189 12.886 C 19.431 21.123,19.748 21.434,19.972 21.516 C 20.429 21.683,20.903 21.580,21.242 21.242 C 21.581 20.903,21.683 20.428,21.515 19.972 C 21.437 19.762,21.337 19.647,20.456 18.759 L 19.482 17.779 19.730 17.579 C 20.115 17.270,20.948 16.422,21.303 15.978 C 22.198 14.860,22.880 13.648,23.301 12.431 L 23.448 12.005 23.359 11.732 C 22.544 9.237,20.713 6.918,18.400 5.454 C 15.045 3.330,10.805 3.017,7.161 4.624 L 6.581 4.880 5.441 3.742 C 4.196 2.500,4.121 2.444,3.662 2.414 C 3.496 2.403,3.357 2.420,3.219 2.470 M12.954 7.298 C 13.897 7.498,14.701 7.934,15.384 8.616 C 16.063 9.296,16.488 10.077,16.705 11.046 C 16.808 11.504,16.800 12.512,16.690 13.005 C 16.601 13.409,16.432 13.876,16.248 14.230 L 16.139 14.440 15.228 13.528 L 14.316 12.615 14.357 12.438 C 14.461 11.987,14.360 11.340,14.112 10.867 C 13.921 10.502,13.454 10.049,13.080 9.866 C 12.596 9.629,12.075 9.550,11.596 9.641 L 11.382 9.681 10.471 8.771 L 9.560 7.861 9.830 7.724 C 10.327 7.473,10.808 7.329,11.500 7.224 C 11.731 7.189,12.663 7.237,12.954 7.298 M2.677 8.050 C 1.785 9.173,1.121 10.364,0.676 11.638 L 0.550 12.001 0.700 12.428 C 1.579 14.922,3.328 17.105,5.600 18.546 C 7.703 19.879,10.247 20.532,12.710 20.369 C 13.365 20.326,14.380 20.182,14.770 20.077 L 14.933 20.033 13.317 18.419 L 11.700 16.804 11.366 16.760 C 10.662 16.666,9.812 16.334,9.242 15.930 C 8.190 15.186,7.455 13.995,7.257 12.716 L 7.193 12.300 5.007 10.110 C 3.804 8.905,2.811 7.920,2.800 7.920 C 2.789 7.920,2.734 7.979,2.677 8.050 " fill="#1E1E1E" stroke="none" fill-rule="evenodd"></path></svg>