<svg width="24" height="24" viewBox="0 0 24 24" fill="none" xmlns="http://www.w3.org/2000/svg"><path d="M5.619 4.870 C 5.090 5.059,4.768 5.537,4.808 6.077 C 4.842 6.555,4.765 6.469,8.189 9.885 C 11.223 12.914,11.349 13.034,11.580 13.119 C 11.758 13.184,11.883 13.203,12.062 13.192 C 12.554 13.162,12.450 13.254,15.885 9.811 C 18.877 6.814,19.035 6.649,19.115 6.428 C 19.331 5.837,19.083 5.205,18.529 4.932 C 18.344 4.842,18.246 4.820,18.020 4.820 C 17.462 4.820,17.640 4.671,14.670 7.634 L 12.000 10.299 9.350 7.651 C 7.163 5.466,6.665 4.988,6.502 4.916 C 6.232 4.797,5.874 4.778,5.619 4.870 M5.619 12.070 C 5.090 12.259,4.768 12.737,4.808 13.277 C 4.842 13.755,4.765 13.669,8.189 17.085 C 11.223 20.114,11.349 20.234,11.580 20.319 C 11.758 20.384,11.883 20.403,12.062 20.392 C 12.554 20.362,12.450 20.454,15.885 17.011 C 18.877 14.014,19.035 13.849,19.115 13.628 C 19.331 13.037,19.083 12.405,18.529 12.132 C 18.344 12.042,18.246 12.020,18.020 12.020 C 17.462 12.020,17.640 11.871,14.670 14.834 L 12.000 17.499 9.350 14.851 C 7.163 12.666,6.665 12.188,6.502 12.116 C 6.232 11.997,5.874 11.978,5.619 12.070 " fill="#1E1E1E" stroke="none" fill-rule="evenodd"></path></svg>