<svg width="24" height="24" viewBox="0 0 24 24" fill="none" xmlns="http://www.w3.org/2000/svg"><path d="M11.613 2.472 C 11.240 2.605,10.996 2.853,10.862 3.235 C 10.807 3.390,10.800 4.216,10.800 10.454 L 10.800 17.499 8.130 14.834 C 5.160 11.871,5.338 12.020,4.780 12.020 C 3.948 12.020,3.394 12.833,3.685 13.628 C 3.765 13.849,3.940 14.031,7.515 17.611 C 11.603 21.707,11.442 21.561,11.938 21.592 C 12.117 21.603,12.242 21.584,12.420 21.519 C 12.652 21.434,12.787 21.304,16.411 17.685 C 19.533 14.568,20.181 13.903,20.270 13.722 C 20.561 13.130,20.320 12.423,19.729 12.132 C 19.544 12.042,19.446 12.020,19.220 12.020 C 18.662 12.020,18.840 11.871,15.870 14.834 L 13.200 17.499 13.200 10.451 C 13.200 3.492,13.199 3.400,13.120 3.188 C 12.894 2.584,12.210 2.258,11.613 2.472 " fill="#1E1E1E" stroke="none" fill-rule="evenodd"></path></svg>