<svg width="24" height="24" viewBox="0 0 24 24" fill="none" xmlns="http://www.w3.org/2000/svg"><path d="M3.213 3.672 C 2.840 3.805,2.596 4.053,2.462 4.435 C 2.407 4.590,2.400 5.451,2.400 12.004 L 2.400 19.397 2.486 19.626 C 2.652 20.072,3.125 20.400,3.600 20.400 C 4.075 20.400,4.548 20.072,4.714 19.626 L 4.800 19.397 4.800 12.000 C 4.800 4.691,4.799 4.600,4.720 4.388 C 4.494 3.784,3.810 3.458,3.213 3.672 M11.653 7.255 C 11.561 7.285,11.426 7.347,11.353 7.393 C 11.280 7.438,10.354 8.345,9.295 9.408 C 7.466 11.243,7.365 11.352,7.281 11.580 C 7.216 11.758,7.197 11.883,7.208 12.062 C 7.237 12.538,7.251 12.555,9.388 14.685 C 11.220 16.511,11.354 16.636,11.572 16.715 C 12.029 16.883,12.503 16.781,12.842 16.442 C 13.181 16.103,13.283 15.628,13.114 15.172 C 13.038 14.964,12.940 14.850,12.166 14.070 L 11.304 13.200 15.950 13.200 L 20.597 13.200 20.826 13.114 C 20.975 13.059,21.121 12.963,21.242 12.842 C 21.821 12.262,21.662 11.293,20.929 10.932 L 20.700 10.820 16.003 10.809 L 11.305 10.799 12.167 9.929 C 12.940 9.150,13.038 9.036,13.114 8.828 C 13.399 8.060,12.884 7.265,12.070 7.216 C 11.925 7.207,11.750 7.223,11.653 7.255 " fill="#1E1E1E" stroke="none" fill-rule="evenodd"></path></svg>