<svg width="24" height="24" viewBox="0 0 24 24" fill="none" xmlns="http://www.w3.org/2000/svg"><path d="M6.680 2.462 C 6.243 2.557,5.860 2.772,5.519 3.116 C 5.172 3.465,4.994 3.774,4.879 4.224 C 4.802 4.526,4.800 4.695,4.800 12.000 C 4.800 19.305,4.802 19.474,4.879 19.776 C 4.995 20.228,5.172 20.535,5.519 20.881 C 5.865 21.228,6.172 21.405,6.624 21.521 C 6.924 21.598,7.085 21.600,12.000 21.600 C 16.915 21.600,17.076 21.598,17.376 21.521 C 17.826 21.406,18.135 21.228,18.483 20.881 C 18.699 20.667,18.828 20.496,18.930 20.290 C 19.218 19.712,19.204 20.046,19.191 13.920 L 19.180 8.420 19.073 8.128 C 19.014 7.967,18.894 7.724,18.804 7.588 C 18.586 7.254,14.307 2.981,14.000 2.791 C 13.690 2.599,13.416 2.491,13.117 2.442 C 12.954 2.416,11.780 2.402,9.900 2.403 C 7.521 2.406,6.889 2.417,6.680 2.462 M16.137 8.537 C 16.385 8.658,16.574 8.855,16.696 9.118 C 16.780 9.300,16.780 9.309,16.780 13.800 L 16.780 18.300 16.668 18.529 C 16.398 19.077,15.758 19.333,15.188 19.120 C 14.897 19.011,14.667 18.804,14.532 18.529 L 14.420 18.300 14.408 13.920 C 14.399 10.836,14.408 9.479,14.439 9.335 C 14.601 8.583,15.433 8.192,16.137 8.537 M12.537 10.937 C 12.785 11.058,12.974 11.255,13.096 11.518 C 13.179 11.698,13.180 11.729,13.180 15.000 L 13.180 18.300 13.068 18.529 C 12.933 18.804,12.703 19.011,12.412 19.120 C 11.842 19.333,11.202 19.077,10.932 18.529 L 10.820 18.300 10.808 15.120 C 10.799 12.904,10.808 11.878,10.839 11.735 C 11.002 10.983,11.833 10.592,12.537 10.937 M8.937 13.337 C 9.185 13.458,9.374 13.655,9.496 13.918 C 9.578 14.096,9.580 14.149,9.580 16.200 L 9.580 18.300 9.468 18.529 C 9.198 19.077,8.558 19.333,7.988 19.120 C 7.697 19.011,7.467 18.804,7.332 18.529 L 7.220 18.300 7.207 16.320 C 7.199 14.971,7.209 14.275,7.239 14.135 C 7.402 13.383,8.233 12.992,8.937 13.337 " fill="#1E1E1E" stroke="none" fill-rule="evenodd"></path></svg>