<svg width="24" height="24" viewBox="0 0 24 24" fill="none" xmlns="http://www.w3.org/2000/svg"><path d="M4.280 3.662 C 3.843 3.757,3.460 3.972,3.119 4.316 C 2.772 4.665,2.594 4.974,2.479 5.424 C 2.402 5.725,2.400 5.890,2.400 12.000 C 2.400 18.110,2.402 18.275,2.479 18.576 C 2.595 19.028,2.772 19.335,3.119 19.681 C 3.465 20.028,3.772 20.205,4.224 20.321 C 4.526 20.398,4.695 20.400,12.000 20.400 C 19.305 20.400,19.474 20.398,19.776 20.321 C 20.228 20.205,20.535 20.028,20.881 19.681 C 21.228 19.335,21.405 19.028,21.521 18.576 C 21.598 18.275,21.600 18.110,21.600 12.000 C 21.600 5.890,21.598 5.725,21.521 5.424 C 21.406 4.974,21.228 4.665,20.881 4.316 C 20.534 3.967,20.154 3.755,19.700 3.660 C 19.291 3.574,4.679 3.576,4.280 3.662 M11.400 12.000 C 12.379 13.958,13.189 15.560,13.200 15.560 C 13.211 15.560,13.751 14.498,14.400 13.200 C 15.049 11.902,15.589 10.840,15.600 10.840 C 15.611 10.840,16.426 12.451,17.410 14.420 L 19.200 18.000 12.000 18.000 L 4.800 18.000 7.190 13.220 C 8.504 10.591,9.589 8.440,9.600 8.440 C 9.611 8.440,10.421 10.042,11.400 12.000 " fill="#1E1E1E" stroke="none" fill-rule="evenodd"></path></svg>