<svg width="24" height="24" viewBox="0 0 24 24" fill="none" xmlns="http://www.w3.org/2000/svg"><path d="M11.320 2.423 C 11.243 2.432,11.013 2.459,10.808 2.483 C 8.508 2.751,6.197 3.988,4.729 5.739 C 3.496 7.208,2.782 8.773,2.493 10.640 C 2.394 11.282,2.394 12.718,2.493 13.360 C 3.154 17.630,6.370 20.846,10.640 21.507 C 11.282 21.606,12.718 21.606,13.360 21.507 C 15.173 21.226,16.839 20.473,18.220 19.308 C 19.737 18.029,20.852 16.214,21.333 14.240 C 21.526 13.450,21.578 12.972,21.578 12.000 C 21.578 11.336,21.560 10.979,21.507 10.640 C 21.039 7.618,19.289 5.083,16.658 3.615 C 15.639 3.046,14.573 2.686,13.360 2.501 C 12.960 2.440,11.616 2.389,11.320 2.423 M16.127 6.132 C 16.556 6.342,16.778 6.706,16.779 7.200 C 16.780 7.449,16.761 7.539,16.668 7.729 C 16.533 8.004,16.303 8.211,16.012 8.320 C 15.817 8.392,15.700 8.400,14.780 8.400 L 13.763 8.400 13.923 8.730 C 14.011 8.912,14.120 9.180,14.165 9.327 L 14.246 9.594 15.073 9.607 C 15.885 9.620,15.904 9.622,16.127 9.732 C 16.556 9.942,16.778 10.306,16.779 10.800 C 16.780 11.049,16.761 11.139,16.668 11.329 C 16.533 11.604,16.303 11.811,16.012 11.920 C 15.824 11.990,15.700 12.000,15.022 12.000 L 14.248 12.000 14.165 12.270 C 13.900 13.140,13.246 14.058,12.481 14.634 C 12.175 14.865,11.621 15.170,11.268 15.301 L 11.076 15.372 12.052 16.356 C 13.148 17.460,13.180 17.508,13.180 18.020 C 13.180 18.852,12.366 19.406,11.572 19.115 C 11.354 19.036,11.220 18.911,9.388 17.085 C 7.188 14.892,7.220 14.932,7.220 14.400 C 7.220 14.005,7.359 13.706,7.647 13.478 C 7.955 13.234,8.130 13.200,9.061 13.200 C 9.975 13.200,10.291 13.145,10.731 12.911 C 11.012 12.761,11.390 12.426,11.565 12.173 L 11.684 12.000 9.943 12.000 C 8.299 12.000,8.191 11.996,7.988 11.920 C 7.697 11.811,7.467 11.604,7.332 11.329 C 7.239 11.139,7.220 11.049,7.221 10.800 C 7.222 10.306,7.444 9.942,7.873 9.732 L 8.100 9.620 9.891 9.608 L 11.682 9.597 11.564 9.425 C 11.374 9.150,10.983 8.816,10.670 8.662 C 10.233 8.447,9.945 8.401,9.012 8.401 C 8.301 8.400,8.177 8.390,7.988 8.320 C 7.271 8.051,6.987 7.197,7.399 6.548 C 7.540 6.326,7.747 6.166,8.013 6.074 C 8.207 6.006,8.455 6.002,12.060 6.011 L 15.900 6.020 16.127 6.132 " fill="#1E1E1E" stroke="none" fill-rule="evenodd"></path></svg>