<svg width="24" height="24" viewBox="0 0 24 24" fill="none" xmlns="http://www.w3.org/2000/svg"><path d="M3.213 3.674 C 2.371 3.966,2.129 5.013,2.758 5.642 C 2.947 5.831,3.298 6.000,3.502 6.000 L 3.600 6.000 3.600 10.934 C 3.600 15.716,3.602 15.877,3.679 16.176 C 3.795 16.628,3.972 16.935,4.319 17.281 C 4.665 17.628,4.972 17.805,5.424 17.921 C 5.707 17.994,5.871 18.000,7.414 18.000 L 9.096 18.000 8.234 18.870 C 7.460 19.650,7.362 19.764,7.286 19.972 C 7.117 20.428,7.219 20.903,7.558 21.242 C 7.897 21.581,8.372 21.683,8.828 21.515 C 9.043 21.436,9.166 21.325,10.530 19.966 L 12.000 18.502 13.470 19.966 C 14.834 21.325,14.957 21.436,15.172 21.515 C 15.628 21.683,16.103 21.581,16.442 21.242 C 16.781 20.903,16.883 20.428,16.714 19.972 C 16.638 19.764,16.540 19.650,15.766 18.870 L 14.904 18.000 16.586 18.000 C 18.129 18.000,18.293 17.994,18.576 17.921 C 19.028 17.805,19.335 17.628,19.681 17.281 C 20.028 16.935,20.205 16.628,20.321 16.176 C 20.398 15.877,20.400 15.716,20.400 10.934 L 20.400 6.000 20.498 6.000 C 20.702 6.000,21.053 5.831,21.242 5.642 C 21.821 5.062,21.662 4.093,20.929 3.732 L 20.700 3.620 12.060 3.611 C 3.848 3.603,3.410 3.606,3.213 3.674 M16.137 7.337 C 16.385 7.458,16.574 7.655,16.696 7.918 C 16.779 8.097,16.780 8.139,16.780 10.800 L 16.780 13.500 16.668 13.729 C 16.398 14.277,15.758 14.533,15.188 14.320 C 14.897 14.211,14.667 14.004,14.532 13.729 L 14.420 13.500 14.407 10.920 C 14.399 9.137,14.408 8.277,14.439 8.135 C 14.602 7.383,15.433 6.992,16.137 7.337 M12.537 8.537 C 12.785 8.658,12.974 8.855,13.096 9.118 C 13.178 9.296,13.180 9.349,13.180 11.400 L 13.180 13.500 13.068 13.729 C 12.933 14.004,12.703 14.211,12.412 14.320 C 11.842 14.533,11.202 14.277,10.932 13.729 L 10.820 13.500 10.807 11.520 C 10.799 10.171,10.809 9.475,10.839 9.335 C 11.002 8.583,11.833 8.192,12.537 8.537 M8.937 9.737 C 9.185 9.858,9.374 10.055,9.496 10.318 C 9.577 10.493,9.580 10.559,9.580 12.000 L 9.580 13.500 9.468 13.729 C 9.333 14.004,9.103 14.211,8.812 14.320 C 8.242 14.533,7.602 14.277,7.332 13.729 L 7.220 13.500 7.207 12.120 C 7.198 11.203,7.209 10.671,7.239 10.535 C 7.403 9.782,8.233 9.392,8.937 9.737 " fill="#1E1E1E" stroke="none" fill-rule="evenodd"></path></svg>