<svg width="24" height="24" viewBox="0 0 24 24" fill="none" xmlns="http://www.w3.org/2000/svg"><path d="M11.020 3.644 C 7.369 3.940,4.021 5.922,1.993 8.986 C 1.466 9.782,1.009 10.696,0.700 11.573 L 0.549 12.000 0.700 12.427 C 1.580 14.923,3.327 17.104,5.600 18.546 C 9.482 21.007,14.512 21.007,18.400 18.545 C 20.667 17.110,22.421 14.920,23.300 12.427 L 23.451 12.000 23.300 11.573 C 21.980 7.829,18.783 4.927,14.920 3.967 C 13.659 3.653,12.295 3.540,11.020 3.644 M12.759 7.262 C 14.792 7.591,16.409 9.208,16.738 11.241 C 17.070 13.284,16.013 15.350,14.164 16.278 C 11.529 17.599,8.381 16.296,7.443 13.495 C 6.701 11.282,7.730 8.781,9.812 7.734 C 10.750 7.263,11.763 7.100,12.759 7.262 M11.480 9.662 C 11.043 9.757,10.660 9.972,10.319 10.316 C 9.972 10.665,9.794 10.974,9.679 11.424 C 9.535 11.988,9.610 12.602,9.888 13.133 C 10.058 13.457,10.543 13.942,10.867 14.112 C 11.186 14.279,11.661 14.400,12.000 14.400 C 12.339 14.400,12.814 14.279,13.133 14.112 C 13.457 13.942,13.942 13.457,14.112 13.133 C 14.390 12.602,14.465 11.988,14.321 11.424 C 14.206 10.974,14.028 10.665,13.681 10.316 C 13.091 9.721,12.298 9.486,11.480 9.662 " fill="#1E1E1E" stroke="none" fill-rule="evenodd"></path></svg>