<svg width="24" height="24" viewBox="0 0 24 24" fill="none" xmlns="http://www.w3.org/2000/svg"><path d="M4.280 9.662 C 3.843 9.757,3.460 9.972,3.119 10.316 C 2.772 10.665,2.594 10.974,2.479 11.424 C 2.335 11.988,2.410 12.602,2.688 13.133 C 2.858 13.457,3.343 13.942,3.667 14.112 C 3.986 14.279,4.461 14.400,4.800 14.400 C 5.139 14.400,5.614 14.279,5.933 14.112 C 6.257 13.942,6.742 13.457,6.912 13.133 C 7.190 12.602,7.265 11.988,7.121 11.424 C 7.006 10.974,6.828 10.665,6.481 10.316 C 5.891 9.721,5.098 9.486,4.280 9.662 M11.480 9.662 C 10.419 9.891,9.601 10.908,9.601 12.000 C 9.601 13.104,10.421 14.113,11.500 14.340 C 12.314 14.511,13.089 14.278,13.684 13.684 C 14.638 12.729,14.637 11.263,13.681 10.316 C 13.079 9.718,12.297 9.486,11.480 9.662 M18.680 9.662 C 17.619 9.891,16.801 10.908,16.801 12.000 C 16.801 13.294,17.906 14.399,19.200 14.399 C 20.304 14.399,21.313 13.579,21.540 12.500 C 21.711 11.683,21.477 10.907,20.881 10.316 C 20.279 9.718,19.497 9.486,18.680 9.662 " fill="#1E1E1E" stroke="none" fill-rule="evenodd"></path></svg>