<svg width="24" height="24" viewBox="0 0 24 24" fill="none" xmlns="http://www.w3.org/2000/svg"><path d="M11.660 2.456 C 11.572 2.484,9.556 3.617,7.180 4.974 C 3.842 6.880,2.826 7.478,2.712 7.604 C 2.417 7.927,2.327 8.401,2.480 8.812 C 2.633 9.219,3.000 9.517,3.430 9.584 L 3.600 9.610 3.600 13.800 L 3.600 17.990 3.430 18.016 C 3.000 18.083,2.633 18.381,2.480 18.788 C 2.253 19.395,2.568 20.088,3.174 20.314 L 3.403 20.400 12.000 20.400 L 20.597 20.400 20.826 20.314 C 21.432 20.088,21.747 19.395,21.520 18.788 C 21.367 18.381,21.000 18.083,20.570 18.016 L 20.400 17.990 20.400 13.800 L 20.400 9.610 20.570 9.584 C 20.827 9.544,21.141 9.374,21.299 9.191 C 21.702 8.719,21.688 8.015,21.266 7.583 C 21.142 7.456,20.016 6.794,16.806 4.961 C 14.445 3.613,12.430 2.485,12.330 2.455 C 12.108 2.388,11.873 2.388,11.660 2.456 M7.737 10.937 C 7.985 11.058,8.174 11.255,8.296 11.518 C 8.378 11.696,8.380 11.749,8.380 13.800 L 8.380 15.900 8.268 16.129 C 7.998 16.677,7.358 16.933,6.788 16.720 C 6.497 16.611,6.267 16.404,6.132 16.129 L 6.020 15.900 6.007 13.920 C 5.999 12.571,6.009 11.875,6.039 11.735 C 6.202 10.983,7.033 10.592,7.737 10.937 M12.537 10.937 C 12.785 11.058,12.974 11.255,13.096 11.518 C 13.178 11.696,13.180 11.749,13.180 13.800 L 13.180 15.900 13.068 16.129 C 12.933 16.404,12.703 16.611,12.412 16.720 C 11.842 16.933,11.202 16.677,10.932 16.129 L 10.820 15.900 10.807 13.920 C 10.799 12.571,10.809 11.875,10.839 11.735 C 11.002 10.983,11.833 10.592,12.537 10.937 M17.337 10.937 C 17.585 11.058,17.774 11.255,17.896 11.518 C 17.978 11.696,17.980 11.749,17.980 13.800 L 17.980 15.900 17.868 16.129 C 17.733 16.404,17.503 16.611,17.212 16.720 C 16.642 16.933,16.002 16.677,15.732 16.129 L 15.620 15.900 15.607 13.920 C 15.599 12.571,15.609 11.875,15.639 11.735 C 15.802 10.983,16.633 10.592,17.337 10.937 " fill="#1E1E1E" stroke="none" fill-rule="evenodd"></path></svg>