<svg width="24" height="24" viewBox="0 0 24 24" fill="none" xmlns="http://www.w3.org/2000/svg"><path d="M11.613 2.472 C 11.240 2.605,10.996 2.853,10.862 3.235 C 10.807 3.390,10.800 4.216,10.800 10.454 L 10.800 17.498 9.330 16.034 C 7.689 14.401,7.715 14.420,7.180 14.420 C 6.304 14.420,5.742 15.332,6.130 16.122 C 6.218 16.302,6.687 16.789,8.789 18.885 C 11.203 21.294,11.352 21.435,11.572 21.515 C 11.699 21.562,11.892 21.600,12.000 21.600 C 12.108 21.600,12.301 21.562,12.428 21.515 C 12.648 21.435,12.797 21.294,15.211 18.885 C 17.313 16.789,17.782 16.302,17.870 16.122 C 18.161 15.530,17.920 14.823,17.329 14.532 C 17.144 14.442,17.046 14.420,16.820 14.420 C 16.285 14.420,16.311 14.401,14.670 16.034 L 13.200 17.498 13.200 10.450 C 13.200 3.492,13.199 3.400,13.120 3.188 C 12.894 2.584,12.210 2.258,11.613 2.472 " fill="#1E1E1E" stroke="none" fill-rule="evenodd"></path></svg>