<svg width="24" height="24" viewBox="0 0 24 24" fill="none" xmlns="http://www.w3.org/2000/svg"><path d="M10.413 2.473 C 10.042 2.603,9.796 2.852,9.662 3.235 C 9.460 3.809,9.791 4.496,10.374 4.714 C 10.592 4.796,10.670 4.800,12.000 4.800 C 13.330 4.800,13.408 4.796,13.626 4.714 C 13.775 4.659,13.921 4.563,14.042 4.442 C 14.621 3.862,14.462 2.893,13.729 2.532 L 13.500 2.420 12.060 2.410 C 10.758 2.402,10.600 2.408,10.413 2.473 M6.680 3.662 C 5.799 3.852,5.047 4.612,4.860 5.500 C 4.772 5.921,4.772 19.279,4.860 19.700 C 5.049 20.600,5.800 21.351,6.700 21.540 C 7.119 21.628,16.881 21.628,17.300 21.540 C 18.200 21.351,18.951 20.600,19.140 19.700 C 19.228 19.279,19.228 5.921,19.140 5.500 C 18.951 4.602,18.198 3.849,17.300 3.660 C 16.803 3.556,16.816 3.549,16.785 3.918 C 16.750 4.337,16.595 4.860,16.389 5.257 C 15.932 6.135,15.172 6.757,14.171 7.069 L 13.820 7.179 12.000 7.179 L 10.180 7.179 9.829 7.069 C 8.828 6.757,8.068 6.135,7.611 5.257 C 7.405 4.860,7.250 4.337,7.215 3.918 L 7.188 3.600 7.064 3.603 C 6.996 3.605,6.823 3.632,6.680 3.662 M16.026 10.886 C 16.472 11.052,16.800 11.525,16.800 12.000 C 16.800 12.108,16.762 12.301,16.715 12.428 C 16.635 12.648,16.495 12.796,14.089 15.207 C 12.281 17.019,11.488 17.787,11.344 17.867 C 11.165 17.966,11.098 17.980,10.800 17.980 C 10.501 17.980,10.435 17.966,10.255 17.866 C 10.115 17.789,9.629 17.329,8.710 16.406 C 7.472 15.162,7.364 15.042,7.285 14.828 C 7.117 14.372,7.219 13.897,7.558 13.558 C 7.897 13.219,8.372 13.117,8.828 13.286 C 9.036 13.362,9.150 13.460,9.931 14.234 L 10.801 15.097 12.871 13.033 C 14.765 11.144,14.959 10.963,15.160 10.887 C 15.447 10.779,15.739 10.778,16.026 10.886 " fill="#1E1E1E" stroke="none" fill-rule="evenodd"></path></svg>