<svg width="24" height="24" viewBox="0 0 24 24" fill="none" xmlns="http://www.w3.org/2000/svg"><path d="M10.453 4.855 C 10.361 4.885,10.226 4.947,10.153 4.993 C 10.080 5.039,8.614 6.485,6.895 8.208 C 3.886 11.223,3.766 11.349,3.681 11.580 C 3.616 11.758,3.597 11.883,3.608 12.062 C 3.638 12.554,3.546 12.450,6.989 15.885 C 9.986 18.877,10.151 19.035,10.372 19.115 C 10.829 19.283,11.303 19.181,11.642 18.842 C 11.981 18.503,12.083 18.029,11.915 17.572 C 11.835 17.352,11.691 17.200,9.166 14.670 L 6.501 12.000 9.166 9.330 C 11.691 6.800,11.835 6.648,11.915 6.428 C 12.197 5.658,11.684 4.865,10.870 4.816 C 10.725 4.807,10.550 4.823,10.453 4.855 M17.653 4.855 C 17.561 4.885,17.426 4.947,17.353 4.993 C 17.280 5.039,15.814 6.485,14.095 8.208 C 11.086 11.223,10.966 11.349,10.881 11.580 C 10.816 11.758,10.797 11.883,10.808 12.062 C 10.838 12.554,10.746 12.450,14.189 15.885 C 17.186 18.877,17.351 19.035,17.572 19.115 C 18.029 19.283,18.503 19.181,18.842 18.842 C 19.181 18.503,19.283 18.029,19.115 17.572 C 19.035 17.352,18.891 17.200,16.366 14.670 L 13.701 12.000 16.366 9.330 C 18.891 6.800,19.035 6.648,19.115 6.428 C 19.397 5.658,18.884 4.865,18.070 4.816 C 17.925 4.807,17.750 4.823,17.653 4.855 " fill="#1E1E1E" stroke="none" fill-rule="evenodd"></path></svg>