<svg width="24" height="24" viewBox="0 0 24 24" fill="none" xmlns="http://www.w3.org/2000/svg"><path d="M11.320 2.423 C 11.243 2.432,11.013 2.459,10.808 2.483 C 8.508 2.751,6.197 3.988,4.729 5.739 C 3.496 7.208,2.782 8.773,2.493 10.640 C 2.394 11.282,2.394 12.718,2.493 13.360 C 3.154 17.630,6.370 20.846,10.640 21.507 C 11.282 21.606,12.718 21.606,13.360 21.507 C 15.173 21.226,16.839 20.473,18.220 19.308 C 19.737 18.029,20.852 16.214,21.333 14.240 C 21.526 13.450,21.578 12.972,21.578 12.000 C 21.578 11.336,21.560 10.979,21.507 10.640 C 21.039 7.618,19.289 5.083,16.658 3.615 C 15.639 3.046,14.573 2.686,13.360 2.501 C 12.960 2.440,11.616 2.389,11.320 2.423 M16.127 10.932 C 16.556 11.142,16.778 11.506,16.779 12.000 C 16.780 12.249,16.761 12.339,16.668 12.529 C 16.533 12.804,16.303 13.011,16.012 13.120 C 15.802 13.198,15.704 13.200,12.000 13.200 C 8.296 13.200,8.198 13.198,7.988 13.120 C 7.271 12.851,6.987 11.997,7.399 11.348 C 7.540 11.126,7.747 10.966,8.013 10.874 C 8.207 10.806,8.455 10.802,12.060 10.811 L 15.900 10.820 16.127 10.932 " fill="#1E1E1E" stroke="none" fill-rule="evenodd"></path></svg>