<svg width="24" height="24" viewBox="0 0 24 24" fill="none" xmlns="http://www.w3.org/2000/svg"><path d="M11.320 2.423 C 11.243 2.432,11.013 2.459,10.808 2.483 C 8.508 2.751,6.197 3.988,4.729 5.739 C 3.496 7.208,2.782 8.773,2.493 10.640 C 2.394 11.282,2.394 12.718,2.493 13.360 C 3.154 17.630,6.370 20.846,10.640 21.507 C 11.282 21.606,12.718 21.606,13.360 21.507 C 15.173 21.226,16.839 20.473,18.220 19.308 C 19.737 18.029,20.852 16.214,21.333 14.240 C 21.526 13.450,21.578 12.972,21.578 12.000 C 21.578 11.336,21.560 10.979,21.507 10.640 C 21.039 7.618,19.289 5.083,16.658 3.615 C 15.639 3.046,14.573 2.686,13.360 2.501 C 12.960 2.440,11.616 2.389,11.320 2.423 M8.932 6.135 C 9.049 6.192,9.188 6.285,9.242 6.341 C 9.296 6.398,9.926 7.420,10.642 8.612 C 11.364 9.815,11.969 10.780,12.000 10.780 C 12.031 10.780,12.636 9.815,13.358 8.612 C 14.074 7.420,14.704 6.398,14.758 6.341 C 15.069 6.013,15.692 5.918,16.127 6.132 C 16.625 6.376,16.891 6.936,16.762 7.470 C 16.730 7.605,16.414 8.169,15.781 9.224 L 14.847 10.780 15.374 10.800 C 15.846 10.818,15.923 10.831,16.127 10.932 C 16.556 11.142,16.778 11.506,16.779 12.000 C 16.780 12.249,16.761 12.339,16.668 12.529 C 16.533 12.804,16.303 13.011,16.012 13.120 C 15.814 13.194,15.701 13.200,14.599 13.200 L 13.401 13.200 13.301 13.359 C 13.209 13.504,13.200 13.557,13.200 13.957 L 13.200 14.396 14.550 14.408 C 15.824 14.419,15.910 14.425,16.082 14.504 C 16.182 14.551,16.330 14.646,16.410 14.717 C 16.782 15.043,16.895 15.666,16.668 16.129 C 16.533 16.404,16.303 16.611,16.012 16.720 C 15.813 16.794,15.701 16.800,14.502 16.800 L 13.206 16.800 13.193 17.550 C 13.180 18.278,13.177 18.307,13.068 18.529 C 12.933 18.804,12.703 19.011,12.412 19.120 C 11.842 19.333,11.202 19.077,10.932 18.529 C 10.823 18.307,10.820 18.278,10.807 17.550 L 10.794 16.800 9.498 16.800 C 8.042 16.800,7.943 16.784,7.609 16.499 C 7.221 16.166,7.100 15.545,7.332 15.073 C 7.458 14.815,7.652 14.627,7.918 14.504 C 8.090 14.425,8.176 14.419,9.450 14.408 L 10.800 14.396 10.800 13.957 C 10.800 13.557,10.791 13.504,10.699 13.359 L 10.599 13.200 9.401 13.200 C 8.299 13.200,8.186 13.194,7.988 13.120 C 7.697 13.011,7.467 12.804,7.332 12.529 C 7.239 12.339,7.220 12.249,7.221 12.000 C 7.222 11.506,7.444 11.142,7.873 10.932 C 8.077 10.831,8.154 10.818,8.626 10.800 L 9.152 10.780 8.216 9.219 C 7.176 7.486,7.141 7.405,7.232 6.971 C 7.395 6.190,8.219 5.785,8.932 6.135 " fill="#1E1E1E" stroke="none" fill-rule="evenodd"></path></svg>