<svg width="24" height="24" viewBox="0 0 24 24" fill="none" xmlns="http://www.w3.org/2000/svg"><path d="M6.680 2.462 C 6.243 2.557,5.860 2.772,5.519 3.116 C 5.172 3.465,4.994 3.774,4.879 4.224 C 4.802 4.526,4.800 4.695,4.800 12.000 C 4.800 19.305,4.802 19.474,4.879 19.776 C 4.995 20.228,5.172 20.535,5.519 20.881 C 5.865 21.228,6.172 21.405,6.624 21.521 C 6.924 21.598,7.085 21.600,12.000 21.600 C 16.915 21.600,17.076 21.598,17.376 21.521 C 17.828 21.405,18.135 21.228,18.481 20.881 C 18.828 20.535,19.005 20.228,19.121 19.776 C 19.198 19.474,19.200 19.305,19.200 12.000 C 19.200 4.695,19.198 4.526,19.121 4.224 C 19.006 3.774,18.828 3.465,18.481 3.116 C 18.134 2.767,17.754 2.555,17.300 2.460 C 16.893 2.375,7.077 2.377,6.680 2.462 M16.127 4.932 C 16.556 5.142,16.778 5.506,16.779 6.000 C 16.780 6.249,16.761 6.339,16.668 6.529 C 16.533 6.804,16.303 7.011,16.012 7.120 C 15.802 7.198,15.704 7.200,12.000 7.200 C 8.296 7.200,8.198 7.198,7.988 7.120 C 7.271 6.851,6.987 5.997,7.399 5.348 C 7.540 5.126,7.747 4.966,8.013 4.874 C 8.207 4.806,8.455 4.802,12.060 4.811 L 15.900 4.820 16.127 4.932 M8.951 9.735 C 9.638 10.084,9.815 11.008,9.305 11.588 C 8.750 12.218,7.705 12.090,7.341 11.347 C 6.924 10.493,7.547 9.550,8.486 9.616 C 8.661 9.628,8.820 9.669,8.951 9.735 M12.551 9.735 C 13.238 10.084,13.415 11.008,12.905 11.588 C 12.350 12.218,11.305 12.090,10.941 11.347 C 10.524 10.493,11.147 9.550,12.086 9.616 C 12.261 9.628,12.420 9.669,12.551 9.735 M16.151 9.735 C 16.838 10.084,17.015 11.008,16.505 11.588 C 15.950 12.218,14.905 12.090,14.541 11.347 C 14.124 10.493,14.747 9.550,15.686 9.616 C 15.861 9.628,16.020 9.669,16.151 9.735 M8.951 13.335 C 9.638 13.684,9.815 14.608,9.305 15.188 C 8.750 15.818,7.705 15.690,7.341 14.947 C 6.924 14.093,7.547 13.150,8.486 13.216 C 8.661 13.228,8.820 13.269,8.951 13.335 M12.551 13.335 C 13.238 13.684,13.415 14.608,12.905 15.188 C 12.350 15.818,11.305 15.690,10.941 14.947 C 10.524 14.093,11.147 13.150,12.086 13.216 C 12.261 13.228,12.420 13.269,12.551 13.335 M16.137 13.337 C 16.385 13.458,16.574 13.655,16.696 13.918 C 16.778 14.096,16.780 14.149,16.780 16.200 L 16.780 18.300 16.668 18.529 C 16.533 18.804,16.303 19.011,16.012 19.120 C 15.442 19.333,14.802 19.077,14.532 18.529 L 14.420 18.300 14.407 16.320 C 14.399 14.971,14.409 14.275,14.439 14.135 C 14.602 13.383,15.433 12.992,16.137 13.337 M8.951 16.935 C 9.638 17.284,9.815 18.208,9.305 18.788 C 8.750 19.418,7.705 19.290,7.341 18.547 C 6.924 17.693,7.547 16.750,8.486 16.816 C 8.661 16.828,8.820 16.869,8.951 16.935 M12.551 16.935 C 13.238 17.284,13.415 18.208,12.905 18.788 C 12.350 19.418,11.305 19.290,10.941 18.547 C 10.524 17.693,11.147 16.750,12.086 16.816 C 12.261 16.828,12.420 16.869,12.551 16.935 " fill="#1E1E1E" stroke="none" fill-rule="evenodd"></path></svg>