<svg width="24" height="24" viewBox="0 0 24 24" fill="none" xmlns="http://www.w3.org/2000/svg"><path d="M11.320 2.423 C 11.243 2.432,11.013 2.459,10.808 2.483 C 8.508 2.751,6.197 3.988,4.729 5.739 C 3.496 7.208,2.782 8.773,2.493 10.640 C 2.394 11.282,2.394 12.718,2.493 13.360 C 3.154 17.630,6.370 20.846,10.640 21.507 C 11.282 21.606,12.718 21.606,13.360 21.507 C 15.173 21.226,16.839 20.473,18.220 19.308 C 19.737 18.029,20.852 16.214,21.333 14.240 C 21.526 13.450,21.578 12.972,21.578 12.000 C 21.578 11.336,21.560 10.979,21.507 10.640 C 21.039 7.618,19.289 5.083,16.658 3.615 C 15.639 3.046,14.573 2.686,13.360 2.501 C 12.960 2.440,11.616 2.389,11.320 2.423 M9.302 4.920 C 10.546 5.237,11.546 6.236,11.884 7.500 C 11.956 7.766,11.973 7.970,11.990 8.709 L 12.009 9.597 13.955 9.609 L 15.900 9.620 16.127 9.732 C 16.556 9.942,16.778 10.306,16.779 10.800 C 16.780 11.049,16.761 11.139,16.668 11.329 C 16.533 11.604,16.303 11.811,16.012 11.920 C 15.808 11.996,15.702 12.000,13.898 12.000 L 12.000 12.000 12.000 13.898 C 12.000 15.741,12.003 15.804,12.086 16.026 C 12.141 16.175,12.237 16.321,12.358 16.442 C 12.938 17.021,13.907 16.862,14.268 16.129 C 14.378 15.903,14.380 15.887,14.400 15.000 C 14.420 14.115,14.422 14.096,14.532 13.873 C 14.742 13.444,15.107 13.222,15.600 13.222 C 16.093 13.222,16.458 13.444,16.668 13.873 L 16.780 14.100 16.777 15.140 C 16.774 16.080,16.765 16.211,16.686 16.500 C 16.345 17.747,15.429 18.685,14.180 19.065 C 13.854 19.164,13.761 19.174,13.200 19.174 C 12.639 19.174,12.546 19.164,12.220 19.065 C 10.972 18.685,10.059 17.752,9.713 16.500 C 9.627 16.192,9.624 16.101,9.609 14.090 L 9.595 12.000 8.899 12.000 C 8.300 12.000,8.173 11.989,7.988 11.920 C 7.697 11.811,7.467 11.604,7.332 11.329 C 7.239 11.139,7.220 11.049,7.221 10.800 C 7.222 10.306,7.444 9.942,7.873 9.732 C 8.093 9.623,8.123 9.620,8.850 9.607 L 9.600 9.594 9.600 8.898 C 9.600 8.300,9.589 8.173,9.520 7.988 C 9.344 7.520,8.977 7.260,8.406 7.203 C 7.862 7.148,7.498 6.911,7.312 6.492 C 7.025 5.843,7.341 5.113,8.013 4.871 C 8.272 4.778,8.828 4.799,9.302 4.920 " fill="#1E1E1E" stroke="none" fill-rule="evenodd"></path></svg>