<svg width="24" height="24" viewBox="0 0 24 24" fill="none" xmlns="http://www.w3.org/2000/svg"><path d="M10.453 3.655 C 10.361 3.685,10.226 3.747,10.153 3.793 C 10.080 3.839,8.344 5.556,6.295 7.608 C 2.739 11.170,2.565 11.351,2.485 11.572 C 2.377 11.865,2.377 12.135,2.485 12.428 C 2.565 12.649,2.740 12.831,6.315 16.411 C 10.403 20.507,10.242 20.361,10.738 20.392 C 11.403 20.434,12.000 19.870,12.000 19.200 C 12.000 19.092,11.962 18.899,11.915 18.772 C 11.835 18.552,11.691 18.400,9.166 15.870 L 6.501 13.200 13.549 13.200 L 20.597 13.200 20.826 13.114 C 20.975 13.059,21.121 12.963,21.242 12.842 C 21.821 12.262,21.662 11.293,20.929 10.932 L 20.700 10.820 13.601 10.810 L 6.502 10.799 9.166 8.130 C 11.691 5.600,11.835 5.448,11.915 5.228 C 12.197 4.458,11.684 3.665,10.870 3.616 C 10.725 3.607,10.550 3.623,10.453 3.655 " fill="#1E1E1E" stroke="none" fill-rule="evenodd"></path></svg>