<svg width="24" height="24" viewBox="0 0 24 24" fill="none" xmlns="http://www.w3.org/2000/svg"><path d="M17.613 3.674 C 17.212 3.813,16.926 4.130,16.839 4.535 C 16.808 4.681,16.799 6.866,16.808 12.120 L 16.820 19.500 16.904 19.682 C 17.027 19.948,17.215 20.142,17.473 20.268 L 17.700 20.380 19.200 20.380 L 20.700 20.380 20.927 20.268 C 21.185 20.142,21.373 19.948,21.496 19.682 L 21.580 19.500 21.580 12.000 L 21.580 4.500 21.466 4.268 C 21.390 4.112,21.286 3.984,21.153 3.878 C 20.817 3.613,20.724 3.600,19.183 3.601 C 17.981 3.602,17.796 3.611,17.613 3.674 M10.413 7.274 C 10.012 7.413,9.726 7.730,9.639 8.135 C 9.608 8.280,9.599 9.968,9.608 13.920 L 9.620 19.500 9.732 19.727 C 9.858 19.985,10.052 20.173,10.318 20.296 C 10.493 20.377,10.559 20.380,12.000 20.380 C 13.441 20.380,13.507 20.377,13.682 20.296 C 13.948 20.173,14.142 19.985,14.268 19.727 L 14.380 19.500 14.380 13.800 L 14.380 8.100 14.266 7.868 C 14.190 7.712,14.086 7.584,13.953 7.478 C 13.617 7.213,13.524 7.200,11.983 7.201 C 10.781 7.202,10.596 7.211,10.413 7.274 M3.213 12.073 C 2.842 12.203,2.596 12.452,2.462 12.835 C 2.408 12.987,2.400 13.432,2.400 16.204 C 2.400 19.370,2.401 19.399,2.486 19.626 C 2.600 19.931,2.869 20.200,3.174 20.314 C 3.392 20.396,3.470 20.400,4.800 20.400 C 6.130 20.400,6.208 20.396,6.426 20.314 C 6.731 20.200,7.000 19.931,7.114 19.626 C 7.199 19.399,7.200 19.370,7.200 16.200 C 7.200 13.097,7.198 12.997,7.120 12.788 C 7.011 12.497,6.804 12.267,6.529 12.132 L 6.300 12.020 4.860 12.010 C 3.558 12.002,3.400 12.008,3.213 12.073 " fill="#1E1E1E" stroke="none" fill-rule="evenodd"></path></svg>