<svg width="24" height="24" viewBox="0 0 24 24" fill="none" xmlns="http://www.w3.org/2000/svg"><path d="M4.413 3.673 C 4.042 3.803,3.796 4.052,3.662 4.435 C 3.609 4.584,3.600 4.912,3.600 6.604 C 3.600 8.543,3.602 8.603,3.686 8.826 C 3.800 9.131,4.069 9.400,4.374 9.514 C 4.597 9.598,4.656 9.600,6.600 9.600 C 8.544 9.600,8.603 9.598,8.826 9.514 C 9.131 9.400,9.400 9.131,9.514 8.826 C 9.598 8.603,9.600 8.544,9.600 6.600 C 9.600 4.698,9.596 4.593,9.520 4.388 C 9.411 4.097,9.204 3.867,8.929 3.732 L 8.700 3.620 6.660 3.611 C 4.782 3.602,4.604 3.607,4.413 3.673 M11.613 3.674 C 11.319 3.776,11.067 3.996,10.933 4.270 L 10.820 4.500 10.820 5.400 C 10.820 6.401,10.840 6.495,11.117 6.810 C 11.442 7.181,12.066 7.295,12.527 7.068 C 12.785 6.942,12.973 6.748,13.096 6.482 C 13.174 6.314,13.180 6.231,13.180 5.400 L 13.180 4.500 13.066 4.268 C 12.804 3.735,12.178 3.479,11.613 3.674 M15.213 3.674 C 14.919 3.776,14.667 3.996,14.533 4.270 L 14.420 4.500 14.420 6.600 C 14.420 8.651,14.422 8.704,14.504 8.882 C 14.627 9.148,14.815 9.342,15.073 9.468 L 15.300 9.580 17.400 9.580 L 19.500 9.580 19.727 9.468 C 19.985 9.342,20.173 9.148,20.296 8.882 C 20.378 8.704,20.380 8.651,20.380 6.600 L 20.380 4.500 20.266 4.268 C 20.190 4.112,20.086 3.984,19.953 3.878 C 19.603 3.602,19.586 3.600,17.383 3.601 C 15.603 3.602,15.401 3.609,15.213 3.674 M7.200 6.600 L 7.200 7.200 6.600 7.200 L 6.000 7.200 6.000 6.600 L 6.000 6.000 6.600 6.000 L 7.200 6.000 7.200 6.600 M18.000 6.600 L 18.000 7.200 17.400 7.200 L 16.800 7.200 16.800 6.600 L 16.800 6.000 17.400 6.000 L 18.000 6.000 18.000 6.600 M11.613 8.474 C 11.319 8.576,11.067 8.796,10.933 9.070 L 10.820 9.300 10.820 10.800 C 10.820 12.241,10.823 12.307,10.904 12.482 C 11.027 12.748,11.215 12.942,11.473 13.068 L 11.700 13.180 13.800 13.180 L 15.900 13.180 16.127 13.068 C 16.556 12.858,16.778 12.494,16.779 12.000 C 16.780 11.606,16.642 11.307,16.353 11.078 C 16.021 10.816,15.914 10.800,14.476 10.800 L 13.206 10.800 13.193 10.050 C 13.180 9.319,13.177 9.294,13.066 9.068 C 12.804 8.535,12.178 8.279,11.613 8.474 M4.413 10.874 C 4.119 10.976,3.867 11.196,3.733 11.470 C 3.639 11.661,3.620 11.751,3.621 12.000 C 3.622 12.494,3.844 12.858,4.273 13.068 L 4.500 13.180 6.600 13.180 L 8.700 13.180 8.927 13.068 C 9.356 12.858,9.578 12.494,9.579 12.000 C 9.580 11.606,9.442 11.307,9.153 11.078 C 8.803 10.802,8.786 10.800,6.583 10.801 C 4.803 10.802,4.601 10.809,4.413 10.874 M18.813 10.874 C 18.519 10.976,18.267 11.196,18.133 11.470 C 18.039 11.661,18.020 11.751,18.021 12.000 C 18.022 12.341,18.105 12.569,18.317 12.810 C 18.642 13.181,19.266 13.295,19.727 13.068 C 20.156 12.858,20.378 12.494,20.379 12.000 C 20.380 11.750,20.361 11.661,20.266 11.468 C 20.004 10.935,19.378 10.679,18.813 10.874 M4.413 14.474 C 4.119 14.576,3.867 14.796,3.733 15.070 L 3.620 15.300 3.620 17.400 C 3.620 19.451,3.622 19.504,3.704 19.682 C 3.827 19.948,4.015 20.142,4.273 20.268 L 4.500 20.380 6.600 20.380 L 8.700 20.380 8.927 20.268 C 9.185 20.142,9.373 19.948,9.496 19.682 C 9.578 19.504,9.580 19.451,9.580 17.400 L 9.580 15.300 9.466 15.068 C 9.390 14.912,9.286 14.784,9.153 14.678 C 8.803 14.402,8.786 14.400,6.583 14.401 C 4.803 14.402,4.601 14.409,4.413 14.474 M11.613 14.474 C 11.319 14.576,11.067 14.796,10.933 15.070 L 10.820 15.300 10.820 17.400 C 10.820 19.451,10.822 19.504,10.904 19.682 C 11.027 19.948,11.215 20.142,11.473 20.268 C 11.660 20.360,11.753 20.380,12.000 20.380 C 12.500 20.380,12.887 20.134,13.096 19.682 C 13.175 19.510,13.181 19.424,13.192 18.158 L 13.204 16.815 13.434 16.768 C 14.216 16.606,14.614 15.779,14.258 15.053 C 14.129 14.788,13.840 14.547,13.550 14.461 C 13.236 14.368,11.895 14.377,11.613 14.474 M16.413 14.474 C 16.119 14.576,15.867 14.796,15.733 15.070 C 15.639 15.261,15.620 15.351,15.621 15.600 C 15.622 16.094,15.844 16.458,16.273 16.668 L 16.500 16.780 18.000 16.780 L 19.500 16.780 19.727 16.668 C 20.156 16.458,20.378 16.094,20.379 15.600 C 20.380 15.206,20.242 14.907,19.953 14.678 C 19.617 14.413,19.524 14.400,17.983 14.401 C 16.779 14.402,16.596 14.411,16.413 14.474 M7.200 17.400 L 7.200 18.000 6.600 18.000 L 6.000 18.000 6.000 17.400 L 6.000 16.800 6.600 16.800 L 7.200 16.800 7.200 17.400 M15.213 18.074 C 14.919 18.176,14.667 18.396,14.533 18.670 C 14.439 18.861,14.420 18.951,14.421 19.200 C 14.422 19.694,14.644 20.058,15.073 20.268 L 15.300 20.380 17.400 20.380 L 19.500 20.380 19.727 20.268 C 20.156 20.058,20.378 19.694,20.379 19.200 C 20.380 18.806,20.242 18.507,19.953 18.278 C 19.603 18.002,19.586 18.000,17.383 18.001 C 15.603 18.002,15.401 18.009,15.213 18.074 " fill="#1E1E1E" stroke="none" fill-rule="evenodd"></path></svg>