<svg width="24" height="24" viewBox="0 0 24 24" fill="none" xmlns="http://www.w3.org/2000/svg"><path d="M5.480 3.662 C 5.043 3.757,4.660 3.972,4.319 4.316 C 3.972 4.665,3.794 4.974,3.679 5.424 C 3.602 5.725,3.600 5.890,3.600 12.000 C 3.600 18.110,3.602 18.275,3.679 18.576 C 3.795 19.028,3.972 19.335,4.319 19.681 C 4.665 20.028,4.972 20.205,5.424 20.321 C 5.725 20.398,5.890 20.400,12.000 20.400 C 18.110 20.400,18.275 20.398,18.576 20.321 C 19.028 20.205,19.335 20.028,19.681 19.681 C 20.028 19.335,20.205 19.028,20.321 18.576 C 20.398 18.275,20.400 18.110,20.400 12.000 C 20.400 5.890,20.398 5.725,20.321 5.424 C 20.206 4.974,20.028 4.665,19.681 4.316 C 19.334 3.967,18.954 3.755,18.500 3.660 C 18.091 3.574,5.879 3.576,5.480 3.662 M16.137 7.337 C 16.385 7.458,16.574 7.655,16.696 7.918 C 16.780 8.099,16.780 8.119,16.780 12.000 L 16.780 15.900 16.668 16.129 C 16.533 16.404,16.303 16.611,16.012 16.720 C 15.442 16.933,14.802 16.677,14.532 16.129 L 14.420 15.900 14.408 12.120 C 14.399 9.470,14.408 8.279,14.439 8.135 C 14.601 7.383,15.433 6.992,16.137 7.337 M12.537 9.737 C 12.785 9.858,12.974 10.055,13.096 10.318 C 13.179 10.497,13.180 10.539,13.180 13.200 L 13.180 15.900 13.068 16.129 C 12.933 16.404,12.703 16.611,12.412 16.720 C 11.842 16.933,11.202 16.677,10.932 16.129 L 10.820 15.900 10.807 13.320 C 10.799 11.537,10.808 10.677,10.839 10.535 C 11.002 9.783,11.833 9.392,12.537 9.737 M8.937 13.337 C 9.185 13.458,9.374 13.655,9.496 13.918 C 9.574 14.086,9.580 14.169,9.580 15.000 L 9.580 15.900 9.468 16.129 C 9.198 16.677,8.558 16.933,7.988 16.720 C 7.697 16.611,7.467 16.404,7.332 16.129 C 7.223 15.906,7.220 15.881,7.206 15.120 C 7.198 14.634,7.210 14.263,7.238 14.135 C 7.405 13.381,8.233 12.992,8.937 13.337 " fill="#1E1E1E" stroke="none" fill-rule="evenodd"></path></svg>