<svg width="24" height="24" viewBox="0 0 24 24" fill="none" xmlns="http://www.w3.org/2000/svg"><path d="M4.280 3.662 C 3.843 3.757,3.460 3.972,3.119 4.316 C 2.772 4.665,2.594 4.974,2.479 5.424 C 2.404 5.716,2.400 5.875,2.400 8.400 C 2.400 10.925,2.404 11.084,2.479 11.376 C 2.595 11.828,2.772 12.135,3.119 12.481 C 3.465 12.828,3.772 13.005,4.224 13.121 C 4.501 13.192,4.669 13.200,5.866 13.200 L 7.200 13.200 7.200 14.990 L 7.200 16.780 8.990 14.990 L 10.780 13.200 12.124 13.200 C 13.331 13.200,13.499 13.192,13.776 13.121 C 14.228 13.005,14.535 12.828,14.881 12.481 C 15.228 12.135,15.405 11.828,15.521 11.376 C 15.596 11.084,15.600 10.925,15.600 8.400 C 15.600 5.875,15.596 5.716,15.521 5.424 C 15.406 4.974,15.228 4.665,14.881 4.316 C 14.534 3.967,14.154 3.755,13.700 3.660 C 13.294 3.575,4.677 3.577,4.280 3.662 M17.991 10.310 L 17.977 12.220 17.871 12.608 C 17.484 14.031,16.418 15.089,14.971 15.489 C 14.686 15.568,14.541 15.576,13.217 15.590 L 11.773 15.606 10.718 16.662 L 9.663 17.717 9.853 17.801 C 10.241 17.973,10.504 17.999,11.880 17.999 L 13.180 18.000 14.990 19.810 L 16.800 21.620 16.800 19.810 L 16.800 18.000 18.110 17.999 C 19.107 17.999,19.487 17.985,19.700 17.940 C 20.600 17.751,21.351 17.000,21.540 16.100 C 21.627 15.687,21.627 10.713,21.540 10.300 C 21.351 9.402,20.598 8.649,19.700 8.460 C 19.515 8.421,19.179 8.401,18.712 8.401 L 18.004 8.400 17.991 10.310 " fill="#1E1E1E" stroke="none" fill-rule="evenodd"></path></svg>