<svg width="24" height="24" viewBox="0 0 24 24" fill="none" xmlns="http://www.w3.org/2000/svg"><path d="M3.213 2.473 C 2.811 2.614,2.529 2.928,2.437 3.337 C 2.365 3.659,2.412 7.016,2.498 7.740 C 2.892 11.032,4.191 13.937,6.363 16.380 C 8.659 18.963,11.758 20.708,15.160 21.336 C 16.302 21.546,16.751 21.576,18.800 21.578 L 20.700 21.580 20.927 21.468 C 21.185 21.342,21.373 21.148,21.496 20.882 C 21.577 20.707,21.580 20.642,21.580 19.100 L 21.580 17.500 21.486 17.320 C 21.364 17.088,21.141 16.855,20.943 16.752 C 20.830 16.694,20.001 16.540,17.937 16.196 C 15.396 15.772,15.064 15.725,14.879 15.760 C 14.593 15.814,14.289 15.989,14.149 16.180 C 14.085 16.268,13.818 16.768,13.556 17.290 C 13.294 17.813,13.071 18.240,13.061 18.240 C 12.995 18.240,12.135 17.834,11.699 17.597 C 10.576 16.987,9.629 16.274,8.677 15.323 C 7.731 14.377,7.018 13.429,6.402 12.299 C 6.167 11.867,5.760 11.006,5.760 10.940 C 5.760 10.930,6.211 10.695,6.763 10.418 C 7.805 9.894,7.994 9.763,8.136 9.463 C 8.243 9.236,8.279 8.957,8.238 8.665 C 8.101 7.698,7.347 3.307,7.294 3.162 C 7.208 2.932,6.955 2.660,6.702 2.526 L 6.500 2.420 4.960 2.410 C 3.560 2.401,3.401 2.407,3.213 2.473 M20.060 2.453 C 19.972 2.482,19.855 2.529,19.800 2.557 C 19.745 2.586,18.777 3.529,17.650 4.654 L 15.600 6.699 15.600 5.651 C 15.600 4.700,15.593 4.583,15.520 4.388 C 15.411 4.097,15.204 3.867,14.929 3.732 C 14.740 3.640,14.648 3.620,14.400 3.620 C 14.152 3.620,14.060 3.640,13.871 3.732 C 13.596 3.867,13.389 4.097,13.280 4.388 C 13.203 4.595,13.200 4.697,13.200 7.200 C 13.200 9.757,13.201 9.801,13.286 10.026 C 13.400 10.331,13.669 10.600,13.974 10.714 C 14.199 10.799,14.243 10.800,16.800 10.800 C 19.357 10.800,19.401 10.799,19.626 10.714 C 19.775 10.659,19.921 10.563,20.042 10.442 C 20.621 9.862,20.462 8.893,19.729 8.532 L 19.500 8.420 18.403 8.408 L 17.307 8.395 19.368 6.328 C 21.308 4.383,21.435 4.246,21.515 4.028 C 21.798 3.258,21.284 2.465,20.470 2.416 C 20.328 2.407,20.151 2.423,20.060 2.453 " fill="#1E1E1E" stroke="none" fill-rule="evenodd"></path></svg>