<svg width="24" height="24" viewBox="0 0 24 24" fill="none" xmlns="http://www.w3.org/2000/svg"><path d="M11.320 2.423 C 11.243 2.432,11.013 2.459,10.808 2.483 C 8.508 2.751,6.197 3.988,4.729 5.739 C 3.496 7.208,2.782 8.773,2.493 10.640 C 2.394 11.282,2.394 12.718,2.493 13.360 C 3.154 17.630,6.370 20.846,10.640 21.507 C 11.282 21.606,12.718 21.606,13.360 21.507 C 15.173 21.226,16.839 20.473,18.220 19.308 C 19.737 18.029,20.852 16.214,21.333 14.240 C 21.526 13.450,21.578 12.972,21.578 12.000 C 21.578 11.336,21.560 10.979,21.507 10.640 C 21.039 7.618,19.289 5.083,16.658 3.615 C 15.639 3.046,14.573 2.686,13.360 2.501 C 12.960 2.440,11.616 2.389,11.320 2.423 M16.137 8.537 C 16.555 8.741,16.778 9.110,16.779 9.600 C 16.781 10.140,16.873 10.031,14.011 12.885 C 11.597 15.294,11.448 15.435,11.228 15.515 C 10.934 15.623,10.665 15.623,10.372 15.515 C 10.158 15.436,10.037 15.328,8.788 14.085 C 7.246 12.550,7.219 12.515,7.221 12.000 C 7.223 11.313,7.707 10.820,8.380 10.820 C 8.884 10.820,8.951 10.864,9.931 11.835 L 10.801 12.697 12.851 10.653 C 13.978 9.529,14.945 8.586,15.000 8.557 C 15.362 8.371,15.783 8.364,16.137 8.537 " fill="#1E1E1E" stroke="none" fill-rule="evenodd"></path></svg>