<svg width="24" height="24" viewBox="0 0 24 24" fill="none" xmlns="http://www.w3.org/2000/svg"><path d="M11.320 2.423 C 11.243 2.432,11.013 2.459,10.808 2.483 C 8.508 2.751,6.197 3.988,4.729 5.739 C 3.496 7.208,2.782 8.773,2.493 10.640 C 2.394 11.282,2.394 12.718,2.493 13.360 C 3.154 17.630,6.370 20.846,10.640 21.507 C 11.282 21.606,12.718 21.606,13.360 21.507 C 15.173 21.226,16.839 20.473,18.220 19.308 C 19.737 18.029,20.852 16.214,21.333 14.240 C 21.526 13.450,21.578 12.972,21.578 12.000 C 21.578 11.336,21.560 10.979,21.507 10.640 C 21.039 7.618,19.289 5.083,16.658 3.615 C 15.639 3.046,14.573 2.686,13.360 2.501 C 12.960 2.440,11.616 2.389,11.320 2.423 M12.530 7.334 C 12.697 7.416,13.136 7.834,14.685 9.388 C 16.851 11.562,16.780 11.473,16.780 12.020 C 16.780 12.528,16.799 12.505,14.612 14.685 C 12.780 16.511,12.646 16.636,12.428 16.715 C 11.838 16.932,11.205 16.684,10.932 16.129 C 10.842 15.944,10.820 15.846,10.820 15.620 C 10.820 15.116,10.864 15.049,11.834 14.070 L 12.696 13.200 10.450 13.200 C 8.298 13.200,8.194 13.197,7.988 13.120 C 7.697 13.011,7.467 12.804,7.332 12.529 C 7.239 12.339,7.220 12.249,7.221 12.000 C 7.222 11.506,7.444 11.142,7.873 10.932 L 8.100 10.820 10.398 10.809 L 12.695 10.797 11.850 9.949 C 11.219 9.316,10.983 9.052,10.920 8.910 C 10.547 8.066,11.165 7.154,12.070 7.214 C 12.230 7.225,12.396 7.268,12.530 7.334 " fill="#1E1E1E" stroke="none" fill-rule="evenodd"></path></svg>