<svg width="24" height="24" viewBox="0 0 24 24" fill="none" xmlns="http://www.w3.org/2000/svg"><path d="M6.680 2.462 C 6.243 2.557,5.860 2.772,5.519 3.116 C 5.172 3.465,4.994 3.774,4.879 4.224 C 4.802 4.526,4.800 4.695,4.800 12.000 C 4.800 19.305,4.802 19.474,4.879 19.776 C 4.995 20.228,5.172 20.535,5.519 20.881 C 5.865 21.228,6.172 21.405,6.624 21.521 C 6.924 21.598,7.085 21.600,12.000 21.600 C 16.915 21.600,17.076 21.598,17.376 21.521 C 17.828 21.405,18.135 21.228,18.481 20.881 C 18.828 20.535,19.005 20.228,19.121 19.776 C 19.198 19.474,19.200 19.305,19.200 12.000 C 19.200 4.695,19.198 4.526,19.121 4.224 C 19.006 3.774,18.828 3.465,18.481 3.116 C 18.134 2.767,17.754 2.555,17.300 2.460 C 16.893 2.375,7.077 2.377,6.680 2.462 M12.537 16.937 C 12.955 17.141,13.178 17.510,13.179 18.000 C 13.180 18.249,13.161 18.339,13.068 18.529 C 12.933 18.804,12.703 19.011,12.412 19.120 C 11.530 19.450,10.619 18.643,10.838 17.727 C 11.019 16.974,11.836 16.594,12.537 16.937 " fill="#1E1E1E" stroke="none" fill-rule="evenodd"></path></svg>