<svg width="24" height="24" viewBox="0 0 24 24" fill="none" xmlns="http://www.w3.org/2000/svg"><path d="M11.365 2.583 C 10.983 2.686,10.602 2.914,10.300 3.220 C 10.029 3.495,9.906 3.706,6.570 9.643 C 4.673 13.019,3.084 15.884,3.040 16.010 C 2.603 17.254,3.259 18.610,4.521 19.071 L 4.820 19.180 11.891 19.191 C 19.663 19.202,19.206 19.215,19.736 18.961 C 20.635 18.531,21.215 17.475,21.080 16.519 C 21.058 16.364,21.004 16.135,20.960 16.010 C 20.916 15.884,19.327 13.019,17.430 9.643 C 14.094 3.706,13.971 3.495,13.700 3.220 C 13.392 2.908,13.014 2.684,12.618 2.581 C 12.323 2.504,11.654 2.505,11.365 2.583 M12.537 6.137 C 12.785 6.258,12.974 6.455,13.096 6.718 C 13.178 6.896,13.180 6.949,13.180 9.000 L 13.180 11.100 13.068 11.329 C 12.798 11.877,12.158 12.133,11.588 11.920 C 11.297 11.811,11.067 11.604,10.932 11.329 L 10.820 11.100 10.807 9.120 C 10.799 7.771,10.809 7.075,10.839 6.935 C 11.002 6.183,11.833 5.792,12.537 6.137 M12.537 14.537 C 12.955 14.741,13.178 15.110,13.179 15.600 C 13.180 15.849,13.161 15.939,13.068 16.129 C 12.933 16.404,12.703 16.611,12.412 16.720 C 11.530 17.050,10.619 16.243,10.838 15.327 C 11.019 14.574,11.836 14.194,12.537 14.537 " fill="#1E1E1E" stroke="none" fill-rule="evenodd"></path></svg>