<svg width="24" height="24" viewBox="0 0 24 24" fill="none" xmlns="http://www.w3.org/2000/svg"><path d="M9.213 2.473 C 8.842 2.603,8.596 2.852,8.462 3.235 C 8.260 3.809,8.591 4.496,9.174 4.714 C 9.392 4.796,9.470 4.800,10.800 4.800 C 12.130 4.800,12.208 4.796,12.426 4.714 C 12.575 4.659,12.721 4.563,12.842 4.442 C 13.421 3.862,13.262 2.893,12.529 2.532 L 12.300 2.420 10.860 2.410 C 9.558 2.402,9.400 2.408,9.213 2.473 M5.480 3.662 C 4.599 3.852,3.847 4.612,3.660 5.500 C 3.572 5.921,3.572 19.279,3.660 19.700 C 3.849 20.600,4.600 21.351,5.500 21.540 C 5.919 21.628,15.681 21.628,16.100 21.540 C 17.000 21.351,17.751 20.600,17.940 19.700 C 17.987 19.477,17.999 19.035,17.999 17.512 L 18.000 15.604 19.350 15.592 C 20.624 15.581,20.710 15.575,20.882 15.496 C 21.148 15.373,21.342 15.185,21.468 14.927 C 21.560 14.740,21.580 14.647,21.580 14.400 C 21.580 14.005,21.441 13.706,21.153 13.478 C 20.821 13.216,20.714 13.200,19.273 13.200 L 18.000 13.200 17.999 9.490 C 17.999 6.382,17.989 5.735,17.940 5.500 C 17.751 4.602,16.998 3.849,16.100 3.660 C 15.603 3.556,15.616 3.549,15.585 3.918 C 15.550 4.337,15.395 4.860,15.189 5.257 C 14.732 6.135,13.972 6.757,12.971 7.069 L 12.620 7.179 10.800 7.179 L 8.980 7.179 8.629 7.069 C 7.628 6.757,6.868 6.135,6.411 5.257 C 6.205 4.860,6.050 4.337,6.015 3.918 L 5.988 3.600 5.864 3.603 C 5.796 3.605,5.623 3.632,5.480 3.662 M13.626 9.686 C 14.072 9.852,14.400 10.325,14.400 10.800 C 14.400 10.908,14.361 11.101,14.314 11.228 C 14.238 11.436,14.140 11.550,13.366 12.330 L 12.504 13.200 15.252 13.200 L 18.000 13.200 18.000 14.400 L 18.000 15.600 15.252 15.600 L 12.504 15.600 13.366 16.470 C 14.140 17.250,14.238 17.364,14.314 17.572 C 14.528 18.150,14.299 18.760,13.754 19.061 C 13.564 19.167,13.502 19.180,13.200 19.180 C 12.902 19.180,12.835 19.166,12.656 19.067 C 12.513 18.987,11.874 18.374,10.511 17.007 C 8.666 15.157,8.565 15.048,8.481 14.820 C 8.416 14.642,8.397 14.517,8.408 14.338 C 8.437 13.862,8.451 13.845,10.588 11.715 C 12.371 9.938,12.559 9.762,12.760 9.687 C 13.047 9.579,13.339 9.578,13.626 9.686 " fill="#1E1E1E" stroke="none" fill-rule="evenodd"></path></svg>