<svg width="24" height="24" viewBox="0 0 24 24" fill="none" xmlns="http://www.w3.org/2000/svg"><path d="M5.613 4.872 C 4.933 5.115,4.626 5.841,4.920 6.510 C 4.987 6.663,5.516 7.213,7.651 9.350 L 10.299 12.000 7.634 14.670 C 4.671 17.640,4.820 17.462,4.820 18.020 C 4.820 18.684,5.312 19.175,5.980 19.179 C 6.541 19.181,6.306 19.383,9.811 15.885 C 13.333 12.371,13.180 12.547,13.180 12.000 C 13.180 11.453,13.330 11.627,9.831 8.132 C 7.237 5.540,6.666 4.989,6.502 4.917 C 6.229 4.796,5.874 4.778,5.613 4.872 M12.813 4.872 C 12.160 5.105,11.846 5.776,12.085 6.428 C 12.165 6.648,12.309 6.800,14.834 9.330 L 17.499 12.000 14.834 14.670 C 12.309 17.200,12.165 17.352,12.085 17.572 C 11.917 18.029,12.019 18.503,12.358 18.842 C 12.697 19.181,13.171 19.283,13.628 19.115 C 13.849 19.035,14.014 18.877,17.011 15.885 C 20.454 12.450,20.362 12.554,20.392 12.062 C 20.403 11.883,20.384 11.758,20.319 11.580 C 20.234 11.349,20.114 11.223,17.085 8.189 C 14.538 5.637,13.900 5.018,13.730 4.934 C 13.450 4.796,13.093 4.772,12.813 4.872 " fill="#1E1E1E" stroke="none" fill-rule="evenodd"></path></svg>