<svg width="24" height="24" viewBox="0 0 24 24" fill="none" xmlns="http://www.w3.org/2000/svg"><path d="M11.320 2.423 C 11.243 2.432,11.013 2.459,10.808 2.483 C 8.524 2.749,6.256 3.956,4.763 5.698 C 3.528 7.140,2.784 8.759,2.493 10.640 C 2.394 11.282,2.394 12.718,2.493 13.360 C 3.154 17.630,6.370 20.846,10.640 21.507 C 11.282 21.606,12.718 21.606,13.360 21.507 C 15.173 21.226,16.839 20.473,18.220 19.308 C 19.737 18.029,20.852 16.214,21.333 14.240 C 21.526 13.450,21.578 12.972,21.578 12.000 C 21.578 11.336,21.560 10.979,21.507 10.640 C 21.039 7.618,19.289 5.083,16.658 3.615 C 15.639 3.046,14.573 2.686,13.360 2.501 C 12.960 2.440,11.616 2.389,11.320 2.423 M10.137 8.537 C 10.385 8.658,10.574 8.855,10.696 9.118 C 10.779 9.297,10.780 9.339,10.780 12.000 L 10.780 14.700 10.668 14.929 C 10.398 15.477,9.758 15.733,9.188 15.520 C 8.897 15.411,8.667 15.204,8.532 14.929 L 8.420 14.700 8.407 12.120 C 8.399 10.337,8.408 9.477,8.439 9.335 C 8.602 8.583,9.433 8.192,10.137 8.537 M14.937 8.537 C 15.185 8.658,15.374 8.855,15.496 9.118 C 15.579 9.297,15.580 9.339,15.580 12.000 L 15.580 14.700 15.468 14.929 C 15.333 15.204,15.103 15.411,14.812 15.520 C 14.242 15.733,13.602 15.477,13.332 14.929 L 13.220 14.700 13.207 12.120 C 13.199 10.337,13.208 9.477,13.239 9.335 C 13.402 8.583,14.233 8.192,14.937 8.537 " fill="#1E1E1E" stroke="none" fill-rule="evenodd"></path></svg>