<svg width="24" height="24" viewBox="0 0 24 24" fill="none" xmlns="http://www.w3.org/2000/svg"><path d="M11.660 2.454 C 11.572 2.483,9.580 3.330,7.234 4.336 C 4.013 5.717,2.929 6.199,2.807 6.304 C 2.420 6.634,2.300 7.257,2.532 7.729 C 2.722 8.114,2.815 8.169,4.574 8.923 C 5.457 9.302,6.211 9.620,6.250 9.631 C 6.290 9.641,6.376 9.599,6.453 9.531 C 6.657 9.353,11.606 7.242,11.890 7.213 C 12.364 7.164,12.854 7.437,13.066 7.868 C 13.228 8.197,13.228 8.601,13.068 8.929 C 12.877 9.317,12.793 9.365,10.915 10.171 L 9.198 10.907 10.449 11.443 C 11.684 11.973,11.704 11.980,12.000 11.980 L 12.300 11.980 16.665 10.108 C 19.968 8.691,21.070 8.202,21.193 8.097 C 21.580 7.766,21.700 7.144,21.468 6.671 C 21.406 6.545,21.282 6.380,21.193 6.303 C 21.070 6.198,19.973 5.711,16.674 4.297 C 12.757 2.619,12.292 2.429,12.068 2.416 C 11.926 2.407,11.751 2.423,11.660 2.454 M3.885 11.689 C 3.672 12.709,3.576 13.829,3.616 14.840 C 3.662 16.009,3.750 16.309,4.138 16.605 C 4.372 16.784,4.477 16.815,5.180 16.918 C 5.488 16.963,5.794 17.015,5.860 17.033 L 5.980 17.066 6.000 18.883 L 6.020 20.700 6.132 20.927 C 6.342 21.356,6.707 21.578,7.200 21.578 C 7.693 21.578,8.058 21.356,8.268 20.927 L 8.380 20.700 8.392 19.310 L 8.404 17.920 8.094 17.779 C 7.627 17.566,7.077 17.367,6.510 17.207 L 6.000 17.062 5.999 14.601 L 5.999 12.140 5.014 11.720 C 4.473 11.489,4.017 11.295,4.000 11.289 C 3.984 11.282,3.932 11.462,3.885 11.689 M16.600 12.742 C 14.741 13.541,13.076 14.237,12.900 14.287 C 12.628 14.365,12.490 14.378,11.980 14.376 C 11.225 14.373,11.103 14.338,9.582 13.682 C 8.966 13.417,8.449 13.200,8.432 13.200 C 8.414 13.200,8.400 14.260,8.400 15.556 L 8.400 17.913 8.710 18.083 C 9.499 18.515,10.277 19.071,10.920 19.663 C 11.385 20.091,11.630 20.216,12.000 20.216 C 12.370 20.216,12.615 20.091,13.080 19.663 C 14.686 18.186,16.683 17.231,18.820 16.918 C 19.522 16.815,19.628 16.784,19.862 16.605 C 20.111 16.415,20.267 16.132,20.318 15.779 C 20.432 14.988,20.406 13.482,20.260 12.500 C 20.182 11.975,20.036 11.279,20.005 11.284 C 19.991 11.286,18.459 11.942,16.600 12.742 " fill="#1E1E1E" stroke="none" fill-rule="evenodd"></path></svg>