<svg width="24" height="24" viewBox="0 0 24 24" fill="none" xmlns="http://www.w3.org/2000/svg"><path d="M11.133 2.441 C 6.993 2.844,3.645 5.743,2.662 9.778 C 2.474 10.550,2.422 11.033,2.422 12.000 C 2.422 12.664,2.440 13.021,2.493 13.360 C 2.865 15.764,4.019 17.826,5.860 19.378 C 6.242 19.700,6.975 20.197,7.443 20.451 C 9.364 21.494,11.652 21.841,13.831 21.419 C 14.918 21.209,15.949 20.819,16.872 20.269 C 17.365 19.975,17.612 19.725,17.700 19.429 C 17.828 18.996,17.743 18.603,17.450 18.278 C 17.190 17.988,16.948 17.881,16.552 17.880 C 16.268 17.880,16.222 17.892,15.952 18.040 C 14.312 18.941,13.182 19.247,11.720 19.187 C 9.937 19.114,8.346 18.445,7.052 17.225 C 6.016 16.248,5.244 14.873,4.963 13.500 C 4.584 11.654,4.921 9.750,5.908 8.166 C 6.912 6.552,8.646 5.346,10.513 4.961 C 11.735 4.708,13.075 4.781,14.247 5.162 C 14.719 5.315,15.505 5.693,15.931 5.971 C 17.516 7.005,18.668 8.689,19.038 10.513 C 19.141 11.021,19.215 11.795,19.188 12.090 C 19.116 12.888,18.327 13.396,17.588 13.120 C 17.300 13.012,17.067 12.804,16.937 12.538 C 16.847 12.353,16.824 12.238,16.797 11.829 C 16.743 11.003,16.599 10.468,16.247 9.781 C 15.600 8.521,14.411 7.623,12.954 7.294 C 12.547 7.202,11.453 7.202,11.046 7.294 C 9.050 7.744,7.580 9.277,7.262 11.241 C 6.780 14.214,9.179 16.918,12.180 16.785 C 13.509 16.726,14.626 16.211,15.528 15.241 L 15.856 14.887 16.028 15.006 C 16.288 15.185,16.742 15.388,17.100 15.487 C 17.364 15.559,17.524 15.575,18.020 15.574 C 18.557 15.573,18.657 15.562,18.978 15.465 C 20.203 15.092,21.105 14.189,21.461 12.978 C 21.733 12.052,21.586 10.437,21.095 8.960 C 19.948 5.512,16.990 3.043,13.360 2.501 C 12.849 2.425,11.634 2.392,11.133 2.441 M12.500 9.660 C 13.180 9.803,13.834 10.307,14.134 10.920 C 14.604 11.880,14.432 12.939,13.684 13.681 C 13.335 14.028,13.026 14.206,12.576 14.321 C 12.012 14.465,11.398 14.390,10.867 14.112 C 10.502 13.921,10.049 13.454,9.866 13.080 C 9.396 12.120,9.568 11.065,10.316 10.316 C 10.911 9.722,11.685 9.489,12.500 9.660 " fill="#1E1E1E" stroke="none" fill-rule="evenodd"></path></svg>