<svg width="24" height="24" viewBox="0 0 24 24" fill="none" xmlns="http://www.w3.org/2000/svg"><path d="M18.860 6.053 C 18.772 6.082,18.655 6.129,18.600 6.157 C 18.545 6.185,16.498 8.209,14.050 10.654 L 9.601 15.099 7.530 13.035 C 5.225 10.736,5.329 10.820,4.780 10.820 C 3.948 10.820,3.394 11.633,3.685 12.428 C 3.765 12.648,3.906 12.797,6.315 15.211 C 9.097 18.001,9.052 17.962,9.538 17.992 C 9.717 18.003,9.843 17.984,10.020 17.919 C 10.253 17.834,10.408 17.683,15.211 12.886 C 19.355 8.747,20.180 7.904,20.270 7.722 C 20.647 6.955,20.127 6.068,19.270 6.016 C 19.128 6.007,18.951 6.023,18.860 6.053 " fill="#1E1E1E" stroke="none" fill-rule="evenodd"></path></svg>