<svg width="24" height="24" viewBox="0 0 24 24" fill="none" xmlns="http://www.w3.org/2000/svg"><path d="M8.800 2.458 C 7.442 2.654,6.275 3.240,5.320 4.206 C 4.517 5.019,3.994 5.995,3.712 7.209 C 3.628 7.568,3.625 7.679,3.610 10.560 C 3.594 13.662,3.608 14.065,3.763 14.845 C 4.003 16.046,4.527 17.222,5.272 18.227 C 5.609 18.681,6.519 19.591,6.973 19.928 C 9.974 22.153,14.026 22.153,17.027 19.928 C 17.481 19.591,18.391 18.681,18.728 18.227 C 19.436 17.271,19.955 16.141,20.199 15.020 C 20.382 14.181,20.397 13.864,20.399 10.952 C 20.400 8.296,20.397 8.196,20.320 7.988 C 20.211 7.697,20.004 7.467,19.729 7.332 C 19.540 7.240,19.448 7.220,19.200 7.220 C 18.700 7.220,18.313 7.466,18.104 7.918 C 18.022 8.096,18.020 8.160,17.998 11.000 C 17.979 13.476,17.966 13.950,17.909 14.241 C 17.799 14.808,17.647 15.277,17.423 15.745 C 16.584 17.496,15.102 18.662,13.174 19.087 C 12.603 19.213,11.397 19.213,10.826 19.087 C 8.341 18.539,6.561 16.711,6.088 14.220 C 6.028 13.900,6.020 13.521,6.020 10.840 C 6.020 7.825,6.020 7.819,6.111 7.500 C 6.474 6.217,7.432 5.260,8.700 4.914 C 9.155 4.790,10.038 4.791,10.500 4.915 C 11.774 5.258,12.749 6.239,13.090 7.520 C 13.179 7.858,13.180 7.878,13.180 10.680 L 13.180 13.500 13.068 13.729 C 12.798 14.277,12.158 14.533,11.588 14.320 C 11.297 14.211,11.067 14.004,10.932 13.729 L 10.820 13.500 10.800 10.800 L 10.780 8.100 10.668 7.873 C 10.458 7.444,10.094 7.222,9.600 7.221 C 9.351 7.220,9.261 7.239,9.071 7.332 C 8.795 7.468,8.589 7.697,8.479 7.993 C 8.398 8.208,8.397 8.271,8.409 11.016 L 8.421 13.820 8.533 14.178 C 8.917 15.411,9.798 16.292,11.022 16.665 C 11.346 16.764,11.439 16.774,12.000 16.774 C 12.561 16.774,12.654 16.764,12.978 16.665 C 14.202 16.292,15.081 15.414,15.468 14.178 L 15.580 13.820 15.580 10.740 C 15.580 7.703,15.579 7.654,15.491 7.248 C 14.952 4.761,13.090 2.936,10.641 2.496 C 10.159 2.409,9.263 2.391,8.800 2.458 " fill="#1E1E1E" stroke="none" fill-rule="evenodd"></path></svg>