<svg width="24" height="24" viewBox="0 0 24 24" fill="none" xmlns="http://www.w3.org/2000/svg"><path d="M11.613 2.472 C 11.346 2.567,11.138 2.728,11.006 2.940 C 10.948 3.034,8.992 6.929,6.660 11.596 L 2.420 20.082 2.420 20.391 C 2.420 20.649,2.439 20.738,2.532 20.929 C 2.744 21.361,3.199 21.626,3.660 21.588 C 3.949 21.564,9.896 19.872,10.164 19.737 C 10.381 19.628,10.579 19.414,10.696 19.162 C 10.778 18.983,10.780 18.925,10.800 15.940 L 10.820 12.900 10.932 12.673 C 11.142 12.244,11.507 12.022,12.000 12.022 C 12.493 12.022,12.858 12.244,13.068 12.673 L 13.180 12.900 13.200 15.960 L 13.220 19.020 13.310 19.189 C 13.444 19.440,13.630 19.634,13.836 19.737 C 14.104 19.872,20.051 21.564,20.340 21.588 C 20.801 21.626,21.256 21.361,21.468 20.929 C 21.561 20.738,21.580 20.649,21.580 20.390 L 21.580 20.081 17.292 11.504 C 14.838 6.595,12.950 2.866,12.879 2.785 C 12.596 2.463,12.030 2.323,11.613 2.472 " fill="#1E1E1E" stroke="none" fill-rule="evenodd"></path></svg>