<svg width="24" height="24" viewBox="0 0 24 24" fill="none" xmlns="http://www.w3.org/2000/svg"><path d="M4.413 7.274 C 4.042 7.402,3.796 7.651,3.662 8.035 C 3.460 8.609,3.791 9.296,4.374 9.514 L 4.603 9.600 12.000 9.600 L 19.397 9.600 19.626 9.514 C 19.775 9.459,19.921 9.363,20.042 9.242 C 20.621 8.662,20.462 7.693,19.729 7.332 L 19.500 7.220 12.060 7.211 C 4.999 7.203,4.609 7.206,4.413 7.274 M4.413 14.474 C 4.119 14.576,3.867 14.796,3.733 15.070 C 3.639 15.261,3.620 15.351,3.621 15.600 C 3.622 16.094,3.844 16.458,4.273 16.668 L 4.500 16.780 12.000 16.780 L 19.500 16.780 19.682 16.696 C 19.948 16.573,20.142 16.385,20.268 16.127 C 20.360 15.940,20.380 15.847,20.380 15.600 C 20.380 15.205,20.241 14.906,19.953 14.678 C 19.574 14.379,20.181 14.400,11.983 14.401 C 5.013 14.403,4.609 14.406,4.413 14.474 " fill="#1E1E1E" stroke="none" fill-rule="evenodd"></path></svg>