<svg width="24" height="24" viewBox="0 0 24 24" fill="none" xmlns="http://www.w3.org/2000/svg"><path d="M4.280 3.662 C 3.843 3.757,3.460 3.972,3.119 4.316 C 2.772 4.665,2.594 4.974,2.479 5.424 C 2.402 5.725,2.400 5.890,2.400 12.000 C 2.400 18.110,2.402 18.275,2.479 18.576 C 2.595 19.028,2.772 19.335,3.119 19.681 C 3.465 20.028,3.772 20.205,4.224 20.321 C 4.526 20.398,4.695 20.400,12.000 20.400 C 19.305 20.400,19.474 20.398,19.776 20.321 C 20.228 20.205,20.535 20.028,20.881 19.681 C 21.228 19.335,21.405 19.028,21.521 18.576 C 21.598 18.275,21.600 18.110,21.600 12.000 C 21.600 5.890,21.598 5.725,21.521 5.424 C 21.406 4.974,21.228 4.665,20.881 4.316 C 20.534 3.967,20.154 3.755,19.700 3.660 C 19.291 3.574,4.679 3.576,4.280 3.662 M6.000 7.200 L 6.000 8.400 5.400 8.400 L 4.800 8.400 4.800 7.200 L 4.800 6.000 5.400 6.000 L 6.000 6.000 6.000 7.200 M15.600 8.400 L 15.600 10.800 12.000 10.800 L 8.400 10.800 8.400 8.400 L 8.400 6.000 12.000 6.000 L 15.600 6.000 15.600 8.400 M19.200 7.200 L 19.200 8.400 18.600 8.400 L 18.000 8.400 18.000 7.200 L 18.000 6.000 18.600 6.000 L 19.200 6.000 19.200 7.200 M6.000 12.000 L 6.000 13.200 5.400 13.200 L 4.800 13.200 4.800 12.000 L 4.800 10.800 5.400 10.800 L 6.000 10.800 6.000 12.000 M19.200 12.000 L 19.200 13.200 18.600 13.200 L 18.000 13.200 18.000 12.000 L 18.000 10.800 18.600 10.800 L 19.200 10.800 19.200 12.000 M15.600 15.600 L 15.600 18.000 12.000 18.000 L 8.400 18.000 8.400 15.600 L 8.400 13.200 12.000 13.200 L 15.600 13.200 15.600 15.600 M6.000 16.800 L 6.000 18.000 5.400 18.000 L 4.800 18.000 4.800 16.800 L 4.800 15.600 5.400 15.600 L 6.000 15.600 6.000 16.800 M19.200 16.800 L 19.200 18.000 18.600 18.000 L 18.000 18.000 18.000 16.800 L 18.000 15.600 18.600 15.600 L 19.200 15.600 19.200 16.800 " fill="#1E1E1E" stroke="none" fill-rule="evenodd"></path></svg>