<svg width="24" height="24" viewBox="0 0 24 24" fill="none" xmlns="http://www.w3.org/2000/svg"><path d="M6.819 8.470 C 6.290 8.659,5.968 9.137,6.008 9.677 C 6.042 10.149,6.016 10.119,8.789 12.885 C 11.233 15.324,11.350 15.434,11.580 15.519 C 11.758 15.584,11.883 15.603,12.062 15.592 C 12.548 15.562,12.503 15.601,15.285 12.811 C 17.694 10.397,17.835 10.248,17.915 10.028 C 18.132 9.438,17.884 8.805,17.329 8.532 C 17.144 8.442,17.046 8.420,16.820 8.420 C 16.271 8.420,16.375 8.336,14.070 10.634 L 12.000 12.699 9.950 10.651 C 7.718 8.422,7.747 8.445,7.262 8.414 C 7.096 8.403,6.957 8.420,6.819 8.470 " fill="#1E1E1E" stroke="none" fill-rule="evenodd"></path></svg>