<svg width="24" height="24" viewBox="0 0 24 24" fill="none" xmlns="http://www.w3.org/2000/svg"><path d="M4.280 3.662 C 3.843 3.757,3.460 3.972,3.119 4.316 C 2.772 4.665,2.594 4.974,2.479 5.424 C 2.402 5.724,2.400 5.885,2.400 10.800 C 2.400 15.715,2.402 15.876,2.479 16.176 C 2.595 16.628,2.772 16.935,3.119 17.281 C 3.465 17.628,3.772 17.805,4.224 17.921 C 4.511 17.994,4.672 18.000,6.476 18.000 L 8.420 18.000 10.220 19.800 L 12.020 21.600 13.820 19.800 L 15.620 18.000 17.543 18.000 C 19.328 18.000,19.490 17.994,19.776 17.921 C 20.228 17.805,20.535 17.628,20.881 17.281 C 21.228 16.935,21.405 16.628,21.521 16.176 C 21.598 15.876,21.600 15.715,21.600 10.800 C 21.600 5.885,21.598 5.724,21.521 5.424 C 21.406 4.974,21.228 4.665,20.881 4.316 C 20.534 3.967,20.154 3.755,19.700 3.660 C 19.291 3.574,4.679 3.576,4.280 3.662 M17.327 7.332 C 17.756 7.542,17.978 7.906,17.979 8.400 C 17.980 8.649,17.961 8.739,17.868 8.929 C 17.733 9.204,17.503 9.411,17.212 9.520 C 17.001 9.599,16.906 9.600,12.000 9.600 C 7.094 9.600,6.999 9.599,6.788 9.520 C 6.071 9.251,5.787 8.397,6.199 7.748 C 6.340 7.526,6.547 7.366,6.813 7.274 C 7.008 7.206,7.303 7.202,12.060 7.211 L 17.100 7.220 17.327 7.332 M11.327 12.132 C 11.756 12.342,11.978 12.706,11.979 13.200 C 11.980 13.449,11.961 13.539,11.868 13.729 C 11.733 14.004,11.503 14.211,11.212 14.320 C 11.007 14.396,10.902 14.400,9.000 14.400 C 7.098 14.400,6.993 14.396,6.788 14.320 C 5.922 13.995,5.733 12.812,6.459 12.258 C 6.796 12.001,6.808 12.000,9.060 12.011 L 11.100 12.020 11.327 12.132 " fill="#1E1E1E" stroke="none" fill-rule="evenodd"></path></svg>