<svg width="24" height="24" viewBox="0 0 24 24" fill="none" xmlns="http://www.w3.org/2000/svg"><path d="M8.053 6.055 C 7.961 6.085,7.826 6.147,7.753 6.193 C 7.680 6.239,6.484 7.415,5.095 8.808 C 2.676 11.233,2.566 11.350,2.481 11.580 C 2.416 11.758,2.397 11.883,2.408 12.062 C 2.438 12.548,2.399 12.503,5.189 15.285 C 7.603 17.694,7.752 17.835,7.972 17.915 C 8.429 18.083,8.903 17.981,9.242 17.642 C 9.581 17.303,9.683 16.828,9.515 16.372 C 9.436 16.157,9.325 16.034,7.966 14.670 L 6.502 13.200 13.550 13.200 L 20.597 13.200 20.826 13.114 C 20.975 13.059,21.121 12.963,21.242 12.842 C 21.821 12.262,21.662 11.293,20.929 10.932 L 20.700 10.820 13.602 10.810 L 6.503 10.799 7.967 9.330 C 9.325 7.966,9.436 7.843,9.515 7.628 C 9.798 6.858,9.284 6.065,8.470 6.016 C 8.325 6.007,8.150 6.023,8.053 6.055 " fill="#1E1E1E" stroke="none" fill-rule="evenodd"></path></svg>