<svg width="24" height="24" viewBox="0 0 24 24" fill="none" xmlns="http://www.w3.org/2000/svg"><path d="M11.660 2.454 C 11.572 2.484,10.182 3.167,8.570 3.974 C 6.572 4.974,5.588 5.487,5.477 5.587 C 5.220 5.819,5.105 6.081,5.102 6.440 C 5.100 6.690,5.118 6.778,5.211 6.966 C 5.272 7.091,5.394 7.258,5.482 7.337 C 5.590 7.434,6.633 7.977,8.661 8.990 L 11.680 10.499 12.000 10.499 L 12.320 10.499 15.339 8.990 C 17.367 7.977,18.410 7.434,18.518 7.337 C 19.022 6.882,19.031 6.057,18.537 5.601 C 18.406 5.481,17.608 5.064,15.351 3.936 C 12.455 2.489,12.330 2.431,12.080 2.416 C 11.926 2.407,11.754 2.422,11.660 2.454 M4.480 9.932 C 4.072 10.047,3.727 10.410,3.640 10.814 C 3.608 10.959,3.599 12.097,3.608 14.660 L 3.620 18.300 3.732 18.527 C 3.793 18.652,3.907 18.811,3.986 18.880 C 4.064 18.948,5.288 19.584,6.706 20.292 L 9.283 21.580 9.592 21.579 C 10.095 21.578,10.457 21.359,10.668 20.927 L 10.780 20.700 10.780 16.940 L 10.780 13.180 10.694 12.994 C 10.512 12.600,10.473 12.577,7.711 11.199 C 5.359 10.026,5.120 9.915,4.900 9.899 C 4.768 9.889,4.579 9.904,4.480 9.932 M18.911 9.923 C 18.693 9.975,13.766 12.452,13.593 12.598 C 13.511 12.666,13.394 12.825,13.333 12.951 L 13.220 13.180 13.220 16.940 L 13.220 20.700 13.332 20.927 C 13.543 21.359,13.905 21.578,14.408 21.579 L 14.717 21.580 17.294 20.292 C 18.712 19.584,19.936 18.948,20.014 18.880 C 20.093 18.811,20.207 18.652,20.268 18.527 L 20.380 18.300 20.380 14.540 L 20.380 10.780 20.266 10.548 C 20.022 10.052,19.462 9.793,18.911 9.923 " fill="#1E1E1E" stroke="none" fill-rule="evenodd"></path></svg>