<svg width="24" height="24" viewBox="0 0 24 24" fill="none" xmlns="http://www.w3.org/2000/svg"><path d="M15.213 6.072 C 14.560 6.305,14.246 6.977,14.485 7.628 C 14.564 7.843,14.675 7.966,16.033 9.330 L 17.497 10.799 10.398 10.810 L 3.300 10.820 3.071 10.932 C 2.338 11.293,2.179 12.262,2.758 12.842 C 2.879 12.963,3.025 13.059,3.174 13.114 L 3.403 13.200 10.450 13.200 L 17.498 13.200 16.034 14.670 C 14.675 16.034,14.564 16.157,14.485 16.372 C 14.317 16.828,14.419 17.303,14.758 17.642 C 15.097 17.981,15.571 18.083,16.028 17.915 C 16.248 17.835,16.397 17.694,18.811 15.285 C 21.601 12.503,21.562 12.548,21.592 12.062 C 21.603 11.883,21.584 11.758,21.519 11.580 C 21.434 11.350,21.324 11.233,18.885 8.789 C 16.837 6.736,16.299 6.217,16.130 6.134 C 15.850 5.996,15.493 5.972,15.213 6.072 " fill="#1E1E1E" stroke="none" fill-rule="evenodd"></path></svg>