<svg width="24" height="24" viewBox="0 0 24 24" fill="none" xmlns="http://www.w3.org/2000/svg"><path d="M11.653 2.455 C 11.561 2.485,11.426 2.547,11.353 2.593 C 11.280 2.639,10.084 3.815,8.695 5.208 C 6.305 7.604,6.165 7.752,6.085 7.972 C 5.917 8.429,6.019 8.903,6.358 9.242 C 6.697 9.581,7.172 9.683,7.628 9.515 C 7.843 9.436,7.966 9.325,9.330 7.966 L 10.800 6.502 10.800 13.550 L 10.800 20.597 10.886 20.826 C 11.052 21.272,11.525 21.600,12.000 21.600 C 12.475 21.600,12.948 21.272,13.114 20.826 L 13.200 20.597 13.200 13.550 L 13.200 6.502 14.670 7.966 C 16.034 9.325,16.157 9.436,16.372 9.515 C 16.828 9.683,17.303 9.581,17.642 9.242 C 17.981 8.903,18.083 8.429,17.915 7.972 C 17.835 7.752,17.694 7.603,15.285 5.189 C 13.237 3.136,12.699 2.617,12.530 2.534 C 12.277 2.409,11.897 2.375,11.653 2.455 " fill="#1E1E1E" stroke="none" fill-rule="evenodd"></path></svg>