<svg width="24" height="24" viewBox="0 0 24 24" fill="none" xmlns="http://www.w3.org/2000/svg"><path d="M10.320 4.825 C 9.627 4.924,9.152 5.063,8.674 5.303 C 6.793 6.250,5.747 8.256,6.058 10.320 C 6.089 10.530,6.126 10.730,6.140 10.766 C 6.160 10.819,6.125 10.835,5.942 10.858 C 5.146 10.958,4.243 11.422,3.619 12.055 C 3.072 12.609,2.721 13.234,2.516 14.020 C 2.384 14.522,2.381 15.454,2.509 15.960 C 2.908 17.540,4.052 18.685,5.640 19.093 L 5.980 19.180 11.440 19.180 C 17.546 19.180,17.090 19.200,17.979 18.892 C 18.802 18.607,19.473 18.171,20.107 17.507 C 20.824 16.757,21.276 15.893,21.504 14.839 C 21.608 14.362,21.608 13.238,21.504 12.761 C 21.258 11.619,20.739 10.687,19.911 9.898 C 19.316 9.330,18.654 8.929,17.905 8.684 C 17.253 8.470,16.966 8.426,16.177 8.423 L 15.453 8.421 15.381 8.168 C 15.273 7.789,14.913 7.089,14.644 6.732 C 13.883 5.722,12.748 5.044,11.515 4.863 C 11.129 4.806,10.576 4.788,10.320 4.825 " fill="#1E1E1E" stroke="none" fill-rule="evenodd"></path></svg>