<svg width="24" height="24" viewBox="0 0 24 24" fill="none" xmlns="http://www.w3.org/2000/svg"><path d="M11.653 3.655 C 11.561 3.685,11.426 3.747,11.353 3.793 C 11.280 3.839,9.814 5.285,8.095 7.008 C 5.122 9.987,4.965 10.151,4.885 10.372 C 4.717 10.829,4.819 11.303,5.158 11.642 C 5.497 11.981,5.971 12.083,6.428 11.915 C 6.648 11.835,6.800 11.691,9.330 9.166 L 12.000 6.501 14.670 9.166 C 17.200 11.691,17.352 11.835,17.572 11.915 C 18.029 12.083,18.503 11.981,18.842 11.642 C 19.181 11.303,19.283 10.829,19.115 10.372 C 19.035 10.151,18.877 9.986,15.885 6.989 C 13.338 4.437,12.700 3.818,12.530 3.734 C 12.277 3.609,11.897 3.575,11.653 3.655 M11.653 10.855 C 11.561 10.885,11.426 10.947,11.353 10.993 C 11.280 11.039,9.814 12.485,8.095 14.208 C 5.122 17.187,4.965 17.351,4.885 17.572 C 4.717 18.029,4.819 18.503,5.158 18.842 C 5.497 19.181,5.971 19.283,6.428 19.115 C 6.648 19.035,6.800 18.891,9.330 16.366 L 12.000 13.701 14.670 16.366 C 17.200 18.891,17.352 19.035,17.572 19.115 C 18.029 19.283,18.503 19.181,18.842 18.842 C 19.181 18.503,19.283 18.029,19.115 17.572 C 19.035 17.351,18.877 17.186,15.885 14.189 C 13.338 11.637,12.700 11.018,12.530 10.934 C 12.277 10.809,11.897 10.775,11.653 10.855 " fill="#1E1E1E" stroke="none" fill-rule="evenodd"></path></svg>