<svg width="24" height="24" viewBox="0 0 24 24" fill="none" xmlns="http://www.w3.org/2000/svg"><path d="M4.280 4.862 C 3.843 4.957,3.460 5.172,3.119 5.516 C 2.772 5.865,2.594 6.174,2.479 6.624 C 2.404 6.916,2.400 7.075,2.400 9.600 C 2.400 12.125,2.404 12.284,2.479 12.576 C 2.522 12.746,2.616 12.996,2.688 13.133 C 2.858 13.457,3.343 13.942,3.667 14.112 C 3.933 14.252,4.449 14.400,4.666 14.400 L 4.800 14.400 4.800 10.800 L 4.800 7.200 10.800 7.200 L 16.800 7.200 16.800 7.066 C 16.800 6.849,16.652 6.333,16.512 6.067 C 16.321 5.702,15.854 5.249,15.480 5.066 C 14.916 4.790,15.170 4.801,9.580 4.804 C 5.416 4.806,4.495 4.816,4.280 4.862 M9.080 9.662 C 8.199 9.852,7.447 10.612,7.260 11.500 C 7.173 11.913,7.173 16.887,7.260 17.300 C 7.449 18.200,8.200 18.951,9.100 19.140 C 9.519 19.228,19.281 19.228,19.700 19.140 C 20.600 18.951,21.351 18.200,21.540 17.300 C 21.627 16.887,21.627 11.913,21.540 11.500 C 21.351 10.602,20.598 9.849,19.700 9.660 C 19.293 9.575,9.477 9.577,9.080 9.662 M14.976 12.079 C 15.428 12.195,15.735 12.372,16.081 12.719 C 16.428 13.065,16.605 13.372,16.721 13.824 C 16.923 14.614,16.706 15.434,16.134 16.039 C 15.859 16.331,15.570 16.520,15.170 16.673 C 14.932 16.763,14.840 16.775,14.400 16.775 C 13.960 16.775,13.868 16.763,13.630 16.673 C 13.230 16.520,12.941 16.331,12.666 16.039 C 12.094 15.434,11.877 14.614,12.079 13.824 C 12.122 13.654,12.216 13.404,12.288 13.267 C 12.458 12.943,12.943 12.458,13.268 12.287 C 13.799 12.009,14.411 11.935,14.976 12.079 " fill="#1E1E1E" stroke="none" fill-rule="evenodd"></path></svg>