<svg width="24" height="24" viewBox="0 0 24 24" fill="none" xmlns="http://www.w3.org/2000/svg"><path d="M10.340 1.226 C 9.738 1.294,9.156 1.460,8.674 1.703 C 6.793 2.650,5.747 4.656,6.058 6.720 C 6.089 6.930,6.126 7.130,6.140 7.166 C 6.160 7.219,6.125 7.235,5.942 7.258 C 5.146 7.358,4.243 7.822,3.619 8.455 C 3.072 9.009,2.721 9.634,2.516 10.420 C 2.384 10.922,2.381 11.854,2.509 12.360 C 2.905 13.931,4.036 15.069,5.620 15.491 C 5.927 15.572,6.042 15.576,8.370 15.590 L 10.800 15.604 10.800 17.150 L 10.800 18.696 9.930 17.834 C 8.951 16.864,8.884 16.820,8.380 16.820 C 7.548 16.820,6.994 17.634,7.285 18.428 C 7.364 18.646,7.489 18.780,9.315 20.612 C 11.445 22.749,11.462 22.763,11.938 22.792 C 12.117 22.803,12.242 22.784,12.420 22.719 C 12.648 22.635,12.757 22.534,14.612 20.685 C 16.749 18.555,16.763 18.538,16.792 18.062 C 16.821 17.592,16.558 17.143,16.129 16.932 C 15.944 16.842,15.846 16.820,15.620 16.820 C 15.116 16.820,15.049 16.864,14.070 17.834 L 13.200 18.696 13.200 17.151 L 13.200 15.606 15.090 15.589 C 16.830 15.573,17.007 15.565,17.320 15.489 C 18.472 15.209,19.326 14.724,20.107 13.907 C 20.674 13.314,21.027 12.739,21.292 11.976 C 21.527 11.302,21.578 10.987,21.578 10.200 C 21.578 9.413,21.527 9.100,21.292 8.421 C 21.008 7.599,20.570 6.926,19.911 6.298 C 19.316 5.730,18.654 5.329,17.905 5.084 C 17.253 4.870,16.966 4.826,16.177 4.823 L 15.453 4.821 15.381 4.568 C 15.273 4.189,14.913 3.489,14.644 3.132 C 13.883 2.122,12.748 1.444,11.515 1.263 C 11.128 1.206,10.650 1.191,10.340 1.226 M12.537 8.537 C 12.785 8.658,12.974 8.855,13.096 9.118 C 13.179 9.297,13.180 9.343,13.191 12.450 L 13.202 15.600 12.001 15.600 L 10.800 15.600 10.800 12.527 C 10.800 9.163,10.796 9.223,11.036 8.892 C 11.372 8.428,12.007 8.278,12.537 8.537 " fill="#1E1E1E" stroke="none" fill-rule="evenodd"></path></svg>