<svg width="24" height="24" viewBox="0 0 24 24" fill="none" xmlns="http://www.w3.org/2000/svg"><path d="M4.413 4.874 C 4.042 5.002,3.796 5.251,3.662 5.635 C 3.460 6.209,3.791 6.896,4.374 7.114 L 4.603 7.200 12.000 7.200 L 19.397 7.200 19.626 7.114 C 19.775 7.059,19.921 6.963,20.042 6.842 C 20.621 6.262,20.462 5.293,19.729 4.932 L 19.500 4.820 12.060 4.811 C 4.999 4.803,4.609 4.806,4.413 4.874 M4.413 10.874 C 4.119 10.976,3.867 11.196,3.733 11.470 C 3.639 11.661,3.620 11.751,3.621 12.000 C 3.622 12.494,3.844 12.858,4.273 13.068 L 4.500 13.180 8.400 13.180 L 12.300 13.180 12.527 13.068 C 12.956 12.858,13.178 12.494,13.179 12.000 C 13.180 11.606,13.042 11.307,12.753 11.078 C 12.385 10.787,12.581 10.800,8.383 10.801 C 4.873 10.803,4.606 10.807,4.413 10.874 M4.408 16.876 C 4.004 17.016,3.722 17.340,3.632 17.771 C 3.541 18.203,3.719 18.678,4.074 18.948 C 4.428 19.218,3.886 19.202,12.082 19.190 L 19.500 19.180 19.682 19.096 C 19.948 18.973,20.142 18.785,20.268 18.527 C 20.360 18.340,20.380 18.247,20.380 18.000 C 20.380 17.605,20.241 17.306,19.953 17.078 C 19.574 16.779,20.181 16.800,11.983 16.801 C 4.955 16.803,4.610 16.806,4.408 16.876 " fill="#1E1E1E" stroke="none" fill-rule="evenodd"></path></svg>