<svg width="24" height="24" viewBox="0 0 24 24" fill="none" xmlns="http://www.w3.org/2000/svg"><path d="M4.413 4.874 C 4.042 5.002,3.796 5.251,3.662 5.635 C 3.460 6.209,3.791 6.896,4.374 7.114 L 4.603 7.200 12.000 7.200 L 19.397 7.200 19.626 7.114 C 19.775 7.059,19.921 6.963,20.042 6.842 C 20.621 6.262,20.462 5.293,19.729 4.932 L 19.500 4.820 12.060 4.811 C 4.999 4.803,4.609 4.806,4.413 4.874 M4.413 10.874 C 4.119 10.976,3.867 11.196,3.733 11.470 C 3.639 11.661,3.620 11.751,3.621 12.000 C 3.622 12.494,3.844 12.858,4.273 13.068 L 4.500 13.180 12.000 13.180 L 19.500 13.180 19.682 13.096 C 19.948 12.973,20.142 12.785,20.268 12.527 C 20.360 12.340,20.380 12.247,20.380 12.000 C 20.380 11.605,20.241 11.306,19.953 11.078 C 19.574 10.779,20.181 10.800,11.983 10.801 C 5.013 10.803,4.609 10.806,4.413 10.874 M11.608 16.876 C 11.204 17.016,10.922 17.340,10.832 17.771 C 10.741 18.203,10.919 18.678,11.274 18.948 C 11.618 19.211,11.462 19.203,15.683 19.191 L 19.500 19.180 19.727 19.068 C 20.156 18.858,20.378 18.494,20.379 18.000 C 20.380 17.606,20.242 17.307,19.953 17.078 C 19.585 16.787,19.781 16.800,15.583 16.801 C 12.043 16.803,11.807 16.807,11.608 16.876 " fill="#1E1E1E" stroke="none" fill-rule="evenodd"></path></svg>