<svg width="24" height="24" viewBox="0 0 24 24" fill="none" xmlns="http://www.w3.org/2000/svg"><path d="M14.095 3.635 C 7.430 4.975,7.757 4.896,7.482 5.230 C 7.414 5.312,7.323 5.475,7.279 5.592 C 7.202 5.799,7.200 5.920,7.200 11.367 L 7.200 16.930 7.050 16.905 C 6.231 16.769,5.536 16.779,4.835 16.937 C 2.441 17.479,1.620 19.463,3.258 20.748 C 5.018 22.128,8.326 21.763,9.352 20.076 C 9.596 19.675,9.578 20.068,9.600 14.482 L 9.620 9.384 14.360 8.434 C 16.967 7.911,19.122 7.483,19.150 7.482 C 19.190 7.480,19.200 8.211,19.200 11.005 L 19.200 14.530 19.050 14.505 C 18.231 14.369,17.536 14.379,16.835 14.537 C 14.441 15.079,13.620 17.063,15.258 18.348 C 16.479 19.306,18.581 19.476,20.102 18.741 C 20.860 18.375,21.358 17.854,21.537 17.243 C 21.593 17.048,21.600 16.314,21.600 10.214 C 21.600 3.492,21.599 3.400,21.520 3.188 C 21.351 2.736,20.952 2.444,20.470 2.417 C 20.265 2.406,19.109 2.626,14.095 3.635 " fill="#1E1E1E" stroke="none" fill-rule="evenodd"></path></svg>