<svg width="24" height="24" viewBox="0 0 24 24" fill="none" xmlns="http://www.w3.org/2000/svg"><path d="M13.640 2.444 C 12.783 2.540,12.042 2.755,11.260 3.135 C 9.120 4.173,7.697 6.096,7.274 8.520 C 7.205 8.913,7.203 10.289,7.271 10.660 C 7.299 10.814,7.361 11.107,7.409 11.312 L 7.497 11.683 4.948 14.232 L 2.400 16.780 2.400 19.190 L 2.400 21.600 4.800 21.600 L 7.200 21.600 7.200 20.400 L 7.200 19.200 8.395 19.200 L 9.589 19.200 10.938 17.845 L 12.286 16.490 12.593 16.568 C 13.808 16.880,15.095 16.870,16.293 16.541 C 20.477 15.389,22.701 10.854,21.047 6.846 C 20.507 5.537,19.611 4.445,18.400 3.619 C 17.978 3.331,17.142 2.922,16.647 2.761 C 15.707 2.456,14.585 2.338,13.640 2.444 M15.365 4.901 C 16.294 5.096,17.104 5.537,17.784 6.216 C 18.674 7.107,19.157 8.221,19.173 9.420 C 19.180 9.872,19.173 9.913,19.068 10.129 C 18.798 10.677,18.158 10.933,17.588 10.720 C 17.095 10.535,16.855 10.175,16.799 9.533 C 16.735 8.807,16.505 8.304,16.033 7.859 C 15.603 7.453,14.986 7.203,14.412 7.201 C 13.968 7.199,13.530 6.931,13.341 6.547 C 13.013 5.876,13.315 5.122,14.013 4.871 C 14.185 4.809,14.293 4.801,14.651 4.819 C 14.888 4.832,15.209 4.868,15.365 4.901 " fill="#1E1E1E" stroke="none" fill-rule="evenodd"></path></svg>