<svg width="24" height="24" viewBox="0 0 24 24" fill="none" xmlns="http://www.w3.org/2000/svg"><path d="M11.320 2.423 C 11.243 2.432,11.013 2.459,10.808 2.483 C 8.508 2.751,6.197 3.988,4.729 5.739 C 3.496 7.208,2.782 8.773,2.493 10.640 C 2.394 11.282,2.394 12.718,2.493 13.360 C 3.154 17.630,6.370 20.846,10.640 21.507 C 11.282 21.606,12.718 21.606,13.360 21.507 C 15.173 21.226,16.839 20.473,18.220 19.308 C 19.737 18.029,20.852 16.214,21.333 14.240 C 21.526 13.450,21.578 12.972,21.578 12.000 C 21.578 11.336,21.560 10.979,21.507 10.640 C 21.039 7.618,19.289 5.083,16.658 3.615 C 15.639 3.046,14.573 2.686,13.360 2.501 C 12.960 2.440,11.616 2.389,11.320 2.423 M12.537 6.137 C 12.785 6.258,12.974 6.455,13.096 6.718 C 13.179 6.897,13.180 6.939,13.180 9.600 L 13.180 12.300 13.068 12.529 C 12.933 12.804,12.703 13.011,12.412 13.120 C 11.842 13.333,11.202 13.077,10.932 12.529 L 10.820 12.300 10.807 9.720 C 10.799 7.937,10.808 7.077,10.839 6.935 C 11.002 6.183,11.833 5.792,12.537 6.137 M12.537 15.737 C 12.955 15.941,13.178 16.310,13.179 16.800 C 13.180 17.049,13.161 17.139,13.068 17.329 C 12.933 17.604,12.703 17.811,12.412 17.920 C 11.530 18.250,10.619 17.443,10.838 16.527 C 11.019 15.774,11.836 15.394,12.537 15.737 " fill="#1E1E1E" stroke="none" fill-rule="evenodd"></path></svg>