<svg width="24" height="24" viewBox="0 0 24 24" fill="none" xmlns="http://www.w3.org/2000/svg"><path d="M10.413 2.473 C 10.042 2.603,9.796 2.852,9.662 3.235 C 9.460 3.809,9.791 4.496,10.374 4.714 C 10.592 4.796,10.670 4.800,12.000 4.800 C 13.330 4.800,13.408 4.796,13.626 4.714 C 13.775 4.659,13.921 4.563,14.042 4.442 C 14.621 3.862,14.462 2.893,13.729 2.532 L 13.500 2.420 12.060 2.410 C 10.758 2.402,10.600 2.408,10.413 2.473 M6.680 3.662 C 5.799 3.852,5.047 4.612,4.860 5.500 C 4.772 5.921,4.772 19.279,4.860 19.700 C 5.049 20.600,5.800 21.351,6.700 21.540 C 7.119 21.628,16.881 21.628,17.300 21.540 C 18.200 21.351,18.951 20.600,19.140 19.700 C 19.228 19.279,19.228 5.921,19.140 5.500 C 18.951 4.602,18.198 3.849,17.300 3.660 C 16.803 3.556,16.816 3.549,16.785 3.918 C 16.750 4.337,16.595 4.860,16.389 5.257 C 15.932 6.135,15.172 6.757,14.171 7.069 L 13.820 7.179 12.000 7.179 L 10.180 7.179 9.829 7.069 C 8.828 6.757,8.068 6.135,7.611 5.257 C 7.405 4.860,7.250 4.337,7.215 3.918 L 7.188 3.600 7.064 3.603 C 6.996 3.605,6.823 3.632,6.680 3.662 M8.945 10.932 C 9.351 11.139,9.600 11.544,9.600 12.000 C 9.600 12.454,9.354 12.857,8.945 13.071 C 8.770 13.163,8.691 13.179,8.400 13.179 C 8.097 13.180,8.037 13.167,7.846 13.061 C 7.128 12.664,6.987 11.729,7.558 11.158 C 7.925 10.792,8.489 10.700,8.945 10.932 M16.026 10.886 C 16.175 10.941,16.321 11.037,16.442 11.158 C 17.013 11.729,16.872 12.664,16.154 13.061 L 15.940 13.180 13.800 13.180 L 11.660 13.180 11.446 13.061 C 10.728 12.664,10.587 11.729,11.158 11.158 C 11.273 11.043,11.429 10.939,11.563 10.888 C 11.772 10.807,11.851 10.804,13.788 10.802 C 15.746 10.800,15.803 10.802,16.026 10.886 M8.945 15.732 C 9.351 15.939,9.600 16.344,9.600 16.800 C 9.600 17.254,9.354 17.657,8.945 17.871 C 8.770 17.963,8.691 17.979,8.400 17.979 C 8.097 17.980,8.037 17.967,7.846 17.861 C 7.128 17.464,6.987 16.529,7.558 15.958 C 7.925 15.592,8.489 15.500,8.945 15.732 M16.026 15.686 C 16.175 15.741,16.321 15.837,16.442 15.958 C 17.013 16.529,16.872 17.464,16.154 17.861 L 15.940 17.980 13.800 17.980 L 11.660 17.980 11.446 17.861 C 10.728 17.464,10.587 16.529,11.158 15.958 C 11.273 15.843,11.429 15.739,11.563 15.688 C 11.772 15.607,11.851 15.604,13.788 15.602 C 15.746 15.600,15.803 15.602,16.026 15.686 " fill="#1E1E1E" stroke="none" fill-rule="evenodd"></path></svg>