<svg width="24" height="24" viewBox="0 0 24 24" fill="none" xmlns="http://www.w3.org/2000/svg"><path d="M6.680 2.462 C 6.243 2.557,5.860 2.772,5.519 3.116 C 5.172 3.465,4.994 3.774,4.879 4.224 C 4.802 4.526,4.800 4.695,4.800 12.000 C 4.800 19.305,4.802 19.474,4.879 19.776 C 4.995 20.228,5.172 20.535,5.519 20.881 C 5.865 21.228,6.172 21.405,6.624 21.521 C 6.924 21.598,7.085 21.600,12.000 21.600 C 16.915 21.600,17.076 21.598,17.376 21.521 C 17.826 21.406,18.135 21.228,18.483 20.881 C 18.699 20.667,18.828 20.496,18.930 20.290 C 19.218 19.712,19.204 20.046,19.191 13.920 L 19.180 8.420 19.073 8.128 C 19.014 7.967,18.894 7.724,18.804 7.588 C 18.586 7.254,14.307 2.981,14.000 2.791 C 13.690 2.599,13.416 2.491,13.117 2.442 C 12.954 2.416,11.780 2.402,9.900 2.403 C 7.521 2.406,6.889 2.417,6.680 2.462 M16.127 10.932 C 16.556 11.142,16.778 11.506,16.779 12.000 C 16.780 12.249,16.761 12.339,16.668 12.529 C 16.533 12.804,16.303 13.011,16.012 13.120 C 15.802 13.198,15.704 13.200,12.000 13.200 C 8.296 13.200,8.198 13.198,7.988 13.120 C 7.271 12.851,6.987 11.997,7.399 11.348 C 7.540 11.126,7.747 10.966,8.013 10.874 C 8.207 10.806,8.455 10.802,12.060 10.811 L 15.900 10.820 16.127 10.932 M16.127 15.732 C 16.556 15.942,16.778 16.306,16.779 16.800 C 16.780 17.049,16.761 17.139,16.668 17.329 C 16.533 17.604,16.303 17.811,16.012 17.920 C 15.802 17.998,15.704 18.000,12.000 18.000 C 8.296 18.000,8.198 17.998,7.988 17.920 C 7.271 17.651,6.987 16.797,7.399 16.148 C 7.540 15.926,7.747 15.766,8.013 15.674 C 8.207 15.606,8.455 15.602,12.060 15.611 L 15.900 15.620 16.127 15.732 " fill="#1E1E1E" stroke="none" fill-rule="evenodd"></path></svg>