<svg width="24" height="24" viewBox="0 0 24 24" fill="none" xmlns="http://www.w3.org/2000/svg"><path d="M4.413 3.672 C 4.040 3.805,3.796 4.053,3.662 4.435 C 3.608 4.589,3.600 5.157,3.600 9.063 L 3.600 13.516 3.427 13.635 C 3.332 13.701,3.156 13.860,3.037 13.989 C 2.197 14.896,2.197 16.304,3.037 17.211 C 3.156 17.340,3.332 17.499,3.427 17.565 L 3.600 17.684 3.600 18.540 C 3.600 19.555,3.640 19.724,3.958 20.042 C 4.429 20.512,5.171 20.512,5.642 20.042 C 5.960 19.724,6.000 19.555,6.000 18.540 L 6.000 17.684 6.173 17.565 C 6.268 17.499,6.444 17.340,6.563 17.211 C 7.403 16.304,7.403 14.896,6.563 13.989 C 6.444 13.860,6.268 13.701,6.173 13.635 L 6.000 13.516 6.000 9.060 C 6.000 4.695,5.998 4.599,5.920 4.388 C 5.694 3.784,5.010 3.458,4.413 3.672 M11.619 3.672 C 11.361 3.761,11.182 3.890,11.036 4.092 C 10.833 4.372,10.800 4.566,10.800 5.485 L 10.800 6.316 10.627 6.435 C 10.023 6.851,9.601 7.658,9.601 8.400 C 9.601 9.142,10.023 9.949,10.626 10.364 L 10.799 10.483 10.809 14.991 C 10.820 19.480,10.820 19.501,10.904 19.682 C 11.027 19.948,11.215 20.142,11.473 20.268 C 11.660 20.360,11.753 20.380,12.000 20.380 C 12.500 20.380,12.887 20.134,13.096 19.682 C 13.180 19.501,13.180 19.480,13.191 14.991 L 13.201 10.483 13.374 10.364 C 13.977 9.949,14.399 9.142,14.399 8.400 C 14.399 7.659,13.977 6.851,13.376 6.437 L 13.205 6.320 13.193 5.410 C 13.180 4.502,13.180 4.499,13.066 4.268 C 12.806 3.737,12.178 3.479,11.619 3.672 M18.819 3.672 C 18.561 3.761,18.382 3.890,18.236 4.092 C 17.991 4.431,18.000 4.232,18.000 9.085 L 18.000 13.516 17.827 13.635 C 17.223 14.051,16.801 14.858,16.801 15.600 C 16.801 16.341,17.223 17.149,17.824 17.563 L 17.995 17.680 18.007 18.590 C 18.021 19.599,18.043 19.699,18.317 20.010 C 18.642 20.381,19.266 20.495,19.727 20.268 C 19.985 20.142,20.173 19.948,20.296 19.682 C 20.372 19.517,20.381 19.415,20.393 18.590 L 20.405 17.680 20.576 17.563 C 21.177 17.149,21.599 16.341,21.599 15.600 C 21.599 14.858,21.177 14.051,20.574 13.636 L 20.401 13.517 20.391 9.009 L 20.380 4.500 20.266 4.268 C 20.006 3.737,19.378 3.479,18.819 3.672 " fill="#1E1E1E" stroke="none" fill-rule="evenodd"></path></svg>