<svg width="24" height="24" viewBox="0 0 24 24" fill="none" xmlns="http://www.w3.org/2000/svg"><path d="M12.813 6.072 C 12.160 6.305,11.846 6.977,12.085 7.628 C 12.164 7.843,12.275 7.966,13.633 9.329 L 15.096 10.799 10.398 10.809 L 5.700 10.820 5.471 10.932 C 4.738 11.293,4.579 12.262,5.158 12.842 C 5.279 12.963,5.425 13.059,5.574 13.114 L 5.803 13.200 10.450 13.200 L 15.098 13.200 13.634 14.670 C 12.275 16.034,12.164 16.157,12.085 16.372 C 11.917 16.828,12.019 17.303,12.358 17.642 C 12.697 17.981,13.171 18.083,13.628 17.915 C 13.848 17.835,13.997 17.694,16.411 15.285 C 19.201 12.503,19.162 12.548,19.192 12.062 C 19.203 11.883,19.184 11.758,19.119 11.580 C 19.034 11.350,18.924 11.233,16.485 8.789 C 14.437 6.736,13.899 6.217,13.730 6.134 C 13.450 5.996,13.093 5.972,12.813 6.072 " fill="#1E1E1E" stroke="none" fill-rule="evenodd"></path></svg>