<svg width="24" height="24" viewBox="0 0 24 24" fill="none" xmlns="http://www.w3.org/2000/svg"><path d="M6.574 3.659 C 5.211 3.907,4.158 4.857,3.732 6.220 L 3.620 6.580 3.609 13.586 L 3.598 20.593 3.685 20.824 C 3.741 20.975,3.837 21.120,3.958 21.242 C 4.538 21.821,5.507 21.662,5.868 20.929 L 5.980 20.700 6.000 18.600 L 6.020 16.500 6.132 16.273 C 6.258 16.015,6.452 15.827,6.718 15.704 L 6.900 15.620 13.200 15.600 L 19.500 15.580 19.729 15.468 C 20.118 15.277,20.400 14.838,20.400 14.426 C 20.400 14.011,20.363 13.952,18.710 11.748 C 17.848 10.599,17.144 9.633,17.144 9.600 C 17.144 9.567,17.848 8.601,18.710 7.452 C 20.363 5.248,20.400 5.189,20.400 4.774 C 20.400 4.362,20.118 3.923,19.729 3.732 L 19.500 3.620 13.180 3.613 C 8.132 3.608,6.802 3.617,6.574 3.659 " fill="#1E1E1E" stroke="none" fill-rule="evenodd"></path></svg>