<svg width="24" height="24" viewBox="0 0 24 24" fill="none" xmlns="http://www.w3.org/2000/svg"><path d="M11.000 2.425 C 7.987 2.601,5.462 3.418,4.276 4.600 C 4.040 4.835,3.933 4.982,3.796 5.258 C 3.625 5.605,3.620 5.624,3.620 6.000 C 3.620 6.376,3.625 6.395,3.796 6.742 C 4.110 7.375,4.739 7.905,5.762 8.396 C 6.917 8.952,8.315 9.309,10.100 9.504 C 10.994 9.602,13.006 9.602,13.900 9.504 C 15.685 9.309,17.083 8.952,18.238 8.396 C 19.261 7.905,19.890 7.375,20.204 6.742 C 20.375 6.395,20.380 6.376,20.380 6.000 C 20.380 5.624,20.375 5.605,20.204 5.258 C 19.529 3.896,17.121 2.839,13.920 2.500 C 13.360 2.441,11.533 2.393,11.000 2.425 M3.613 10.503 L 3.620 12.386 3.788 12.725 C 4.105 13.365,4.683 13.861,5.689 14.360 C 6.881 14.951,8.387 15.330,10.320 15.527 C 11.071 15.604,13.107 15.590,13.900 15.504 C 15.681 15.310,17.083 14.952,18.238 14.396 C 19.260 13.905,19.890 13.375,20.204 12.742 L 20.380 12.386 20.387 10.503 C 20.391 9.290,20.381 8.674,20.357 8.772 C 20.039 10.090,18.013 11.241,15.134 11.740 C 14.019 11.933,13.437 11.977,12.000 11.977 C 10.563 11.977,9.981 11.933,8.866 11.740 C 5.987 11.241,3.961 10.090,3.643 8.772 C 3.619 8.674,3.609 9.290,3.613 10.503 M3.613 16.500 C 3.620 18.371,3.620 18.381,3.713 18.599 C 4.324 20.039,6.697 21.128,10.050 21.508 C 10.909 21.605,13.091 21.605,13.950 21.508 C 15.490 21.333,16.826 21.012,17.920 20.552 C 19.127 20.045,19.968 19.351,20.287 18.599 C 20.380 18.381,20.380 18.371,20.387 16.500 C 20.391 15.267,20.381 14.673,20.357 14.775 C 20.283 15.082,20.029 15.492,19.720 15.804 C 18.677 16.859,16.633 17.604,13.950 17.908 C 13.491 17.960,13.007 17.977,12.000 17.977 C 10.599 17.977,9.993 17.933,8.971 17.758 C 7.609 17.526,6.267 17.104,5.440 16.650 C 4.464 16.113,3.799 15.419,3.643 14.775 C 3.619 14.673,3.609 15.267,3.613 16.500 " fill="#1E1E1E" stroke="none" fill-rule="evenodd"></path></svg>