<svg width="24" height="24" viewBox="0 0 24 24" fill="none" xmlns="http://www.w3.org/2000/svg"><path d="M5.480 3.662 C 5.043 3.757,4.660 3.972,4.319 4.316 C 3.972 4.665,3.794 4.974,3.679 5.424 C 3.602 5.725,3.600 5.890,3.600 12.000 C 3.600 18.110,3.602 18.275,3.679 18.576 C 3.795 19.028,3.972 19.335,4.319 19.681 C 4.665 20.028,4.972 20.205,5.424 20.321 C 5.725 20.398,5.890 20.400,12.000 20.400 C 18.110 20.400,18.275 20.398,18.576 20.321 C 19.028 20.205,19.335 20.028,19.681 19.681 C 20.028 19.335,20.205 19.028,20.321 18.576 C 20.398 18.275,20.400 18.110,20.400 12.000 C 20.400 5.890,20.398 5.725,20.321 5.424 C 20.206 4.974,20.028 4.665,19.681 4.316 C 19.334 3.967,18.954 3.755,18.500 3.660 C 18.091 3.574,5.879 3.576,5.480 3.662 M18.000 10.200 L 18.000 14.400 16.800 14.400 L 15.600 14.400 15.000 15.600 L 14.400 16.800 12.000 16.800 L 9.600 16.800 9.000 15.600 L 8.400 14.400 7.200 14.400 L 6.000 14.400 6.000 10.200 L 6.000 6.000 12.000 6.000 L 18.000 6.000 18.000 10.200 " fill="#1E1E1E" stroke="none" fill-rule="evenodd"></path></svg>