<svg width="24" height="24" viewBox="0 0 24 24" fill="none" xmlns="http://www.w3.org/2000/svg"><path d="M6.680 2.462 C 6.243 2.557,5.860 2.772,5.519 3.116 C 5.172 3.465,4.994 3.774,4.879 4.224 C 4.802 4.526,4.800 4.695,4.800 12.000 C 4.800 19.305,4.802 19.474,4.879 19.776 C 4.995 20.228,5.172 20.535,5.519 20.881 C 5.865 21.228,6.172 21.405,6.624 21.521 C 6.924 21.598,7.085 21.600,12.000 21.600 C 16.915 21.600,17.076 21.598,17.376 21.521 C 17.826 21.406,18.135 21.228,18.483 20.881 C 18.699 20.667,18.828 20.496,18.930 20.290 C 19.218 19.712,19.204 20.046,19.191 13.920 L 19.180 8.420 19.073 8.128 C 19.014 7.967,18.894 7.724,18.804 7.588 C 18.586 7.254,14.307 2.981,14.000 2.791 C 13.690 2.599,13.416 2.491,13.117 2.442 C 12.954 2.416,11.780 2.402,9.900 2.403 C 7.521 2.406,6.889 2.417,6.680 2.462 M12.537 8.537 C 12.785 8.658,12.974 8.855,13.096 9.118 C 13.178 9.295,13.180 9.358,13.191 11.597 L 13.203 13.893 14.071 13.033 C 15.050 12.062,15.117 12.019,15.620 12.021 C 16.094 12.024,16.462 12.252,16.668 12.673 C 16.760 12.860,16.780 12.953,16.780 13.200 C 16.780 13.732,16.812 13.692,14.612 15.885 C 12.780 17.711,12.646 17.836,12.428 17.915 C 12.301 17.962,12.108 18.000,12.000 18.000 C 11.892 18.000,11.699 17.962,11.572 17.915 C 11.354 17.836,11.220 17.711,9.388 15.885 C 7.187 13.691,7.219 13.731,7.221 13.200 C 7.223 12.513,7.707 12.020,8.380 12.020 C 8.884 12.020,8.951 12.064,9.930 13.034 L 10.800 13.896 10.800 11.675 C 10.800 9.244,10.803 9.214,11.036 8.892 C 11.372 8.428,12.007 8.278,12.537 8.537 " fill="#1E1E1E" stroke="none" fill-rule="evenodd"></path></svg>