<svg width="24" height="24" viewBox="0 0 24 24" fill="none" xmlns="http://www.w3.org/2000/svg"><path d="M11.320 2.423 C 11.243 2.432,11.013 2.459,10.808 2.483 C 8.508 2.751,6.197 3.988,4.729 5.739 C 3.496 7.208,2.782 8.773,2.493 10.640 C 2.394 11.282,2.394 12.718,2.493 13.360 C 3.154 17.630,6.370 20.846,10.640 21.507 C 11.282 21.606,12.718 21.606,13.360 21.507 C 15.173 21.226,16.839 20.473,18.220 19.308 C 19.737 18.029,20.852 16.214,21.333 14.240 C 21.526 13.450,21.578 12.972,21.578 12.000 C 21.578 11.336,21.560 10.979,21.507 10.640 C 21.039 7.618,19.289 5.083,16.658 3.615 C 15.639 3.046,14.573 2.686,13.360 2.501 C 12.960 2.440,11.616 2.389,11.320 2.423 M12.860 4.917 C 13.294 5.027,13.915 5.346,14.306 5.658 C 14.801 6.054,15.316 6.670,15.587 7.191 C 15.704 7.415,15.720 7.482,15.720 7.753 C 15.719 8.148,15.612 8.390,15.322 8.651 C 14.964 8.973,14.506 9.041,14.053 8.841 C 13.805 8.732,13.674 8.606,13.447 8.260 C 13.189 7.868,12.790 7.479,12.500 7.337 C 11.754 6.973,10.953 7.456,10.342 8.640 L 10.159 8.995 11.229 9.008 L 12.300 9.020 12.527 9.132 C 12.956 9.342,13.178 9.706,13.179 10.200 C 13.180 10.449,13.161 10.539,13.068 10.729 C 12.933 11.004,12.703 11.211,12.412 11.320 C 12.213 11.394,12.101 11.400,10.898 11.400 L 9.600 11.400 9.600 11.998 L 9.600 12.596 10.950 12.608 C 12.224 12.619,12.310 12.625,12.482 12.704 C 12.582 12.751,12.730 12.846,12.810 12.917 C 13.182 13.243,13.295 13.866,13.068 14.329 C 12.933 14.604,12.703 14.811,12.412 14.920 C 12.217 14.992,12.100 15.000,11.176 15.000 L 10.155 15.000 10.359 15.390 C 10.835 16.299,11.489 16.837,12.060 16.791 C 12.524 16.754,13.029 16.368,13.461 15.722 C 13.570 15.557,13.738 15.364,13.833 15.292 C 14.312 14.928,14.982 14.985,15.408 15.427 C 15.633 15.660,15.718 15.885,15.719 16.247 C 15.720 16.518,15.704 16.584,15.587 16.809 C 15.062 17.816,14.035 18.713,13.040 19.034 C 11.432 19.552,9.735 18.825,8.603 17.132 C 8.320 16.709,7.928 15.908,7.759 15.410 L 7.621 15.000 7.312 15.000 C 6.763 15.000,6.347 14.767,6.140 14.344 C 5.786 13.620,6.185 12.794,6.968 12.632 L 7.200 12.584 7.200 11.992 L 7.200 11.400 7.102 11.400 C 6.935 11.400,6.582 11.247,6.409 11.099 C 6.021 10.766,5.900 10.145,6.132 9.673 C 6.346 9.236,6.688 9.035,7.262 9.008 L 7.624 8.991 7.761 8.586 C 7.928 8.091,8.321 7.290,8.603 6.868 C 9.344 5.760,10.313 5.067,11.414 4.856 C 11.790 4.785,12.447 4.812,12.860 4.917 " fill="#1E1E1E" stroke="none" fill-rule="evenodd"></path></svg>