<svg width="24" height="24" viewBox="0 0 24 24" fill="none" xmlns="http://www.w3.org/2000/svg"><path d="M6.680 2.462 C 6.243 2.557,5.860 2.772,5.519 3.116 C 5.172 3.465,4.994 3.774,4.879 4.224 C 4.802 4.526,4.800 4.695,4.800 12.000 C 4.800 19.305,4.802 19.474,4.879 19.776 C 4.995 20.228,5.172 20.535,5.519 20.881 C 5.865 21.228,6.172 21.405,6.624 21.521 C 6.924 21.598,7.085 21.600,12.000 21.600 C 16.915 21.600,17.076 21.598,17.376 21.521 C 17.826 21.406,18.135 21.228,18.483 20.881 C 18.699 20.667,18.828 20.496,18.930 20.290 C 19.218 19.712,19.204 20.046,19.191 13.920 L 19.180 8.420 19.073 8.128 C 19.014 7.967,18.894 7.724,18.804 7.588 C 18.586 7.254,14.307 2.981,14.000 2.791 C 13.690 2.599,13.416 2.491,13.117 2.442 C 12.954 2.416,11.780 2.402,9.900 2.403 C 7.521 2.406,6.889 2.417,6.680 2.462 M12.537 8.537 C 12.785 8.658,12.974 8.855,13.096 9.118 C 13.175 9.290,13.181 9.376,13.192 10.648 L 13.204 11.996 14.552 12.008 C 15.824 12.019,15.910 12.025,16.082 12.104 C 16.182 12.151,16.330 12.246,16.410 12.317 C 16.782 12.643,16.895 13.266,16.668 13.729 C 16.533 14.004,16.303 14.211,16.012 14.320 C 15.813 14.394,15.701 14.400,14.500 14.400 L 13.204 14.400 13.192 15.750 L 13.180 17.100 13.068 17.329 C 12.933 17.604,12.703 17.811,12.412 17.920 C 11.842 18.133,11.202 17.877,10.932 17.329 L 10.820 17.100 10.808 15.750 L 10.796 14.400 9.500 14.400 C 8.299 14.400,8.187 14.394,7.988 14.320 C 7.697 14.211,7.467 14.004,7.332 13.729 C 7.239 13.539,7.220 13.449,7.221 13.200 C 7.222 12.706,7.444 12.342,7.873 12.132 L 8.100 12.020 9.450 12.008 L 10.800 11.996 10.800 10.725 C 10.800 9.330,10.818 9.193,11.036 8.892 C 11.372 8.428,12.007 8.278,12.537 8.537 " fill="#1E1E1E" stroke="none" fill-rule="evenodd"></path></svg>