<svg width="24" height="24" viewBox="0 0 24 24" fill="none" xmlns="http://www.w3.org/2000/svg"><path d="M16.360 2.423 C 16.305 2.432,16.125 2.460,15.960 2.485 C 15.372 2.572,14.691 2.846,14.100 3.234 C 13.917 3.354,13.414 3.819,12.648 4.578 C 11.313 5.901,11.262 5.970,11.262 6.460 C 11.262 6.956,11.514 7.332,11.992 7.551 C 12.179 7.636,12.250 7.647,12.514 7.632 C 12.726 7.619,12.875 7.585,13.000 7.521 C 13.116 7.462,13.579 7.034,14.300 6.321 C 15.319 5.312,15.447 5.199,15.720 5.065 C 16.681 4.596,17.735 4.768,18.484 5.516 C 19.127 6.160,19.352 7.060,19.083 7.920 C 18.917 8.453,18.837 8.546,16.645 10.728 C 14.388 12.977,14.409 12.959,13.776 13.121 C 13.007 13.318,12.222 13.120,11.592 12.572 C 11.237 12.263,11.078 12.190,10.714 12.168 C 10.450 12.153,10.379 12.164,10.192 12.249 C 9.713 12.469,9.461 12.845,9.463 13.339 C 9.465 13.824,9.686 14.157,10.320 14.635 C 11.951 15.865,14.134 15.917,15.900 14.769 C 16.242 14.547,20.280 10.547,20.634 10.079 C 20.918 9.705,21.201 9.162,21.355 8.696 C 22.254 5.982,20.548 3.054,17.743 2.497 C 17.455 2.440,16.542 2.391,16.360 2.423 M10.180 8.446 C 9.741 8.502,9.178 8.666,8.779 8.855 C 8.044 9.204,7.921 9.310,5.687 11.535 C 4.536 12.682,3.495 13.752,3.373 13.913 C 2.769 14.710,2.400 15.806,2.400 16.800 C 2.400 18.568,3.422 20.243,4.997 21.056 C 5.710 21.424,6.357 21.578,7.200 21.578 C 8.010 21.578,8.662 21.430,9.326 21.098 C 9.927 20.796,10.154 20.608,11.352 19.422 C 12.664 18.121,12.721 18.045,12.725 17.593 C 12.727 17.257,12.664 17.053,12.485 16.818 C 12.170 16.406,11.606 16.252,11.100 16.442 C 10.879 16.525,10.770 16.621,9.720 17.661 C 8.771 18.600,8.537 18.811,8.326 18.917 C 7.351 19.408,6.271 19.242,5.517 18.485 C 4.870 17.835,4.645 16.934,4.915 16.080 C 5.085 15.545,5.165 15.453,7.355 13.272 C 9.612 11.023,9.591 11.041,10.224 10.879 C 10.993 10.682,11.778 10.880,12.408 11.428 C 12.802 11.771,12.918 11.819,13.340 11.820 C 13.669 11.820,13.719 11.809,13.920 11.696 C 14.169 11.556,14.405 11.274,14.478 11.030 C 14.505 10.941,14.526 10.751,14.525 10.607 C 14.522 10.253,14.393 9.998,14.058 9.684 C 13.040 8.731,11.585 8.267,10.180 8.446 " fill="#1E1E1E" stroke="none" fill-rule="evenodd"></path></svg>