<svg width="24" height="24" viewBox="0 0 24 24" fill="none" xmlns="http://www.w3.org/2000/svg"><path d="M11.240 2.444 C 9.237 2.669,7.414 3.708,6.230 5.298 C 5.568 6.188,5.140 7.176,4.893 8.390 C 4.840 8.648,4.826 9.135,4.812 11.300 L 4.795 13.899 4.284 14.420 C 3.848 14.864,3.759 14.975,3.682 15.180 C 3.461 15.769,3.737 16.427,4.318 16.696 L 4.500 16.780 12.000 16.780 L 19.500 16.780 19.682 16.696 C 20.263 16.427,20.539 15.769,20.318 15.180 C 20.241 14.975,20.152 14.864,19.714 14.417 L 19.200 13.894 19.200 11.529 C 19.200 9.636,19.188 9.070,19.139 8.692 C 18.823 6.263,17.340 4.202,15.140 3.135 C 14.854 2.996,14.452 2.828,14.247 2.761 C 13.307 2.456,12.185 2.338,11.240 2.444 M8.416 18.300 C 8.554 19.825,9.616 21.084,11.100 21.485 C 11.558 21.609,12.442 21.609,12.900 21.485 C 14.384 21.084,15.438 19.836,15.580 18.310 L 15.609 18.000 11.999 18.000 L 8.389 18.000 8.416 18.300 " fill="#1E1E1E" stroke="none" fill-rule="evenodd"></path></svg>