<svg width="24" height="24" viewBox="0 0 24 24" fill="none" xmlns="http://www.w3.org/2000/svg"><path d="M10.453 6.055 C 10.361 6.085,10.226 6.147,10.153 6.193 C 10.080 6.239,8.884 7.415,7.495 8.808 C 5.076 11.233,4.966 11.350,4.881 11.580 C 4.816 11.758,4.797 11.883,4.808 12.062 C 4.838 12.548,4.799 12.503,7.589 15.285 C 10.003 17.694,10.152 17.835,10.372 17.915 C 10.829 18.083,11.303 17.981,11.642 17.642 C 11.981 17.303,12.083 16.828,11.915 16.372 C 11.836 16.157,11.725 16.034,10.366 14.670 L 8.902 13.200 13.550 13.200 L 18.197 13.200 18.426 13.114 C 18.575 13.059,18.721 12.963,18.842 12.842 C 19.421 12.262,19.262 11.293,18.529 10.932 L 18.300 10.820 13.602 10.809 L 8.904 10.799 10.367 9.329 C 11.725 7.966,11.836 7.843,11.915 7.628 C 12.198 6.858,11.684 6.065,10.870 6.016 C 10.725 6.007,10.550 6.023,10.453 6.055 " fill="#1E1E1E" stroke="none" fill-rule="evenodd"></path></svg>