<svg width="24" height="24" viewBox="0 0 24 24" fill="none" xmlns="http://www.w3.org/2000/svg"><path d="M10.088 3.660 C 9.477 3.795,9.234 3.967,8.157 5.025 C 7.367 5.800,7.275 5.878,7.080 5.936 C 6.906 5.988,6.649 6.000,5.723 6.001 C 4.424 6.001,4.199 6.031,3.720 6.266 C 3.500 6.374,3.340 6.493,3.119 6.716 C 2.772 7.065,2.594 7.374,2.479 7.824 C 2.402 8.124,2.400 8.285,2.400 13.200 C 2.400 18.115,2.402 18.276,2.479 18.576 C 2.595 19.028,2.772 19.335,3.119 19.681 C 3.465 20.028,3.772 20.205,4.224 20.321 C 4.526 20.398,4.695 20.400,12.000 20.400 C 19.305 20.400,19.474 20.398,19.776 20.321 C 20.228 20.205,20.535 20.028,20.881 19.681 C 21.228 19.335,21.405 19.028,21.521 18.576 C 21.598 18.276,21.600 18.115,21.600 13.200 C 21.600 8.285,21.598 8.124,21.521 7.824 C 21.406 7.374,21.228 7.065,20.881 6.716 C 20.660 6.493,20.500 6.374,20.280 6.266 C 19.801 6.031,19.576 6.001,18.277 6.001 C 17.354 6.000,17.094 5.988,16.922 5.937 C 16.727 5.879,16.630 5.797,15.802 4.987 C 14.845 4.051,14.616 3.878,14.120 3.710 C 13.870 3.626,13.793 3.622,12.100 3.613 C 10.715 3.606,10.286 3.616,10.088 3.660 M12.900 9.719 C 14.149 10.040,15.143 11.032,15.485 12.300 C 15.555 12.559,15.572 12.731,15.572 13.200 C 15.572 13.669,15.555 13.841,15.485 14.100 C 15.150 15.342,14.229 16.285,12.980 16.665 C 12.654 16.764,12.561 16.774,12.000 16.774 C 11.439 16.774,11.346 16.764,11.020 16.665 C 9.771 16.285,8.850 15.342,8.515 14.100 C 8.445 13.841,8.428 13.669,8.428 13.200 C 8.428 12.731,8.445 12.559,8.515 12.300 C 8.885 10.929,9.971 9.925,11.374 9.656 C 11.761 9.582,12.484 9.612,12.900 9.719 " fill="#1E1E1E" stroke="none" fill-rule="evenodd"></path></svg>