<svg width="24" height="24" viewBox="0 0 24 24" fill="none" xmlns="http://www.w3.org/2000/svg"><path d="M3.213 2.473 C 2.811 2.614,2.529 2.928,2.437 3.337 C 2.365 3.659,2.412 7.016,2.498 7.740 C 2.892 11.032,4.191 13.937,6.363 16.380 C 8.659 18.963,11.758 20.708,15.160 21.336 C 16.302 21.546,16.751 21.576,18.800 21.578 L 20.700 21.580 20.927 21.468 C 21.185 21.342,21.373 21.148,21.496 20.882 C 21.577 20.707,21.580 20.642,21.580 19.100 L 21.580 17.500 21.486 17.320 C 21.364 17.088,21.141 16.855,20.943 16.752 C 20.830 16.694,20.001 16.540,17.937 16.196 C 15.396 15.772,15.064 15.725,14.879 15.760 C 14.593 15.814,14.289 15.989,14.149 16.180 C 14.085 16.268,13.818 16.768,13.556 17.290 C 13.294 17.813,13.071 18.240,13.061 18.240 C 12.995 18.240,12.135 17.834,11.699 17.597 C 10.576 16.987,9.629 16.274,8.677 15.323 C 7.731 14.377,7.018 13.429,6.402 12.299 C 6.167 11.867,5.760 11.006,5.760 10.940 C 5.760 10.930,6.211 10.695,6.763 10.418 C 7.805 9.894,7.994 9.763,8.136 9.463 C 8.243 9.236,8.279 8.957,8.238 8.665 C 8.101 7.698,7.347 3.307,7.294 3.162 C 7.208 2.932,6.955 2.660,6.702 2.526 L 6.500 2.420 4.960 2.410 C 3.560 2.401,3.401 2.407,3.213 2.473 M15.213 2.473 C 14.371 2.767,14.129 3.813,14.758 4.442 C 15.088 4.772,15.222 4.800,16.451 4.800 L 17.498 4.800 15.434 6.870 C 13.492 8.817,13.365 8.954,13.285 9.172 C 13.117 9.629,13.219 10.103,13.558 10.442 C 13.897 10.781,14.371 10.883,14.828 10.715 C 15.046 10.635,15.183 10.508,17.130 8.566 L 19.200 6.502 19.200 7.549 C 19.200 8.522,19.206 8.613,19.286 8.826 C 19.452 9.272,19.925 9.600,20.400 9.600 C 20.875 9.600,21.348 9.272,21.514 8.826 C 21.599 8.601,21.600 8.557,21.600 6.000 C 21.600 3.497,21.597 3.395,21.520 3.188 C 21.411 2.897,21.204 2.667,20.929 2.532 L 20.700 2.420 18.060 2.411 C 15.607 2.402,15.405 2.407,15.213 2.473 " fill="#1E1E1E" stroke="none" fill-rule="evenodd"></path></svg>