<svg width="24" height="24" viewBox="0 0 24 24" fill="none" xmlns="http://www.w3.org/2000/svg"><path d="M11.320 2.423 C 11.243 2.432,11.013 2.459,10.808 2.483 C 8.508 2.751,6.197 3.988,4.729 5.739 C 3.496 7.208,2.782 8.773,2.493 10.640 C 2.394 11.282,2.394 12.718,2.493 13.360 C 3.154 17.630,6.370 20.846,10.640 21.507 C 11.282 21.606,12.718 21.606,13.360 21.507 C 15.173 21.226,16.839 20.473,18.220 19.308 C 19.737 18.029,20.852 16.214,21.333 14.240 C 21.526 13.450,21.578 12.972,21.578 12.000 C 21.578 11.336,21.560 10.979,21.507 10.640 C 21.039 7.618,19.289 5.083,16.658 3.615 C 15.639 3.046,14.573 2.686,13.360 2.501 C 12.960 2.440,11.616 2.389,11.320 2.423 M12.712 4.842 C 13.616 4.941,14.328 5.142,15.118 5.523 C 16.069 5.982,16.844 6.580,17.498 7.360 C 18.721 8.820,19.322 10.693,19.167 12.567 C 19.089 13.520,18.889 14.261,18.481 15.108 C 18.286 15.514,17.911 16.160,17.871 16.160 C 17.865 16.160,15.602 13.903,12.843 11.143 L 7.827 6.127 8.116 5.940 C 8.507 5.687,9.301 5.309,9.744 5.165 C 10.706 4.852,11.754 4.738,12.712 4.842 M16.071 17.935 C 15.929 18.051,15.286 18.421,15.020 18.539 C 14.091 18.953,13.252 19.150,12.260 19.188 C 8.519 19.329,5.294 16.564,4.859 12.843 C 4.734 11.773,4.834 10.761,5.166 9.741 C 5.309 9.301,5.687 8.506,5.940 8.116 L 6.127 7.827 11.144 12.843 L 16.162 17.860 16.071 17.935 " fill="#1E1E1E" stroke="none" fill-rule="evenodd"></path></svg>