<svg width="24" height="24" viewBox="0 0 24 24" fill="none" xmlns="http://www.w3.org/2000/svg"><path d="M14.013 3.672 C 13.758 3.763,13.548 3.920,13.417 4.117 C 13.358 4.207,12.325 7.246,10.859 11.644 C 8.997 17.227,8.400 19.066,8.400 19.208 C 8.400 19.825,8.967 20.400,9.574 20.400 C 9.964 20.400,10.382 20.187,10.580 19.886 C 10.740 19.645,15.600 5.031,15.600 4.792 C 15.600 4.543,15.473 4.213,15.299 4.009 C 15.004 3.665,14.443 3.518,14.013 3.672 M5.653 7.255 C 5.561 7.285,5.426 7.347,5.353 7.393 C 5.280 7.438,4.354 8.345,3.295 9.408 C 1.466 11.243,1.365 11.352,1.281 11.580 C 1.216 11.758,1.197 11.883,1.208 12.062 C 1.237 12.538,1.251 12.555,3.388 14.685 C 5.220 16.511,5.354 16.636,5.572 16.715 C 6.029 16.883,6.503 16.781,6.842 16.442 C 7.181 16.103,7.283 15.628,7.115 15.172 C 7.036 14.957,6.925 14.834,5.566 13.470 L 4.102 12.000 5.566 10.530 C 6.925 9.166,7.036 9.043,7.115 8.828 C 7.398 8.058,6.884 7.265,6.070 7.216 C 5.925 7.207,5.750 7.223,5.653 7.255 M17.613 7.272 C 16.960 7.505,16.646 8.177,16.885 8.828 C 16.964 9.043,17.075 9.166,18.434 10.530 L 19.898 12.000 18.434 13.470 C 17.075 14.834,16.964 14.957,16.885 15.172 C 16.717 15.628,16.819 16.103,17.158 16.442 C 17.497 16.781,17.971 16.883,18.428 16.715 C 18.646 16.636,18.780 16.511,20.612 14.685 C 22.749 12.555,22.763 12.538,22.792 12.062 C 22.803 11.883,22.784 11.758,22.719 11.580 C 22.635 11.352,22.534 11.243,20.685 9.388 C 19.136 7.834,18.697 7.416,18.530 7.334 C 18.250 7.196,17.892 7.172,17.613 7.272 " fill="#1E1E1E" stroke="none" fill-rule="evenodd"></path></svg>