<svg width="24" height="24" viewBox="0 0 24 24" fill="none" xmlns="http://www.w3.org/2000/svg"><path d="M4.280 4.862 C 3.843 4.957,3.460 5.172,3.119 5.516 C 2.772 5.865,2.594 6.174,2.479 6.624 C 2.414 6.876,2.400 7.067,2.400 7.666 L 2.400 8.400 12.000 8.400 L 21.600 8.400 21.600 7.666 C 21.600 6.834,21.541 6.503,21.312 6.067 C 21.121 5.702,20.654 5.249,20.280 5.066 C 19.706 4.785,20.224 4.801,11.980 4.804 C 5.757 4.806,4.497 4.816,4.280 4.862 M2.401 13.910 C 2.401 16.490,2.411 17.068,2.460 17.300 C 2.649 18.200,3.400 18.951,4.300 19.140 C 4.721 19.228,19.279 19.228,19.700 19.140 C 20.600 18.951,21.351 18.200,21.540 17.300 C 21.589 17.068,21.599 16.490,21.599 13.910 L 21.600 10.800 12.000 10.800 L 2.400 10.800 2.401 13.910 M7.626 14.486 C 7.775 14.541,7.921 14.637,8.042 14.758 C 8.613 15.329,8.472 16.264,7.754 16.661 L 7.540 16.780 6.600 16.780 L 5.660 16.780 5.446 16.661 C 4.728 16.264,4.587 15.329,5.158 14.758 C 5.471 14.445,5.634 14.405,6.588 14.402 C 7.320 14.400,7.419 14.408,7.626 14.486 M12.426 14.486 C 12.575 14.541,12.721 14.637,12.842 14.758 C 13.413 15.329,13.272 16.264,12.554 16.661 L 12.340 16.780 11.400 16.780 L 10.460 16.780 10.246 16.661 C 9.528 16.264,9.387 15.329,9.958 14.758 C 10.271 14.445,10.434 14.405,11.388 14.402 C 12.120 14.400,12.219 14.408,12.426 14.486 " fill="#1E1E1E" stroke="none" fill-rule="evenodd"></path></svg>