<svg width="24" height="24" viewBox="0 0 24 24" fill="none" xmlns="http://www.w3.org/2000/svg"><path d="M11.613 4.872 C 11.240 5.005,10.996 5.253,10.862 5.635 C 10.808 5.789,10.800 6.376,10.800 10.454 L 10.800 15.098 9.330 13.634 C 7.689 12.001,7.715 12.020,7.180 12.020 C 6.304 12.020,5.742 12.932,6.130 13.722 C 6.218 13.902,6.687 14.389,8.789 16.485 C 11.203 18.894,11.352 19.035,11.572 19.115 C 11.865 19.223,12.135 19.223,12.428 19.115 C 12.648 19.035,12.797 18.894,15.211 16.485 C 17.313 14.389,17.782 13.902,17.870 13.722 C 18.161 13.130,17.920 12.423,17.329 12.132 C 17.144 12.042,17.046 12.020,16.820 12.020 C 16.285 12.020,16.311 12.001,14.670 13.634 L 13.200 15.098 13.200 10.450 C 13.200 5.895,13.198 5.799,13.120 5.588 C 12.894 4.984,12.210 4.658,11.613 4.872 " fill="#1E1E1E" stroke="none" fill-rule="evenodd"></path></svg>