<svg width="24" height="24" viewBox="0 0 24 24" fill="none" xmlns="http://www.w3.org/2000/svg"><path d="M11.620 1.273 C 11.298 1.387,9.240 2.586,9.052 2.769 C 8.824 2.991,8.709 3.271,8.709 3.600 C 8.709 4.385,9.466 4.965,10.218 4.756 C 10.305 4.731,10.735 4.507,11.172 4.256 C 11.610 4.005,11.983 3.800,12.000 3.800 C 12.017 3.800,12.390 4.005,12.828 4.256 C 13.265 4.507,13.695 4.731,13.782 4.756 C 14.182 4.867,14.576 4.769,14.892 4.480 C 15.410 4.006,15.435 3.244,14.948 2.769 C 14.760 2.586,12.702 1.387,12.380 1.273 C 12.270 1.234,12.099 1.203,12.000 1.203 C 11.901 1.203,11.730 1.234,11.620 1.273 M5.340 4.870 C 5.088 4.960,3.038 6.126,2.813 6.307 C 2.713 6.387,2.600 6.534,2.533 6.670 L 2.420 6.900 2.420 8.400 C 2.420 9.841,2.423 9.907,2.504 10.082 C 2.627 10.348,2.815 10.542,3.073 10.668 C 3.260 10.760,3.353 10.780,3.600 10.780 C 4.290 10.780,4.749 10.323,4.792 9.592 L 4.810 9.284 5.095 9.430 C 5.353 9.562,5.411 9.576,5.700 9.576 C 5.967 9.576,6.053 9.559,6.223 9.471 C 6.437 9.360,6.668 9.132,6.788 8.912 C 6.843 8.811,6.860 8.691,6.860 8.400 C 6.860 8.059,6.849 8.001,6.752 7.837 C 6.629 7.627,6.407 7.416,6.190 7.301 C 6.107 7.257,6.040 7.212,6.040 7.200 C 6.040 7.188,6.107 7.143,6.190 7.099 C 6.407 6.984,6.629 6.773,6.752 6.563 C 6.849 6.399,6.860 6.341,6.860 6.000 C 6.860 5.660,6.849 5.601,6.753 5.440 C 6.450 4.927,5.851 4.686,5.340 4.870 M17.980 4.856 C 17.611 4.973,17.342 5.210,17.191 5.551 C 17.074 5.816,17.103 6.316,17.250 6.567 C 17.373 6.776,17.625 7.015,17.822 7.109 C 17.898 7.145,17.960 7.185,17.960 7.198 C 17.960 7.211,17.893 7.257,17.810 7.301 C 17.594 7.416,17.371 7.627,17.250 7.833 C 17.103 8.084,17.074 8.584,17.191 8.849 C 17.301 9.097,17.535 9.346,17.777 9.471 C 17.947 9.559,18.033 9.576,18.300 9.576 C 18.588 9.576,18.646 9.562,18.880 9.438 C 19.023 9.363,19.151 9.295,19.165 9.289 C 19.178 9.282,19.198 9.417,19.208 9.588 C 19.239 10.113,19.454 10.463,19.873 10.668 C 20.060 10.760,20.153 10.780,20.400 10.780 C 20.900 10.780,21.287 10.534,21.496 10.082 C 21.577 9.907,21.580 9.841,21.580 8.400 L 21.580 6.900 21.467 6.670 C 21.400 6.534,21.287 6.387,21.187 6.307 C 20.956 6.122,18.906 4.958,18.660 4.872 C 18.426 4.791,18.203 4.785,17.980 4.856 M9.580 9.656 C 9.323 9.737,9.184 9.824,9.022 10.003 C 8.777 10.274,8.708 10.476,8.728 10.856 C 8.761 11.452,8.905 11.610,9.982 12.224 L 10.795 12.687 10.808 13.694 C 10.819 14.617,10.827 14.715,10.904 14.882 C 11.027 15.148,11.215 15.342,11.473 15.468 C 11.660 15.560,11.753 15.580,12.000 15.580 C 12.500 15.580,12.887 15.334,13.096 14.882 C 13.173 14.715,13.181 14.617,13.192 13.694 L 13.205 12.687 14.018 12.224 C 15.134 11.587,15.260 11.443,15.260 10.800 C 15.260 10.460,15.249 10.401,15.153 10.240 C 14.869 9.760,14.344 9.519,13.845 9.639 C 13.726 9.667,13.307 9.878,12.840 10.144 C 12.399 10.395,12.021 10.600,11.999 10.600 C 11.976 10.600,11.621 10.407,11.209 10.171 C 10.207 9.597,9.987 9.527,9.580 9.656 M3.213 13.274 C 2.919 13.376,2.667 13.596,2.533 13.870 L 2.420 14.100 2.420 15.600 L 2.420 17.100 2.529 17.321 C 2.588 17.443,2.687 17.590,2.749 17.648 C 2.810 17.707,3.337 18.027,3.920 18.361 C 5.429 19.225,5.323 19.176,5.700 19.176 C 5.967 19.176,6.053 19.159,6.223 19.071 C 6.437 18.960,6.668 18.732,6.788 18.512 C 6.891 18.324,6.891 17.676,6.788 17.488 C 6.626 17.192,6.433 17.041,5.618 16.576 L 4.805 16.113 4.792 15.106 L 4.780 14.100 4.666 13.868 C 4.404 13.335,3.778 13.079,3.213 13.274 M20.013 13.274 C 19.719 13.376,19.467 13.596,19.333 13.870 L 19.220 14.100 19.208 15.106 L 19.195 16.113 18.382 16.576 C 17.305 17.190,17.161 17.348,17.128 17.944 C 17.108 18.324,17.177 18.526,17.423 18.798 C 17.667 19.068,17.918 19.176,18.300 19.176 C 18.677 19.176,18.571 19.225,20.080 18.361 C 20.663 18.027,21.190 17.707,21.251 17.648 C 21.313 17.590,21.412 17.443,21.471 17.321 L 21.580 17.100 21.580 15.600 L 21.580 14.100 21.466 13.868 C 21.204 13.335,20.578 13.079,20.013 13.274 M11.613 18.074 C 11.126 18.243,10.840 18.644,10.808 19.206 C 10.798 19.380,10.778 19.517,10.765 19.510 C 10.327 19.273,10.168 19.220,9.900 19.222 C 9.544 19.223,9.263 19.342,9.037 19.588 C 8.779 19.867,8.707 20.070,8.728 20.456 C 8.763 21.087,8.864 21.185,10.362 22.041 C 11.686 22.798,11.827 22.853,12.222 22.770 C 12.386 22.736,12.758 22.544,13.638 22.041 C 15.178 21.161,15.260 21.078,15.260 20.400 C 15.260 20.060,15.249 20.001,15.153 19.840 C 14.910 19.430,14.558 19.223,14.100 19.221 C 13.832 19.220,13.673 19.273,13.235 19.510 C 13.222 19.517,13.202 19.380,13.192 19.206 C 13.168 18.789,13.030 18.497,12.753 18.278 C 12.414 18.010,12.009 17.937,11.613 18.074 " fill="#1E1E1E" stroke="none" fill-rule="evenodd"></path></svg>