<svg width="24" height="24" viewBox="0 0 24 24" fill="none" xmlns="http://www.w3.org/2000/svg"><path d="M11.613 2.474 C 11.319 2.576,11.067 2.796,10.933 3.070 L 10.820 3.300 10.809 6.194 L 10.798 9.087 10.532 8.838 C 10.180 8.509,9.985 8.422,9.600 8.421 C 9.352 8.420,9.261 8.439,9.073 8.532 C 8.644 8.742,8.422 9.106,8.421 9.600 C 8.419 10.115,8.446 10.150,9.988 11.685 C 11.489 13.177,11.493 13.180,12.000 13.180 C 12.507 13.180,12.511 13.177,14.012 11.685 C 15.553 10.151,15.580 10.116,15.580 9.600 C 15.580 9.351,15.561 9.260,15.466 9.068 C 15.256 8.639,14.764 8.364,14.296 8.412 C 13.986 8.444,13.747 8.567,13.459 8.844 L 13.202 9.091 13.191 6.195 L 13.180 3.300 13.066 3.068 C 12.804 2.535,12.178 2.279,11.613 2.474 M5.480 3.661 C 5.041 3.758,4.659 3.973,4.319 4.316 C 3.972 4.665,3.794 4.974,3.679 5.424 C 3.602 5.725,3.600 5.890,3.600 12.000 C 3.600 18.110,3.602 18.275,3.679 18.576 C 3.795 19.028,3.972 19.335,4.319 19.681 C 4.665 20.028,4.972 20.205,5.424 20.321 C 5.725 20.398,5.890 20.400,12.000 20.400 C 18.110 20.400,18.275 20.398,18.576 20.321 C 19.028 20.205,19.335 20.028,19.681 19.681 C 20.028 19.335,20.205 19.028,20.321 18.576 C 20.398 18.275,20.400 18.110,20.400 12.000 C 20.400 5.890,20.398 5.725,20.321 5.424 C 20.206 4.974,20.028 4.665,19.681 4.316 C 19.460 4.093,19.300 3.974,19.080 3.866 C 18.611 3.636,18.318 3.593,17.340 3.607 C 16.512 3.620,16.497 3.622,16.271 3.732 C 15.538 4.093,15.379 5.062,15.958 5.642 C 16.263 5.947,16.462 6.000,17.302 6.000 L 18.000 6.000 18.000 10.200 L 18.000 14.400 16.800 14.400 L 15.600 14.400 15.000 15.600 L 14.400 16.800 12.000 16.800 L 9.600 16.800 9.000 15.600 L 8.400 14.400 7.200 14.400 L 6.000 14.400 6.000 10.200 L 6.000 6.000 6.698 6.000 C 7.538 6.000,7.737 5.947,8.042 5.642 C 8.621 5.062,8.462 4.093,7.729 3.732 C 7.501 3.620,7.496 3.620,6.620 3.612 C 5.977 3.606,5.670 3.619,5.480 3.661 " fill="#1E1E1E" stroke="none" fill-rule="evenodd"></path></svg>