<svg width="24" height="24" viewBox="0 0 24 24" fill="none" xmlns="http://www.w3.org/2000/svg"><path d="M9.213 6.072 C 8.560 6.305,8.246 6.976,8.485 7.628 C 8.565 7.846,8.692 7.983,10.634 9.930 L 12.698 12.000 10.634 14.070 C 8.692 16.017,8.565 16.154,8.485 16.372 C 8.317 16.829,8.419 17.303,8.758 17.642 C 9.097 17.981,9.571 18.083,10.028 17.915 C 10.248 17.835,10.397 17.694,12.811 15.285 C 15.601 12.503,15.562 12.548,15.592 12.062 C 15.603 11.883,15.584 11.758,15.519 11.580 C 15.434 11.350,15.324 11.233,12.885 8.789 C 10.837 6.736,10.299 6.217,10.130 6.134 C 9.850 5.996,9.493 5.972,9.213 6.072 " fill="#1E1E1E" stroke="none" fill-rule="evenodd"></path></svg>