<svg width="24" height="24" viewBox="0 0 24 24" fill="none" xmlns="http://www.w3.org/2000/svg"><path d="M4.413 6.074 C 4.012 6.213,3.726 6.530,3.639 6.935 C 3.608 7.080,3.599 8.602,3.608 12.120 L 3.620 17.100 3.732 17.327 C 3.914 17.699,4.255 17.937,4.676 17.987 C 5.109 18.038,5.047 18.074,8.647 15.675 L 11.997 13.442 12.008 15.271 L 12.020 17.100 12.132 17.327 C 12.314 17.699,12.655 17.937,13.076 17.987 C 13.512 18.039,13.415 18.096,17.468 15.394 C 21.509 12.701,21.414 12.772,21.540 12.346 C 21.650 11.977,21.586 11.598,21.360 11.286 C 21.177 11.033,13.791 6.115,13.484 6.041 C 12.922 5.906,12.350 6.187,12.104 6.718 C 12.023 6.893,12.020 6.967,12.008 8.729 L 11.997 10.558 8.688 8.351 C 6.723 7.039,5.299 6.115,5.180 6.073 C 4.925 5.983,4.675 5.984,4.413 6.074 " fill="#1E1E1E" stroke="none" fill-rule="evenodd"></path></svg>