<svg width="24" height="24" viewBox="0 0 24 24" fill="none" xmlns="http://www.w3.org/2000/svg"><path d="M7.572 3.484 C 6.697 3.940,5.650 4.729,5.024 5.403 C 3.646 6.886,2.833 8.563,2.494 10.620 C 2.393 11.234,2.392 12.709,2.493 13.360 C 2.774 15.173,3.527 16.839,4.692 18.220 C 6.169 19.972,8.290 21.144,10.640 21.507 C 11.288 21.607,12.722 21.607,13.360 21.508 C 16.119 21.077,18.480 19.584,19.981 17.320 C 20.309 16.826,20.720 16.096,20.720 16.008 C 20.720 15.980,20.649 15.994,20.530 16.046 C 19.786 16.374,18.570 16.675,17.640 16.763 C 17.042 16.820,15.999 16.790,15.400 16.699 C 13.116 16.353,10.945 15.152,9.511 13.440 C 8.292 11.986,7.588 10.424,7.294 8.520 C 7.197 7.894,7.196 6.526,7.292 5.878 C 7.409 5.091,7.686 4.082,7.954 3.470 C 8.000 3.366,8.021 3.280,8.001 3.280 C 7.980 3.280,7.788 3.372,7.572 3.484 " fill="#1E1E1E" stroke="none" fill-rule="evenodd"></path></svg>