<svg width="24" height="24" viewBox="0 0 24 24" fill="none" xmlns="http://www.w3.org/2000/svg"><path d="M11.060 3.644 C 8.717 3.834,6.500 4.817,4.885 6.380 C 4.119 7.121,3.614 7.808,3.180 8.700 C 2.376 10.351,2.191 12.117,2.639 13.856 C 2.888 14.822,3.257 15.586,3.972 16.614 C 3.990 16.641,3.674 17.428,3.205 18.520 C 2.765 19.542,2.409 20.383,2.414 20.387 C 2.418 20.391,3.469 20.133,4.750 19.812 L 7.079 19.230 7.530 19.433 C 8.468 19.857,9.374 20.126,10.406 20.286 C 11.168 20.405,12.719 20.415,13.460 20.307 C 15.414 20.020,17.124 19.293,18.540 18.148 C 18.952 17.815,19.676 17.070,19.986 16.660 C 22.194 13.740,22.132 10.001,19.828 7.140 C 19.463 6.687,18.736 5.995,18.222 5.612 C 16.235 4.132,13.683 3.430,11.060 3.644 M8.400 12.000 L 8.400 13.200 7.200 13.200 L 6.000 13.200 6.000 12.000 L 6.000 10.800 7.200 10.800 L 8.400 10.800 8.400 12.000 M13.200 12.000 L 13.200 13.200 12.000 13.200 L 10.800 13.200 10.800 12.000 L 10.800 10.800 12.000 10.800 L 13.200 10.800 13.200 12.000 M18.000 12.000 L 18.000 13.200 16.800 13.200 L 15.600 13.200 15.600 12.000 L 15.600 10.800 16.800 10.800 L 18.000 10.800 18.000 12.000 " fill="#1E1E1E" stroke="none" fill-rule="evenodd"></path></svg>