<svg width="24" height="24" viewBox="0 0 24 24" fill="none" xmlns="http://www.w3.org/2000/svg"><path d="M11.653 4.855 C 11.561 4.885,11.426 4.947,11.353 4.993 C 11.280 5.039,10.084 6.215,8.695 7.608 C 6.305 10.004,6.165 10.152,6.085 10.372 C 5.917 10.829,6.019 11.303,6.358 11.642 C 6.697 11.981,7.172 12.083,7.628 11.915 C 7.843 11.836,7.966 11.725,9.330 10.366 L 10.800 8.902 10.800 13.550 L 10.800 18.197 10.886 18.426 C 11.052 18.872,11.525 19.200,12.000 19.200 C 12.475 19.200,12.948 18.872,13.114 18.426 L 13.200 18.197 13.200 13.550 L 13.200 8.902 14.670 10.366 C 16.034 11.725,16.157 11.836,16.372 11.915 C 16.828 12.083,17.303 11.981,17.642 11.642 C 17.981 11.303,18.083 10.829,17.915 10.372 C 17.835 10.152,17.694 10.003,15.285 7.589 C 13.237 5.536,12.699 5.017,12.530 4.934 C 12.277 4.809,11.897 4.775,11.653 4.855 " fill="#1E1E1E" stroke="none" fill-rule="evenodd"></path></svg>