<svg width="24" height="24" viewBox="0 0 24 24" fill="none" xmlns="http://www.w3.org/2000/svg"><path d="M6.465 4.863 C 3.847 5.270,2.039 7.752,2.462 10.359 C 2.582 11.098,2.921 11.894,3.366 12.479 C 3.492 12.645,5.486 14.670,7.797 16.980 L 12.000 21.180 16.203 16.980 C 18.514 14.670,20.508 12.645,20.634 12.479 C 22.415 10.136,21.630 6.700,19.003 5.344 C 17.439 4.536,15.604 4.644,14.100 5.634 C 13.929 5.747,13.466 6.168,12.910 6.716 L 12.000 7.615 11.090 6.716 C 10.165 5.803,9.897 5.589,9.326 5.302 C 8.474 4.875,7.424 4.714,6.465 4.863 " fill="#1E1E1E" stroke="none" fill-rule="evenodd"></path></svg>