<svg width="24" height="24" viewBox="0 0 24 24" fill="none" xmlns="http://www.w3.org/2000/svg"><path d="M4.280 4.862 C 4.137 4.893,3.885 4.985,3.720 5.066 C 3.346 5.249,2.879 5.702,2.688 6.067 C 2.570 6.293,2.400 6.840,2.400 6.997 C 2.400 7.041,3.839 7.780,7.200 9.460 L 12.000 11.860 16.800 9.460 C 20.161 7.780,21.600 7.041,21.600 6.997 C 21.600 6.840,21.430 6.293,21.312 6.067 C 21.121 5.702,20.654 5.249,20.280 5.066 C 19.706 4.785,20.224 4.801,11.980 4.804 C 5.757 4.806,4.497 4.816,4.280 4.862 M2.401 13.390 C 2.401 16.428,2.411 17.066,2.460 17.300 C 2.649 18.200,3.400 18.951,4.300 19.140 C 4.721 19.228,19.279 19.228,19.700 19.140 C 20.600 18.951,21.351 18.200,21.540 17.300 C 21.589 17.066,21.599 16.428,21.599 13.390 C 21.600 11.393,21.591 9.760,21.580 9.760 C 21.569 9.760,19.409 10.835,16.780 12.150 L 12.000 14.540 7.220 12.150 C 4.591 10.835,2.431 9.760,2.420 9.760 C 2.409 9.760,2.400 11.393,2.401 13.390 " fill="#1E1E1E" stroke="none" fill-rule="evenodd"></path></svg>