<svg width="24" height="24" viewBox="0 0 24 24" fill="none" xmlns="http://www.w3.org/2000/svg"><path d="M4.413 3.673 C 4.042 3.803,3.796 4.052,3.662 4.435 C 3.609 4.586,3.600 4.972,3.600 7.204 C 3.600 9.757,3.601 9.801,3.686 10.026 C 3.852 10.472,4.325 10.800,4.800 10.800 C 5.275 10.800,5.748 10.472,5.914 10.026 C 5.994 9.813,6.000 9.722,6.000 8.750 L 6.000 7.702 7.470 9.166 C 8.834 10.525,8.957 10.636,9.172 10.715 C 9.628 10.883,10.103 10.781,10.442 10.442 C 10.781 10.103,10.883 9.628,10.715 9.172 C 10.636 8.957,10.525 8.834,9.166 7.470 L 7.702 6.000 8.750 6.000 C 9.978 6.000,10.112 5.972,10.442 5.642 C 11.021 5.062,10.862 4.093,10.129 3.732 L 9.900 3.620 7.260 3.611 C 4.807 3.602,4.605 3.607,4.413 3.673 M14.013 3.673 C 13.171 3.967,12.929 5.013,13.558 5.642 C 13.888 5.972,14.022 6.000,15.250 6.000 L 16.298 6.000 14.834 7.470 C 13.475 8.834,13.364 8.957,13.285 9.172 C 13.117 9.628,13.219 10.103,13.558 10.442 C 13.897 10.781,14.372 10.883,14.828 10.715 C 15.043 10.636,15.166 10.525,16.530 9.166 L 18.000 7.702 18.000 8.750 C 18.000 9.722,18.006 9.813,18.086 10.026 C 18.252 10.472,18.725 10.800,19.200 10.800 C 19.675 10.800,20.148 10.472,20.314 10.026 C 20.399 9.801,20.400 9.757,20.400 7.200 C 20.400 4.697,20.397 4.595,20.320 4.388 C 20.211 4.097,20.004 3.867,19.729 3.732 L 19.500 3.620 16.860 3.611 C 14.407 3.602,14.205 3.607,14.013 3.673 M4.413 13.272 C 4.040 13.405,3.796 13.653,3.662 14.035 C 3.609 14.186,3.600 14.572,3.600 16.804 C 3.600 19.357,3.601 19.401,3.686 19.626 C 3.800 19.931,4.069 20.200,4.374 20.314 C 4.599 20.399,4.643 20.400,7.200 20.400 C 9.757 20.400,9.801 20.399,10.026 20.314 C 10.175 20.259,10.321 20.163,10.442 20.042 C 11.021 19.462,10.862 18.493,10.129 18.132 L 9.900 18.020 8.804 18.008 L 7.707 17.995 9.169 16.528 C 10.525 15.166,10.636 15.043,10.715 14.828 C 10.932 14.238,10.684 13.605,10.129 13.332 C 9.944 13.242,9.846 13.220,9.620 13.220 C 9.085 13.220,9.111 13.201,7.470 14.834 L 6.000 16.298 6.000 15.250 C 6.000 14.071,5.974 13.931,5.699 13.609 C 5.404 13.265,4.843 13.118,4.413 13.272 M14.013 13.272 C 13.360 13.505,13.046 14.177,13.285 14.828 C 13.364 15.043,13.475 15.166,14.831 16.528 L 16.293 17.995 15.196 18.008 L 14.100 18.020 13.871 18.132 C 13.138 18.493,12.979 19.462,13.558 20.042 C 13.679 20.163,13.825 20.259,13.974 20.314 C 14.199 20.399,14.243 20.400,16.800 20.400 C 19.357 20.400,19.401 20.399,19.626 20.314 C 19.931 20.200,20.200 19.931,20.314 19.626 C 20.399 19.401,20.400 19.357,20.400 16.800 C 20.400 14.297,20.397 14.195,20.320 13.988 C 20.211 13.697,20.004 13.467,19.729 13.332 C 19.540 13.240,19.448 13.220,19.200 13.220 C 18.952 13.220,18.860 13.240,18.671 13.332 C 18.396 13.467,18.189 13.697,18.080 13.988 C 18.007 14.183,18.000 14.300,18.000 15.251 L 18.000 16.299 16.550 14.851 C 14.970 13.274,14.933 13.245,14.462 13.214 C 14.294 13.203,14.157 13.220,14.013 13.272 " fill="#1E1E1E" stroke="none" fill-rule="evenodd"></path></svg>