<svg width="24" height="24" viewBox="0 0 24 24" fill="none" xmlns="http://www.w3.org/2000/svg"><path d="M7.880 2.462 C 7.443 2.557,7.060 2.772,6.719 3.116 C 6.372 3.465,6.194 3.774,6.079 4.224 C 6.006 4.511,6.000 4.672,6.000 6.466 L 6.000 8.400 5.290 8.401 C 4.459 8.402,4.155 8.453,3.720 8.666 C 3.500 8.774,3.340 8.893,3.119 9.116 C 2.772 9.465,2.594 9.774,2.479 10.224 C 2.405 10.512,2.400 10.672,2.400 12.600 C 2.400 14.528,2.405 14.688,2.479 14.976 C 2.595 15.428,2.772 15.735,3.119 16.081 C 3.465 16.428,3.772 16.605,4.224 16.721 C 4.476 16.786,4.667 16.800,5.266 16.800 L 6.000 16.800 6.000 18.134 C 6.000 19.331,6.008 19.499,6.079 19.776 C 6.195 20.228,6.372 20.535,6.719 20.881 C 7.065 21.228,7.372 21.405,7.824 21.521 C 8.121 21.597,8.280 21.600,12.000 21.600 C 15.720 21.600,15.879 21.597,16.176 21.521 C 16.628 21.405,16.935 21.228,17.281 20.881 C 17.628 20.535,17.805 20.228,17.921 19.776 C 17.992 19.499,18.000 19.331,18.000 18.134 L 18.000 16.800 18.734 16.800 C 19.333 16.800,19.524 16.786,19.776 16.721 C 20.228 16.605,20.535 16.428,20.881 16.081 C 21.228 15.735,21.405 15.428,21.521 14.976 C 21.595 14.688,21.600 14.528,21.600 12.600 C 21.600 10.672,21.595 10.512,21.521 10.224 C 21.406 9.774,21.228 9.465,20.881 9.116 C 20.660 8.893,20.500 8.774,20.280 8.666 C 19.845 8.453,19.541 8.402,18.710 8.401 L 18.000 8.400 18.000 6.466 C 18.000 4.308,17.988 4.194,17.712 3.667 C 17.521 3.302,17.054 2.849,16.680 2.666 C 16.126 2.394,16.245 2.401,11.980 2.404 C 8.845 2.406,8.092 2.417,7.880 2.462 M15.600 6.600 L 15.600 8.400 12.000 8.400 L 8.400 8.400 8.400 6.600 L 8.400 4.800 12.000 4.800 L 15.600 4.800 15.600 6.600 M15.600 16.800 L 15.600 19.200 12.000 19.200 L 8.400 19.200 8.400 16.800 L 8.400 14.400 12.000 14.400 L 15.600 14.400 15.600 16.800 " fill="#1E1E1E" stroke="none" fill-rule="evenodd"></path></svg>