<svg width="24" height="24" viewBox="0 0 24 24" fill="none" xmlns="http://www.w3.org/2000/svg"><path d="M12.813 3.674 C 11.971 3.967,11.729 5.013,12.358 5.642 C 12.479 5.763,12.625 5.859,12.774 5.914 C 12.994 5.997,13.064 6.000,14.651 6.000 L 16.299 6.000 12.434 9.870 C 8.743 13.566,8.565 13.750,8.485 13.972 C 8.317 14.429,8.420 14.903,8.758 15.242 C 9.097 15.580,9.571 15.683,10.028 15.515 C 10.250 15.435,10.434 15.257,14.130 11.566 L 18.000 7.701 18.000 9.349 C 18.000 10.936,18.003 11.006,18.086 11.226 C 18.252 11.672,18.725 12.000,19.200 12.000 C 19.675 12.000,20.148 11.672,20.314 11.226 C 20.399 10.999,20.400 10.970,20.400 7.800 C 20.400 4.697,20.398 4.597,20.320 4.388 C 20.211 4.097,20.004 3.867,19.729 3.732 L 19.500 3.620 16.260 3.611 C 13.231 3.602,13.007 3.606,12.813 3.674 M5.480 6.062 C 4.599 6.252,3.847 7.012,3.660 7.900 C 3.572 8.319,3.572 18.081,3.660 18.500 C 3.849 19.400,4.600 20.151,5.500 20.340 C 5.919 20.428,15.681 20.428,16.100 20.340 C 17.007 20.149,17.753 19.398,17.942 18.486 C 17.993 18.241,18.001 17.854,17.991 16.146 L 17.980 14.100 17.866 13.868 C 17.676 13.481,17.228 13.200,16.800 13.200 C 16.372 13.200,15.924 13.481,15.734 13.868 L 15.620 14.100 15.609 16.050 L 15.597 18.000 10.799 18.000 L 6.000 18.000 6.000 13.201 L 6.000 8.403 7.950 8.391 L 9.900 8.380 10.127 8.268 C 10.556 8.058,10.778 7.694,10.779 7.200 C 10.780 6.806,10.642 6.507,10.353 6.278 C 10.002 6.001,9.991 6.000,7.743 6.003 C 6.185 6.006,5.682 6.019,5.480 6.062 " fill="#1E1E1E" stroke="none" fill-rule="evenodd"></path></svg>