<svg width="24" height="24" viewBox="0 0 24 24" fill="none" xmlns="http://www.w3.org/2000/svg"><path d="M5.480 3.662 C 5.043 3.757,4.660 3.972,4.319 4.316 C 3.972 4.665,3.794 4.974,3.679 5.424 C 3.602 5.724,3.600 5.885,3.600 10.800 C 3.600 15.715,3.602 15.876,3.679 16.176 C 3.795 16.628,3.972 16.935,4.319 17.281 C 4.665 17.628,4.972 17.805,5.424 17.921 C 5.704 17.993,5.870 18.000,7.186 18.000 C 8.221 18.000,8.640 18.013,8.640 18.044 C 8.640 18.069,8.611 18.199,8.577 18.334 C 8.516 18.569,8.489 18.605,7.943 19.160 C 7.448 19.663,7.360 19.772,7.282 19.980 C 7.066 20.555,7.322 21.198,7.873 21.468 L 8.100 21.580 12.000 21.580 L 15.900 21.580 16.127 21.468 C 16.678 21.198,16.934 20.555,16.718 19.980 C 16.640 19.772,16.552 19.663,16.057 19.160 C 15.511 18.605,15.484 18.569,15.423 18.334 C 15.389 18.199,15.360 18.069,15.360 18.044 C 15.360 18.013,15.779 18.000,16.814 18.000 C 18.130 18.000,18.296 17.993,18.576 17.921 C 19.028 17.805,19.335 17.628,19.681 17.281 C 20.028 16.935,20.205 16.628,20.321 16.176 C 20.398 15.876,20.400 15.715,20.400 10.800 C 20.400 5.885,20.398 5.724,20.321 5.424 C 20.206 4.974,20.028 4.665,19.681 4.316 C 19.334 3.967,18.954 3.755,18.500 3.660 C 18.091 3.574,5.879 3.576,5.480 3.662 M18.000 10.200 L 18.000 14.400 12.000 14.400 L 6.000 14.400 6.000 10.200 L 6.000 6.000 12.000 6.000 L 18.000 6.000 18.000 10.200 " fill="#1E1E1E" stroke="none" fill-rule="evenodd"></path></svg>