<svg width="24" height="24" viewBox="0 0 24 24" fill="none" xmlns="http://www.w3.org/2000/svg"><path d="M11.653 2.455 C 11.561 2.485,11.426 2.547,11.353 2.593 C 11.280 2.639,9.544 4.356,7.495 6.408 C 3.939 9.970,3.765 10.151,3.685 10.372 C 3.517 10.829,3.619 11.303,3.958 11.642 C 4.297 11.981,4.771 12.083,5.228 11.915 C 5.448 11.835,5.600 11.691,8.130 9.166 L 10.800 6.501 10.800 13.549 L 10.800 20.597 10.886 20.826 C 11.052 21.272,11.525 21.600,12.000 21.600 C 12.475 21.600,12.948 21.272,13.114 20.826 L 13.200 20.597 13.200 13.549 L 13.200 6.501 15.870 9.166 C 18.400 11.691,18.552 11.835,18.772 11.915 C 19.229 12.083,19.703 11.981,20.042 11.642 C 20.381 11.303,20.483 10.829,20.315 10.372 C 20.235 10.151,20.060 9.969,16.485 6.389 C 13.439 3.338,12.701 2.618,12.530 2.534 C 12.277 2.409,11.897 2.375,11.653 2.455 " fill="#1E1E1E" stroke="none" fill-rule="evenodd"></path></svg>