<svg width="24" height="24" viewBox="0 0 24 24" fill="none" xmlns="http://www.w3.org/2000/svg"><path d="M11.240 2.425 C 10.167 2.505,8.731 2.841,7.940 3.198 C 7.125 3.565,6.956 4.583,7.610 5.186 C 7.949 5.499,8.403 5.566,8.921 5.379 C 10.230 4.908,11.417 4.733,12.630 4.833 C 13.783 4.928,14.657 5.166,15.668 5.661 C 17.038 6.331,18.122 7.273,18.976 8.532 C 19.308 9.022,19.793 10.007,19.975 10.560 C 20.220 11.307,20.399 12.400,20.400 13.148 C 20.400 13.497,20.525 13.809,20.758 14.042 C 21.229 14.512,21.971 14.512,22.442 14.042 C 22.791 13.693,22.857 13.318,22.759 12.260 C 22.570 10.218,21.842 8.328,20.614 6.690 C 20.235 6.184,19.240 5.155,18.779 4.792 C 16.835 3.262,14.643 2.467,12.240 2.423 C 11.811 2.415,11.361 2.416,11.240 2.425 M4.549 5.682 C 4.151 5.781,3.924 5.979,3.373 6.710 C 2.054 8.460,1.297 10.588,1.214 12.780 C 1.192 13.337,1.197 13.397,1.281 13.618 C 1.340 13.773,1.436 13.920,1.558 14.042 C 2.325 14.809,3.600 14.251,3.600 13.148 C 3.600 13.012,3.619 12.693,3.642 12.440 C 3.797 10.748,4.435 9.190,5.514 7.870 C 5.922 7.371,5.979 7.248,5.979 6.860 C 5.979 6.482,5.892 6.255,5.659 6.021 C 5.381 5.743,4.897 5.595,4.549 5.682 M11.300 7.246 C 8.707 7.532,6.561 9.559,6.096 12.159 C 6.063 12.347,6.019 12.910,5.998 13.412 C 5.932 15.058,5.670 16.337,5.116 17.731 C 4.985 18.059,4.960 18.168,4.960 18.411 C 4.961 18.892,5.201 19.275,5.635 19.489 C 5.912 19.625,6.385 19.618,6.663 19.472 C 7.055 19.267,7.197 19.043,7.546 18.080 C 8.067 16.644,8.319 15.275,8.397 13.440 C 8.429 12.698,8.449 12.531,8.539 12.222 C 8.894 11.012,9.795 10.109,11.022 9.735 C 11.346 9.636,11.439 9.626,12.000 9.626 C 12.561 9.626,12.654 9.636,12.978 9.735 C 14.497 10.198,15.475 11.433,15.595 13.038 C 15.634 13.555,15.704 13.768,15.917 14.010 C 16.242 14.381,16.866 14.495,17.327 14.268 C 17.585 14.142,17.773 13.948,17.896 13.682 C 17.968 13.527,17.979 13.430,17.975 13.020 C 17.965 11.924,17.617 10.820,16.986 9.875 C 15.733 8.002,13.559 6.996,11.300 7.246 M11.613 12.074 C 11.320 12.175,11.067 12.397,10.935 12.667 C 10.830 12.881,10.822 12.936,10.795 13.645 C 10.712 15.770,10.340 17.584,9.618 19.382 C 9.352 20.044,9.307 20.340,9.421 20.684 C 9.520 20.981,9.859 21.320,10.156 21.419 C 10.638 21.579,11.185 21.415,11.486 21.021 C 11.855 20.537,12.566 18.349,12.857 16.800 C 13.068 15.681,13.235 13.867,13.191 13.173 C 13.166 12.788,13.020 12.490,12.753 12.278 C 12.414 12.010,12.009 11.937,11.613 12.074 M16.128 15.673 C 15.688 15.830,15.411 16.179,15.323 16.686 C 15.215 17.314,15.031 18.167,14.879 18.747 C 14.676 19.520,14.670 19.767,14.842 20.112 C 14.972 20.372,15.108 20.509,15.375 20.652 C 15.615 20.779,16.187 20.778,16.429 20.649 C 16.645 20.534,16.857 20.322,16.962 20.116 C 17.066 19.912,17.434 18.456,17.583 17.660 C 17.772 16.654,17.729 16.329,17.360 15.960 C 17.038 15.638,16.547 15.524,16.128 15.673 " fill="#1E1E1E" stroke="none" fill-rule="evenodd"></path></svg>