<svg width="24" height="24" viewBox="0 0 24 24" fill="none" xmlns="http://www.w3.org/2000/svg"><path d="M4.413 2.474 C 4.042 2.602,3.796 2.851,3.662 3.235 C 3.609 3.384,3.600 3.712,3.600 5.404 C 3.600 7.334,3.603 7.404,3.685 7.628 C 3.765 7.848,3.916 8.007,6.684 10.780 L 9.598 13.700 9.609 17.200 L 9.620 20.700 9.732 20.929 C 9.943 21.358,10.392 21.621,10.862 21.592 C 11.322 21.564,11.405 21.499,12.885 20.012 C 14.128 18.763,14.236 18.642,14.315 18.428 C 14.398 18.203,14.400 18.143,14.400 15.949 L 14.400 13.701 17.315 10.781 C 20.084 8.007,20.235 7.848,20.315 7.628 C 20.397 7.404,20.400 7.334,20.400 5.400 C 20.400 3.498,20.396 3.393,20.320 3.188 C 20.211 2.897,20.004 2.667,19.729 2.532 L 19.500 2.420 12.060 2.411 C 4.999 2.403,4.609 2.406,4.413 2.474 " fill="#1E1E1E" stroke="none" fill-rule="evenodd"></path></svg>