<svg width="24" height="24" viewBox="0 0 24 24" fill="none" xmlns="http://www.w3.org/2000/svg"><path d="M4.280 4.862 C 3.843 4.957,3.460 5.172,3.119 5.516 C 2.772 5.865,2.594 6.174,2.479 6.624 C 2.402 6.924,2.400 7.085,2.400 12.000 C 2.400 16.915,2.402 17.076,2.479 17.376 C 2.595 17.828,2.772 18.135,3.119 18.481 C 3.465 18.828,3.772 19.005,4.224 19.121 C 4.526 19.198,4.695 19.200,12.000 19.200 C 19.305 19.200,19.474 19.198,19.776 19.121 C 20.228 19.005,20.535 18.828,20.881 18.481 C 21.228 18.135,21.405 17.828,21.521 17.376 C 21.597 17.079,21.600 16.920,21.600 13.200 C 21.600 9.480,21.597 9.321,21.521 9.024 C 21.406 8.574,21.228 8.265,20.881 7.916 C 20.660 7.693,20.500 7.574,20.280 7.466 C 19.736 7.199,19.767 7.201,16.320 7.201 L 13.219 7.200 12.020 6.000 L 10.821 4.800 7.680 4.803 C 5.147 4.806,4.490 4.817,4.280 4.862 M14.882 12.104 C 14.982 12.151,15.130 12.246,15.210 12.317 C 15.582 12.643,15.695 13.266,15.468 13.729 C 15.333 14.004,15.103 14.211,14.812 14.320 C 14.605 14.397,14.503 14.400,12.000 14.400 C 9.497 14.400,9.395 14.397,9.188 14.320 C 8.471 14.051,8.187 13.197,8.599 12.548 C 8.740 12.326,8.946 12.166,9.213 12.073 C 9.405 12.007,9.607 12.002,12.060 12.011 C 14.650 12.020,14.703 12.022,14.882 12.104 " fill="#1E1E1E" stroke="none" fill-rule="evenodd"></path></svg>