<svg width="24" height="24" viewBox="0 0 24 24" fill="none" xmlns="http://www.w3.org/2000/svg"><path d="M4.280 4.862 C 3.843 4.957,3.460 5.172,3.119 5.516 C 2.772 5.865,2.594 6.174,2.479 6.624 C 2.402 6.924,2.400 7.085,2.400 12.000 C 2.400 16.915,2.402 17.076,2.479 17.376 C 2.595 17.828,2.772 18.135,3.119 18.481 C 3.465 18.828,3.772 19.005,4.224 19.121 C 4.526 19.198,4.695 19.200,12.000 19.200 C 19.305 19.200,19.474 19.198,19.776 19.121 C 20.228 19.005,20.535 18.828,20.881 18.481 C 21.228 18.135,21.405 17.828,21.521 17.376 C 21.597 17.079,21.600 16.920,21.600 13.200 C 21.600 9.480,21.597 9.321,21.521 9.024 C 21.406 8.574,21.228 8.265,20.881 7.916 C 20.660 7.693,20.500 7.574,20.280 7.466 C 19.736 7.199,19.767 7.201,16.320 7.201 L 13.219 7.200 12.020 6.000 L 10.821 4.800 7.680 4.803 C 5.147 4.806,4.490 4.817,4.280 4.862 M12.537 9.737 C 12.785 9.858,12.974 10.055,13.096 10.318 C 13.174 10.487,13.181 10.581,13.192 11.594 L 13.205 12.688 13.460 12.443 C 13.799 12.117,14.013 12.022,14.400 12.022 C 14.893 12.022,15.258 12.244,15.468 12.673 C 15.560 12.860,15.580 12.953,15.580 13.200 C 15.580 13.716,15.553 13.751,14.012 15.285 C 12.763 16.528,12.642 16.636,12.428 16.715 C 12.135 16.823,11.865 16.823,11.572 16.715 C 11.358 16.636,11.237 16.528,9.988 15.285 C 8.447 13.751,8.420 13.716,8.420 13.200 C 8.420 12.505,8.904 12.022,9.600 12.022 C 9.988 12.022,10.201 12.117,10.542 12.445 L 10.800 12.693 10.800 11.674 C 10.800 10.551,10.825 10.383,11.036 10.092 C 11.372 9.628,12.007 9.478,12.537 9.737 " fill="#1E1E1E" stroke="none" fill-rule="evenodd"></path></svg>