<svg width="24" height="24" viewBox="0 0 24 24" fill="none" xmlns="http://www.w3.org/2000/svg"><path d="M11.653 8.455 C 11.561 8.485,11.426 8.547,11.353 8.593 C 11.280 8.639,10.084 9.815,8.695 11.208 C 6.305 13.604,6.165 13.752,6.085 13.972 C 5.917 14.429,6.019 14.903,6.358 15.242 C 6.697 15.581,7.171 15.683,7.628 15.515 C 7.846 15.435,7.983 15.308,9.930 13.366 L 12.000 11.302 14.070 13.366 C 16.017 15.308,16.154 15.435,16.372 15.515 C 16.829 15.683,17.303 15.581,17.642 15.242 C 17.981 14.903,18.083 14.429,17.915 13.972 C 17.835 13.752,17.694 13.603,15.285 11.189 C 13.237 9.136,12.699 8.617,12.530 8.534 C 12.277 8.409,11.897 8.375,11.653 8.455 " fill="#1E1E1E" stroke="none" fill-rule="evenodd"></path></svg>