<svg width="24" height="24" viewBox="0 0 24 24" fill="none" xmlns="http://www.w3.org/2000/svg"><path d="M6.680 2.462 C 6.243 2.557,5.860 2.772,5.519 3.116 C 5.172 3.465,4.994 3.774,4.879 4.224 C 4.802 4.526,4.800 4.694,4.800 11.861 L 4.800 19.190 4.630 19.216 C 4.200 19.283,3.833 19.581,3.680 19.988 C 3.453 20.595,3.768 21.288,4.374 21.514 C 4.597 21.598,4.655 21.600,6.674 21.600 C 8.947 21.600,8.957 21.599,9.249 21.359 C 9.328 21.294,9.435 21.155,9.486 21.050 C 9.579 20.863,9.580 20.836,9.600 19.280 C 9.619 17.781,9.624 17.691,9.704 17.518 C 9.827 17.252,10.015 17.058,10.273 16.932 L 10.500 16.820 12.000 16.820 L 13.500 16.820 13.727 16.932 C 13.985 17.058,14.173 17.252,14.296 17.518 C 14.376 17.691,14.381 17.780,14.400 19.300 L 14.420 20.900 14.531 21.089 C 14.592 21.192,14.701 21.323,14.774 21.378 C 15.063 21.599,15.077 21.600,17.324 21.600 C 19.345 21.600,19.403 21.598,19.626 21.514 C 20.232 21.288,20.547 20.595,20.320 19.988 C 20.167 19.581,19.800 19.283,19.370 19.216 L 19.200 19.190 19.200 11.861 C 19.200 4.694,19.198 4.526,19.121 4.224 C 19.006 3.774,18.828 3.465,18.481 3.116 C 18.134 2.767,17.754 2.555,17.300 2.460 C 16.893 2.375,7.077 2.377,6.680 2.462 M10.800 7.200 L 10.800 8.400 9.600 8.400 L 8.400 8.400 8.400 7.200 L 8.400 6.000 9.600 6.000 L 10.800 6.000 10.800 7.200 M15.600 7.200 L 15.600 8.400 14.400 8.400 L 13.200 8.400 13.200 7.200 L 13.200 6.000 14.400 6.000 L 15.600 6.000 15.600 7.200 M10.800 12.000 L 10.800 13.200 9.600 13.200 L 8.400 13.200 8.400 12.000 L 8.400 10.800 9.600 10.800 L 10.800 10.800 10.800 12.000 M15.600 12.000 L 15.600 13.200 14.400 13.200 L 13.200 13.200 13.200 12.000 L 13.200 10.800 14.400 10.800 L 15.600 10.800 15.600 12.000 " fill="#1E1E1E" stroke="none" fill-rule="evenodd"></path></svg>