<svg width="24" height="24" viewBox="0 0 24 24" fill="none" xmlns="http://www.w3.org/2000/svg"><path d="M9.974 4.858 C 9.373 4.969,8.813 5.225,8.341 5.605 C 8.187 5.729,6.825 7.071,5.315 8.586 C 2.712 11.196,2.565 11.352,2.485 11.572 C 2.377 11.865,2.377 12.135,2.485 12.428 C 2.565 12.648,2.713 12.804,5.375 15.473 C 6.918 17.020,8.288 18.367,8.420 18.467 C 8.732 18.704,9.190 18.932,9.629 19.070 L 9.980 19.180 14.300 19.180 L 18.620 19.180 18.978 19.068 C 20.212 18.681,21.081 17.812,21.468 16.578 L 21.580 16.220 21.580 12.000 L 21.580 7.780 21.468 7.420 C 21.075 6.162,20.156 5.264,18.900 4.911 L 18.580 4.821 14.420 4.814 C 11.124 4.807,10.201 4.817,9.974 4.858 M12.502 8.517 C 12.654 8.584,12.900 8.803,13.550 9.451 L 14.399 10.297 15.270 9.434 C 16.251 8.462,16.317 8.419,16.820 8.421 C 17.488 8.425,17.980 8.916,17.980 9.580 C 17.980 10.084,17.936 10.151,16.966 11.130 L 16.104 12.000 16.966 12.870 C 17.936 13.849,17.980 13.916,17.980 14.420 C 17.980 15.253,17.164 15.808,16.372 15.514 C 16.164 15.438,16.050 15.340,15.270 14.566 L 14.400 13.704 13.530 14.566 C 12.750 15.340,12.636 15.438,12.428 15.514 C 11.839 15.732,11.205 15.484,10.932 14.929 C 10.842 14.744,10.820 14.646,10.820 14.420 C 10.820 13.916,10.864 13.849,11.834 12.870 L 12.697 11.999 11.851 11.150 C 11.219 10.516,10.983 10.252,10.920 10.110 C 10.549 9.270,11.165 8.355,12.062 8.414 C 12.196 8.422,12.394 8.469,12.502 8.517 " fill="#1E1E1E" stroke="none" fill-rule="evenodd"></path></svg>