<svg width="24" height="24" viewBox="0 0 24 24" fill="none" xmlns="http://www.w3.org/2000/svg"><path d="M3.219 2.471 C 2.837 2.605,2.586 2.860,2.458 3.245 C 2.400 3.422,2.394 3.653,2.412 5.372 C 2.426 6.824,2.447 7.423,2.496 7.800 C 2.967 11.427,4.464 14.508,6.978 17.022 C 9.492 19.536,12.578 21.036,16.200 21.504 C 16.576 21.552,17.182 21.573,18.640 21.588 C 20.573 21.607,20.581 21.607,20.818 21.518 C 21.131 21.400,21.399 21.134,21.514 20.826 C 21.596 20.607,21.600 20.532,21.600 19.126 C 21.600 17.374,21.597 17.355,21.247 17.001 C 21.104 16.856,20.953 16.746,20.840 16.705 C 20.741 16.669,19.409 16.433,17.881 16.179 C 15.797 15.833,15.057 15.724,14.921 15.744 C 14.674 15.779,14.301 15.982,14.163 16.157 C 14.101 16.235,13.832 16.736,13.565 17.270 C 13.298 17.804,13.071 18.240,13.061 18.240 C 12.994 18.240,12.135 17.834,11.701 17.598 C 9.163 16.214,7.074 13.953,5.941 11.363 C 5.842 11.135,5.760 10.942,5.760 10.934 C 5.760 10.927,6.210 10.695,6.760 10.420 C 7.827 9.886,7.991 9.770,8.148 9.437 C 8.315 9.081,8.316 9.085,7.822 6.120 C 7.568 4.591,7.330 3.260,7.294 3.162 C 7.208 2.932,6.955 2.660,6.702 2.526 L 6.500 2.420 4.960 2.410 C 3.578 2.402,3.399 2.408,3.219 2.471 M14.013 3.672 C 13.333 3.915,13.025 4.643,13.320 5.310 C 13.383 5.452,13.619 5.716,14.251 6.350 L 15.097 7.199 14.234 8.070 C 13.262 9.051,13.219 9.117,13.221 9.620 C 13.225 10.288,13.716 10.780,14.380 10.780 C 14.884 10.780,14.951 10.736,15.930 9.766 L 16.800 8.904 17.670 9.766 C 18.649 10.736,18.716 10.780,19.220 10.780 C 19.884 10.780,20.375 10.288,20.379 9.620 C 20.381 9.117,20.338 9.051,19.366 8.070 L 18.504 7.200 19.366 6.330 C 20.336 5.351,20.380 5.284,20.380 4.780 C 20.380 3.917,19.498 3.363,18.693 3.719 C 18.548 3.783,18.291 4.013,17.650 4.651 L 16.801 5.497 15.947 4.649 C 15.014 3.722,14.900 3.642,14.462 3.614 C 14.294 3.603,14.157 3.620,14.013 3.672 " fill="#1E1E1E" stroke="none" fill-rule="evenodd"></path></svg>