<svg width="24" height="24" viewBox="0 0 24 24" fill="none" xmlns="http://www.w3.org/2000/svg"><path d="M17.480 3.662 C 16.950 3.777,16.683 3.951,15.989 4.635 L 15.357 5.257 17.049 6.950 L 18.740 8.642 19.362 8.011 C 20.048 7.315,20.185 7.110,20.321 6.576 C 20.421 6.184,20.421 5.816,20.321 5.424 C 20.206 4.974,20.028 4.665,19.681 4.316 C 19.091 3.721,18.298 3.486,17.480 3.662 M8.630 11.990 L 3.600 17.020 3.600 18.710 L 3.600 20.400 5.290 20.400 L 6.980 20.400 12.010 15.370 L 17.040 10.340 15.350 8.650 L 13.660 6.960 8.630 11.990 " fill="#1E1E1E" stroke="none" fill-rule="evenodd"></path></svg>