<svg width="24" height="24" viewBox="0 0 24 24" fill="none" xmlns="http://www.w3.org/2000/svg"><path d="M11.480 2.462 C 11.043 2.557,10.660 2.772,10.319 3.116 C 9.972 3.465,9.794 3.774,9.679 4.224 C 9.535 4.788,9.610 5.402,9.888 5.933 C 10.058 6.257,10.543 6.742,10.867 6.912 C 11.186 7.079,11.661 7.200,12.000 7.200 C 12.339 7.200,12.814 7.079,13.133 6.912 C 13.457 6.742,13.942 6.257,14.112 5.933 C 14.390 5.402,14.465 4.788,14.321 4.224 C 14.206 3.774,14.028 3.465,13.681 3.116 C 13.091 2.521,12.298 2.286,11.480 2.462 M11.480 9.662 C 10.419 9.891,9.601 10.908,9.601 12.000 C 9.601 13.104,10.421 14.113,11.500 14.340 C 12.314 14.511,13.089 14.278,13.684 13.684 C 14.638 12.729,14.637 11.263,13.681 10.316 C 13.079 9.718,12.297 9.486,11.480 9.662 M11.480 16.862 C 10.419 17.091,9.601 18.108,9.601 19.200 C 9.601 20.494,10.706 21.599,12.000 21.599 C 13.104 21.599,14.113 20.779,14.340 19.700 C 14.511 18.883,14.277 18.107,13.681 17.516 C 13.079 16.918,12.297 16.686,11.480 16.862 " fill="#1E1E1E" stroke="none" fill-rule="evenodd"></path></svg>