<svg width="24" height="24" viewBox="0 0 24 24" fill="none" xmlns="http://www.w3.org/2000/svg"><path d="M11.320 2.423 C 11.243 2.432,11.013 2.459,10.808 2.483 C 8.508 2.751,6.197 3.988,4.729 5.739 C 3.496 7.208,2.782 8.773,2.493 10.640 C 2.394 11.282,2.394 12.718,2.493 13.360 C 3.154 17.630,6.370 20.846,10.640 21.507 C 11.282 21.606,12.718 21.606,13.360 21.507 C 15.173 21.226,16.839 20.473,18.220 19.308 C 19.737 18.029,20.852 16.214,21.333 14.240 C 21.526 13.450,21.578 12.972,21.578 12.000 C 21.578 11.336,21.560 10.979,21.507 10.640 C 21.039 7.618,19.289 5.083,16.658 3.615 C 15.639 3.046,14.573 2.686,13.360 2.501 C 12.960 2.440,11.616 2.389,11.320 2.423 M12.537 7.337 C 12.785 7.458,12.974 7.655,13.096 7.918 C 13.178 8.095,13.180 8.158,13.191 10.397 L 13.203 12.693 14.071 11.833 C 15.050 10.862,15.117 10.819,15.620 10.821 C 16.094 10.824,16.462 11.052,16.668 11.473 C 16.760 11.660,16.780 11.753,16.780 12.000 C 16.780 12.532,16.812 12.492,14.612 14.685 C 12.780 16.511,12.646 16.636,12.428 16.715 C 12.301 16.762,12.108 16.800,12.000 16.800 C 11.892 16.800,11.699 16.762,11.572 16.715 C 11.354 16.636,11.220 16.511,9.388 14.685 C 7.187 12.491,7.219 12.531,7.221 12.000 C 7.223 11.313,7.707 10.820,8.380 10.820 C 8.884 10.820,8.951 10.864,9.930 11.834 L 10.800 12.696 10.800 10.475 C 10.800 8.044,10.803 8.014,11.036 7.692 C 11.372 7.228,12.007 7.078,12.537 7.337 " fill="#1E1E1E" stroke="none" fill-rule="evenodd"></path></svg>