<svg width="24" height="24" viewBox="0 0 24 24" fill="none" xmlns="http://www.w3.org/2000/svg"><path d="M4.280 4.862 C 3.843 4.957,3.460 5.172,3.119 5.516 C 2.772 5.865,2.594 6.174,2.479 6.624 C 2.402 6.924,2.400 7.085,2.400 12.000 C 2.400 16.915,2.402 17.076,2.479 17.376 C 2.595 17.828,2.772 18.135,3.119 18.481 C 3.465 18.828,3.772 19.005,4.224 19.121 C 4.526 19.198,4.695 19.200,12.000 19.200 C 19.305 19.200,19.474 19.198,19.776 19.121 C 20.228 19.005,20.535 18.828,20.881 18.481 C 21.228 18.135,21.405 17.828,21.521 17.376 C 21.597 17.079,21.600 16.920,21.600 13.200 C 21.600 9.480,21.597 9.321,21.521 9.024 C 21.406 8.574,21.228 8.265,20.881 7.916 C 20.660 7.693,20.500 7.574,20.280 7.466 C 19.736 7.199,19.767 7.201,16.320 7.201 L 13.219 7.200 12.020 6.000 L 10.821 4.800 7.680 4.803 C 5.147 4.806,4.490 4.817,4.280 4.862 M12.537 9.737 C 12.785 9.858,12.974 10.055,13.096 10.318 C 13.170 10.478,13.182 10.589,13.193 11.247 L 13.206 11.994 13.953 12.007 C 14.781 12.021,14.910 12.053,15.210 12.317 C 15.582 12.643,15.695 13.266,15.468 13.729 C 15.333 14.004,15.103 14.211,14.812 14.320 C 14.627 14.389,14.500 14.400,13.902 14.400 L 13.206 14.400 13.193 15.150 C 13.180 15.878,13.177 15.907,13.068 16.129 C 12.933 16.404,12.703 16.611,12.412 16.720 C 11.842 16.933,11.202 16.677,10.932 16.129 C 10.823 15.907,10.820 15.878,10.807 15.150 L 10.794 14.400 10.098 14.400 C 9.308 14.400,9.106 14.353,8.809 14.099 C 8.421 13.766,8.300 13.145,8.532 12.673 C 8.658 12.415,8.852 12.227,9.118 12.104 C 9.278 12.030,9.389 12.018,10.050 12.007 L 10.800 11.994 10.800 11.324 C 10.800 10.578,10.842 10.360,11.036 10.092 C 11.372 9.628,12.007 9.478,12.537 9.737 " fill="#1E1E1E" stroke="none" fill-rule="evenodd"></path></svg>