<svg width="24" height="24" viewBox="0 0 24 24" fill="none" xmlns="http://www.w3.org/2000/svg"><path d="M11.320 2.423 C 11.243 2.432,11.013 2.459,10.808 2.483 C 8.524 2.749,6.256 3.956,4.763 5.698 C 3.528 7.140,2.784 8.759,2.493 10.640 C 2.394 11.282,2.394 12.718,2.493 13.360 C 3.154 17.630,6.370 20.846,10.640 21.507 C 11.282 21.606,12.718 21.606,13.360 21.507 C 15.173 21.226,16.839 20.473,18.220 19.308 C 19.737 18.029,20.852 16.214,21.333 14.240 C 21.526 13.450,21.578 12.972,21.578 12.000 C 21.578 11.336,21.560 10.979,21.507 10.640 C 21.039 7.618,19.289 5.083,16.658 3.615 C 15.639 3.046,14.573 2.686,13.360 2.501 C 12.960 2.440,11.616 2.389,11.320 2.423 M12.900 6.119 C 14.148 6.440,15.144 7.434,15.485 8.700 C 15.598 9.120,15.609 10.001,15.507 10.413 C 15.237 11.505,14.520 12.382,13.503 12.865 L 13.211 13.004 13.190 13.262 C 13.150 13.760,12.862 14.151,12.412 14.320 C 11.842 14.533,11.202 14.277,10.932 13.729 L 10.820 13.500 10.820 12.600 C 10.820 11.769,10.826 11.686,10.904 11.518 C 11.105 11.084,11.450 10.858,11.994 10.803 C 12.569 10.745,12.944 10.481,13.120 10.012 C 13.459 9.105,12.604 8.184,11.674 8.454 C 11.378 8.540,11.158 8.708,10.960 9.000 C 10.869 9.134,10.721 9.297,10.630 9.363 C 10.019 9.806,9.134 9.574,8.832 8.892 C 8.647 8.474,8.702 8.081,9.010 7.608 C 9.547 6.786,10.465 6.199,11.462 6.042 C 11.817 5.986,12.530 6.024,12.900 6.119 M12.537 15.737 C 12.955 15.941,13.178 16.310,13.179 16.800 C 13.180 17.049,13.161 17.139,13.068 17.329 C 12.933 17.604,12.703 17.811,12.412 17.920 C 11.530 18.250,10.619 17.443,10.838 16.527 C 11.019 15.774,11.836 15.394,12.537 15.737 " fill="#1E1E1E" stroke="none" fill-rule="evenodd"></path></svg>