<svg width="24" height="24" viewBox="0 0 24 24" fill="none" xmlns="http://www.w3.org/2000/svg"><path d="M6.813 2.472 C 6.440 2.605,6.196 2.853,6.062 3.235 C 6.015 3.367,6.000 3.582,6.000 4.105 L 6.000 4.800 5.290 4.801 C 4.459 4.802,4.155 4.853,3.720 5.066 C 3.500 5.174,3.340 5.293,3.119 5.516 C 2.772 5.865,2.594 6.174,2.479 6.624 C 2.402 6.925,2.400 7.090,2.400 13.200 C 2.400 19.310,2.402 19.475,2.479 19.776 C 2.595 20.228,2.772 20.535,3.119 20.881 C 3.465 21.228,3.772 21.405,4.224 21.521 C 4.526 21.598,4.695 21.600,12.000 21.600 C 19.305 21.600,19.474 21.598,19.776 21.521 C 20.228 21.405,20.535 21.228,20.881 20.881 C 21.228 20.535,21.405 20.228,21.521 19.776 C 21.598 19.475,21.600 19.310,21.600 13.200 C 21.600 7.090,21.598 6.925,21.521 6.624 C 21.406 6.174,21.228 5.865,20.881 5.516 C 20.660 5.293,20.500 5.174,20.280 5.066 C 19.845 4.853,19.541 4.802,18.710 4.801 L 18.000 4.800 18.000 4.102 C 18.000 3.307,17.953 3.107,17.699 2.809 C 17.366 2.420,16.745 2.300,16.271 2.532 C 15.996 2.667,15.789 2.897,15.680 3.188 C 15.611 3.373,15.600 3.500,15.600 4.102 L 15.600 4.800 12.000 4.800 L 8.400 4.800 8.400 4.102 C 8.400 3.307,8.353 3.107,8.099 2.809 C 7.804 2.465,7.243 2.318,6.813 2.472 M17.327 8.532 C 17.756 8.742,17.978 9.106,17.979 9.600 C 17.980 9.849,17.961 9.939,17.868 10.129 C 17.733 10.404,17.503 10.611,17.212 10.720 C 17.001 10.799,16.906 10.800,12.000 10.800 C 7.094 10.800,6.999 10.799,6.788 10.720 C 6.071 10.451,5.787 9.597,6.199 8.948 C 6.340 8.726,6.547 8.566,6.813 8.474 C 7.008 8.406,7.303 8.402,12.060 8.411 L 17.100 8.420 17.327 8.532 " fill="#1E1E1E" stroke="none" fill-rule="evenodd"></path></svg>