<svg width="24" height="24" viewBox="0 0 24 24" fill="none" xmlns="http://www.w3.org/2000/svg"><path d="M11.320 2.423 C 11.243 2.432,11.013 2.459,10.808 2.483 C 8.508 2.751,6.197 3.988,4.729 5.739 C 3.496 7.208,2.782 8.773,2.493 10.640 C 2.394 11.282,2.394 12.718,2.493 13.360 C 3.154 17.630,6.370 20.846,10.640 21.507 C 11.282 21.606,12.718 21.606,13.360 21.507 C 15.173 21.226,16.839 20.473,18.220 19.308 C 19.737 18.029,20.852 16.214,21.333 14.240 C 21.526 13.450,21.578 12.972,21.578 12.000 C 21.578 11.336,21.560 10.979,21.507 10.640 C 21.039 7.618,19.289 5.083,16.658 3.615 C 15.639 3.046,14.573 2.686,13.360 2.501 C 12.960 2.440,11.616 2.389,11.320 2.423 M7.726 6.653 C 8.084 7.010,8.509 7.197,8.968 7.199 C 9.642 7.203,10.273 7.577,10.572 8.152 C 10.755 8.505,10.800 8.740,10.800 9.356 C 10.800 10.244,10.989 10.752,11.519 11.281 C 11.865 11.628,12.172 11.805,12.624 11.921 C 13.188 12.065,13.802 11.990,14.333 11.712 C 14.657 11.542,15.142 11.057,15.312 10.733 C 15.475 10.423,15.600 9.942,15.601 9.624 C 15.604 8.609,16.285 7.644,17.217 7.335 L 17.416 7.268 17.569 7.444 C 18.025 7.968,18.596 9.007,18.838 9.753 C 19.161 10.746,19.265 11.874,19.135 12.980 L 19.109 13.200 18.444 13.201 C 17.662 13.202,17.349 13.256,16.920 13.466 C 16.546 13.649,16.079 14.102,15.888 14.467 C 15.624 14.971,15.600 15.163,15.600 16.783 L 15.600 18.233 15.410 18.340 C 14.602 18.795,13.441 19.124,12.430 19.186 L 12.000 19.212 12.000 17.872 C 12.000 16.669,11.992 16.501,11.921 16.224 C 11.806 15.774,11.628 15.465,11.281 15.116 C 10.818 14.649,10.230 14.403,9.576 14.401 C 9.258 14.400,8.777 14.275,8.467 14.112 C 8.102 13.921,7.649 13.454,7.466 13.080 C 7.299 12.740,7.202 12.334,7.201 11.976 C 7.198 10.971,6.473 10.006,5.500 9.713 C 5.346 9.667,5.216 9.625,5.210 9.621 C 5.191 9.606,5.408 9.102,5.588 8.742 C 5.959 8.003,6.476 7.314,7.093 6.739 C 7.292 6.552,7.460 6.400,7.464 6.400 C 7.469 6.400,7.587 6.514,7.726 6.653 " fill="#1E1E1E" stroke="none" fill-rule="evenodd"></path></svg>