<svg width="24" height="24" viewBox="0 0 24 24" fill="none" xmlns="http://www.w3.org/2000/svg"><path d="M11.133 2.441 C 7.268 2.817,4.052 5.394,2.866 9.067 C 2.541 10.071,2.423 10.856,2.423 12.000 C 2.423 13.144,2.541 13.929,2.866 14.933 C 3.821 17.890,6.110 20.179,9.067 21.134 C 10.070 21.458,10.853 21.576,12.000 21.576 C 13.147 21.576,13.930 21.458,14.933 21.134 C 17.890 20.179,20.179 17.890,21.134 14.933 C 21.459 13.926,21.578 13.143,21.577 12.000 C 21.576 10.851,21.457 10.068,21.134 9.067 C 20.002 5.564,17.021 3.046,13.360 2.501 C 12.848 2.425,11.634 2.392,11.133 2.441 M12.426 4.886 C 12.854 5.046,13.200 5.525,13.200 5.958 C 13.200 6.113,13.200 6.113,13.410 6.158 C 14.299 6.345,15.152 6.782,15.784 7.371 C 16.174 7.736,16.300 7.987,16.300 8.400 C 16.300 8.889,16.077 9.251,15.629 9.489 C 15.492 9.562,15.395 9.579,15.120 9.579 C 14.705 9.579,14.544 9.506,14.159 9.144 C 13.924 8.923,13.383 8.600,13.247 8.600 C 13.212 8.600,13.200 8.896,13.200 9.751 L 13.200 10.901 13.570 10.996 C 15.114 11.389,16.221 12.292,16.654 13.511 C 16.769 13.836,16.778 13.897,16.778 14.400 C 16.777 14.885,16.766 14.972,16.666 15.260 C 16.479 15.800,16.263 16.136,15.819 16.580 C 15.231 17.167,14.511 17.563,13.610 17.794 L 13.200 17.900 13.200 18.048 C 13.200 18.258,13.063 18.599,12.904 18.784 C 12.830 18.871,12.672 18.996,12.554 19.061 C 12.364 19.167,12.302 19.180,12.000 19.180 C 11.698 19.180,11.636 19.167,11.446 19.061 C 11.328 18.996,11.170 18.871,11.096 18.784 C 10.936 18.597,10.800 18.258,10.800 18.045 L 10.800 17.893 10.570 17.842 C 9.617 17.631,8.670 17.120,8.088 16.505 C 7.795 16.195,7.702 15.977,7.701 15.600 C 7.700 15.351,7.719 15.261,7.812 15.071 C 7.947 14.796,8.177 14.589,8.468 14.480 C 8.942 14.303,9.349 14.412,9.824 14.843 C 10.098 15.093,10.612 15.400,10.754 15.400 C 10.788 15.400,10.800 15.087,10.800 14.250 L 10.800 13.100 10.390 12.994 C 9.506 12.767,8.774 12.368,8.198 11.800 C 7.759 11.367,7.500 10.967,7.331 10.460 C 7.237 10.177,7.225 10.078,7.225 9.600 C 7.225 9.122,7.237 9.023,7.331 8.740 C 7.734 7.533,8.882 6.590,10.430 6.196 L 10.800 6.101 10.800 5.952 C 10.800 5.702,10.953 5.364,11.158 5.158 C 11.497 4.819,11.974 4.717,12.426 4.886 M10.400 8.747 C 10.207 8.841,10.021 8.973,9.875 9.118 C 9.511 9.483,9.511 9.717,9.876 10.082 C 10.081 10.287,10.612 10.600,10.754 10.600 C 10.787 10.600,10.800 10.324,10.800 9.600 C 10.800 8.826,10.789 8.600,10.750 8.601 C 10.723 8.601,10.565 8.667,10.400 8.747 M13.200 14.397 C 13.200 15.124,13.213 15.400,13.246 15.400 C 13.352 15.400,13.877 15.112,14.053 14.958 C 14.251 14.784,14.400 14.544,14.400 14.400 C 14.400 14.257,14.251 14.016,14.055 13.844 C 13.881 13.691,13.500 13.480,13.290 13.420 L 13.200 13.395 13.200 14.397 " fill="#1E1E1E" stroke="none" fill-rule="evenodd"></path></svg>