<svg width="24" height="24" viewBox="0 0 24 24" fill="none" xmlns="http://www.w3.org/2000/svg"><path d="M10.408 3.673 C 10.292 3.715,10.130 3.803,10.048 3.868 C 9.761 4.100,9.698 4.258,9.356 5.624 C 9.180 6.326,9.018 6.967,8.997 7.048 L 8.958 7.197 7.329 7.208 L 5.700 7.220 5.471 7.332 C 4.738 7.693,4.579 8.662,5.158 9.242 C 5.279 9.363,5.425 9.459,5.574 9.514 C 5.791 9.595,5.872 9.600,7.084 9.600 C 8.286 9.600,8.364 9.604,8.344 9.670 C 8.333 9.708,8.079 10.721,7.780 11.920 C 7.481 13.119,7.219 14.167,7.197 14.249 L 7.158 14.397 5.229 14.409 L 3.300 14.420 3.071 14.532 C 2.338 14.893,2.179 15.862,2.758 16.442 C 2.879 16.563,3.025 16.659,3.174 16.714 C 3.394 16.797,3.466 16.800,4.984 16.800 C 6.471 16.800,6.564 16.804,6.544 16.870 C 6.406 17.331,6.000 19.081,6.000 19.217 C 6.000 19.634,6.279 20.075,6.661 20.262 C 7.260 20.555,7.978 20.324,8.256 19.749 C 8.311 19.634,8.493 18.991,8.660 18.320 C 8.827 17.649,8.982 17.032,9.003 16.950 L 9.043 16.800 10.804 16.800 C 12.463 16.800,12.564 16.804,12.544 16.870 C 12.406 17.331,12.000 19.081,12.000 19.217 C 12.000 19.634,12.279 20.075,12.661 20.262 C 13.260 20.555,13.978 20.324,14.256 19.749 C 14.311 19.634,14.493 18.991,14.660 18.320 C 14.827 17.649,14.982 17.032,15.003 16.950 L 15.043 16.800 16.620 16.800 C 18.134 16.800,18.206 16.797,18.426 16.714 C 18.575 16.659,18.721 16.563,18.842 16.442 C 19.421 15.862,19.262 14.893,18.529 14.532 L 18.300 14.420 16.968 14.408 C 15.736 14.397,15.637 14.391,15.656 14.328 C 15.668 14.291,15.921 13.279,16.220 12.080 C 16.519 10.881,16.782 9.832,16.803 9.750 L 16.843 9.600 18.720 9.600 C 20.541 9.600,20.604 9.597,20.826 9.514 C 20.975 9.459,21.121 9.363,21.242 9.242 C 21.821 8.662,21.662 7.693,20.929 7.332 L 20.700 7.220 19.068 7.208 C 17.550 7.197,17.437 7.192,17.457 7.128 C 17.583 6.715,18.000 4.910,18.000 4.777 C 18.000 4.681,17.964 4.506,17.920 4.388 C 17.639 3.638,16.708 3.368,16.074 3.852 C 15.763 4.088,15.705 4.234,15.356 5.624 C 15.180 6.326,15.018 6.968,14.996 7.050 L 14.957 7.200 13.196 7.200 C 11.537 7.200,11.436 7.196,11.456 7.130 C 11.582 6.717,12.000 4.910,12.000 4.777 C 12.000 3.995,11.153 3.407,10.408 3.673 M14.344 9.670 C 14.333 9.709,14.079 10.721,13.780 11.920 C 13.481 13.119,13.218 14.168,13.197 14.250 L 13.157 14.400 11.396 14.400 C 9.737 14.400,9.636 14.396,9.656 14.330 C 9.667 14.292,9.921 13.279,10.220 12.080 C 10.519 10.881,10.782 9.832,10.803 9.750 L 10.843 9.600 12.604 9.600 C 14.263 9.600,14.364 9.604,14.344 9.670 " fill="#1E1E1E" stroke="none" fill-rule="evenodd"></path></svg>