<svg width="24" height="24" viewBox="0 0 24 24" fill="none" xmlns="http://www.w3.org/2000/svg"><path d="M11.320 2.423 C 11.243 2.432,11.013 2.459,10.808 2.483 C 8.508 2.751,6.197 3.988,4.729 5.739 C 3.496 7.208,2.782 8.773,2.493 10.640 C 2.394 11.282,2.394 12.718,2.493 13.360 C 3.154 17.630,6.370 20.846,10.640 21.507 C 11.282 21.606,12.718 21.606,13.360 21.507 C 15.173 21.226,16.839 20.473,18.220 19.308 C 19.737 18.029,20.852 16.214,21.333 14.240 C 21.526 13.450,21.578 12.972,21.578 12.000 C 21.578 11.336,21.560 10.979,21.507 10.640 C 21.039 7.618,19.289 5.083,16.658 3.615 C 15.639 3.046,14.573 2.686,13.360 2.501 C 12.960 2.440,11.616 2.389,11.320 2.423 M8.937 8.537 C 9.355 8.741,9.578 9.110,9.579 9.600 C 9.580 9.849,9.561 9.939,9.468 10.129 C 9.333 10.404,9.103 10.611,8.812 10.720 C 7.930 11.050,7.019 10.243,7.238 9.327 C 7.419 8.574,8.236 8.194,8.937 8.537 M16.137 8.537 C 16.555 8.741,16.778 9.110,16.779 9.600 C 16.780 9.849,16.761 9.939,16.668 10.129 C 16.533 10.404,16.303 10.611,16.012 10.720 C 15.130 11.050,14.219 10.243,14.438 9.327 C 14.619 8.574,15.436 8.194,16.137 8.537 M9.120 14.319 C 9.219 14.370,9.417 14.513,9.560 14.638 C 10.042 15.060,10.449 15.290,11.028 15.467 C 11.345 15.563,11.441 15.574,12.000 15.574 C 12.559 15.574,12.655 15.563,12.972 15.467 C 13.551 15.290,13.958 15.060,14.440 14.638 C 14.841 14.288,14.994 14.221,15.400 14.221 C 15.773 14.221,15.946 14.285,16.217 14.523 C 16.580 14.841,16.692 15.475,16.464 15.916 C 16.216 16.396,15.293 17.105,14.409 17.494 C 14.032 17.659,13.557 17.807,13.080 17.908 C 12.601 18.008,11.399 18.008,10.920 17.908 C 9.692 17.650,8.656 17.116,7.858 16.333 C 7.478 15.960,7.347 15.588,7.439 15.145 C 7.522 14.747,7.871 14.360,8.255 14.241 C 8.467 14.176,8.918 14.216,9.120 14.319 " fill="#1E1E1E" stroke="none" fill-rule="evenodd"></path></svg>