<svg width="24" height="24" viewBox="0 0 24 24" fill="none" xmlns="http://www.w3.org/2000/svg"><path d="M18.680 2.462 C 18.537 2.493,18.285 2.584,18.120 2.664 C 17.829 2.805,17.685 2.944,13.110 7.514 L 8.400 12.219 8.400 13.910 L 8.400 15.600 10.090 15.600 L 11.781 15.600 16.483 10.890 C 21.634 5.731,21.351 6.041,21.521 5.376 C 21.621 4.984,21.621 4.616,21.521 4.224 C 21.406 3.774,21.228 3.465,20.881 3.116 C 20.291 2.521,19.498 2.286,18.680 2.462 M4.280 4.862 C 3.399 5.052,2.647 5.812,2.460 6.700 C 2.372 7.120,2.372 19.280,2.460 19.700 C 2.649 20.600,3.400 21.351,4.300 21.540 C 4.720 21.628,16.880 21.628,17.300 21.540 C 18.206 21.350,18.953 20.598,19.142 19.687 C 19.193 19.440,19.200 18.986,19.191 16.747 L 19.180 14.100 19.066 13.868 C 18.876 13.481,18.428 13.200,18.000 13.200 C 17.572 13.200,17.124 13.481,16.934 13.868 L 16.820 14.100 16.809 16.650 L 16.798 19.200 10.799 19.200 L 4.800 19.200 4.800 13.201 L 4.800 7.202 7.350 7.191 C 9.846 7.180,9.904 7.178,10.082 7.096 C 10.182 7.049,10.330 6.954,10.410 6.883 C 10.783 6.556,10.895 5.935,10.666 5.468 C 10.528 5.187,10.247 4.949,9.950 4.861 C 9.659 4.774,4.681 4.776,4.280 4.862 " fill="#1E1E1E" stroke="none" fill-rule="evenodd"></path></svg>