<svg width="24" height="24" viewBox="0 0 24 24" fill="none" xmlns="http://www.w3.org/2000/svg"><path d="M11.200 2.458 C 10.483 2.561,9.933 2.732,9.320 3.040 C 7.901 3.753,6.815 4.996,6.321 6.472 C 6.045 7.296,6.030 7.420,6.011 9.190 L 5.993 10.800 5.887 10.801 C 5.657 10.802,5.206 10.926,4.920 11.066 C 4.700 11.174,4.540 11.293,4.319 11.516 C 3.972 11.865,3.794 12.174,3.679 12.624 C 3.603 12.919,3.600 13.077,3.600 16.200 C 3.600 19.323,3.603 19.481,3.679 19.776 C 3.795 20.228,3.972 20.535,4.319 20.881 C 4.665 21.228,4.972 21.405,5.424 21.521 C 5.725 21.598,5.890 21.600,12.000 21.600 C 18.110 21.600,18.275 21.598,18.576 21.521 C 19.028 21.405,19.335 21.228,19.681 20.881 C 20.028 20.535,20.205 20.228,20.321 19.776 C 20.397 19.481,20.400 19.323,20.400 16.200 C 20.400 13.077,20.397 12.919,20.321 12.624 C 20.206 12.174,20.028 11.865,19.681 11.516 C 19.460 11.293,19.300 11.174,19.080 11.066 C 18.794 10.926,18.343 10.802,18.113 10.801 L 18.006 10.800 17.990 9.210 C 17.973 7.461,17.953 7.290,17.680 6.473 C 16.994 4.426,15.188 2.878,13.041 2.497 C 12.552 2.410,11.660 2.391,11.200 2.458 M12.900 4.919 C 14.148 5.239,15.138 6.227,15.486 7.500 C 15.567 7.796,15.575 7.930,15.590 9.310 L 15.607 10.800 12.000 10.800 L 8.394 10.800 8.410 9.310 C 8.424 7.926,8.431 7.797,8.513 7.500 C 8.899 6.096,10.046 5.062,11.460 4.842 C 11.818 4.786,12.530 4.824,12.900 4.919 " fill="#1E1E1E" stroke="none" fill-rule="evenodd"></path></svg>