<svg width="24" height="24" viewBox="0 0 24 24" fill="none" xmlns="http://www.w3.org/2000/svg"><path d="M11.320 2.423 C 11.243 2.432,11.013 2.459,10.808 2.483 C 8.524 2.749,6.256 3.956,4.763 5.698 C 3.528 7.140,2.784 8.759,2.493 10.640 C 2.394 11.282,2.394 12.718,2.493 13.360 C 3.154 17.630,6.370 20.846,10.640 21.507 C 11.282 21.606,12.718 21.606,13.360 21.507 C 15.173 21.226,16.839 20.473,18.220 19.308 C 19.737 18.029,20.852 16.214,21.333 14.240 C 21.526 13.450,21.578 12.972,21.578 12.000 C 21.578 11.336,21.560 10.979,21.507 10.640 C 21.039 7.618,19.289 5.083,16.658 3.615 C 15.639 3.046,14.573 2.686,13.360 2.501 C 12.960 2.440,11.616 2.389,11.320 2.423 M12.537 7.337 C 12.785 7.458,12.974 7.655,13.096 7.918 C 13.175 8.090,13.181 8.176,13.192 9.448 L 13.204 10.796 14.552 10.808 C 15.824 10.819,15.910 10.825,16.082 10.904 C 16.182 10.951,16.330 11.046,16.410 11.117 C 16.782 11.443,16.895 12.066,16.668 12.529 C 16.533 12.804,16.303 13.011,16.012 13.120 C 15.813 13.194,15.701 13.200,14.500 13.200 L 13.204 13.200 13.192 14.550 L 13.180 15.900 13.068 16.129 C 12.933 16.404,12.703 16.611,12.412 16.720 C 11.842 16.933,11.202 16.677,10.932 16.129 L 10.820 15.900 10.808 14.550 L 10.796 13.200 9.500 13.200 C 8.299 13.200,8.187 13.194,7.988 13.120 C 7.697 13.011,7.467 12.804,7.332 12.529 C 7.239 12.339,7.220 12.249,7.221 12.000 C 7.222 11.506,7.444 11.142,7.873 10.932 L 8.100 10.820 9.450 10.808 L 10.800 10.796 10.800 9.525 C 10.800 8.130,10.818 7.993,11.036 7.692 C 11.372 7.228,12.007 7.078,12.537 7.337 " fill="#1E1E1E" stroke="none" fill-rule="evenodd"></path></svg>