<svg width="24" height="24" viewBox="0 0 24 24" fill="none" xmlns="http://www.w3.org/2000/svg"><path d="M12.813 3.672 C 12.160 3.905,11.846 4.576,12.085 5.228 C 12.165 5.448,12.309 5.600,14.834 8.130 L 17.498 10.799 10.399 10.810 L 3.300 10.820 3.071 10.932 C 2.338 11.293,2.179 12.262,2.758 12.842 C 2.879 12.963,3.025 13.059,3.174 13.114 L 3.403 13.200 10.451 13.200 L 17.499 13.200 14.834 15.870 C 12.309 18.400,12.165 18.552,12.085 18.772 C 11.711 19.793,12.753 20.747,13.722 20.270 C 13.903 20.181,14.568 19.533,17.685 16.411 C 21.260 12.831,21.435 12.649,21.515 12.428 C 21.562 12.301,21.600 12.108,21.600 12.000 C 21.600 11.892,21.562 11.699,21.515 11.572 C 21.435 11.351,21.260 11.169,17.685 7.589 C 14.639 4.538,13.901 3.818,13.730 3.734 C 13.450 3.596,13.093 3.572,12.813 3.672 " fill="#1E1E1E" stroke="none" fill-rule="evenodd"></path></svg>