<svg width="56" height="56" viewBox="0 0 56 56" fill="none" xmlns="http://www.w3.org/2000/svg"><path d="M16.889 9.283 C 15.992 9.750,15.424 10.708,15.525 11.581 C 15.595 12.190,16.364 14.055,16.530 14.018 C 16.601 14.002,16.325 14.327,15.916 14.741 C 15.506 15.155,15.170 15.493,15.169 15.493 C 15.168 15.493,15.164 15.230,15.160 14.909 C 15.153 14.223,15.015 13.924,14.190 12.802 L 13.617 12.025 13.365 12.184 C 12.329 12.842,11.857 14.091,12.271 15.082 C 12.416 15.428,13.363 16.817,13.652 17.105 C 13.815 17.268,13.814 17.283,13.642 17.527 C 13.543 17.666,13.316 18.045,13.137 18.368 L 12.812 18.956 12.764 18.591 C 12.675 17.930,12.411 17.552,11.441 16.697 L 10.500 15.868 10.204 16.201 C 9.242 17.284,9.293 18.606,10.338 19.609 C 11.004 20.250,11.595 20.764,11.790 20.873 C 11.923 20.947,11.908 21.055,11.651 21.860 L 11.364 22.764 11.135 22.304 C 11.009 22.051,10.786 21.744,10.641 21.622 C 10.368 21.392,8.579 20.440,8.421 20.440 C 8.256 20.440,7.840 21.523,7.840 21.952 C 7.840 22.497,8.061 23.125,8.394 23.530 C 8.711 23.914,10.660 24.968,10.890 24.880 C 11.012 24.833,11.027 24.874,10.979 25.117 C 10.946 25.278,10.920 25.741,10.920 26.145 L 10.920 26.881 10.576 26.500 C 10.117 25.991,9.737 25.813,8.512 25.531 C 7.945 25.400,7.461 25.293,7.438 25.293 C 7.365 25.293,7.187 26.108,7.187 26.443 C 7.187 27.217,7.749 28.130,8.425 28.455 C 8.878 28.672,10.803 29.146,10.926 29.070 C 10.971 29.042,11.028 29.115,11.053 29.233 C 11.152 29.694,11.387 30.916,11.387 30.967 C 11.387 30.997,11.271 30.911,11.130 30.776 C 10.664 30.330,10.294 30.240,8.916 30.240 L 7.653 30.240 7.653 30.742 C 7.653 31.415,7.869 31.985,8.287 32.418 C 8.943 33.095,9.501 33.241,11.083 33.148 C 11.661 33.114,12.133 33.122,12.133 33.166 C 12.133 33.210,12.301 33.603,12.505 34.039 C 12.790 34.647,12.839 34.816,12.715 34.763 C 12.184 34.538,11.863 34.448,11.580 34.444 C 11.174 34.439,9.053 34.996,9.053 35.108 C 9.053 35.337,9.439 36.241,9.660 36.532 C 10.009 36.989,10.774 37.348,11.403 37.350 C 11.676 37.351,12.373 37.221,12.952 37.062 C 13.530 36.903,14.017 36.773,14.033 36.773 C 14.061 36.773,14.821 37.706,15.107 38.093 C 15.227 38.254,15.217 38.258,14.938 38.161 C 14.407 37.976,13.760 38.140,12.623 38.746 C 12.046 39.054,11.573 39.337,11.573 39.375 C 11.573 39.543,12.138 40.310,12.452 40.569 C 12.868 40.912,13.352 41.069,13.964 41.060 C 14.510 41.051,14.719 40.974,15.846 40.367 C 16.546 39.990,16.704 39.866,16.668 39.723 C 16.634 39.586,16.690 39.610,16.922 39.829 C 17.086 39.984,17.487 40.305,17.814 40.542 L 18.407 40.973 17.954 40.975 C 17.308 40.978,16.873 41.214,15.894 42.090 L 15.036 42.860 15.230 43.123 C 15.540 43.541,16.180 43.949,16.704 44.061 C 17.252 44.179,17.707 44.118,18.215 43.859 C 18.627 43.649,20.118 42.281,20.102 42.128 C 20.096 42.069,20.343 42.137,20.662 42.281 C 20.976 42.423,21.401 42.610,21.607 42.695 L 21.980 42.851 21.487 43.019 C 20.850 43.236,20.646 43.434,19.867 44.589 L 19.224 45.545 19.669 45.825 C 19.913 45.980,20.281 46.153,20.487 46.210 C 21.246 46.421,22.166 46.143,22.738 45.532 C 23.119 45.123,24.018 43.772,24.018 43.607 C 24.018 43.517,24.092 43.493,24.259 43.527 C 24.392 43.555,24.826 43.628,25.223 43.691 C 25.621 43.754,25.947 43.833,25.947 43.867 C 25.947 43.900,25.837 44.029,25.702 44.154 C 25.016 44.788,24.199 46.213,24.314 46.575 C 24.347 46.680,24.478 46.833,24.604 46.916 C 24.962 47.150,25.213 46.969,25.659 46.156 C 26.113 45.330,27.085 44.292,27.343 44.359 C 27.433 44.383,28.539 45.185,29.800 46.141 C 31.061 47.098,32.115 47.880,32.141 47.880 C 32.168 47.880,32.062 47.576,31.906 47.203 C 31.751 46.831,31.622 46.422,31.621 46.293 C 31.616 45.843,31.098 45.008,30.319 44.193 C 29.668 43.513,29.735 43.380,30.830 43.186 C 36.604 42.162,41.488 38.115,43.521 32.667 C 45.428 27.556,44.779 22.063,41.732 17.538 C 40.169 15.216,38.238 13.480,35.727 12.138 C 34.804 11.645,34.375 11.558,34.120 11.813 C 33.960 11.973,33.930 12.294,34.056 12.492 C 34.100 12.561,34.581 12.855,35.127 13.146 C 36.596 13.928,37.724 14.762,38.873 15.915 C 41.054 18.103,42.531 20.833,43.130 23.786 C 43.374 24.986,43.467 27.511,43.311 28.674 C 42.531 34.480,38.858 39.157,33.425 41.263 C 32.534 41.608,31.231 41.937,29.960 42.138 C 29.421 42.223,28.778 42.357,28.531 42.436 C 27.932 42.626,27.559 42.542,26.988 42.087 C 26.576 41.760,26.415 41.696,25.695 41.578 C 25.243 41.504,24.852 41.443,24.825 41.442 C 24.799 41.441,24.805 41.051,24.840 40.577 C 24.877 40.078,24.863 39.521,24.808 39.257 C 24.637 38.439,23.771 37.800,22.835 37.800 C 22.535 37.800,22.493 37.937,22.493 38.931 C 22.493 39.852,22.627 40.296,23.029 40.717 C 23.164 40.858,23.243 40.973,23.205 40.973 C 23.003 40.973,21.283 40.189,21.369 40.136 C 21.497 40.057,21.931 38.502,21.932 38.117 C 21.935 37.353,21.371 36.600,20.603 36.346 C 20.353 36.262,20.129 36.213,20.106 36.236 C 19.995 36.347,19.604 37.892,19.604 38.220 C 19.604 38.425,19.687 38.777,19.789 39.001 L 19.974 39.409 19.717 39.243 C 19.576 39.151,19.223 38.895,18.933 38.673 L 18.406 38.270 18.900 37.375 C 19.173 36.883,19.422 36.336,19.455 36.161 C 19.524 35.791,19.399 35.264,19.140 34.844 C 18.934 34.509,18.136 33.997,18.017 34.124 C 17.974 34.170,17.746 34.576,17.510 35.027 C 17.059 35.887,16.952 36.519,17.178 36.989 C 17.231 37.102,17.070 36.973,16.820 36.703 C 16.326 36.172,15.641 35.252,15.883 35.446 C 16.011 35.548,16.119 35.470,16.657 34.889 C 17.001 34.518,17.336 34.107,17.402 33.977 C 17.760 33.269,17.597 32.376,17.005 31.798 L 16.644 31.446 15.988 32.136 C 15.286 32.875,14.974 33.482,15.046 33.969 C 15.069 34.126,15.074 34.253,15.058 34.253 C 15.020 34.253,14.437 33.095,14.254 32.655 C 14.124 32.344,14.125 32.319,14.266 32.349 C 14.351 32.367,14.774 32.141,15.206 31.847 C 16.115 31.228,16.427 30.771,16.426 30.062 C 16.425 29.612,16.047 28.653,15.870 28.653 C 15.816 28.653,15.415 28.883,14.979 29.165 C 14.160 29.693,13.859 30.046,13.754 30.602 C 13.714 30.818,13.672 30.877,13.622 30.789 C 13.546 30.653,13.253 29.309,13.253 29.097 C 13.253 29.028,13.435 28.923,13.658 28.864 C 14.409 28.663,15.121 28.360,15.406 28.121 C 15.788 27.799,16.053 27.249,16.053 26.778 C 16.053 26.347,15.877 25.667,15.766 25.667 C 15.727 25.667,15.324 25.797,14.871 25.956 C 13.884 26.302,13.479 26.588,13.245 27.102 L 13.071 27.487 13.070 26.647 C 13.069 25.362,13.021 25.424,14.071 25.350 C 15.117 25.277,15.602 25.093,16.025 24.611 C 16.432 24.147,16.634 23.365,16.461 22.916 C 16.411 22.784,16.297 22.771,15.645 22.823 C 14.568 22.909,14.228 23.017,13.793 23.408 L 13.409 23.753 13.472 23.427 C 13.602 22.756,13.939 21.741,13.999 21.839 C 14.034 21.895,14.481 22.006,14.992 22.086 C 16.112 22.261,16.536 22.180,17.078 21.691 C 17.431 21.372,17.733 20.730,17.733 20.300 C 17.733 20.121,17.654 20.087,17.010 19.989 C 15.871 19.816,15.430 19.845,14.952 20.125 L 14.535 20.369 14.944 19.611 C 15.345 18.868,15.735 18.284,15.629 18.585 C 15.587 18.704,15.751 18.806,16.398 19.062 C 17.532 19.511,17.678 19.536,18.234 19.374 C 18.774 19.217,19.189 18.841,19.494 18.232 L 19.688 17.844 18.854 17.510 C 17.799 17.088,17.420 17.027,16.920 17.200 C 16.560 17.324,16.534 17.323,16.610 17.185 C 16.734 16.959,18.032 15.704,17.970 15.868 C 17.911 16.026,19.020 16.910,19.561 17.136 C 20.007 17.322,20.597 17.298,21.062 17.073 C 21.492 16.864,22.105 16.181,21.969 16.062 C 21.924 16.023,21.635 15.801,21.327 15.569 C 20.467 14.921,20.220 14.820,19.589 14.856 C 19.287 14.873,19.040 14.876,19.040 14.863 C 19.040 14.799,20.500 13.914,21.334 13.472 C 22.237 12.994,22.401 12.841,22.538 12.350 C 22.675 11.861,22.038 11.108,21.488 11.107 C 21.257 11.107,19.646 11.887,18.900 12.361 C 18.643 12.524,18.382 12.688,18.319 12.726 C 18.237 12.775,18.244 12.685,18.343 12.405 C 18.565 11.774,18.511 11.363,18.047 10.168 C 17.739 9.377,17.570 9.055,17.463 9.058 C 17.381 9.060,17.122 9.162,16.889 9.283 M37.953 10.168 C 37.695 10.834,37.520 11.434,37.520 11.658 C 37.520 12.190,37.841 12.979,38.196 13.322 C 38.533 13.647,39.486 14.126,39.588 14.020 C 39.742 13.860,40.431 11.965,40.475 11.578 C 40.538 11.035,40.247 10.232,39.834 9.810 C 39.531 9.500,38.754 9.053,38.516 9.053 C 38.437 9.053,38.218 9.487,37.953 10.168 M17.424 11.620 C 17.454 11.977,17.419 12.158,17.273 12.390 C 17.168 12.557,17.046 12.693,17.001 12.693 C 16.882 12.693,16.520 11.698,16.520 11.372 C 16.520 11.075,16.639 10.791,16.880 10.516 C 17.021 10.354,17.038 10.366,17.207 10.749 C 17.305 10.972,17.402 11.363,17.424 11.620 M39.346 10.839 C 39.420 10.981,39.480 11.222,39.480 11.374 C 39.480 11.699,39.117 12.693,38.999 12.693 C 38.839 12.693,38.547 12.081,38.547 11.745 C 38.547 11.557,38.637 11.168,38.746 10.881 C 38.964 10.313,39.070 10.305,39.346 10.839 M41.810 12.802 C 40.947 13.975,40.839 14.218,40.839 14.980 C 40.839 15.472,40.889 15.729,41.043 16.020 C 41.245 16.402,42.045 17.172,42.242 17.173 C 42.372 17.173,43.543 15.528,43.728 15.085 C 44.143 14.091,43.673 12.842,42.635 12.184 L 42.383 12.025 41.810 12.802 M13.806 14.011 C 14.055 14.385,14.187 14.685,14.187 14.883 C 14.187 15.212,14.019 15.774,13.921 15.772 C 13.887 15.772,13.703 15.534,13.510 15.244 C 13.242 14.840,13.160 14.622,13.160 14.316 C 13.160 13.985,13.310 13.440,13.401 13.440 C 13.414 13.440,13.596 13.697,13.806 14.011 M42.837 14.263 C 42.840 14.711,42.759 14.905,42.340 15.438 L 42.054 15.804 41.938 15.532 C 41.717 15.015,41.784 14.625,42.201 14.000 C 42.584 13.427,42.591 13.422,42.711 13.640 C 42.778 13.761,42.835 14.041,42.837 14.263 M35.513 14.998 C 35.277 15.124,34.306 15.822,34.031 16.062 C 33.895 16.181,34.508 16.864,34.938 17.073 C 35.403 17.298,35.993 17.322,36.439 17.136 C 36.794 16.988,38.080 16.050,38.080 15.939 C 38.080 15.782,37.363 15.084,37.080 14.966 C 36.675 14.796,35.857 14.813,35.513 14.998 M20.233 16.020 C 20.524 16.204,20.414 16.339,20.056 16.237 C 19.705 16.136,19.490 15.969,19.562 15.852 C 19.624 15.752,19.928 15.828,20.233 16.020 M36.443 15.860 C 36.524 15.992,36.113 16.240,35.814 16.240 C 35.488 16.240,35.559 16.086,35.968 15.908 C 36.322 15.754,36.374 15.749,36.443 15.860 M44.559 16.697 C 43.499 17.631,43.289 17.968,43.231 18.830 C 43.198 19.322,43.230 19.491,43.436 19.903 C 43.571 20.173,43.787 20.513,43.917 20.659 L 44.153 20.924 44.500 20.661 C 44.691 20.516,45.165 20.081,45.554 19.695 C 46.118 19.136,46.287 18.903,46.383 18.551 C 46.610 17.721,46.400 16.880,45.796 16.201 L 45.500 15.868 44.559 16.697 M37.898 17.149 C 37.721 17.170,37.532 17.241,37.478 17.307 C 37.424 17.372,37.141 17.520,36.849 17.635 C 36.331 17.839,36.321 17.849,36.425 18.092 C 36.571 18.435,36.872 18.868,37.098 19.062 C 37.426 19.344,38.144 19.514,38.585 19.415 C 38.911 19.342,40.295 18.804,40.398 18.711 C 40.490 18.626,40.024 17.832,39.731 17.575 C 39.237 17.141,38.800 17.040,37.898 17.149 M11.626 18.305 C 11.788 18.618,11.807 19.413,11.652 19.413 C 11.593 19.413,11.320 19.189,11.046 18.914 C 10.576 18.444,10.547 18.388,10.547 17.950 C 10.547 17.694,10.573 17.458,10.605 17.426 C 10.694 17.337,11.473 18.008,11.626 18.305 M45.432 17.993 C 45.392 18.469,45.352 18.543,44.915 18.961 C 44.654 19.210,44.395 19.413,44.340 19.413 C 44.209 19.413,44.210 18.622,44.341 18.357 C 44.477 18.081,45.288 17.362,45.391 17.426 C 45.437 17.454,45.455 17.709,45.432 17.993 M17.966 18.235 C 18.135 18.359,18.134 18.365,17.936 18.428 C 17.694 18.505,17.054 18.317,17.131 18.192 C 17.212 18.062,17.768 18.090,17.966 18.235 M38.869 18.192 C 38.949 18.323,38.320 18.497,38.030 18.424 L 37.775 18.360 37.997 18.237 C 38.255 18.094,38.791 18.067,38.869 18.192 M25.967 19.997 L 25.993 20.953 26.997 20.980 L 28.000 21.006 28.000 28.516 L 28.000 36.027 29.073 36.027 L 30.147 36.027 30.147 27.533 L 30.147 19.040 28.043 19.040 L 25.940 19.040 25.967 19.997 M38.850 19.999 C 38.341 20.081,38.267 20.119,38.267 20.296 C 38.267 20.730,38.568 21.371,38.922 21.691 C 39.427 22.147,39.907 22.259,40.785 22.125 C 42.114 21.923,42.029 21.965,41.961 21.542 C 41.864 20.933,41.564 20.455,41.091 20.155 C 40.715 19.917,40.575 19.882,40.045 19.893 C 39.709 19.900,39.171 19.948,38.850 19.999 M46.481 20.959 C 45.337 21.561,45.070 21.792,44.803 22.413 C 44.525 23.060,44.535 23.752,44.832 24.401 C 44.963 24.686,45.118 24.920,45.176 24.920 C 45.422 24.920,47.196 23.924,47.511 23.609 C 47.901 23.219,48.160 22.558,48.160 21.952 C 48.160 21.502,47.740 20.439,47.564 20.442 C 47.507 20.443,47.020 20.676,46.481 20.959 M16.333 20.908 C 16.440 20.912,16.431 20.945,16.292 21.050 C 16.093 21.201,15.442 21.237,15.358 21.101 C 15.289 20.989,15.769 20.813,16.007 20.864 C 16.109 20.886,16.256 20.906,16.333 20.908 M40.361 20.904 C 40.492 20.954,40.600 21.038,40.600 21.091 C 40.600 21.223,39.980 21.212,39.731 21.076 L 39.527 20.965 39.760 20.898 C 40.092 20.804,40.096 20.804,40.361 20.904 M10.039 22.443 C 10.264 22.669,10.502 23.366,10.406 23.521 C 10.352 23.609,9.632 23.282,9.329 23.032 C 9.040 22.794,8.867 22.444,8.867 22.098 L 8.867 21.744 9.345 21.986 C 9.608 22.119,9.920 22.325,10.039 22.443 M47.093 22.352 C 47.022 22.731,46.668 23.096,46.082 23.392 C 45.695 23.589,45.629 23.599,45.580 23.472 C 45.514 23.301,45.780 22.555,45.960 22.406 C 46.028 22.349,46.309 22.179,46.585 22.028 C 47.140 21.723,47.204 21.763,47.093 22.352 M39.573 22.628 C 39.573 22.737,39.447 22.753,38.897 22.711 L 38.220 22.660 38.851 23.107 C 39.367 23.473,39.500 23.621,39.580 23.919 C 39.634 24.120,39.844 24.463,40.047 24.683 C 40.436 25.106,40.758 25.233,41.713 25.340 C 41.992 25.372,42.333 25.478,42.472 25.577 L 42.724 25.757 42.782 25.467 C 42.953 24.611,42.767 23.929,42.228 23.431 C 41.798 23.035,41.345 22.868,40.693 22.867 C 40.432 22.866,40.168 22.795,39.993 22.680 C 39.660 22.459,39.573 22.448,39.573 22.628 M15.200 24.040 C 15.035 24.205,14.373 24.383,14.373 24.262 C 14.373 24.114,14.789 23.893,15.067 23.893 C 15.321 23.893,15.333 23.907,15.200 24.040 M47.426 25.538 C 46.895 25.664,46.307 25.845,46.120 25.942 C 45.394 26.316,44.908 27.057,44.881 27.831 C 44.864 28.318,44.974 29.008,45.079 29.073 C 45.198 29.146,47.133 28.667,47.575 28.455 C 48.229 28.141,48.813 27.218,48.813 26.500 C 48.813 26.050,48.617 25.293,48.502 25.301 C 48.442 25.305,47.958 25.412,47.426 25.538 M40.055 26.027 C 39.764 26.998,40.110 27.925,40.921 28.347 C 41.241 28.514,42.449 28.933,42.608 28.933 C 42.749 28.933,42.934 28.314,42.931 27.849 C 42.928 27.353,42.643 26.766,42.267 26.482 C 42.004 26.283,40.466 25.667,40.234 25.667 C 40.195 25.667,40.114 25.829,40.055 26.027 M9.094 26.707 C 9.559 26.829,10.080 27.336,10.080 27.666 C 10.080 27.884,10.053 27.904,9.823 27.853 C 8.926 27.653,8.609 27.477,8.395 27.058 C 8.081 26.441,8.081 26.441,9.094 26.707 M47.787 26.604 C 47.787 26.657,47.705 26.861,47.605 27.058 C 47.391 27.477,47.074 27.653,46.177 27.853 C 45.952 27.903,45.920 27.882,45.920 27.688 C 45.920 27.432,46.214 27.023,46.510 26.864 C 46.716 26.754,47.459 26.530,47.670 26.515 C 47.734 26.510,47.787 26.550,47.787 26.604 M14.934 27.159 C 14.836 27.342,14.383 27.627,14.191 27.627 C 14.013 27.627,14.309 27.263,14.605 27.117 C 14.983 26.930,15.052 26.939,14.934 27.159 M41.380 27.113 C 41.684 27.258,41.993 27.627,41.809 27.627 C 41.617 27.627,41.164 27.342,41.066 27.159 C 40.947 26.936,40.993 26.930,41.380 27.113 M39.808 29.117 C 39.502 29.721,39.496 30.344,39.791 30.901 C 39.956 31.215,40.201 31.441,40.824 31.857 C 41.273 32.156,41.695 32.380,41.761 32.355 C 41.983 32.270,42.280 31.508,42.280 31.024 C 42.280 30.251,41.991 29.814,41.067 29.195 C 40.630 28.902,40.222 28.661,40.158 28.658 C 40.095 28.655,39.937 28.862,39.808 29.117 M15.400 30.233 C 15.400 30.353,14.935 30.893,14.832 30.893 C 14.661 30.893,14.753 30.598,14.994 30.376 C 15.250 30.138,15.400 30.085,15.400 30.233 M41.006 30.376 C 41.247 30.598,41.339 30.893,41.168 30.893 C 41.122 30.893,40.975 30.764,40.842 30.606 C 40.444 30.133,40.564 29.965,41.006 30.376 M45.407 30.418 C 44.948 30.631,44.388 31.202,44.208 31.640 C 44.134 31.820,44.044 32.229,44.008 32.550 L 43.942 33.133 44.768 33.155 C 46.605 33.202,47.043 33.096,47.671 32.456 C 48.128 31.989,48.347 31.435,48.347 30.742 L 48.347 30.240 47.063 30.242 C 46.012 30.244,45.713 30.275,45.407 30.418 M10.565 31.637 C 10.769 31.840,10.908 32.050,10.875 32.103 C 10.797 32.230,9.886 32.228,9.549 32.100 C 9.259 31.991,8.898 31.683,8.761 31.430 C 8.681 31.281,8.738 31.267,9.434 31.267 L 10.195 31.267 10.565 31.637 M47.239 31.430 C 47.102 31.683,46.741 31.991,46.451 32.100 C 46.097 32.235,45.080 32.231,45.080 32.096 C 45.080 32.038,45.243 31.828,45.442 31.629 C 45.804 31.267,45.806 31.267,46.566 31.267 C 47.262 31.267,47.319 31.281,47.239 31.430 M38.952 31.849 C 38.537 32.299,38.311 32.969,38.411 33.450 C 38.507 33.908,38.860 34.442,39.457 35.028 L 40.008 35.569 40.390 35.154 C 40.764 34.749,40.972 34.259,40.973 33.782 C 40.974 33.370,40.535 32.642,39.919 32.032 L 39.326 31.444 38.952 31.849 M16.571 33.297 C 16.537 33.438,16.406 33.657,16.281 33.785 C 16.080 33.989,16.053 33.996,16.053 33.842 C 16.053 33.627,16.408 33.040,16.538 33.040 C 16.595 33.040,16.609 33.143,16.571 33.297 M39.752 33.354 C 39.947 33.669,40.009 33.976,39.877 33.970 C 39.765 33.966,39.495 33.554,39.428 33.286 C 39.341 32.939,39.519 32.976,39.752 33.354 M37.403 34.342 C 36.725 34.771,36.392 35.583,36.590 36.319 C 36.688 36.683,37.481 38.173,37.577 38.173 C 37.698 38.173,38.364 37.684,38.530 37.474 C 39.077 36.777,39.040 36.003,38.405 34.871 C 38.156 34.429,37.927 34.067,37.895 34.067 C 37.863 34.067,37.641 34.190,37.403 34.342 M43.762 34.569 C 42.900 34.877,42.436 35.386,42.149 36.338 L 42.018 36.773 42.522 36.913 C 42.800 36.990,43.268 37.121,43.563 37.204 C 45.220 37.669,46.540 36.920,46.893 35.313 L 46.956 35.026 45.848 34.733 C 44.641 34.414,44.276 34.385,43.762 34.569 M12.429 35.813 L 12.712 36.095 12.054 36.257 C 11.528 36.385,11.333 36.397,11.079 36.313 C 10.783 36.215,10.279 35.791,10.367 35.713 C 10.496 35.599,11.226 35.480,11.650 35.503 C 12.058 35.525,12.196 35.580,12.429 35.813 M45.155 35.574 C 45.396 35.633,45.611 35.696,45.633 35.714 C 45.722 35.790,45.216 36.216,44.921 36.313 C 44.668 36.397,44.472 36.385,43.950 36.257 L 43.296 36.097 43.511 35.865 C 43.891 35.456,44.345 35.376,45.155 35.574 M18.336 36.287 L 18.160 36.633 18.126 36.367 C 18.108 36.220,18.145 35.972,18.210 35.815 C 18.326 35.537,18.331 35.535,18.420 35.735 C 18.488 35.888,18.467 36.027,18.336 36.287 M37.886 36.353 L 37.886 36.727 37.707 36.400 C 37.522 36.063,37.471 35.733,37.585 35.619 C 37.698 35.506,37.887 35.965,37.886 36.353 M35.328 36.362 C 34.607 36.627,34.067 37.357,34.067 38.069 C 34.067 38.386,34.464 40.002,34.568 40.105 C 34.677 40.215,35.551 39.825,35.819 39.548 C 36.379 38.969,36.517 38.330,36.267 37.467 C 36.193 37.214,36.087 36.828,36.030 36.610 C 35.917 36.176,35.876 36.162,35.328 36.362 M20.905 38.142 C 20.907 38.556,20.812 38.788,20.708 38.624 C 20.615 38.477,20.602 37.973,20.686 37.753 C 20.772 37.529,20.903 37.763,20.905 38.142 M35.372 38.142 C 35.374 38.556,35.279 38.788,35.175 38.624 C 35.081 38.477,35.069 37.973,35.153 37.753 C 35.239 37.529,35.370 37.763,35.372 38.142 M32.514 37.889 C 32.150 37.976,31.704 38.288,31.468 38.620 C 31.165 39.046,31.076 39.553,31.141 40.483 C 31.201 41.342,31.202 41.347,31.450 41.347 C 31.587 41.347,31.912 41.283,32.173 41.206 C 32.733 41.040,33.256 40.518,33.407 39.977 C 33.516 39.582,33.539 38.545,33.448 38.092 C 33.397 37.837,33.353 37.801,33.098 37.810 C 32.938 37.815,32.675 37.851,32.514 37.889 M40.842 38.221 C 40.641 38.298,40.332 38.471,40.155 38.606 C 39.835 38.850,39.293 39.607,39.293 39.810 C 39.293 39.869,39.798 40.176,40.414 40.492 C 41.357 40.976,41.611 41.067,42.013 41.067 C 42.672 41.067,43.150 40.906,43.578 40.539 C 43.950 40.220,44.471 39.438,44.392 39.315 C 44.368 39.278,43.873 39.003,43.291 38.704 C 42.100 38.093,41.492 37.973,40.842 38.221 M23.758 39.337 C 23.832 39.515,23.892 39.778,23.890 39.920 L 23.887 40.180 23.704 39.960 C 23.590 39.824,23.520 39.600,23.520 39.376 C 23.520 38.928,23.583 38.918,23.758 39.337 M32.323 39.930 L 32.153 40.180 32.125 39.933 C 32.109 39.797,32.170 39.524,32.261 39.326 L 32.425 38.967 32.459 39.324 C 32.481 39.560,32.435 39.765,32.323 39.930 M15.031 39.249 C 15.183 39.327,15.307 39.426,15.307 39.469 C 15.307 39.511,15.010 39.683,14.647 39.850 C 14.024 40.137,13.964 40.147,13.575 40.039 C 12.893 39.848,12.879 39.718,13.503 39.396 C 14.112 39.082,14.614 39.033,15.031 39.249 M42.477 39.392 C 42.911 39.611,43.018 39.704,42.942 39.797 C 42.797 39.971,42.119 40.153,41.879 40.082 C 41.540 39.981,40.693 39.540,40.693 39.463 C 40.693 39.325,41.212 39.114,41.559 39.110 C 41.773 39.108,42.134 39.219,42.477 39.392 M37.007 41.148 C 36.631 41.320,35.811 42.064,35.860 42.189 C 35.875 42.226,36.239 42.579,36.670 42.973 C 37.500 43.733,37.924 43.998,38.474 44.101 C 39.215 44.240,40.278 43.788,40.767 43.126 L 40.960 42.866 40.103 42.093 C 39.632 41.668,39.079 41.244,38.873 41.149 C 38.381 40.923,37.501 40.922,37.007 41.148 M18.652 42.082 C 18.745 42.141,18.641 42.274,18.246 42.595 C 17.654 43.077,17.411 43.168,16.923 43.089 C 16.487 43.018,16.455 42.974,16.668 42.734 C 17.106 42.241,17.560 42.000,18.051 42.001 C 18.312 42.002,18.583 42.039,18.652 42.082 M38.789 42.266 C 39.234 42.592,39.530 42.915,39.453 42.992 C 39.422 43.023,39.212 43.069,38.987 43.095 C 38.514 43.148,38.229 43.024,37.630 42.508 C 37.157 42.101,37.218 42.004,37.949 42.001 C 38.327 42.000,38.501 42.055,38.789 42.266 M33.012 42.975 C 32.479 43.165,31.902 43.574,31.980 43.707 C 32.278 44.214,33.026 45.278,33.262 45.532 C 34.062 46.388,35.202 46.515,36.243 45.864 L 36.769 45.535 36.126 44.576 C 35.377 43.459,35.075 43.177,34.419 42.982 C 33.838 42.810,33.480 42.808,33.012 42.975 M22.623 43.983 C 22.325 44.495,21.961 44.936,21.714 45.087 C 21.438 45.255,20.720 45.340,20.720 45.205 C 20.720 45.029,21.353 44.193,21.601 44.042 C 21.933 43.839,22.734 43.793,22.623 43.983 M34.350 44.008 C 34.593 44.134,35.280 45.011,35.280 45.195 C 35.280 45.338,34.572 45.261,34.286 45.087 C 34.039 44.936,33.675 44.495,33.377 43.983 C 33.277 43.812,34.007 43.831,34.350 44.008 " stroke="none" fill-rule="evenodd" fill="black"></path></svg>