<svg width="56" height="56" viewBox="0 0 56 56" fill="none" xmlns="http://www.w3.org/2000/svg"><path d="M14.775 7.094 C 14.502 7.205,14.270 7.576,14.260 7.917 C 14.255 8.091,14.415 8.474,14.686 8.936 C 14.925 9.343,15.120 9.701,15.120 9.730 C 15.120 9.760,14.409 9.798,13.541 9.815 L 11.962 9.847 11.565 10.127 C 11.346 10.281,11.070 10.592,10.950 10.818 C 10.737 11.223,10.733 11.275,10.733 14.100 C 10.733 17.273,10.795 17.825,11.288 19.105 C 11.794 20.417,12.968 21.828,14.221 22.630 C 14.884 23.053,15.244 23.212,16.137 23.476 L 16.827 23.680 17.124 24.513 C 18.269 27.720,20.820 30.305,23.973 31.454 L 24.687 31.714 24.712 33.349 L 24.738 34.984 23.219 35.015 C 21.775 35.045,21.674 35.060,21.166 35.309 C 20.525 35.624,20.042 36.160,19.787 36.839 C 19.637 37.242,19.600 37.567,19.600 38.492 L 19.600 39.644 18.776 39.683 C 17.390 39.750,16.485 40.356,16.054 41.506 C 15.885 41.958,15.867 42.232,15.867 44.333 C 15.867 46.483,15.882 46.700,16.067 47.194 C 16.333 47.905,16.961 48.534,17.672 48.800 C 18.206 49.000,18.217 49.000,28.000 49.000 C 37.783 49.000,37.794 49.000,38.328 48.800 C 39.039 48.534,39.667 47.905,39.933 47.194 C 40.118 46.700,40.133 46.483,40.133 44.333 C 40.133 42.232,40.115 41.958,39.946 41.506 C 39.515 40.356,38.610 39.750,37.224 39.683 L 36.400 39.644 36.400 38.492 C 36.400 37.567,36.363 37.242,36.213 36.839 C 35.958 36.160,35.475 35.624,34.834 35.309 C 34.326 35.060,34.225 35.045,32.781 35.015 L 31.262 34.984 31.288 33.349 L 31.313 31.714 32.027 31.454 C 35.180 30.305,37.731 27.720,38.876 24.513 L 39.173 23.680 39.863 23.476 C 40.243 23.364,40.715 23.202,40.913 23.117 C 41.985 22.654,43.394 21.406,44.127 20.273 C 44.589 19.557,45.022 18.387,45.170 17.453 C 45.244 16.989,45.271 15.793,45.250 13.900 L 45.220 11.046 44.970 10.668 C 44.832 10.460,44.559 10.190,44.363 10.068 C 44.032 9.862,43.897 9.844,42.443 9.815 C 41.584 9.798,40.880 9.754,40.880 9.718 C 40.880 9.681,41.068 9.338,41.298 8.956 C 41.794 8.132,41.844 7.714,41.495 7.309 L 41.270 7.047 28.125 7.029 C 20.633 7.019,14.892 7.046,14.775 7.094 M38.979 9.310 C 38.636 9.987,38.197 11.296,37.976 12.301 C 37.794 13.125,37.770 13.604,37.709 17.640 C 37.643 22.025,37.639 22.084,37.396 23.007 C 37.261 23.520,36.943 24.360,36.690 24.873 C 35.397 27.489,33.201 29.265,30.257 30.075 C 29.218 30.361,26.782 30.361,25.743 30.075 C 23.989 29.592,22.685 28.886,21.499 27.778 C 19.925 26.306,19.003 24.733,18.512 22.680 C 18.398 22.202,18.352 21.131,18.296 17.640 C 18.231 13.616,18.206 13.123,18.024 12.301 C 17.803 11.296,17.364 9.987,17.021 9.310 L 16.797 8.867 28.000 8.867 L 39.203 8.867 38.979 9.310 M16.083 12.250 C 16.380 13.442,16.434 14.393,16.407 18.042 L 16.380 21.664 15.680 21.317 C 14.724 20.844,13.691 19.806,13.219 18.846 C 12.676 17.744,12.603 17.204,12.602 14.257 L 12.600 11.667 14.269 11.667 L 15.937 11.667 16.083 12.250 M43.398 14.257 C 43.397 17.204,43.324 17.744,42.781 18.846 C 42.309 19.806,41.276 20.844,40.320 21.317 L 39.620 21.664 39.593 18.042 C 39.566 14.393,39.620 13.442,39.917 12.250 L 40.063 11.667 41.731 11.667 L 43.400 11.667 43.398 14.257 M27.160 13.528 C 26.694 13.774,26.519 13.996,25.993 15.012 L 25.527 15.913 24.478 16.075 C 23.330 16.252,22.949 16.431,22.585 16.961 C 22.351 17.304,22.247 17.991,22.348 18.532 C 22.397 18.793,22.607 19.076,23.236 19.727 L 24.060 20.580 23.892 21.560 C 23.670 22.847,23.751 23.290,24.311 23.849 C 24.607 24.145,24.824 24.271,25.167 24.344 C 25.760 24.471,26.078 24.393,27.137 23.860 L 28.000 23.425 28.863 23.860 C 29.922 24.393,30.240 24.471,30.833 24.344 C 31.176 24.271,31.393 24.145,31.689 23.849 C 32.249 23.290,32.330 22.847,32.108 21.560 L 31.940 20.580 32.764 19.727 C 33.393 19.076,33.603 18.793,33.652 18.532 C 33.753 17.991,33.649 17.304,33.415 16.961 C 33.051 16.431,32.670 16.252,31.522 16.075 L 30.473 15.913 30.007 15.012 C 29.750 14.516,29.456 14.018,29.353 13.906 C 28.855 13.358,27.819 13.179,27.160 13.528 M28.513 16.175 C 29.122 17.409,29.375 17.600,30.670 17.798 C 31.178 17.876,31.654 17.958,31.728 17.980 C 31.817 18.007,31.605 18.279,31.094 18.793 C 30.100 19.791,30.003 20.064,30.198 21.303 C 30.272 21.778,30.355 22.261,30.382 22.376 C 30.425 22.565,30.338 22.537,29.449 22.072 C 28.138 21.388,27.874 21.384,26.638 22.027 C 26.144 22.283,25.709 22.493,25.672 22.493 C 25.634 22.493,25.679 22.063,25.772 21.537 C 25.935 20.607,25.926 20.124,25.737 19.740 C 25.687 19.637,25.307 19.209,24.892 18.787 C 24.388 18.275,24.183 18.007,24.272 17.980 C 24.346 17.958,24.822 17.876,25.330 17.798 C 26.632 17.599,26.881 17.411,27.487 16.170 C 27.743 15.645,27.974 15.218,28.000 15.221 C 28.026 15.225,28.257 15.654,28.513 16.175 M29.400 33.577 L 29.400 35.000 28.000 35.000 L 26.600 35.000 26.600 33.577 L 26.600 32.153 28.000 32.153 L 29.400 32.153 29.400 33.577 M34.023 36.978 C 34.431 37.164,34.533 37.495,34.533 38.635 L 34.533 39.667 28.000 39.667 L 21.467 39.667 21.470 38.617 C 21.474 37.490,21.555 37.212,21.944 36.997 C 22.253 36.826,33.649 36.808,34.023 36.978 M37.786 41.666 C 38.226 41.894,38.267 42.120,38.267 44.347 C 38.267 46.578,38.221 46.810,37.734 47.032 C 37.401 47.184,18.577 47.174,18.244 47.022 C 17.776 46.809,17.733 46.578,17.737 44.315 C 17.740 42.092,17.774 41.906,18.210 41.664 C 18.555 41.473,37.417 41.475,37.786 41.666 " fill="#25282A" stroke="none" fill-rule="evenodd"></path></svg>