<svg width="151" height="150" viewBox="0 0 151 150" fill="none" xmlns="http://www.w3.org/2000/svg">
<path fill-rule="evenodd" clip-rule="evenodd" d="M75.0869 0C33.6664 0 0.0869141 33.5775 0.0869141 75C0.0869141 116.422 33.6664 150 75.0869 150C116.507 150 150.087 116.421 150.087 75C150.087 33.5794 116.509 0 75.0869 0ZM133.422 112.603C134.949 112.941 136.499 112.259 137.279 110.906C138.06 109.553 137.878 107.869 136.822 106.718L132.32 101.804C136.138 93.6664 138.277 84.5836 138.277 75C138.277 41.9233 112.86 14.7864 80.4939 12.0442L78.4868 5.67721C78.0162 4.18798 76.6517 3.18634 75.0888 3.18634C73.5259 3.18634 72.1614 4.18798 71.6908 5.67721L69.6837 12.0442C37.3157 14.7883 11.9006 41.9233 11.9006 75C11.9006 84.5836 14.0399 93.6664 17.8575 101.804L13.3558 106.718C12.2993 107.869 12.116 109.553 12.8965 110.906C13.6771 112.259 15.2268 112.941 16.7519 112.603L23.272 111.157C34.6944 127.495 53.6386 138.186 75.0869 138.186C96.5352 138.186 115.479 127.495 126.902 111.157L133.422 112.603ZM134.032 109.857C134.352 109.927 134.681 109.783 134.845 109.5C135.009 109.216 134.97 108.859 134.749 108.617L121.425 94.0765L118.473 94.5981C117.048 94.8494 115.53 94.6227 114.179 93.8421C112.669 92.969 111.65 91.5724 111.22 90.0132L110.004 85.5966C109.222 82.7542 107.364 80.2066 104.609 78.6154L98.3381 74.9962L126.108 58.9644L122.546 52.7939L91.2133 70.8838L86.7135 68.2853V63.09L118.046 45L114.483 38.8295L86.7135 54.8614V47.6213C86.7135 44.4406 85.4359 41.5566 83.3665 39.4589L80.1499 36.1988C79.0141 35.0479 78.3148 33.466 78.3148 31.7217C78.3148 30.1606 78.878 28.7338 79.8078 27.6263L81.7355 25.332L75.8051 6.52199C75.7068 6.21016 75.4176 5.9966 75.0907 5.9966C74.7637 5.9966 74.4746 6.20827 74.3763 6.52199L68.4459 25.332L70.3735 27.6263C71.3034 28.7338 71.8665 30.1625 71.8665 31.7217C71.8665 33.466 71.1654 35.0479 70.0315 36.1988L66.8149 39.4589C64.7455 41.5585 63.4679 44.4406 63.4679 47.6213V54.8614L35.698 38.8295L32.1355 45L63.4679 63.09V68.2853L58.9681 70.8838L27.6357 52.7939L24.0733 58.9644L51.8432 74.9962L45.5726 78.6154C42.8172 80.2066 40.9594 82.7542 40.177 85.5966L38.9618 90.0132C38.5328 91.5724 37.5141 92.969 36.0022 93.8421C34.651 94.6227 33.1334 94.8494 31.7084 94.5981L28.7564 94.0765L15.4328 108.617C15.2116 108.859 15.172 109.216 15.3364 109.5C15.5008 109.783 15.8277 109.929 16.149 109.857L35.4032 105.588L36.4275 102.77C36.9226 101.409 37.877 100.209 39.2283 99.4286C40.7383 98.5555 42.4581 98.3722 44.0229 98.7804L48.4547 99.9351C51.3084 100.678 54.4437 100.343 57.1973 98.7539L63.4679 95.1348V127.2H70.5928V91.0224L75.0926 88.4238L79.5924 91.0224V127.2H86.7173V95.1348L92.9879 98.7539C95.7433 100.345 98.8787 100.68 101.73 99.9351L106.162 98.7804C107.727 98.3722 109.447 98.5555 110.957 99.4286C112.308 100.209 113.264 101.409 113.758 102.77L114.782 105.588L134.036 109.857H134.032ZM102.692 90.9374C101.449 93.09 98.6972 93.827 96.5446 92.5854L86.7116 86.9082V81.7129L91.2114 79.1143L101.044 84.7915C103.197 86.035 103.934 88.7848 102.692 90.9374ZM70.589 77.5967L75.0888 80.1953L79.5886 77.5967V72.4014L75.0888 69.8028L70.589 72.4014V77.5967ZM70.5871 47.6251C70.5871 45.1399 72.6017 43.1252 75.0869 43.1252C77.5721 43.1252 79.5867 45.1399 79.5867 47.6251V58.9795L75.0869 61.5781L70.5871 58.9795V47.6251ZM47.4833 90.9355C48.7268 93.0881 51.4785 93.827 53.6311 92.5835L63.4641 86.9044V81.7091L58.9643 79.1105L49.1313 84.7877C46.9787 86.0312 46.2397 88.7829 47.4833 90.9355Z" fill="#FF0000"/>
</svg>
