<svg width="522" height="112" viewBox="0 0 522 112" fill="none" xmlns="http://www.w3.org/2000/svg">
<path d="M415.796 9.4662V46.6442H432.377V9.4662H451.378V102.787H432.36V63.6367H415.802V102.787H396.694V9.4662H415.796ZM249.297 9.4662V102.787H266.796V43.4569L277.079 102.786H288.716L299.162 43.4569V102.786H316.726V9.4662H290.695L283.008 54.3307L275.319 9.4662H249.298H249.297ZM120.412 9.4662L140.905 72.1608V102.787H161.198V72.1608L181.693 9.4662H162.691L151.052 51.1601L139.41 9.4662H120.412ZM238.692 102.787H219.69L216.507 80.5764H202.227L199.044 102.787H180.154L196.763 9.4662H222.053L238.692 102.787ZM204.647 63.6312H214.089L209.369 30.5559L204.647 63.6312ZM385.966 102.787H366.965L363.783 80.5764H349.504L346.319 102.787H327.429L344.039 9.4662H369.329L385.966 102.787ZM351.922 63.6312H361.364L356.645 30.5559L351.922 63.6312ZM520.73 102.787H501.728L498.545 80.5764H484.263L481.084 102.787H462.191L478.801 9.4662H504.088L520.728 102.787H520.73ZM486.684 63.6312H496.126L491.403 30.5559L486.684 63.6312ZM56.0002 0.789062C25.5071 0.789062 0.789062 25.5085 0.789062 56.0002C0.789062 86.4919 25.5085 111.211 56.0002 111.211C86.4919 111.211 111.211 86.4919 111.211 56.0002C111.211 25.5085 86.4919 0.789062 56.0002 0.789062ZM101.782 82.4323C101.207 83.4284 100.066 83.9307 98.9421 83.6816L94.1423 82.6173C85.7337 94.6446 71.788 102.515 55.9988 102.515C40.2097 102.515 26.264 94.6446 17.8553 82.6173L13.0556 83.6816C11.9329 83.9307 10.792 83.4284 10.2175 82.4323C9.64288 81.4362 9.77783 80.1966 10.5555 79.3493L13.8695 75.7321C11.0592 69.7415 9.48428 63.0552 9.48428 56.0002C9.48428 31.6508 28.1936 11.6755 52.0213 9.65541L53.4988 4.96833C53.8452 3.87204 54.8497 3.13469 56.0002 3.13469C57.1508 3.13469 58.1553 3.87204 58.5017 4.96833L59.9792 9.65541C83.8055 11.6741 102.516 31.6508 102.516 56.0002C102.516 63.0552 100.941 69.7415 98.131 75.7321L101.445 79.3493C102.223 80.1966 102.358 81.4362 101.783 82.4323H101.782ZM99.3915 81.6602C99.6266 81.7116 99.8687 81.6059 99.9897 81.3972C100.111 81.1885 100.082 80.9256 99.9187 80.7475L90.1105 70.0434L87.9374 70.4273C86.8884 70.6124 85.7713 70.4454 84.7765 69.8708C83.6649 69.2281 82.9151 68.2 82.5979 67.0522L81.7033 63.8009C81.1273 61.7085 79.7598 59.8331 77.7313 58.6617L73.1152 55.9974L93.558 44.1956L90.9355 39.6532L67.8703 52.9701L64.5577 51.0572V47.2327L87.623 33.9158L85.0005 29.3734L64.5577 41.1752V35.8454C64.5577 33.504 63.6172 31.3809 62.0938 29.8367L59.726 27.4368C58.8898 26.5895 58.3751 25.4251 58.3751 24.1409C58.3751 22.9918 58.7897 21.9414 59.4741 21.1261L60.8932 19.4372L56.5275 5.59022C56.4552 5.36066 56.2423 5.20345 56.0016 5.20345C55.7609 5.20345 55.5481 5.35927 55.4757 5.59022L51.11 19.4372L52.5291 21.1261C53.2136 21.9414 53.6282 22.9932 53.6282 24.1409C53.6282 25.4251 53.112 26.5895 52.2773 27.4368L49.9094 29.8367C48.386 31.3823 47.4455 33.504 47.4455 35.8454V41.1752L27.0027 29.3734L24.3802 33.9158L47.4455 47.2327V51.0572L44.133 52.9701L21.0677 39.6532L18.4452 44.1956L38.888 55.9974L34.2719 58.6617C32.2435 59.8331 30.8759 61.7085 30.2999 63.8009L29.4054 67.0522C29.0896 68.2 28.3397 69.2281 27.2267 69.8708C26.232 70.4454 25.1148 70.6124 24.0658 70.4273L21.8927 70.0434L12.0845 80.7475C11.9217 80.9256 11.8925 81.1885 12.0135 81.3972C12.1346 81.6059 12.3753 81.713 12.6118 81.6602L26.7857 78.5174L27.5397 76.443C27.9042 75.4413 28.6068 74.5579 29.6015 73.9833C30.7131 73.3406 31.9792 73.2056 33.1311 73.5061L36.3936 74.3562C38.4943 74.9029 40.8024 74.6567 42.8294 73.4867L47.4455 70.8224V94.4275H52.6905V67.7951L56.003 65.8822L59.3155 67.7951V94.4275H64.5605V70.8224L69.1766 73.4867C71.205 74.6581 73.5131 74.9043 75.6125 74.3562L78.8749 73.5061C80.0269 73.2056 81.2929 73.3406 82.4045 73.9833C83.3992 74.5579 84.1032 75.4413 84.4663 76.443L85.2203 78.5174L99.3942 81.6602H99.3915ZM56.0002 59.8247L52.6877 57.9118V54.0873L56.0002 52.1743L59.3128 54.0873V57.9118L56.0002 59.8247ZM52.6863 35.8482C52.6863 34.0187 54.1694 32.5357 55.9988 32.5357C57.8283 32.5357 59.3114 34.0187 59.3114 35.8482V44.2067L55.9988 46.1197L52.6863 44.2067V35.8482ZM40.2042 68.9457C38.6195 69.8611 36.5939 69.3171 35.6785 67.7325C34.763 66.1479 35.307 64.1223 36.8916 63.2068L44.1302 59.0276L47.4427 60.9405V64.765L40.2042 68.9457ZM76.3206 67.7325C75.4052 69.3171 73.3795 69.8597 71.7949 68.9457L64.5563 64.7664V60.9419L67.8689 59.0289L75.1075 63.2082C76.6921 64.1237 77.2347 66.1479 76.3206 67.7325Z" fill="#FF0000"/>
</svg>
