<svg width="500" height="173" viewBox="0 0 500 173" fill="none" xmlns="http://www.w3.org/2000/svg">
<g clip-path="url(#clip0_245_16734)">
<path d="M462.849 121.724C462.849 121.724 458.672 122.028 454.336 122.417C454.729 121.362 455.295 120.43 455.82 119.193C455.82 119.193 449.46 120.684 448.443 122.969C448.439 122.982 448.431 122.998 448.427 123.01C447.765 123.084 447.189 123.153 446.737 123.213C443.577 123.644 441.009 126.757 441.009 126.757C441.009 126.757 443.712 126.466 446.895 126.104C444.659 130.889 440.967 138.561 440.967 138.561L447.18 137.801C449.508 132.541 451.336 128.672 452.945 125.381C454.033 125.241 454.989 125.112 455.697 125.001C459.475 124.416 462.848 121.724 462.848 121.724" fill="white"/>
<path d="M281.2 136.026C284.674 136.022 287.038 136.824 288.284 138.428C289.532 140.032 289.456 142.17 288.058 144.842C286.399 148.013 284.895 150.661 280.915 152.718C276.936 154.774 273.14 155.786 268.388 155.773C264.89 155.761 262.563 154.966 261.395 153.332C260.227 151.7 260.328 149.577 261.698 146.958C263.328 143.837 266.635 140.516 270.602 138.43C274.568 136.348 277.763 136.026 281.202 136.026M275.262 140.074C273.439 140.974 271.019 143.253 269.616 145.948C266.839 151.289 269.074 153.212 271.176 153.065C274.272 152.846 276.7 150.857 278.627 147.882C280.247 145.385 281.344 143.276 281.299 141.434C281.259 139.689 279.771 137.844 275.263 140.074" fill="white"/>
<path d="M211.124 130.96C211.124 130.96 206.37 130.865 204.028 133.557C201.686 136.25 193.022 146.178 193.022 146.178L191.062 132.733C191.062 132.733 186.671 133.278 183.902 134.341L186.377 152.297L192.779 151.581L211.124 130.96Z" fill="white"/>
<path d="M200.719 148.594C217.711 150.24 230.262 144.87 228.659 140.725C227.882 138.725 225.772 137.71 220.653 136.116C217.43 135.113 222.43 131.932 232.363 132.358L234.135 130.074C234.135 130.074 223.873 130.144 217.287 132.356C212.251 134.046 209.134 137.366 213.03 138.884C216.926 140.405 219.858 140.869 220.759 142.409C222.433 145.266 213.091 147.084 203.046 146.253L200.719 148.594Z" fill="white"/>
<path d="M393.369 137.772C393.369 137.772 391.352 139.05 388.459 140.296C386.525 141.126 382.352 142.37 380.784 141.602C378.409 140.445 380.335 137.676 380.335 137.676C380.335 137.676 392.964 135.348 393.623 135.042C394.852 134.472 398.099 129.524 393.808 127.785C389.908 126.202 378.569 129.262 374.901 137.6C372.792 142.396 375.104 144.058 377.055 144.662C382.555 146.368 389.148 143.709 391.451 141.352L393.369 137.772ZM389.896 129.728C392.396 129.422 389.991 133.528 388.833 133.94C385.917 134.978 381.584 135.472 381.584 135.472C381.584 135.472 385.3 130.289 389.896 129.728Z" fill="white"/>
<path d="M178.906 146.286C178.906 146.286 176.335 147.746 172.538 149.153C169.993 150.096 164.401 151.484 162.061 150.578C158.517 149.208 160.671 146.022 160.671 146.022C160.671 146.022 177.378 143.944 178.731 143.127C180.214 142.236 183.915 136.791 177.579 134.723C171.821 132.845 156.566 136.257 153.063 145.872C151.047 151.401 154.602 153.354 157.447 154.076C165.465 156.114 174.163 153.112 176.922 150.408L178.907 146.284L178.906 146.286ZM172.489 136.931C175.923 136.608 173.395 141.477 171.822 141.8C168.351 142.511 161.875 143.115 161.875 143.115C161.875 143.115 166.173 137.529 172.489 136.931Z" fill="white"/>
<path d="M416.943 138.65C413.735 139.556 412.144 139.644 413.633 136.189C414.64 133.852 419.321 125.65 419.321 125.65C419.321 125.65 415.547 125.958 413.015 126.233C404.752 127.126 400.468 131.181 398.441 134.398C395.649 138.83 396.207 142.1 398.879 142.658C402.903 143.504 408.62 138.061 408.62 138.061C408.62 138.061 407.837 141.832 411.953 141.521C414.376 141.34 415.973 140.278 415.973 140.278L416.945 138.649L416.943 138.65ZM403.828 138.161C401.809 138.562 402.376 135.658 403.688 133.669C405.959 130.23 409.268 129.081 413.095 128.95C413.095 128.95 409.831 136.97 403.829 138.161" fill="white"/>
<path d="M325.722 132.452C331.379 131.966 331.202 133.69 331.202 133.69C337.544 129.917 343.52 131.257 343.52 131.257C343.52 131.257 341.976 132.688 339.643 133.826C335.788 135.709 333.419 132.473 329.762 137.469C328.083 139.764 323.359 149.16 323.359 149.16L316.078 150.204C319.555 144.064 325.72 132.453 325.72 132.453" fill="white"/>
<path d="M425.554 125.124C430.978 124.438 430.19 126.654 430.19 126.654C436.276 122.722 442.002 123.816 442.002 123.816C442.002 123.816 440.518 125.276 438.278 126.476C434.582 128.461 432.177 125.385 428.661 130.413C427.046 132.721 424.172 140.056 424.172 140.056L417.924 140.838C421.712 133.082 425.556 125.122 425.556 125.122" fill="white"/>
<path d="M297.27 152.557C289.59 152.62 290.419 148.625 291.343 146.289C292.059 144.474 293.995 141.153 295.518 138.565C295.518 138.565 296.803 136.712 298.364 135.781C299.911 134.86 304.366 134.109 304.366 134.109C304.383 134.1 300.482 140.948 298.846 144.809C297.548 147.882 296.939 149.877 301.22 149.342C304.166 148.978 305.507 147.573 307.77 143.953C309.428 141.298 311.296 137.674 312.22 135.864C313.062 134.213 315.564 133.285 320.151 133.101C320.151 133.101 315.923 140.664 313.878 144.508C310.934 150.038 304.108 152.497 297.27 152.557Z" fill="white"/>
<path d="M245.459 163.25C253.619 149.792 260.491 138.005 270.172 127.064C270.172 127.064 262.094 127.327 260.942 129.012L251.038 143.196C251.038 143.196 247.646 132.907 246.771 129.128C246.771 129.128 242.747 129.301 240.692 130.217C240.692 130.217 244.906 143.604 246.692 148.464C246.96 149.201 246.47 149.87 246.122 150.382C245.698 151.005 245.278 151.622 244.867 152.229C235.804 153.201 168.787 160.365 159.842 160.737C155.798 160.905 146.957 160.477 138.147 156.218C131.843 153.172 129.238 150.554 124.825 148.1C124.825 148.1 130.115 147.361 138.963 144.014C153.51 138.512 163.194 127.279 143.319 124.217C127.991 121.856 80.8449 130.751 80.8449 130.751C80.8449 130.751 84.3302 133.547 89.0462 132.604C94.8595 131.441 101.949 130.125 109.021 129.092C104.85 135.468 89.8849 158.301 80.6836 171.502C80.6836 171.502 94.1676 170.962 96.1889 167.729C97.1209 166.237 102.02 157.541 107.152 148.445C113.729 152.068 129.233 162.036 132.439 163.464C136.078 165.081 140.197 165.412 145.315 165.084C170.874 163.458 223.41 156.232 243.263 154.589C237.822 162.604 233.824 168.526 233.824 168.526C258.724 165.084 462.125 143.193 462.125 143.193L471.251 140.347C471.251 140.347 295.216 159.365 245.456 163.25M118.865 127.869C126.747 127.088 133.781 126.971 137.918 128.211C148.553 131.392 136.451 138.86 128.47 142.169C120.167 145.614 109.298 147.853 107.261 148.253C111.852 140.119 116.607 131.704 118.865 127.869Z" fill="white"/>
<path d="M372.513 122.064C371.092 124.486 369.3 128.132 367.553 131.893L355.889 133.297C357.905 128.692 359.636 124.704 360.943 121.796C360.943 121.796 358.243 121.968 356.021 122.413C353.645 122.89 352.321 123.449 352.321 123.449C352.321 123.449 353.729 124.04 354.131 124.924C349.983 132.688 342.343 148.994 342.343 148.994L349.296 148.289C351.129 144.268 352.875 140.158 354.475 136.52C357.48 135.896 362.829 135.128 366.287 134.656C363.377 141.07 360.893 147.04 360.893 147.04L367.039 146.397C372.629 132.37 377.791 122.693 379.32 120.108C379.32 120.108 373.871 119.75 372.513 122.065" fill="white"/>
<path d="M398.493 9.07208V44.7026H414.384V9.07208H432.594V98.5092H414.368V60.9879H398.499V98.5092H380.187V9.07208H398.493ZM238.923 9.07208V98.5092H255.694V41.648L265.548 98.5078H276.702L286.712 41.648V98.5078H303.545V9.07208H278.598L271.231 52.0693L263.862 9.07208H238.923ZM115.402 9.07208L135.042 69.1572V98.5092H154.491V69.1572L174.133 9.07208H155.922L144.767 49.0306L133.61 9.07208H115.402ZM228.76 98.5092H210.55L207.499 77.2226H193.814L190.763 98.5092H172.659L188.576 9.07208H212.814L228.76 98.5092ZM196.131 60.9826H205.18L200.656 29.284L196.131 60.9826ZM369.904 98.5092H351.693L348.644 77.2226H334.959L331.907 98.5092H313.803L329.721 9.07208H353.959L369.904 98.5092ZM337.276 60.9826H346.325L341.801 29.284L337.276 60.9826ZM499.057 98.5092H480.846L477.797 77.2226H464.109L461.062 98.5092H442.956L458.874 9.07208H483.109L499.057 98.5092ZM466.43 60.9826H475.48L470.953 29.284L466.429 60.9826H466.43ZM53.6715 0.756104C24.4476 0.756104 0.758301 24.4467 0.758301 53.6693C0.758301 82.8919 24.4489 106.582 53.6715 106.582C82.8941 106.582 106.585 82.8919 106.585 53.6693C106.585 24.4467 82.8941 0.756104 53.6715 0.756104ZM97.5487 79.0012C96.998 79.9559 95.9047 80.4372 94.8274 80.1985L90.2274 79.1786C82.1687 90.7052 68.8034 98.2478 53.6715 98.2478C38.5395 98.2478 25.1742 90.7052 17.1156 79.1786L12.5156 80.1985C11.4396 80.4372 10.3463 79.9559 9.79561 79.0012C9.24494 78.0466 9.37428 76.8586 10.1196 76.0466L13.2956 72.5799C10.6023 66.8386 9.09294 60.4306 9.09294 53.6693C9.09294 30.3334 27.0236 11.1894 49.8595 9.25341L51.2755 4.76143C51.6075 3.71076 52.5702 3.0041 53.6728 3.0041C54.7755 3.0041 55.7381 3.71076 56.0701 4.76143L57.4861 9.25341C80.3207 11.1881 98.2527 30.3334 98.2527 53.6693C98.2527 60.4306 96.7434 66.8386 94.05 72.5799L97.226 76.0466C97.9714 76.8586 98.0994 78.0466 97.5487 79.0012ZM95.2567 78.2612C95.482 78.3106 95.714 78.2092 95.83 78.0092C95.946 77.8092 95.918 77.5572 95.762 77.3866L86.3621 67.1279L84.2794 67.4959C83.2741 67.6733 82.2034 67.5133 81.2501 66.9626C80.1847 66.3466 79.4661 65.3613 79.1621 64.2613L78.3048 61.1453C77.7528 59.1399 76.4421 57.3426 74.4981 56.22L70.0741 53.6666L89.6661 42.356L87.1527 38.0027L65.0475 50.7653L61.8728 48.932V45.2666L83.9781 32.504L81.4647 28.1507L61.8728 39.4613V34.3533C61.8728 32.1094 60.9715 30.0747 59.5115 28.5947L57.2421 26.2947C56.4408 25.4827 55.9475 24.3667 55.9475 23.136C55.9475 22.0347 56.3448 21.028 57.0008 20.2467L58.3608 18.6281L54.1768 5.35742C54.1075 5.13742 53.9035 4.98676 53.6728 4.98676C53.4422 4.98676 53.2382 5.13609 53.1688 5.35742L48.9848 18.6281L50.3448 20.2467C51.0008 21.028 51.3982 22.036 51.3982 23.136C51.3982 24.3667 50.9035 25.4827 50.1035 26.2947L47.8342 28.5947C46.3742 30.076 45.4728 32.1094 45.4728 34.3533V39.4613L25.8809 28.1507L23.3676 32.504L45.4728 45.2666V48.932L42.2982 50.7653L20.1929 38.0027L17.6796 42.356L37.2715 53.6666L32.8475 56.22C30.9036 57.3426 29.5929 59.1399 29.0409 61.1453L28.1836 64.2613C27.8809 65.3613 27.1622 66.3466 26.0956 66.9626C25.1422 67.5133 24.0716 67.6733 23.0662 67.4959L20.9836 67.1279L11.5836 77.3866C11.4276 77.5572 11.3996 77.8092 11.5156 78.0092C11.6316 78.2092 11.8623 78.3119 12.0889 78.2612L25.6729 75.2492L26.3956 73.2612C26.7449 72.3012 27.4182 71.4546 28.3716 70.9039C29.4369 70.2879 30.6502 70.1586 31.7542 70.4466L34.8809 71.2612C36.8942 71.7852 39.1062 71.5492 41.0489 70.4279L45.4728 67.8746V90.4972H50.4995V64.9733L53.6742 63.1399L56.8488 64.9733V90.4972H61.8755V67.8746L66.2995 70.4279C68.2434 71.5506 70.4554 71.7866 72.4674 71.2612L75.5941 70.4466C76.6981 70.1586 77.9114 70.2879 78.9768 70.9039C79.9301 71.4546 80.6048 72.3012 80.9528 73.2612L81.6754 75.2492L95.2594 78.2612H95.2567ZM53.6715 57.3359L50.4968 55.5026V51.8373L53.6715 50.004L56.8461 51.8373V55.5026L53.6715 57.3359ZM50.4968 34.356C50.4968 32.6027 51.9182 31.1814 53.6715 31.1814C55.4248 31.1814 56.8461 32.6027 56.8461 34.356V42.3667L53.6715 44.2L50.4968 42.3667V34.356ZM38.5329 66.0759C37.0142 66.9533 35.0729 66.4319 34.1955 64.9133C33.3182 63.3946 33.8395 61.4533 35.3582 60.5759L42.2955 56.5706L45.4702 58.4039V62.0693L38.5329 66.0759ZM73.1461 64.9133C72.2688 66.4319 70.3274 66.9519 68.8088 66.0759L61.8715 62.0706V58.4053L65.0461 56.5719L71.9834 60.5773C73.5021 61.4546 74.0221 63.3946 73.1461 64.9133Z" fill="#FF0000"/>
</g>
<defs>
<clipPath id="clip0_245_16734">
<rect width="499.812" height="172.26" fill="white"/>
</clipPath>
</defs>
</svg>
