<svg width="501" height="173" viewBox="0 0 501 173" fill="none" xmlns="http://www.w3.org/2000/svg">
<path d="M463.66 121.724C463.66 121.724 459.483 122.028 455.147 122.417C455.54 121.362 456.106 120.43 456.631 119.193C456.631 119.193 450.271 120.684 449.254 122.969C449.25 122.982 449.242 122.998 449.238 123.01C448.576 123.084 448 123.153 447.548 123.213C444.388 123.644 441.821 126.757 441.821 126.757C441.821 126.757 444.523 126.466 447.706 126.104C445.47 130.889 441.778 138.561 441.778 138.561L447.991 137.801C450.319 132.541 452.147 128.672 453.756 125.381C454.844 125.241 455.8 125.112 456.508 125.001C460.286 124.416 463.66 121.724 463.66 121.724Z" fill="black"/>
<path d="M282.011 136.026C285.485 136.022 287.849 136.824 289.095 138.428C290.343 140.032 290.267 142.17 288.869 144.842C287.21 148.013 285.706 150.661 281.726 152.718C277.747 154.774 273.951 155.786 269.199 155.773C265.701 155.761 263.374 154.966 262.206 153.332C261.038 151.7 261.139 149.577 262.509 146.958C264.139 143.837 267.446 140.516 271.413 138.43C275.379 136.348 278.573 136.026 282.011 136.026ZM276.073 140.074C274.25 140.974 271.83 143.253 270.427 145.948C267.65 151.289 269.885 153.212 271.987 153.065C275.083 152.846 277.511 150.857 279.438 147.882C281.058 145.385 282.155 143.276 282.11 141.434C282.07 139.689 280.581 137.844 276.073 140.074Z" fill="black"/>
<path d="M211.935 130.96C211.935 130.96 207.181 130.865 204.84 133.557C202.497 136.25 193.833 146.178 193.833 146.178L191.873 132.733C191.873 132.733 187.482 133.278 184.713 134.341L187.188 152.297L193.59 151.581L211.935 130.96Z" fill="black"/>
<path d="M201.53 148.594C218.522 150.24 231.073 144.87 229.47 140.725C228.693 138.725 226.584 137.71 221.464 136.116C218.241 135.113 223.241 131.932 233.174 132.358L234.946 130.074C234.946 130.074 224.684 130.144 218.098 132.356C213.062 134.046 209.945 137.366 213.841 138.884C217.737 140.405 220.669 140.869 221.57 142.409C223.244 145.266 213.902 147.084 203.857 146.253L201.53 148.594Z" fill="black"/>
<path d="M394.18 137.772C394.18 137.772 392.163 139.05 389.27 140.296C387.336 141.126 383.163 142.37 381.595 141.602C379.22 140.445 381.146 137.676 381.146 137.676C381.146 137.676 393.775 135.348 394.434 135.042C395.663 134.472 398.91 129.524 394.619 127.785C390.719 126.202 379.38 129.262 375.712 137.6C373.603 142.396 375.915 144.058 377.866 144.662C383.366 146.368 389.959 143.709 392.262 141.352L394.18 137.772ZM390.707 129.728C393.207 129.422 390.802 133.528 389.644 133.94C386.728 134.978 382.395 135.472 382.395 135.472C382.395 135.472 386.111 130.289 390.707 129.728Z" fill="black"/>
<path d="M179.717 146.286C179.717 146.286 177.146 147.746 173.349 149.153C170.804 150.096 165.212 151.484 162.872 150.578C159.328 149.208 161.482 146.022 161.482 146.022C161.482 146.022 178.189 143.944 179.542 143.127C181.025 142.236 184.726 136.791 178.39 134.723C172.632 132.845 157.377 136.257 153.874 145.872C151.858 151.401 155.413 153.354 158.258 154.076C166.276 156.114 174.974 153.112 177.733 150.408L179.718 146.284L179.717 146.286ZM173.3 136.931C176.734 136.608 174.206 141.477 172.633 141.8C169.162 142.511 162.686 143.115 162.686 143.115C162.686 143.115 166.984 137.529 173.3 136.931Z" fill="black"/>
<path d="M417.754 138.65C414.546 139.556 412.955 139.644 414.444 136.189C415.451 133.852 420.132 125.65 420.132 125.65C420.132 125.65 416.358 125.958 413.826 126.233C405.563 127.126 401.279 131.181 399.252 134.398C396.46 138.83 397.018 142.1 399.69 142.658C403.714 143.504 409.431 138.061 409.431 138.061C409.431 138.061 408.648 141.832 412.764 141.521C415.187 141.34 416.784 140.278 416.784 140.278L417.756 138.649L417.754 138.65ZM404.639 138.161C402.62 138.562 403.187 135.658 404.499 133.669C406.77 130.23 410.079 129.081 413.906 128.95C413.906 128.95 410.642 136.97 404.64 138.161" fill="black"/>
<path d="M326.533 132.452C332.19 131.966 332.013 133.69 332.013 133.69C338.355 129.917 344.331 131.257 344.331 131.257C344.331 131.257 342.787 132.688 340.454 133.826C336.599 135.709 334.23 132.473 330.573 137.469C328.894 139.764 324.17 149.16 324.17 149.16L316.889 150.204C320.366 144.064 326.531 132.453 326.531 132.453" fill="black"/>
<path d="M426.366 125.124C431.79 124.438 431.002 126.654 431.002 126.654C437.087 122.722 442.813 123.816 442.813 123.816C442.813 123.816 441.329 125.276 439.09 126.476C435.394 128.461 432.988 125.385 429.472 130.413C427.858 132.721 424.983 140.056 424.983 140.056L418.735 140.838C422.523 133.082 426.367 125.122 426.367 125.122" fill="black"/>
<path d="M298.081 152.557C290.401 152.62 291.23 148.625 292.154 146.289C292.87 144.474 294.806 141.153 296.329 138.565C296.329 138.565 297.614 136.712 299.175 135.781C300.722 134.86 305.177 134.109 305.177 134.109C305.194 134.1 301.293 140.948 299.657 144.809C298.359 147.882 297.75 149.877 302.031 149.342C304.977 148.978 306.318 147.573 308.581 143.953C310.239 141.298 312.107 137.674 313.031 135.864C313.873 134.213 316.375 133.285 320.962 133.101C320.962 133.101 316.734 140.664 314.689 144.508C311.745 150.038 304.919 152.497 298.081 152.557Z" fill="black"/>
<path d="M246.27 163.25C254.43 149.792 261.302 138.005 270.983 127.064C270.983 127.064 262.905 127.327 261.753 129.012L251.849 143.196C251.849 143.196 248.457 132.907 247.582 129.128C247.582 129.128 243.558 129.301 241.504 130.217C241.504 130.217 245.717 143.604 247.504 148.464C247.772 149.201 247.281 149.87 246.933 150.382C246.509 151.005 246.089 151.622 245.678 152.229C236.616 153.201 169.598 160.365 160.653 160.737C156.609 160.905 147.768 160.477 138.958 156.218C132.654 153.172 130.049 150.554 125.636 148.1C125.636 148.1 130.926 147.361 139.774 144.014C154.321 138.512 164.005 127.279 144.13 124.217C128.802 121.856 81.656 130.751 81.656 130.751C81.656 130.751 85.1413 133.547 89.8573 132.604C95.6706 131.441 102.76 130.125 109.832 129.092C105.661 135.468 90.6959 158.301 81.4946 171.502C81.4946 171.502 94.9786 170.962 96.9999 167.729C97.9319 166.237 102.831 157.541 107.963 148.445C114.54 152.068 130.044 162.036 133.25 163.464C136.889 165.081 141.008 165.412 146.126 165.084C171.685 163.458 224.221 156.232 244.074 154.589C238.633 162.604 234.636 168.526 234.636 168.526C259.535 165.084 462.936 143.193 462.936 143.193L472.062 140.347C472.062 140.347 296.027 159.365 246.268 163.25M119.676 127.869C127.559 127.088 134.592 126.971 138.729 128.211C149.364 131.392 137.262 138.86 129.281 142.169C120.979 145.614 110.109 147.853 108.072 148.253C112.663 140.119 117.419 131.704 119.676 127.869Z" fill="black"/>
<path d="M373.324 122.064C371.903 124.486 370.111 128.132 368.364 131.893L356.7 133.297C358.716 128.692 360.447 124.704 361.754 121.796C361.754 121.796 359.054 121.968 356.832 122.413C354.456 122.89 353.132 123.449 353.132 123.449C353.132 123.449 354.54 124.04 354.942 124.924C350.794 132.688 343.154 148.994 343.154 148.994L350.107 148.289C351.94 144.268 353.686 140.158 355.286 136.52C358.291 135.896 363.64 135.128 367.098 134.656C364.188 141.07 361.704 147.04 361.704 147.04L367.85 146.397C373.44 132.37 378.602 122.693 380.131 120.108C380.131 120.108 374.682 119.75 373.324 122.065" fill="black"/>
<path d="M399.304 9.07208V44.7026H415.195V9.07208H433.406V98.5092H415.179V60.9879H399.31V98.5092H380.998V9.07208H399.304ZM239.734 9.07208V98.5092H256.505V41.648L266.359 98.5078H277.513L287.523 41.648V98.5078H304.357V9.07208H279.409L272.042 52.0693L264.673 9.07208H239.735H239.734ZM116.213 9.07208L135.853 69.1572V98.5092H155.302V69.1572L174.944 9.07208H156.733L145.578 49.0306L134.421 9.07208H116.213ZM229.571 98.5092H211.361L208.31 77.2226H194.625L191.574 98.5092H173.47L189.387 9.07208H213.625L229.571 98.5092ZM196.942 60.9826H205.991L201.467 29.284L196.942 60.9826ZM370.715 98.5092H352.504L349.455 77.2226H335.77L332.718 98.5092H314.614L330.532 9.07208H354.77L370.715 98.5092ZM338.087 60.9826H347.136L342.612 29.284L338.087 60.9826ZM499.868 98.5092H481.657L478.608 77.2226H464.92L461.873 98.5092H443.767L459.685 9.07208H483.92L499.868 98.5092ZM467.241 60.9826H476.291L471.764 29.284L467.241 60.9826ZM54.4825 0.756104C25.2586 0.756104 1.56934 24.4467 1.56934 53.6693C1.56934 82.8919 25.2599 106.582 54.4825 106.582C83.7051 106.582 107.396 82.8919 107.396 53.6693C107.396 24.4467 83.7051 0.756104 54.4825 0.756104ZM98.3597 79.0012C97.8091 79.9559 96.7157 80.4372 95.6384 80.1985L91.0384 79.1786C82.9798 90.7052 69.6145 98.2478 54.4825 98.2478C39.3506 98.2478 25.9853 90.7052 17.9266 79.1786L13.3266 80.1985C12.2506 80.4372 11.1573 79.9559 10.6066 79.0012C10.056 78.0466 10.1853 76.8586 10.9306 76.0466L14.1066 72.5799C11.4133 66.8386 9.90398 60.4306 9.90398 53.6693C9.90398 30.3334 27.8346 11.1894 50.6705 9.25341L52.0865 4.76143C52.4185 3.71076 53.3812 3.0041 54.4839 3.0041C55.5865 3.0041 56.5492 3.71076 56.8812 4.76143L58.2972 9.25341C81.1318 11.1881 99.0637 30.3334 99.0637 53.6693C99.0637 60.4306 97.5544 66.8386 94.8611 72.5799L98.0371 76.0466C98.7824 76.8586 98.9104 78.0466 98.3597 79.0012ZM96.0677 78.2612C96.2931 78.3106 96.5251 78.2092 96.6411 78.0092C96.7571 77.8092 96.7291 77.5572 96.5731 77.3866L87.1731 67.1279L85.0904 67.4959C84.0851 67.6733 83.0144 67.5133 82.0611 66.9626C80.9958 66.3466 80.2771 65.3613 79.9731 64.2613L79.1158 61.1453C78.5638 59.1399 77.2531 57.3426 75.3091 56.22L70.8851 53.6666L90.4771 42.356L87.9638 38.0027L65.8585 50.7653L62.6838 48.932V45.2666L84.7891 32.504L82.2758 28.1507L62.6838 39.4613V34.3533C62.6838 32.1094 61.7825 30.0747 60.3225 28.5947L58.0532 26.2947C57.2519 25.4827 56.7585 24.3667 56.7585 23.136C56.7585 22.0347 57.1558 21.028 57.8118 20.2467L59.1718 18.6281L54.9879 5.35742C54.9185 5.13742 54.7145 4.98676 54.4839 4.98676C54.2532 4.98676 54.0492 5.13609 53.9799 5.35742L49.7959 18.6281L51.1559 20.2467C51.8119 21.028 52.2092 22.036 52.2092 23.136C52.2092 24.3667 51.7145 25.4827 50.9145 26.2947L48.6452 28.5947C47.1852 30.076 46.2839 32.1094 46.2839 34.3533V39.4613L26.6919 28.1507L24.1786 32.504L46.2839 45.2666V48.932L43.1092 50.7653L21.0039 38.0027L18.4906 42.356L38.0826 53.6666L33.6586 56.22C31.7146 57.3426 30.4039 59.1399 29.8519 61.1453L28.9946 64.2613C28.6919 65.3613 27.9733 66.3466 26.9066 66.9626C25.9533 67.5133 24.8826 67.6733 23.8773 67.4959L21.7946 67.1279L12.3946 77.3866C12.2386 77.5572 12.2106 77.8092 12.3266 78.0092C12.4426 78.2092 12.6733 78.3119 12.9 78.2612L26.4839 75.2492L27.2066 73.2612C27.5559 72.3012 28.2293 71.4546 29.1826 70.9039C30.2479 70.2879 31.4613 70.1586 32.5653 70.4466L35.6919 71.2612C37.7052 71.7852 39.9172 71.5492 41.8599 70.4279L46.2839 67.8746V90.4972H51.3105V64.9733L54.4852 63.1399L57.6598 64.9733V90.4972H62.6865V67.8746L67.1105 70.4279C69.0545 71.5506 71.2665 71.7866 73.2785 71.2612L76.4051 70.4466C77.5091 70.1586 78.7225 70.2879 79.7878 70.9039C80.7411 71.4546 81.4158 72.3012 81.7638 73.2612L82.4865 75.2492L96.0704 78.2612H96.0677ZM54.4825 57.3359L51.3079 55.5026V51.8373L54.4825 50.004L57.6572 51.8373V55.5026L54.4825 57.3359ZM51.3079 34.356C51.3079 32.6027 52.7292 31.1814 54.4825 31.1814C56.2359 31.1814 57.6572 32.6027 57.6572 34.356V42.3667L54.4825 44.2L51.3079 42.3667V34.356ZM39.3439 66.0759C37.8252 66.9533 35.8839 66.4319 35.0066 64.9133C34.1292 63.3946 34.6506 61.4533 36.1692 60.5759L43.1066 56.5706L46.2812 58.4039V62.0693L39.3439 66.0759ZM73.9571 64.9133C73.0798 66.4319 71.1385 66.9519 69.6198 66.0759L62.6825 62.0706V58.4053L65.8572 56.5719L72.7945 60.5773C74.3131 61.4546 74.8331 63.3946 73.9571 64.9133Z" fill="#FF0000"/>
</svg>
