<svg width="160" height="150" viewBox="0 0 160 150" fill="none" xmlns="http://www.w3.org/2000/svg">
<g clip-path="url(#clip0_241_16634)">
<path d="M117.486 112.447V127.137H124.037V112.447H131.547V149.322H124.033V133.851H117.487V149.322H109.936V112.447H117.486ZM51.6937 112.447V149.322H58.61V125.876L62.6688 149.322H67.2701L71.3993 125.876V149.322H78.3396V112.447H68.0517L65.0136 130.174L61.9768 112.447H51.6937ZM0.764648 112.447L8.863 137.222V149.322H16.8801V137.222L24.9796 112.447H17.4729L12.8727 128.92L8.2702 112.447H0.764648ZM47.5011 149.322H39.9967L38.7358 140.543H33.0947L31.835 149.322H24.3725L30.9351 112.447H40.9265L47.5011 149.322ZM34.0496 133.848H37.7809L35.9165 120.782L34.0496 133.848ZM105.698 149.322H98.1911L96.9326 140.543H91.2903L90.0294 149.322H82.5668L89.1306 112.447H99.1257L105.698 149.322ZM92.2452 133.848H95.98L94.1108 120.782L92.2452 133.848ZM158.949 149.322H151.442L150.181 140.543H144.541L143.281 149.322H135.818L142.384 112.447H152.374L158.949 149.322ZM145.494 133.848H149.229L147.36 120.782L145.494 133.848ZM79.8574 0.677734C53.6633 0.677734 32.4278 21.912 32.4278 48.1074C32.4278 74.3027 53.6633 95.537 79.8574 95.537C106.052 95.537 127.287 74.3015 127.287 48.1074C127.287 21.9132 106.053 0.677734 79.8574 0.677734ZM119.188 70.8141C118.694 71.6698 117.714 72.1012 116.748 71.8873L112.625 70.973C105.401 81.3051 93.4212 88.0661 79.8574 88.0661C66.2937 88.0661 54.3134 81.3051 47.0899 70.973L42.9667 71.8873C42.0022 72.1012 41.0222 71.6698 40.5286 70.8141C40.035 69.9583 40.1509 68.8934 40.819 68.1656L43.6658 65.0582C41.2516 59.9119 39.8987 54.168 39.8987 48.1074C39.8987 27.1898 55.9711 10.0298 76.4405 8.29444L77.7097 4.26797C78.0073 3.32619 78.8702 2.69276 79.8586 2.69276C80.847 2.69276 81.7099 3.32619 82.0075 4.26797L83.2768 8.29444C103.745 10.0286 119.819 27.1898 119.819 48.1074C119.819 54.168 118.466 59.9119 116.051 65.0582L118.898 68.1656C119.566 68.8934 119.681 69.9583 119.188 70.8141ZM117.134 70.1507C117.336 70.195 117.544 70.1041 117.648 69.9249C117.752 69.7456 117.727 69.5197 117.587 69.3667L109.161 60.1712L107.295 60.5011C106.393 60.66 105.434 60.5166 104.579 60.023C103.624 59.4709 102.98 58.5877 102.708 57.6017L101.939 54.8086C101.444 53.0111 100.269 51.4 98.5269 50.3937L94.5614 48.105L112.123 37.9665L109.87 34.0643L90.0557 45.5043L87.21 43.861V40.5755L107.024 29.1355L104.772 25.2333L87.21 35.3718V30.7932C87.21 28.7817 86.4021 26.9579 85.0934 25.6313L83.0592 23.5697C82.341 22.8418 81.8988 21.8415 81.8988 20.7384C81.8988 19.7512 82.2549 18.8488 82.8429 18.1485L84.062 16.6976L80.3116 4.80221C80.2494 4.60501 80.0666 4.46995 79.8598 4.46995C79.6531 4.46995 79.4702 4.60381 79.4081 4.80221L75.6577 16.6976L76.8767 18.1485C77.4647 18.8488 77.8209 19.7524 77.8209 20.7384C77.8209 21.8415 77.3775 22.8418 76.6604 23.5697L74.6263 25.6313C73.3176 26.9591 72.5096 28.7817 72.5096 30.7932V35.3718L54.9481 25.2333L52.6952 29.1355L72.5096 40.5755V43.861L69.664 45.5043L49.8496 34.0643L47.5967 37.9665L65.1583 48.105L61.1927 50.3937C59.4502 51.4 58.2754 53.0111 57.7806 54.8086L57.0121 57.6017C56.7408 58.5877 56.0966 59.4709 55.1405 60.023C54.286 60.5166 53.3262 60.66 52.4251 60.5011L50.5583 60.1712L42.1325 69.3667C41.9926 69.5197 41.9675 69.7456 42.0715 69.9249C42.1755 70.1041 42.3822 70.1962 42.5854 70.1507L54.7616 67.4509L55.4094 65.6689C55.7225 64.8084 56.3261 64.0495 57.1806 63.5559C58.1355 63.0037 59.2231 62.8878 60.2127 63.146L63.0153 63.8762C64.82 64.3459 66.8028 64.1343 68.5441 63.1292L72.5096 60.8405V81.1187H77.0154V58.2399L79.861 56.5965L82.7067 58.2399V81.1187H87.2124V60.8405L91.1779 63.1292C92.9205 64.1355 94.9032 64.3471 96.7067 63.8762L99.5093 63.146C100.499 62.8878 101.586 63.0037 102.541 63.5559C103.396 64.0495 104.001 64.8084 104.313 65.6689L104.96 67.4509L117.137 70.1507H117.134ZM79.8586 51.3928L77.013 49.7495V46.464L79.8586 44.8207L82.7043 46.464V49.7495L79.8586 51.3928ZM77.0118 30.7956C77.0118 29.224 78.2858 27.9499 79.8574 27.9499C81.4291 27.9499 82.7031 29.224 82.7031 30.7956V37.9761L79.8574 39.6194L77.0118 37.9761V30.7956ZM66.2889 59.2271C64.9276 60.0135 63.1875 59.5462 62.401 58.1849C61.6146 56.8236 62.0819 55.0835 63.4432 54.2971L69.6616 50.7068L72.5072 52.3501V55.6356L66.2889 59.2271ZM97.315 58.1861C96.5286 59.5474 94.7885 60.0135 93.4272 59.2283L87.2088 55.638V52.3525L90.0545 50.7092L96.2729 54.2994C97.6341 55.0859 98.1002 56.8248 97.315 58.1861Z" fill="#FF0000"/>
</g>
<defs>
<clipPath id="clip0_241_16634">
<rect width="159.54" height="150" fill="white" transform="translate(0.0869141)"/>
</clipPath>
</defs>
</svg>
